%TF.GenerationSoftware,KiCad,Pcbnew,8.0.6*%
%TF.CreationDate,2024-12-30T16:19:12+01:00*%
%TF.ProjectId,pico-glitcher-v2.1-extension,7069636f-2d67-46c6-9974-636865722d76,rev?*%
%TF.SameCoordinates,PX3d09000PY6590fa0*%
%TF.FileFunction,Drillmap*%
%TF.FilePolarity,Positive*%
%FSLAX45Y45*%
G04 Gerber Fmt 4.5, Leading zero omitted, Abs format (unit mm)*
G04 Created by KiCad (PCBNEW 8.0.6) date 2024-12-30 16:19:12*
%MOMM*%
%LPD*%
G01*
G04 APERTURE LIST*
%ADD10C,0.050000*%
%ADD11C,0.200000*%
%ADD12C,0.100000*%
%ADD13C,0.150000*%
%ADD14C,0.170000*%
G04 APERTURE END LIST*
D10*
X7350000Y4000000D02*
G75*
G02*
X7500000Y3850000I0J-150000D01*
G01*
X7500000Y150000D02*
X7500000Y3850000D01*
X0Y3850000D02*
X0Y150000D01*
X0Y3850000D02*
G75*
G02*
X150000Y4000000I150000J0D01*
G01*
X7500000Y150000D02*
G75*
G02*
X7350000Y0I-150000J0D01*
G01*
X150000Y0D02*
G75*
G02*
X0Y150000I0J150000D01*
G01*
X7350000Y4000000D02*
X150000Y4000000D01*
X150000Y0D02*
X7350000Y0D01*
D11*
D12*
X5610000Y2770000D02*
X5630000Y2750000D01*
X5630000Y2770000D02*
X5610000Y2750000D01*
X5610000Y2640000D02*
X5630000Y2620000D01*
X5630000Y2640000D02*
X5610000Y2620000D01*
X5610000Y2510000D02*
X5630000Y2490000D01*
X5630000Y2510000D02*
X5610000Y2490000D01*
X5610000Y2380000D02*
X5630000Y2360000D01*
X5630000Y2380000D02*
X5610000Y2360000D01*
X5740000Y2770000D02*
X5760000Y2750000D01*
X5760000Y2770000D02*
X5740000Y2750000D01*
X5740000Y2640000D02*
X5760000Y2620000D01*
X5760000Y2640000D02*
X5740000Y2620000D01*
X5740000Y2510000D02*
X5760000Y2490000D01*
X5760000Y2510000D02*
X5740000Y2490000D01*
X5740000Y2380000D02*
X5760000Y2360000D01*
X5760000Y2380000D02*
X5740000Y2360000D01*
X1165000Y2100000D02*
G75*
G02*
X1135000Y2100000I-15000J0D01*
G01*
X1135000Y2100000D02*
G75*
G02*
X1165000Y2100000I15000J0D01*
G01*
X1165000Y200000D02*
G75*
G02*
X1135000Y200000I-15000J0D01*
G01*
X1135000Y200000D02*
G75*
G02*
X1165000Y200000I15000J0D01*
G01*
X1192300Y1592300D02*
G75*
G02*
X1162300Y1592300I-15000J0D01*
G01*
X1162300Y1592300D02*
G75*
G02*
X1192300Y1592300I15000J0D01*
G01*
X1415000Y1950000D02*
G75*
G02*
X1385000Y1950000I-15000J0D01*
G01*
X1385000Y1950000D02*
G75*
G02*
X1415000Y1950000I15000J0D01*
G01*
X1415000Y1250000D02*
G75*
G02*
X1385000Y1250000I-15000J0D01*
G01*
X1385000Y1250000D02*
G75*
G02*
X1415000Y1250000I15000J0D01*
G01*
X1465000Y2300000D02*
G75*
G02*
X1435000Y2300000I-15000J0D01*
G01*
X1435000Y2300000D02*
G75*
G02*
X1465000Y2300000I15000J0D01*
G01*
X1565000Y1850000D02*
G75*
G02*
X1535000Y1850000I-15000J0D01*
G01*
X1535000Y1850000D02*
G75*
G02*
X1565000Y1850000I15000J0D01*
G01*
X1615000Y1750000D02*
G75*
G02*
X1585000Y1750000I-15000J0D01*
G01*
X1585000Y1750000D02*
G75*
G02*
X1615000Y1750000I15000J0D01*
G01*
X1665000Y2600000D02*
G75*
G02*
X1635000Y2600000I-15000J0D01*
G01*
X1635000Y2600000D02*
G75*
G02*
X1665000Y2600000I15000J0D01*
G01*
X1715000Y2512700D02*
G75*
G02*
X1685000Y2512700I-15000J0D01*
G01*
X1685000Y2512700D02*
G75*
G02*
X1715000Y2512700I15000J0D01*
G01*
X1765000Y2950000D02*
G75*
G02*
X1735000Y2950000I-15000J0D01*
G01*
X1735000Y2950000D02*
G75*
G02*
X1765000Y2950000I15000J0D01*
G01*
X2115000Y2750000D02*
G75*
G02*
X2085000Y2750000I-15000J0D01*
G01*
X2085000Y2750000D02*
G75*
G02*
X2115000Y2750000I15000J0D01*
G01*
X2165000Y2000000D02*
G75*
G02*
X2135000Y2000000I-15000J0D01*
G01*
X2135000Y2000000D02*
G75*
G02*
X2165000Y2000000I15000J0D01*
G01*
X2215000Y2450000D02*
G75*
G02*
X2185000Y2450000I-15000J0D01*
G01*
X2185000Y2450000D02*
G75*
G02*
X2215000Y2450000I15000J0D01*
G01*
X2215000Y2100000D02*
G75*
G02*
X2185000Y2100000I-15000J0D01*
G01*
X2185000Y2100000D02*
G75*
G02*
X2215000Y2100000I15000J0D01*
G01*
X2215000Y1750000D02*
G75*
G02*
X2185000Y1750000I-15000J0D01*
G01*
X2185000Y1750000D02*
G75*
G02*
X2215000Y1750000I15000J0D01*
G01*
X2240000Y1425000D02*
G75*
G02*
X2210000Y1425000I-15000J0D01*
G01*
X2210000Y1425000D02*
G75*
G02*
X2240000Y1425000I15000J0D01*
G01*
X2415000Y1550000D02*
G75*
G02*
X2385000Y1550000I-15000J0D01*
G01*
X2385000Y1550000D02*
G75*
G02*
X2415000Y1550000I15000J0D01*
G01*
X2415000Y1400000D02*
G75*
G02*
X2385000Y1400000I-15000J0D01*
G01*
X2385000Y1400000D02*
G75*
G02*
X2415000Y1400000I15000J0D01*
G01*
X2415000Y750000D02*
G75*
G02*
X2385000Y750000I-15000J0D01*
G01*
X2385000Y750000D02*
G75*
G02*
X2415000Y750000I15000J0D01*
G01*
X2440000Y2375000D02*
G75*
G02*
X2410000Y2375000I-15000J0D01*
G01*
X2410000Y2375000D02*
G75*
G02*
X2440000Y2375000I15000J0D01*
G01*
X2565000Y2800000D02*
G75*
G02*
X2535000Y2800000I-15000J0D01*
G01*
X2535000Y2800000D02*
G75*
G02*
X2565000Y2800000I15000J0D01*
G01*
X2565000Y850000D02*
G75*
G02*
X2535000Y850000I-15000J0D01*
G01*
X2535000Y850000D02*
G75*
G02*
X2565000Y850000I15000J0D01*
G01*
X2615000Y3250000D02*
G75*
G02*
X2585000Y3250000I-15000J0D01*
G01*
X2585000Y3250000D02*
G75*
G02*
X2615000Y3250000I15000J0D01*
G01*
X2765000Y3300000D02*
G75*
G02*
X2735000Y3300000I-15000J0D01*
G01*
X2735000Y3300000D02*
G75*
G02*
X2765000Y3300000I15000J0D01*
G01*
X2915000Y2800000D02*
G75*
G02*
X2885000Y2800000I-15000J0D01*
G01*
X2885000Y2800000D02*
G75*
G02*
X2915000Y2800000I15000J0D01*
G01*
X2965000Y2350000D02*
G75*
G02*
X2935000Y2350000I-15000J0D01*
G01*
X2935000Y2350000D02*
G75*
G02*
X2965000Y2350000I15000J0D01*
G01*
X3015000Y850000D02*
G75*
G02*
X2985000Y850000I-15000J0D01*
G01*
X2985000Y850000D02*
G75*
G02*
X3015000Y850000I15000J0D01*
G01*
X3115000Y2350000D02*
G75*
G02*
X3085000Y2350000I-15000J0D01*
G01*
X3085000Y2350000D02*
G75*
G02*
X3115000Y2350000I15000J0D01*
G01*
X3165000Y3250000D02*
G75*
G02*
X3135000Y3250000I-15000J0D01*
G01*
X3135000Y3250000D02*
G75*
G02*
X3165000Y3250000I15000J0D01*
G01*
X3165000Y1850000D02*
G75*
G02*
X3135000Y1850000I-15000J0D01*
G01*
X3135000Y1850000D02*
G75*
G02*
X3165000Y1850000I15000J0D01*
G01*
X3215000Y3400000D02*
G75*
G02*
X3185000Y3400000I-15000J0D01*
G01*
X3185000Y3400000D02*
G75*
G02*
X3215000Y3400000I15000J0D01*
G01*
X3565000Y1450000D02*
G75*
G02*
X3535000Y1450000I-15000J0D01*
G01*
X3535000Y1450000D02*
G75*
G02*
X3565000Y1450000I15000J0D01*
G01*
X3615000Y2800000D02*
G75*
G02*
X3585000Y2800000I-15000J0D01*
G01*
X3585000Y2800000D02*
G75*
G02*
X3615000Y2800000I15000J0D01*
G01*
X3665000Y2600000D02*
G75*
G02*
X3635000Y2600000I-15000J0D01*
G01*
X3635000Y2600000D02*
G75*
G02*
X3665000Y2600000I15000J0D01*
G01*
X3715000Y3650000D02*
G75*
G02*
X3685000Y3650000I-15000J0D01*
G01*
X3685000Y3650000D02*
G75*
G02*
X3715000Y3650000I15000J0D01*
G01*
X3815000Y1800000D02*
G75*
G02*
X3785000Y1800000I-15000J0D01*
G01*
X3785000Y1800000D02*
G75*
G02*
X3815000Y1800000I15000J0D01*
G01*
X3963500Y2900000D02*
G75*
G02*
X3933500Y2900000I-15000J0D01*
G01*
X3933500Y2900000D02*
G75*
G02*
X3963500Y2900000I15000J0D01*
G01*
X4465000Y1950000D02*
G75*
G02*
X4435000Y1950000I-15000J0D01*
G01*
X4435000Y1950000D02*
G75*
G02*
X4465000Y1950000I15000J0D01*
G01*
X4590000Y3500000D02*
G75*
G02*
X4560000Y3500000I-15000J0D01*
G01*
X4560000Y3500000D02*
G75*
G02*
X4590000Y3500000I15000J0D01*
G01*
X4615000Y2950000D02*
G75*
G02*
X4585000Y2950000I-15000J0D01*
G01*
X4585000Y2950000D02*
G75*
G02*
X4615000Y2950000I15000J0D01*
G01*
X5015000Y3025000D02*
G75*
G02*
X4985000Y3025000I-15000J0D01*
G01*
X4985000Y3025000D02*
G75*
G02*
X5015000Y3025000I15000J0D01*
G01*
X5065000Y2500000D02*
G75*
G02*
X5035000Y2500000I-15000J0D01*
G01*
X5035000Y2500000D02*
G75*
G02*
X5065000Y2500000I15000J0D01*
G01*
X5215000Y3150000D02*
G75*
G02*
X5185000Y3150000I-15000J0D01*
G01*
X5185000Y3150000D02*
G75*
G02*
X5215000Y3150000I15000J0D01*
G01*
X5515000Y3000000D02*
G75*
G02*
X5485000Y3000000I-15000J0D01*
G01*
X5485000Y3000000D02*
G75*
G02*
X5515000Y3000000I15000J0D01*
G01*
X5515000Y2900000D02*
G75*
G02*
X5485000Y2900000I-15000J0D01*
G01*
X5485000Y2900000D02*
G75*
G02*
X5515000Y2900000I15000J0D01*
G01*
X5615000Y3000000D02*
G75*
G02*
X5585000Y3000000I-15000J0D01*
G01*
X5585000Y3000000D02*
G75*
G02*
X5615000Y3000000I15000J0D01*
G01*
X5615000Y2900000D02*
G75*
G02*
X5585000Y2900000I-15000J0D01*
G01*
X5585000Y2900000D02*
G75*
G02*
X5615000Y2900000I15000J0D01*
G01*
X5715000Y3000000D02*
G75*
G02*
X5685000Y3000000I-15000J0D01*
G01*
X5685000Y3000000D02*
G75*
G02*
X5715000Y3000000I15000J0D01*
G01*
X5715000Y2900000D02*
G75*
G02*
X5685000Y2900000I-15000J0D01*
G01*
X5685000Y2900000D02*
G75*
G02*
X5715000Y2900000I15000J0D01*
G01*
X5715000Y2200000D02*
G75*
G02*
X5685000Y2200000I-15000J0D01*
G01*
X5685000Y2200000D02*
G75*
G02*
X5715000Y2200000I15000J0D01*
G01*
X5715000Y2100000D02*
G75*
G02*
X5685000Y2100000I-15000J0D01*
G01*
X5685000Y2100000D02*
G75*
G02*
X5715000Y2100000I15000J0D01*
G01*
X5815000Y2200000D02*
G75*
G02*
X5785000Y2200000I-15000J0D01*
G01*
X5785000Y2200000D02*
G75*
G02*
X5815000Y2200000I15000J0D01*
G01*
X5815000Y2100000D02*
G75*
G02*
X5785000Y2100000I-15000J0D01*
G01*
X5785000Y2100000D02*
G75*
G02*
X5815000Y2100000I15000J0D01*
G01*
X5915000Y2200000D02*
G75*
G02*
X5885000Y2200000I-15000J0D01*
G01*
X5885000Y2200000D02*
G75*
G02*
X5915000Y2200000I15000J0D01*
G01*
X5915000Y2100000D02*
G75*
G02*
X5885000Y2100000I-15000J0D01*
G01*
X5885000Y2100000D02*
G75*
G02*
X5915000Y2100000I15000J0D01*
G01*
X1800000Y1466500D02*
X1800000Y1433500D01*
X1783500Y1450000D02*
X1816500Y1450000D01*
X1665910Y934090D02*
X1665910Y965910D01*
X1634090Y965910D01*
X1634090Y934090D01*
X1665910Y934090D01*
X5165910Y2134090D02*
X5165910Y2165910D01*
X5134090Y2165910D01*
X5134090Y2134090D01*
X5165910Y2134090D01*
X6165910Y3134090D02*
X6165910Y3165910D01*
X6134090Y3165910D01*
X6134090Y3134090D01*
X6165910Y3134090D01*
X375000Y2686000D02*
X425000Y2736000D01*
X375000Y2786000D01*
X325000Y2736000D01*
X375000Y2686000D01*
X375000Y2432000D02*
X425000Y2482000D01*
X375000Y2532000D01*
X325000Y2482000D01*
X375000Y2432000D01*
X375000Y2178000D02*
X425000Y2228000D01*
X375000Y2278000D01*
X325000Y2228000D01*
X375000Y2178000D01*
X375000Y1924000D02*
X425000Y1974000D01*
X375000Y2024000D01*
X325000Y1974000D01*
X375000Y1924000D01*
X375000Y1670000D02*
X425000Y1720000D01*
X375000Y1770000D01*
X325000Y1720000D01*
X375000Y1670000D01*
X375000Y1416000D02*
X425000Y1466000D01*
X375000Y1516000D01*
X325000Y1466000D01*
X375000Y1416000D01*
X375000Y1162000D02*
X425000Y1212000D01*
X375000Y1262000D01*
X325000Y1212000D01*
X375000Y1162000D01*
X375000Y908000D02*
X425000Y958000D01*
X375000Y1008000D01*
X325000Y958000D01*
X375000Y908000D01*
X375000Y654000D02*
X425000Y704000D01*
X375000Y754000D01*
X325000Y704000D01*
X375000Y654000D01*
X375000Y400000D02*
X425000Y450000D01*
X375000Y500000D01*
X325000Y450000D01*
X375000Y400000D01*
X629000Y2686000D02*
X679000Y2736000D01*
X629000Y2786000D01*
X579000Y2736000D01*
X629000Y2686000D01*
X629000Y2432000D02*
X679000Y2482000D01*
X629000Y2532000D01*
X579000Y2482000D01*
X629000Y2432000D01*
X629000Y2178000D02*
X679000Y2228000D01*
X629000Y2278000D01*
X579000Y2228000D01*
X629000Y2178000D01*
X629000Y1924000D02*
X679000Y1974000D01*
X629000Y2024000D01*
X579000Y1974000D01*
X629000Y1924000D01*
X629000Y1670000D02*
X679000Y1720000D01*
X629000Y1770000D01*
X579000Y1720000D01*
X629000Y1670000D01*
X629000Y1416000D02*
X679000Y1466000D01*
X629000Y1516000D01*
X579000Y1466000D01*
X629000Y1416000D01*
X629000Y1162000D02*
X679000Y1212000D01*
X629000Y1262000D01*
X579000Y1212000D01*
X629000Y1162000D01*
X629000Y908000D02*
X679000Y958000D01*
X629000Y1008000D01*
X579000Y958000D01*
X629000Y908000D01*
X629000Y654000D02*
X679000Y704000D01*
X629000Y754000D01*
X579000Y704000D01*
X629000Y654000D01*
X629000Y400000D02*
X679000Y450000D01*
X629000Y500000D01*
X579000Y450000D01*
X629000Y400000D01*
X4100000Y504000D02*
X4150000Y554000D01*
X4100000Y604000D01*
X4050000Y554000D01*
X4100000Y504000D01*
X4100000Y250000D02*
X4150000Y300000D01*
X4100000Y350000D01*
X4050000Y300000D01*
X4100000Y250000D01*
X5550000Y504000D02*
X5600000Y554000D01*
X5550000Y604000D01*
X5500000Y554000D01*
X5550000Y504000D01*
X5550000Y250000D02*
X5600000Y300000D01*
X5550000Y350000D01*
X5500000Y300000D01*
X5550000Y250000D01*
X7150000Y2858000D02*
X7200000Y2908000D01*
X7150000Y2958000D01*
X7100000Y2908000D01*
X7150000Y2858000D01*
X7150000Y2604000D02*
X7200000Y2654000D01*
X7150000Y2704000D01*
X7100000Y2654000D01*
X7150000Y2604000D01*
X7150000Y2350000D02*
X7200000Y2400000D01*
X7150000Y2450000D01*
X7100000Y2400000D01*
X7150000Y2350000D01*
D13*
X4725000Y629000D02*
X4875000Y479000D01*
X4875000Y629000D02*
X4725000Y479000D01*
X4875000Y554000D02*
G75*
G02*
X4725000Y554000I-75000J0D01*
G01*
X4725000Y554000D02*
G75*
G02*
X4875000Y554000I75000J0D01*
G01*
X6175000Y629000D02*
X6325000Y479000D01*
X6325000Y629000D02*
X6175000Y479000D01*
X6325000Y554000D02*
G75*
G02*
X6175000Y554000I-75000J0D01*
G01*
X6175000Y554000D02*
G75*
G02*
X6325000Y554000I75000J0D01*
G01*
D14*
X4461000Y893000D02*
X4631000Y723000D01*
X4631000Y893000D02*
X4461000Y723000D01*
X4546000Y893000D02*
X4546000Y723000D01*
X4461000Y808000D02*
X4631000Y808000D01*
X4461000Y385000D02*
X4631000Y215000D01*
X4631000Y385000D02*
X4461000Y215000D01*
X4546000Y385000D02*
X4546000Y215000D01*
X4461000Y300000D02*
X4631000Y300000D01*
X4969000Y893000D02*
X5139000Y723000D01*
X5139000Y893000D02*
X4969000Y723000D01*
X5054000Y893000D02*
X5054000Y723000D01*
X4969000Y808000D02*
X5139000Y808000D01*
X4969000Y385000D02*
X5139000Y215000D01*
X5139000Y385000D02*
X4969000Y215000D01*
X5054000Y385000D02*
X5054000Y215000D01*
X4969000Y300000D02*
X5139000Y300000D01*
X5911000Y893000D02*
X6081000Y723000D01*
X6081000Y893000D02*
X5911000Y723000D01*
X5996000Y893000D02*
X5996000Y723000D01*
X5911000Y808000D02*
X6081000Y808000D01*
X5911000Y385000D02*
X6081000Y215000D01*
X6081000Y385000D02*
X5911000Y215000D01*
X5996000Y385000D02*
X5996000Y215000D01*
X5911000Y300000D02*
X6081000Y300000D01*
X6419000Y893000D02*
X6589000Y723000D01*
X6589000Y893000D02*
X6419000Y723000D01*
X6504000Y893000D02*
X6504000Y723000D01*
X6419000Y808000D02*
X6589000Y808000D01*
X6419000Y385000D02*
X6589000Y215000D01*
X6589000Y385000D02*
X6419000Y215000D01*
X6504000Y385000D02*
X6504000Y215000D01*
X6419000Y300000D02*
X6589000Y300000D01*
D11*
X258277Y-313984D02*
X258277Y-113984D01*
X258277Y-113984D02*
X305896Y-113984D01*
X305896Y-113984D02*
X334467Y-123508D01*
X334467Y-123508D02*
X353515Y-142555D01*
X353515Y-142555D02*
X363039Y-161603D01*
X363039Y-161603D02*
X372562Y-199698D01*
X372562Y-199698D02*
X372562Y-228269D01*
X372562Y-228269D02*
X363039Y-266365D01*
X363039Y-266365D02*
X353515Y-285412D01*
X353515Y-285412D02*
X334467Y-304460D01*
X334467Y-304460D02*
X305896Y-313984D01*
X305896Y-313984D02*
X258277Y-313984D01*
X458277Y-313984D02*
X458277Y-180650D01*
X458277Y-218746D02*
X467801Y-199698D01*
X467801Y-199698D02*
X477324Y-190174D01*
X477324Y-190174D02*
X496372Y-180650D01*
X496372Y-180650D02*
X515420Y-180650D01*
X582086Y-313984D02*
X582086Y-180650D01*
X582086Y-113984D02*
X572563Y-123508D01*
X572563Y-123508D02*
X582086Y-133031D01*
X582086Y-133031D02*
X591610Y-123508D01*
X591610Y-123508D02*
X582086Y-113984D01*
X582086Y-113984D02*
X582086Y-133031D01*
X705896Y-313984D02*
X686848Y-304460D01*
X686848Y-304460D02*
X677324Y-285412D01*
X677324Y-285412D02*
X677324Y-113984D01*
X810658Y-313984D02*
X791610Y-304460D01*
X791610Y-304460D02*
X782086Y-285412D01*
X782086Y-285412D02*
X782086Y-113984D01*
X1039229Y-313984D02*
X1039229Y-113984D01*
X1039229Y-113984D02*
X1105896Y-256841D01*
X1105896Y-256841D02*
X1172563Y-113984D01*
X1172563Y-113984D02*
X1172563Y-313984D01*
X1353515Y-313984D02*
X1353515Y-209222D01*
X1353515Y-209222D02*
X1343991Y-190174D01*
X1343991Y-190174D02*
X1324944Y-180650D01*
X1324944Y-180650D02*
X1286848Y-180650D01*
X1286848Y-180650D02*
X1267801Y-190174D01*
X1353515Y-304460D02*
X1334467Y-313984D01*
X1334467Y-313984D02*
X1286848Y-313984D01*
X1286848Y-313984D02*
X1267801Y-304460D01*
X1267801Y-304460D02*
X1258277Y-285412D01*
X1258277Y-285412D02*
X1258277Y-266365D01*
X1258277Y-266365D02*
X1267801Y-247317D01*
X1267801Y-247317D02*
X1286848Y-237793D01*
X1286848Y-237793D02*
X1334467Y-237793D01*
X1334467Y-237793D02*
X1353515Y-228269D01*
X1448753Y-180650D02*
X1448753Y-380650D01*
X1448753Y-190174D02*
X1467801Y-180650D01*
X1467801Y-180650D02*
X1505896Y-180650D01*
X1505896Y-180650D02*
X1524943Y-190174D01*
X1524943Y-190174D02*
X1534467Y-199698D01*
X1534467Y-199698D02*
X1543991Y-218746D01*
X1543991Y-218746D02*
X1543991Y-275889D01*
X1543991Y-275889D02*
X1534467Y-294936D01*
X1534467Y-294936D02*
X1524943Y-304460D01*
X1524943Y-304460D02*
X1505896Y-313984D01*
X1505896Y-313984D02*
X1467801Y-313984D01*
X1467801Y-313984D02*
X1448753Y-304460D01*
X1629705Y-294936D02*
X1639229Y-304460D01*
X1639229Y-304460D02*
X1629705Y-313984D01*
X1629705Y-313984D02*
X1620182Y-304460D01*
X1620182Y-304460D02*
X1629705Y-294936D01*
X1629705Y-294936D02*
X1629705Y-313984D01*
X1629705Y-190174D02*
X1639229Y-199698D01*
X1639229Y-199698D02*
X1629705Y-209222D01*
X1629705Y-209222D02*
X1620182Y-199698D01*
X1620182Y-199698D02*
X1629705Y-190174D01*
X1629705Y-190174D02*
X1629705Y-209222D01*
D12*
X-22500Y-632500D02*
X-2500Y-652500D01*
X-2500Y-632500D02*
X-22500Y-652500D01*
D11*
X296372Y-533984D02*
X315420Y-533984D01*
X315420Y-533984D02*
X334467Y-543508D01*
X334467Y-543508D02*
X343991Y-553031D01*
X343991Y-553031D02*
X353515Y-572079D01*
X353515Y-572079D02*
X363039Y-610174D01*
X363039Y-610174D02*
X363039Y-657793D01*
X363039Y-657793D02*
X353515Y-695889D01*
X353515Y-695889D02*
X343991Y-714936D01*
X343991Y-714936D02*
X334467Y-724460D01*
X334467Y-724460D02*
X315420Y-733984D01*
X315420Y-733984D02*
X296372Y-733984D01*
X296372Y-733984D02*
X277324Y-724460D01*
X277324Y-724460D02*
X267801Y-714936D01*
X267801Y-714936D02*
X258277Y-695889D01*
X258277Y-695889D02*
X248753Y-657793D01*
X248753Y-657793D02*
X248753Y-610174D01*
X248753Y-610174D02*
X258277Y-572079D01*
X258277Y-572079D02*
X267801Y-553031D01*
X267801Y-553031D02*
X277324Y-543508D01*
X277324Y-543508D02*
X296372Y-533984D01*
X448753Y-714936D02*
X458277Y-724460D01*
X458277Y-724460D02*
X448753Y-733984D01*
X448753Y-733984D02*
X439229Y-724460D01*
X439229Y-724460D02*
X448753Y-714936D01*
X448753Y-714936D02*
X448753Y-733984D01*
X534467Y-553031D02*
X543991Y-543508D01*
X543991Y-543508D02*
X563039Y-533984D01*
X563039Y-533984D02*
X610658Y-533984D01*
X610658Y-533984D02*
X629705Y-543508D01*
X629705Y-543508D02*
X639229Y-553031D01*
X639229Y-553031D02*
X648753Y-572079D01*
X648753Y-572079D02*
X648753Y-591127D01*
X648753Y-591127D02*
X639229Y-619698D01*
X639229Y-619698D02*
X524944Y-733984D01*
X524944Y-733984D02*
X648753Y-733984D01*
X772562Y-533984D02*
X791610Y-533984D01*
X791610Y-533984D02*
X810658Y-543508D01*
X810658Y-543508D02*
X820182Y-553031D01*
X820182Y-553031D02*
X829705Y-572079D01*
X829705Y-572079D02*
X839229Y-610174D01*
X839229Y-610174D02*
X839229Y-657793D01*
X839229Y-657793D02*
X829705Y-695889D01*
X829705Y-695889D02*
X820182Y-714936D01*
X820182Y-714936D02*
X810658Y-724460D01*
X810658Y-724460D02*
X791610Y-733984D01*
X791610Y-733984D02*
X772562Y-733984D01*
X772562Y-733984D02*
X753515Y-724460D01*
X753515Y-724460D02*
X743991Y-714936D01*
X743991Y-714936D02*
X734467Y-695889D01*
X734467Y-695889D02*
X724943Y-657793D01*
X724943Y-657793D02*
X724943Y-610174D01*
X724943Y-610174D02*
X734467Y-572079D01*
X734467Y-572079D02*
X743991Y-553031D01*
X743991Y-553031D02*
X753515Y-543508D01*
X753515Y-543508D02*
X772562Y-533984D01*
X963039Y-533984D02*
X982086Y-533984D01*
X982086Y-533984D02*
X1001134Y-543508D01*
X1001134Y-543508D02*
X1010658Y-553031D01*
X1010658Y-553031D02*
X1020182Y-572079D01*
X1020182Y-572079D02*
X1029705Y-610174D01*
X1029705Y-610174D02*
X1029705Y-657793D01*
X1029705Y-657793D02*
X1020182Y-695889D01*
X1020182Y-695889D02*
X1010658Y-714936D01*
X1010658Y-714936D02*
X1001134Y-724460D01*
X1001134Y-724460D02*
X982086Y-733984D01*
X982086Y-733984D02*
X963039Y-733984D01*
X963039Y-733984D02*
X943991Y-724460D01*
X943991Y-724460D02*
X934467Y-714936D01*
X934467Y-714936D02*
X924943Y-695889D01*
X924943Y-695889D02*
X915420Y-657793D01*
X915420Y-657793D02*
X915420Y-610174D01*
X915420Y-610174D02*
X924943Y-572079D01*
X924943Y-572079D02*
X934467Y-553031D01*
X934467Y-553031D02*
X943991Y-543508D01*
X943991Y-543508D02*
X963039Y-533984D01*
X1115420Y-733984D02*
X1115420Y-600650D01*
X1115420Y-619698D02*
X1124944Y-610174D01*
X1124944Y-610174D02*
X1143991Y-600650D01*
X1143991Y-600650D02*
X1172563Y-600650D01*
X1172563Y-600650D02*
X1191610Y-610174D01*
X1191610Y-610174D02*
X1201134Y-629222D01*
X1201134Y-629222D02*
X1201134Y-733984D01*
X1201134Y-629222D02*
X1210658Y-610174D01*
X1210658Y-610174D02*
X1229705Y-600650D01*
X1229705Y-600650D02*
X1258277Y-600650D01*
X1258277Y-600650D02*
X1277325Y-610174D01*
X1277325Y-610174D02*
X1286848Y-629222D01*
X1286848Y-629222D02*
X1286848Y-733984D01*
X1382086Y-733984D02*
X1382086Y-600650D01*
X1382086Y-619698D02*
X1391610Y-610174D01*
X1391610Y-610174D02*
X1410658Y-600650D01*
X1410658Y-600650D02*
X1439229Y-600650D01*
X1439229Y-600650D02*
X1458277Y-610174D01*
X1458277Y-610174D02*
X1467801Y-629222D01*
X1467801Y-629222D02*
X1467801Y-733984D01*
X1467801Y-629222D02*
X1477324Y-610174D01*
X1477324Y-610174D02*
X1496372Y-600650D01*
X1496372Y-600650D02*
X1524943Y-600650D01*
X1524943Y-600650D02*
X1543991Y-610174D01*
X1543991Y-610174D02*
X1553515Y-629222D01*
X1553515Y-629222D02*
X1553515Y-733984D01*
X1943991Y-524460D02*
X1772563Y-781603D01*
X2201134Y-533984D02*
X2220182Y-533984D01*
X2220182Y-533984D02*
X2239229Y-543508D01*
X2239229Y-543508D02*
X2248753Y-553031D01*
X2248753Y-553031D02*
X2258277Y-572079D01*
X2258277Y-572079D02*
X2267801Y-610174D01*
X2267801Y-610174D02*
X2267801Y-657793D01*
X2267801Y-657793D02*
X2258277Y-695889D01*
X2258277Y-695889D02*
X2248753Y-714936D01*
X2248753Y-714936D02*
X2239229Y-724460D01*
X2239229Y-724460D02*
X2220182Y-733984D01*
X2220182Y-733984D02*
X2201134Y-733984D01*
X2201134Y-733984D02*
X2182087Y-724460D01*
X2182087Y-724460D02*
X2172563Y-714936D01*
X2172563Y-714936D02*
X2163039Y-695889D01*
X2163039Y-695889D02*
X2153515Y-657793D01*
X2153515Y-657793D02*
X2153515Y-610174D01*
X2153515Y-610174D02*
X2163039Y-572079D01*
X2163039Y-572079D02*
X2172563Y-553031D01*
X2172563Y-553031D02*
X2182087Y-543508D01*
X2182087Y-543508D02*
X2201134Y-533984D01*
X2353515Y-714936D02*
X2363039Y-724460D01*
X2363039Y-724460D02*
X2353515Y-733984D01*
X2353515Y-733984D02*
X2343991Y-724460D01*
X2343991Y-724460D02*
X2353515Y-714936D01*
X2353515Y-714936D02*
X2353515Y-733984D01*
X2486848Y-533984D02*
X2505896Y-533984D01*
X2505896Y-533984D02*
X2524944Y-543508D01*
X2524944Y-543508D02*
X2534468Y-553031D01*
X2534468Y-553031D02*
X2543991Y-572079D01*
X2543991Y-572079D02*
X2553515Y-610174D01*
X2553515Y-610174D02*
X2553515Y-657793D01*
X2553515Y-657793D02*
X2543991Y-695889D01*
X2543991Y-695889D02*
X2534468Y-714936D01*
X2534468Y-714936D02*
X2524944Y-724460D01*
X2524944Y-724460D02*
X2505896Y-733984D01*
X2505896Y-733984D02*
X2486848Y-733984D01*
X2486848Y-733984D02*
X2467801Y-724460D01*
X2467801Y-724460D02*
X2458277Y-714936D01*
X2458277Y-714936D02*
X2448753Y-695889D01*
X2448753Y-695889D02*
X2439229Y-657793D01*
X2439229Y-657793D02*
X2439229Y-610174D01*
X2439229Y-610174D02*
X2448753Y-572079D01*
X2448753Y-572079D02*
X2458277Y-553031D01*
X2458277Y-553031D02*
X2467801Y-543508D01*
X2467801Y-543508D02*
X2486848Y-533984D01*
X2677325Y-533984D02*
X2696372Y-533984D01*
X2696372Y-533984D02*
X2715420Y-543508D01*
X2715420Y-543508D02*
X2724944Y-553031D01*
X2724944Y-553031D02*
X2734468Y-572079D01*
X2734468Y-572079D02*
X2743991Y-610174D01*
X2743991Y-610174D02*
X2743991Y-657793D01*
X2743991Y-657793D02*
X2734468Y-695889D01*
X2734468Y-695889D02*
X2724944Y-714936D01*
X2724944Y-714936D02*
X2715420Y-724460D01*
X2715420Y-724460D02*
X2696372Y-733984D01*
X2696372Y-733984D02*
X2677325Y-733984D01*
X2677325Y-733984D02*
X2658277Y-724460D01*
X2658277Y-724460D02*
X2648753Y-714936D01*
X2648753Y-714936D02*
X2639229Y-695889D01*
X2639229Y-695889D02*
X2629706Y-657793D01*
X2629706Y-657793D02*
X2629706Y-610174D01*
X2629706Y-610174D02*
X2639229Y-572079D01*
X2639229Y-572079D02*
X2648753Y-553031D01*
X2648753Y-553031D02*
X2658277Y-543508D01*
X2658277Y-543508D02*
X2677325Y-533984D01*
X2810658Y-533984D02*
X2943991Y-533984D01*
X2943991Y-533984D02*
X2858277Y-733984D01*
X3029706Y-733984D02*
X3067801Y-733984D01*
X3067801Y-733984D02*
X3086848Y-724460D01*
X3086848Y-724460D02*
X3096372Y-714936D01*
X3096372Y-714936D02*
X3115420Y-686365D01*
X3115420Y-686365D02*
X3124944Y-648270D01*
X3124944Y-648270D02*
X3124944Y-572079D01*
X3124944Y-572079D02*
X3115420Y-553031D01*
X3115420Y-553031D02*
X3105896Y-543508D01*
X3105896Y-543508D02*
X3086848Y-533984D01*
X3086848Y-533984D02*
X3048753Y-533984D01*
X3048753Y-533984D02*
X3029706Y-543508D01*
X3029706Y-543508D02*
X3020182Y-553031D01*
X3020182Y-553031D02*
X3010658Y-572079D01*
X3010658Y-572079D02*
X3010658Y-619698D01*
X3010658Y-619698D02*
X3020182Y-638746D01*
X3020182Y-638746D02*
X3029706Y-648270D01*
X3029706Y-648270D02*
X3048753Y-657793D01*
X3048753Y-657793D02*
X3086848Y-657793D01*
X3086848Y-657793D02*
X3105896Y-648270D01*
X3105896Y-648270D02*
X3115420Y-638746D01*
X3115420Y-638746D02*
X3124944Y-619698D01*
X3201134Y-533984D02*
X3201134Y-572079D01*
X3277325Y-533984D02*
X3277325Y-572079D01*
X3572563Y-810174D02*
X3563039Y-800650D01*
X3563039Y-800650D02*
X3543991Y-772079D01*
X3543991Y-772079D02*
X3534468Y-753031D01*
X3534468Y-753031D02*
X3524944Y-724460D01*
X3524944Y-724460D02*
X3515420Y-676841D01*
X3515420Y-676841D02*
X3515420Y-638746D01*
X3515420Y-638746D02*
X3524944Y-591127D01*
X3524944Y-591127D02*
X3534468Y-562555D01*
X3534468Y-562555D02*
X3543991Y-543508D01*
X3543991Y-543508D02*
X3563039Y-514936D01*
X3563039Y-514936D02*
X3572563Y-505412D01*
X3677325Y-619698D02*
X3658277Y-610174D01*
X3658277Y-610174D02*
X3648753Y-600650D01*
X3648753Y-600650D02*
X3639229Y-581603D01*
X3639229Y-581603D02*
X3639229Y-572079D01*
X3639229Y-572079D02*
X3648753Y-553031D01*
X3648753Y-553031D02*
X3658277Y-543508D01*
X3658277Y-543508D02*
X3677325Y-533984D01*
X3677325Y-533984D02*
X3715420Y-533984D01*
X3715420Y-533984D02*
X3734468Y-543508D01*
X3734468Y-543508D02*
X3743991Y-553031D01*
X3743991Y-553031D02*
X3753515Y-572079D01*
X3753515Y-572079D02*
X3753515Y-581603D01*
X3753515Y-581603D02*
X3743991Y-600650D01*
X3743991Y-600650D02*
X3734468Y-610174D01*
X3734468Y-610174D02*
X3715420Y-619698D01*
X3715420Y-619698D02*
X3677325Y-619698D01*
X3677325Y-619698D02*
X3658277Y-629222D01*
X3658277Y-629222D02*
X3648753Y-638746D01*
X3648753Y-638746D02*
X3639229Y-657793D01*
X3639229Y-657793D02*
X3639229Y-695889D01*
X3639229Y-695889D02*
X3648753Y-714936D01*
X3648753Y-714936D02*
X3658277Y-724460D01*
X3658277Y-724460D02*
X3677325Y-733984D01*
X3677325Y-733984D02*
X3715420Y-733984D01*
X3715420Y-733984D02*
X3734468Y-724460D01*
X3734468Y-724460D02*
X3743991Y-714936D01*
X3743991Y-714936D02*
X3753515Y-695889D01*
X3753515Y-695889D02*
X3753515Y-657793D01*
X3753515Y-657793D02*
X3743991Y-638746D01*
X3743991Y-638746D02*
X3734468Y-629222D01*
X3734468Y-629222D02*
X3715420Y-619698D01*
X3991610Y-733984D02*
X3991610Y-533984D01*
X4077325Y-733984D02*
X4077325Y-629222D01*
X4077325Y-629222D02*
X4067801Y-610174D01*
X4067801Y-610174D02*
X4048753Y-600650D01*
X4048753Y-600650D02*
X4020182Y-600650D01*
X4020182Y-600650D02*
X4001134Y-610174D01*
X4001134Y-610174D02*
X3991610Y-619698D01*
X4201134Y-733984D02*
X4182087Y-724460D01*
X4182087Y-724460D02*
X4172563Y-714936D01*
X4172563Y-714936D02*
X4163039Y-695889D01*
X4163039Y-695889D02*
X4163039Y-638746D01*
X4163039Y-638746D02*
X4172563Y-619698D01*
X4172563Y-619698D02*
X4182087Y-610174D01*
X4182087Y-610174D02*
X4201134Y-600650D01*
X4201134Y-600650D02*
X4229706Y-600650D01*
X4229706Y-600650D02*
X4248753Y-610174D01*
X4248753Y-610174D02*
X4258277Y-619698D01*
X4258277Y-619698D02*
X4267801Y-638746D01*
X4267801Y-638746D02*
X4267801Y-695889D01*
X4267801Y-695889D02*
X4258277Y-714936D01*
X4258277Y-714936D02*
X4248753Y-724460D01*
X4248753Y-724460D02*
X4229706Y-733984D01*
X4229706Y-733984D02*
X4201134Y-733984D01*
X4382087Y-733984D02*
X4363039Y-724460D01*
X4363039Y-724460D02*
X4353515Y-705412D01*
X4353515Y-705412D02*
X4353515Y-533984D01*
X4534468Y-724460D02*
X4515420Y-733984D01*
X4515420Y-733984D02*
X4477325Y-733984D01*
X4477325Y-733984D02*
X4458277Y-724460D01*
X4458277Y-724460D02*
X4448753Y-705412D01*
X4448753Y-705412D02*
X4448753Y-629222D01*
X4448753Y-629222D02*
X4458277Y-610174D01*
X4458277Y-610174D02*
X4477325Y-600650D01*
X4477325Y-600650D02*
X4515420Y-600650D01*
X4515420Y-600650D02*
X4534468Y-610174D01*
X4534468Y-610174D02*
X4543992Y-629222D01*
X4543992Y-629222D02*
X4543992Y-648270D01*
X4543992Y-648270D02*
X4448753Y-667317D01*
X4620182Y-724460D02*
X4639230Y-733984D01*
X4639230Y-733984D02*
X4677325Y-733984D01*
X4677325Y-733984D02*
X4696373Y-724460D01*
X4696373Y-724460D02*
X4705896Y-705412D01*
X4705896Y-705412D02*
X4705896Y-695889D01*
X4705896Y-695889D02*
X4696373Y-676841D01*
X4696373Y-676841D02*
X4677325Y-667317D01*
X4677325Y-667317D02*
X4648753Y-667317D01*
X4648753Y-667317D02*
X4629706Y-657793D01*
X4629706Y-657793D02*
X4620182Y-638746D01*
X4620182Y-638746D02*
X4620182Y-629222D01*
X4620182Y-629222D02*
X4629706Y-610174D01*
X4629706Y-610174D02*
X4648753Y-600650D01*
X4648753Y-600650D02*
X4677325Y-600650D01*
X4677325Y-600650D02*
X4696373Y-610174D01*
X4772563Y-810174D02*
X4782087Y-800650D01*
X4782087Y-800650D02*
X4801134Y-772079D01*
X4801134Y-772079D02*
X4810658Y-753031D01*
X4810658Y-753031D02*
X4820182Y-724460D01*
X4820182Y-724460D02*
X4829706Y-676841D01*
X4829706Y-676841D02*
X4829706Y-638746D01*
X4829706Y-638746D02*
X4820182Y-591127D01*
X4820182Y-591127D02*
X4810658Y-562555D01*
X4810658Y-562555D02*
X4801134Y-543508D01*
X4801134Y-543508D02*
X4782087Y-514936D01*
X4782087Y-514936D02*
X4772563Y-505412D01*
D12*
X-2500Y-906500D02*
G75*
G02*
X-32500Y-906500I-15000J0D01*
G01*
X-32500Y-906500D02*
G75*
G02*
X-2500Y-906500I15000J0D01*
G01*
D11*
X296372Y-797984D02*
X315420Y-797984D01*
X315420Y-797984D02*
X334467Y-807508D01*
X334467Y-807508D02*
X343991Y-817031D01*
X343991Y-817031D02*
X353515Y-836079D01*
X353515Y-836079D02*
X363039Y-874174D01*
X363039Y-874174D02*
X363039Y-921793D01*
X363039Y-921793D02*
X353515Y-959888D01*
X353515Y-959888D02*
X343991Y-978936D01*
X343991Y-978936D02*
X334467Y-988460D01*
X334467Y-988460D02*
X315420Y-997984D01*
X315420Y-997984D02*
X296372Y-997984D01*
X296372Y-997984D02*
X277324Y-988460D01*
X277324Y-988460D02*
X267801Y-978936D01*
X267801Y-978936D02*
X258277Y-959888D01*
X258277Y-959888D02*
X248753Y-921793D01*
X248753Y-921793D02*
X248753Y-874174D01*
X248753Y-874174D02*
X258277Y-836079D01*
X258277Y-836079D02*
X267801Y-817031D01*
X267801Y-817031D02*
X277324Y-807508D01*
X277324Y-807508D02*
X296372Y-797984D01*
X448753Y-978936D02*
X458277Y-988460D01*
X458277Y-988460D02*
X448753Y-997984D01*
X448753Y-997984D02*
X439229Y-988460D01*
X439229Y-988460D02*
X448753Y-978936D01*
X448753Y-978936D02*
X448753Y-997984D01*
X524944Y-797984D02*
X648753Y-797984D01*
X648753Y-797984D02*
X582086Y-874174D01*
X582086Y-874174D02*
X610658Y-874174D01*
X610658Y-874174D02*
X629705Y-883698D01*
X629705Y-883698D02*
X639229Y-893222D01*
X639229Y-893222D02*
X648753Y-912269D01*
X648753Y-912269D02*
X648753Y-959888D01*
X648753Y-959888D02*
X639229Y-978936D01*
X639229Y-978936D02*
X629705Y-988460D01*
X629705Y-988460D02*
X610658Y-997984D01*
X610658Y-997984D02*
X553515Y-997984D01*
X553515Y-997984D02*
X534467Y-988460D01*
X534467Y-988460D02*
X524944Y-978936D01*
X772562Y-797984D02*
X791610Y-797984D01*
X791610Y-797984D02*
X810658Y-807508D01*
X810658Y-807508D02*
X820182Y-817031D01*
X820182Y-817031D02*
X829705Y-836079D01*
X829705Y-836079D02*
X839229Y-874174D01*
X839229Y-874174D02*
X839229Y-921793D01*
X839229Y-921793D02*
X829705Y-959888D01*
X829705Y-959888D02*
X820182Y-978936D01*
X820182Y-978936D02*
X810658Y-988460D01*
X810658Y-988460D02*
X791610Y-997984D01*
X791610Y-997984D02*
X772562Y-997984D01*
X772562Y-997984D02*
X753515Y-988460D01*
X753515Y-988460D02*
X743991Y-978936D01*
X743991Y-978936D02*
X734467Y-959888D01*
X734467Y-959888D02*
X724943Y-921793D01*
X724943Y-921793D02*
X724943Y-874174D01*
X724943Y-874174D02*
X734467Y-836079D01*
X734467Y-836079D02*
X743991Y-817031D01*
X743991Y-817031D02*
X753515Y-807508D01*
X753515Y-807508D02*
X772562Y-797984D01*
X963039Y-797984D02*
X982086Y-797984D01*
X982086Y-797984D02*
X1001134Y-807508D01*
X1001134Y-807508D02*
X1010658Y-817031D01*
X1010658Y-817031D02*
X1020182Y-836079D01*
X1020182Y-836079D02*
X1029705Y-874174D01*
X1029705Y-874174D02*
X1029705Y-921793D01*
X1029705Y-921793D02*
X1020182Y-959888D01*
X1020182Y-959888D02*
X1010658Y-978936D01*
X1010658Y-978936D02*
X1001134Y-988460D01*
X1001134Y-988460D02*
X982086Y-997984D01*
X982086Y-997984D02*
X963039Y-997984D01*
X963039Y-997984D02*
X943991Y-988460D01*
X943991Y-988460D02*
X934467Y-978936D01*
X934467Y-978936D02*
X924943Y-959888D01*
X924943Y-959888D02*
X915420Y-921793D01*
X915420Y-921793D02*
X915420Y-874174D01*
X915420Y-874174D02*
X924943Y-836079D01*
X924943Y-836079D02*
X934467Y-817031D01*
X934467Y-817031D02*
X943991Y-807508D01*
X943991Y-807508D02*
X963039Y-797984D01*
X1115420Y-997984D02*
X1115420Y-864650D01*
X1115420Y-883698D02*
X1124944Y-874174D01*
X1124944Y-874174D02*
X1143991Y-864650D01*
X1143991Y-864650D02*
X1172563Y-864650D01*
X1172563Y-864650D02*
X1191610Y-874174D01*
X1191610Y-874174D02*
X1201134Y-893222D01*
X1201134Y-893222D02*
X1201134Y-997984D01*
X1201134Y-893222D02*
X1210658Y-874174D01*
X1210658Y-874174D02*
X1229705Y-864650D01*
X1229705Y-864650D02*
X1258277Y-864650D01*
X1258277Y-864650D02*
X1277325Y-874174D01*
X1277325Y-874174D02*
X1286848Y-893222D01*
X1286848Y-893222D02*
X1286848Y-997984D01*
X1382086Y-997984D02*
X1382086Y-864650D01*
X1382086Y-883698D02*
X1391610Y-874174D01*
X1391610Y-874174D02*
X1410658Y-864650D01*
X1410658Y-864650D02*
X1439229Y-864650D01*
X1439229Y-864650D02*
X1458277Y-874174D01*
X1458277Y-874174D02*
X1467801Y-893222D01*
X1467801Y-893222D02*
X1467801Y-997984D01*
X1467801Y-893222D02*
X1477324Y-874174D01*
X1477324Y-874174D02*
X1496372Y-864650D01*
X1496372Y-864650D02*
X1524943Y-864650D01*
X1524943Y-864650D02*
X1543991Y-874174D01*
X1543991Y-874174D02*
X1553515Y-893222D01*
X1553515Y-893222D02*
X1553515Y-997984D01*
X1943991Y-788460D02*
X1772563Y-1045603D01*
X2201134Y-797984D02*
X2220182Y-797984D01*
X2220182Y-797984D02*
X2239229Y-807508D01*
X2239229Y-807508D02*
X2248753Y-817031D01*
X2248753Y-817031D02*
X2258277Y-836079D01*
X2258277Y-836079D02*
X2267801Y-874174D01*
X2267801Y-874174D02*
X2267801Y-921793D01*
X2267801Y-921793D02*
X2258277Y-959888D01*
X2258277Y-959888D02*
X2248753Y-978936D01*
X2248753Y-978936D02*
X2239229Y-988460D01*
X2239229Y-988460D02*
X2220182Y-997984D01*
X2220182Y-997984D02*
X2201134Y-997984D01*
X2201134Y-997984D02*
X2182087Y-988460D01*
X2182087Y-988460D02*
X2172563Y-978936D01*
X2172563Y-978936D02*
X2163039Y-959888D01*
X2163039Y-959888D02*
X2153515Y-921793D01*
X2153515Y-921793D02*
X2153515Y-874174D01*
X2153515Y-874174D02*
X2163039Y-836079D01*
X2163039Y-836079D02*
X2172563Y-817031D01*
X2172563Y-817031D02*
X2182087Y-807508D01*
X2182087Y-807508D02*
X2201134Y-797984D01*
X2353515Y-978936D02*
X2363039Y-988460D01*
X2363039Y-988460D02*
X2353515Y-997984D01*
X2353515Y-997984D02*
X2343991Y-988460D01*
X2343991Y-988460D02*
X2353515Y-978936D01*
X2353515Y-978936D02*
X2353515Y-997984D01*
X2486848Y-797984D02*
X2505896Y-797984D01*
X2505896Y-797984D02*
X2524944Y-807508D01*
X2524944Y-807508D02*
X2534468Y-817031D01*
X2534468Y-817031D02*
X2543991Y-836079D01*
X2543991Y-836079D02*
X2553515Y-874174D01*
X2553515Y-874174D02*
X2553515Y-921793D01*
X2553515Y-921793D02*
X2543991Y-959888D01*
X2543991Y-959888D02*
X2534468Y-978936D01*
X2534468Y-978936D02*
X2524944Y-988460D01*
X2524944Y-988460D02*
X2505896Y-997984D01*
X2505896Y-997984D02*
X2486848Y-997984D01*
X2486848Y-997984D02*
X2467801Y-988460D01*
X2467801Y-988460D02*
X2458277Y-978936D01*
X2458277Y-978936D02*
X2448753Y-959888D01*
X2448753Y-959888D02*
X2439229Y-921793D01*
X2439229Y-921793D02*
X2439229Y-874174D01*
X2439229Y-874174D02*
X2448753Y-836079D01*
X2448753Y-836079D02*
X2458277Y-817031D01*
X2458277Y-817031D02*
X2467801Y-807508D01*
X2467801Y-807508D02*
X2486848Y-797984D01*
X2743991Y-997984D02*
X2629706Y-997984D01*
X2686848Y-997984D02*
X2686848Y-797984D01*
X2686848Y-797984D02*
X2667801Y-826555D01*
X2667801Y-826555D02*
X2648753Y-845603D01*
X2648753Y-845603D02*
X2629706Y-855127D01*
X2934467Y-997984D02*
X2820182Y-997984D01*
X2877325Y-997984D02*
X2877325Y-797984D01*
X2877325Y-797984D02*
X2858277Y-826555D01*
X2858277Y-826555D02*
X2839229Y-845603D01*
X2839229Y-845603D02*
X2820182Y-855127D01*
X3048753Y-883698D02*
X3029706Y-874174D01*
X3029706Y-874174D02*
X3020182Y-864650D01*
X3020182Y-864650D02*
X3010658Y-845603D01*
X3010658Y-845603D02*
X3010658Y-836079D01*
X3010658Y-836079D02*
X3020182Y-817031D01*
X3020182Y-817031D02*
X3029706Y-807508D01*
X3029706Y-807508D02*
X3048753Y-797984D01*
X3048753Y-797984D02*
X3086848Y-797984D01*
X3086848Y-797984D02*
X3105896Y-807508D01*
X3105896Y-807508D02*
X3115420Y-817031D01*
X3115420Y-817031D02*
X3124944Y-836079D01*
X3124944Y-836079D02*
X3124944Y-845603D01*
X3124944Y-845603D02*
X3115420Y-864650D01*
X3115420Y-864650D02*
X3105896Y-874174D01*
X3105896Y-874174D02*
X3086848Y-883698D01*
X3086848Y-883698D02*
X3048753Y-883698D01*
X3048753Y-883698D02*
X3029706Y-893222D01*
X3029706Y-893222D02*
X3020182Y-902746D01*
X3020182Y-902746D02*
X3010658Y-921793D01*
X3010658Y-921793D02*
X3010658Y-959888D01*
X3010658Y-959888D02*
X3020182Y-978936D01*
X3020182Y-978936D02*
X3029706Y-988460D01*
X3029706Y-988460D02*
X3048753Y-997984D01*
X3048753Y-997984D02*
X3086848Y-997984D01*
X3086848Y-997984D02*
X3105896Y-988460D01*
X3105896Y-988460D02*
X3115420Y-978936D01*
X3115420Y-978936D02*
X3124944Y-959888D01*
X3124944Y-959888D02*
X3124944Y-921793D01*
X3124944Y-921793D02*
X3115420Y-902746D01*
X3115420Y-902746D02*
X3105896Y-893222D01*
X3105896Y-893222D02*
X3086848Y-883698D01*
X3201134Y-797984D02*
X3201134Y-836079D01*
X3277325Y-797984D02*
X3277325Y-836079D01*
X3572563Y-1074174D02*
X3563039Y-1064650D01*
X3563039Y-1064650D02*
X3543991Y-1036079D01*
X3543991Y-1036079D02*
X3534468Y-1017031D01*
X3534468Y-1017031D02*
X3524944Y-988460D01*
X3524944Y-988460D02*
X3515420Y-940841D01*
X3515420Y-940841D02*
X3515420Y-902746D01*
X3515420Y-902746D02*
X3524944Y-855127D01*
X3524944Y-855127D02*
X3534468Y-826555D01*
X3534468Y-826555D02*
X3543991Y-807508D01*
X3543991Y-807508D02*
X3563039Y-778936D01*
X3563039Y-778936D02*
X3572563Y-769412D01*
X3743991Y-797984D02*
X3648753Y-797984D01*
X3648753Y-797984D02*
X3639229Y-893222D01*
X3639229Y-893222D02*
X3648753Y-883698D01*
X3648753Y-883698D02*
X3667801Y-874174D01*
X3667801Y-874174D02*
X3715420Y-874174D01*
X3715420Y-874174D02*
X3734468Y-883698D01*
X3734468Y-883698D02*
X3743991Y-893222D01*
X3743991Y-893222D02*
X3753515Y-912269D01*
X3753515Y-912269D02*
X3753515Y-959888D01*
X3753515Y-959888D02*
X3743991Y-978936D01*
X3743991Y-978936D02*
X3734468Y-988460D01*
X3734468Y-988460D02*
X3715420Y-997984D01*
X3715420Y-997984D02*
X3667801Y-997984D01*
X3667801Y-997984D02*
X3648753Y-988460D01*
X3648753Y-988460D02*
X3639229Y-978936D01*
X3924944Y-797984D02*
X3886848Y-797984D01*
X3886848Y-797984D02*
X3867801Y-807508D01*
X3867801Y-807508D02*
X3858277Y-817031D01*
X3858277Y-817031D02*
X3839229Y-845603D01*
X3839229Y-845603D02*
X3829706Y-883698D01*
X3829706Y-883698D02*
X3829706Y-959888D01*
X3829706Y-959888D02*
X3839229Y-978936D01*
X3839229Y-978936D02*
X3848753Y-988460D01*
X3848753Y-988460D02*
X3867801Y-997984D01*
X3867801Y-997984D02*
X3905896Y-997984D01*
X3905896Y-997984D02*
X3924944Y-988460D01*
X3924944Y-988460D02*
X3934468Y-978936D01*
X3934468Y-978936D02*
X3943991Y-959888D01*
X3943991Y-959888D02*
X3943991Y-912269D01*
X3943991Y-912269D02*
X3934468Y-893222D01*
X3934468Y-893222D02*
X3924944Y-883698D01*
X3924944Y-883698D02*
X3905896Y-874174D01*
X3905896Y-874174D02*
X3867801Y-874174D01*
X3867801Y-874174D02*
X3848753Y-883698D01*
X3848753Y-883698D02*
X3839229Y-893222D01*
X3839229Y-893222D02*
X3829706Y-912269D01*
X4182087Y-997984D02*
X4182087Y-797984D01*
X4267801Y-997984D02*
X4267801Y-893222D01*
X4267801Y-893222D02*
X4258277Y-874174D01*
X4258277Y-874174D02*
X4239230Y-864650D01*
X4239230Y-864650D02*
X4210658Y-864650D01*
X4210658Y-864650D02*
X4191610Y-874174D01*
X4191610Y-874174D02*
X4182087Y-883698D01*
X4391611Y-997984D02*
X4372563Y-988460D01*
X4372563Y-988460D02*
X4363039Y-978936D01*
X4363039Y-978936D02*
X4353515Y-959888D01*
X4353515Y-959888D02*
X4353515Y-902746D01*
X4353515Y-902746D02*
X4363039Y-883698D01*
X4363039Y-883698D02*
X4372563Y-874174D01*
X4372563Y-874174D02*
X4391611Y-864650D01*
X4391611Y-864650D02*
X4420182Y-864650D01*
X4420182Y-864650D02*
X4439230Y-874174D01*
X4439230Y-874174D02*
X4448753Y-883698D01*
X4448753Y-883698D02*
X4458277Y-902746D01*
X4458277Y-902746D02*
X4458277Y-959888D01*
X4458277Y-959888D02*
X4448753Y-978936D01*
X4448753Y-978936D02*
X4439230Y-988460D01*
X4439230Y-988460D02*
X4420182Y-997984D01*
X4420182Y-997984D02*
X4391611Y-997984D01*
X4572563Y-997984D02*
X4553515Y-988460D01*
X4553515Y-988460D02*
X4543992Y-969412D01*
X4543992Y-969412D02*
X4543992Y-797984D01*
X4724944Y-988460D02*
X4705896Y-997984D01*
X4705896Y-997984D02*
X4667801Y-997984D01*
X4667801Y-997984D02*
X4648753Y-988460D01*
X4648753Y-988460D02*
X4639230Y-969412D01*
X4639230Y-969412D02*
X4639230Y-893222D01*
X4639230Y-893222D02*
X4648753Y-874174D01*
X4648753Y-874174D02*
X4667801Y-864650D01*
X4667801Y-864650D02*
X4705896Y-864650D01*
X4705896Y-864650D02*
X4724944Y-874174D01*
X4724944Y-874174D02*
X4734468Y-893222D01*
X4734468Y-893222D02*
X4734468Y-912269D01*
X4734468Y-912269D02*
X4639230Y-931317D01*
X4810658Y-988460D02*
X4829706Y-997984D01*
X4829706Y-997984D02*
X4867801Y-997984D01*
X4867801Y-997984D02*
X4886849Y-988460D01*
X4886849Y-988460D02*
X4896373Y-969412D01*
X4896373Y-969412D02*
X4896373Y-959888D01*
X4896373Y-959888D02*
X4886849Y-940841D01*
X4886849Y-940841D02*
X4867801Y-931317D01*
X4867801Y-931317D02*
X4839230Y-931317D01*
X4839230Y-931317D02*
X4820182Y-921793D01*
X4820182Y-921793D02*
X4810658Y-902746D01*
X4810658Y-902746D02*
X4810658Y-893222D01*
X4810658Y-893222D02*
X4820182Y-874174D01*
X4820182Y-874174D02*
X4839230Y-864650D01*
X4839230Y-864650D02*
X4867801Y-864650D01*
X4867801Y-864650D02*
X4886849Y-874174D01*
X4963039Y-1074174D02*
X4972563Y-1064650D01*
X4972563Y-1064650D02*
X4991611Y-1036079D01*
X4991611Y-1036079D02*
X5001134Y-1017031D01*
X5001134Y-1017031D02*
X5010658Y-988460D01*
X5010658Y-988460D02*
X5020182Y-940841D01*
X5020182Y-940841D02*
X5020182Y-902746D01*
X5020182Y-902746D02*
X5010658Y-855127D01*
X5010658Y-855127D02*
X5001134Y-826555D01*
X5001134Y-826555D02*
X4991611Y-807508D01*
X4991611Y-807508D02*
X4972563Y-778936D01*
X4972563Y-778936D02*
X4963039Y-769412D01*
D12*
X-19000Y-1154000D02*
X-19000Y-1187000D01*
X-35500Y-1170500D02*
X-2500Y-1170500D01*
D11*
X296372Y-1061984D02*
X315420Y-1061984D01*
X315420Y-1061984D02*
X334467Y-1071508D01*
X334467Y-1071508D02*
X343991Y-1081031D01*
X343991Y-1081031D02*
X353515Y-1100079D01*
X353515Y-1100079D02*
X363039Y-1138174D01*
X363039Y-1138174D02*
X363039Y-1185793D01*
X363039Y-1185793D02*
X353515Y-1223889D01*
X353515Y-1223889D02*
X343991Y-1242936D01*
X343991Y-1242936D02*
X334467Y-1252460D01*
X334467Y-1252460D02*
X315420Y-1261984D01*
X315420Y-1261984D02*
X296372Y-1261984D01*
X296372Y-1261984D02*
X277324Y-1252460D01*
X277324Y-1252460D02*
X267801Y-1242936D01*
X267801Y-1242936D02*
X258277Y-1223889D01*
X258277Y-1223889D02*
X248753Y-1185793D01*
X248753Y-1185793D02*
X248753Y-1138174D01*
X248753Y-1138174D02*
X258277Y-1100079D01*
X258277Y-1100079D02*
X267801Y-1081031D01*
X267801Y-1081031D02*
X277324Y-1071508D01*
X277324Y-1071508D02*
X296372Y-1061984D01*
X448753Y-1242936D02*
X458277Y-1252460D01*
X458277Y-1252460D02*
X448753Y-1261984D01*
X448753Y-1261984D02*
X439229Y-1252460D01*
X439229Y-1252460D02*
X448753Y-1242936D01*
X448753Y-1242936D02*
X448753Y-1261984D01*
X524944Y-1061984D02*
X648753Y-1061984D01*
X648753Y-1061984D02*
X582086Y-1138174D01*
X582086Y-1138174D02*
X610658Y-1138174D01*
X610658Y-1138174D02*
X629705Y-1147698D01*
X629705Y-1147698D02*
X639229Y-1157222D01*
X639229Y-1157222D02*
X648753Y-1176270D01*
X648753Y-1176270D02*
X648753Y-1223889D01*
X648753Y-1223889D02*
X639229Y-1242936D01*
X639229Y-1242936D02*
X629705Y-1252460D01*
X629705Y-1252460D02*
X610658Y-1261984D01*
X610658Y-1261984D02*
X553515Y-1261984D01*
X553515Y-1261984D02*
X534467Y-1252460D01*
X534467Y-1252460D02*
X524944Y-1242936D01*
X715420Y-1061984D02*
X839229Y-1061984D01*
X839229Y-1061984D02*
X772562Y-1138174D01*
X772562Y-1138174D02*
X801134Y-1138174D01*
X801134Y-1138174D02*
X820182Y-1147698D01*
X820182Y-1147698D02*
X829705Y-1157222D01*
X829705Y-1157222D02*
X839229Y-1176270D01*
X839229Y-1176270D02*
X839229Y-1223889D01*
X839229Y-1223889D02*
X829705Y-1242936D01*
X829705Y-1242936D02*
X820182Y-1252460D01*
X820182Y-1252460D02*
X801134Y-1261984D01*
X801134Y-1261984D02*
X743991Y-1261984D01*
X743991Y-1261984D02*
X724943Y-1252460D01*
X724943Y-1252460D02*
X715420Y-1242936D01*
X963039Y-1061984D02*
X982086Y-1061984D01*
X982086Y-1061984D02*
X1001134Y-1071508D01*
X1001134Y-1071508D02*
X1010658Y-1081031D01*
X1010658Y-1081031D02*
X1020182Y-1100079D01*
X1020182Y-1100079D02*
X1029705Y-1138174D01*
X1029705Y-1138174D02*
X1029705Y-1185793D01*
X1029705Y-1185793D02*
X1020182Y-1223889D01*
X1020182Y-1223889D02*
X1010658Y-1242936D01*
X1010658Y-1242936D02*
X1001134Y-1252460D01*
X1001134Y-1252460D02*
X982086Y-1261984D01*
X982086Y-1261984D02*
X963039Y-1261984D01*
X963039Y-1261984D02*
X943991Y-1252460D01*
X943991Y-1252460D02*
X934467Y-1242936D01*
X934467Y-1242936D02*
X924943Y-1223889D01*
X924943Y-1223889D02*
X915420Y-1185793D01*
X915420Y-1185793D02*
X915420Y-1138174D01*
X915420Y-1138174D02*
X924943Y-1100079D01*
X924943Y-1100079D02*
X934467Y-1081031D01*
X934467Y-1081031D02*
X943991Y-1071508D01*
X943991Y-1071508D02*
X963039Y-1061984D01*
X1115420Y-1261984D02*
X1115420Y-1128650D01*
X1115420Y-1147698D02*
X1124944Y-1138174D01*
X1124944Y-1138174D02*
X1143991Y-1128650D01*
X1143991Y-1128650D02*
X1172563Y-1128650D01*
X1172563Y-1128650D02*
X1191610Y-1138174D01*
X1191610Y-1138174D02*
X1201134Y-1157222D01*
X1201134Y-1157222D02*
X1201134Y-1261984D01*
X1201134Y-1157222D02*
X1210658Y-1138174D01*
X1210658Y-1138174D02*
X1229705Y-1128650D01*
X1229705Y-1128650D02*
X1258277Y-1128650D01*
X1258277Y-1128650D02*
X1277325Y-1138174D01*
X1277325Y-1138174D02*
X1286848Y-1157222D01*
X1286848Y-1157222D02*
X1286848Y-1261984D01*
X1382086Y-1261984D02*
X1382086Y-1128650D01*
X1382086Y-1147698D02*
X1391610Y-1138174D01*
X1391610Y-1138174D02*
X1410658Y-1128650D01*
X1410658Y-1128650D02*
X1439229Y-1128650D01*
X1439229Y-1128650D02*
X1458277Y-1138174D01*
X1458277Y-1138174D02*
X1467801Y-1157222D01*
X1467801Y-1157222D02*
X1467801Y-1261984D01*
X1467801Y-1157222D02*
X1477324Y-1138174D01*
X1477324Y-1138174D02*
X1496372Y-1128650D01*
X1496372Y-1128650D02*
X1524943Y-1128650D01*
X1524943Y-1128650D02*
X1543991Y-1138174D01*
X1543991Y-1138174D02*
X1553515Y-1157222D01*
X1553515Y-1157222D02*
X1553515Y-1261984D01*
X1943991Y-1052460D02*
X1772563Y-1309603D01*
X2201134Y-1061984D02*
X2220182Y-1061984D01*
X2220182Y-1061984D02*
X2239229Y-1071508D01*
X2239229Y-1071508D02*
X2248753Y-1081031D01*
X2248753Y-1081031D02*
X2258277Y-1100079D01*
X2258277Y-1100079D02*
X2267801Y-1138174D01*
X2267801Y-1138174D02*
X2267801Y-1185793D01*
X2267801Y-1185793D02*
X2258277Y-1223889D01*
X2258277Y-1223889D02*
X2248753Y-1242936D01*
X2248753Y-1242936D02*
X2239229Y-1252460D01*
X2239229Y-1252460D02*
X2220182Y-1261984D01*
X2220182Y-1261984D02*
X2201134Y-1261984D01*
X2201134Y-1261984D02*
X2182087Y-1252460D01*
X2182087Y-1252460D02*
X2172563Y-1242936D01*
X2172563Y-1242936D02*
X2163039Y-1223889D01*
X2163039Y-1223889D02*
X2153515Y-1185793D01*
X2153515Y-1185793D02*
X2153515Y-1138174D01*
X2153515Y-1138174D02*
X2163039Y-1100079D01*
X2163039Y-1100079D02*
X2172563Y-1081031D01*
X2172563Y-1081031D02*
X2182087Y-1071508D01*
X2182087Y-1071508D02*
X2201134Y-1061984D01*
X2353515Y-1242936D02*
X2363039Y-1252460D01*
X2363039Y-1252460D02*
X2353515Y-1261984D01*
X2353515Y-1261984D02*
X2343991Y-1252460D01*
X2343991Y-1252460D02*
X2353515Y-1242936D01*
X2353515Y-1242936D02*
X2353515Y-1261984D01*
X2486848Y-1061984D02*
X2505896Y-1061984D01*
X2505896Y-1061984D02*
X2524944Y-1071508D01*
X2524944Y-1071508D02*
X2534468Y-1081031D01*
X2534468Y-1081031D02*
X2543991Y-1100079D01*
X2543991Y-1100079D02*
X2553515Y-1138174D01*
X2553515Y-1138174D02*
X2553515Y-1185793D01*
X2553515Y-1185793D02*
X2543991Y-1223889D01*
X2543991Y-1223889D02*
X2534468Y-1242936D01*
X2534468Y-1242936D02*
X2524944Y-1252460D01*
X2524944Y-1252460D02*
X2505896Y-1261984D01*
X2505896Y-1261984D02*
X2486848Y-1261984D01*
X2486848Y-1261984D02*
X2467801Y-1252460D01*
X2467801Y-1252460D02*
X2458277Y-1242936D01*
X2458277Y-1242936D02*
X2448753Y-1223889D01*
X2448753Y-1223889D02*
X2439229Y-1185793D01*
X2439229Y-1185793D02*
X2439229Y-1138174D01*
X2439229Y-1138174D02*
X2448753Y-1100079D01*
X2448753Y-1100079D02*
X2458277Y-1081031D01*
X2458277Y-1081031D02*
X2467801Y-1071508D01*
X2467801Y-1071508D02*
X2486848Y-1061984D01*
X2743991Y-1261984D02*
X2629706Y-1261984D01*
X2686848Y-1261984D02*
X2686848Y-1061984D01*
X2686848Y-1061984D02*
X2667801Y-1090555D01*
X2667801Y-1090555D02*
X2648753Y-1109603D01*
X2648753Y-1109603D02*
X2629706Y-1119127D01*
X2810658Y-1061984D02*
X2934467Y-1061984D01*
X2934467Y-1061984D02*
X2867801Y-1138174D01*
X2867801Y-1138174D02*
X2896372Y-1138174D01*
X2896372Y-1138174D02*
X2915420Y-1147698D01*
X2915420Y-1147698D02*
X2924944Y-1157222D01*
X2924944Y-1157222D02*
X2934467Y-1176270D01*
X2934467Y-1176270D02*
X2934467Y-1223889D01*
X2934467Y-1223889D02*
X2924944Y-1242936D01*
X2924944Y-1242936D02*
X2915420Y-1252460D01*
X2915420Y-1252460D02*
X2896372Y-1261984D01*
X2896372Y-1261984D02*
X2839229Y-1261984D01*
X2839229Y-1261984D02*
X2820182Y-1252460D01*
X2820182Y-1252460D02*
X2810658Y-1242936D01*
X3058277Y-1061984D02*
X3077325Y-1061984D01*
X3077325Y-1061984D02*
X3096372Y-1071508D01*
X3096372Y-1071508D02*
X3105896Y-1081031D01*
X3105896Y-1081031D02*
X3115420Y-1100079D01*
X3115420Y-1100079D02*
X3124944Y-1138174D01*
X3124944Y-1138174D02*
X3124944Y-1185793D01*
X3124944Y-1185793D02*
X3115420Y-1223889D01*
X3115420Y-1223889D02*
X3105896Y-1242936D01*
X3105896Y-1242936D02*
X3096372Y-1252460D01*
X3096372Y-1252460D02*
X3077325Y-1261984D01*
X3077325Y-1261984D02*
X3058277Y-1261984D01*
X3058277Y-1261984D02*
X3039229Y-1252460D01*
X3039229Y-1252460D02*
X3029706Y-1242936D01*
X3029706Y-1242936D02*
X3020182Y-1223889D01*
X3020182Y-1223889D02*
X3010658Y-1185793D01*
X3010658Y-1185793D02*
X3010658Y-1138174D01*
X3010658Y-1138174D02*
X3020182Y-1100079D01*
X3020182Y-1100079D02*
X3029706Y-1081031D01*
X3029706Y-1081031D02*
X3039229Y-1071508D01*
X3039229Y-1071508D02*
X3058277Y-1061984D01*
X3201134Y-1061984D02*
X3201134Y-1100079D01*
X3277325Y-1061984D02*
X3277325Y-1100079D01*
X3572563Y-1338174D02*
X3563039Y-1328650D01*
X3563039Y-1328650D02*
X3543991Y-1300079D01*
X3543991Y-1300079D02*
X3534468Y-1281031D01*
X3534468Y-1281031D02*
X3524944Y-1252460D01*
X3524944Y-1252460D02*
X3515420Y-1204841D01*
X3515420Y-1204841D02*
X3515420Y-1166746D01*
X3515420Y-1166746D02*
X3524944Y-1119127D01*
X3524944Y-1119127D02*
X3534468Y-1090555D01*
X3534468Y-1090555D02*
X3543991Y-1071508D01*
X3543991Y-1071508D02*
X3563039Y-1042936D01*
X3563039Y-1042936D02*
X3572563Y-1033412D01*
X3753515Y-1261984D02*
X3639229Y-1261984D01*
X3696372Y-1261984D02*
X3696372Y-1061984D01*
X3696372Y-1061984D02*
X3677325Y-1090555D01*
X3677325Y-1090555D02*
X3658277Y-1109603D01*
X3658277Y-1109603D02*
X3639229Y-1119127D01*
X3991610Y-1261984D02*
X3991610Y-1061984D01*
X4077325Y-1261984D02*
X4077325Y-1157222D01*
X4077325Y-1157222D02*
X4067801Y-1138174D01*
X4067801Y-1138174D02*
X4048753Y-1128650D01*
X4048753Y-1128650D02*
X4020182Y-1128650D01*
X4020182Y-1128650D02*
X4001134Y-1138174D01*
X4001134Y-1138174D02*
X3991610Y-1147698D01*
X4201134Y-1261984D02*
X4182087Y-1252460D01*
X4182087Y-1252460D02*
X4172563Y-1242936D01*
X4172563Y-1242936D02*
X4163039Y-1223889D01*
X4163039Y-1223889D02*
X4163039Y-1166746D01*
X4163039Y-1166746D02*
X4172563Y-1147698D01*
X4172563Y-1147698D02*
X4182087Y-1138174D01*
X4182087Y-1138174D02*
X4201134Y-1128650D01*
X4201134Y-1128650D02*
X4229706Y-1128650D01*
X4229706Y-1128650D02*
X4248753Y-1138174D01*
X4248753Y-1138174D02*
X4258277Y-1147698D01*
X4258277Y-1147698D02*
X4267801Y-1166746D01*
X4267801Y-1166746D02*
X4267801Y-1223889D01*
X4267801Y-1223889D02*
X4258277Y-1242936D01*
X4258277Y-1242936D02*
X4248753Y-1252460D01*
X4248753Y-1252460D02*
X4229706Y-1261984D01*
X4229706Y-1261984D02*
X4201134Y-1261984D01*
X4382087Y-1261984D02*
X4363039Y-1252460D01*
X4363039Y-1252460D02*
X4353515Y-1233412D01*
X4353515Y-1233412D02*
X4353515Y-1061984D01*
X4534468Y-1252460D02*
X4515420Y-1261984D01*
X4515420Y-1261984D02*
X4477325Y-1261984D01*
X4477325Y-1261984D02*
X4458277Y-1252460D01*
X4458277Y-1252460D02*
X4448753Y-1233412D01*
X4448753Y-1233412D02*
X4448753Y-1157222D01*
X4448753Y-1157222D02*
X4458277Y-1138174D01*
X4458277Y-1138174D02*
X4477325Y-1128650D01*
X4477325Y-1128650D02*
X4515420Y-1128650D01*
X4515420Y-1128650D02*
X4534468Y-1138174D01*
X4534468Y-1138174D02*
X4543992Y-1157222D01*
X4543992Y-1157222D02*
X4543992Y-1176270D01*
X4543992Y-1176270D02*
X4448753Y-1195317D01*
X4610658Y-1338174D02*
X4620182Y-1328650D01*
X4620182Y-1328650D02*
X4639230Y-1300079D01*
X4639230Y-1300079D02*
X4648753Y-1281031D01*
X4648753Y-1281031D02*
X4658277Y-1252460D01*
X4658277Y-1252460D02*
X4667801Y-1204841D01*
X4667801Y-1204841D02*
X4667801Y-1166746D01*
X4667801Y-1166746D02*
X4658277Y-1119127D01*
X4658277Y-1119127D02*
X4648753Y-1090555D01*
X4648753Y-1090555D02*
X4639230Y-1071508D01*
X4639230Y-1071508D02*
X4620182Y-1042936D01*
X4620182Y-1042936D02*
X4610658Y-1033412D01*
D12*
X-9090Y-1450410D02*
X-9090Y-1418590D01*
X-40910Y-1418590D01*
X-40910Y-1450410D01*
X-9090Y-1450410D01*
D11*
X296372Y-1325984D02*
X315420Y-1325984D01*
X315420Y-1325984D02*
X334467Y-1335508D01*
X334467Y-1335508D02*
X343991Y-1345031D01*
X343991Y-1345031D02*
X353515Y-1364079D01*
X353515Y-1364079D02*
X363039Y-1402174D01*
X363039Y-1402174D02*
X363039Y-1449793D01*
X363039Y-1449793D02*
X353515Y-1487888D01*
X353515Y-1487888D02*
X343991Y-1506936D01*
X343991Y-1506936D02*
X334467Y-1516460D01*
X334467Y-1516460D02*
X315420Y-1525984D01*
X315420Y-1525984D02*
X296372Y-1525984D01*
X296372Y-1525984D02*
X277324Y-1516460D01*
X277324Y-1516460D02*
X267801Y-1506936D01*
X267801Y-1506936D02*
X258277Y-1487888D01*
X258277Y-1487888D02*
X248753Y-1449793D01*
X248753Y-1449793D02*
X248753Y-1402174D01*
X248753Y-1402174D02*
X258277Y-1364079D01*
X258277Y-1364079D02*
X267801Y-1345031D01*
X267801Y-1345031D02*
X277324Y-1335508D01*
X277324Y-1335508D02*
X296372Y-1325984D01*
X448753Y-1506936D02*
X458277Y-1516460D01*
X458277Y-1516460D02*
X448753Y-1525984D01*
X448753Y-1525984D02*
X439229Y-1516460D01*
X439229Y-1516460D02*
X448753Y-1506936D01*
X448753Y-1506936D02*
X448753Y-1525984D01*
X629705Y-1392650D02*
X629705Y-1525984D01*
X582086Y-1316460D02*
X534467Y-1459317D01*
X534467Y-1459317D02*
X658277Y-1459317D01*
X829705Y-1325984D02*
X734467Y-1325984D01*
X734467Y-1325984D02*
X724943Y-1421222D01*
X724943Y-1421222D02*
X734467Y-1411698D01*
X734467Y-1411698D02*
X753515Y-1402174D01*
X753515Y-1402174D02*
X801134Y-1402174D01*
X801134Y-1402174D02*
X820182Y-1411698D01*
X820182Y-1411698D02*
X829705Y-1421222D01*
X829705Y-1421222D02*
X839229Y-1440269D01*
X839229Y-1440269D02*
X839229Y-1487888D01*
X839229Y-1487888D02*
X829705Y-1506936D01*
X829705Y-1506936D02*
X820182Y-1516460D01*
X820182Y-1516460D02*
X801134Y-1525984D01*
X801134Y-1525984D02*
X753515Y-1525984D01*
X753515Y-1525984D02*
X734467Y-1516460D01*
X734467Y-1516460D02*
X724943Y-1506936D01*
X963039Y-1325984D02*
X982086Y-1325984D01*
X982086Y-1325984D02*
X1001134Y-1335508D01*
X1001134Y-1335508D02*
X1010658Y-1345031D01*
X1010658Y-1345031D02*
X1020182Y-1364079D01*
X1020182Y-1364079D02*
X1029705Y-1402174D01*
X1029705Y-1402174D02*
X1029705Y-1449793D01*
X1029705Y-1449793D02*
X1020182Y-1487888D01*
X1020182Y-1487888D02*
X1010658Y-1506936D01*
X1010658Y-1506936D02*
X1001134Y-1516460D01*
X1001134Y-1516460D02*
X982086Y-1525984D01*
X982086Y-1525984D02*
X963039Y-1525984D01*
X963039Y-1525984D02*
X943991Y-1516460D01*
X943991Y-1516460D02*
X934467Y-1506936D01*
X934467Y-1506936D02*
X924943Y-1487888D01*
X924943Y-1487888D02*
X915420Y-1449793D01*
X915420Y-1449793D02*
X915420Y-1402174D01*
X915420Y-1402174D02*
X924943Y-1364079D01*
X924943Y-1364079D02*
X934467Y-1345031D01*
X934467Y-1345031D02*
X943991Y-1335508D01*
X943991Y-1335508D02*
X963039Y-1325984D01*
X1115420Y-1525984D02*
X1115420Y-1392650D01*
X1115420Y-1411698D02*
X1124944Y-1402174D01*
X1124944Y-1402174D02*
X1143991Y-1392650D01*
X1143991Y-1392650D02*
X1172563Y-1392650D01*
X1172563Y-1392650D02*
X1191610Y-1402174D01*
X1191610Y-1402174D02*
X1201134Y-1421222D01*
X1201134Y-1421222D02*
X1201134Y-1525984D01*
X1201134Y-1421222D02*
X1210658Y-1402174D01*
X1210658Y-1402174D02*
X1229705Y-1392650D01*
X1229705Y-1392650D02*
X1258277Y-1392650D01*
X1258277Y-1392650D02*
X1277325Y-1402174D01*
X1277325Y-1402174D02*
X1286848Y-1421222D01*
X1286848Y-1421222D02*
X1286848Y-1525984D01*
X1382086Y-1525984D02*
X1382086Y-1392650D01*
X1382086Y-1411698D02*
X1391610Y-1402174D01*
X1391610Y-1402174D02*
X1410658Y-1392650D01*
X1410658Y-1392650D02*
X1439229Y-1392650D01*
X1439229Y-1392650D02*
X1458277Y-1402174D01*
X1458277Y-1402174D02*
X1467801Y-1421222D01*
X1467801Y-1421222D02*
X1467801Y-1525984D01*
X1467801Y-1421222D02*
X1477324Y-1402174D01*
X1477324Y-1402174D02*
X1496372Y-1392650D01*
X1496372Y-1392650D02*
X1524943Y-1392650D01*
X1524943Y-1392650D02*
X1543991Y-1402174D01*
X1543991Y-1402174D02*
X1553515Y-1421222D01*
X1553515Y-1421222D02*
X1553515Y-1525984D01*
X1943991Y-1316460D02*
X1772563Y-1573603D01*
X2201134Y-1325984D02*
X2220182Y-1325984D01*
X2220182Y-1325984D02*
X2239229Y-1335508D01*
X2239229Y-1335508D02*
X2248753Y-1345031D01*
X2248753Y-1345031D02*
X2258277Y-1364079D01*
X2258277Y-1364079D02*
X2267801Y-1402174D01*
X2267801Y-1402174D02*
X2267801Y-1449793D01*
X2267801Y-1449793D02*
X2258277Y-1487888D01*
X2258277Y-1487888D02*
X2248753Y-1506936D01*
X2248753Y-1506936D02*
X2239229Y-1516460D01*
X2239229Y-1516460D02*
X2220182Y-1525984D01*
X2220182Y-1525984D02*
X2201134Y-1525984D01*
X2201134Y-1525984D02*
X2182087Y-1516460D01*
X2182087Y-1516460D02*
X2172563Y-1506936D01*
X2172563Y-1506936D02*
X2163039Y-1487888D01*
X2163039Y-1487888D02*
X2153515Y-1449793D01*
X2153515Y-1449793D02*
X2153515Y-1402174D01*
X2153515Y-1402174D02*
X2163039Y-1364079D01*
X2163039Y-1364079D02*
X2172563Y-1345031D01*
X2172563Y-1345031D02*
X2182087Y-1335508D01*
X2182087Y-1335508D02*
X2201134Y-1325984D01*
X2353515Y-1506936D02*
X2363039Y-1516460D01*
X2363039Y-1516460D02*
X2353515Y-1525984D01*
X2353515Y-1525984D02*
X2343991Y-1516460D01*
X2343991Y-1516460D02*
X2353515Y-1506936D01*
X2353515Y-1506936D02*
X2353515Y-1525984D01*
X2486848Y-1325984D02*
X2505896Y-1325984D01*
X2505896Y-1325984D02*
X2524944Y-1335508D01*
X2524944Y-1335508D02*
X2534468Y-1345031D01*
X2534468Y-1345031D02*
X2543991Y-1364079D01*
X2543991Y-1364079D02*
X2553515Y-1402174D01*
X2553515Y-1402174D02*
X2553515Y-1449793D01*
X2553515Y-1449793D02*
X2543991Y-1487888D01*
X2543991Y-1487888D02*
X2534468Y-1506936D01*
X2534468Y-1506936D02*
X2524944Y-1516460D01*
X2524944Y-1516460D02*
X2505896Y-1525984D01*
X2505896Y-1525984D02*
X2486848Y-1525984D01*
X2486848Y-1525984D02*
X2467801Y-1516460D01*
X2467801Y-1516460D02*
X2458277Y-1506936D01*
X2458277Y-1506936D02*
X2448753Y-1487888D01*
X2448753Y-1487888D02*
X2439229Y-1449793D01*
X2439229Y-1449793D02*
X2439229Y-1402174D01*
X2439229Y-1402174D02*
X2448753Y-1364079D01*
X2448753Y-1364079D02*
X2458277Y-1345031D01*
X2458277Y-1345031D02*
X2467801Y-1335508D01*
X2467801Y-1335508D02*
X2486848Y-1325984D01*
X2743991Y-1525984D02*
X2629706Y-1525984D01*
X2686848Y-1525984D02*
X2686848Y-1325984D01*
X2686848Y-1325984D02*
X2667801Y-1354555D01*
X2667801Y-1354555D02*
X2648753Y-1373603D01*
X2648753Y-1373603D02*
X2629706Y-1383127D01*
X2810658Y-1325984D02*
X2943991Y-1325984D01*
X2943991Y-1325984D02*
X2858277Y-1525984D01*
X3001134Y-1325984D02*
X3134467Y-1325984D01*
X3134467Y-1325984D02*
X3048753Y-1525984D01*
X3201134Y-1325984D02*
X3201134Y-1364079D01*
X3277325Y-1325984D02*
X3277325Y-1364079D01*
X3572563Y-1602174D02*
X3563039Y-1592650D01*
X3563039Y-1592650D02*
X3543991Y-1564079D01*
X3543991Y-1564079D02*
X3534468Y-1545031D01*
X3534468Y-1545031D02*
X3524944Y-1516460D01*
X3524944Y-1516460D02*
X3515420Y-1468841D01*
X3515420Y-1468841D02*
X3515420Y-1430746D01*
X3515420Y-1430746D02*
X3524944Y-1383127D01*
X3524944Y-1383127D02*
X3534468Y-1354555D01*
X3534468Y-1354555D02*
X3543991Y-1335508D01*
X3543991Y-1335508D02*
X3563039Y-1306936D01*
X3563039Y-1306936D02*
X3572563Y-1297412D01*
X3629706Y-1325984D02*
X3753515Y-1325984D01*
X3753515Y-1325984D02*
X3686848Y-1402174D01*
X3686848Y-1402174D02*
X3715420Y-1402174D01*
X3715420Y-1402174D02*
X3734468Y-1411698D01*
X3734468Y-1411698D02*
X3743991Y-1421222D01*
X3743991Y-1421222D02*
X3753515Y-1440269D01*
X3753515Y-1440269D02*
X3753515Y-1487888D01*
X3753515Y-1487888D02*
X3743991Y-1506936D01*
X3743991Y-1506936D02*
X3734468Y-1516460D01*
X3734468Y-1516460D02*
X3715420Y-1525984D01*
X3715420Y-1525984D02*
X3658277Y-1525984D01*
X3658277Y-1525984D02*
X3639229Y-1516460D01*
X3639229Y-1516460D02*
X3629706Y-1506936D01*
X3991610Y-1525984D02*
X3991610Y-1325984D01*
X4077325Y-1525984D02*
X4077325Y-1421222D01*
X4077325Y-1421222D02*
X4067801Y-1402174D01*
X4067801Y-1402174D02*
X4048753Y-1392650D01*
X4048753Y-1392650D02*
X4020182Y-1392650D01*
X4020182Y-1392650D02*
X4001134Y-1402174D01*
X4001134Y-1402174D02*
X3991610Y-1411698D01*
X4201134Y-1525984D02*
X4182087Y-1516460D01*
X4182087Y-1516460D02*
X4172563Y-1506936D01*
X4172563Y-1506936D02*
X4163039Y-1487888D01*
X4163039Y-1487888D02*
X4163039Y-1430746D01*
X4163039Y-1430746D02*
X4172563Y-1411698D01*
X4172563Y-1411698D02*
X4182087Y-1402174D01*
X4182087Y-1402174D02*
X4201134Y-1392650D01*
X4201134Y-1392650D02*
X4229706Y-1392650D01*
X4229706Y-1392650D02*
X4248753Y-1402174D01*
X4248753Y-1402174D02*
X4258277Y-1411698D01*
X4258277Y-1411698D02*
X4267801Y-1430746D01*
X4267801Y-1430746D02*
X4267801Y-1487888D01*
X4267801Y-1487888D02*
X4258277Y-1506936D01*
X4258277Y-1506936D02*
X4248753Y-1516460D01*
X4248753Y-1516460D02*
X4229706Y-1525984D01*
X4229706Y-1525984D02*
X4201134Y-1525984D01*
X4382087Y-1525984D02*
X4363039Y-1516460D01*
X4363039Y-1516460D02*
X4353515Y-1497412D01*
X4353515Y-1497412D02*
X4353515Y-1325984D01*
X4534468Y-1516460D02*
X4515420Y-1525984D01*
X4515420Y-1525984D02*
X4477325Y-1525984D01*
X4477325Y-1525984D02*
X4458277Y-1516460D01*
X4458277Y-1516460D02*
X4448753Y-1497412D01*
X4448753Y-1497412D02*
X4448753Y-1421222D01*
X4448753Y-1421222D02*
X4458277Y-1402174D01*
X4458277Y-1402174D02*
X4477325Y-1392650D01*
X4477325Y-1392650D02*
X4515420Y-1392650D01*
X4515420Y-1392650D02*
X4534468Y-1402174D01*
X4534468Y-1402174D02*
X4543992Y-1421222D01*
X4543992Y-1421222D02*
X4543992Y-1440269D01*
X4543992Y-1440269D02*
X4448753Y-1459317D01*
X4620182Y-1516460D02*
X4639230Y-1525984D01*
X4639230Y-1525984D02*
X4677325Y-1525984D01*
X4677325Y-1525984D02*
X4696373Y-1516460D01*
X4696373Y-1516460D02*
X4705896Y-1497412D01*
X4705896Y-1497412D02*
X4705896Y-1487888D01*
X4705896Y-1487888D02*
X4696373Y-1468841D01*
X4696373Y-1468841D02*
X4677325Y-1459317D01*
X4677325Y-1459317D02*
X4648753Y-1459317D01*
X4648753Y-1459317D02*
X4629706Y-1449793D01*
X4629706Y-1449793D02*
X4620182Y-1430746D01*
X4620182Y-1430746D02*
X4620182Y-1421222D01*
X4620182Y-1421222D02*
X4629706Y-1402174D01*
X4629706Y-1402174D02*
X4648753Y-1392650D01*
X4648753Y-1392650D02*
X4677325Y-1392650D01*
X4677325Y-1392650D02*
X4696373Y-1402174D01*
X4772563Y-1602174D02*
X4782087Y-1592650D01*
X4782087Y-1592650D02*
X4801134Y-1564079D01*
X4801134Y-1564079D02*
X4810658Y-1545031D01*
X4810658Y-1545031D02*
X4820182Y-1516460D01*
X4820182Y-1516460D02*
X4829706Y-1468841D01*
X4829706Y-1468841D02*
X4829706Y-1430746D01*
X4829706Y-1430746D02*
X4820182Y-1383127D01*
X4820182Y-1383127D02*
X4810658Y-1354555D01*
X4810658Y-1354555D02*
X4801134Y-1335508D01*
X4801134Y-1335508D02*
X4782087Y-1306936D01*
X4782087Y-1306936D02*
X4772563Y-1297412D01*
D12*
X-52500Y-1748500D02*
X-2500Y-1698500D01*
X-52500Y-1648500D01*
X-102500Y-1698500D01*
X-52500Y-1748500D01*
D11*
X363039Y-1789984D02*
X248753Y-1789984D01*
X305896Y-1789984D02*
X305896Y-1589984D01*
X305896Y-1589984D02*
X286848Y-1618555D01*
X286848Y-1618555D02*
X267801Y-1637603D01*
X267801Y-1637603D02*
X248753Y-1647127D01*
X448753Y-1770936D02*
X458277Y-1780460D01*
X458277Y-1780460D02*
X448753Y-1789984D01*
X448753Y-1789984D02*
X439229Y-1780460D01*
X439229Y-1780460D02*
X448753Y-1770936D01*
X448753Y-1770936D02*
X448753Y-1789984D01*
X582086Y-1589984D02*
X601134Y-1589984D01*
X601134Y-1589984D02*
X620182Y-1599508D01*
X620182Y-1599508D02*
X629705Y-1609031D01*
X629705Y-1609031D02*
X639229Y-1628079D01*
X639229Y-1628079D02*
X648753Y-1666174D01*
X648753Y-1666174D02*
X648753Y-1713793D01*
X648753Y-1713793D02*
X639229Y-1751888D01*
X639229Y-1751888D02*
X629705Y-1770936D01*
X629705Y-1770936D02*
X620182Y-1780460D01*
X620182Y-1780460D02*
X601134Y-1789984D01*
X601134Y-1789984D02*
X582086Y-1789984D01*
X582086Y-1789984D02*
X563039Y-1780460D01*
X563039Y-1780460D02*
X553515Y-1770936D01*
X553515Y-1770936D02*
X543991Y-1751888D01*
X543991Y-1751888D02*
X534467Y-1713793D01*
X534467Y-1713793D02*
X534467Y-1666174D01*
X534467Y-1666174D02*
X543991Y-1628079D01*
X543991Y-1628079D02*
X553515Y-1609031D01*
X553515Y-1609031D02*
X563039Y-1599508D01*
X563039Y-1599508D02*
X582086Y-1589984D01*
X772562Y-1589984D02*
X791610Y-1589984D01*
X791610Y-1589984D02*
X810658Y-1599508D01*
X810658Y-1599508D02*
X820182Y-1609031D01*
X820182Y-1609031D02*
X829705Y-1628079D01*
X829705Y-1628079D02*
X839229Y-1666174D01*
X839229Y-1666174D02*
X839229Y-1713793D01*
X839229Y-1713793D02*
X829705Y-1751888D01*
X829705Y-1751888D02*
X820182Y-1770936D01*
X820182Y-1770936D02*
X810658Y-1780460D01*
X810658Y-1780460D02*
X791610Y-1789984D01*
X791610Y-1789984D02*
X772562Y-1789984D01*
X772562Y-1789984D02*
X753515Y-1780460D01*
X753515Y-1780460D02*
X743991Y-1770936D01*
X743991Y-1770936D02*
X734467Y-1751888D01*
X734467Y-1751888D02*
X724943Y-1713793D01*
X724943Y-1713793D02*
X724943Y-1666174D01*
X724943Y-1666174D02*
X734467Y-1628079D01*
X734467Y-1628079D02*
X743991Y-1609031D01*
X743991Y-1609031D02*
X753515Y-1599508D01*
X753515Y-1599508D02*
X772562Y-1589984D01*
X963039Y-1589984D02*
X982086Y-1589984D01*
X982086Y-1589984D02*
X1001134Y-1599508D01*
X1001134Y-1599508D02*
X1010658Y-1609031D01*
X1010658Y-1609031D02*
X1020182Y-1628079D01*
X1020182Y-1628079D02*
X1029705Y-1666174D01*
X1029705Y-1666174D02*
X1029705Y-1713793D01*
X1029705Y-1713793D02*
X1020182Y-1751888D01*
X1020182Y-1751888D02*
X1010658Y-1770936D01*
X1010658Y-1770936D02*
X1001134Y-1780460D01*
X1001134Y-1780460D02*
X982086Y-1789984D01*
X982086Y-1789984D02*
X963039Y-1789984D01*
X963039Y-1789984D02*
X943991Y-1780460D01*
X943991Y-1780460D02*
X934467Y-1770936D01*
X934467Y-1770936D02*
X924943Y-1751888D01*
X924943Y-1751888D02*
X915420Y-1713793D01*
X915420Y-1713793D02*
X915420Y-1666174D01*
X915420Y-1666174D02*
X924943Y-1628079D01*
X924943Y-1628079D02*
X934467Y-1609031D01*
X934467Y-1609031D02*
X943991Y-1599508D01*
X943991Y-1599508D02*
X963039Y-1589984D01*
X1115420Y-1789984D02*
X1115420Y-1656650D01*
X1115420Y-1675698D02*
X1124944Y-1666174D01*
X1124944Y-1666174D02*
X1143991Y-1656650D01*
X1143991Y-1656650D02*
X1172563Y-1656650D01*
X1172563Y-1656650D02*
X1191610Y-1666174D01*
X1191610Y-1666174D02*
X1201134Y-1685222D01*
X1201134Y-1685222D02*
X1201134Y-1789984D01*
X1201134Y-1685222D02*
X1210658Y-1666174D01*
X1210658Y-1666174D02*
X1229705Y-1656650D01*
X1229705Y-1656650D02*
X1258277Y-1656650D01*
X1258277Y-1656650D02*
X1277325Y-1666174D01*
X1277325Y-1666174D02*
X1286848Y-1685222D01*
X1286848Y-1685222D02*
X1286848Y-1789984D01*
X1382086Y-1789984D02*
X1382086Y-1656650D01*
X1382086Y-1675698D02*
X1391610Y-1666174D01*
X1391610Y-1666174D02*
X1410658Y-1656650D01*
X1410658Y-1656650D02*
X1439229Y-1656650D01*
X1439229Y-1656650D02*
X1458277Y-1666174D01*
X1458277Y-1666174D02*
X1467801Y-1685222D01*
X1467801Y-1685222D02*
X1467801Y-1789984D01*
X1467801Y-1685222D02*
X1477324Y-1666174D01*
X1477324Y-1666174D02*
X1496372Y-1656650D01*
X1496372Y-1656650D02*
X1524943Y-1656650D01*
X1524943Y-1656650D02*
X1543991Y-1666174D01*
X1543991Y-1666174D02*
X1553515Y-1685222D01*
X1553515Y-1685222D02*
X1553515Y-1789984D01*
X1943991Y-1580460D02*
X1772563Y-1837603D01*
X2201134Y-1589984D02*
X2220182Y-1589984D01*
X2220182Y-1589984D02*
X2239229Y-1599508D01*
X2239229Y-1599508D02*
X2248753Y-1609031D01*
X2248753Y-1609031D02*
X2258277Y-1628079D01*
X2258277Y-1628079D02*
X2267801Y-1666174D01*
X2267801Y-1666174D02*
X2267801Y-1713793D01*
X2267801Y-1713793D02*
X2258277Y-1751888D01*
X2258277Y-1751888D02*
X2248753Y-1770936D01*
X2248753Y-1770936D02*
X2239229Y-1780460D01*
X2239229Y-1780460D02*
X2220182Y-1789984D01*
X2220182Y-1789984D02*
X2201134Y-1789984D01*
X2201134Y-1789984D02*
X2182087Y-1780460D01*
X2182087Y-1780460D02*
X2172563Y-1770936D01*
X2172563Y-1770936D02*
X2163039Y-1751888D01*
X2163039Y-1751888D02*
X2153515Y-1713793D01*
X2153515Y-1713793D02*
X2153515Y-1666174D01*
X2153515Y-1666174D02*
X2163039Y-1628079D01*
X2163039Y-1628079D02*
X2172563Y-1609031D01*
X2172563Y-1609031D02*
X2182087Y-1599508D01*
X2182087Y-1599508D02*
X2201134Y-1589984D01*
X2353515Y-1770936D02*
X2363039Y-1780460D01*
X2363039Y-1780460D02*
X2353515Y-1789984D01*
X2353515Y-1789984D02*
X2343991Y-1780460D01*
X2343991Y-1780460D02*
X2353515Y-1770936D01*
X2353515Y-1770936D02*
X2353515Y-1789984D01*
X2486848Y-1589984D02*
X2505896Y-1589984D01*
X2505896Y-1589984D02*
X2524944Y-1599508D01*
X2524944Y-1599508D02*
X2534468Y-1609031D01*
X2534468Y-1609031D02*
X2543991Y-1628079D01*
X2543991Y-1628079D02*
X2553515Y-1666174D01*
X2553515Y-1666174D02*
X2553515Y-1713793D01*
X2553515Y-1713793D02*
X2543991Y-1751888D01*
X2543991Y-1751888D02*
X2534468Y-1770936D01*
X2534468Y-1770936D02*
X2524944Y-1780460D01*
X2524944Y-1780460D02*
X2505896Y-1789984D01*
X2505896Y-1789984D02*
X2486848Y-1789984D01*
X2486848Y-1789984D02*
X2467801Y-1780460D01*
X2467801Y-1780460D02*
X2458277Y-1770936D01*
X2458277Y-1770936D02*
X2448753Y-1751888D01*
X2448753Y-1751888D02*
X2439229Y-1713793D01*
X2439229Y-1713793D02*
X2439229Y-1666174D01*
X2439229Y-1666174D02*
X2448753Y-1628079D01*
X2448753Y-1628079D02*
X2458277Y-1609031D01*
X2458277Y-1609031D02*
X2467801Y-1599508D01*
X2467801Y-1599508D02*
X2486848Y-1589984D01*
X2620182Y-1589984D02*
X2743991Y-1589984D01*
X2743991Y-1589984D02*
X2677325Y-1666174D01*
X2677325Y-1666174D02*
X2705896Y-1666174D01*
X2705896Y-1666174D02*
X2724944Y-1675698D01*
X2724944Y-1675698D02*
X2734468Y-1685222D01*
X2734468Y-1685222D02*
X2743991Y-1704269D01*
X2743991Y-1704269D02*
X2743991Y-1751888D01*
X2743991Y-1751888D02*
X2734468Y-1770936D01*
X2734468Y-1770936D02*
X2724944Y-1780460D01*
X2724944Y-1780460D02*
X2705896Y-1789984D01*
X2705896Y-1789984D02*
X2648753Y-1789984D01*
X2648753Y-1789984D02*
X2629706Y-1780460D01*
X2629706Y-1780460D02*
X2620182Y-1770936D01*
X2839229Y-1789984D02*
X2877325Y-1789984D01*
X2877325Y-1789984D02*
X2896372Y-1780460D01*
X2896372Y-1780460D02*
X2905896Y-1770936D01*
X2905896Y-1770936D02*
X2924944Y-1742365D01*
X2924944Y-1742365D02*
X2934467Y-1704269D01*
X2934467Y-1704269D02*
X2934467Y-1628079D01*
X2934467Y-1628079D02*
X2924944Y-1609031D01*
X2924944Y-1609031D02*
X2915420Y-1599508D01*
X2915420Y-1599508D02*
X2896372Y-1589984D01*
X2896372Y-1589984D02*
X2858277Y-1589984D01*
X2858277Y-1589984D02*
X2839229Y-1599508D01*
X2839229Y-1599508D02*
X2829706Y-1609031D01*
X2829706Y-1609031D02*
X2820182Y-1628079D01*
X2820182Y-1628079D02*
X2820182Y-1675698D01*
X2820182Y-1675698D02*
X2829706Y-1694746D01*
X2829706Y-1694746D02*
X2839229Y-1704269D01*
X2839229Y-1704269D02*
X2858277Y-1713793D01*
X2858277Y-1713793D02*
X2896372Y-1713793D01*
X2896372Y-1713793D02*
X2915420Y-1704269D01*
X2915420Y-1704269D02*
X2924944Y-1694746D01*
X2924944Y-1694746D02*
X2934467Y-1675698D01*
X3105896Y-1656650D02*
X3105896Y-1789984D01*
X3058277Y-1580460D02*
X3010658Y-1723317D01*
X3010658Y-1723317D02*
X3134467Y-1723317D01*
X3201134Y-1589984D02*
X3201134Y-1628079D01*
X3277325Y-1589984D02*
X3277325Y-1628079D01*
X3572563Y-1866174D02*
X3563039Y-1856650D01*
X3563039Y-1856650D02*
X3543991Y-1828079D01*
X3543991Y-1828079D02*
X3534468Y-1809031D01*
X3534468Y-1809031D02*
X3524944Y-1780460D01*
X3524944Y-1780460D02*
X3515420Y-1732841D01*
X3515420Y-1732841D02*
X3515420Y-1694746D01*
X3515420Y-1694746D02*
X3524944Y-1647127D01*
X3524944Y-1647127D02*
X3534468Y-1618555D01*
X3534468Y-1618555D02*
X3543991Y-1599508D01*
X3543991Y-1599508D02*
X3563039Y-1570936D01*
X3563039Y-1570936D02*
X3572563Y-1561412D01*
X3639229Y-1609031D02*
X3648753Y-1599508D01*
X3648753Y-1599508D02*
X3667801Y-1589984D01*
X3667801Y-1589984D02*
X3715420Y-1589984D01*
X3715420Y-1589984D02*
X3734468Y-1599508D01*
X3734468Y-1599508D02*
X3743991Y-1609031D01*
X3743991Y-1609031D02*
X3753515Y-1628079D01*
X3753515Y-1628079D02*
X3753515Y-1647127D01*
X3753515Y-1647127D02*
X3743991Y-1675698D01*
X3743991Y-1675698D02*
X3629706Y-1789984D01*
X3629706Y-1789984D02*
X3753515Y-1789984D01*
X3820182Y-1589984D02*
X3953515Y-1589984D01*
X3953515Y-1589984D02*
X3867801Y-1789984D01*
X4182087Y-1789984D02*
X4182087Y-1589984D01*
X4267801Y-1789984D02*
X4267801Y-1685222D01*
X4267801Y-1685222D02*
X4258277Y-1666174D01*
X4258277Y-1666174D02*
X4239230Y-1656650D01*
X4239230Y-1656650D02*
X4210658Y-1656650D01*
X4210658Y-1656650D02*
X4191610Y-1666174D01*
X4191610Y-1666174D02*
X4182087Y-1675698D01*
X4391611Y-1789984D02*
X4372563Y-1780460D01*
X4372563Y-1780460D02*
X4363039Y-1770936D01*
X4363039Y-1770936D02*
X4353515Y-1751888D01*
X4353515Y-1751888D02*
X4353515Y-1694746D01*
X4353515Y-1694746D02*
X4363039Y-1675698D01*
X4363039Y-1675698D02*
X4372563Y-1666174D01*
X4372563Y-1666174D02*
X4391611Y-1656650D01*
X4391611Y-1656650D02*
X4420182Y-1656650D01*
X4420182Y-1656650D02*
X4439230Y-1666174D01*
X4439230Y-1666174D02*
X4448753Y-1675698D01*
X4448753Y-1675698D02*
X4458277Y-1694746D01*
X4458277Y-1694746D02*
X4458277Y-1751888D01*
X4458277Y-1751888D02*
X4448753Y-1770936D01*
X4448753Y-1770936D02*
X4439230Y-1780460D01*
X4439230Y-1780460D02*
X4420182Y-1789984D01*
X4420182Y-1789984D02*
X4391611Y-1789984D01*
X4572563Y-1789984D02*
X4553515Y-1780460D01*
X4553515Y-1780460D02*
X4543992Y-1761412D01*
X4543992Y-1761412D02*
X4543992Y-1589984D01*
X4724944Y-1780460D02*
X4705896Y-1789984D01*
X4705896Y-1789984D02*
X4667801Y-1789984D01*
X4667801Y-1789984D02*
X4648753Y-1780460D01*
X4648753Y-1780460D02*
X4639230Y-1761412D01*
X4639230Y-1761412D02*
X4639230Y-1685222D01*
X4639230Y-1685222D02*
X4648753Y-1666174D01*
X4648753Y-1666174D02*
X4667801Y-1656650D01*
X4667801Y-1656650D02*
X4705896Y-1656650D01*
X4705896Y-1656650D02*
X4724944Y-1666174D01*
X4724944Y-1666174D02*
X4734468Y-1685222D01*
X4734468Y-1685222D02*
X4734468Y-1704269D01*
X4734468Y-1704269D02*
X4639230Y-1723317D01*
X4810658Y-1780460D02*
X4829706Y-1789984D01*
X4829706Y-1789984D02*
X4867801Y-1789984D01*
X4867801Y-1789984D02*
X4886849Y-1780460D01*
X4886849Y-1780460D02*
X4896373Y-1761412D01*
X4896373Y-1761412D02*
X4896373Y-1751888D01*
X4896373Y-1751888D02*
X4886849Y-1732841D01*
X4886849Y-1732841D02*
X4867801Y-1723317D01*
X4867801Y-1723317D02*
X4839230Y-1723317D01*
X4839230Y-1723317D02*
X4820182Y-1713793D01*
X4820182Y-1713793D02*
X4810658Y-1694746D01*
X4810658Y-1694746D02*
X4810658Y-1685222D01*
X4810658Y-1685222D02*
X4820182Y-1666174D01*
X4820182Y-1666174D02*
X4839230Y-1656650D01*
X4839230Y-1656650D02*
X4867801Y-1656650D01*
X4867801Y-1656650D02*
X4886849Y-1666174D01*
X4963039Y-1866174D02*
X4972563Y-1856650D01*
X4972563Y-1856650D02*
X4991611Y-1828079D01*
X4991611Y-1828079D02*
X5001134Y-1809031D01*
X5001134Y-1809031D02*
X5010658Y-1780460D01*
X5010658Y-1780460D02*
X5020182Y-1732841D01*
X5020182Y-1732841D02*
X5020182Y-1694746D01*
X5020182Y-1694746D02*
X5010658Y-1647127D01*
X5010658Y-1647127D02*
X5001134Y-1618555D01*
X5001134Y-1618555D02*
X4991611Y-1599508D01*
X4991611Y-1599508D02*
X4972563Y-1570936D01*
X4972563Y-1570936D02*
X4963039Y-1561412D01*
D13*
X-152500Y-1887500D02*
X-2500Y-2037500D01*
X-2500Y-1887500D02*
X-152500Y-2037500D01*
X-2500Y-1962500D02*
G75*
G02*
X-152500Y-1962500I-75000J0D01*
G01*
X-152500Y-1962500D02*
G75*
G02*
X-2500Y-1962500I75000J0D01*
G01*
D11*
X363039Y-2053984D02*
X248753Y-2053984D01*
X305896Y-2053984D02*
X305896Y-1853984D01*
X305896Y-1853984D02*
X286848Y-1882555D01*
X286848Y-1882555D02*
X267801Y-1901603D01*
X267801Y-1901603D02*
X248753Y-1911127D01*
X448753Y-2034936D02*
X458277Y-2044460D01*
X458277Y-2044460D02*
X448753Y-2053984D01*
X448753Y-2053984D02*
X439229Y-2044460D01*
X439229Y-2044460D02*
X448753Y-2034936D01*
X448753Y-2034936D02*
X448753Y-2053984D01*
X639229Y-1853984D02*
X543991Y-1853984D01*
X543991Y-1853984D02*
X534467Y-1949222D01*
X534467Y-1949222D02*
X543991Y-1939698D01*
X543991Y-1939698D02*
X563039Y-1930174D01*
X563039Y-1930174D02*
X610658Y-1930174D01*
X610658Y-1930174D02*
X629705Y-1939698D01*
X629705Y-1939698D02*
X639229Y-1949222D01*
X639229Y-1949222D02*
X648753Y-1968269D01*
X648753Y-1968269D02*
X648753Y-2015888D01*
X648753Y-2015888D02*
X639229Y-2034936D01*
X639229Y-2034936D02*
X629705Y-2044460D01*
X629705Y-2044460D02*
X610658Y-2053984D01*
X610658Y-2053984D02*
X563039Y-2053984D01*
X563039Y-2053984D02*
X543991Y-2044460D01*
X543991Y-2044460D02*
X534467Y-2034936D01*
X772562Y-1853984D02*
X791610Y-1853984D01*
X791610Y-1853984D02*
X810658Y-1863508D01*
X810658Y-1863508D02*
X820182Y-1873031D01*
X820182Y-1873031D02*
X829705Y-1892079D01*
X829705Y-1892079D02*
X839229Y-1930174D01*
X839229Y-1930174D02*
X839229Y-1977793D01*
X839229Y-1977793D02*
X829705Y-2015888D01*
X829705Y-2015888D02*
X820182Y-2034936D01*
X820182Y-2034936D02*
X810658Y-2044460D01*
X810658Y-2044460D02*
X791610Y-2053984D01*
X791610Y-2053984D02*
X772562Y-2053984D01*
X772562Y-2053984D02*
X753515Y-2044460D01*
X753515Y-2044460D02*
X743991Y-2034936D01*
X743991Y-2034936D02*
X734467Y-2015888D01*
X734467Y-2015888D02*
X724943Y-1977793D01*
X724943Y-1977793D02*
X724943Y-1930174D01*
X724943Y-1930174D02*
X734467Y-1892079D01*
X734467Y-1892079D02*
X743991Y-1873031D01*
X743991Y-1873031D02*
X753515Y-1863508D01*
X753515Y-1863508D02*
X772562Y-1853984D01*
X963039Y-1853984D02*
X982086Y-1853984D01*
X982086Y-1853984D02*
X1001134Y-1863508D01*
X1001134Y-1863508D02*
X1010658Y-1873031D01*
X1010658Y-1873031D02*
X1020182Y-1892079D01*
X1020182Y-1892079D02*
X1029705Y-1930174D01*
X1029705Y-1930174D02*
X1029705Y-1977793D01*
X1029705Y-1977793D02*
X1020182Y-2015888D01*
X1020182Y-2015888D02*
X1010658Y-2034936D01*
X1010658Y-2034936D02*
X1001134Y-2044460D01*
X1001134Y-2044460D02*
X982086Y-2053984D01*
X982086Y-2053984D02*
X963039Y-2053984D01*
X963039Y-2053984D02*
X943991Y-2044460D01*
X943991Y-2044460D02*
X934467Y-2034936D01*
X934467Y-2034936D02*
X924943Y-2015888D01*
X924943Y-2015888D02*
X915420Y-1977793D01*
X915420Y-1977793D02*
X915420Y-1930174D01*
X915420Y-1930174D02*
X924943Y-1892079D01*
X924943Y-1892079D02*
X934467Y-1873031D01*
X934467Y-1873031D02*
X943991Y-1863508D01*
X943991Y-1863508D02*
X963039Y-1853984D01*
X1115420Y-2053984D02*
X1115420Y-1920650D01*
X1115420Y-1939698D02*
X1124944Y-1930174D01*
X1124944Y-1930174D02*
X1143991Y-1920650D01*
X1143991Y-1920650D02*
X1172563Y-1920650D01*
X1172563Y-1920650D02*
X1191610Y-1930174D01*
X1191610Y-1930174D02*
X1201134Y-1949222D01*
X1201134Y-1949222D02*
X1201134Y-2053984D01*
X1201134Y-1949222D02*
X1210658Y-1930174D01*
X1210658Y-1930174D02*
X1229705Y-1920650D01*
X1229705Y-1920650D02*
X1258277Y-1920650D01*
X1258277Y-1920650D02*
X1277325Y-1930174D01*
X1277325Y-1930174D02*
X1286848Y-1949222D01*
X1286848Y-1949222D02*
X1286848Y-2053984D01*
X1382086Y-2053984D02*
X1382086Y-1920650D01*
X1382086Y-1939698D02*
X1391610Y-1930174D01*
X1391610Y-1930174D02*
X1410658Y-1920650D01*
X1410658Y-1920650D02*
X1439229Y-1920650D01*
X1439229Y-1920650D02*
X1458277Y-1930174D01*
X1458277Y-1930174D02*
X1467801Y-1949222D01*
X1467801Y-1949222D02*
X1467801Y-2053984D01*
X1467801Y-1949222D02*
X1477324Y-1930174D01*
X1477324Y-1930174D02*
X1496372Y-1920650D01*
X1496372Y-1920650D02*
X1524943Y-1920650D01*
X1524943Y-1920650D02*
X1543991Y-1930174D01*
X1543991Y-1930174D02*
X1553515Y-1949222D01*
X1553515Y-1949222D02*
X1553515Y-2053984D01*
X1943991Y-1844460D02*
X1772563Y-2101603D01*
X2201134Y-1853984D02*
X2220182Y-1853984D01*
X2220182Y-1853984D02*
X2239229Y-1863508D01*
X2239229Y-1863508D02*
X2248753Y-1873031D01*
X2248753Y-1873031D02*
X2258277Y-1892079D01*
X2258277Y-1892079D02*
X2267801Y-1930174D01*
X2267801Y-1930174D02*
X2267801Y-1977793D01*
X2267801Y-1977793D02*
X2258277Y-2015888D01*
X2258277Y-2015888D02*
X2248753Y-2034936D01*
X2248753Y-2034936D02*
X2239229Y-2044460D01*
X2239229Y-2044460D02*
X2220182Y-2053984D01*
X2220182Y-2053984D02*
X2201134Y-2053984D01*
X2201134Y-2053984D02*
X2182087Y-2044460D01*
X2182087Y-2044460D02*
X2172563Y-2034936D01*
X2172563Y-2034936D02*
X2163039Y-2015888D01*
X2163039Y-2015888D02*
X2153515Y-1977793D01*
X2153515Y-1977793D02*
X2153515Y-1930174D01*
X2153515Y-1930174D02*
X2163039Y-1892079D01*
X2163039Y-1892079D02*
X2172563Y-1873031D01*
X2172563Y-1873031D02*
X2182087Y-1863508D01*
X2182087Y-1863508D02*
X2201134Y-1853984D01*
X2353515Y-2034936D02*
X2363039Y-2044460D01*
X2363039Y-2044460D02*
X2353515Y-2053984D01*
X2353515Y-2053984D02*
X2343991Y-2044460D01*
X2343991Y-2044460D02*
X2353515Y-2034936D01*
X2353515Y-2034936D02*
X2353515Y-2053984D01*
X2486848Y-1853984D02*
X2505896Y-1853984D01*
X2505896Y-1853984D02*
X2524944Y-1863508D01*
X2524944Y-1863508D02*
X2534468Y-1873031D01*
X2534468Y-1873031D02*
X2543991Y-1892079D01*
X2543991Y-1892079D02*
X2553515Y-1930174D01*
X2553515Y-1930174D02*
X2553515Y-1977793D01*
X2553515Y-1977793D02*
X2543991Y-2015888D01*
X2543991Y-2015888D02*
X2534468Y-2034936D01*
X2534468Y-2034936D02*
X2524944Y-2044460D01*
X2524944Y-2044460D02*
X2505896Y-2053984D01*
X2505896Y-2053984D02*
X2486848Y-2053984D01*
X2486848Y-2053984D02*
X2467801Y-2044460D01*
X2467801Y-2044460D02*
X2458277Y-2034936D01*
X2458277Y-2034936D02*
X2448753Y-2015888D01*
X2448753Y-2015888D02*
X2439229Y-1977793D01*
X2439229Y-1977793D02*
X2439229Y-1930174D01*
X2439229Y-1930174D02*
X2448753Y-1892079D01*
X2448753Y-1892079D02*
X2458277Y-1873031D01*
X2458277Y-1873031D02*
X2467801Y-1863508D01*
X2467801Y-1863508D02*
X2486848Y-1853984D01*
X2734468Y-1853984D02*
X2639229Y-1853984D01*
X2639229Y-1853984D02*
X2629706Y-1949222D01*
X2629706Y-1949222D02*
X2639229Y-1939698D01*
X2639229Y-1939698D02*
X2658277Y-1930174D01*
X2658277Y-1930174D02*
X2705896Y-1930174D01*
X2705896Y-1930174D02*
X2724944Y-1939698D01*
X2724944Y-1939698D02*
X2734468Y-1949222D01*
X2734468Y-1949222D02*
X2743991Y-1968269D01*
X2743991Y-1968269D02*
X2743991Y-2015888D01*
X2743991Y-2015888D02*
X2734468Y-2034936D01*
X2734468Y-2034936D02*
X2724944Y-2044460D01*
X2724944Y-2044460D02*
X2705896Y-2053984D01*
X2705896Y-2053984D02*
X2658277Y-2053984D01*
X2658277Y-2053984D02*
X2639229Y-2044460D01*
X2639229Y-2044460D02*
X2629706Y-2034936D01*
X2839229Y-2053984D02*
X2877325Y-2053984D01*
X2877325Y-2053984D02*
X2896372Y-2044460D01*
X2896372Y-2044460D02*
X2905896Y-2034936D01*
X2905896Y-2034936D02*
X2924944Y-2006365D01*
X2924944Y-2006365D02*
X2934467Y-1968269D01*
X2934467Y-1968269D02*
X2934467Y-1892079D01*
X2934467Y-1892079D02*
X2924944Y-1873031D01*
X2924944Y-1873031D02*
X2915420Y-1863508D01*
X2915420Y-1863508D02*
X2896372Y-1853984D01*
X2896372Y-1853984D02*
X2858277Y-1853984D01*
X2858277Y-1853984D02*
X2839229Y-1863508D01*
X2839229Y-1863508D02*
X2829706Y-1873031D01*
X2829706Y-1873031D02*
X2820182Y-1892079D01*
X2820182Y-1892079D02*
X2820182Y-1939698D01*
X2820182Y-1939698D02*
X2829706Y-1958746D01*
X2829706Y-1958746D02*
X2839229Y-1968269D01*
X2839229Y-1968269D02*
X2858277Y-1977793D01*
X2858277Y-1977793D02*
X2896372Y-1977793D01*
X2896372Y-1977793D02*
X2915420Y-1968269D01*
X2915420Y-1968269D02*
X2924944Y-1958746D01*
X2924944Y-1958746D02*
X2934467Y-1939698D01*
X3124944Y-2053984D02*
X3010658Y-2053984D01*
X3067801Y-2053984D02*
X3067801Y-1853984D01*
X3067801Y-1853984D02*
X3048753Y-1882555D01*
X3048753Y-1882555D02*
X3029706Y-1901603D01*
X3029706Y-1901603D02*
X3010658Y-1911127D01*
X3201134Y-1853984D02*
X3201134Y-1892079D01*
X3277325Y-1853984D02*
X3277325Y-1892079D01*
X3572563Y-2130174D02*
X3563039Y-2120650D01*
X3563039Y-2120650D02*
X3543991Y-2092079D01*
X3543991Y-2092079D02*
X3534468Y-2073031D01*
X3534468Y-2073031D02*
X3524944Y-2044460D01*
X3524944Y-2044460D02*
X3515420Y-1996841D01*
X3515420Y-1996841D02*
X3515420Y-1958746D01*
X3515420Y-1958746D02*
X3524944Y-1911127D01*
X3524944Y-1911127D02*
X3534468Y-1882555D01*
X3534468Y-1882555D02*
X3543991Y-1863508D01*
X3543991Y-1863508D02*
X3563039Y-1834936D01*
X3563039Y-1834936D02*
X3572563Y-1825412D01*
X3639229Y-1873031D02*
X3648753Y-1863508D01*
X3648753Y-1863508D02*
X3667801Y-1853984D01*
X3667801Y-1853984D02*
X3715420Y-1853984D01*
X3715420Y-1853984D02*
X3734468Y-1863508D01*
X3734468Y-1863508D02*
X3743991Y-1873031D01*
X3743991Y-1873031D02*
X3753515Y-1892079D01*
X3753515Y-1892079D02*
X3753515Y-1911127D01*
X3753515Y-1911127D02*
X3743991Y-1939698D01*
X3743991Y-1939698D02*
X3629706Y-2053984D01*
X3629706Y-2053984D02*
X3753515Y-2053984D01*
X3991610Y-2053984D02*
X3991610Y-1853984D01*
X4077325Y-2053984D02*
X4077325Y-1949222D01*
X4077325Y-1949222D02*
X4067801Y-1930174D01*
X4067801Y-1930174D02*
X4048753Y-1920650D01*
X4048753Y-1920650D02*
X4020182Y-1920650D01*
X4020182Y-1920650D02*
X4001134Y-1930174D01*
X4001134Y-1930174D02*
X3991610Y-1939698D01*
X4201134Y-2053984D02*
X4182087Y-2044460D01*
X4182087Y-2044460D02*
X4172563Y-2034936D01*
X4172563Y-2034936D02*
X4163039Y-2015888D01*
X4163039Y-2015888D02*
X4163039Y-1958746D01*
X4163039Y-1958746D02*
X4172563Y-1939698D01*
X4172563Y-1939698D02*
X4182087Y-1930174D01*
X4182087Y-1930174D02*
X4201134Y-1920650D01*
X4201134Y-1920650D02*
X4229706Y-1920650D01*
X4229706Y-1920650D02*
X4248753Y-1930174D01*
X4248753Y-1930174D02*
X4258277Y-1939698D01*
X4258277Y-1939698D02*
X4267801Y-1958746D01*
X4267801Y-1958746D02*
X4267801Y-2015888D01*
X4267801Y-2015888D02*
X4258277Y-2034936D01*
X4258277Y-2034936D02*
X4248753Y-2044460D01*
X4248753Y-2044460D02*
X4229706Y-2053984D01*
X4229706Y-2053984D02*
X4201134Y-2053984D01*
X4382087Y-2053984D02*
X4363039Y-2044460D01*
X4363039Y-2044460D02*
X4353515Y-2025412D01*
X4353515Y-2025412D02*
X4353515Y-1853984D01*
X4534468Y-2044460D02*
X4515420Y-2053984D01*
X4515420Y-2053984D02*
X4477325Y-2053984D01*
X4477325Y-2053984D02*
X4458277Y-2044460D01*
X4458277Y-2044460D02*
X4448753Y-2025412D01*
X4448753Y-2025412D02*
X4448753Y-1949222D01*
X4448753Y-1949222D02*
X4458277Y-1930174D01*
X4458277Y-1930174D02*
X4477325Y-1920650D01*
X4477325Y-1920650D02*
X4515420Y-1920650D01*
X4515420Y-1920650D02*
X4534468Y-1930174D01*
X4534468Y-1930174D02*
X4543992Y-1949222D01*
X4543992Y-1949222D02*
X4543992Y-1968269D01*
X4543992Y-1968269D02*
X4448753Y-1987317D01*
X4620182Y-2044460D02*
X4639230Y-2053984D01*
X4639230Y-2053984D02*
X4677325Y-2053984D01*
X4677325Y-2053984D02*
X4696373Y-2044460D01*
X4696373Y-2044460D02*
X4705896Y-2025412D01*
X4705896Y-2025412D02*
X4705896Y-2015888D01*
X4705896Y-2015888D02*
X4696373Y-1996841D01*
X4696373Y-1996841D02*
X4677325Y-1987317D01*
X4677325Y-1987317D02*
X4648753Y-1987317D01*
X4648753Y-1987317D02*
X4629706Y-1977793D01*
X4629706Y-1977793D02*
X4620182Y-1958746D01*
X4620182Y-1958746D02*
X4620182Y-1949222D01*
X4620182Y-1949222D02*
X4629706Y-1930174D01*
X4629706Y-1930174D02*
X4648753Y-1920650D01*
X4648753Y-1920650D02*
X4677325Y-1920650D01*
X4677325Y-1920650D02*
X4696373Y-1930174D01*
X4772563Y-2130174D02*
X4782087Y-2120650D01*
X4782087Y-2120650D02*
X4801134Y-2092079D01*
X4801134Y-2092079D02*
X4810658Y-2073031D01*
X4810658Y-2073031D02*
X4820182Y-2044460D01*
X4820182Y-2044460D02*
X4829706Y-1996841D01*
X4829706Y-1996841D02*
X4829706Y-1958746D01*
X4829706Y-1958746D02*
X4820182Y-1911127D01*
X4820182Y-1911127D02*
X4810658Y-1882555D01*
X4810658Y-1882555D02*
X4801134Y-1863508D01*
X4801134Y-1863508D02*
X4782087Y-1834936D01*
X4782087Y-1834936D02*
X4772563Y-1825412D01*
D14*
X-172500Y-2147500D02*
X-2500Y-2317500D01*
X-2500Y-2147500D02*
X-172500Y-2317500D01*
X-87500Y-2147500D02*
X-87500Y-2317500D01*
X-172500Y-2232500D02*
X-2500Y-2232500D01*
D11*
X363039Y-2323984D02*
X248753Y-2323984D01*
X305896Y-2323984D02*
X305896Y-2123984D01*
X305896Y-2123984D02*
X286848Y-2152555D01*
X286848Y-2152555D02*
X267801Y-2171603D01*
X267801Y-2171603D02*
X248753Y-2181127D01*
X448753Y-2304936D02*
X458277Y-2314460D01*
X458277Y-2314460D02*
X448753Y-2323984D01*
X448753Y-2323984D02*
X439229Y-2314460D01*
X439229Y-2314460D02*
X448753Y-2304936D01*
X448753Y-2304936D02*
X448753Y-2323984D01*
X524944Y-2123984D02*
X658277Y-2123984D01*
X658277Y-2123984D02*
X572563Y-2323984D01*
X772562Y-2123984D02*
X791610Y-2123984D01*
X791610Y-2123984D02*
X810658Y-2133508D01*
X810658Y-2133508D02*
X820182Y-2143031D01*
X820182Y-2143031D02*
X829705Y-2162079D01*
X829705Y-2162079D02*
X839229Y-2200174D01*
X839229Y-2200174D02*
X839229Y-2247793D01*
X839229Y-2247793D02*
X829705Y-2285889D01*
X829705Y-2285889D02*
X820182Y-2304936D01*
X820182Y-2304936D02*
X810658Y-2314460D01*
X810658Y-2314460D02*
X791610Y-2323984D01*
X791610Y-2323984D02*
X772562Y-2323984D01*
X772562Y-2323984D02*
X753515Y-2314460D01*
X753515Y-2314460D02*
X743991Y-2304936D01*
X743991Y-2304936D02*
X734467Y-2285889D01*
X734467Y-2285889D02*
X724943Y-2247793D01*
X724943Y-2247793D02*
X724943Y-2200174D01*
X724943Y-2200174D02*
X734467Y-2162079D01*
X734467Y-2162079D02*
X743991Y-2143031D01*
X743991Y-2143031D02*
X753515Y-2133508D01*
X753515Y-2133508D02*
X772562Y-2123984D01*
X963039Y-2123984D02*
X982086Y-2123984D01*
X982086Y-2123984D02*
X1001134Y-2133508D01*
X1001134Y-2133508D02*
X1010658Y-2143031D01*
X1010658Y-2143031D02*
X1020182Y-2162079D01*
X1020182Y-2162079D02*
X1029705Y-2200174D01*
X1029705Y-2200174D02*
X1029705Y-2247793D01*
X1029705Y-2247793D02*
X1020182Y-2285889D01*
X1020182Y-2285889D02*
X1010658Y-2304936D01*
X1010658Y-2304936D02*
X1001134Y-2314460D01*
X1001134Y-2314460D02*
X982086Y-2323984D01*
X982086Y-2323984D02*
X963039Y-2323984D01*
X963039Y-2323984D02*
X943991Y-2314460D01*
X943991Y-2314460D02*
X934467Y-2304936D01*
X934467Y-2304936D02*
X924943Y-2285889D01*
X924943Y-2285889D02*
X915420Y-2247793D01*
X915420Y-2247793D02*
X915420Y-2200174D01*
X915420Y-2200174D02*
X924943Y-2162079D01*
X924943Y-2162079D02*
X934467Y-2143031D01*
X934467Y-2143031D02*
X943991Y-2133508D01*
X943991Y-2133508D02*
X963039Y-2123984D01*
X1115420Y-2323984D02*
X1115420Y-2190650D01*
X1115420Y-2209698D02*
X1124944Y-2200174D01*
X1124944Y-2200174D02*
X1143991Y-2190650D01*
X1143991Y-2190650D02*
X1172563Y-2190650D01*
X1172563Y-2190650D02*
X1191610Y-2200174D01*
X1191610Y-2200174D02*
X1201134Y-2219222D01*
X1201134Y-2219222D02*
X1201134Y-2323984D01*
X1201134Y-2219222D02*
X1210658Y-2200174D01*
X1210658Y-2200174D02*
X1229705Y-2190650D01*
X1229705Y-2190650D02*
X1258277Y-2190650D01*
X1258277Y-2190650D02*
X1277325Y-2200174D01*
X1277325Y-2200174D02*
X1286848Y-2219222D01*
X1286848Y-2219222D02*
X1286848Y-2323984D01*
X1382086Y-2323984D02*
X1382086Y-2190650D01*
X1382086Y-2209698D02*
X1391610Y-2200174D01*
X1391610Y-2200174D02*
X1410658Y-2190650D01*
X1410658Y-2190650D02*
X1439229Y-2190650D01*
X1439229Y-2190650D02*
X1458277Y-2200174D01*
X1458277Y-2200174D02*
X1467801Y-2219222D01*
X1467801Y-2219222D02*
X1467801Y-2323984D01*
X1467801Y-2219222D02*
X1477324Y-2200174D01*
X1477324Y-2200174D02*
X1496372Y-2190650D01*
X1496372Y-2190650D02*
X1524943Y-2190650D01*
X1524943Y-2190650D02*
X1543991Y-2200174D01*
X1543991Y-2200174D02*
X1553515Y-2219222D01*
X1553515Y-2219222D02*
X1553515Y-2323984D01*
X1943991Y-2114460D02*
X1772563Y-2371603D01*
X2201134Y-2123984D02*
X2220182Y-2123984D01*
X2220182Y-2123984D02*
X2239229Y-2133508D01*
X2239229Y-2133508D02*
X2248753Y-2143031D01*
X2248753Y-2143031D02*
X2258277Y-2162079D01*
X2258277Y-2162079D02*
X2267801Y-2200174D01*
X2267801Y-2200174D02*
X2267801Y-2247793D01*
X2267801Y-2247793D02*
X2258277Y-2285889D01*
X2258277Y-2285889D02*
X2248753Y-2304936D01*
X2248753Y-2304936D02*
X2239229Y-2314460D01*
X2239229Y-2314460D02*
X2220182Y-2323984D01*
X2220182Y-2323984D02*
X2201134Y-2323984D01*
X2201134Y-2323984D02*
X2182087Y-2314460D01*
X2182087Y-2314460D02*
X2172563Y-2304936D01*
X2172563Y-2304936D02*
X2163039Y-2285889D01*
X2163039Y-2285889D02*
X2153515Y-2247793D01*
X2153515Y-2247793D02*
X2153515Y-2200174D01*
X2153515Y-2200174D02*
X2163039Y-2162079D01*
X2163039Y-2162079D02*
X2172563Y-2143031D01*
X2172563Y-2143031D02*
X2182087Y-2133508D01*
X2182087Y-2133508D02*
X2201134Y-2123984D01*
X2353515Y-2304936D02*
X2363039Y-2314460D01*
X2363039Y-2314460D02*
X2353515Y-2323984D01*
X2353515Y-2323984D02*
X2343991Y-2314460D01*
X2343991Y-2314460D02*
X2353515Y-2304936D01*
X2353515Y-2304936D02*
X2353515Y-2323984D01*
X2486848Y-2123984D02*
X2505896Y-2123984D01*
X2505896Y-2123984D02*
X2524944Y-2133508D01*
X2524944Y-2133508D02*
X2534468Y-2143031D01*
X2534468Y-2143031D02*
X2543991Y-2162079D01*
X2543991Y-2162079D02*
X2553515Y-2200174D01*
X2553515Y-2200174D02*
X2553515Y-2247793D01*
X2553515Y-2247793D02*
X2543991Y-2285889D01*
X2543991Y-2285889D02*
X2534468Y-2304936D01*
X2534468Y-2304936D02*
X2524944Y-2314460D01*
X2524944Y-2314460D02*
X2505896Y-2323984D01*
X2505896Y-2323984D02*
X2486848Y-2323984D01*
X2486848Y-2323984D02*
X2467801Y-2314460D01*
X2467801Y-2314460D02*
X2458277Y-2304936D01*
X2458277Y-2304936D02*
X2448753Y-2285889D01*
X2448753Y-2285889D02*
X2439229Y-2247793D01*
X2439229Y-2247793D02*
X2439229Y-2200174D01*
X2439229Y-2200174D02*
X2448753Y-2162079D01*
X2448753Y-2162079D02*
X2458277Y-2143031D01*
X2458277Y-2143031D02*
X2467801Y-2133508D01*
X2467801Y-2133508D02*
X2486848Y-2123984D01*
X2724944Y-2123984D02*
X2686848Y-2123984D01*
X2686848Y-2123984D02*
X2667801Y-2133508D01*
X2667801Y-2133508D02*
X2658277Y-2143031D01*
X2658277Y-2143031D02*
X2639229Y-2171603D01*
X2639229Y-2171603D02*
X2629706Y-2209698D01*
X2629706Y-2209698D02*
X2629706Y-2285889D01*
X2629706Y-2285889D02*
X2639229Y-2304936D01*
X2639229Y-2304936D02*
X2648753Y-2314460D01*
X2648753Y-2314460D02*
X2667801Y-2323984D01*
X2667801Y-2323984D02*
X2705896Y-2323984D01*
X2705896Y-2323984D02*
X2724944Y-2314460D01*
X2724944Y-2314460D02*
X2734468Y-2304936D01*
X2734468Y-2304936D02*
X2743991Y-2285889D01*
X2743991Y-2285889D02*
X2743991Y-2238270D01*
X2743991Y-2238270D02*
X2734468Y-2219222D01*
X2734468Y-2219222D02*
X2724944Y-2209698D01*
X2724944Y-2209698D02*
X2705896Y-2200174D01*
X2705896Y-2200174D02*
X2667801Y-2200174D01*
X2667801Y-2200174D02*
X2648753Y-2209698D01*
X2648753Y-2209698D02*
X2639229Y-2219222D01*
X2639229Y-2219222D02*
X2629706Y-2238270D01*
X2915420Y-2123984D02*
X2877325Y-2123984D01*
X2877325Y-2123984D02*
X2858277Y-2133508D01*
X2858277Y-2133508D02*
X2848753Y-2143031D01*
X2848753Y-2143031D02*
X2829706Y-2171603D01*
X2829706Y-2171603D02*
X2820182Y-2209698D01*
X2820182Y-2209698D02*
X2820182Y-2285889D01*
X2820182Y-2285889D02*
X2829706Y-2304936D01*
X2829706Y-2304936D02*
X2839229Y-2314460D01*
X2839229Y-2314460D02*
X2858277Y-2323984D01*
X2858277Y-2323984D02*
X2896372Y-2323984D01*
X2896372Y-2323984D02*
X2915420Y-2314460D01*
X2915420Y-2314460D02*
X2924944Y-2304936D01*
X2924944Y-2304936D02*
X2934467Y-2285889D01*
X2934467Y-2285889D02*
X2934467Y-2238270D01*
X2934467Y-2238270D02*
X2924944Y-2219222D01*
X2924944Y-2219222D02*
X2915420Y-2209698D01*
X2915420Y-2209698D02*
X2896372Y-2200174D01*
X2896372Y-2200174D02*
X2858277Y-2200174D01*
X2858277Y-2200174D02*
X2839229Y-2209698D01*
X2839229Y-2209698D02*
X2829706Y-2219222D01*
X2829706Y-2219222D02*
X2820182Y-2238270D01*
X3029706Y-2323984D02*
X3067801Y-2323984D01*
X3067801Y-2323984D02*
X3086848Y-2314460D01*
X3086848Y-2314460D02*
X3096372Y-2304936D01*
X3096372Y-2304936D02*
X3115420Y-2276365D01*
X3115420Y-2276365D02*
X3124944Y-2238270D01*
X3124944Y-2238270D02*
X3124944Y-2162079D01*
X3124944Y-2162079D02*
X3115420Y-2143031D01*
X3115420Y-2143031D02*
X3105896Y-2133508D01*
X3105896Y-2133508D02*
X3086848Y-2123984D01*
X3086848Y-2123984D02*
X3048753Y-2123984D01*
X3048753Y-2123984D02*
X3029706Y-2133508D01*
X3029706Y-2133508D02*
X3020182Y-2143031D01*
X3020182Y-2143031D02*
X3010658Y-2162079D01*
X3010658Y-2162079D02*
X3010658Y-2209698D01*
X3010658Y-2209698D02*
X3020182Y-2228746D01*
X3020182Y-2228746D02*
X3029706Y-2238270D01*
X3029706Y-2238270D02*
X3048753Y-2247793D01*
X3048753Y-2247793D02*
X3086848Y-2247793D01*
X3086848Y-2247793D02*
X3105896Y-2238270D01*
X3105896Y-2238270D02*
X3115420Y-2228746D01*
X3115420Y-2228746D02*
X3124944Y-2209698D01*
X3201134Y-2123984D02*
X3201134Y-2162079D01*
X3277325Y-2123984D02*
X3277325Y-2162079D01*
X3572563Y-2400174D02*
X3563039Y-2390650D01*
X3563039Y-2390650D02*
X3543991Y-2362079D01*
X3543991Y-2362079D02*
X3534468Y-2343031D01*
X3534468Y-2343031D02*
X3524944Y-2314460D01*
X3524944Y-2314460D02*
X3515420Y-2266841D01*
X3515420Y-2266841D02*
X3515420Y-2228746D01*
X3515420Y-2228746D02*
X3524944Y-2181127D01*
X3524944Y-2181127D02*
X3534468Y-2152555D01*
X3534468Y-2152555D02*
X3543991Y-2133508D01*
X3543991Y-2133508D02*
X3563039Y-2104936D01*
X3563039Y-2104936D02*
X3572563Y-2095412D01*
X3677325Y-2209698D02*
X3658277Y-2200174D01*
X3658277Y-2200174D02*
X3648753Y-2190650D01*
X3648753Y-2190650D02*
X3639229Y-2171603D01*
X3639229Y-2171603D02*
X3639229Y-2162079D01*
X3639229Y-2162079D02*
X3648753Y-2143031D01*
X3648753Y-2143031D02*
X3658277Y-2133508D01*
X3658277Y-2133508D02*
X3677325Y-2123984D01*
X3677325Y-2123984D02*
X3715420Y-2123984D01*
X3715420Y-2123984D02*
X3734468Y-2133508D01*
X3734468Y-2133508D02*
X3743991Y-2143031D01*
X3743991Y-2143031D02*
X3753515Y-2162079D01*
X3753515Y-2162079D02*
X3753515Y-2171603D01*
X3753515Y-2171603D02*
X3743991Y-2190650D01*
X3743991Y-2190650D02*
X3734468Y-2200174D01*
X3734468Y-2200174D02*
X3715420Y-2209698D01*
X3715420Y-2209698D02*
X3677325Y-2209698D01*
X3677325Y-2209698D02*
X3658277Y-2219222D01*
X3658277Y-2219222D02*
X3648753Y-2228746D01*
X3648753Y-2228746D02*
X3639229Y-2247793D01*
X3639229Y-2247793D02*
X3639229Y-2285889D01*
X3639229Y-2285889D02*
X3648753Y-2304936D01*
X3648753Y-2304936D02*
X3658277Y-2314460D01*
X3658277Y-2314460D02*
X3677325Y-2323984D01*
X3677325Y-2323984D02*
X3715420Y-2323984D01*
X3715420Y-2323984D02*
X3734468Y-2314460D01*
X3734468Y-2314460D02*
X3743991Y-2304936D01*
X3743991Y-2304936D02*
X3753515Y-2285889D01*
X3753515Y-2285889D02*
X3753515Y-2247793D01*
X3753515Y-2247793D02*
X3743991Y-2228746D01*
X3743991Y-2228746D02*
X3734468Y-2219222D01*
X3734468Y-2219222D02*
X3715420Y-2209698D01*
X3991610Y-2323984D02*
X3991610Y-2123984D01*
X4077325Y-2323984D02*
X4077325Y-2219222D01*
X4077325Y-2219222D02*
X4067801Y-2200174D01*
X4067801Y-2200174D02*
X4048753Y-2190650D01*
X4048753Y-2190650D02*
X4020182Y-2190650D01*
X4020182Y-2190650D02*
X4001134Y-2200174D01*
X4001134Y-2200174D02*
X3991610Y-2209698D01*
X4201134Y-2323984D02*
X4182087Y-2314460D01*
X4182087Y-2314460D02*
X4172563Y-2304936D01*
X4172563Y-2304936D02*
X4163039Y-2285889D01*
X4163039Y-2285889D02*
X4163039Y-2228746D01*
X4163039Y-2228746D02*
X4172563Y-2209698D01*
X4172563Y-2209698D02*
X4182087Y-2200174D01*
X4182087Y-2200174D02*
X4201134Y-2190650D01*
X4201134Y-2190650D02*
X4229706Y-2190650D01*
X4229706Y-2190650D02*
X4248753Y-2200174D01*
X4248753Y-2200174D02*
X4258277Y-2209698D01*
X4258277Y-2209698D02*
X4267801Y-2228746D01*
X4267801Y-2228746D02*
X4267801Y-2285889D01*
X4267801Y-2285889D02*
X4258277Y-2304936D01*
X4258277Y-2304936D02*
X4248753Y-2314460D01*
X4248753Y-2314460D02*
X4229706Y-2323984D01*
X4229706Y-2323984D02*
X4201134Y-2323984D01*
X4382087Y-2323984D02*
X4363039Y-2314460D01*
X4363039Y-2314460D02*
X4353515Y-2295412D01*
X4353515Y-2295412D02*
X4353515Y-2123984D01*
X4534468Y-2314460D02*
X4515420Y-2323984D01*
X4515420Y-2323984D02*
X4477325Y-2323984D01*
X4477325Y-2323984D02*
X4458277Y-2314460D01*
X4458277Y-2314460D02*
X4448753Y-2295412D01*
X4448753Y-2295412D02*
X4448753Y-2219222D01*
X4448753Y-2219222D02*
X4458277Y-2200174D01*
X4458277Y-2200174D02*
X4477325Y-2190650D01*
X4477325Y-2190650D02*
X4515420Y-2190650D01*
X4515420Y-2190650D02*
X4534468Y-2200174D01*
X4534468Y-2200174D02*
X4543992Y-2219222D01*
X4543992Y-2219222D02*
X4543992Y-2238270D01*
X4543992Y-2238270D02*
X4448753Y-2257317D01*
X4620182Y-2314460D02*
X4639230Y-2323984D01*
X4639230Y-2323984D02*
X4677325Y-2323984D01*
X4677325Y-2323984D02*
X4696373Y-2314460D01*
X4696373Y-2314460D02*
X4705896Y-2295412D01*
X4705896Y-2295412D02*
X4705896Y-2285889D01*
X4705896Y-2285889D02*
X4696373Y-2266841D01*
X4696373Y-2266841D02*
X4677325Y-2257317D01*
X4677325Y-2257317D02*
X4648753Y-2257317D01*
X4648753Y-2257317D02*
X4629706Y-2247793D01*
X4629706Y-2247793D02*
X4620182Y-2228746D01*
X4620182Y-2228746D02*
X4620182Y-2219222D01*
X4620182Y-2219222D02*
X4629706Y-2200174D01*
X4629706Y-2200174D02*
X4648753Y-2190650D01*
X4648753Y-2190650D02*
X4677325Y-2190650D01*
X4677325Y-2190650D02*
X4696373Y-2200174D01*
X4772563Y-2400174D02*
X4782087Y-2390650D01*
X4782087Y-2390650D02*
X4801134Y-2362079D01*
X4801134Y-2362079D02*
X4810658Y-2343031D01*
X4810658Y-2343031D02*
X4820182Y-2314460D01*
X4820182Y-2314460D02*
X4829706Y-2266841D01*
X4829706Y-2266841D02*
X4829706Y-2228746D01*
X4829706Y-2228746D02*
X4820182Y-2181127D01*
X4820182Y-2181127D02*
X4810658Y-2152555D01*
X4810658Y-2152555D02*
X4801134Y-2133508D01*
X4801134Y-2133508D02*
X4782087Y-2104936D01*
X4782087Y-2104936D02*
X4772563Y-2095412D01*
M02*
