%TF.GenerationSoftware,KiCad,Pcbnew,8.0.6*%
%TF.CreationDate,2024-12-30T16:19:14+01:00*%
%TF.ProjectId,pico-glitcher-v2.1-extension,7069636f-2d67-46c6-9974-636865722d76,rev?*%
%TF.SameCoordinates,PX3d09000PY6590fa0*%
%TF.FileFunction,Copper,L1,Top*%
%TF.FilePolarity,Positive*%
%FSLAX46Y46*%
G04 Gerber Fmt 4.6, Leading zero omitted, Abs format (unit mm)*
G04 Created by KiCad (PCBNEW 8.0.6) date 2024-12-30 16:19:14*
%MOMM*%
%LPD*%
G01*
G04 APERTURE LIST*
G04 Aperture macros list*
%AMRoundRect*
0 Rectangle with rounded corners*
0 $1 Rounding radius*
0 $2 $3 $4 $5 $6 $7 $8 $9 X,Y pos of 4 corners*
0 Add a 4 corners polygon primitive as box body*
4,1,4,$2,$3,$4,$5,$6,$7,$8,$9,$2,$3,0*
0 Add four circle primitives for the rounded corners*
1,1,$1+$1,$2,$3*
1,1,$1+$1,$4,$5*
1,1,$1+$1,$6,$7*
1,1,$1+$1,$8,$9*
0 Add four rect primitives between the rounded corners*
20,1,$1+$1,$2,$3,$4,$5,0*
20,1,$1+$1,$4,$5,$6,$7,0*
20,1,$1+$1,$6,$7,$8,$9,0*
20,1,$1+$1,$8,$9,$2,$3,0*%
%AMFreePoly0*
4,1,6,0.500000,-0.750000,-0.650000,-0.750000,-0.150000,0.000000,-0.650000,0.750000,0.500000,0.750000,0.500000,-0.750000,0.500000,-0.750000,$1*%
%AMFreePoly1*
4,1,6,1.000000,0.000000,0.500000,-0.750000,-0.500000,-0.750000,-0.500000,0.750000,0.500000,0.750000,1.000000,0.000000,1.000000,0.000000,$1*%
G04 Aperture macros list end*
%TA.AperFunction,SMDPad,CuDef*%
%ADD10RoundRect,0.218750X0.256250X-0.218750X0.256250X0.218750X-0.256250X0.218750X-0.256250X-0.218750X0*%
%TD*%
%TA.AperFunction,SMDPad,CuDef*%
%ADD11RoundRect,0.225000X0.250000X-0.225000X0.250000X0.225000X-0.250000X0.225000X-0.250000X-0.225000X0*%
%TD*%
%TA.AperFunction,SMDPad,CuDef*%
%ADD12RoundRect,0.225000X-0.225000X-0.250000X0.225000X-0.250000X0.225000X0.250000X-0.225000X0.250000X0*%
%TD*%
%TA.AperFunction,SMDPad,CuDef*%
%ADD13C,1.000000*%
%TD*%
%TA.AperFunction,ComponentPad*%
%ADD14O,1.700000X1.700000*%
%TD*%
%TA.AperFunction,ComponentPad*%
%ADD15R,1.700000X1.700000*%
%TD*%
%TA.AperFunction,SMDPad,CuDef*%
%ADD16R,3.759200X3.759200*%
%TD*%
%TA.AperFunction,SMDPad,CuDef*%
%ADD17R,0.254000X0.812800*%
%TD*%
%TA.AperFunction,SMDPad,CuDef*%
%ADD18R,0.812800X0.254000*%
%TD*%
%TA.AperFunction,SMDPad,CuDef*%
%ADD19RoundRect,0.200000X-0.275000X0.200000X-0.275000X-0.200000X0.275000X-0.200000X0.275000X0.200000X0*%
%TD*%
%TA.AperFunction,SMDPad,CuDef*%
%ADD20RoundRect,0.250000X-0.250000X-0.475000X0.250000X-0.475000X0.250000X0.475000X-0.250000X0.475000X0*%
%TD*%
%TA.AperFunction,SMDPad,CuDef*%
%ADD21R,1.200000X1.200000*%
%TD*%
%TA.AperFunction,SMDPad,CuDef*%
%ADD22R,1.600000X1.500000*%
%TD*%
%TA.AperFunction,ComponentPad*%
%ADD23C,2.250000*%
%TD*%
%TA.AperFunction,ComponentPad*%
%ADD24C,2.050000*%
%TD*%
%TA.AperFunction,SMDPad,CuDef*%
%ADD25RoundRect,0.200000X0.200000X0.275000X-0.200000X0.275000X-0.200000X-0.275000X0.200000X-0.275000X0*%
%TD*%
%TA.AperFunction,SMDPad,CuDef*%
%ADD26RoundRect,0.225000X0.225000X0.250000X-0.225000X0.250000X-0.225000X-0.250000X0.225000X-0.250000X0*%
%TD*%
%TA.AperFunction,SMDPad,CuDef*%
%ADD27RoundRect,0.250000X0.475000X-0.250000X0.475000X0.250000X-0.475000X0.250000X-0.475000X-0.250000X0*%
%TD*%
%TA.AperFunction,SMDPad,CuDef*%
%ADD28RoundRect,0.225000X-0.250000X0.225000X-0.250000X-0.225000X0.250000X-0.225000X0.250000X0.225000X0*%
%TD*%
%TA.AperFunction,SMDPad,CuDef*%
%ADD29RoundRect,0.250000X1.425000X-0.362500X1.425000X0.362500X-1.425000X0.362500X-1.425000X-0.362500X0*%
%TD*%
%TA.AperFunction,SMDPad,CuDef*%
%ADD30RoundRect,0.200000X0.275000X-0.200000X0.275000X0.200000X-0.275000X0.200000X-0.275000X-0.200000X0*%
%TD*%
%TA.AperFunction,SMDPad,CuDef*%
%ADD31RoundRect,0.200000X-0.200000X-0.275000X0.200000X-0.275000X0.200000X0.275000X-0.200000X0.275000X0*%
%TD*%
%TA.AperFunction,SMDPad,CuDef*%
%ADD32RoundRect,0.250000X0.250000X0.275000X-0.250000X0.275000X-0.250000X-0.275000X0.250000X-0.275000X0*%
%TD*%
%TA.AperFunction,SMDPad,CuDef*%
%ADD33RoundRect,0.162500X0.337500X0.162500X-0.337500X0.162500X-0.337500X-0.162500X0.337500X-0.162500X0*%
%TD*%
%TA.AperFunction,ComponentPad*%
%ADD34C,0.300000*%
%TD*%
%TA.AperFunction,SMDPad,CuDef*%
%ADD35R,2.950000X4.900000*%
%TD*%
%TA.AperFunction,SMDPad,CuDef*%
%ADD36RoundRect,0.015000X-0.760000X-0.285000X0.760000X-0.285000X0.760000X0.285000X-0.760000X0.285000X0*%
%TD*%
%TA.AperFunction,HeatsinkPad*%
%ADD37R,1.450000X1.740000*%
%TD*%
%TA.AperFunction,SMDPad,CuDef*%
%ADD38RoundRect,0.087500X-0.200000X-0.087500X0.200000X-0.087500X0.200000X0.087500X-0.200000X0.087500X0*%
%TD*%
%TA.AperFunction,SMDPad,CuDef*%
%ADD39RoundRect,0.218750X-0.256250X0.218750X-0.256250X-0.218750X0.256250X-0.218750X0.256250X0.218750X0*%
%TD*%
%TA.AperFunction,SMDPad,CuDef*%
%ADD40FreePoly0,90.000000*%
%TD*%
%TA.AperFunction,SMDPad,CuDef*%
%ADD41FreePoly1,90.000000*%
%TD*%
%TA.AperFunction,SMDPad,CuDef*%
%ADD42R,0.558800X1.270000*%
%TD*%
%TA.AperFunction,ViaPad*%
%ADD43C,0.600000*%
%TD*%
%TA.AperFunction,ViaPad*%
%ADD44C,0.500000*%
%TD*%
%TA.AperFunction,ViaPad*%
%ADD45C,0.700000*%
%TD*%
%TA.AperFunction,Conductor*%
%ADD46C,0.254000*%
%TD*%
%TA.AperFunction,Conductor*%
%ADD47C,0.818000*%
%TD*%
%TA.AperFunction,Conductor*%
%ADD48C,0.508000*%
%TD*%
%TA.AperFunction,Conductor*%
%ADD49C,0.409000*%
%TD*%
%TA.AperFunction,Conductor*%
%ADD50C,0.127000*%
%TD*%
G04 APERTURE END LIST*
D10*
%TO.P,D3,2,A*%
%TO.N,Net-(D3-A)*%
X32000000Y3575000D03*
%TO.P,D3,1,K*%
%TO.N,GND*%
X32000000Y2000000D03*
%TD*%
D11*
%TO.P,C15,2*%
%TO.N,+3V3*%
X25500000Y14500000D03*
%TO.P,C15,1*%
%TO.N,GND*%
X25500000Y12950000D03*
%TD*%
D12*
%TO.P,C30,2*%
%TO.N,-5V*%
X40500000Y27550000D03*
%TO.P,C30,1*%
%TO.N,GND*%
X38950000Y27550000D03*
%TD*%
D13*
%TO.P,TP8,1,1*%
%TO.N,-5V*%
X21000000Y8000000D03*
%TD*%
D11*
%TO.P,C29,2*%
%TO.N,+5V*%
X13000000Y5275000D03*
%TO.P,C29,1*%
%TO.N,GND*%
X13000000Y3725000D03*
%TD*%
D14*
%TO.P,J6,3,Pin_3*%
%TO.N,Net-(J6-Pin_3)*%
X71500000Y29080000D03*
%TO.P,J6,2,Pin_2*%
%TO.N,/AMPL_VOUT*%
X71500000Y26540000D03*
D15*
%TO.P,J6,1,Pin_1*%
%TO.N,Net-(J6-Pin_1)*%
X71500000Y24000000D03*
%TD*%
D16*
%TO.P,U1,33,EPAD*%
%TO.N,GND*%
X26801100Y19749999D03*
D17*
%TO.P,U1,32,\u002ATRIGGER*%
%TO.N,/TRIG*%
X25051101Y22201099D03*
%TO.P,U1,31,NC*%
%TO.N,unconnected-(U1-NC-Pad31)*%
X25551100Y22201099D03*
%TO.P,U1,30,NC*%
%TO.N,unconnected-(U1-NC-Pad30)*%
X26051099Y22201099D03*
%TO.P,U1,29,AVDD1*%
%TO.N,+3V3*%
X26551100Y22201099D03*
%TO.P,U1,28,IOUTN*%
%TO.N,/IOUTN*%
X27051100Y22201099D03*
%TO.P,U1,27,IOUTP*%
%TO.N,/IOUTP*%
X27551101Y22201099D03*
%TO.P,U1,26,AGND*%
%TO.N,GND*%
X28051100Y22201099D03*
%TO.P,U1,25,FSADJ*%
%TO.N,Net-(JP1-B)*%
X28551099Y22201099D03*
D18*
%TO.P,U1,24,CAL_SENSE*%
%TO.N,Net-(JP1-A)*%
X29252200Y21499998D03*
%TO.P,U1,23,CLKVDD*%
%TO.N,+3V3*%
X29252200Y20999999D03*
%TO.P,U1,22,CLDO*%
%TO.N,/CLKLDO*%
X29252200Y20500000D03*
%TO.P,U1,21,CLKP*%
%TO.N,Net-(U1-CLKP)*%
X29252200Y19999999D03*
%TO.P,U1,20,CLKN*%
%TO.N,Net-(U1-CLKN)*%
X29252200Y19499999D03*
%TO.P,U1,19,CLKGND*%
%TO.N,GND*%
X29252200Y18999998D03*
%TO.P,U1,18,REFIO*%
%TO.N,/REFIO*%
X29252200Y18499999D03*
%TO.P,U1,17,NC*%
%TO.N,unconnected-(U1-NC-Pad17)*%
X29252200Y18000000D03*
D17*
%TO.P,U1,16,NC*%
%TO.N,unconnected-(U1-NC-Pad16)*%
X28551099Y17298899D03*
%TO.P,U1,15,AGND*%
%TO.N,GND*%
X28051100Y17298899D03*
%TO.P,U1,14,NC*%
%TO.N,unconnected-(U1-NC-Pad14)*%
X27551101Y17298899D03*
%TO.P,U1,13,NC*%
%TO.N,unconnected-(U1-NC-Pad13)*%
X27051100Y17298899D03*
%TO.P,U1,12,AVDD2*%
%TO.N,+3V3*%
X26551100Y17298899D03*
%TO.P,U1,11,NC*%
%TO.N,unconnected-(U1-NC-Pad11)*%
X26051099Y17298899D03*
%TO.P,U1,10,NC*%
%TO.N,unconnected-(U1-NC-Pad10)*%
X25551100Y17298899D03*
%TO.P,U1,9,\u002ARESET*%
%TO.N,/RSTn*%
X25051101Y17298899D03*
D18*
%TO.P,U1,8,\u002ACS*%
%TO.N,/CSn*%
X24350000Y18000000D03*
%TO.P,U1,7,SDO/SDI2/DOUT*%
%TO.N,/MISO*%
X24350000Y18499999D03*
%TO.P,U1,6,DLDO1*%
%TO.N,/LDO1*%
X24350000Y18999998D03*
%TO.P,U1,5,DVDD*%
%TO.N,+3V3*%
X24350000Y19499999D03*
%TO.P,U1,4,DLDO2*%
%TO.N,/LDO2*%
X24350000Y19999999D03*
%TO.P,U1,3,DGND*%
%TO.N,GND*%
X24350000Y20500000D03*
%TO.P,U1,2,SDIO*%
%TO.N,/MOSI*%
X24350000Y20999999D03*
%TO.P,U1,1,SCLK*%
%TO.N,/SCK*%
X24350000Y21499998D03*
%TD*%
D13*
%TO.P,TP9,1,1*%
%TO.N,/IOUTP*%
X34500000Y29000000D03*
%TD*%
%TO.P,TP4,1,1*%
%TO.N,+5V*%
X21000000Y11000000D03*
%TD*%
D19*
%TO.P,R12,2*%
%TO.N,/IOUTN*%
X26000000Y29850000D03*
%TO.P,R12,1*%
%TO.N,Net-(JP2-B)*%
X26000000Y31500000D03*
%TD*%
D20*
%TO.P,C28,2*%
%TO.N,+5V*%
X40450000Y36500000D03*
%TO.P,C28,1*%
%TO.N,GND*%
X38550000Y36500000D03*
%TD*%
D12*
%TO.P,C27,2*%
%TO.N,+5V*%
X40500000Y34050000D03*
%TO.P,C27,1*%
%TO.N,GND*%
X38950000Y34050000D03*
%TD*%
D19*
%TO.P,R15,2*%
%TO.N,/+IN*%
X30500000Y33700000D03*
%TO.P,R15,1*%
%TO.N,GND*%
X30500000Y35350000D03*
%TD*%
D13*
%TO.P,TP7,1,1*%
%TO.N,/RSTn*%
X10500000Y20500000D03*
%TD*%
D14*
%TO.P,J4,2,Pin_2*%
%TO.N,/AMPL_VIN+*%
X41000000Y3000000D03*
D15*
%TO.P,J4,1,Pin_1*%
%TO.N,GND*%
X41000000Y5540000D03*
%TD*%
D21*
%TO.P,RV1,3,3*%
%TO.N,/AMPL_VIN-*%
X66000000Y25500000D03*
D22*
%TO.P,RV1,2,2*%
X65000000Y28750000D03*
D21*
%TO.P,RV1,1,1*%
%TO.N,Net-(R22-Pad2)*%
X64000000Y25500000D03*
%TD*%
D23*
%TO.P,J2,2,Ext*%
%TO.N,GND*%
X50540000Y3000000D03*
X50540000Y8080000D03*
X45460000Y3000000D03*
X45460000Y8080000D03*
D24*
%TO.P,J2,1,In*%
%TO.N,/AMPL_VIN+*%
X48000000Y5540000D03*
%TD*%
D25*
%TO.P,R6,2*%
%TO.N,/REFIO*%
X32850000Y17500000D03*
%TO.P,R6,1*%
%TO.N,Net-(R6-Pad1)*%
X34500000Y17500000D03*
%TD*%
D26*
%TO.P,C1,2*%
%TO.N,Net-(U1-CLKP)*%
X33000000Y21000000D03*
%TO.P,C1,1*%
%TO.N,Net-(X1-OUT+)*%
X34550000Y21000000D03*
%TD*%
%TO.P,C9,2*%
%TO.N,/CLKLDO*%
X33000000Y23000000D03*
%TO.P,C9,1*%
%TO.N,GND*%
X34550000Y23000000D03*
%TD*%
D27*
%TO.P,C32,2*%
%TO.N,Net-(C32-Pad2)*%
X48000000Y32450000D03*
%TO.P,C32,1*%
%TO.N,/AMPL_VIN+*%
X48000000Y30550000D03*
%TD*%
D28*
%TO.P,C26,2*%
%TO.N,/-IN*%
X26000000Y33800000D03*
%TO.P,C26,1*%
%TO.N,/FB*%
X26000000Y35350000D03*
%TD*%
D14*
%TO.P,J1,20,Pin_20*%
%TO.N,+3V3*%
X6290000Y4500000D03*
%TO.P,J1,19,Pin_19*%
%TO.N,GND*%
X3750000Y4500000D03*
%TO.P,J1,18,Pin_18*%
%TO.N,VCC*%
X6290000Y7040000D03*
%TO.P,J1,17,Pin_17*%
%TO.N,+5V*%
X3750000Y7040000D03*
%TO.P,J1,16,Pin_16*%
%TO.N,unconnected-(J1-Pin_16-Pad16)*%
X6290000Y9580000D03*
%TO.P,J1,15,Pin_15*%
%TO.N,unconnected-(J1-Pin_15-Pad15)*%
X3750000Y9580000D03*
%TO.P,J1,14,Pin_14*%
%TO.N,unconnected-(J1-Pin_14-Pad14)*%
X6290000Y12120000D03*
%TO.P,J1,13,Pin_13*%
%TO.N,unconnected-(J1-Pin_13-Pad13)*%
X3750000Y12120000D03*
%TO.P,J1,12,Pin_12*%
%TO.N,/MOSI*%
X6290000Y14660000D03*
%TO.P,J1,11,Pin_11*%
%TO.N,unconnected-(J1-Pin_11-Pad11)*%
X3750000Y14660000D03*
%TO.P,J1,10,Pin_10*%
%TO.N,/SCK*%
X6290000Y17200000D03*
%TO.P,J1,9,Pin_9*%
%TO.N,/TRIG*%
X3750000Y17200000D03*
%TO.P,J1,8,Pin_8*%
%TO.N,/CSn*%
X6290000Y19740000D03*
%TO.P,J1,7,Pin_7*%
%TO.N,/RSTn*%
X3750000Y19740000D03*
%TO.P,J1,6,Pin_6*%
%TO.N,/MISO*%
X6290000Y22280000D03*
%TO.P,J1,5,Pin_5*%
%TO.N,unconnected-(J1-Pin_5-Pad5)*%
X3750000Y22280000D03*
%TO.P,J1,4,Pin_4*%
%TO.N,unconnected-(J1-Pin_4-Pad4)*%
X6290000Y24820000D03*
%TO.P,J1,3,Pin_3*%
%TO.N,unconnected-(J1-Pin_3-Pad3)*%
X3750000Y24820000D03*
%TO.P,J1,2,Pin_2*%
%TO.N,unconnected-(J1-Pin_2-Pad2)*%
X6290000Y27360000D03*
D15*
%TO.P,J1,1,Pin_1*%
%TO.N,unconnected-(J1-Pin_1-Pad1)*%
X3750000Y27360000D03*
%TD*%
D29*
%TO.P,R20,2*%
%TO.N,Net-(J6-Pin_3)*%
X71420000Y19425000D03*
%TO.P,R20,1*%
%TO.N,/OUT*%
X71420000Y13500000D03*
%TD*%
D12*
%TO.P,C6,2*%
%TO.N,/LDO2*%
X20125000Y24500000D03*
%TO.P,C6,1*%
%TO.N,GND*%
X18575000Y24500000D03*
%TD*%
D13*
%TO.P,TP11,1,1*%
%TO.N,/INTERM*%
X43500000Y35250000D03*
%TD*%
D30*
%TO.P,R2,2*%
%TO.N,/TRIG*%
X12500000Y16650000D03*
%TO.P,R2,1*%
%TO.N,+3V3*%
X12500000Y15000000D03*
%TD*%
D25*
%TO.P,R17,2*%
%TO.N,/INTERM*%
X42850000Y30397500D03*
%TO.P,R17,1*%
%TO.N,GND*%
X44500000Y30397500D03*
%TD*%
D12*
%TO.P,C13,2*%
%TO.N,+3V3*%
X20000000Y22000000D03*
%TO.P,C13,1*%
%TO.N,GND*%
X18450000Y22000000D03*
%TD*%
D31*
%TO.P,R18,2*%
%TO.N,Net-(C32-Pad2)*%
X44500000Y32397500D03*
%TO.P,R18,1*%
%TO.N,/INTERM*%
X42850000Y32397500D03*
%TD*%
D13*
%TO.P,TP10,1,1*%
%TO.N,/IOUTN*%
X21500000Y32000000D03*
%TD*%
D26*
%TO.P,C2,2*%
%TO.N,Net-(U1-CLKN)*%
X33000000Y19500000D03*
%TO.P,C2,1*%
%TO.N,Net-(X1-OUT-)*%
X34550000Y19500000D03*
%TD*%
D12*
%TO.P,C7,2*%
%TO.N,/LDO2*%
X20125000Y26500000D03*
%TO.P,C7,1*%
%TO.N,GND*%
X18575000Y26500000D03*
%TD*%
D32*
%TO.P,X1,6,VDD*%
%TO.N,+3V3*%
X39500000Y18750000D03*
D33*
%TO.P,X1,5,OUT-*%
%TO.N,Net-(X1-OUT-)*%
X39500000Y19875000D03*
D32*
%TO.P,X1,4,OUT+*%
%TO.N,Net-(X1-OUT+)*%
X39500000Y21000000D03*
%TO.P,X1,3,GND*%
%TO.N,GND*%
X41100000Y21000000D03*
D33*
%TO.P,X1,2,NC*%
%TO.N,unconnected-(X1-NC-Pad2)*%
X41100000Y19875000D03*
D32*
%TO.P,X1,1,OE*%
%TO.N,+3V3*%
X41100000Y18750000D03*
%TD*%
D13*
%TO.P,TP3,1,1*%
%TO.N,+3V3*%
X12000000Y8000000D03*
%TD*%
D23*
%TO.P,J3,2,Ext*%
%TO.N,GND*%
X65040000Y3000000D03*
X65040000Y8080000D03*
X59960000Y3000000D03*
X59960000Y8080000D03*
D24*
%TO.P,J3,1,In*%
%TO.N,/OUT*%
X62500000Y5540000D03*
%TD*%
D34*
%TO.P,U4,9,POWER_PAD*%
%TO.N,GND*%
X57500000Y23700000D03*
X57500000Y25000000D03*
X57500000Y26300000D03*
X57500000Y27600000D03*
D35*
X56850000Y25650000D03*
D34*
X56200000Y23700000D03*
X56200000Y25000000D03*
X56200000Y26300000D03*
X56200000Y27600000D03*
D36*
%TO.P,U4,8*%
%TO.N,N/C*%
X59550000Y27555000D03*
%TO.P,U4,7,VS+*%
%TO.N,+5V*%
X59550000Y26285000D03*
%TO.P,U4,6,VOUT*%
%TO.N,/AMPL_VOUT*%
X59550000Y25015000D03*
%TO.P,U4,5*%
%TO.N,N/C*%
X59550000Y23745000D03*
%TO.P,U4,4,VS-*%
%TO.N,-5V*%
X54150000Y23745000D03*
%TO.P,U4,3,VIN+*%
%TO.N,/AMPL_VIN+*%
X54150000Y25015000D03*
%TO.P,U4,2,VIN-*%
%TO.N,/AMPL_VIN-*%
X54150000Y26285000D03*
%TO.P,U4,1*%
%TO.N,N/C*%
X54150000Y27555000D03*
%TD*%
D30*
%TO.P,R5,2*%
%TO.N,GND*%
X29000000Y26500000D03*
%TO.P,R5,1*%
%TO.N,Net-(JP1-B)*%
X29000000Y24850000D03*
%TD*%
D26*
%TO.P,C23,2*%
%TO.N,-5V*%
X53800000Y21650000D03*
%TO.P,C23,1*%
%TO.N,GND*%
X55350000Y21650000D03*
%TD*%
D13*
%TO.P,TP12,1,1*%
%TO.N,/AMPL_VOUT*%
X62000000Y35750000D03*
%TD*%
D37*
%TO.P,U3,9,EP*%
%TO.N,GND*%
X39485000Y30962500D03*
D38*
%TO.P,U3,8,+V_{S}*%
%TO.N,+5V*%
X40772500Y31712500D03*
%TO.P,U3,7*%
%TO.N,/INTERM*%
X40772500Y31212500D03*
%TO.P,U3,6*%
%TO.N,unconnected-(U3-Pad6)*%
X40772500Y30712500D03*
%TO.P,U3,5,-V_{S}*%
%TO.N,-5V*%
X40772500Y30212500D03*
%TO.P,U3,4,+*%
%TO.N,/+IN*%
X38197500Y30212500D03*
%TO.P,U3,3,-*%
%TO.N,/-IN*%
X38197500Y30712500D03*
%TO.P,U3,2,FB*%
%TO.N,/FB*%
X38197500Y31212500D03*
%TO.P,U3,1,~{PD}*%
%TO.N,+5V*%
X38197500Y31712500D03*
%TD*%
D30*
%TO.P,R11,2*%
%TO.N,Net-(JP2-B)*%
X28500000Y31500000D03*
%TO.P,R11,1*%
%TO.N,/IOUTP*%
X28500000Y29850000D03*
%TD*%
D20*
%TO.P,C31,2*%
%TO.N,-5V*%
X40500000Y25500000D03*
%TO.P,C31,1*%
%TO.N,GND*%
X38600000Y25500000D03*
%TD*%
D26*
%TO.P,C17,2*%
%TO.N,+3V3*%
X33000000Y27000000D03*
%TO.P,C17,1*%
%TO.N,GND*%
X34550000Y27000000D03*
%TD*%
D27*
%TO.P,C19,2*%
%TO.N,Net-(U2-CAP-)*%
X20000000Y5400000D03*
%TO.P,C19,1*%
%TO.N,Net-(U2-CAP+)*%
X20000000Y3500000D03*
%TD*%
D19*
%TO.P,R14,2*%
%TO.N,/IOUTN*%
X24000000Y29850000D03*
%TO.P,R14,1*%
%TO.N,/-IN*%
X24000000Y31500000D03*
%TD*%
D39*
%TO.P,D2,2,A*%
%TO.N,+3V3*%
X29500000Y2000000D03*
%TO.P,D2,1,K*%
%TO.N,Net-(D2-K)*%
X29500000Y3575000D03*
%TD*%
D19*
%TO.P,R13,2*%
%TO.N,/IOUTP*%
X30500000Y29850000D03*
%TO.P,R13,1*%
%TO.N,/+IN*%
X30500000Y31500000D03*
%TD*%
D13*
%TO.P,TP6,1,1*%
%TO.N,/TRIG*%
X12500000Y22500000D03*
%TD*%
D26*
%TO.P,C24,2*%
%TO.N,-5V*%
X53800000Y19650000D03*
%TO.P,C24,1*%
%TO.N,GND*%
X55350000Y19650000D03*
%TD*%
D13*
%TO.P,TP2,1,1*%
%TO.N,GND*%
X6500000Y31500000D03*
%TD*%
D19*
%TO.P,R21,2*%
%TO.N,Net-(JP3-B)*%
X37500000Y5540000D03*
%TO.P,R21,1*%
%TO.N,GND*%
X37500000Y7190000D03*
%TD*%
%TO.P,R8,2*%
%TO.N,Net-(D1-A)*%
X27000000Y5500000D03*
%TO.P,R8,1*%
%TO.N,+3V3*%
X27000000Y7150000D03*
%TD*%
D13*
%TO.P,TP1,1,1*%
%TO.N,Net-(R6-Pad1)*%
X37500000Y15500000D03*
%TD*%
D12*
%TO.P,C12,2*%
%TO.N,+3V3*%
X20000000Y20000000D03*
%TO.P,C12,1*%
%TO.N,GND*%
X18450000Y20000000D03*
%TD*%
D40*
%TO.P,JP3,2,B*%
%TO.N,Net-(JP3-B)*%
X37500000Y3490000D03*
D41*
%TO.P,JP3,1,A*%
%TO.N,/AMPL_VIN+*%
X37500000Y2040000D03*
%TD*%
D25*
%TO.P,R19,2*%
%TO.N,GND*%
X64350000Y32000000D03*
%TO.P,R19,1*%
%TO.N,/AMPL_VIN-*%
X66000000Y32000000D03*
%TD*%
D12*
%TO.P,C22,2*%
%TO.N,+5V*%
X59850000Y31650000D03*
%TO.P,C22,1*%
%TO.N,GND*%
X58300000Y31650000D03*
%TD*%
D19*
%TO.P,R10,2*%
%TO.N,Net-(D3-A)*%
X32000000Y5500000D03*
%TO.P,R10,1*%
%TO.N,/TRIG*%
X32000000Y7150000D03*
%TD*%
D30*
%TO.P,R1,2*%
%TO.N,/RSTn*%
X10500000Y16650000D03*
%TO.P,R1,1*%
%TO.N,+3V3*%
X10500000Y15000000D03*
%TD*%
%TO.P,R7,2*%
%TO.N,GND*%
X31000000Y26500000D03*
%TO.P,R7,1*%
%TO.N,Net-(JP1-A)*%
X31000000Y24850000D03*
%TD*%
D26*
%TO.P,C8,2*%
%TO.N,/REFIO*%
X32950000Y15500000D03*
%TO.P,C8,1*%
%TO.N,GND*%
X34500000Y15500000D03*
%TD*%
D30*
%TO.P,R3,2*%
%TO.N,/CSn*%
X14500000Y16650000D03*
%TO.P,R3,1*%
%TO.N,+3V3*%
X14500000Y15000000D03*
%TD*%
D28*
%TO.P,C18,2*%
%TO.N,+3V3*%
X25500000Y25000000D03*
%TO.P,C18,1*%
%TO.N,GND*%
X25500000Y26550000D03*
%TD*%
D12*
%TO.P,C16,2*%
%TO.N,+3V3*%
X20050000Y28500000D03*
%TO.P,C16,1*%
%TO.N,GND*%
X18500000Y28500000D03*
%TD*%
D11*
%TO.P,C14,2*%
%TO.N,+3V3*%
X27500000Y14500000D03*
%TO.P,C14,1*%
%TO.N,GND*%
X27500000Y12950000D03*
%TD*%
D14*
%TO.P,J5,2,Pin_2*%
%TO.N,/OUT*%
X55500000Y3000000D03*
D15*
%TO.P,J5,1,Pin_1*%
%TO.N,GND*%
X55500000Y5540000D03*
%TD*%
D12*
%TO.P,C21,2*%
%TO.N,+5V*%
X59850000Y29650000D03*
%TO.P,C21,1*%
%TO.N,GND*%
X58300000Y29650000D03*
%TD*%
D26*
%TO.P,C10,2*%
%TO.N,/CLKLDO*%
X33000000Y25000000D03*
%TO.P,C10,1*%
%TO.N,GND*%
X34550000Y25000000D03*
%TD*%
D28*
%TO.P,C25,2*%
%TO.N,/+IN*%
X28500000Y33800000D03*
%TO.P,C25,1*%
%TO.N,GND*%
X28500000Y35350000D03*
%TD*%
D20*
%TO.P,C20,2*%
%TO.N,-5V*%
X17400000Y8000000D03*
%TO.P,C20,1*%
%TO.N,GND*%
X15500000Y8000000D03*
%TD*%
D19*
%TO.P,R4,2*%
%TO.N,Net-(X1-OUT-)*%
X37000000Y19500000D03*
%TO.P,R4,1*%
%TO.N,Net-(X1-OUT+)*%
X37000000Y21150000D03*
%TD*%
D12*
%TO.P,C4,2*%
%TO.N,/LDO1*%
X20050000Y16000000D03*
%TO.P,C4,1*%
%TO.N,GND*%
X18500000Y16000000D03*
%TD*%
D29*
%TO.P,R23,2*%
%TO.N,Net-(J6-Pin_1)*%
X65957500Y19425000D03*
%TO.P,R23,1*%
%TO.N,/OUT*%
X65957500Y13500000D03*
%TD*%
D28*
%TO.P,C3,2*%
%TO.N,+3V3*%
X43050000Y19450000D03*
%TO.P,C3,1*%
%TO.N,GND*%
X43050000Y21000000D03*
%TD*%
D30*
%TO.P,R9,2*%
%TO.N,/RSTn*%
X29500000Y7150000D03*
%TO.P,R9,1*%
%TO.N,Net-(D2-K)*%
X29500000Y5500000D03*
%TD*%
D12*
%TO.P,C5,2*%
%TO.N,/LDO1*%
X20050000Y18000000D03*
%TO.P,C5,1*%
%TO.N,GND*%
X18500000Y18000000D03*
%TD*%
D25*
%TO.P,R22,2*%
%TO.N,Net-(R22-Pad2)*%
X64350000Y23500000D03*
%TO.P,R22,1*%
%TO.N,/AMPL_VOUT*%
X66000000Y23500000D03*
%TD*%
D28*
%TO.P,C11,2*%
%TO.N,+3V3*%
X23500000Y25000000D03*
%TO.P,C11,1*%
%TO.N,GND*%
X23500000Y26550000D03*
%TD*%
D13*
%TO.P,TP5,1,1*%
%TO.N,VCC*%
X10000000Y10000000D03*
%TD*%
D19*
%TO.P,R16,2*%
%TO.N,/-IN*%
X24000000Y33700000D03*
%TO.P,R16,1*%
%TO.N,/FB*%
X24000000Y35350000D03*
%TD*%
D10*
%TO.P,D1,2,A*%
%TO.N,Net-(D1-A)*%
X27000000Y3575000D03*
%TO.P,D1,1,K*%
%TO.N,GND*%
X27000000Y2000000D03*
%TD*%
D42*
%TO.P,U2,6,CAP+*%
%TO.N,Net-(U2-CAP+)*%
X17400002Y3000000D03*
%TO.P,U2,5,NC*%
%TO.N,unconnected-(U2-NC-Pad5)*%
X16450001Y3000000D03*
%TO.P,U2,4,GND*%
%TO.N,GND*%
X15500000Y3000000D03*
%TO.P,U2,3,CAP-*%
%TO.N,Net-(U2-CAP-)*%
X15500000Y5438400D03*
%TO.P,U2,2,IN*%
%TO.N,+5V*%
X16450001Y5438400D03*
%TO.P,U2,1,OUT*%
%TO.N,-5V*%
X17400002Y5438400D03*
%TD*%
D43*
%TO.N,GND*%
X57000000Y21000000D03*
X38000000Y18000000D03*
D44*
X18000000Y14500000D03*
D43*
X17500000Y29500000D03*
X57000000Y29000000D03*
X56000000Y29000000D03*
X55000000Y30000000D03*
X36000000Y28000000D03*
X58000000Y22000000D03*
X45750000Y35000000D03*
X57000000Y22000000D03*
X58000000Y21000000D03*
X46000000Y29500000D03*
X56000000Y30000000D03*
X37000000Y36500000D03*
X55000000Y29000000D03*
X57000000Y30000000D03*
X22250000Y14250000D03*
X59000000Y21000000D03*
X11500000Y2000000D03*
X59000000Y22000000D03*
X39485000Y29000000D03*
X50000000Y30250000D03*
X32000000Y34000000D03*
D45*
X16500000Y9500000D03*
D43*
X14000000Y12500000D03*
X25500000Y28000000D03*
X14500000Y23000000D03*
X29000000Y28000000D03*
X35500000Y14500000D03*
X31500000Y18500000D03*
D45*
%TO.N,+5V*%
X61500000Y31500000D03*
X51500000Y21500000D03*
D43*
X52000000Y31500000D03*
%TO.N,/TRIG*%
X11773000Y15923000D03*
X24250000Y23750000D03*
X17000000Y25127000D03*
X30000000Y8500000D03*
%TO.N,+3V3*%
X21000000Y27500000D03*
X36500000Y26000000D03*
X16500000Y26000000D03*
X24000000Y14000000D03*
X24000000Y7500000D03*
X21500000Y20000000D03*
X44500000Y19500000D03*
%TO.N,/CSn*%
X14000000Y19500000D03*
%TO.N,/MOSI*%
X16000000Y17500000D03*
%TO.N,/MISO*%
X22000000Y17500000D03*
%TO.N,/SCK*%
X15500000Y18500000D03*
%TO.N,/RSTn*%
X24000000Y15500000D03*
X25500000Y8500000D03*
X11500000Y21000000D03*
%TO.N,/LDO2*%
X22000000Y24500000D03*
X22000000Y21000000D03*
%TO.N,Net-(JP1-B)*%
X29500000Y23500000D03*
%TO.N,Net-(JP1-A)*%
X31000000Y23500000D03*
%TO.N,/-IN*%
X31500000Y32500000D03*
X27500000Y33000000D03*
%TO.N,Net-(JP2-B)*%
X26000000Y32500000D03*
%TO.N,/AMPL_VIN+*%
X50500000Y25000000D03*
%TD*%
D46*
%TO.N,GND*%
X38550000Y34450000D02*
X38950000Y34050000D01*
X29000000Y28000000D02*
X29000000Y26500000D01*
D47*
X57000000Y30000000D02*
X56000000Y30000000D01*
D46*
X28051100Y20999999D02*
X28051100Y22201099D01*
X13000000Y3725000D02*
X13000000Y3500000D01*
X26801100Y19749999D02*
X28051100Y20999999D01*
X37500000Y7190000D02*
X36190000Y7190000D01*
X50540000Y3000000D02*
X53000000Y5460000D01*
X11500000Y2000000D02*
X11750000Y2250000D01*
X26801100Y19749999D02*
X28051100Y18499999D01*
X38950000Y27550000D02*
X38950000Y26500000D01*
X26801100Y19749999D02*
X27551101Y18999998D01*
X50540000Y3000000D02*
X45460000Y3000000D01*
X34500000Y5500000D02*
X34500000Y3000000D01*
X29252200Y18999998D02*
X29939601Y18999998D01*
D47*
X55000000Y29000000D02*
X55400000Y29000000D01*
D46*
X34500000Y3000000D02*
X33500000Y2000000D01*
X38600000Y25400000D02*
X41100000Y22900000D01*
X18500000Y16000000D02*
X18500000Y18000000D01*
D47*
X57000000Y30000000D02*
X57000000Y29000000D01*
X58000000Y22000000D02*
X58000000Y21000000D01*
D46*
X57637717Y25650000D02*
X56850000Y25650000D01*
X18500000Y15000000D02*
X18000000Y14500000D01*
D47*
X56200000Y28200000D02*
X57000000Y29000000D01*
D46*
X18500000Y16000000D02*
X18500000Y15000000D01*
X30650000Y35350000D02*
X32000000Y34000000D01*
D47*
X55350000Y22850000D02*
X56200000Y23700000D01*
D46*
X38550000Y36500000D02*
X38550000Y34450000D01*
D47*
X57500000Y27600000D02*
X57500000Y28000000D01*
D46*
X50540000Y8080000D02*
X50540000Y3000000D01*
X31235500Y1235500D02*
X27764500Y1235500D01*
X29000000Y14000000D02*
X27950000Y12950000D01*
X13000000Y3500000D02*
X11500000Y2000000D01*
D47*
X56200000Y23700000D02*
X55975000Y23475000D01*
D46*
X45460000Y8080000D02*
X50540000Y8080000D01*
D47*
X59000000Y22000000D02*
X59000000Y21000000D01*
D46*
X29939601Y18999998D02*
X30439599Y18500000D01*
X55350000Y21650000D02*
X55350000Y19650000D01*
D47*
X57500000Y28850000D02*
X57500000Y25000000D01*
X55350000Y21650000D02*
X55350000Y22850000D01*
D46*
X30500000Y35350000D02*
X30650000Y35350000D01*
X28051100Y22201099D02*
X28051100Y25551100D01*
D47*
X57500000Y28000000D02*
X58300000Y28800000D01*
D46*
X18450000Y20000000D02*
X18450000Y18050000D01*
X31000000Y26500000D02*
X32302000Y27802000D01*
D47*
X57500000Y23700000D02*
X57500000Y22500000D01*
X57500000Y23500000D02*
X59000000Y22000000D01*
X58300000Y29650000D02*
X57350000Y29650000D01*
D46*
X31000000Y26500000D02*
X29000000Y26500000D01*
X41000000Y5540000D02*
X41000000Y8080000D01*
D47*
X56200000Y27800000D02*
X55000000Y29000000D01*
D46*
X34500000Y15500000D02*
X35500000Y14500000D01*
D47*
X56850000Y23150000D02*
X56850000Y25650000D01*
D46*
X56200000Y26300000D02*
X57500000Y26300000D01*
X56200000Y25000000D02*
X57500000Y25000000D01*
X39485000Y29000000D02*
X39485000Y28085000D01*
X28500000Y35350000D02*
X30500000Y35350000D01*
X28051100Y15948900D02*
X29000000Y15000000D01*
D47*
X56000000Y23900000D02*
X56200000Y23700000D01*
X57500000Y23700000D02*
X57500000Y23500000D01*
D46*
X28051100Y18499999D02*
X28051100Y17298899D01*
D47*
X59000000Y21000000D02*
X58000000Y21000000D01*
D46*
X27950000Y12950000D02*
X27500000Y12950000D01*
X35000000Y27000000D02*
X36000000Y28000000D01*
X32000000Y2000000D02*
X31235500Y1235500D01*
D47*
X57500000Y22500000D02*
X57000000Y22000000D01*
D46*
X38600000Y25500000D02*
X38600000Y25400000D01*
X58300000Y31650000D02*
X58300000Y29650000D01*
X28051100Y25551100D02*
X29000000Y26500000D01*
X36190000Y7190000D02*
X34500000Y5500000D01*
X6500000Y31500000D02*
X13500000Y31500000D01*
X29000000Y15000000D02*
X29000000Y14000000D01*
X38950000Y26500000D02*
X38950000Y25850000D01*
X18450000Y18050000D02*
X18500000Y18000000D01*
X18575000Y28425000D02*
X18500000Y28500000D01*
X33500000Y2000000D02*
X32000000Y2000000D01*
D47*
X57000000Y24200000D02*
X57500000Y23700000D01*
X55000000Y30000000D02*
X56000000Y30000000D01*
D46*
X32302000Y27802000D02*
X33748000Y27802000D01*
D47*
X55350000Y21650000D02*
X56650000Y21650000D01*
D46*
X41100000Y21000000D02*
X43050000Y21000000D01*
X26051099Y20500000D02*
X24350000Y20500000D01*
X44500000Y30397500D02*
X45102500Y30397500D01*
X41100000Y22900000D02*
X41100000Y21000000D01*
D47*
X57500000Y22500000D02*
X58000000Y22000000D01*
D46*
X56200000Y27600000D02*
X56200000Y23700000D01*
X56200000Y27600000D02*
X57500000Y27600000D01*
D47*
X55000000Y30000000D02*
X55000000Y29000000D01*
X55350000Y21650000D02*
X55975000Y22275000D01*
D46*
X13000000Y3725000D02*
X14775000Y3725000D01*
X53000000Y5500000D02*
X53040000Y5540000D01*
X38600000Y25500000D02*
X38100000Y25000000D01*
X15500000Y29500000D02*
X17500000Y29500000D01*
D47*
X56650000Y21650000D02*
X57000000Y22000000D01*
D46*
X18575000Y26500000D02*
X18575000Y28425000D01*
D47*
X58300000Y28800000D02*
X58300000Y29650000D01*
D46*
X57500000Y27600000D02*
X57500000Y23700000D01*
D47*
X56200000Y27600000D02*
X56200000Y27800000D01*
D46*
X45460000Y8080000D02*
X41000000Y8080000D01*
X65040000Y3000000D02*
X65040000Y8080000D01*
X39485000Y30962500D02*
X39485000Y29000000D01*
D47*
X55975000Y23475000D02*
X55975000Y22275000D01*
D46*
X59960000Y3000000D02*
X65040000Y3000000D01*
X34550000Y25000000D02*
X34550000Y23000000D01*
D47*
X58000000Y21000000D02*
X57000000Y21000000D01*
D46*
X45102500Y30397500D02*
X46000000Y29500000D01*
X45460000Y3000000D02*
X45460000Y8080000D01*
X18450000Y22000000D02*
X18450000Y20000000D01*
X23500000Y26550000D02*
X25500000Y26550000D01*
D47*
X57000000Y29000000D02*
X57000000Y24200000D01*
D46*
X14775000Y3725000D02*
X15500000Y3000000D01*
X41000000Y8080000D02*
X38390000Y8080000D01*
D47*
X15500000Y8000000D02*
X15500000Y8500000D01*
D46*
X13500000Y31500000D02*
X15500000Y29500000D01*
X38950000Y25850000D02*
X38600000Y25500000D01*
X39485000Y28085000D02*
X38950000Y27550000D01*
X27764500Y1235500D02*
X27000000Y2000000D01*
X53000000Y5460000D02*
X53000000Y5500000D01*
X30439599Y18500000D02*
X31500000Y18500000D01*
X38550000Y36500000D02*
X37000000Y36500000D01*
X33748000Y27802000D02*
X34550000Y27000000D01*
X55500000Y5540000D02*
X57420000Y5540000D01*
D47*
X56000000Y29000000D02*
X56000000Y30000000D01*
D46*
X17500000Y29500000D02*
X18500000Y28500000D01*
X57420000Y5540000D02*
X59960000Y8080000D01*
D47*
X56200000Y27600000D02*
X56200000Y28200000D01*
X57000000Y21000000D02*
X57000000Y22000000D01*
D46*
X63898000Y32452000D02*
X59102000Y32452000D01*
D47*
X58300000Y29650000D02*
X57500000Y28850000D01*
D46*
X26801100Y19749999D02*
X26051099Y20500000D01*
X53040000Y5540000D02*
X55500000Y5540000D01*
X38390000Y8080000D02*
X37500000Y7190000D01*
D47*
X57350000Y29650000D02*
X57000000Y30000000D01*
D46*
X28051100Y17298899D02*
X28051100Y15948900D01*
X27500000Y12950000D02*
X25500000Y12950000D01*
X56200000Y23700000D02*
X57500000Y23700000D01*
X38100000Y25000000D02*
X34550000Y25000000D01*
X18575000Y26500000D02*
X18575000Y24500000D01*
X64350000Y32000000D02*
X63898000Y32452000D01*
D47*
X57000000Y29000000D02*
X56000000Y29000000D01*
X55975000Y22275000D02*
X56850000Y23150000D01*
D46*
X27551101Y18999998D02*
X29252200Y18999998D01*
D47*
X55400000Y29000000D02*
X56200000Y28200000D01*
D46*
X59102000Y32452000D02*
X58300000Y31650000D01*
X34550000Y27000000D02*
X35000000Y27000000D01*
X25500000Y26550000D02*
X25500000Y28000000D01*
D47*
X56000000Y29000000D02*
X56000000Y23900000D01*
X15500000Y8500000D02*
X16500000Y9500000D01*
%TO.N,+5V*%
X60325000Y26285000D02*
X59550000Y26285000D01*
D46*
X39000000Y32500000D02*
X40196500Y32500000D01*
D47*
X61500000Y31500000D02*
X60000000Y31500000D01*
D48*
X40450000Y36500000D02*
X40450000Y34100000D01*
D47*
X21000000Y11000000D02*
X41000000Y11000000D01*
X59850000Y29650000D02*
X60934000Y28566000D01*
X15500000Y11000000D02*
X14252400Y9752400D01*
X21000000Y11000000D02*
X15500000Y11000000D01*
X14252400Y9752400D02*
X14252400Y6527400D01*
X59850000Y31650000D02*
X59850000Y29650000D01*
D46*
X40500000Y34050000D02*
X40500000Y32803500D01*
D47*
X41000000Y11000000D02*
X51500000Y21500000D01*
X13000000Y5275000D02*
X14252400Y6527400D01*
X1500000Y6500000D02*
X1500000Y3000000D01*
D48*
X45546000Y37954000D02*
X52000000Y31500000D01*
D47*
X3750000Y7040000D02*
X2040000Y7040000D01*
X10775000Y5275000D02*
X13000000Y5275000D01*
D48*
X16233400Y6527400D02*
X14252400Y6527400D01*
D46*
X40772500Y31924000D02*
X40772500Y31714500D01*
X40196500Y32500000D02*
X40772500Y31924000D01*
X38197500Y31924000D02*
X38197500Y31714500D01*
D48*
X16450001Y6310799D02*
X16233400Y6527400D01*
D47*
X60934000Y26894000D02*
X60325000Y26285000D01*
D48*
X16450001Y5438400D02*
X16450001Y6310799D01*
D46*
X40774500Y31714500D02*
X40772500Y31714500D01*
D48*
X40450000Y36500000D02*
X41904000Y37954000D01*
X40450000Y34100000D02*
X40500000Y34050000D01*
D47*
X2000000Y2500000D02*
X8000000Y2500000D01*
X1500000Y3000000D02*
X2000000Y2500000D01*
D46*
X40500000Y32803500D02*
X40196500Y32500000D01*
D47*
X60000000Y31500000D02*
X59850000Y31650000D01*
D46*
X39000000Y32500000D02*
X38773500Y32500000D01*
D47*
X60934000Y28566000D02*
X60934000Y26894000D01*
D46*
X38773500Y32500000D02*
X38197500Y31924000D01*
D48*
X41904000Y37954000D02*
X45546000Y37954000D01*
D47*
X2040000Y7040000D02*
X1500000Y6500000D01*
X8000000Y2500000D02*
X10775000Y5275000D01*
D46*
%TO.N,/TRIG*%
X32000000Y7150000D02*
X31350000Y7150000D01*
X24250000Y23750000D02*
X25051101Y22948899D01*
X25051101Y22948899D02*
X25051101Y22201099D01*
X12500000Y22500000D02*
X12500000Y16650000D01*
X12500000Y22500000D02*
X15127000Y25127000D01*
X12500000Y16650000D02*
X11773000Y15923000D01*
X15127000Y25127000D02*
X17000000Y25127000D01*
X31350000Y7150000D02*
X30000000Y8500000D01*
%TO.N,+3V3*%
X22500000Y20000000D02*
X23000001Y19499999D01*
X23500000Y25050000D02*
X23500000Y25000000D01*
D48*
X20050000Y28450000D02*
X23500000Y25000000D01*
X9546000Y15954000D02*
X10500000Y15000000D01*
X23750000Y13750000D02*
X24500000Y14500000D01*
X36500000Y26000000D02*
X34000000Y26000000D01*
X35500000Y12000000D02*
X24000000Y12000000D01*
X12500000Y15000000D02*
X14500000Y15000000D01*
X9546000Y20895160D02*
X9546000Y15954000D01*
X14500000Y15000000D02*
X16500000Y13000000D01*
X20000000Y20000000D02*
X20000000Y22000000D01*
D46*
X28698000Y2802000D02*
X29500000Y2000000D01*
X28698000Y5452000D02*
X28698000Y2802000D01*
X33000000Y27000000D02*
X33000000Y26424168D01*
D48*
X12500000Y8500000D02*
X12500000Y15000000D01*
D46*
X26551100Y16051100D02*
X26551100Y17298899D01*
X27000000Y7150000D02*
X28698000Y5452000D01*
X43100000Y19500000D02*
X43050000Y19450000D01*
D48*
X34000000Y26000000D02*
X33000000Y27000000D01*
X23750000Y13750000D02*
X24000000Y14000000D01*
D46*
X27000000Y7150000D02*
X24350000Y7150000D01*
D48*
X24500000Y14500000D02*
X25500000Y14500000D01*
D46*
X23000001Y19499999D02*
X24350000Y19499999D01*
D48*
X20050000Y28500000D02*
X20050000Y28450000D01*
X24000000Y12000000D02*
X23000000Y13000000D01*
D46*
X24350000Y7150000D02*
X24000000Y7500000D01*
X27500000Y14500000D02*
X27500000Y15102200D01*
X25500000Y15000000D02*
X26551100Y16051100D01*
D48*
X39500000Y18750000D02*
X39500000Y16000000D01*
X16500000Y13000000D02*
X23000000Y13000000D01*
X23000000Y13000000D02*
X23750000Y13750000D01*
D46*
X27500000Y15102200D02*
X26551100Y16051100D01*
D48*
X6290000Y4500000D02*
X8500000Y4500000D01*
D46*
X33000000Y26424168D02*
X32000000Y25424168D01*
D48*
X41100000Y18750000D02*
X42350000Y18750000D01*
D46*
X29999999Y20999999D02*
X29252200Y20999999D01*
D48*
X14650840Y26000000D02*
X9546000Y20895160D01*
D46*
X25500000Y14500000D02*
X25500000Y15000000D01*
D48*
X39500000Y16000000D02*
X35500000Y12000000D01*
X44450000Y19450000D02*
X44500000Y19500000D01*
D46*
X32000000Y23000000D02*
X29999999Y20999999D01*
D48*
X16500000Y26000000D02*
X14650840Y26000000D01*
D46*
X21500000Y20000000D02*
X22500000Y20000000D01*
D48*
X23500000Y25000000D02*
X25500000Y25000000D01*
X42350000Y18750000D02*
X43050000Y19450000D01*
D46*
X25500000Y25000000D02*
X26551100Y23948900D01*
D48*
X39500000Y18750000D02*
X41100000Y18750000D01*
X8500000Y4500000D02*
X12000000Y8000000D01*
X20000000Y20000000D02*
X21500000Y20000000D01*
D46*
X32000000Y25424168D02*
X32000000Y23000000D01*
D48*
X12000000Y8000000D02*
X12500000Y8500000D01*
X12500000Y15000000D02*
X10500000Y15000000D01*
X43050000Y19450000D02*
X44450000Y19450000D01*
D46*
X26551100Y23948900D02*
X26551100Y22201099D01*
%TO.N,/CSn*%
X24350000Y18000000D02*
X20228000Y13878000D01*
X14000000Y19500000D02*
X14500000Y19000000D01*
X20228000Y13878000D02*
X17272000Y13878000D01*
X14500000Y19000000D02*
X14500000Y16650000D01*
X17272000Y13878000D02*
X14500000Y16650000D01*
%TO.N,/MOSI*%
X22886713Y20999999D02*
X21084712Y22802000D01*
X17802000Y22802000D02*
X16500000Y21500000D01*
X24350000Y20999999D02*
X22886713Y20999999D01*
X16500000Y18000000D02*
X16000000Y17500000D01*
X21084712Y22802000D02*
X17802000Y22802000D01*
X16500000Y21500000D02*
X16500000Y18000000D01*
%TO.N,/MISO*%
X22999999Y18499999D02*
X22000000Y17500000D01*
X24350000Y18499999D02*
X22999999Y18499999D01*
D49*
%TO.N,VCC*%
X10000000Y9000000D02*
X8040000Y7040000D01*
X6290000Y7040000D02*
X8040000Y7040000D01*
X10000000Y10000000D02*
X10000000Y9000000D01*
D46*
%TO.N,/SCK*%
X21500000Y23500000D02*
X21000000Y23500000D01*
X21000000Y23500000D02*
X17000000Y23500000D01*
X15500000Y22000000D02*
X15500000Y18500000D01*
X24350000Y21499998D02*
X23500002Y21499998D01*
X17000000Y23500000D02*
X15500000Y22000000D01*
X23500002Y21499998D02*
X21500000Y23500000D01*
%TO.N,Net-(U1-CLKP)*%
X29252200Y19999999D02*
X31999999Y19999999D01*
X31999999Y19999999D02*
X33000000Y21000000D01*
%TO.N,Net-(X1-OUT+)*%
X36850000Y21000000D02*
X37000000Y21150000D01*
X37500000Y21000000D02*
X39500000Y21000000D01*
X34550000Y21000000D02*
X36850000Y21000000D01*
X37000000Y21150000D02*
X37350000Y21150000D01*
X37350000Y21150000D02*
X37500000Y21000000D01*
%TO.N,Net-(U1-CLKN)*%
X32999999Y19499999D02*
X33000000Y19500000D01*
X29252200Y19499999D02*
X32999999Y19499999D01*
%TO.N,Net-(X1-OUT-)*%
X37500000Y19500000D02*
X37875000Y19875000D01*
X37000000Y19500000D02*
X37500000Y19500000D01*
X37875000Y19875000D02*
X39500000Y19875000D01*
X34550000Y19500000D02*
X37000000Y19500000D01*
%TO.N,/RSTn*%
X28150000Y8500000D02*
X25500000Y8500000D01*
X10500000Y16650000D02*
X10500000Y20500000D01*
X11500000Y21000000D02*
X11000000Y21000000D01*
X11000000Y21000000D02*
X10500000Y20500000D01*
X29500000Y7150000D02*
X28150000Y8500000D01*
X25051101Y17298899D02*
X25051101Y16551101D01*
X25051101Y16551101D02*
X24000000Y15500000D01*
%TO.N,/LDO1*%
X22500000Y19000000D02*
X23000000Y19000000D01*
X21500000Y18000000D02*
X22500000Y19000000D01*
X20050000Y16000000D02*
X20050000Y18000000D01*
X20050000Y18000000D02*
X21500000Y18000000D01*
X23000000Y19000000D02*
X23000002Y18999998D01*
X23000002Y18999998D02*
X24350000Y18999998D01*
%TO.N,/LDO2*%
X20125000Y24500000D02*
X22000000Y24500000D01*
X22000000Y21000000D02*
X22500000Y20500000D01*
X23070599Y20500000D02*
X23570600Y19999999D01*
X23570600Y19999999D02*
X24350000Y19999999D01*
X22500000Y20500000D02*
X23070599Y20500000D01*
X20125000Y24500000D02*
X20125000Y26500000D01*
%TO.N,/REFIO*%
X32850000Y15600000D02*
X32950000Y15500000D01*
X32850000Y17500000D02*
X32850000Y15600000D01*
X30900783Y17500000D02*
X32850000Y17500000D01*
X29252200Y18499999D02*
X29900784Y18499999D01*
X29900784Y18499999D02*
X30900783Y17500000D01*
%TO.N,Net-(R6-Pad1)*%
X37000000Y17500000D02*
X34500000Y17500000D01*
X37500000Y17000000D02*
X37000000Y17500000D01*
X37500000Y15500000D02*
X37500000Y17000000D01*
%TO.N,/CLKLDO*%
X33000000Y25000000D02*
X33000000Y23000000D01*
X33000000Y23000000D02*
X30500000Y20500000D01*
X30500000Y20500000D02*
X29252200Y20500000D01*
%TO.N,Net-(D1-A)*%
X27000000Y5500000D02*
X27000000Y3575000D01*
%TO.N,Net-(D2-K)*%
X29500000Y5500000D02*
X29500000Y3575000D01*
%TO.N,Net-(JP1-B)*%
X28551099Y22201099D02*
X28551099Y22551099D01*
X29500000Y23500000D02*
X29000000Y24000000D01*
X28551099Y22551099D02*
X29500000Y23500000D01*
X29000000Y24000000D02*
X29000000Y24850000D01*
%TO.N,Net-(JP1-A)*%
X31000000Y24850000D02*
X31000000Y23500000D01*
X31000000Y23000000D02*
X29500000Y21500000D01*
X29500000Y21500000D02*
X29252202Y21500000D01*
X31000000Y23500000D02*
X31000000Y23000000D01*
X29252202Y21500000D02*
X29252200Y21499998D01*
%TO.N,Net-(D3-A)*%
X32000000Y5500000D02*
X32000000Y3575000D01*
D48*
%TO.N,Net-(U2-CAP-)*%
X18949400Y4349400D02*
X15716601Y4349400D01*
X15716601Y4349400D02*
X15500000Y4566001D01*
X15500000Y4566001D02*
X15500000Y5438400D01*
X20000000Y5400000D02*
X18949400Y4349400D01*
%TO.N,Net-(U2-CAP+)*%
X20000000Y3500000D02*
X17900002Y3500000D01*
X17900002Y3500000D02*
X17400002Y3000000D01*
D47*
%TO.N,-5V*%
X53800000Y19650000D02*
X53800000Y21650000D01*
X21000000Y8000000D02*
X22750000Y9750000D01*
X17400000Y8000000D02*
X21000000Y8000000D01*
X54150000Y23745000D02*
X44255000Y23745000D01*
D48*
X17400002Y7999998D02*
X17400000Y8000000D01*
D47*
X43900000Y9750000D02*
X53800000Y19650000D01*
D46*
X41500000Y30000000D02*
X41289500Y30210500D01*
D48*
X40500000Y25500000D02*
X40500000Y27550000D01*
D47*
X53800000Y23395000D02*
X54150000Y23745000D01*
X42500000Y25500000D02*
X40500000Y25500000D01*
D48*
X17400002Y5438400D02*
X17400002Y7999998D01*
D46*
X41500000Y29025000D02*
X41500000Y30000000D01*
D47*
X22750000Y9750000D02*
X43900000Y9750000D01*
X53800000Y21650000D02*
X53800000Y23395000D01*
X44255000Y23745000D02*
X42500000Y25500000D01*
D46*
X41289500Y30210500D02*
X40772500Y30210500D01*
X40500000Y27550000D02*
X40500000Y28025000D01*
X40500000Y28025000D02*
X41500000Y29025000D01*
%TO.N,/+IN*%
X37502000Y30210500D02*
X38197500Y30210500D01*
X37500000Y30212500D02*
X37502000Y30210500D01*
X37500000Y30212500D02*
X31787500Y30212500D01*
X30500000Y33700000D02*
X28600000Y33700000D01*
X31787500Y30212500D02*
X30500000Y31500000D01*
X30500000Y33700000D02*
X30500000Y31500000D01*
X28600000Y33700000D02*
X28500000Y33800000D01*
%TO.N,/-IN*%
X26700000Y33800000D02*
X27500000Y33000000D01*
X26000000Y33800000D02*
X26700000Y33800000D01*
X33287500Y30712500D02*
X38197500Y30712500D01*
X24000000Y31500000D02*
X24000000Y33700000D01*
X24000000Y33700000D02*
X25900000Y33700000D01*
X31500000Y32500000D02*
X33287500Y30712500D01*
D50*
X24000000Y33700000D02*
X24100000Y33800000D01*
D46*
X25900000Y33700000D02*
X26000000Y33800000D01*
%TO.N,/FB*%
X26000000Y35350000D02*
X26777000Y36127000D01*
X24000000Y35350000D02*
X26000000Y35350000D01*
X26777000Y36127000D02*
X31373000Y36127000D01*
X34500000Y31712500D02*
X35000000Y31212500D01*
X35000000Y31212500D02*
X38197500Y31212500D01*
X31373000Y36127000D02*
X34500000Y33000000D01*
X34500000Y33000000D02*
X34500000Y31712500D01*
%TO.N,Net-(JP2-B)*%
X26000000Y31500000D02*
X26000000Y32500000D01*
X28500000Y31500000D02*
X26000000Y31500000D01*
%TO.N,/IOUTP*%
X27551101Y22201099D02*
X27551101Y28901101D01*
X28500000Y29850000D02*
X30500000Y29850000D01*
X30650000Y29850000D02*
X31500000Y29000000D01*
X31500000Y29000000D02*
X34500000Y29000000D01*
X30500000Y29850000D02*
X30650000Y29850000D01*
X27551101Y28901101D02*
X28500000Y29850000D01*
%TO.N,/IOUTN*%
X26000000Y29850000D02*
X24000000Y29850000D01*
X24000000Y29850000D02*
X23650000Y29850000D01*
X23650000Y29850000D02*
X21500000Y32000000D01*
X27051100Y28798900D02*
X26000000Y29850000D01*
X27051100Y22201099D02*
X27051100Y28798900D01*
%TO.N,/INTERM*%
X42850000Y34600000D02*
X43500000Y35250000D01*
X42850000Y32397500D02*
X42850000Y34600000D01*
X42850000Y30397500D02*
X42602500Y30397500D01*
X41787500Y31212500D02*
X40772500Y31212500D01*
X42850000Y32397500D02*
X42850000Y30397500D01*
X42602500Y30397500D02*
X41787500Y31212500D01*
D47*
%TO.N,/OUT*%
X71420000Y13500000D02*
X65957500Y13500000D01*
X62500000Y10042500D02*
X62500000Y5540000D01*
X62500000Y5540000D02*
X60047753Y5540000D01*
X65957500Y13500000D02*
X62500000Y10042500D01*
X57507753Y3000000D02*
X55500000Y3000000D01*
X60047753Y5540000D02*
X57507753Y3000000D01*
D48*
%TO.N,Net-(C32-Pad2)*%
X44552500Y32450000D02*
X44500000Y32397500D01*
X48000000Y32450000D02*
X44552500Y32450000D01*
%TO.N,Net-(JP3-B)*%
X37500000Y5540000D02*
X37500000Y3498903D01*
D47*
%TO.N,Net-(J6-Pin_3)*%
X74000000Y26580000D02*
X71500000Y29080000D01*
X74000000Y22005000D02*
X74000000Y26580000D01*
X71420000Y19425000D02*
X74000000Y22005000D01*
D48*
%TO.N,Net-(R22-Pad2)*%
X64350000Y25150000D02*
X64000000Y25500000D01*
X64350000Y23500000D02*
X64350000Y25150000D01*
D47*
%TO.N,Net-(J6-Pin_1)*%
X66925000Y19425000D02*
X71500000Y24000000D01*
X65957500Y19425000D02*
X66925000Y19425000D01*
D48*
%TO.N,/AMPL_VIN+*%
X50515000Y25015000D02*
X50500000Y25000000D01*
X54150000Y25015000D02*
X50515000Y25015000D01*
X49500000Y29050000D02*
X48000000Y30550000D01*
X40040000Y2040000D02*
X37500000Y2040000D01*
X50500000Y25000000D02*
X49500000Y26000000D01*
X49500000Y26000000D02*
X49500000Y29050000D01*
X41000000Y3000000D02*
X40040000Y2040000D01*
%TO.N,/AMPL_VIN-*%
X52921000Y29921000D02*
X52921000Y27075318D01*
X66000000Y29750000D02*
X65000000Y28750000D01*
X56500000Y33500000D02*
X52921000Y29921000D01*
X66000000Y32000000D02*
X66000000Y29750000D01*
X66000000Y27750000D02*
X65000000Y28750000D01*
X53711318Y26285000D02*
X54150000Y26285000D01*
X66000000Y25500000D02*
X66000000Y27750000D01*
X66000000Y32000000D02*
X64500000Y33500000D01*
X64500000Y33500000D02*
X56500000Y33500000D01*
X52921000Y27075318D02*
X53711318Y26285000D01*
D47*
%TO.N,/AMPL_VOUT*%
X63340000Y22000000D02*
X64750000Y22000000D01*
X66000000Y23250000D02*
X66000000Y23500000D01*
X64750000Y22000000D02*
X66000000Y23250000D01*
X60325000Y25015000D02*
X63340000Y22000000D01*
X59550000Y25015000D02*
X60325000Y25015000D01*
D48*
X70040000Y31460000D02*
X70040000Y26540000D01*
X70040000Y31460000D02*
X65750000Y35750000D01*
D47*
X70040000Y26540000D02*
X71500000Y26540000D01*
D48*
X65750000Y35750000D02*
X62000000Y35750000D01*
D47*
X66000000Y23500000D02*
X67000000Y23500000D01*
X67000000Y23500000D02*
X70040000Y26540000D01*
%TD*%
%TA.AperFunction,Conductor*%
%TO.N,GND*%
G36*
X61275464Y7118089D02*
G01*
X61275466Y7118089D01*
X61278713Y7121890D01*
X61278718Y7121896D01*
X61360772Y7255796D01*
X61412584Y7302671D01*
X61481514Y7314094D01*
X61545677Y7286437D01*
X61584702Y7228481D01*
X61590500Y7191006D01*
X61590500Y6826545D01*
X61570815Y6759506D01*
X61547032Y6732255D01*
X61417973Y6622027D01*
X61307746Y6492968D01*
X61249239Y6454775D01*
X61213456Y6449500D01*
X60848994Y6449500D01*
X60781955Y6469185D01*
X60736200Y6521989D01*
X60726256Y6591147D01*
X60755281Y6654703D01*
X60784204Y6679228D01*
X60918104Y6761282D01*
X60918110Y6761287D01*
X60921911Y6764534D01*
X60921911Y6764536D01*
X60360562Y7325886D01*
X60362626Y7326740D01*
X60501844Y7419762D01*
X60620238Y7538156D01*
X60713260Y7677374D01*
X60714114Y7679439D01*
X61275464Y7118089D01*
G37*
%TD.AperFunction*%
%TA.AperFunction,Conductor*%
G36*
X57694553Y32725815D02*
G01*
X57740308Y32673011D01*
X57750252Y32603853D01*
X57721227Y32540297D01*
X57692611Y32515962D01*
X57622271Y32472576D01*
X57622267Y32472573D01*
X57502427Y32352733D01*
X57502424Y32352729D01*
X57413457Y32208493D01*
X57413452Y32208482D01*
X57360144Y32047607D01*
X57350000Y31948323D01*
X57350000Y31900000D01*
X58426000Y31900000D01*
X58493039Y31880315D01*
X58538794Y31827511D01*
X58550000Y31776000D01*
X58550000Y29524000D01*
X58530315Y29456961D01*
X58477511Y29411206D01*
X58426000Y29400000D01*
X57350001Y29400000D01*
X57350001Y29351678D01*
X57360144Y29252393D01*
X57413452Y29091519D01*
X57413457Y29091508D01*
X57502424Y28947272D01*
X57502427Y28947268D01*
X57622267Y28827428D01*
X57627935Y28822946D01*
X57626455Y28821076D01*
X57665567Y28777596D01*
X57676792Y28708634D01*
X57648952Y28644551D01*
X57590885Y28605692D01*
X57553748Y28600000D01*
X57100000Y28600000D01*
X57100000Y22700000D01*
X58372828Y22700000D01*
X58372844Y22700001D01*
X58432372Y22706402D01*
X58432379Y22706404D01*
X58567086Y22756646D01*
X58567093Y22756650D01*
X58682185Y22842809D01*
X58682190Y22842814D01*
X58721116Y22894811D01*
X58777050Y22936682D01*
X58820383Y22944500D01*
X60350363Y22944500D01*
X60391781Y22949474D01*
X60433200Y22954448D01*
X60565027Y23006434D01*
X60677941Y23092059D01*
X60714397Y23140134D01*
X60770587Y23181658D01*
X60840308Y23186211D01*
X60900882Y23152891D01*
X62630419Y21423354D01*
X62630448Y21423323D01*
X62760223Y21293548D01*
X62760227Y21293545D01*
X62883939Y21210883D01*
X62909190Y21194011D01*
X63074708Y21125451D01*
X63074712Y21125451D01*
X63074713Y21125450D01*
X63250419Y21090499D01*
X63250422Y21090499D01*
X63435692Y21090499D01*
X63435712Y21090500D01*
X64654288Y21090500D01*
X64654308Y21090499D01*
X64660422Y21090499D01*
X64839580Y21090499D01*
X64963978Y21115244D01*
X65015292Y21125451D01*
X65180810Y21194011D01*
X65206061Y21210883D01*
X65329773Y21293545D01*
X65456455Y21420227D01*
X65456456Y21420229D01*
X65463522Y21427295D01*
X65463525Y21427299D01*
X66572704Y22536478D01*
X66572711Y22536484D01*
X66579771Y22543545D01*
X66579773Y22543545D01*
X66590409Y22554181D01*
X66651732Y22587666D01*
X66678090Y22590500D01*
X66904288Y22590500D01*
X66904308Y22590499D01*
X66910422Y22590499D01*
X67089580Y22590499D01*
X67207792Y22614014D01*
X67265292Y22625451D01*
X67430810Y22694011D01*
X67442250Y22701655D01*
X67579773Y22793545D01*
X67706455Y22920227D01*
X67706455Y22920229D01*
X67716663Y22930436D01*
X67716664Y22930439D01*
X69998041Y25211815D01*
X70059361Y25245297D01*
X70129053Y25240313D01*
X70184986Y25198441D01*
X70209403Y25132977D01*
X70201901Y25080799D01*
X70155909Y24957486D01*
X70155908Y24957484D01*
X70149501Y24897884D01*
X70149500Y24897865D01*
X70149500Y23987090D01*
X70129815Y23920051D01*
X70113181Y23899409D01*
X66788090Y20574319D01*
X66726767Y20540834D01*
X66700409Y20538000D01*
X64482498Y20538000D01*
X64482481Y20537999D01*
X64379703Y20527500D01*
X64379700Y20527499D01*
X64213168Y20472315D01*
X64213163Y20472313D01*
X64063842Y20380211D01*
X63939789Y20256158D01*
X63847687Y20106837D01*
X63847685Y20106832D01*
X63828060Y20047608D01*
X63792501Y19940297D01*
X63792501Y19940296D01*
X63792500Y19940296D01*
X63782000Y19837517D01*
X63782000Y19012499D01*
X63782001Y19012481D01*
X63792500Y18909704D01*
X63792501Y18909701D01*
X63847685Y18743169D01*
X63847687Y18743164D01*
X63873384Y18701502D01*
X63939788Y18593844D01*
X64063844Y18469788D01*
X64213166Y18377686D01*
X64379703Y18322501D01*
X64482491Y18312000D01*
X67432508Y18312001D01*
X67535297Y18322501D01*
X67701834Y18377686D01*
X67851156Y18469788D01*
X67975212Y18593844D01*
X68067314Y18743166D01*
X68122499Y18909703D01*
X68133000Y19012491D01*
X68132999Y19295413D01*
X68152683Y19362451D01*
X68169313Y19383088D01*
X71399408Y22613182D01*
X71460731Y22646667D01*
X71487089Y22649501D01*
X72397871Y22649501D01*
X72397872Y22649501D01*
X72457483Y22655909D01*
X72592331Y22706204D01*
X72707546Y22792454D01*
X72793796Y22907669D01*
X72844091Y23042517D01*
X72844092Y23042528D01*
X72845822Y23049845D01*
X72880394Y23110562D01*
X72942303Y23142950D01*
X73011895Y23136726D01*
X73067074Y23093865D01*
X73090322Y23027977D01*
X73090500Y23021334D01*
X73090500Y22433090D01*
X73070815Y22366051D01*
X73054181Y22345409D01*
X71283090Y20574319D01*
X71221767Y20540834D01*
X71195409Y20538000D01*
X69944998Y20538000D01*
X69944981Y20537999D01*
X69842203Y20527500D01*
X69842200Y20527499D01*
X69675668Y20472315D01*
X69675663Y20472313D01*
X69526342Y20380211D01*
X69402289Y20256158D01*
X69310187Y20106837D01*
X69310185Y20106832D01*
X69290560Y20047608D01*
X69255001Y19940297D01*
X69255001Y19940296D01*
X69255000Y19940296D01*
X69244500Y19837517D01*
X69244500Y19012499D01*
X69244501Y19012481D01*
X69255000Y18909704D01*
X69255001Y18909701D01*
X69310185Y18743169D01*
X69310187Y18743164D01*
X69335884Y18701502D01*
X69402288Y18593844D01*
X69526344Y18469788D01*
X69675666Y18377686D01*
X69842203Y18322501D01*
X69944991Y18312000D01*
X72895008Y18312001D01*
X72997797Y18322501D01*
X73164334Y18377686D01*
X73313656Y18469788D01*
X73437712Y18593844D01*
X73529814Y18743166D01*
X73584999Y18909703D01*
X73595500Y19012491D01*
X73595499Y19837508D01*
X73586693Y19923709D01*
X73584999Y19940297D01*
X73584998Y19940300D01*
X73571686Y19980473D01*
X73529814Y20106834D01*
X73527208Y20111059D01*
X73508766Y20178451D01*
X73529687Y20245115D01*
X73545059Y20263834D01*
X74287820Y21006594D01*
X74349142Y21040078D01*
X74418834Y21035094D01*
X74474767Y20993222D01*
X74499184Y20927758D01*
X74499500Y20918912D01*
X74499500Y1505414D01*
X74499028Y1494606D01*
X74485260Y1337247D01*
X74481507Y1315962D01*
X74442030Y1168631D01*
X74434637Y1148319D01*
X74370177Y1010085D01*
X74359370Y991367D01*
X74271880Y866418D01*
X74257986Y849860D01*
X74150140Y742014D01*
X74133582Y728120D01*
X74008633Y640630D01*
X73989915Y629823D01*
X73851681Y565363D01*
X73831369Y557970D01*
X73684038Y518493D01*
X73662753Y514740D01*
X73505395Y500972D01*
X73494587Y500500D01*
X1505413Y500500D01*
X1494605Y500972D01*
X1337246Y514740D01*
X1315961Y518493D01*
X1168630Y557970D01*
X1148318Y565363D01*
X1010084Y629823D01*
X991366Y640630D01*
X866417Y728120D01*
X849859Y742014D01*
X742013Y849860D01*
X728119Y866418D01*
X640629Y991367D01*
X629822Y1010085D01*
X565362Y1148319D01*
X557969Y1168631D01*
X546022Y1213219D01*
X518491Y1315965D01*
X514739Y1337248D01*
X514668Y1338054D01*
X504530Y1453942D01*
X500972Y1494607D01*
X500500Y1505414D01*
X500500Y2450027D01*
X520185Y2517066D01*
X572989Y2562821D01*
X642147Y2572765D01*
X705703Y2543740D01*
X727602Y2518917D01*
X793541Y2420232D01*
X793547Y2420224D01*
X924546Y2289225D01*
X924568Y2289205D01*
X1290419Y1923354D01*
X1290448Y1923323D01*
X1420226Y1793545D01*
X1510351Y1733326D01*
X1569190Y1694011D01*
X1569192Y1694010D01*
X1569196Y1694008D01*
X1734704Y1625453D01*
X1734709Y1625451D01*
X1734713Y1625451D01*
X1734714Y1625450D01*
X1910419Y1590499D01*
X1910422Y1590499D01*
X2095692Y1590499D01*
X2095712Y1590500D01*
X7904288Y1590500D01*
X7904308Y1590499D01*
X7910422Y1590499D01*
X8089580Y1590499D01*
X8207792Y1614014D01*
X8265292Y1625451D01*
X8430810Y1694011D01*
X8489649Y1733326D01*
X8489682Y1733348D01*
X26025001Y1733348D01*
X26035056Y1634917D01*
X26087906Y1475428D01*
X26087908Y1475423D01*
X26176114Y1332420D01*
X26294919Y1213615D01*
X26437922Y1125409D01*
X26437927Y1125407D01*
X26597416Y1072558D01*
X26695855Y1062501D01*
X27250000Y1062501D01*
X27304136Y1062501D01*
X27304152Y1062502D01*
X27402583Y1072557D01*
X27562072Y1125407D01*
X27562077Y1125409D01*
X27705080Y1213615D01*
X27823885Y1332420D01*
X27912091Y1475423D01*
X27912093Y1475428D01*
X27964942Y1634917D01*
X27974999Y1733350D01*
X27975000Y1733363D01*
X27975000Y1750000D01*
X27250000Y1750000D01*
X27250000Y1062501D01*
X26695855Y1062501D01*
X26749999Y1062502D01*
X26750000Y1062502D01*
X26750000Y1750000D01*
X26025001Y1750000D01*
X26025001Y1733348D01*
X8489682Y1733348D01*
X8579773Y1793545D01*
X8706455Y1920227D01*
X8706456Y1920229D01*
X8713522Y1927295D01*
X8713524Y1927299D01*
X9103381Y2317156D01*
X14720600Y2317156D01*
X14727001Y2257628D01*
X14727003Y2257621D01*
X14777245Y2122914D01*
X14777249Y2122907D01*
X14863409Y2007813D01*
X14863412Y2007810D01*
X14978506Y1921650D01*
X14978513Y1921646D01*
X15113220Y1871404D01*
X15113227Y1871402D01*
X15172755Y1865001D01*
X15172772Y1865000D01*
X15250000Y1865000D01*
X15250000Y2750000D01*
X14720600Y2750000D01*
X14720600Y2317156D01*
X9103381Y2317156D01*
X10237904Y3451678D01*
X12025001Y3451678D01*
X12035144Y3352393D01*
X12088452Y3191519D01*
X12088457Y3191508D01*
X12177424Y3047272D01*
X12177427Y3047268D01*
X12297267Y2927428D01*
X12297271Y2927425D01*
X12441507Y2838458D01*
X12441518Y2838453D01*
X12602393Y2785145D01*
X12701683Y2775001D01*
X13250000Y2775001D01*
X13298308Y2775001D01*
X13298322Y2775002D01*
X13397607Y2785145D01*
X13558481Y2838453D01*
X13558492Y2838458D01*
X13702728Y2927425D01*
X13702732Y2927428D01*
X13822572Y3047268D01*
X13822575Y3047272D01*
X13911542Y3191508D01*
X13911547Y3191519D01*
X13964855Y3352394D01*
X13974999Y3451678D01*
X13975000Y3451691D01*
X13975000Y3475000D01*
X13250000Y3475000D01*
X13250000Y2775001D01*
X12701683Y2775001D01*
X12749999Y2775002D01*
X12750000Y2775002D01*
X12750000Y3475000D01*
X12025001Y3475000D01*
X12025001Y3451678D01*
X10237904Y3451678D01*
X11115408Y4329181D01*
X11176731Y4362666D01*
X11203089Y4365500D01*
X11952195Y4365500D01*
X12019234Y4345815D01*
X12064989Y4293011D01*
X12074933Y4223853D01*
X12069901Y4202496D01*
X12035144Y4097607D01*
X12025000Y3998323D01*
X12025000Y3975000D01*
X13974999Y3975000D01*
X13974999Y3998308D01*
X13974998Y3998323D01*
X13964855Y4097608D01*
X13911547Y4258482D01*
X13911542Y4258493D01*
X13822575Y4402729D01*
X13822572Y4402733D01*
X13813339Y4411966D01*
X13779854Y4473289D01*
X13784838Y4542981D01*
X13813343Y4587332D01*
X13822968Y4596956D01*
X13912003Y4741303D01*
X13965349Y4902292D01*
X13966762Y4916133D01*
X13993154Y4980822D01*
X14002430Y4991205D01*
X14508421Y5497196D01*
X14569742Y5530679D01*
X14639434Y5525695D01*
X14695367Y5483823D01*
X14719784Y5418359D01*
X14720100Y5409513D01*
X14720100Y4755530D01*
X14720101Y4755524D01*
X14726509Y4695915D01*
X14737680Y4665965D01*
X14745499Y4622631D01*
X14745499Y4491687D01*
X14767494Y4381116D01*
X14767494Y4381115D01*
X14774197Y4347415D01*
X14774495Y4345921D01*
X14787109Y4315467D01*
X14789660Y4309310D01*
X14789660Y4309309D01*
X14831368Y4208614D01*
X14831370Y4208611D01*
X14874353Y4144282D01*
X14895231Y4077605D01*
X14876746Y4010225D01*
X14868329Y3999585D01*
X14868725Y3999288D01*
X14777249Y3877094D01*
X14777245Y3877087D01*
X14727003Y3742380D01*
X14727001Y3742373D01*
X14720600Y3682845D01*
X14720600Y3250000D01*
X15546101Y3250000D01*
X15613140Y3230315D01*
X15658895Y3177511D01*
X15670101Y3126000D01*
X15670101Y2317130D01*
X15670102Y2317124D01*
X15676509Y2257517D01*
X15726803Y2122671D01*
X15731054Y2114888D01*
X15729293Y2113927D01*
X15749684Y2059261D01*
X15750000Y2050413D01*
X15750000Y1865000D01*
X15827228Y1865000D01*
X15827244Y1865001D01*
X15886772Y1871402D01*
X15930948Y1887879D01*
X16000640Y1892865D01*
X16017619Y1887879D01*
X16063112Y1870911D01*
X16063118Y1870909D01*
X16122728Y1864500D01*
X16777273Y1864501D01*
X16836884Y1870909D01*
X16881666Y1887613D01*
X16951358Y1892597D01*
X16968336Y1887612D01*
X17013113Y1870911D01*
X17013119Y1870909D01*
X17072729Y1864500D01*
X17727274Y1864501D01*
X17786885Y1870909D01*
X17921733Y1921204D01*
X18036948Y2007454D01*
X18123198Y2122669D01*
X18173493Y2257517D01*
X18179902Y2317127D01*
X18179901Y2621501D01*
X18199585Y2688539D01*
X18252389Y2734294D01*
X18303901Y2745500D01*
X18916770Y2745500D01*
X18983809Y2725815D01*
X19004451Y2709181D01*
X19056344Y2657288D01*
X19205666Y2565186D01*
X19372203Y2510001D01*
X19474991Y2499500D01*
X20525008Y2499501D01*
X20525016Y2499502D01*
X20525019Y2499502D01*
X20581302Y2505252D01*
X20627797Y2510001D01*
X20794334Y2565186D01*
X20943656Y2657288D01*
X21067712Y2781344D01*
X21159814Y2930666D01*
X21214999Y3097203D01*
X21225500Y3199991D01*
X21225499Y3800008D01*
X21214999Y3902797D01*
X21159814Y4069334D01*
X21067712Y4218656D01*
X20943656Y4342712D01*
X20940819Y4344462D01*
X20939283Y4346170D01*
X20937989Y4347193D01*
X20938163Y4347415D01*
X20894096Y4396406D01*
X20882872Y4465368D01*
X20910713Y4529451D01*
X20940817Y4555538D01*
X20943656Y4557288D01*
X21067712Y4681344D01*
X21159814Y4830666D01*
X21214999Y4997203D01*
X21225500Y5099991D01*
X21225499Y5700008D01*
X21224995Y5704937D01*
X21214999Y5802797D01*
X21214998Y5802800D01*
X21197849Y5854551D01*
X21159814Y5969334D01*
X21067712Y6118656D01*
X20943656Y6242712D01*
X20850888Y6299931D01*
X20794336Y6334813D01*
X20794331Y6334815D01*
X20792862Y6335302D01*
X20627797Y6389999D01*
X20627795Y6390000D01*
X20525010Y6400500D01*
X19474998Y6400500D01*
X19474980Y6400499D01*
X19372203Y6390000D01*
X19372200Y6389999D01*
X19205668Y6334815D01*
X19205663Y6334813D01*
X19056342Y6242711D01*
X18932289Y6118658D01*
X18840187Y5969337D01*
X18840186Y5969334D01*
X18785001Y5802797D01*
X18785001Y5802796D01*
X18785000Y5802796D01*
X18774500Y5700017D01*
X18774500Y5292889D01*
X18754815Y5225850D01*
X18738182Y5205208D01*
X18673194Y5140219D01*
X18611871Y5106734D01*
X18585512Y5103900D01*
X18303902Y5103900D01*
X18236863Y5123585D01*
X18191108Y5176389D01*
X18179902Y5227900D01*
X18179901Y6121271D01*
X18179900Y6121277D01*
X18179685Y6123273D01*
X18173493Y6180883D01*
X18169796Y6190794D01*
X18162320Y6210840D01*
X18154502Y6254173D01*
X18154502Y6916772D01*
X18174187Y6983811D01*
X18190821Y7004453D01*
X18240549Y7054181D01*
X18301872Y7087666D01*
X18328230Y7090500D01*
X20548079Y7090500D01*
X20606533Y7075858D01*
X20615273Y7071186D01*
X20803868Y7013976D01*
X21000000Y6994659D01*
X21196132Y7013976D01*
X21384727Y7071186D01*
X21558538Y7164090D01*
X21710883Y7289117D01*
X21835910Y7441462D01*
X21928814Y7615273D01*
X21931690Y7624756D01*
X21962669Y7676444D01*
X23090408Y8804181D01*
X23151731Y8837666D01*
X23178089Y8840500D01*
X24596292Y8840500D01*
X24663331Y8820815D01*
X24709086Y8768011D01*
X24719030Y8698853D01*
X24715914Y8686109D01*
X24716182Y8686047D01*
X24714630Y8679250D01*
X24694435Y8500004D01*
X24694435Y8499997D01*
X24714630Y8320751D01*
X24714632Y8320743D01*
X24752277Y8213159D01*
X24755838Y8143380D01*
X24721109Y8082753D01*
X24659115Y8050526D01*
X24589540Y8056932D01*
X24547554Y8084524D01*
X24502262Y8129816D01*
X24349523Y8225789D01*
X24179254Y8285369D01*
X24179249Y8285370D01*
X24000004Y8305565D01*
X23999996Y8305565D01*
X23820750Y8285370D01*
X23820745Y8285369D01*
X23650476Y8225789D01*
X23497737Y8129816D01*
X23370184Y8002263D01*
X23274211Y7849524D01*
X23214631Y7679255D01*
X23214630Y7679250D01*
X23194435Y7500004D01*
X23194435Y7499997D01*
X23214630Y7320751D01*
X23214631Y7320746D01*
X23274211Y7150477D01*
X23352677Y7025600D01*
X23370184Y6997738D01*
X23497738Y6870184D01*
X23650478Y6774211D01*
X23820745Y6714632D01*
X23864635Y6709687D01*
X23929047Y6682622D01*
X23938432Y6674148D01*
X23949988Y6662592D01*
X23949992Y6662589D01*
X24052760Y6593921D01*
X24052773Y6593914D01*
X24095208Y6576337D01*
X24095209Y6576337D01*
X24166966Y6546614D01*
X24288192Y6522501D01*
X24288196Y6522500D01*
X24288197Y6522500D01*
X24411803Y6522500D01*
X26110481Y6522500D01*
X26177520Y6502815D01*
X26198162Y6486181D01*
X26271661Y6412682D01*
X26305146Y6351359D01*
X26300162Y6281667D01*
X26271662Y6237320D01*
X26169529Y6135187D01*
X26081522Y5989607D01*
X26030913Y5827193D01*
X26024500Y5756614D01*
X26024500Y5243387D01*
X26030913Y5172808D01*
X26030913Y5172806D01*
X26030914Y5172804D01*
X26046251Y5123585D01*
X26081522Y5010394D01*
X26169530Y4864812D01*
X26289811Y4744531D01*
X26289813Y4744530D01*
X26289815Y4744528D01*
X26312650Y4730724D01*
X26359837Y4679199D01*
X26372500Y4624608D01*
X26372500Y4479032D01*
X26352815Y4411993D01*
X26313599Y4373495D01*
X26304082Y4367625D01*
X26294607Y4361780D01*
X26175719Y4242892D01*
X26175716Y4242888D01*
X26087455Y4099796D01*
X26087450Y4099785D01*
X26061665Y4021971D01*
X26034564Y3940185D01*
X26034564Y3940184D01*
X26034563Y3940184D01*
X26024500Y3841682D01*
X26024500Y3308319D01*
X26034563Y3209817D01*
X26087450Y3050216D01*
X26087455Y3050205D01*
X26175716Y2907113D01*
X26175719Y2907108D01*
X26208000Y2874827D01*
X26241485Y2813503D01*
X26236499Y2743812D01*
X26208000Y2699467D01*
X26176114Y2667581D01*
X26087908Y2524578D01*
X26087906Y2524573D01*
X26035057Y2365084D01*
X26025000Y2266651D01*
X26025000Y2250000D01*
X27974999Y2250000D01*
X27974999Y2266636D01*
X27974998Y2266649D01*
X27966856Y2346348D01*
X27979625Y2415041D01*
X28027506Y2465926D01*
X28095295Y2482847D01*
X28161472Y2460432D01*
X28193295Y2427874D01*
X28194109Y2426656D01*
X28198403Y2420230D01*
X28210590Y2401990D01*
X28210591Y2401989D01*
X28488181Y2124400D01*
X28521666Y2063077D01*
X28524500Y2036719D01*
X28524500Y1733326D01*
X28534563Y1634817D01*
X28587450Y1475216D01*
X28587455Y1475205D01*
X28675716Y1332113D01*
X28675719Y1332109D01*
X28794608Y1213220D01*
X28794612Y1213217D01*
X28937704Y1124956D01*
X28937707Y1124955D01*
X28937713Y1124951D01*
X29097315Y1072064D01*
X29195826Y1062000D01*
X29195831Y1062000D01*
X29804169Y1062000D01*
X29804174Y1062000D01*
X29902685Y1072064D01*
X30062287Y1124951D01*
X30205391Y1213219D01*
X30324281Y1332109D01*
X30412549Y1475213D01*
X30465436Y1634815D01*
X30475500Y1733326D01*
X30475500Y1733348D01*
X31025001Y1733348D01*
X31035056Y1634917D01*
X31087906Y1475428D01*
X31087908Y1475423D01*
X31176114Y1332420D01*
X31294919Y1213615D01*
X31437922Y1125409D01*
X31437927Y1125407D01*
X31597416Y1072558D01*
X31695855Y1062501D01*
X32250000Y1062501D01*
X32304136Y1062501D01*
X32304152Y1062502D01*
X32402583Y1072557D01*
X32562072Y1125407D01*
X32562077Y1125409D01*
X32705080Y1213615D01*
X32823885Y1332420D01*
X32912091Y1475423D01*
X32912093Y1475428D01*
X32964942Y1634917D01*
X32974999Y1733350D01*
X32975000Y1733363D01*
X32975000Y1750000D01*
X32250000Y1750000D01*
X32250000Y1062501D01*
X31695855Y1062501D01*
X31749999Y1062502D01*
X31750000Y1062502D01*
X31750000Y1750000D01*
X31025001Y1750000D01*
X31025001Y1733348D01*
X30475500Y1733348D01*
X30475500Y2266674D01*
X30465436Y2365185D01*
X30412549Y2524787D01*
X30412545Y2524793D01*
X30412544Y2524796D01*
X30324283Y2667888D01*
X30324280Y2667892D01*
X30292353Y2699819D01*
X30258868Y2761142D01*
X30263852Y2830834D01*
X30292353Y2875181D01*
X30324281Y2907109D01*
X30412549Y3050213D01*
X30465436Y3209815D01*
X30475500Y3308326D01*
X30475500Y3841674D01*
X30465436Y3940185D01*
X30412549Y4099787D01*
X30412545Y4099793D01*
X30412544Y4099796D01*
X30324283Y4242888D01*
X30324280Y4242892D01*
X30205392Y4361780D01*
X30205391Y4361781D01*
X30186400Y4373495D01*
X30139678Y4425443D01*
X30127500Y4479032D01*
X30127500Y4624608D01*
X30147185Y4691647D01*
X30187349Y4730724D01*
X30210185Y4744528D01*
X30330472Y4864815D01*
X30418478Y5010394D01*
X30469086Y5172804D01*
X30475500Y5243384D01*
X30475500Y5756616D01*
X30469086Y5827196D01*
X30418478Y5989606D01*
X30330472Y6135185D01*
X30330470Y6135187D01*
X30330469Y6135189D01*
X30228339Y6237319D01*
X30194854Y6298642D01*
X30199838Y6368334D01*
X30228339Y6412681D01*
X30330468Y6514811D01*
X30330469Y6514812D01*
X30330472Y6514815D01*
X30418478Y6660394D01*
X30469086Y6822804D01*
X30471840Y6853110D01*
X30497508Y6918091D01*
X30554235Y6958880D01*
X30624010Y6962526D01*
X30683011Y6929569D01*
X30949988Y6662592D01*
X30949996Y6662586D01*
X31052756Y6593924D01*
X31052759Y6593923D01*
X31052767Y6593917D01*
X31052773Y6593915D01*
X31052774Y6593914D01*
X31107131Y6571399D01*
X31161535Y6527559D01*
X31165793Y6520993D01*
X31169528Y6514814D01*
X31271661Y6412681D01*
X31305146Y6351358D01*
X31300162Y6281666D01*
X31271661Y6237319D01*
X31169531Y6135190D01*
X31169530Y6135189D01*
X31081522Y5989607D01*
X31030913Y5827193D01*
X31024500Y5756614D01*
X31024500Y5243387D01*
X31030913Y5172808D01*
X31030913Y5172806D01*
X31030914Y5172804D01*
X31046251Y5123585D01*
X31081522Y5010394D01*
X31169530Y4864812D01*
X31289811Y4744531D01*
X31289813Y4744530D01*
X31289815Y4744528D01*
X31312650Y4730724D01*
X31359837Y4679199D01*
X31372500Y4624608D01*
X31372500Y4479032D01*
X31352815Y4411993D01*
X31313599Y4373495D01*
X31304082Y4367625D01*
X31294607Y4361780D01*
X31175719Y4242892D01*
X31175716Y4242888D01*
X31087455Y4099796D01*
X31087450Y4099785D01*
X31061665Y4021971D01*
X31034564Y3940185D01*
X31034564Y3940184D01*
X31034563Y3940184D01*
X31024500Y3841682D01*
X31024500Y3308319D01*
X31034563Y3209817D01*
X31087450Y3050216D01*
X31087455Y3050205D01*
X31175716Y2907113D01*
X31175719Y2907108D01*
X31208000Y2874827D01*
X31241485Y2813503D01*
X31236499Y2743812D01*
X31208000Y2699467D01*
X31176114Y2667581D01*
X31087908Y2524578D01*
X31087906Y2524573D01*
X31035057Y2365084D01*
X31025000Y2266651D01*
X31025000Y2250000D01*
X32974999Y2250000D01*
X32974999Y2266636D01*
X32974998Y2266653D01*
X32964943Y2365084D01*
X32912093Y2524573D01*
X32912091Y2524578D01*
X32823885Y2667581D01*
X32792000Y2699466D01*
X32758515Y2760789D01*
X32763499Y2830481D01*
X32792000Y2874828D01*
X32792353Y2875181D01*
X32824281Y2907109D01*
X32912549Y3050213D01*
X32965436Y3209815D01*
X32975500Y3308326D01*
X32975500Y3841674D01*
X32965436Y3940185D01*
X32948929Y3990001D01*
X36244500Y3990001D01*
X36244500Y2839979D01*
X36250923Y2759670D01*
X36250925Y2759662D01*
X36259787Y2731255D01*
X36264151Y2676681D01*
X36244500Y2540001D01*
X36244500Y1539998D01*
X36249644Y1468060D01*
X36255020Y1449753D01*
X36288055Y1337247D01*
X36290182Y1330006D01*
X36367967Y1208970D01*
X36367971Y1208966D01*
X36464923Y1124956D01*
X36476706Y1114746D01*
X36517174Y1096265D01*
X36607580Y1054977D01*
X36607583Y1054977D01*
X36607584Y1054976D01*
X36750000Y1034500D01*
X36750003Y1034500D01*
X38250000Y1034500D01*
X38321940Y1039645D01*
X38459992Y1080181D01*
X38581032Y1157969D01*
X38625222Y1208966D01*
X38654456Y1242703D01*
X38713234Y1280477D01*
X38748168Y1285500D01*
X39959554Y1285500D01*
X39959574Y1285499D01*
X39965688Y1285499D01*
X40114314Y1285499D01*
X40235894Y1309685D01*
X40235894Y1309684D01*
X40235900Y1309687D01*
X40260080Y1314495D01*
X40303354Y1332420D01*
X40316944Y1338049D01*
X40316947Y1338051D01*
X40316955Y1338054D01*
X40397389Y1371370D01*
X40520966Y1453941D01*
X40693701Y1626678D01*
X40755022Y1660161D01*
X40792185Y1662523D01*
X40967937Y1647147D01*
X40999999Y1644341D01*
X41000000Y1644341D01*
X41000001Y1644341D01*
X41039234Y1647774D01*
X41235408Y1664937D01*
X41463663Y1726097D01*
X41677830Y1825965D01*
X41871401Y1961505D01*
X42038495Y2128599D01*
X42174035Y2322170D01*
X42273903Y2536337D01*
X42335063Y2764592D01*
X42355659Y3000000D01*
X43829975Y3000000D01*
X43850042Y2745011D01*
X43909752Y2496298D01*
X44007634Y2259988D01*
X44007636Y2259985D01*
X44141277Y2041902D01*
X44141284Y2041893D01*
X44144533Y2038088D01*
X44705884Y2599440D01*
X44706740Y2597374D01*
X44799762Y2458156D01*
X44918156Y2339762D01*
X45057374Y2246740D01*
X45059437Y2245886D01*
X44498087Y1684535D01*
X44501897Y1681281D01*
X44719984Y1547637D01*
X44719987Y1547635D01*
X44956297Y1449753D01*
X45205011Y1390043D01*
X45205010Y1390043D01*
X45460000Y1369976D01*
X45714989Y1390043D01*
X45963702Y1449753D01*
X46200012Y1547635D01*
X46200015Y1547637D01*
X46418095Y1681276D01*
X46418110Y1681287D01*
X46421911Y1684534D01*
X46421911Y1684536D01*
X45860562Y2245886D01*
X45862626Y2246740D01*
X46001844Y2339762D01*
X46120238Y2458156D01*
X46213260Y2597374D01*
X46214114Y2599439D01*
X46775464Y2038089D01*
X46775466Y2038089D01*
X46778713Y2041890D01*
X46778724Y2041905D01*
X46912363Y2259985D01*
X46912365Y2259988D01*
X47010247Y2496298D01*
X47069957Y2745011D01*
X47090024Y3000000D01*
X48909975Y3000000D01*
X48930042Y2745011D01*
X48989752Y2496298D01*
X49087634Y2259988D01*
X49087636Y2259985D01*
X49221277Y2041902D01*
X49221284Y2041893D01*
X49224533Y2038088D01*
X49785884Y2599440D01*
X49786740Y2597374D01*
X49879762Y2458156D01*
X49998156Y2339762D01*
X50137374Y2246740D01*
X50139437Y2245886D01*
X49578087Y1684535D01*
X49581897Y1681281D01*
X49799984Y1547637D01*
X49799987Y1547635D01*
X50036297Y1449753D01*
X50285011Y1390043D01*
X50285010Y1390043D01*
X50540000Y1369976D01*
X50794989Y1390043D01*
X51043702Y1449753D01*
X51280012Y1547635D01*
X51280015Y1547637D01*
X51498095Y1681276D01*
X51498110Y1681287D01*
X51501911Y1684534D01*
X51501911Y1684536D01*
X50940562Y2245886D01*
X50942626Y2246740D01*
X51081844Y2339762D01*
X51200238Y2458156D01*
X51293260Y2597374D01*
X51294114Y2599439D01*
X51855464Y2038089D01*
X51855466Y2038089D01*
X51858713Y2041890D01*
X51858724Y2041905D01*
X51992363Y2259985D01*
X51992365Y2259988D01*
X52090247Y2496298D01*
X52149957Y2745011D01*
X52170024Y3000000D01*
X52170024Y3000001D01*
X54144341Y3000001D01*
X54144341Y3000000D01*
X54164936Y2764597D01*
X54164938Y2764587D01*
X54226094Y2536345D01*
X54226096Y2536341D01*
X54226097Y2536337D01*
X54285322Y2409329D01*
X54325965Y2322170D01*
X54325967Y2322166D01*
X54434281Y2167479D01*
X54461505Y2128599D01*
X54628599Y1961505D01*
X54687550Y1920227D01*
X54822165Y1825968D01*
X54822167Y1825967D01*
X54822170Y1825965D01*
X55036337Y1726097D01*
X55264592Y1664937D01*
X55452918Y1648461D01*
X55499999Y1644341D01*
X55500000Y1644341D01*
X55500001Y1644341D01*
X55539234Y1647774D01*
X55735408Y1664937D01*
X55963663Y1726097D01*
X56177830Y1825965D01*
X56371401Y1961505D01*
X56464077Y2054181D01*
X56525400Y2087666D01*
X56551758Y2090500D01*
X57412041Y2090500D01*
X57412061Y2090499D01*
X57418175Y2090499D01*
X57597333Y2090499D01*
X57719942Y2114888D01*
X57773045Y2125451D01*
X57938563Y2194011D01*
X57999470Y2234708D01*
X57999471Y2234708D01*
X58066437Y2279454D01*
X58087526Y2293545D01*
X58214208Y2420227D01*
X58214209Y2420230D01*
X58243537Y2449559D01*
X58304854Y2483042D01*
X58374546Y2478059D01*
X58430480Y2436189D01*
X58445776Y2409329D01*
X58507636Y2259984D01*
X58641277Y2041902D01*
X58641284Y2041893D01*
X58644533Y2038088D01*
X59205884Y2599439D01*
X59206740Y2597374D01*
X59299762Y2458156D01*
X59418156Y2339762D01*
X59557374Y2246740D01*
X59559437Y2245886D01*
X58998087Y1684535D01*
X59001897Y1681281D01*
X59219984Y1547637D01*
X59219987Y1547635D01*
X59456297Y1449753D01*
X59705011Y1390043D01*
X59705010Y1390043D01*
X59960000Y1369976D01*
X60214989Y1390043D01*
X60463702Y1449753D01*
X60700012Y1547635D01*
X60700015Y1547637D01*
X60918095Y1681276D01*
X60918110Y1681287D01*
X60921911Y1684534D01*
X60921911Y1684536D01*
X60360562Y2245886D01*
X60362626Y2246740D01*
X60501844Y2339762D01*
X60620238Y2458156D01*
X60713260Y2597374D01*
X60714114Y2599438D01*
X61275464Y2038089D01*
X61275466Y2038089D01*
X61278713Y2041890D01*
X61278724Y2041905D01*
X61412363Y2259985D01*
X61412365Y2259988D01*
X61510247Y2496298D01*
X61569957Y2745011D01*
X61590024Y3000000D01*
X63409975Y3000000D01*
X63430042Y2745011D01*
X63489752Y2496298D01*
X63587634Y2259988D01*
X63587636Y2259985D01*
X63721277Y2041902D01*
X63721284Y2041893D01*
X63724533Y2038088D01*
X64285884Y2599440D01*
X64286740Y2597374D01*
X64379762Y2458156D01*
X64498156Y2339762D01*
X64637374Y2246740D01*
X64639437Y2245886D01*
X64078087Y1684535D01*
X64081897Y1681281D01*
X64299984Y1547637D01*
X64299987Y1547635D01*
X64536297Y1449753D01*
X64785011Y1390043D01*
X64785010Y1390043D01*
X65040000Y1369976D01*
X65294989Y1390043D01*
X65543702Y1449753D01*
X65780012Y1547635D01*
X65780015Y1547637D01*
X65998095Y1681276D01*
X65998110Y1681287D01*
X66001911Y1684534D01*
X66001911Y1684536D01*
X65440562Y2245886D01*
X65442626Y2246740D01*
X65581844Y2339762D01*
X65700238Y2458156D01*
X65793260Y2597374D01*
X65794114Y2599438D01*
X66355464Y2038089D01*
X66355466Y2038089D01*
X66358713Y2041890D01*
X66358724Y2041905D01*
X66492363Y2259985D01*
X66492365Y2259988D01*
X66590247Y2496298D01*
X66649957Y2745011D01*
X66670024Y3000000D01*
X66649957Y3254990D01*
X66590247Y3503703D01*
X66492365Y3740013D01*
X66492363Y3740016D01*
X66358719Y3958103D01*
X66355465Y3961913D01*
X65794114Y3400563D01*
X65793260Y3402626D01*
X65700238Y3541844D01*
X65581844Y3660238D01*
X65442626Y3753260D01*
X65440561Y3754116D01*
X65801187Y4114742D01*
X69249500Y4114742D01*
X69249500Y3885259D01*
X69268623Y3740016D01*
X69279452Y3657762D01*
X69312662Y3533819D01*
X69338842Y3436113D01*
X69426650Y3224124D01*
X69426657Y3224110D01*
X69541392Y3025383D01*
X69681081Y2843339D01*
X69681089Y2843330D01*
X69843330Y2681089D01*
X69843338Y2681082D01*
X69843339Y2681081D01*
X69887671Y2647064D01*
X70025382Y2541393D01*
X70025385Y2541392D01*
X70025388Y2541389D01*
X70224112Y2426656D01*
X70224117Y2426654D01*
X70224123Y2426651D01*
X70283663Y2401989D01*
X70436113Y2338842D01*
X70657762Y2279452D01*
X70885266Y2249500D01*
X70885273Y2249500D01*
X71114727Y2249500D01*
X71114734Y2249500D01*
X71342238Y2279452D01*
X71563887Y2338842D01*
X71775888Y2426656D01*
X71974612Y2541389D01*
X72156661Y2681081D01*
X72156665Y2681086D01*
X72156670Y2681089D01*
X72318911Y2843330D01*
X72318914Y2843335D01*
X72318919Y2843339D01*
X72458611Y3025388D01*
X72573344Y3224112D01*
X72661158Y3436113D01*
X72720548Y3657762D01*
X72750500Y3885266D01*
X72750500Y4114734D01*
X72720548Y4342238D01*
X72661158Y4563887D01*
X72592051Y4730726D01*
X72573349Y4775877D01*
X72573346Y4775883D01*
X72573344Y4775888D01*
X72458611Y4974612D01*
X72458608Y4974615D01*
X72458607Y4974618D01*
X72318918Y5156662D01*
X72318911Y5156670D01*
X72156670Y5318911D01*
X72156661Y5318919D01*
X71974617Y5458608D01*
X71775890Y5573343D01*
X71775876Y5573350D01*
X71563887Y5661158D01*
X71536766Y5668425D01*
X71342238Y5720548D01*
X71304215Y5725554D01*
X71114741Y5750500D01*
X71114734Y5750500D01*
X70885266Y5750500D01*
X70885258Y5750500D01*
X70668715Y5721991D01*
X70657762Y5720548D01*
X70564076Y5695446D01*
X70436112Y5661158D01*
X70224123Y5573350D01*
X70224109Y5573343D01*
X70025382Y5458608D01*
X69843338Y5318919D01*
X69681081Y5156662D01*
X69541392Y4974618D01*
X69426657Y4775891D01*
X69426650Y4775877D01*
X69338842Y4563888D01*
X69315032Y4475025D01*
X69279579Y4342710D01*
X69279453Y4342241D01*
X69279451Y4342230D01*
X69249500Y4114742D01*
X65801187Y4114742D01*
X66001912Y4315467D01*
X65998107Y4318716D01*
X65998098Y4318723D01*
X65780015Y4452364D01*
X65780012Y4452366D01*
X65543702Y4550248D01*
X65294988Y4609958D01*
X65294989Y4609958D01*
X65040000Y4630025D01*
X64785010Y4609958D01*
X64536297Y4550248D01*
X64299987Y4452366D01*
X64299984Y4452364D01*
X64081893Y4318718D01*
X64078086Y4315468D01*
X64639438Y3754116D01*
X64637374Y3753260D01*
X64498156Y3660238D01*
X64379762Y3541844D01*
X64286740Y3402626D01*
X64285884Y3400562D01*
X63724532Y3961914D01*
X63721282Y3958107D01*
X63587636Y3740016D01*
X63587634Y3740013D01*
X63489752Y3503703D01*
X63430042Y3254990D01*
X63409975Y3000000D01*
X61590024Y3000000D01*
X61569957Y3254990D01*
X61510247Y3503703D01*
X61412365Y3740013D01*
X61412363Y3740016D01*
X61278719Y3958103D01*
X61275465Y3961913D01*
X60714114Y3400563D01*
X60713260Y3402626D01*
X60620238Y3541844D01*
X60501844Y3660238D01*
X60362626Y3753260D01*
X60360561Y3754116D01*
X60921912Y4315467D01*
X60918107Y4318716D01*
X60918098Y4318723D01*
X60784204Y4400773D01*
X60737329Y4452584D01*
X60725906Y4521514D01*
X60753563Y4585677D01*
X60811519Y4624702D01*
X60848994Y4630500D01*
X61213456Y4630500D01*
X61280495Y4610815D01*
X61307746Y4587032D01*
X61324541Y4567368D01*
X61417973Y4457973D01*
X61600561Y4302028D01*
X61634966Y4280945D01*
X61805297Y4176566D01*
X61902047Y4136492D01*
X62027137Y4084677D01*
X62260621Y4028623D01*
X62500000Y4009783D01*
X62739379Y4028623D01*
X62972863Y4084677D01*
X63174386Y4168151D01*
X63194702Y4176566D01*
X63201388Y4180663D01*
X63399439Y4302028D01*
X63582027Y4457973D01*
X63737972Y4640561D01*
X63863433Y4845296D01*
X63955323Y5067137D01*
X64011377Y5300621D01*
X64030217Y5540000D01*
X64011377Y5779379D01*
X63955323Y6012863D01*
X63888085Y6175190D01*
X63863434Y6234703D01*
X63759090Y6404977D01*
X63737972Y6439439D01*
X63582027Y6622027D01*
X63473600Y6714633D01*
X63452968Y6732255D01*
X63414775Y6790762D01*
X63409500Y6826545D01*
X63409500Y7191007D01*
X63429185Y7258046D01*
X63481989Y7303801D01*
X63551147Y7313745D01*
X63614703Y7284720D01*
X63639228Y7255796D01*
X63721280Y7121898D01*
X63721284Y7121893D01*
X63724533Y7118088D01*
X64285884Y7679440D01*
X64286740Y7677374D01*
X64379762Y7538156D01*
X64498156Y7419762D01*
X64637374Y7326740D01*
X64639437Y7325886D01*
X64078087Y6764535D01*
X64081897Y6761281D01*
X64299984Y6627637D01*
X64299987Y6627635D01*
X64536297Y6529753D01*
X64785011Y6470043D01*
X64785010Y6470043D01*
X65040000Y6449976D01*
X65294989Y6470043D01*
X65543702Y6529753D01*
X65780012Y6627635D01*
X65780015Y6627637D01*
X65998095Y6761276D01*
X65998110Y6761287D01*
X66001911Y6764534D01*
X66001911Y6764536D01*
X65440562Y7325886D01*
X65442626Y7326740D01*
X65581844Y7419762D01*
X65700238Y7538156D01*
X65793260Y7677374D01*
X65794114Y7679438D01*
X66355464Y7118089D01*
X66355466Y7118089D01*
X66358713Y7121890D01*
X66358724Y7121905D01*
X66492363Y7339985D01*
X66492365Y7339988D01*
X66590247Y7576298D01*
X66649957Y7825011D01*
X66670024Y8080000D01*
X66649957Y8334990D01*
X66590247Y8583703D01*
X66492365Y8820013D01*
X66492363Y8820016D01*
X66358719Y9038103D01*
X66355465Y9041913D01*
X65794114Y8480563D01*
X65793260Y8482626D01*
X65700238Y8621844D01*
X65581844Y8740238D01*
X65442626Y8833260D01*
X65440561Y8834116D01*
X66001912Y9395467D01*
X65998107Y9398716D01*
X65998098Y9398723D01*
X65780015Y9532364D01*
X65780012Y9532366D01*
X65543702Y9630248D01*
X65294988Y9689958D01*
X65294989Y9689958D01*
X65040000Y9710025D01*
X64785010Y9689958D01*
X64536297Y9630248D01*
X64299987Y9532366D01*
X64299984Y9532364D01*
X64081893Y9398718D01*
X64078086Y9395468D01*
X64639438Y8834116D01*
X64637374Y8833260D01*
X64498156Y8740238D01*
X64379762Y8621844D01*
X64286740Y8482626D01*
X64285884Y8480562D01*
X63724532Y9041914D01*
X63721282Y9038107D01*
X63639227Y8904204D01*
X63587415Y8857329D01*
X63518486Y8845906D01*
X63454323Y8873564D01*
X63415298Y8931519D01*
X63409500Y8968994D01*
X63409500Y9614411D01*
X63429185Y9681450D01*
X63445819Y9702092D01*
X66094409Y12350682D01*
X66155732Y12384167D01*
X66182090Y12387001D01*
X67432502Y12387001D01*
X67432508Y12387001D01*
X67535297Y12397501D01*
X67701834Y12452686D01*
X67851156Y12544788D01*
X67860549Y12554181D01*
X67921872Y12587666D01*
X67948230Y12590500D01*
X69429270Y12590500D01*
X69496309Y12570815D01*
X69516951Y12554181D01*
X69526344Y12544788D01*
X69675666Y12452686D01*
X69842203Y12397501D01*
X69944991Y12387000D01*
X72895008Y12387001D01*
X72997797Y12397501D01*
X73164334Y12452686D01*
X73313656Y12544788D01*
X73437712Y12668844D01*
X73529814Y12818166D01*
X73584999Y12984703D01*
X73595500Y13087491D01*
X73595499Y13912508D01*
X73590003Y13966306D01*
X73584999Y14015297D01*
X73584998Y14015300D01*
X73563620Y14079815D01*
X73529814Y14181834D01*
X73437712Y14331156D01*
X73313656Y14455212D01*
X73184864Y14534651D01*
X73164336Y14547313D01*
X73164331Y14547315D01*
X73146707Y14553155D01*
X72997797Y14602499D01*
X72997795Y14602500D01*
X72895010Y14613000D01*
X69944998Y14613000D01*
X69944981Y14612999D01*
X69842203Y14602500D01*
X69842200Y14602499D01*
X69675668Y14547315D01*
X69675663Y14547313D01*
X69526342Y14455211D01*
X69516951Y14445819D01*
X69455628Y14412334D01*
X69429270Y14409500D01*
X67948230Y14409500D01*
X67881191Y14429185D01*
X67860549Y14445819D01*
X67851157Y14455211D01*
X67851156Y14455212D01*
X67722364Y14534651D01*
X67701836Y14547313D01*
X67701831Y14547315D01*
X67684207Y14553155D01*
X67535297Y14602499D01*
X67535295Y14602500D01*
X67432510Y14613000D01*
X64482498Y14613000D01*
X64482481Y14612999D01*
X64379703Y14602500D01*
X64379700Y14602499D01*
X64213168Y14547315D01*
X64213163Y14547313D01*
X64063842Y14455211D01*
X63939789Y14331158D01*
X63847687Y14181837D01*
X63847685Y14181832D01*
X63829612Y14127291D01*
X63792501Y14015297D01*
X63792501Y14015296D01*
X63792500Y14015296D01*
X63782000Y13912517D01*
X63782000Y13087499D01*
X63782001Y13087481D01*
X63792500Y12984704D01*
X63792501Y12984701D01*
X63847685Y12818169D01*
X63847688Y12818162D01*
X63850291Y12813943D01*
X63868732Y12746550D01*
X63847810Y12679887D01*
X63832434Y12661164D01*
X62252779Y11081507D01*
X61920229Y10748957D01*
X61920227Y10748955D01*
X61882156Y10710884D01*
X61793543Y10622272D01*
X61694014Y10473317D01*
X61694009Y10473308D01*
X61625451Y10307793D01*
X61625449Y10307787D01*
X61590499Y10132081D01*
X61590499Y9946809D01*
X61590500Y9946788D01*
X61590500Y8968994D01*
X61570815Y8901955D01*
X61518011Y8856200D01*
X61448853Y8846256D01*
X61385297Y8875281D01*
X61360773Y8904204D01*
X61278719Y9038103D01*
X61275465Y9041913D01*
X60714114Y8480563D01*
X60713260Y8482626D01*
X60620238Y8621844D01*
X60501844Y8740238D01*
X60362626Y8833260D01*
X60360561Y8834116D01*
X60921912Y9395467D01*
X60918107Y9398716D01*
X60918098Y9398723D01*
X60700015Y9532364D01*
X60700012Y9532366D01*
X60463702Y9630248D01*
X60214988Y9689958D01*
X60214989Y9689958D01*
X59960000Y9710025D01*
X59705010Y9689958D01*
X59456297Y9630248D01*
X59219987Y9532366D01*
X59219984Y9532364D01*
X59001893Y9398718D01*
X58998086Y9395468D01*
X59559438Y8834116D01*
X59557374Y8833260D01*
X59418156Y8740238D01*
X59299762Y8621844D01*
X59206740Y8482626D01*
X59205884Y8480562D01*
X58644532Y9041914D01*
X58641282Y9038107D01*
X58507636Y8820016D01*
X58507634Y8820013D01*
X58409752Y8583703D01*
X58350042Y8334990D01*
X58329975Y8080000D01*
X58350042Y7825011D01*
X58409752Y7576298D01*
X58507634Y7339988D01*
X58507636Y7339985D01*
X58641277Y7121902D01*
X58641284Y7121893D01*
X58644533Y7118088D01*
X59205884Y7679440D01*
X59206740Y7677374D01*
X59299762Y7538156D01*
X59418156Y7419762D01*
X59557374Y7326740D01*
X59559437Y7325886D01*
X58998087Y6764535D01*
X59001897Y6761281D01*
X59219984Y6627637D01*
X59219987Y6627635D01*
X59456297Y6529753D01*
X59501150Y6518985D01*
X59561742Y6484195D01*
X59593906Y6422168D01*
X59587430Y6352599D01*
X59544371Y6297575D01*
X59541097Y6295311D01*
X59496490Y6265505D01*
X59467979Y6246456D01*
X59467976Y6246453D01*
X57167345Y3945819D01*
X57106022Y3912334D01*
X57079664Y3909500D01*
X56551758Y3909500D01*
X56484719Y3929185D01*
X56464077Y3945819D01*
X56416181Y3993715D01*
X56382696Y4055038D01*
X56387680Y4124730D01*
X56429552Y4180663D01*
X56460529Y4197578D01*
X56592086Y4246646D01*
X56592093Y4246650D01*
X56707187Y4332810D01*
X56707190Y4332813D01*
X56793350Y4447907D01*
X56793354Y4447914D01*
X56843596Y4582621D01*
X56843598Y4582628D01*
X56849999Y4642156D01*
X56850000Y4642173D01*
X56850000Y5290000D01*
X55933012Y5290000D01*
X55965925Y5347007D01*
X56000000Y5474174D01*
X56000000Y5605826D01*
X55965925Y5732993D01*
X55933012Y5790000D01*
X56850000Y5790000D01*
X56850000Y6437828D01*
X56849999Y6437845D01*
X56843598Y6497373D01*
X56843596Y6497380D01*
X56793354Y6632087D01*
X56793350Y6632094D01*
X56707190Y6747188D01*
X56707187Y6747191D01*
X56592093Y6833351D01*
X56592086Y6833355D01*
X56457379Y6883597D01*
X56457372Y6883599D01*
X56397844Y6890000D01*
X55750000Y6890000D01*
X55750000Y5973012D01*
X55692993Y6005925D01*
X55565826Y6040000D01*
X55434174Y6040000D01*
X55307007Y6005925D01*
X55250000Y5973012D01*
X55250000Y6890000D01*
X54602155Y6890000D01*
X54542627Y6883599D01*
X54542620Y6883597D01*
X54407913Y6833355D01*
X54407906Y6833351D01*
X54292812Y6747191D01*
X54292809Y6747188D01*
X54206649Y6632094D01*
X54206645Y6632087D01*
X54156403Y6497380D01*
X54156401Y6497373D01*
X54150000Y6437845D01*
X54150000Y5790000D01*
X55066988Y5790000D01*
X55034075Y5732993D01*
X55000000Y5605826D01*
X55000000Y5474174D01*
X55034075Y5347007D01*
X55066988Y5290000D01*
X54150000Y5290000D01*
X54150000Y4642156D01*
X54156401Y4582628D01*
X54156403Y4582621D01*
X54206645Y4447914D01*
X54206649Y4447907D01*
X54292809Y4332813D01*
X54292812Y4332810D01*
X54407906Y4246650D01*
X54407913Y4246646D01*
X54539470Y4197579D01*
X54595403Y4155708D01*
X54619821Y4090244D01*
X54604970Y4021971D01*
X54583819Y3993716D01*
X54461503Y3871400D01*
X54325965Y3677831D01*
X54325964Y3677829D01*
X54226098Y3463665D01*
X54226094Y3463656D01*
X54164938Y3235414D01*
X54164936Y3235404D01*
X54144341Y3000001D01*
X52170024Y3000001D01*
X52149957Y3254990D01*
X52090247Y3503703D01*
X51992365Y3740013D01*
X51992363Y3740016D01*
X51858719Y3958103D01*
X51855465Y3961913D01*
X51294114Y3400563D01*
X51293260Y3402626D01*
X51200238Y3541844D01*
X51081844Y3660238D01*
X50942626Y3753260D01*
X50940561Y3754116D01*
X51501912Y4315467D01*
X51498107Y4318716D01*
X51498098Y4318723D01*
X51280015Y4452364D01*
X51280012Y4452366D01*
X51043702Y4550248D01*
X50794988Y4609958D01*
X50794989Y4609958D01*
X50540000Y4630025D01*
X50285010Y4609958D01*
X50036297Y4550248D01*
X49799987Y4452366D01*
X49799984Y4452364D01*
X49581893Y4318718D01*
X49578086Y4315468D01*
X50139438Y3754116D01*
X50137374Y3753260D01*
X49998156Y3660238D01*
X49879762Y3541844D01*
X49786740Y3402626D01*
X49785884Y3400562D01*
X49224532Y3961914D01*
X49221282Y3958107D01*
X49087636Y3740016D01*
X49087634Y3740013D01*
X48989752Y3503703D01*
X48930042Y3254990D01*
X48909975Y3000000D01*
X47090024Y3000000D01*
X47069957Y3254990D01*
X47010247Y3503703D01*
X46912365Y3740013D01*
X46912363Y3740016D01*
X46778719Y3958103D01*
X46775465Y3961913D01*
X46214114Y3400563D01*
X46213260Y3402626D01*
X46120238Y3541844D01*
X46001844Y3660238D01*
X45862626Y3753260D01*
X45860561Y3754116D01*
X46421912Y4315467D01*
X46418107Y4318716D01*
X46418098Y4318723D01*
X46200015Y4452364D01*
X46200012Y4452366D01*
X45963702Y4550248D01*
X45714988Y4609958D01*
X45714989Y4609958D01*
X45460000Y4630025D01*
X45205010Y4609958D01*
X44956297Y4550248D01*
X44719987Y4452366D01*
X44719984Y4452364D01*
X44501893Y4318718D01*
X44498086Y4315468D01*
X45059438Y3754116D01*
X45057374Y3753260D01*
X44918156Y3660238D01*
X44799762Y3541844D01*
X44706740Y3402626D01*
X44705884Y3400562D01*
X44144532Y3961914D01*
X44141282Y3958107D01*
X44007636Y3740016D01*
X44007634Y3740013D01*
X43909752Y3503703D01*
X43850042Y3254990D01*
X43829975Y3000000D01*
X42355659Y3000000D01*
X42335063Y3235408D01*
X42273903Y3463663D01*
X42174035Y3677829D01*
X42163675Y3692624D01*
X42038496Y3871400D01*
X41980711Y3929185D01*
X41916179Y3993717D01*
X41882696Y4055037D01*
X41887680Y4124729D01*
X41929551Y4180663D01*
X41960529Y4197578D01*
X42092086Y4246646D01*
X42092093Y4246650D01*
X42207187Y4332810D01*
X42207190Y4332813D01*
X42293350Y4447907D01*
X42293354Y4447914D01*
X42343596Y4582621D01*
X42343598Y4582628D01*
X42349999Y4642156D01*
X42350000Y4642173D01*
X42350000Y5290000D01*
X41433012Y5290000D01*
X41465925Y5347007D01*
X41500000Y5474174D01*
X41500000Y5540000D01*
X46469783Y5540000D01*
X46488623Y5300618D01*
X46544674Y5067147D01*
X46544678Y5067135D01*
X46636565Y4845298D01*
X46762026Y4640564D01*
X46762028Y4640561D01*
X46917973Y4457973D01*
X47100561Y4302028D01*
X47134966Y4280945D01*
X47305297Y4176566D01*
X47402047Y4136492D01*
X47527137Y4084677D01*
X47760621Y4028623D01*
X48000000Y4009783D01*
X48239379Y4028623D01*
X48472863Y4084677D01*
X48674386Y4168151D01*
X48694702Y4176566D01*
X48701388Y4180663D01*
X48899439Y4302028D01*
X49082027Y4457973D01*
X49237972Y4640561D01*
X49363433Y4845296D01*
X49455323Y5067137D01*
X49511377Y5300621D01*
X49530217Y5540000D01*
X49511377Y5779379D01*
X49455323Y6012863D01*
X49388085Y6175190D01*
X49363434Y6234703D01*
X49259090Y6404977D01*
X49237972Y6439439D01*
X49082027Y6622027D01*
X48899439Y6777972D01*
X48899436Y6777974D01*
X48694702Y6903435D01*
X48474466Y6994659D01*
X48472863Y6995323D01*
X48472859Y6995324D01*
X48472853Y6995326D01*
X48239382Y7051377D01*
X48000000Y7070217D01*
X47760617Y7051377D01*
X47527146Y6995326D01*
X47527134Y6995322D01*
X47305297Y6903435D01*
X47100563Y6777974D01*
X46917973Y6622027D01*
X46762026Y6439437D01*
X46636565Y6234703D01*
X46544678Y6012866D01*
X46544674Y6012854D01*
X46488623Y5779383D01*
X46469783Y5540000D01*
X41500000Y5540000D01*
X41500000Y5605826D01*
X41465925Y5732993D01*
X41433012Y5790000D01*
X42350000Y5790000D01*
X42350000Y6437828D01*
X42349999Y6437845D01*
X42343598Y6497373D01*
X42343596Y6497380D01*
X42293354Y6632087D01*
X42293350Y6632094D01*
X42207190Y6747188D01*
X42207187Y6747191D01*
X42092093Y6833351D01*
X42092086Y6833355D01*
X41957379Y6883597D01*
X41957372Y6883599D01*
X41897844Y6890000D01*
X41250000Y6890000D01*
X41250000Y5973012D01*
X41192993Y6005925D01*
X41065826Y6040000D01*
X40934174Y6040000D01*
X40807007Y6005925D01*
X40750000Y5973012D01*
X40750000Y6890000D01*
X40102155Y6890000D01*
X40042627Y6883599D01*
X40042620Y6883597D01*
X39907913Y6833355D01*
X39907906Y6833351D01*
X39792812Y6747191D01*
X39792809Y6747188D01*
X39706649Y6632094D01*
X39706645Y6632087D01*
X39656403Y6497380D01*
X39656401Y6497373D01*
X39650000Y6437845D01*
X39650000Y5790000D01*
X40566988Y5790000D01*
X40534075Y5732993D01*
X40500000Y5605826D01*
X40500000Y5474174D01*
X40534075Y5347007D01*
X40566988Y5290000D01*
X39650000Y5290000D01*
X39650000Y4642156D01*
X39656401Y4582628D01*
X39656403Y4582621D01*
X39706645Y4447914D01*
X39706649Y4447907D01*
X39792809Y4332813D01*
X39792812Y4332810D01*
X39907906Y4246650D01*
X39907913Y4246646D01*
X40039470Y4197579D01*
X40095403Y4155708D01*
X40119821Y4090244D01*
X40104970Y4021971D01*
X40083819Y3993716D01*
X39961503Y3871400D01*
X39825965Y3677831D01*
X39825964Y3677829D01*
X39726098Y3463665D01*
X39726094Y3463656D01*
X39664938Y3235414D01*
X39664936Y3235404D01*
X39644341Y3000001D01*
X39644341Y3000000D01*
X39650526Y2929308D01*
X39636760Y2860808D01*
X39588145Y2810625D01*
X39526998Y2794500D01*
X38879500Y2794500D01*
X38812461Y2814185D01*
X38766706Y2866989D01*
X38755500Y2918500D01*
X38755500Y3990000D01*
X38755500Y3990001D01*
X38750355Y4061940D01*
X38748184Y4069332D01*
X38739239Y4099796D01*
X38709819Y4199992D01*
X38662319Y4273903D01*
X38632032Y4321031D01*
X38632028Y4321035D01*
X38523299Y4415250D01*
X38523297Y4415252D01*
X38523294Y4415254D01*
X38392416Y4475024D01*
X38392413Y4475025D01*
X38392412Y4475025D01*
X38360851Y4479563D01*
X38297296Y4508589D01*
X38259522Y4567368D01*
X38254500Y4602301D01*
X38254500Y4777481D01*
X38274185Y4844520D01*
X38290820Y4865163D01*
X38306867Y4881210D01*
X38330472Y4904815D01*
X38418478Y5050394D01*
X38469086Y5212804D01*
X38475500Y5283384D01*
X38475500Y5796616D01*
X38469086Y5867196D01*
X38418478Y6029606D01*
X38330472Y6175185D01*
X38330470Y6175187D01*
X38330469Y6175189D01*
X38227984Y6277674D01*
X38194499Y6338997D01*
X38199483Y6408689D01*
X38227985Y6453037D01*
X38330071Y6555122D01*
X38330072Y6555123D01*
X38418019Y6700605D01*
X38468590Y6862894D01*
X38475000Y6933428D01*
X38475000Y6940000D01*
X36525001Y6940000D01*
X36525001Y6933418D01*
X36531408Y6862898D01*
X36531409Y6862893D01*
X36581981Y6700604D01*
X36669927Y6555123D01*
X36772015Y6453035D01*
X36805500Y6391712D01*
X36800516Y6322020D01*
X36772015Y6277673D01*
X36669531Y6175190D01*
X36669530Y6175189D01*
X36581522Y6029607D01*
X36530913Y5867193D01*
X36524500Y5796614D01*
X36524500Y5283387D01*
X36530913Y5212808D01*
X36530913Y5212806D01*
X36530914Y5212804D01*
X36581522Y5050394D01*
X36627330Y4974618D01*
X36669530Y4904812D01*
X36709180Y4865163D01*
X36742666Y4803840D01*
X36745500Y4777481D01*
X36745500Y4602983D01*
X36725815Y4535944D01*
X36673011Y4490189D01*
X36656436Y4484006D01*
X36597546Y4466714D01*
X36540008Y4449819D01*
X36540006Y4449818D01*
X36540005Y4449818D01*
X36418969Y4372033D01*
X36418965Y4372029D01*
X36324750Y4263300D01*
X36324744Y4263291D01*
X36264976Y4132420D01*
X36264975Y4132415D01*
X36244500Y3990001D01*
X32948929Y3990001D01*
X32912549Y4099787D01*
X32912545Y4099793D01*
X32912544Y4099796D01*
X32824283Y4242888D01*
X32824280Y4242892D01*
X32705392Y4361780D01*
X32705391Y4361781D01*
X32686400Y4373495D01*
X32639678Y4425443D01*
X32627500Y4479032D01*
X32627500Y4624608D01*
X32647185Y4691647D01*
X32687349Y4730724D01*
X32710185Y4744528D01*
X32830472Y4864815D01*
X32918478Y5010394D01*
X32969086Y5172804D01*
X32975500Y5243384D01*
X32975500Y5756616D01*
X32969086Y5827196D01*
X32918478Y5989606D01*
X32830472Y6135185D01*
X32830470Y6135187D01*
X32830469Y6135189D01*
X32728339Y6237319D01*
X32694854Y6298642D01*
X32699838Y6368334D01*
X32728339Y6412681D01*
X32830468Y6514811D01*
X32830469Y6514812D01*
X32830472Y6514815D01*
X32918478Y6660394D01*
X32969086Y6822804D01*
X32975500Y6893384D01*
X32975500Y7406616D01*
X32971869Y7446573D01*
X36525000Y7446573D01*
X36525000Y7440000D01*
X37250000Y7440000D01*
X37750000Y7440000D01*
X38474999Y7440000D01*
X38474999Y7446583D01*
X38468591Y7517103D01*
X38468590Y7517108D01*
X38418018Y7679397D01*
X38330072Y7824878D01*
X38209877Y7945073D01*
X38064395Y8033020D01*
X38064396Y8033020D01*
X37902105Y8083591D01*
X37902106Y8083591D01*
X37831572Y8090000D01*
X37750000Y8090000D01*
X37750000Y7440000D01*
X37250000Y7440000D01*
X37250000Y8090000D01*
X37249999Y8090001D01*
X37168417Y8090000D01*
X37097897Y8083592D01*
X37097892Y8083591D01*
X36935603Y8033019D01*
X36790122Y7945073D01*
X36669927Y7824878D01*
X36581980Y7679396D01*
X36531409Y7517107D01*
X36525000Y7446573D01*
X32971869Y7446573D01*
X32969086Y7477196D01*
X32918478Y7639606D01*
X32830472Y7785185D01*
X32830470Y7785187D01*
X32830469Y7785189D01*
X32710188Y7905470D01*
X32695166Y7914551D01*
X32564606Y7993478D01*
X32402196Y8044086D01*
X32402194Y8044087D01*
X32402192Y8044087D01*
X32352778Y8048577D01*
X32331616Y8050500D01*
X31668384Y8050500D01*
X31597804Y8044086D01*
X31544442Y8027458D01*
X31475354Y8005930D01*
X31405494Y8004780D01*
X31350784Y8036635D01*
X30825852Y8561567D01*
X30792367Y8622890D01*
X30790314Y8635352D01*
X30785368Y8679255D01*
X30785367Y8679258D01*
X30783818Y8686047D01*
X30786105Y8686570D01*
X30783103Y8745317D01*
X30817828Y8805946D01*
X30879820Y8838177D01*
X30903708Y8840500D01*
X43804288Y8840500D01*
X43804308Y8840499D01*
X43830543Y8840499D01*
X43897582Y8820814D01*
X43943337Y8768010D01*
X43953281Y8698852D01*
X43945104Y8669046D01*
X43909752Y8583700D01*
X43850042Y8334990D01*
X43829975Y8080000D01*
X43850042Y7825011D01*
X43909752Y7576298D01*
X44007634Y7339988D01*
X44007636Y7339985D01*
X44141277Y7121902D01*
X44141284Y7121893D01*
X44144533Y7118088D01*
X44705884Y7679439D01*
X44706740Y7677374D01*
X44799762Y7538156D01*
X44918156Y7419762D01*
X45057374Y7326740D01*
X45059437Y7325886D01*
X44498087Y6764535D01*
X44501897Y6761281D01*
X44719984Y6627637D01*
X44719987Y6627635D01*
X44956297Y6529753D01*
X45205011Y6470043D01*
X45205010Y6470043D01*
X45460000Y6449976D01*
X45714989Y6470043D01*
X45963702Y6529753D01*
X46200012Y6627635D01*
X46200015Y6627637D01*
X46418095Y6761276D01*
X46418110Y6761287D01*
X46421911Y6764534D01*
X46421911Y6764536D01*
X45860562Y7325886D01*
X45862626Y7326740D01*
X46001844Y7419762D01*
X46120238Y7538156D01*
X46213260Y7677374D01*
X46214114Y7679438D01*
X46775464Y7118089D01*
X46775466Y7118089D01*
X46778713Y7121890D01*
X46778724Y7121905D01*
X46912363Y7339985D01*
X46912365Y7339988D01*
X47010247Y7576298D01*
X47069957Y7825011D01*
X47090024Y8080000D01*
X48909975Y8080000D01*
X48930042Y7825011D01*
X48989752Y7576298D01*
X49087634Y7339988D01*
X49087636Y7339985D01*
X49221277Y7121902D01*
X49221284Y7121893D01*
X49224533Y7118088D01*
X49785884Y7679440D01*
X49786740Y7677374D01*
X49879762Y7538156D01*
X49998156Y7419762D01*
X50137374Y7326740D01*
X50139437Y7325886D01*
X49578087Y6764535D01*
X49581897Y6761281D01*
X49799984Y6627637D01*
X49799987Y6627635D01*
X50036297Y6529753D01*
X50285011Y6470043D01*
X50285010Y6470043D01*
X50540000Y6449976D01*
X50794989Y6470043D01*
X51043702Y6529753D01*
X51280012Y6627635D01*
X51280015Y6627637D01*
X51498095Y6761276D01*
X51498110Y6761287D01*
X51501911Y6764534D01*
X51501911Y6764536D01*
X50940562Y7325886D01*
X50942626Y7326740D01*
X51081844Y7419762D01*
X51200238Y7538156D01*
X51293260Y7677374D01*
X51294114Y7679439D01*
X51855464Y7118089D01*
X51855466Y7118089D01*
X51858713Y7121890D01*
X51858724Y7121905D01*
X51992363Y7339985D01*
X51992365Y7339988D01*
X52090247Y7576298D01*
X52149957Y7825011D01*
X52170024Y8080000D01*
X52149957Y8334990D01*
X52090247Y8583703D01*
X51992365Y8820013D01*
X51992363Y8820016D01*
X51858719Y9038103D01*
X51855465Y9041913D01*
X51294114Y8480563D01*
X51293260Y8482626D01*
X51200238Y8621844D01*
X51081844Y8740238D01*
X50942626Y8833260D01*
X50940561Y8834116D01*
X51501912Y9395467D01*
X51498107Y9398716D01*
X51498098Y9398723D01*
X51280015Y9532364D01*
X51280012Y9532366D01*
X51043702Y9630248D01*
X50794988Y9689958D01*
X50794989Y9689958D01*
X50540000Y9710025D01*
X50285010Y9689958D01*
X50036297Y9630248D01*
X49799987Y9532366D01*
X49799984Y9532364D01*
X49581893Y9398718D01*
X49578086Y9395468D01*
X50139438Y8834116D01*
X50137374Y8833260D01*
X49998156Y8740238D01*
X49879762Y8621844D01*
X49786740Y8482626D01*
X49785884Y8480562D01*
X49224532Y9041914D01*
X49221282Y9038107D01*
X49087636Y8820016D01*
X49087634Y8820013D01*
X48989752Y8583703D01*
X48930042Y8334990D01*
X48909975Y8080000D01*
X47090024Y8080000D01*
X47069957Y8334990D01*
X47010247Y8583703D01*
X46912365Y8820013D01*
X46912363Y8820016D01*
X46778719Y9038103D01*
X46775465Y9041913D01*
X46214114Y8480563D01*
X46213260Y8482626D01*
X46120238Y8621844D01*
X46001844Y8740238D01*
X45862626Y8833260D01*
X45860561Y8834116D01*
X46421912Y9395467D01*
X46418107Y9398716D01*
X46418098Y9398723D01*
X46200015Y9532364D01*
X46200012Y9532366D01*
X45963702Y9630248D01*
X45714988Y9689958D01*
X45714989Y9689958D01*
X45459998Y9710025D01*
X45454517Y9709594D01*
X45386141Y9723964D01*
X45336389Y9773020D01*
X45321056Y9841187D01*
X45345010Y9906822D01*
X45357105Y9920880D01*
X54083789Y18647563D01*
X54145110Y18681046D01*
X54158848Y18683236D01*
X54172708Y18684651D01*
X54333697Y18737997D01*
X54478044Y18827032D01*
X54487668Y18836657D01*
X54548987Y18870144D01*
X54618679Y18865165D01*
X54663034Y18836661D01*
X54672267Y18827428D01*
X54672271Y18827425D01*
X54816507Y18738458D01*
X54816518Y18738453D01*
X54977393Y18685145D01*
X55076683Y18675001D01*
X55600000Y18675001D01*
X55623308Y18675001D01*
X55623322Y18675002D01*
X55722607Y18685145D01*
X55883481Y18738453D01*
X55883492Y18738458D01*
X56027728Y18827425D01*
X56027732Y18827428D01*
X56147572Y18947268D01*
X56147575Y18947272D01*
X56236542Y19091508D01*
X56236547Y19091519D01*
X56289855Y19252394D01*
X56299999Y19351678D01*
X56300000Y19351691D01*
X56300000Y19400000D01*
X55600000Y19400000D01*
X55600000Y18675001D01*
X55076683Y18675001D01*
X55100000Y18675002D01*
X55100000Y19900000D01*
X55600000Y19900000D01*
X56299999Y19900000D01*
X56299999Y19948308D01*
X56299998Y19948323D01*
X56289855Y20047608D01*
X56236547Y20208482D01*
X56236542Y20208493D01*
X56147575Y20352729D01*
X56147572Y20352733D01*
X56027732Y20472573D01*
X56027728Y20472576D01*
X55911183Y20544462D01*
X55864458Y20596410D01*
X55853237Y20665372D01*
X55881080Y20729454D01*
X55911183Y20755538D01*
X56027728Y20827425D01*
X56027732Y20827428D01*
X56147572Y20947268D01*
X56147575Y20947272D01*
X56236542Y21091508D01*
X56236547Y21091519D01*
X56289855Y21252394D01*
X56299999Y21351678D01*
X56300000Y21351691D01*
X56300000Y21400000D01*
X55600000Y21400000D01*
X55600000Y19900000D01*
X55100000Y19900000D01*
X55100000Y21776000D01*
X55119685Y21843039D01*
X55172489Y21888794D01*
X55224000Y21900000D01*
X56299999Y21900000D01*
X56299999Y21948308D01*
X56299998Y21948323D01*
X56289855Y22047608D01*
X56236547Y22208482D01*
X56236542Y22208493D01*
X56147575Y22352729D01*
X56147572Y22352733D01*
X56027732Y22472573D01*
X56022065Y22477054D01*
X56023544Y22478925D01*
X55984433Y22522404D01*
X55973208Y22591366D01*
X56001048Y22655449D01*
X56059115Y22694308D01*
X56096252Y22700000D01*
X56600000Y22700000D01*
X56600000Y28600000D01*
X55327155Y28600000D01*
X55267627Y28593599D01*
X55267620Y28593597D01*
X55132913Y28543355D01*
X55132906Y28543351D01*
X55017814Y28457192D01*
X55017809Y28457187D01*
X54978884Y28405189D01*
X54922950Y28363318D01*
X54879617Y28355500D01*
X53799500Y28355500D01*
X53732461Y28375185D01*
X53686706Y28427989D01*
X53675500Y28479500D01*
X53675500Y29557114D01*
X53695185Y29624153D01*
X53711819Y29644795D01*
X54015347Y29948323D01*
X57350000Y29948323D01*
X57350000Y29900000D01*
X58050000Y29900000D01*
X58050000Y31400000D01*
X57350001Y31400000D01*
X57350001Y31351678D01*
X57360144Y31252393D01*
X57413452Y31091519D01*
X57413457Y31091508D01*
X57502424Y30947272D01*
X57502427Y30947268D01*
X57622267Y30827428D01*
X57622271Y30827425D01*
X57738816Y30755538D01*
X57785541Y30703590D01*
X57796762Y30634627D01*
X57768919Y30570545D01*
X57738816Y30544462D01*
X57622271Y30472576D01*
X57622267Y30472573D01*
X57502427Y30352733D01*
X57502424Y30352729D01*
X57413457Y30208493D01*
X57413452Y30208482D01*
X57360144Y30047607D01*
X57350000Y29948323D01*
X54015347Y29948323D01*
X56776205Y32709181D01*
X56837528Y32742666D01*
X56863886Y32745500D01*
X57627514Y32745500D01*
X57694553Y32725815D01*
G37*
%TD.AperFunction*%
%TA.AperFunction,Conductor*%
G36*
X73505394Y39499028D02*
G01*
X73535721Y39496375D01*
X73662755Y39485261D01*
X73684035Y39481509D01*
X73801188Y39450118D01*
X73831369Y39442031D01*
X73851681Y39434638D01*
X73989915Y39370178D01*
X74008633Y39359371D01*
X74133582Y39271881D01*
X74150140Y39257987D01*
X74257986Y39150141D01*
X74271880Y39133583D01*
X74359370Y39008634D01*
X74370177Y38989916D01*
X74434637Y38851682D01*
X74442030Y38831370D01*
X74481507Y38684039D01*
X74485260Y38662754D01*
X74499028Y38505395D01*
X74499500Y38494587D01*
X74499500Y27666089D01*
X74479815Y27599050D01*
X74427011Y27553295D01*
X74357853Y27543351D01*
X74294297Y27572376D01*
X74287819Y27578408D01*
X72890959Y28975268D01*
X72857474Y29036591D01*
X72855113Y29073763D01*
X72855659Y29080000D01*
X72835063Y29315408D01*
X72773903Y29543663D01*
X72674035Y29757829D01*
X72671172Y29761919D01*
X72538494Y29951403D01*
X72371402Y30118494D01*
X72371395Y30118499D01*
X72177834Y30254033D01*
X72177830Y30254035D01*
X72125590Y30278395D01*
X71963663Y30353903D01*
X71963659Y30353904D01*
X71963655Y30353906D01*
X71735413Y30415062D01*
X71735403Y30415064D01*
X71500001Y30435659D01*
X71499999Y30435659D01*
X71264596Y30415064D01*
X71264586Y30415062D01*
X71036344Y30353906D01*
X71036339Y30353904D01*
X70970904Y30323391D01*
X70901826Y30312900D01*
X70838043Y30341420D01*
X70799804Y30399897D01*
X70794500Y30435774D01*
X70794500Y31534313D01*
X70794499Y31534317D01*
X70793459Y31539543D01*
X70765505Y31680080D01*
X70708629Y31817390D01*
X70701866Y31827511D01*
X70626060Y31940965D01*
X70626054Y31940972D01*
X70516647Y32050379D01*
X70516624Y32050400D01*
X66452284Y36114742D01*
X69249500Y36114742D01*
X69249500Y35885259D01*
X69259602Y35808533D01*
X69279452Y35657762D01*
X69306543Y35556655D01*
X69338842Y35436113D01*
X69426650Y35224124D01*
X69426657Y35224110D01*
X69541392Y35025383D01*
X69681081Y34843339D01*
X69681089Y34843330D01*
X69843330Y34681089D01*
X69843338Y34681082D01*
X69843339Y34681081D01*
X69893962Y34642236D01*
X70025382Y34541393D01*
X70025385Y34541392D01*
X70025388Y34541389D01*
X70224112Y34426656D01*
X70224117Y34426654D01*
X70224123Y34426651D01*
X70298501Y34395843D01*
X70436113Y34338842D01*
X70657762Y34279452D01*
X70885266Y34249500D01*
X70885273Y34249500D01*
X71114727Y34249500D01*
X71114734Y34249500D01*
X71342238Y34279452D01*
X71563887Y34338842D01*
X71775888Y34426656D01*
X71974612Y34541389D01*
X72156661Y34681081D01*
X72156665Y34681086D01*
X72156670Y34681089D01*
X72318911Y34843330D01*
X72318914Y34843335D01*
X72318919Y34843339D01*
X72458611Y35025388D01*
X72573344Y35224112D01*
X72661158Y35436113D01*
X72720548Y35657762D01*
X72750500Y35885266D01*
X72750500Y36114734D01*
X72720548Y36342238D01*
X72661158Y36563887D01*
X72592191Y36730388D01*
X72573349Y36775877D01*
X72573346Y36775883D01*
X72573344Y36775888D01*
X72458611Y36974612D01*
X72458608Y36974615D01*
X72458607Y36974618D01*
X72318918Y37156662D01*
X72318911Y37156670D01*
X72156670Y37318911D01*
X72156661Y37318919D01*
X71974617Y37458608D01*
X71775890Y37573343D01*
X71775876Y37573350D01*
X71563887Y37661158D01*
X71342238Y37720548D01*
X71283099Y37728334D01*
X71114741Y37750500D01*
X71114734Y37750500D01*
X70885266Y37750500D01*
X70885258Y37750500D01*
X70668715Y37721991D01*
X70657762Y37720548D01*
X70635213Y37714506D01*
X70436112Y37661158D01*
X70224123Y37573350D01*
X70224109Y37573343D01*
X70025382Y37458608D01*
X69843338Y37318919D01*
X69681081Y37156662D01*
X69541392Y36974618D01*
X69426657Y36775891D01*
X69426650Y36775877D01*
X69338842Y36563888D01*
X69279453Y36342241D01*
X69279451Y36342230D01*
X69249500Y36114742D01*
X66452284Y36114742D01*
X66230969Y36336057D01*
X66230968Y36336058D01*
X66107392Y36418628D01*
X66107391Y36418629D01*
X66107389Y36418630D01*
X66107386Y36418632D01*
X66107381Y36418634D01*
X66005380Y36460883D01*
X65970080Y36475505D01*
X65945894Y36480316D01*
X65824314Y36504501D01*
X65824312Y36504501D01*
X65675688Y36504501D01*
X65669574Y36504501D01*
X65669554Y36504500D01*
X62702104Y36504500D01*
X62635065Y36524185D01*
X62623439Y36532647D01*
X62558539Y36585910D01*
X62558532Y36585914D01*
X62384733Y36678812D01*
X62384727Y36678814D01*
X62214718Y36730386D01*
X62196129Y36736025D01*
X62000000Y36755341D01*
X61803870Y36736025D01*
X61615266Y36678812D01*
X61441467Y36585914D01*
X61441460Y36585910D01*
X61289116Y36460884D01*
X61164090Y36308540D01*
X61164086Y36308533D01*
X61071188Y36134734D01*
X61013975Y35946130D01*
X60994659Y35750000D01*
X61013975Y35553871D01*
X61013976Y35553868D01*
X61055564Y35416770D01*
X61071188Y35365267D01*
X61164086Y35191468D01*
X61164090Y35191461D01*
X61289116Y35039117D01*
X61441460Y34914091D01*
X61441467Y34914087D01*
X61615266Y34821189D01*
X61615269Y34821189D01*
X61615273Y34821186D01*
X61803868Y34763976D01*
X62000000Y34744659D01*
X62196132Y34763976D01*
X62384727Y34821186D01*
X62426156Y34843330D01*
X62558532Y34914087D01*
X62558538Y34914090D01*
X62623439Y34967353D01*
X62687749Y34994666D01*
X62702104Y34995500D01*
X65386113Y34995500D01*
X65453152Y34975815D01*
X65473794Y34959181D01*
X69249181Y31183795D01*
X69282666Y31122472D01*
X69285500Y31096114D01*
X69285500Y27123091D01*
X69265815Y27056052D01*
X69249181Y27035410D01*
X67312180Y25098409D01*
X67250857Y25064924D01*
X67181165Y25069908D01*
X67125232Y25111780D01*
X67100815Y25177244D01*
X67100499Y25186090D01*
X67100499Y26147871D01*
X67100498Y26147877D01*
X67100497Y26147884D01*
X67094895Y26200000D01*
X67094091Y26207484D01*
X67043797Y26342329D01*
X67043793Y26342336D01*
X66957547Y26457545D01*
X66957544Y26457548D01*
X66842335Y26543794D01*
X66842329Y26543797D01*
X66835163Y26546470D01*
X66779231Y26588343D01*
X66754816Y26653808D01*
X66754500Y26662651D01*
X66754500Y27669554D01*
X66754501Y27669575D01*
X66754501Y27824315D01*
X66726874Y27963197D01*
X66726874Y27963198D01*
X66726446Y27965350D01*
X66725505Y27970080D01*
X66695920Y28041505D01*
X66694257Y28045519D01*
X66668631Y28107387D01*
X66667899Y28108482D01*
X66609747Y28195514D01*
X66586059Y28230966D01*
X66586057Y28230969D01*
X66476647Y28340379D01*
X66476624Y28340400D01*
X66336818Y28480206D01*
X66303333Y28541529D01*
X66300499Y28567887D01*
X66300499Y28932114D01*
X66320184Y28999153D01*
X66336812Y29019790D01*
X66480963Y29163940D01*
X66480966Y29163941D01*
X66586059Y29269034D01*
X66668629Y29392610D01*
X66668630Y29392611D01*
X66722557Y29522804D01*
X66725505Y29529920D01*
X66731197Y29558538D01*
X66754501Y29675688D01*
X66754501Y29824312D01*
X66754501Y29829422D01*
X66754500Y29829448D01*
X66754500Y31253640D01*
X66772382Y31317789D01*
X66843478Y31435394D01*
X66894086Y31597804D01*
X66900500Y31668384D01*
X66900500Y32331616D01*
X66894086Y32402196D01*
X66843478Y32564606D01*
X66755472Y32710185D01*
X66755470Y32710187D01*
X66755469Y32710189D01*
X66635188Y32830470D01*
X66603705Y32849502D01*
X66489606Y32918478D01*
X66327196Y32969086D01*
X66327194Y32969087D01*
X66327192Y32969087D01*
X66277778Y32973577D01*
X66256616Y32975500D01*
X66256613Y32975500D01*
X66142886Y32975500D01*
X66075847Y32995185D01*
X66055205Y33011819D01*
X64980969Y34086057D01*
X64980968Y34086058D01*
X64915119Y34130056D01*
X64857389Y34168630D01*
X64857386Y34168632D01*
X64857385Y34168632D01*
X64776955Y34201947D01*
X64720080Y34225505D01*
X64720070Y34225507D01*
X64695894Y34230316D01*
X64574314Y34254501D01*
X64574312Y34254501D01*
X64425688Y34254501D01*
X64419574Y34254501D01*
X64419554Y34254500D01*
X56425683Y34254500D01*
X56279927Y34225507D01*
X56279919Y34225505D01*
X56142608Y34168629D01*
X56019035Y34086061D01*
X56019034Y34086060D01*
X55970152Y34037177D01*
X55913941Y33980966D01*
X55913939Y33980964D01*
X52899300Y30966327D01*
X52837977Y30932842D01*
X52768285Y30937826D01*
X52712352Y30979698D01*
X52687935Y31045162D01*
X52702787Y31113435D01*
X52706627Y31119982D01*
X52725787Y31150475D01*
X52725786Y31150475D01*
X52725789Y31150478D01*
X52785368Y31320745D01*
X52785369Y31320751D01*
X52805565Y31499997D01*
X52805565Y31500004D01*
X52785369Y31679250D01*
X52785368Y31679255D01*
X52731607Y31832894D01*
X52725789Y31849522D01*
X52706440Y31880315D01*
X52662015Y31951017D01*
X52629816Y32002262D01*
X52502262Y32129816D01*
X52349522Y32225789D01*
X52349519Y32225790D01*
X52343626Y32229493D01*
X52344130Y32230296D01*
X52318639Y32248385D01*
X46026969Y38540057D01*
X46026968Y38540058D01*
X45985773Y38567583D01*
X45903389Y38622630D01*
X45903386Y38622632D01*
X45903385Y38622632D01*
X45822955Y38655947D01*
X45766080Y38679505D01*
X45741894Y38684316D01*
X45620314Y38708501D01*
X45620312Y38708501D01*
X45471688Y38708501D01*
X45465574Y38708501D01*
X45465554Y38708500D01*
X41984446Y38708500D01*
X41984426Y38708501D01*
X41978312Y38708501D01*
X41829688Y38708501D01*
X41829686Y38708501D01*
X41708105Y38684316D01*
X41693540Y38681419D01*
X41683918Y38679505D01*
X41683917Y38679505D01*
X41627045Y38655948D01*
X41627045Y38655947D01*
X41567108Y38631120D01*
X41546609Y38622629D01*
X41423033Y38540059D01*
X41388370Y38505395D01*
X41317941Y38434966D01*
X41317939Y38434964D01*
X40644793Y37761819D01*
X40583470Y37728334D01*
X40557112Y37725500D01*
X40149998Y37725500D01*
X40149980Y37725499D01*
X40047203Y37715000D01*
X40047200Y37714999D01*
X39880668Y37659815D01*
X39880663Y37659813D01*
X39731342Y37567711D01*
X39607288Y37443657D01*
X39607283Y37443651D01*
X39605241Y37440339D01*
X39603247Y37438547D01*
X39602807Y37437989D01*
X39602711Y37438065D01*
X39553291Y37393617D01*
X39484328Y37382398D01*
X39420247Y37410245D01*
X39394168Y37440344D01*
X39392319Y37443341D01*
X39392316Y37443345D01*
X39268345Y37567316D01*
X39119124Y37659357D01*
X39119119Y37659359D01*
X38952697Y37714506D01*
X38952690Y37714507D01*
X38849986Y37725000D01*
X38800000Y37725000D01*
X38800000Y35275001D01*
X38849972Y35275001D01*
X38849986Y35275002D01*
X38952697Y35285495D01*
X39119119Y35340642D01*
X39119124Y35340644D01*
X39268345Y35432685D01*
X39392318Y35556658D01*
X39394165Y35559652D01*
X39395969Y35561276D01*
X39396798Y35562323D01*
X39396976Y35562182D01*
X39446110Y35606379D01*
X39515073Y35617604D01*
X39579156Y35589764D01*
X39605243Y35559659D01*
X39607288Y35556344D01*
X39607289Y35556343D01*
X39659181Y35504451D01*
X39692666Y35443128D01*
X39695500Y35416770D01*
X39695500Y35052949D01*
X39675815Y34985910D01*
X39623011Y34940155D01*
X39553853Y34930211D01*
X39506403Y34947410D01*
X39483486Y34961546D01*
X39483481Y34961548D01*
X39322606Y35014856D01*
X39223322Y35025000D01*
X39200000Y35025000D01*
X39200000Y33924000D01*
X39180315Y33856961D01*
X39127511Y33811206D01*
X39076000Y33800000D01*
X38000001Y33800000D01*
X38000001Y33751678D01*
X38010144Y33652393D01*
X38063452Y33491519D01*
X38063457Y33491508D01*
X38152424Y33347272D01*
X38152427Y33347268D01*
X38272268Y33227427D01*
X38349850Y33179573D01*
X38396574Y33127625D01*
X38407795Y33058662D01*
X38379951Y32994580D01*
X38372433Y32986354D01*
X37928228Y32542147D01*
X37797492Y32411411D01*
X37770815Y32384734D01*
X37710086Y32324006D01*
X37710085Y32324004D01*
X37641423Y32221244D01*
X37641414Y32221227D01*
X37635295Y32206457D01*
X37635296Y32206456D01*
X37601970Y32126000D01*
X37594114Y32107035D01*
X37575328Y32012589D01*
X37573274Y32002263D01*
X37570000Y31985804D01*
X37570000Y31964000D01*
X37550315Y31896961D01*
X37497511Y31851206D01*
X37446000Y31840000D01*
X35311281Y31840000D01*
X35244242Y31859685D01*
X35223600Y31876319D01*
X35163819Y31936100D01*
X35130334Y31997423D01*
X35127500Y32023781D01*
X35127500Y33061805D01*
X35120576Y33096613D01*
X35120576Y33096614D01*
X35103386Y33183034D01*
X35075676Y33249930D01*
X35071230Y33260663D01*
X35068098Y33268224D01*
X35056083Y33297233D01*
X35054562Y33299509D01*
X34987414Y33400004D01*
X34987413Y33400006D01*
X34944027Y33443392D01*
X34900008Y33487411D01*
X34039096Y34348323D01*
X38000000Y34348323D01*
X38000000Y34300000D01*
X38700000Y34300000D01*
X38700000Y35025001D01*
X38676693Y35025000D01*
X38676674Y35024999D01*
X38577392Y35014856D01*
X38416518Y34961548D01*
X38416507Y34961543D01*
X38272271Y34872576D01*
X38272267Y34872573D01*
X38152427Y34752733D01*
X38152424Y34752729D01*
X38063457Y34608493D01*
X38063452Y34608482D01*
X38010144Y34447607D01*
X38000000Y34348323D01*
X34039096Y34348323D01*
X33348302Y35039117D01*
X32412406Y35975014D01*
X37550001Y35975014D01*
X37560494Y35872303D01*
X37615641Y35705881D01*
X37615643Y35705876D01*
X37707684Y35556655D01*
X37831654Y35432685D01*
X37980875Y35340644D01*
X37980880Y35340642D01*
X38147302Y35285495D01*
X38147309Y35285494D01*
X38250019Y35275001D01*
X38299999Y35275002D01*
X38300000Y35275002D01*
X38300000Y36250000D01*
X37550001Y36250000D01*
X37550001Y35975014D01*
X32412406Y35975014D01*
X31773011Y36614409D01*
X31773007Y36614412D01*
X31670239Y36683080D01*
X31670226Y36683087D01*
X31636785Y36696938D01*
X31556035Y36730386D01*
X31556027Y36730388D01*
X31434807Y36754500D01*
X31434803Y36754500D01*
X26838803Y36754500D01*
X26715197Y36754500D01*
X26715192Y36754500D01*
X26593972Y36730388D01*
X26593964Y36730386D01*
X26513215Y36696938D01*
X26479777Y36683087D01*
X26479767Y36683083D01*
X26479763Y36683080D01*
X26376989Y36614410D01*
X26099398Y36336819D01*
X26038075Y36303334D01*
X26011717Y36300500D01*
X25701663Y36300500D01*
X25701644Y36300499D01*
X25602292Y36290350D01*
X25602289Y36290349D01*
X25441305Y36237004D01*
X25441294Y36236999D01*
X25296959Y36147971D01*
X25296955Y36147968D01*
X25177031Y36028044D01*
X25174299Y36024588D01*
X25117277Y35984212D01*
X25077034Y35977500D01*
X24889519Y35977500D01*
X24822480Y35997185D01*
X24801842Y36013815D01*
X24710185Y36105472D01*
X24564606Y36193478D01*
X24402196Y36244086D01*
X24402194Y36244087D01*
X24402192Y36244087D01*
X24352778Y36248577D01*
X24331616Y36250500D01*
X23668384Y36250500D01*
X23649145Y36248752D01*
X23597807Y36244087D01*
X23435393Y36193478D01*
X23289811Y36105470D01*
X23169530Y35985189D01*
X23081522Y35839607D01*
X23030913Y35677193D01*
X23024500Y35606614D01*
X23024500Y35093387D01*
X23030913Y35022808D01*
X23030913Y35022806D01*
X23030914Y35022804D01*
X23081522Y34860394D01*
X23169342Y34715122D01*
X23169530Y34714812D01*
X23271661Y34612681D01*
X23305146Y34551358D01*
X23300162Y34481666D01*
X23271661Y34437319D01*
X23169531Y34335190D01*
X23169530Y34335189D01*
X23081522Y34189607D01*
X23030913Y34027193D01*
X23024500Y33956614D01*
X23024500Y33443387D01*
X23030913Y33372808D01*
X23030913Y33372806D01*
X23030914Y33372804D01*
X23081522Y33210394D01*
X23166595Y33069666D01*
X23169530Y33064812D01*
X23289811Y32944531D01*
X23289813Y32944530D01*
X23289815Y32944528D01*
X23312650Y32930724D01*
X23359837Y32879199D01*
X23372500Y32824608D01*
X23372500Y32375394D01*
X23352815Y32308355D01*
X23312652Y32269278D01*
X23289813Y32255471D01*
X23289811Y32255470D01*
X23169530Y32135189D01*
X23081522Y31989607D01*
X23030913Y31827193D01*
X23024500Y31756614D01*
X23024500Y31662281D01*
X23004815Y31595242D01*
X22952011Y31549487D01*
X22882853Y31539543D01*
X22819297Y31568568D01*
X22812819Y31574600D01*
X22536238Y31851181D01*
X22502753Y31912504D01*
X22500516Y31951014D01*
X22505341Y32000000D01*
X22486024Y32196132D01*
X22428814Y32384727D01*
X22428811Y32384731D01*
X22428811Y32384734D01*
X22335913Y32558533D01*
X22335909Y32558540D01*
X22210883Y32710884D01*
X22058539Y32835910D01*
X22058532Y32835914D01*
X21884733Y32928812D01*
X21884727Y32928814D01*
X21751969Y32969086D01*
X21696129Y32986025D01*
X21500000Y33005341D01*
X21303870Y32986025D01*
X21115266Y32928812D01*
X20941467Y32835914D01*
X20941460Y32835910D01*
X20789116Y32710884D01*
X20664090Y32558540D01*
X20664086Y32558533D01*
X20571188Y32384734D01*
X20513975Y32196130D01*
X20494659Y32000000D01*
X20513975Y31803871D01*
X20513976Y31803868D01*
X20560441Y31650693D01*
X20571188Y31615267D01*
X20664086Y31441468D01*
X20664090Y31441461D01*
X20789116Y31289117D01*
X20941460Y31164091D01*
X20941467Y31164087D01*
X21115266Y31071189D01*
X21115269Y31071189D01*
X21115273Y31071186D01*
X21303868Y31013976D01*
X21500000Y30994659D01*
X21548984Y30999484D01*
X21617629Y30986466D01*
X21648819Y30963762D01*
X22993283Y29619298D01*
X23026768Y29557975D01*
X23029093Y29542842D01*
X23030914Y29522804D01*
X23081522Y29360394D01*
X23166595Y29219666D01*
X23169530Y29214812D01*
X23289811Y29094531D01*
X23289813Y29094530D01*
X23289815Y29094528D01*
X23435394Y29006522D01*
X23597804Y28955914D01*
X23668384Y28949500D01*
X23668387Y28949500D01*
X24331613Y28949500D01*
X24331616Y28949500D01*
X24402196Y28955914D01*
X24564606Y29006522D01*
X24710185Y29094528D01*
X24801839Y29186183D01*
X24863160Y29219666D01*
X24889519Y29222500D01*
X25110481Y29222500D01*
X25177520Y29202815D01*
X25198157Y29186186D01*
X25289815Y29094528D01*
X25435394Y29006522D01*
X25597804Y28955914D01*
X25668384Y28949500D01*
X25961719Y28949500D01*
X26028758Y28929815D01*
X26049400Y28913181D01*
X26387281Y28575300D01*
X26420766Y28513977D01*
X26423600Y28487619D01*
X26423600Y27426067D01*
X26403915Y27359028D01*
X26351111Y27313273D01*
X26281953Y27303329D01*
X26218397Y27332354D01*
X26211919Y27338386D01*
X26202732Y27347573D01*
X26202728Y27347576D01*
X26058492Y27436543D01*
X26058481Y27436548D01*
X25897606Y27489856D01*
X25798322Y27500000D01*
X25750000Y27500000D01*
X25750000Y26424000D01*
X25730315Y26356961D01*
X25677511Y26311206D01*
X25626000Y26300000D01*
X23374000Y26300000D01*
X23306961Y26319685D01*
X23261206Y26372489D01*
X23250000Y26424000D01*
X23250000Y27500000D01*
X23750000Y27500000D01*
X23750000Y26800000D01*
X25250000Y26800000D01*
X25250000Y27500000D01*
X25249999Y27500001D01*
X25201693Y27500000D01*
X25201675Y27499999D01*
X25102392Y27489856D01*
X24941518Y27436548D01*
X24941507Y27436543D01*
X24797271Y27347576D01*
X24797267Y27347573D01*
X24677427Y27227733D01*
X24677424Y27227729D01*
X24605538Y27111184D01*
X24553590Y27064459D01*
X24484627Y27053238D01*
X24420545Y27081081D01*
X24394462Y27111184D01*
X24322575Y27227729D01*
X24322572Y27227733D01*
X24202732Y27347573D01*
X24202728Y27347576D01*
X24058492Y27436543D01*
X24058481Y27436548D01*
X23897606Y27489856D01*
X23798322Y27500000D01*
X23750000Y27500000D01*
X23250000Y27500000D01*
X23249999Y27500001D01*
X23201693Y27500000D01*
X23201675Y27499999D01*
X23102392Y27489856D01*
X22941518Y27436548D01*
X22941507Y27436543D01*
X22797271Y27347576D01*
X22797267Y27347573D01*
X22677426Y27227732D01*
X22630757Y27152070D01*
X22578808Y27105346D01*
X22509846Y27094125D01*
X22445764Y27121969D01*
X22437538Y27129487D01*
X21748385Y27818640D01*
X21730298Y27844132D01*
X21729494Y27843626D01*
X21664096Y27947705D01*
X21629816Y28002262D01*
X21502262Y28129816D01*
X21349522Y28225789D01*
X21349521Y28225790D01*
X21343627Y28229493D01*
X21344131Y28230296D01*
X21318640Y28248385D01*
X21036818Y28530207D01*
X21003333Y28591530D01*
X21000499Y28617888D01*
X21000499Y28798338D01*
X21000498Y28798356D01*
X20990349Y28897708D01*
X20990348Y28897711D01*
X20974030Y28946956D01*
X20937003Y29058697D01*
X20936999Y29058703D01*
X20936998Y29058706D01*
X20847970Y29203041D01*
X20847967Y29203045D01*
X20728044Y29322968D01*
X20728040Y29322971D01*
X20583705Y29411999D01*
X20583699Y29412002D01*
X20583697Y29412003D01*
X20552013Y29422502D01*
X20422709Y29465349D01*
X20323346Y29475500D01*
X19776662Y29475500D01*
X19776644Y29475499D01*
X19677292Y29465350D01*
X19677289Y29465349D01*
X19516305Y29412004D01*
X19516294Y29411999D01*
X19371959Y29322971D01*
X19371953Y29322967D01*
X19362324Y29313337D01*
X19301000Y29279854D01*
X19231308Y29284841D01*
X19186965Y29313340D01*
X19177732Y29322573D01*
X19177728Y29322576D01*
X19033492Y29411543D01*
X19033481Y29411548D01*
X18872606Y29464856D01*
X18773322Y29475000D01*
X18750000Y29475000D01*
X18750000Y27525001D01*
X18786319Y27488682D01*
X18784247Y27486611D01*
X18813794Y27452512D01*
X18825000Y27401001D01*
X18825000Y24374000D01*
X18805315Y24306961D01*
X18752511Y24261206D01*
X18701000Y24250000D01*
X18449000Y24250000D01*
X18381961Y24269685D01*
X18336206Y24322489D01*
X18325000Y24374000D01*
X18325000Y26250000D01*
X17625001Y26250000D01*
X17625001Y26201678D01*
X17635144Y26102393D01*
X17688452Y25941519D01*
X17688457Y25941508D01*
X17728523Y25876552D01*
X17746964Y25809160D01*
X17726042Y25742496D01*
X17672400Y25697727D01*
X17603069Y25689065D01*
X17540062Y25719261D01*
X17535304Y25723774D01*
X17502262Y25756816D01*
X17358952Y25846864D01*
X17312661Y25899199D01*
X17301704Y25965742D01*
X17305565Y26000000D01*
X17288904Y26147873D01*
X17285369Y26179250D01*
X17285368Y26179255D01*
X17254432Y26267665D01*
X17225789Y26349522D01*
X17221313Y26356645D01*
X17166782Y26443431D01*
X17129816Y26502262D01*
X17002262Y26629816D01*
X16955240Y26659362D01*
X16849523Y26725789D01*
X16679254Y26785369D01*
X16679249Y26785370D01*
X16500004Y26805565D01*
X16499996Y26805565D01*
X16320750Y26785370D01*
X16320737Y26785367D01*
X16252415Y26761459D01*
X16211460Y26754500D01*
X14731286Y26754500D01*
X14731266Y26754501D01*
X14725152Y26754501D01*
X14576528Y26754501D01*
X14576526Y26754501D01*
X14454945Y26730316D01*
X14440380Y26727419D01*
X14430758Y26725505D01*
X14430757Y26725505D01*
X14373885Y26701947D01*
X14293454Y26668632D01*
X14169871Y26586058D01*
X8959942Y21376129D01*
X8877372Y21252553D01*
X8877368Y21252546D01*
X8856749Y21202765D01*
X8820496Y21115244D01*
X8820495Y21115241D01*
X8820495Y21115240D01*
X8816441Y21094855D01*
X8815735Y21091306D01*
X8815734Y21091302D01*
X8791499Y20969474D01*
X8791499Y20814735D01*
X8791500Y20814714D01*
X8791500Y16033448D01*
X8791499Y16033422D01*
X8791499Y15879687D01*
X8806451Y15804524D01*
X8806451Y15804522D01*
X8820492Y15733928D01*
X8820494Y15733924D01*
X8820495Y15733920D01*
X8841572Y15683035D01*
X8877370Y15596611D01*
X8882048Y15589610D01*
X8959942Y15473032D01*
X8959943Y15473031D01*
X9488181Y14944795D01*
X9521666Y14883472D01*
X9524500Y14857114D01*
X9524500Y14743387D01*
X9530913Y14672808D01*
X9530913Y14672806D01*
X9530914Y14672804D01*
X9581522Y14510394D01*
X9633394Y14424587D01*
X9669530Y14364812D01*
X9789811Y14244531D01*
X9789813Y14244530D01*
X9789815Y14244528D01*
X9935394Y14156522D01*
X10097804Y14105914D01*
X10168384Y14099500D01*
X10168387Y14099500D01*
X10831613Y14099500D01*
X10831616Y14099500D01*
X10902196Y14105914D01*
X11064606Y14156522D01*
X11182211Y14227618D01*
X11246360Y14245500D01*
X11621500Y14245500D01*
X11688539Y14225815D01*
X11734294Y14173011D01*
X11745500Y14121500D01*
X11745500Y9060283D01*
X11725815Y8993244D01*
X11673011Y8947489D01*
X11657497Y8941623D01*
X11615270Y8928814D01*
X11441467Y8835914D01*
X11441460Y8835910D01*
X11289116Y8710884D01*
X11164090Y8558540D01*
X11164086Y8558533D01*
X11071188Y8384734D01*
X11013975Y8196130D01*
X11005745Y8112575D01*
X10979583Y8047788D01*
X10970023Y8037050D01*
X8223794Y5290819D01*
X8162471Y5257334D01*
X8136113Y5254500D01*
X7474901Y5254500D01*
X7407862Y5274185D01*
X7373326Y5307376D01*
X7355734Y5332499D01*
X7328495Y5371401D01*
X7161401Y5538495D01*
X7161399Y5538496D01*
X7161396Y5538499D01*
X6975842Y5668425D01*
X6932217Y5723002D01*
X6925023Y5792500D01*
X6956546Y5854855D01*
X6975842Y5871575D01*
X7144407Y5989606D01*
X7161401Y6001505D01*
X7328495Y6168599D01*
X7407985Y6282124D01*
X7462562Y6325748D01*
X7509560Y6335000D01*
X8109434Y6335000D01*
X8109436Y6335000D01*
X8245641Y6362092D01*
X8349173Y6404977D01*
X8362316Y6410421D01*
X8362319Y6410422D01*
X8373938Y6415235D01*
X8373937Y6415235D01*
X8373943Y6415237D01*
X8441275Y6460227D01*
X8489412Y6492391D01*
X10547609Y8550589D01*
X10566927Y8579500D01*
X10624763Y8666057D01*
X10661397Y8754500D01*
X10677908Y8794360D01*
X10705000Y8930564D01*
X10705000Y9069437D01*
X10705000Y9237581D01*
X10724685Y9304620D01*
X10733147Y9316246D01*
X10734610Y9318028D01*
X10835910Y9441462D01*
X10928814Y9615273D01*
X10986024Y9803868D01*
X11005341Y10000000D01*
X10986024Y10196132D01*
X10928814Y10384727D01*
X10928811Y10384731D01*
X10928811Y10384734D01*
X10835913Y10558533D01*
X10835909Y10558540D01*
X10710883Y10710884D01*
X10558539Y10835910D01*
X10558532Y10835914D01*
X10384733Y10928812D01*
X10384727Y10928814D01*
X10196132Y10986024D01*
X10196129Y10986025D01*
X10000000Y11005341D01*
X9803870Y10986025D01*
X9615266Y10928812D01*
X9441467Y10835914D01*
X9441460Y10835910D01*
X9289116Y10710884D01*
X9164090Y10558540D01*
X9164086Y10558533D01*
X9071188Y10384734D01*
X9013975Y10196130D01*
X8994659Y10000000D01*
X9013975Y9803871D01*
X9013976Y9803868D01*
X9066643Y9630248D01*
X9071188Y9615267D01*
X9164086Y9441468D01*
X9164089Y9441464D01*
X9164090Y9441462D01*
X9172804Y9430844D01*
X9219161Y9374357D01*
X9246474Y9310047D01*
X9234683Y9241179D01*
X9210989Y9208011D01*
X7784298Y7781319D01*
X7722975Y7747834D01*
X7696617Y7745000D01*
X7509560Y7745000D01*
X7442521Y7764685D01*
X7407985Y7797877D01*
X7401624Y7806961D01*
X7374297Y7845989D01*
X7328494Y7911403D01*
X7161402Y8078494D01*
X7161396Y8078499D01*
X6975842Y8208425D01*
X6932217Y8263002D01*
X6925023Y8332500D01*
X6956546Y8394855D01*
X6975842Y8411575D01*
X7102121Y8499997D01*
X7161401Y8541505D01*
X7328495Y8708599D01*
X7464035Y8902170D01*
X7563903Y9116337D01*
X7625063Y9344592D01*
X7645659Y9580000D01*
X7625063Y9815408D01*
X7563903Y10043663D01*
X7464035Y10257829D01*
X7458425Y10265842D01*
X7328494Y10451403D01*
X7161402Y10618494D01*
X7161396Y10618499D01*
X6975842Y10748425D01*
X6932217Y10803002D01*
X6925023Y10872500D01*
X6956546Y10934855D01*
X6975842Y10951575D01*
X7025040Y10986024D01*
X7161401Y11081505D01*
X7328495Y11248599D01*
X7464035Y11442170D01*
X7563903Y11656337D01*
X7625063Y11884592D01*
X7645659Y12120000D01*
X7625063Y12355408D01*
X7563903Y12583663D01*
X7464035Y12797829D01*
X7458425Y12805842D01*
X7328494Y12991403D01*
X7161402Y13158494D01*
X7161396Y13158499D01*
X6975842Y13288425D01*
X6932217Y13343002D01*
X6925023Y13412500D01*
X6956546Y13474855D01*
X6975842Y13491575D01*
X7058567Y13549500D01*
X7161401Y13621505D01*
X7328495Y13788599D01*
X7464035Y13982170D01*
X7563903Y14196337D01*
X7625063Y14424592D01*
X7645659Y14660000D01*
X7644134Y14677425D01*
X7635741Y14773356D01*
X7625063Y14895408D01*
X7563903Y15123663D01*
X7464035Y15337829D01*
X7458425Y15345842D01*
X7328494Y15531403D01*
X7161402Y15698494D01*
X7161396Y15698499D01*
X6975842Y15828425D01*
X6932217Y15883002D01*
X6925023Y15952500D01*
X6956546Y16014855D01*
X6975842Y16031575D01*
X7043332Y16078832D01*
X7161401Y16161505D01*
X7328495Y16328599D01*
X7464035Y16522170D01*
X7563903Y16736337D01*
X7625063Y16964592D01*
X7645659Y17200000D01*
X7625063Y17435408D01*
X7563903Y17663663D01*
X7464035Y17877829D01*
X7460912Y17882290D01*
X7328494Y18071403D01*
X7161402Y18238494D01*
X7161396Y18238499D01*
X6975842Y18368425D01*
X6932217Y18423002D01*
X6925023Y18492500D01*
X6956546Y18554855D01*
X6975842Y18571575D01*
X7031851Y18610793D01*
X7161401Y18701505D01*
X7328495Y18868599D01*
X7464035Y19062170D01*
X7563903Y19276337D01*
X7625063Y19504592D01*
X7645659Y19740000D01*
X7625063Y19975408D01*
X7578626Y20148715D01*
X7563905Y20203656D01*
X7563904Y20203657D01*
X7563903Y20203663D01*
X7464035Y20417829D01*
X7458425Y20425842D01*
X7328494Y20611403D01*
X7161402Y20778494D01*
X7161396Y20778499D01*
X6975842Y20908425D01*
X6932217Y20963002D01*
X6925023Y21032500D01*
X6956546Y21094855D01*
X6975842Y21111575D01*
X7015274Y21139186D01*
X7161401Y21241505D01*
X7328495Y21408599D01*
X7464035Y21602170D01*
X7563903Y21816337D01*
X7625063Y22044592D01*
X7645659Y22280000D01*
X7625063Y22515408D01*
X7568207Y22727601D01*
X7563905Y22743656D01*
X7563904Y22743657D01*
X7563903Y22743663D01*
X7464035Y22957829D01*
X7462734Y22959688D01*
X7328494Y23151403D01*
X7161402Y23318494D01*
X7161396Y23318499D01*
X6975842Y23448425D01*
X6932217Y23503002D01*
X6925023Y23572500D01*
X6956546Y23634855D01*
X6975842Y23651575D01*
X7048903Y23702733D01*
X7161401Y23781505D01*
X7328495Y23948599D01*
X7464035Y24142170D01*
X7563903Y24356337D01*
X7625063Y24584592D01*
X7645659Y24820000D01*
X7625063Y25055408D01*
X7563903Y25283663D01*
X7464035Y25497829D01*
X7463426Y25498700D01*
X7328494Y25691403D01*
X7161402Y25858494D01*
X7161396Y25858499D01*
X6975842Y25988425D01*
X6932217Y26043002D01*
X6925023Y26112500D01*
X6956546Y26174855D01*
X6975842Y26191575D01*
X7009616Y26215224D01*
X7161401Y26321505D01*
X7328495Y26488599D01*
X7464035Y26682170D01*
X7563903Y26896337D01*
X7625063Y27124592D01*
X7645659Y27360000D01*
X7645070Y27366727D01*
X7634582Y27486611D01*
X7625063Y27595408D01*
X7564089Y27822968D01*
X7563905Y27823656D01*
X7563904Y27823657D01*
X7563903Y27823663D01*
X7464035Y28037829D01*
X7461461Y28041506D01*
X7349308Y28201678D01*
X17550001Y28201678D01*
X17560144Y28102393D01*
X17613452Y27941519D01*
X17613457Y27941508D01*
X17702424Y27797272D01*
X17702427Y27797268D01*
X17822267Y27677428D01*
X17822271Y27677425D01*
X17972663Y27584661D01*
X17971619Y27582970D01*
X18016567Y27543399D01*
X18035723Y27476207D01*
X18015511Y27409324D01*
X17976825Y27371645D01*
X17897268Y27322574D01*
X17777427Y27202733D01*
X17777424Y27202729D01*
X17688457Y27058493D01*
X17688452Y27058482D01*
X17635144Y26897607D01*
X17625001Y26798330D01*
X17625000Y26798310D01*
X17625000Y26750000D01*
X18325000Y26750000D01*
X18325000Y27475001D01*
X18288680Y27511319D01*
X18290752Y27513393D01*
X18261206Y27547491D01*
X18250000Y27599002D01*
X18250000Y28250000D01*
X17550001Y28250000D01*
X17550001Y28201678D01*
X7349308Y28201678D01*
X7328494Y28231403D01*
X7161402Y28398494D01*
X7161395Y28398499D01*
X6967834Y28534033D01*
X6967830Y28534035D01*
X6896748Y28567181D01*
X6753663Y28633903D01*
X6753659Y28633904D01*
X6753655Y28633906D01*
X6525413Y28695062D01*
X6525403Y28695064D01*
X6290001Y28715659D01*
X6289999Y28715659D01*
X6054596Y28695064D01*
X6054586Y28695062D01*
X5826344Y28633906D01*
X5826335Y28633902D01*
X5612171Y28534036D01*
X5612169Y28534035D01*
X5418600Y28398497D01*
X5296673Y28276570D01*
X5235350Y28243086D01*
X5165658Y28248070D01*
X5109725Y28289942D01*
X5092810Y28320919D01*
X5043797Y28452329D01*
X5043793Y28452336D01*
X4957547Y28567545D01*
X4957544Y28567548D01*
X4842335Y28653794D01*
X4842328Y28653798D01*
X4707482Y28704092D01*
X4707483Y28704092D01*
X4647883Y28710499D01*
X4647881Y28710500D01*
X4647873Y28710500D01*
X4647864Y28710500D01*
X2852129Y28710500D01*
X2852123Y28710499D01*
X2792516Y28704092D01*
X2657671Y28653798D01*
X2657664Y28653794D01*
X2542455Y28567548D01*
X2542452Y28567545D01*
X2456206Y28452336D01*
X2456202Y28452329D01*
X2405908Y28317483D01*
X2399501Y28257884D01*
X2399500Y28257865D01*
X2399500Y26462130D01*
X2399501Y26462124D01*
X2405908Y26402517D01*
X2456202Y26267672D01*
X2456206Y26267665D01*
X2542452Y26152456D01*
X2542455Y26152453D01*
X2657664Y26066207D01*
X2657671Y26066203D01*
X2789081Y26017190D01*
X2845015Y25975319D01*
X2869432Y25909855D01*
X2854580Y25841582D01*
X2833430Y25813327D01*
X2711503Y25691400D01*
X2575965Y25497831D01*
X2575964Y25497829D01*
X2476098Y25283665D01*
X2476094Y25283656D01*
X2414938Y25055414D01*
X2414936Y25055404D01*
X2394341Y24820001D01*
X2394341Y24820000D01*
X2414936Y24584597D01*
X2414938Y24584587D01*
X2476094Y24356345D01*
X2476096Y24356341D01*
X2476097Y24356337D01*
X2532956Y24234403D01*
X2575965Y24142170D01*
X2575967Y24142166D01*
X2640853Y24049500D01*
X2711501Y23948604D01*
X2711506Y23948598D01*
X2878597Y23781507D01*
X2878603Y23781502D01*
X3064158Y23651575D01*
X3107783Y23596998D01*
X3114977Y23527500D01*
X3083454Y23465145D01*
X3064158Y23448425D01*
X2878597Y23318495D01*
X2711505Y23151403D01*
X2575965Y22957831D01*
X2575964Y22957829D01*
X2476098Y22743665D01*
X2476094Y22743656D01*
X2414938Y22515414D01*
X2414936Y22515404D01*
X2394341Y22280001D01*
X2414936Y22044597D01*
X2414938Y22044587D01*
X2476094Y21816345D01*
X2476096Y21816341D01*
X2476097Y21816337D01*
X2548048Y21662039D01*
X2575965Y21602170D01*
X2575967Y21602166D01*
X2664147Y21476233D01*
X2711501Y21408604D01*
X2711506Y21408598D01*
X2878597Y21241507D01*
X2878603Y21241502D01*
X3064158Y21111575D01*
X3107783Y21056998D01*
X3114977Y20987500D01*
X3083454Y20925145D01*
X3064158Y20908425D01*
X2878597Y20778495D01*
X2711505Y20611403D01*
X2575965Y20417831D01*
X2575964Y20417829D01*
X2476098Y20203665D01*
X2476094Y20203656D01*
X2414938Y19975414D01*
X2414936Y19975404D01*
X2394341Y19740001D01*
X2394341Y19740000D01*
X2414936Y19504597D01*
X2414938Y19504587D01*
X2476094Y19276345D01*
X2476096Y19276341D01*
X2476097Y19276337D01*
X2534786Y19150478D01*
X2575965Y19062170D01*
X2575967Y19062166D01*
X2681113Y18912003D01*
X2711501Y18868604D01*
X2711506Y18868598D01*
X2878597Y18701507D01*
X2878603Y18701502D01*
X3064158Y18571575D01*
X3107783Y18516998D01*
X3114977Y18447500D01*
X3083454Y18385145D01*
X3064158Y18368425D01*
X2878597Y18238495D01*
X2711505Y18071403D01*
X2575965Y17877831D01*
X2575964Y17877829D01*
X2476098Y17663665D01*
X2476094Y17663656D01*
X2414938Y17435414D01*
X2414936Y17435404D01*
X2394341Y17200001D01*
X2394341Y17200000D01*
X2414936Y16964597D01*
X2414938Y16964587D01*
X2476094Y16736345D01*
X2476096Y16736341D01*
X2476097Y16736337D01*
X2533479Y16613281D01*
X2575965Y16522170D01*
X2575967Y16522166D01*
X2662279Y16398901D01*
X2711501Y16328604D01*
X2711506Y16328598D01*
X2878597Y16161507D01*
X2878603Y16161502D01*
X3064158Y16031575D01*
X3107783Y15976998D01*
X3114977Y15907500D01*
X3083454Y15845145D01*
X3064158Y15828425D01*
X2878597Y15698495D01*
X2711505Y15531403D01*
X2575965Y15337831D01*
X2575964Y15337829D01*
X2476098Y15123665D01*
X2476094Y15123656D01*
X2414938Y14895414D01*
X2414936Y14895404D01*
X2394341Y14660001D01*
X2394341Y14660000D01*
X2414936Y14424597D01*
X2414938Y14424587D01*
X2476094Y14196345D01*
X2476096Y14196341D01*
X2476097Y14196337D01*
X2538189Y14063181D01*
X2575965Y13982170D01*
X2575967Y13982166D01*
X2624747Y13912502D01*
X2711501Y13788604D01*
X2711506Y13788598D01*
X2878597Y13621507D01*
X2878603Y13621502D01*
X3064158Y13491575D01*
X3107783Y13436998D01*
X3114977Y13367500D01*
X3083454Y13305145D01*
X3064158Y13288425D01*
X2878597Y13158495D01*
X2711505Y12991403D01*
X2575965Y12797831D01*
X2575964Y12797829D01*
X2476098Y12583665D01*
X2476094Y12583656D01*
X2414938Y12355414D01*
X2414936Y12355404D01*
X2394341Y12120001D01*
X2394341Y12120000D01*
X2414936Y11884597D01*
X2414938Y11884587D01*
X2476094Y11656345D01*
X2476096Y11656341D01*
X2476097Y11656337D01*
X2511801Y11579770D01*
X2575965Y11442170D01*
X2575967Y11442166D01*
X2684281Y11287479D01*
X2711501Y11248604D01*
X2711506Y11248598D01*
X2878597Y11081507D01*
X2878603Y11081502D01*
X3064158Y10951575D01*
X3107783Y10896998D01*
X3114977Y10827500D01*
X3083454Y10765145D01*
X3064158Y10748425D01*
X2878597Y10618495D01*
X2711505Y10451403D01*
X2575965Y10257831D01*
X2575964Y10257829D01*
X2476098Y10043665D01*
X2476094Y10043656D01*
X2414938Y9815414D01*
X2414936Y9815404D01*
X2394341Y9580001D01*
X2394341Y9580000D01*
X2414936Y9344597D01*
X2414938Y9344587D01*
X2476094Y9116345D01*
X2476096Y9116341D01*
X2476097Y9116337D01*
X2562988Y8930000D01*
X2575965Y8902170D01*
X2575967Y8902166D01*
X2669904Y8768011D01*
X2711501Y8708604D01*
X2711506Y8708598D01*
X2878597Y8541507D01*
X2878603Y8541502D01*
X3064158Y8411575D01*
X3107783Y8356998D01*
X3114977Y8287500D01*
X3083454Y8225145D01*
X3064158Y8208425D01*
X2878600Y8078497D01*
X2850630Y8050526D01*
X2785921Y7985818D01*
X2724601Y7952334D01*
X2698242Y7949500D01*
X1950417Y7949500D01*
X1774715Y7914551D01*
X1774707Y7914549D01*
X1731412Y7896615D01*
X1609192Y7845991D01*
X1609183Y7845986D01*
X1460227Y7746456D01*
X1460223Y7746453D01*
X1053760Y7339988D01*
X920229Y7206457D01*
X920227Y7206455D01*
X877863Y7164091D01*
X793545Y7079774D01*
X773633Y7049973D01*
X738732Y6997738D01*
X736675Y6994660D01*
X736674Y6994659D01*
X727602Y6981082D01*
X673989Y6936277D01*
X604664Y6927570D01*
X541637Y6957725D01*
X504918Y7017168D01*
X500500Y7049973D01*
X500500Y28798323D01*
X17550000Y28798323D01*
X17550000Y28750000D01*
X18250000Y28750000D01*
X18250000Y29475001D01*
X18226693Y29475000D01*
X18226674Y29474999D01*
X18127392Y29464856D01*
X17966518Y29411548D01*
X17966507Y29411543D01*
X17822271Y29322576D01*
X17822267Y29322573D01*
X17702427Y29202733D01*
X17702424Y29202729D01*
X17613457Y29058493D01*
X17613452Y29058482D01*
X17560144Y28897607D01*
X17550000Y28798323D01*
X500500Y28798323D01*
X500500Y30637925D01*
X5991476Y30637925D01*
X6115462Y30571652D01*
X6303969Y30514469D01*
X6303965Y30514469D01*
X6500000Y30495162D01*
X6696032Y30514469D01*
X6884537Y30571652D01*
X7008523Y30637924D01*
X7008523Y30637925D01*
X6500001Y31146447D01*
X6500000Y31146447D01*
X5991476Y30637925D01*
X500500Y30637925D01*
X500500Y31500000D01*
X5495161Y31500000D01*
X5514468Y31303968D01*
X5571651Y31115463D01*
X5637923Y30991478D01*
X6146447Y31500000D01*
X6146446Y31500001D01*
X6853553Y31500001D01*
X6853553Y31500000D01*
X7362075Y30991477D01*
X7362076Y30991477D01*
X7428348Y31115463D01*
X7485531Y31303968D01*
X7504838Y31500000D01*
X7485531Y31696033D01*
X7428348Y31884538D01*
X7362075Y32008524D01*
X6853553Y31500001D01*
X6146446Y31500001D01*
X5637923Y32008524D01*
X5571649Y31884534D01*
X5514468Y31696033D01*
X5495161Y31500000D01*
X500500Y31500000D01*
X500500Y32362077D01*
X5991476Y32362077D01*
X6500000Y31853553D01*
X6500001Y31853553D01*
X7008522Y32362077D01*
X6884537Y32428349D01*
X6696030Y32485532D01*
X6696034Y32485532D01*
X6500000Y32504839D01*
X6303967Y32485532D01*
X6115466Y32428351D01*
X5991476Y32362077D01*
X500500Y32362077D01*
X500500Y37024987D01*
X37550000Y37024987D01*
X37550000Y36750000D01*
X38300000Y36750000D01*
X38300000Y37725000D01*
X38299999Y37725001D01*
X38250029Y37725000D01*
X38250011Y37724999D01*
X38147302Y37714506D01*
X37980880Y37659359D01*
X37980875Y37659357D01*
X37831654Y37567316D01*
X37707684Y37443346D01*
X37615643Y37294125D01*
X37615641Y37294120D01*
X37560494Y37127698D01*
X37560493Y37127691D01*
X37550000Y37024987D01*
X500500Y37024987D01*
X500500Y38494587D01*
X500972Y38505394D01*
X511229Y38622632D01*
X514739Y38662758D01*
X518490Y38684034D01*
X557969Y38831373D01*
X565362Y38851682D01*
X629823Y38989919D01*
X640629Y39008634D01*
X728119Y39133583D01*
X742007Y39150135D01*
X849865Y39257993D01*
X866417Y39271881D01*
X991366Y39359371D01*
X1010081Y39370177D01*
X1148320Y39434639D01*
X1168627Y39442031D01*
X1315966Y39481510D01*
X1337242Y39485261D01*
X1469885Y39496866D01*
X1494606Y39499028D01*
X1505413Y39499500D01*
X1565892Y39499500D01*
X73434108Y39499500D01*
X73494587Y39499500D01*
X73505394Y39499028D01*
G37*
%TD.AperFunction*%
%TA.AperFunction,Conductor*%
G36*
X20606533Y10075858D02*
G01*
X20615273Y10071186D01*
X20803868Y10013976D01*
X21000000Y9994659D01*
X21196132Y10013976D01*
X21384727Y10071186D01*
X21393466Y10075858D01*
X21451921Y10090500D01*
X21504911Y10090500D01*
X21571950Y10070815D01*
X21617705Y10018011D01*
X21627649Y9948853D01*
X21598624Y9885297D01*
X21592592Y9878819D01*
X20676442Y8962671D01*
X20624760Y8931693D01*
X20615278Y8928817D01*
X20615276Y8928816D01*
X20611171Y8926622D01*
X20606533Y8924143D01*
X20548079Y8909500D01*
X18328230Y8909500D01*
X18261191Y8929185D01*
X18240549Y8945819D01*
X18118657Y9067711D01*
X18118656Y9067712D01*
X17969334Y9159814D01*
X17802797Y9214999D01*
X17802795Y9215000D01*
X17700010Y9225500D01*
X17099998Y9225500D01*
X17099980Y9225499D01*
X16997203Y9215000D01*
X16997200Y9214999D01*
X16830668Y9159815D01*
X16830663Y9159813D01*
X16681342Y9067711D01*
X16557288Y8943657D01*
X16557283Y8943651D01*
X16555241Y8940339D01*
X16553247Y8938547D01*
X16552807Y8937989D01*
X16552711Y8938065D01*
X16503291Y8893617D01*
X16434328Y8882398D01*
X16370247Y8910245D01*
X16344168Y8940344D01*
X16342319Y8943341D01*
X16342316Y8943345D01*
X16218345Y9067316D01*
X16069124Y9159357D01*
X16069119Y9159359D01*
X15902697Y9214506D01*
X15902690Y9214507D01*
X15799986Y9225000D01*
X15750000Y9225000D01*
X15750000Y7874000D01*
X15730315Y7806961D01*
X15677511Y7761206D01*
X15626000Y7750000D01*
X15374000Y7750000D01*
X15306961Y7769685D01*
X15261206Y7822489D01*
X15250000Y7874000D01*
X15250000Y9225000D01*
X15218294Y9256705D01*
X15184809Y9318028D01*
X15189793Y9387720D01*
X15218292Y9432066D01*
X15840408Y10054181D01*
X15901731Y10087666D01*
X15928089Y10090500D01*
X20548079Y10090500D01*
X20606533Y10075858D01*
G37*
%TD.AperFunction*%
%TA.AperFunction,Conductor*%
G36*
X13817788Y14227618D02*
G01*
X13935394Y14156522D01*
X14097804Y14105914D01*
X14168384Y14099500D01*
X14282113Y14099500D01*
X14349152Y14079815D01*
X14369794Y14063181D01*
X15909600Y12523376D01*
X15909621Y12523353D01*
X16019028Y12413946D01*
X16019035Y12413940D01*
X16142608Y12331372D01*
X16142609Y12331372D01*
X16142610Y12331371D01*
X16279920Y12274495D01*
X16279922Y12274495D01*
X16279924Y12274494D01*
X16304104Y12269685D01*
X16304110Y12269684D01*
X16425686Y12245499D01*
X16425688Y12245499D01*
X16580426Y12245499D01*
X16580446Y12245500D01*
X20914295Y12245500D01*
X20981334Y12225815D01*
X20997727Y12206897D01*
X21000402Y12211497D01*
X21062600Y12243328D01*
X21085705Y12245500D01*
X22636113Y12245500D01*
X22703152Y12225815D01*
X22723794Y12209181D01*
X22811794Y12121181D01*
X22845279Y12059858D01*
X22840295Y11990166D01*
X22798423Y11934233D01*
X22732959Y11909816D01*
X22724113Y11909500D01*
X21451921Y11909500D01*
X21393466Y11924143D01*
X21384727Y11928814D01*
X21196132Y11986024D01*
X21196129Y11986025D01*
X21073551Y11998097D01*
X21008764Y12024258D01*
X21000725Y12035618D01*
X20949230Y12002523D01*
X20926449Y11998097D01*
X20803870Y11986025D01*
X20615270Y11928813D01*
X20610255Y11926133D01*
X20606533Y11924143D01*
X20548079Y11909500D01*
X15595712Y11909500D01*
X15595692Y11909501D01*
X15589578Y11909501D01*
X15410422Y11909501D01*
X15410420Y11909501D01*
X15234713Y11874551D01*
X15234707Y11874549D01*
X15069192Y11805991D01*
X15069183Y11805986D01*
X14920228Y11706457D01*
X14870117Y11656345D01*
X14793545Y11579773D01*
X14793542Y11579770D01*
X13672630Y10458858D01*
X13672627Y10458855D01*
X13609286Y10395514D01*
X13545945Y10332174D01*
X13520135Y10293545D01*
X13481602Y10235877D01*
X13427989Y10191072D01*
X13358664Y10182365D01*
X13295637Y10212520D01*
X13258918Y10271963D01*
X13254500Y10304768D01*
X13254500Y14121500D01*
X13274185Y14188539D01*
X13326989Y14234294D01*
X13378500Y14245500D01*
X13753640Y14245500D01*
X13817788Y14227618D01*
G37*
%TD.AperFunction*%
%TA.AperFunction,Conductor*%
G36*
X39952258Y31852815D02*
G01*
X39972900Y31836181D01*
X40115574Y31693507D01*
X40149059Y31632184D01*
X40149510Y31630019D01*
X40169114Y31531465D01*
X40177612Y31510949D01*
X40185078Y31441480D01*
X40177612Y31416051D01*
X40169114Y31395536D01*
X40169114Y31395534D01*
X40145000Y31274306D01*
X40145000Y31274303D01*
X40145000Y31150697D01*
X40145000Y31150695D01*
X40144999Y31150695D01*
X40169113Y31029471D01*
X40169116Y31029461D01*
X40216413Y30915274D01*
X40216420Y30915261D01*
X40285088Y30812493D01*
X40285091Y30812489D01*
X40298399Y30799181D01*
X40331884Y30737858D01*
X40326900Y30668166D01*
X40298402Y30623821D01*
X40285086Y30610505D01*
X40216420Y30507740D01*
X40216413Y30507727D01*
X40169116Y30393540D01*
X40169113Y30393530D01*
X40145000Y30272306D01*
X40145000Y30272303D01*
X40145000Y30148697D01*
X40145000Y30148695D01*
X40144999Y30148695D01*
X40169113Y30027471D01*
X40169116Y30027461D01*
X40216413Y29913274D01*
X40216420Y29913261D01*
X40285088Y29810493D01*
X40285091Y29810489D01*
X40372488Y29723092D01*
X40372492Y29723089D01*
X40475260Y29654421D01*
X40475273Y29654414D01*
X40589460Y29607117D01*
X40589465Y29607115D01*
X40589469Y29607115D01*
X40589470Y29607114D01*
X40710694Y29583000D01*
X40710697Y29583000D01*
X40748500Y29583000D01*
X40815539Y29563315D01*
X40861294Y29510511D01*
X40872500Y29459000D01*
X40872500Y29336281D01*
X40852815Y29269242D01*
X40836181Y29248600D01*
X40111638Y28524058D01*
X40062962Y28494033D01*
X39966299Y28462002D01*
X39821959Y28372971D01*
X39821953Y28372967D01*
X39812324Y28363337D01*
X39751000Y28329854D01*
X39681308Y28334841D01*
X39636965Y28363340D01*
X39627732Y28372573D01*
X39627728Y28372576D01*
X39483492Y28461543D01*
X39483481Y28461548D01*
X39322606Y28514856D01*
X39223322Y28525000D01*
X39200000Y28525000D01*
X39200000Y27424000D01*
X39180315Y27356961D01*
X39127511Y27311206D01*
X39076000Y27300000D01*
X38000001Y27300000D01*
X38000001Y27251678D01*
X38010144Y27152393D01*
X38063452Y26991519D01*
X38063454Y26991514D01*
X38145706Y26858164D01*
X38164146Y26790772D01*
X38143224Y26724108D01*
X38089582Y26679338D01*
X38079172Y26675362D01*
X38030886Y26659362D01*
X38030875Y26659357D01*
X37881654Y26567316D01*
X37757684Y26443346D01*
X37665643Y26294125D01*
X37665641Y26294120D01*
X37610494Y26127698D01*
X37610493Y26127691D01*
X37600000Y26024987D01*
X37600000Y25750000D01*
X38726000Y25750000D01*
X38793039Y25730315D01*
X38838794Y25677511D01*
X38850000Y25626000D01*
X38850000Y24275001D01*
X38899972Y24275001D01*
X38899986Y24275002D01*
X39002697Y24285495D01*
X39169119Y24340642D01*
X39169124Y24340644D01*
X39318345Y24432685D01*
X39442318Y24556658D01*
X39444165Y24559652D01*
X39445969Y24561276D01*
X39446798Y24562323D01*
X39446976Y24562182D01*
X39496110Y24606379D01*
X39565073Y24617604D01*
X39629156Y24589764D01*
X39655243Y24559659D01*
X39657288Y24556344D01*
X39781344Y24432288D01*
X39930666Y24340186D01*
X40097203Y24285001D01*
X40199991Y24274500D01*
X40800008Y24274501D01*
X40800016Y24274502D01*
X40800019Y24274502D01*
X40856302Y24280252D01*
X40902797Y24285001D01*
X41069334Y24340186D01*
X41218656Y24432288D01*
X41340549Y24554181D01*
X41401872Y24587666D01*
X41428230Y24590500D01*
X42071911Y24590500D01*
X42138950Y24570815D01*
X42159592Y24554181D01*
X43545419Y23168354D01*
X43545448Y23168323D01*
X43675223Y23038548D01*
X43675231Y23038542D01*
X43785845Y22964632D01*
X43785846Y22964632D01*
X43824190Y22939011D01*
X43824191Y22939011D01*
X43824192Y22939010D01*
X43824194Y22939009D01*
X43981141Y22874000D01*
X43989709Y22870451D01*
X43989713Y22870451D01*
X43989714Y22870450D01*
X44165419Y22835499D01*
X44165422Y22835499D01*
X44350692Y22835499D01*
X44350712Y22835500D01*
X52766500Y22835500D01*
X52833539Y22815815D01*
X52879294Y22763011D01*
X52890500Y22711500D01*
X52890500Y22160815D01*
X52884206Y22121811D01*
X52859651Y22047710D01*
X52849500Y21948353D01*
X52849500Y21351663D01*
X52849501Y21351645D01*
X52859650Y21252293D01*
X52859651Y21252290D01*
X52884206Y21178190D01*
X52890500Y21139186D01*
X52890500Y20160815D01*
X52884206Y20121812D01*
X52859652Y20047714D01*
X52859648Y20047696D01*
X52858235Y20033862D01*
X52831836Y19969172D01*
X52822559Y19958789D01*
X43559592Y10695819D01*
X43498269Y10662334D01*
X43471911Y10659500D01*
X42245089Y10659500D01*
X42178050Y10679185D01*
X42132295Y10731989D01*
X42122351Y10801147D01*
X42151376Y10864703D01*
X42157408Y10871181D01*
X47079199Y15792971D01*
X52206455Y20920227D01*
X52305988Y21069189D01*
X52374549Y21234708D01*
X52409500Y21410422D01*
X52409500Y21589577D01*
X52374549Y21765291D01*
X52305988Y21930810D01*
X52305986Y21930813D01*
X52305984Y21930817D01*
X52206455Y22079772D01*
X52206452Y22079776D01*
X52079775Y22206453D01*
X52079771Y22206456D01*
X51930816Y22305985D01*
X51930806Y22305990D01*
X51765291Y22374549D01*
X51765283Y22374551D01*
X51589581Y22409500D01*
X51589577Y22409500D01*
X51410422Y22409500D01*
X51410417Y22409500D01*
X51234715Y22374551D01*
X51234707Y22374549D01*
X51069192Y22305990D01*
X51069182Y22305985D01*
X50920227Y22206456D01*
X50920223Y22206453D01*
X40659592Y11945819D01*
X40598269Y11912334D01*
X40571911Y11909500D01*
X36775887Y11909500D01*
X36708848Y11929185D01*
X36663093Y11981989D01*
X36653149Y12051147D01*
X36682174Y12114703D01*
X36688206Y12121181D01*
X37228189Y12661164D01*
X39980963Y15413940D01*
X39980966Y15413941D01*
X40086059Y15519034D01*
X40168629Y15642610D01*
X40225505Y15779920D01*
X40254500Y15925688D01*
X40254500Y17738352D01*
X40274185Y17805391D01*
X40326989Y17851146D01*
X40396147Y17861090D01*
X40443594Y17843893D01*
X40530666Y17790186D01*
X40697203Y17735001D01*
X40799991Y17724500D01*
X41400008Y17724501D01*
X41400016Y17724502D01*
X41400019Y17724502D01*
X41456302Y17730252D01*
X41502797Y17735001D01*
X41669334Y17790186D01*
X41818656Y17882288D01*
X41895549Y17959181D01*
X41956872Y17992666D01*
X41983230Y17995500D01*
X42269554Y17995500D01*
X42269574Y17995499D01*
X42275688Y17995499D01*
X42424314Y17995499D01*
X42545894Y18019685D01*
X42545894Y18019684D01*
X42545900Y18019687D01*
X42570080Y18024495D01*
X42646340Y18056083D01*
X42707389Y18081370D01*
X42830966Y18163941D01*
X43130207Y18463184D01*
X43191529Y18496667D01*
X43217887Y18499501D01*
X43348338Y18499501D01*
X43348344Y18499501D01*
X43348352Y18499502D01*
X43348355Y18499502D01*
X43402760Y18505060D01*
X43447708Y18509651D01*
X43608697Y18562997D01*
X43753044Y18652032D01*
X43760193Y18659181D01*
X43821516Y18692666D01*
X43847874Y18695500D01*
X44369554Y18695500D01*
X44369574Y18695499D01*
X44375688Y18695499D01*
X44483594Y18695499D01*
X44497479Y18694719D01*
X44499999Y18694435D01*
X44500000Y18694435D01*
X44500001Y18694435D01*
X44502521Y18694719D01*
X44516406Y18695499D01*
X44524311Y18695499D01*
X44524312Y18695499D01*
X44538624Y18698347D01*
X44548890Y18699944D01*
X44679255Y18714632D01*
X44849522Y18774211D01*
X45002262Y18870184D01*
X45129816Y18997738D01*
X45225789Y19150478D01*
X45285368Y19320745D01*
X45285369Y19320751D01*
X45305565Y19499997D01*
X45305565Y19500004D01*
X45285369Y19679250D01*
X45285368Y19679255D01*
X45264112Y19740001D01*
X45225789Y19849522D01*
X45212584Y19870537D01*
X45168015Y19941468D01*
X45129816Y20002262D01*
X45002262Y20129816D01*
X44984773Y20140805D01*
X44849523Y20225789D01*
X44679254Y20285369D01*
X44679249Y20285370D01*
X44500004Y20305565D01*
X44499996Y20305565D01*
X44320750Y20285370D01*
X44320745Y20285369D01*
X44150474Y20225788D01*
X44146843Y20223506D01*
X44080872Y20204500D01*
X44022108Y20204500D01*
X43955069Y20224185D01*
X43909314Y20276989D01*
X43899370Y20346147D01*
X43916570Y20393597D01*
X43961542Y20466508D01*
X43961547Y20466519D01*
X44014855Y20627394D01*
X44024999Y20726678D01*
X44025000Y20726691D01*
X44025000Y20750000D01*
X40974000Y20750000D01*
X40906961Y20769685D01*
X40861206Y20822489D01*
X40850000Y20874000D01*
X40850000Y21250000D01*
X41350000Y21250000D01*
X42800000Y21250000D01*
X43300000Y21250000D01*
X44024999Y21250000D01*
X44024999Y21273308D01*
X44024998Y21273323D01*
X44014855Y21372608D01*
X43961547Y21533482D01*
X43961542Y21533493D01*
X43872575Y21677729D01*
X43872572Y21677733D01*
X43752732Y21797573D01*
X43752728Y21797576D01*
X43608492Y21886543D01*
X43608481Y21886548D01*
X43447606Y21939856D01*
X43348322Y21950000D01*
X43300000Y21950000D01*
X43300000Y21250000D01*
X42800000Y21250000D01*
X42800000Y21950000D01*
X42799999Y21950001D01*
X42751693Y21950000D01*
X42751675Y21949999D01*
X42652392Y21939856D01*
X42491518Y21886548D01*
X42491507Y21886543D01*
X42347271Y21797576D01*
X42347267Y21797573D01*
X42227427Y21677733D01*
X42227425Y21677730D01*
X42210642Y21650522D01*
X42158693Y21603800D01*
X42089730Y21592580D01*
X42025649Y21620426D01*
X41999567Y21650526D01*
X41942315Y21743346D01*
X41818345Y21867316D01*
X41669124Y21959357D01*
X41669119Y21959359D01*
X41502697Y22014506D01*
X41502690Y22014507D01*
X41399986Y22025000D01*
X41350000Y22025000D01*
X41350000Y21250000D01*
X40850000Y21250000D01*
X40850000Y22025000D01*
X40849999Y22025001D01*
X40800029Y22025000D01*
X40800011Y22024999D01*
X40697302Y22014506D01*
X40530880Y21959359D01*
X40530875Y21959357D01*
X40381649Y21867313D01*
X40377305Y21863878D01*
X40312507Y21837745D01*
X40243866Y21850793D01*
X40223497Y21863884D01*
X40218660Y21867708D01*
X40218656Y21867712D01*
X40069334Y21959814D01*
X39902797Y22014999D01*
X39902795Y22015000D01*
X39800010Y22025500D01*
X39199998Y22025500D01*
X39199980Y22025499D01*
X39097203Y22015000D01*
X39097200Y22014999D01*
X38930668Y21959815D01*
X38930663Y21959813D01*
X38781342Y21867711D01*
X38657287Y21743656D01*
X38621975Y21686404D01*
X38570027Y21639679D01*
X38516436Y21627500D01*
X37995732Y21627500D01*
X37928693Y21647185D01*
X37889616Y21687349D01*
X37830472Y21785185D01*
X37830470Y21785187D01*
X37830469Y21785189D01*
X37710188Y21905470D01*
X37650650Y21941462D01*
X37564606Y21993478D01*
X37402196Y22044086D01*
X37402194Y22044087D01*
X37402192Y22044087D01*
X37350389Y22048794D01*
X37331616Y22050500D01*
X36668384Y22050500D01*
X36649611Y22048794D01*
X36597807Y22044087D01*
X36435393Y21993478D01*
X36289811Y21905470D01*
X36169530Y21785189D01*
X36157497Y21765284D01*
X36110383Y21687349D01*
X36058857Y21640162D01*
X36004268Y21627500D01*
X35463771Y21627500D01*
X35396732Y21647185D01*
X35358233Y21686402D01*
X35347968Y21703044D01*
X35228044Y21822968D01*
X35228040Y21822971D01*
X35111659Y21894756D01*
X35064934Y21946704D01*
X35053713Y22015666D01*
X35081556Y22079748D01*
X35111659Y22105833D01*
X35227733Y22177429D01*
X35347572Y22297268D01*
X35347575Y22297272D01*
X35436542Y22441508D01*
X35436547Y22441519D01*
X35489855Y22602394D01*
X35499999Y22701678D01*
X35500000Y22701691D01*
X35500000Y22750000D01*
X34424000Y22750000D01*
X34356961Y22769685D01*
X34311206Y22822489D01*
X34300000Y22874000D01*
X34300000Y23250000D01*
X34800000Y23250000D01*
X35499999Y23250000D01*
X35499999Y23298308D01*
X35499998Y23298323D01*
X35489855Y23397608D01*
X35436547Y23558482D01*
X35436542Y23558493D01*
X35347575Y23702729D01*
X35347572Y23702733D01*
X35227732Y23822573D01*
X35227728Y23822576D01*
X35111183Y23894462D01*
X35064458Y23946410D01*
X35053237Y24015372D01*
X35081080Y24079454D01*
X35111183Y24105538D01*
X35227728Y24177425D01*
X35227732Y24177428D01*
X35347572Y24297268D01*
X35347575Y24297272D01*
X35436542Y24441508D01*
X35436547Y24441519D01*
X35489855Y24602394D01*
X35499999Y24701678D01*
X35500000Y24701691D01*
X35500000Y24750000D01*
X34800000Y24750000D01*
X34800000Y23250000D01*
X34300000Y23250000D01*
X34300000Y24975014D01*
X37600001Y24975014D01*
X37610494Y24872303D01*
X37665641Y24705881D01*
X37665643Y24705876D01*
X37757684Y24556655D01*
X37881654Y24432685D01*
X38030875Y24340644D01*
X38030880Y24340642D01*
X38197302Y24285495D01*
X38197309Y24285494D01*
X38300019Y24275001D01*
X38349999Y24275002D01*
X38350000Y24275002D01*
X38350000Y25250000D01*
X37600001Y25250000D01*
X37600001Y24975014D01*
X34300000Y24975014D01*
X34300000Y25121500D01*
X34319685Y25188539D01*
X34372489Y25234294D01*
X34424000Y25245500D01*
X36211460Y25245500D01*
X36252415Y25238541D01*
X36320737Y25214634D01*
X36320743Y25214633D01*
X36320745Y25214632D01*
X36320746Y25214632D01*
X36320750Y25214631D01*
X36499996Y25194435D01*
X36500000Y25194435D01*
X36500004Y25194435D01*
X36679249Y25214631D01*
X36679252Y25214632D01*
X36679255Y25214632D01*
X36849522Y25274211D01*
X37002262Y25370184D01*
X37129816Y25497738D01*
X37225789Y25650478D01*
X37285368Y25820745D01*
X37285755Y25824176D01*
X37305565Y25999997D01*
X37305565Y26000004D01*
X37285369Y26179250D01*
X37285368Y26179255D01*
X37254432Y26267665D01*
X37225789Y26349522D01*
X37221313Y26356645D01*
X37166782Y26443431D01*
X37129816Y26502262D01*
X37002262Y26629816D01*
X36955240Y26659362D01*
X36849523Y26725789D01*
X36679254Y26785369D01*
X36679249Y26785370D01*
X36500004Y26805565D01*
X36499996Y26805565D01*
X36320750Y26785370D01*
X36320737Y26785367D01*
X36252415Y26761459D01*
X36211460Y26754500D01*
X34424000Y26754500D01*
X34356961Y26774185D01*
X34311206Y26826989D01*
X34300000Y26878500D01*
X34300000Y27126000D01*
X34319685Y27193039D01*
X34372489Y27238794D01*
X34424000Y27250000D01*
X35499999Y27250000D01*
X35499999Y27298308D01*
X35499998Y27298323D01*
X35489855Y27397608D01*
X35436547Y27558482D01*
X35436542Y27558493D01*
X35347575Y27702729D01*
X35347572Y27702733D01*
X35227732Y27822573D01*
X35227728Y27822576D01*
X35185986Y27848323D01*
X38000000Y27848323D01*
X38000000Y27800000D01*
X38700000Y27800000D01*
X38700000Y28525001D01*
X38676693Y28525000D01*
X38676674Y28524999D01*
X38577392Y28514856D01*
X38416518Y28461548D01*
X38416507Y28461543D01*
X38272271Y28372576D01*
X38272267Y28372573D01*
X38152427Y28252733D01*
X38152424Y28252729D01*
X38063457Y28108493D01*
X38063452Y28108482D01*
X38010144Y27947607D01*
X38000000Y27848323D01*
X35185986Y27848323D01*
X35083492Y27911543D01*
X35083483Y27911547D01*
X35050664Y27922422D01*
X34993220Y27962195D01*
X34966397Y28026711D01*
X34978712Y28095487D01*
X35026256Y28146687D01*
X35031218Y28149487D01*
X35058532Y28164087D01*
X35058536Y28164089D01*
X35058538Y28164090D01*
X35210883Y28289117D01*
X35335910Y28441462D01*
X35403303Y28567546D01*
X35428811Y28615267D01*
X35428811Y28615268D01*
X35428814Y28615273D01*
X35486024Y28803868D01*
X35505341Y29000000D01*
X35486024Y29196132D01*
X35428814Y29384727D01*
X35424600Y29392611D01*
X35419289Y29402548D01*
X35405048Y29470951D01*
X35430049Y29536195D01*
X35486355Y29577564D01*
X35528648Y29585000D01*
X37417927Y29585000D01*
X37434110Y29583406D01*
X37434129Y29583597D01*
X37440192Y29583000D01*
X37440196Y29583000D01*
X38259305Y29583000D01*
X38340861Y29599224D01*
X38380535Y29607115D01*
X38471503Y29644795D01*
X38494726Y29654414D01*
X38494726Y29654415D01*
X38494733Y29654417D01*
X38597508Y29723089D01*
X38684911Y29810492D01*
X38753583Y29913267D01*
X38800885Y30027465D01*
X38816629Y30106614D01*
X38825000Y30148695D01*
X38825000Y30272306D01*
X38800886Y30393530D01*
X38800885Y30393531D01*
X38800885Y30393535D01*
X38792388Y30414047D01*
X38784919Y30483515D01*
X38792389Y30508954D01*
X38800883Y30529461D01*
X38800885Y30529465D01*
X38819979Y30625453D01*
X38825000Y30650695D01*
X38825000Y30774306D01*
X38800886Y30895530D01*
X38800885Y30895531D01*
X38800885Y30895535D01*
X38792802Y30915048D01*
X38785333Y30984514D01*
X38792801Y31009950D01*
X38800885Y31029465D01*
X38811331Y31081981D01*
X38825000Y31150695D01*
X38825000Y31274306D01*
X38800886Y31395530D01*
X38800885Y31395534D01*
X38800885Y31395535D01*
X38792388Y31416047D01*
X38784919Y31485515D01*
X38792389Y31510954D01*
X38800053Y31529457D01*
X38800885Y31531465D01*
X38815967Y31607286D01*
X38820489Y31630018D01*
X38852874Y31691928D01*
X38854318Y31693400D01*
X38997102Y31836184D01*
X39058423Y31869666D01*
X39084781Y31872500D01*
X39885219Y31872500D01*
X39952258Y31852815D01*
G37*
%TD.AperFunction*%
%TA.AperFunction,Conductor*%
G36*
X29756402Y17742388D02*
G01*
X29798686Y17714678D01*
X30413372Y17099992D01*
X30459774Y17053590D01*
X30500777Y17012587D01*
X30500779Y17012586D01*
X30603539Y16943924D01*
X30603543Y16943922D01*
X30603550Y16943917D01*
X30680598Y16912003D01*
X30717748Y16896615D01*
X30717752Y16896615D01*
X30717753Y16896614D01*
X30838977Y16872500D01*
X30838980Y16872500D01*
X30962586Y16872500D01*
X31974607Y16872500D01*
X32041646Y16852815D01*
X32080723Y16812651D01*
X32094528Y16789815D01*
X32094531Y16789811D01*
X32186181Y16698161D01*
X32219666Y16636838D01*
X32222500Y16610480D01*
X32222500Y16324874D01*
X32202815Y16257835D01*
X32186181Y16237193D01*
X32152032Y16203045D01*
X32152029Y16203041D01*
X32063001Y16058706D01*
X32062996Y16058695D01*
X32009651Y15897710D01*
X31999500Y15798353D01*
X31999500Y15201663D01*
X31999501Y15201645D01*
X32009650Y15102293D01*
X32009651Y15102290D01*
X32062996Y14941306D01*
X32063001Y14941295D01*
X32152029Y14796960D01*
X32152032Y14796956D01*
X32271955Y14677033D01*
X32271959Y14677030D01*
X32416294Y14588002D01*
X32416297Y14588001D01*
X32416303Y14587997D01*
X32577292Y14534651D01*
X32676655Y14524500D01*
X33223344Y14524501D01*
X33223352Y14524502D01*
X33223355Y14524502D01*
X33277760Y14530060D01*
X33322708Y14534651D01*
X33483697Y14587997D01*
X33628044Y14677032D01*
X33637668Y14686657D01*
X33698987Y14720144D01*
X33768679Y14715165D01*
X33813034Y14686661D01*
X33822267Y14677428D01*
X33822271Y14677425D01*
X33966507Y14588458D01*
X33966518Y14588453D01*
X34127393Y14535145D01*
X34226683Y14525001D01*
X34750000Y14525001D01*
X34773308Y14525001D01*
X34773322Y14525002D01*
X34872607Y14535145D01*
X35033481Y14588453D01*
X35033492Y14588458D01*
X35177728Y14677425D01*
X35177732Y14677428D01*
X35297572Y14797268D01*
X35297575Y14797272D01*
X35386542Y14941508D01*
X35386547Y14941519D01*
X35439855Y15102394D01*
X35449999Y15201678D01*
X35450000Y15201691D01*
X35450000Y15250000D01*
X34750000Y15250000D01*
X34750000Y14525001D01*
X34226683Y14525001D01*
X34250000Y14525002D01*
X34250000Y15626000D01*
X34269685Y15693039D01*
X34322489Y15738794D01*
X34374000Y15750000D01*
X35449999Y15750000D01*
X35449999Y15798308D01*
X35449998Y15798323D01*
X35439855Y15897608D01*
X35386547Y16058482D01*
X35386542Y16058493D01*
X35297575Y16202729D01*
X35297572Y16202733D01*
X35177731Y16322574D01*
X35045422Y16404184D01*
X34998698Y16456132D01*
X34987477Y16525095D01*
X35015320Y16589177D01*
X35046366Y16615835D01*
X35135185Y16669528D01*
X35255472Y16789815D01*
X35269277Y16812651D01*
X35320805Y16859838D01*
X35375393Y16872500D01*
X36688719Y16872500D01*
X36755758Y16852815D01*
X36776400Y16836181D01*
X36836181Y16776400D01*
X36869666Y16715077D01*
X36872500Y16688719D01*
X36872500Y16337963D01*
X36852815Y16270924D01*
X36827168Y16242112D01*
X36789113Y16210880D01*
X36664090Y16058540D01*
X36664086Y16058533D01*
X36571188Y15884734D01*
X36513975Y15696130D01*
X36494659Y15500000D01*
X36513975Y15303871D01*
X36513976Y15303868D01*
X36552145Y15178041D01*
X36571188Y15115267D01*
X36664086Y14941468D01*
X36664090Y14941461D01*
X36789116Y14789117D01*
X36921168Y14680745D01*
X36960502Y14623000D01*
X36962373Y14553155D01*
X36930184Y14497211D01*
X35223794Y12790819D01*
X35162471Y12757334D01*
X35136113Y12754500D01*
X24363886Y12754500D01*
X24296847Y12774185D01*
X24276205Y12790819D01*
X24248855Y12818169D01*
X24154703Y12912322D01*
X24121219Y12973643D01*
X24126203Y13043335D01*
X24154702Y13087680D01*
X24220755Y13153732D01*
X24220760Y13153736D01*
X24230964Y13163941D01*
X24230966Y13163941D01*
X24313318Y13246295D01*
X24374641Y13279779D01*
X24444333Y13274795D01*
X24500267Y13232924D01*
X24505139Y13219861D01*
X24525000Y13200000D01*
X28474999Y13200000D01*
X28474999Y13223308D01*
X28474998Y13223323D01*
X28464855Y13322608D01*
X28411547Y13483482D01*
X28411542Y13483493D01*
X28322575Y13627729D01*
X28322572Y13627733D01*
X28313339Y13636966D01*
X28279854Y13698289D01*
X28284838Y13767981D01*
X28313343Y13812332D01*
X28322968Y13821956D01*
X28412003Y13966303D01*
X28465349Y14127292D01*
X28475500Y14226655D01*
X28475499Y14773344D01*
X28475410Y14774211D01*
X28465349Y14872708D01*
X28465348Y14872711D01*
X28453497Y14908476D01*
X28412003Y15033697D01*
X28411999Y15033703D01*
X28411998Y15033706D01*
X28322970Y15178041D01*
X28322969Y15178042D01*
X28322968Y15178044D01*
X28203044Y15297968D01*
X28203043Y15297969D01*
X28091372Y15366850D01*
X28053368Y15403497D01*
X27987412Y15502207D01*
X27958216Y15531403D01*
X27900008Y15589611D01*
X27214919Y16274700D01*
X27181434Y16336023D01*
X27178600Y16362381D01*
X27178600Y16671208D01*
X27198285Y16738247D01*
X27251089Y16784002D01*
X27320247Y16793946D01*
X27371492Y16774309D01*
X27374353Y16772397D01*
X27374354Y16772397D01*
X27374357Y16772395D01*
X27385634Y16767724D01*
X27384989Y16766169D01*
X27434213Y16740422D01*
X27464294Y16694522D01*
X27480746Y16650411D01*
X27480749Y16650406D01*
X27566909Y16535312D01*
X27566912Y16535309D01*
X27682006Y16449149D01*
X27682013Y16449145D01*
X27816720Y16398903D01*
X27816727Y16398901D01*
X27876255Y16392500D01*
X27876272Y16392499D01*
X27924100Y16392499D01*
X27924100Y17301899D01*
X27943785Y17368938D01*
X27996589Y17414693D01*
X28048100Y17425899D01*
X28054100Y17425899D01*
X28121139Y17406214D01*
X28166894Y17353410D01*
X28178100Y17301899D01*
X28178100Y16392499D01*
X28225928Y16392499D01*
X28225944Y16392500D01*
X28285472Y16398901D01*
X28285479Y16398903D01*
X28420186Y16449145D01*
X28420193Y16449149D01*
X28535287Y16535309D01*
X28535290Y16535312D01*
X28621450Y16650406D01*
X28621452Y16650409D01*
X28637904Y16694520D01*
X28679775Y16750454D01*
X28716868Y16766995D01*
X28716566Y16767724D01*
X28727845Y16772397D01*
X28727847Y16772397D01*
X28770021Y16800577D01*
X28798201Y16842751D01*
X28805599Y16879941D01*
X28805599Y17297242D01*
X28825284Y17364281D01*
X28878088Y17410036D01*
X28886267Y17413424D01*
X28922784Y17427044D01*
X28922793Y17427049D01*
X29037887Y17513209D01*
X29037890Y17513212D01*
X29124050Y17628306D01*
X29124055Y17628315D01*
X29137675Y17664832D01*
X29179545Y17720766D01*
X29245009Y17745184D01*
X29253857Y17745500D01*
X29671158Y17745500D01*
X29686811Y17748614D01*
X29756402Y17742388D01*
G37*
%TD.AperFunction*%
%TA.AperFunction,Conductor*%
G36*
X23132903Y15792971D02*
G01*
X23188836Y15751099D01*
X23213253Y15685635D01*
X23212789Y15662906D01*
X23194435Y15500004D01*
X23194435Y15499997D01*
X23214630Y15320751D01*
X23214631Y15320746D01*
X23274211Y15150477D01*
X23353368Y15024501D01*
X23370184Y14997738D01*
X23497738Y14870184D01*
X23521912Y14854994D01*
X23568203Y14802663D01*
X23578853Y14733609D01*
X23550479Y14669760D01*
X23521916Y14645009D01*
X23497739Y14629817D01*
X23497737Y14629816D01*
X23370184Y14502263D01*
X23270507Y14343627D01*
X23269704Y14344132D01*
X23251618Y14318646D01*
X23163941Y14230967D01*
X23163939Y14230964D01*
X22723794Y13790819D01*
X22662471Y13757334D01*
X22636113Y13754500D01*
X21291281Y13754500D01*
X21224242Y13774185D01*
X21178487Y13826989D01*
X21168543Y13896147D01*
X21197568Y13959703D01*
X21203600Y13966181D01*
X22094533Y14857114D01*
X23001890Y15764472D01*
X23063211Y15797955D01*
X23132903Y15792971D01*
G37*
%TD.AperFunction*%
%TA.AperFunction,Conductor*%
G36*
X18643039Y22154815D02*
G01*
X18688794Y22102011D01*
X18700000Y22050500D01*
X18700000Y19025001D01*
X18713681Y19011320D01*
X18747166Y18949997D01*
X18750000Y18923639D01*
X18750000Y15025001D01*
X18773308Y15025001D01*
X18773322Y15025002D01*
X18872607Y15035145D01*
X19033481Y15088453D01*
X19033492Y15088458D01*
X19177731Y15177427D01*
X19186959Y15186655D01*
X19248279Y15220144D01*
X19317971Y15215165D01*
X19362327Y15186661D01*
X19371955Y15177033D01*
X19371959Y15177030D01*
X19516294Y15088002D01*
X19516297Y15088001D01*
X19516303Y15087997D01*
X19677292Y15034651D01*
X19776655Y15024500D01*
X20187719Y15024501D01*
X20254758Y15004817D01*
X20300513Y14952013D01*
X20310457Y14882854D01*
X20281432Y14819298D01*
X20275400Y14812820D01*
X20004400Y14541819D01*
X19943077Y14508334D01*
X19916719Y14505500D01*
X17583281Y14505500D01*
X17516242Y14525185D01*
X17495600Y14541819D01*
X16335741Y15701678D01*
X17550001Y15701678D01*
X17560144Y15602393D01*
X17613452Y15441519D01*
X17613457Y15441508D01*
X17702424Y15297272D01*
X17702427Y15297268D01*
X17822267Y15177428D01*
X17822271Y15177425D01*
X17966507Y15088458D01*
X17966518Y15088453D01*
X18127393Y15035145D01*
X18226683Y15025001D01*
X18250000Y15025002D01*
X18250000Y15750000D01*
X17550001Y15750000D01*
X17550001Y15701678D01*
X16335741Y15701678D01*
X15739096Y16298323D01*
X17550000Y16298323D01*
X17550000Y16250000D01*
X18250000Y16250000D01*
X18250000Y17750000D01*
X17550001Y17750000D01*
X17550001Y17701678D01*
X17560144Y17602393D01*
X17613452Y17441519D01*
X17613457Y17441508D01*
X17702424Y17297272D01*
X17702427Y17297268D01*
X17822267Y17177428D01*
X17822271Y17177425D01*
X17938816Y17105538D01*
X17985541Y17053590D01*
X17996762Y16984627D01*
X17968919Y16920545D01*
X17938816Y16894462D01*
X17822271Y16822576D01*
X17822267Y16822573D01*
X17702427Y16702733D01*
X17702424Y16702729D01*
X17613457Y16558493D01*
X17613452Y16558482D01*
X17560144Y16397607D01*
X17550000Y16298323D01*
X15739096Y16298323D01*
X15511819Y16525600D01*
X15478334Y16586923D01*
X15475500Y16613281D01*
X15475500Y16661131D01*
X15495185Y16728170D01*
X15547989Y16773925D01*
X15617147Y16783869D01*
X15643652Y16775790D01*
X15643905Y16776511D01*
X15650477Y16774212D01*
X15650478Y16774211D01*
X15669017Y16767724D01*
X15820745Y16714632D01*
X15820750Y16714631D01*
X15999996Y16694435D01*
X16000000Y16694435D01*
X16000004Y16694435D01*
X16179249Y16714631D01*
X16179252Y16714632D01*
X16179255Y16714632D01*
X16349522Y16774211D01*
X16502262Y16870184D01*
X16629816Y16997738D01*
X16725789Y17150478D01*
X16785368Y17320745D01*
X16790313Y17364639D01*
X16817378Y17429049D01*
X16825842Y17438425D01*
X16987411Y17599992D01*
X17006336Y17628315D01*
X17025381Y17656817D01*
X17025381Y17656818D01*
X17035547Y17672033D01*
X17056083Y17702767D01*
X17073784Y17745500D01*
X17085676Y17774210D01*
X17085676Y17774211D01*
X17098591Y17805391D01*
X17103386Y17816966D01*
X17127500Y17938197D01*
X17127500Y18061803D01*
X17127500Y19701678D01*
X17500001Y19701678D01*
X17510144Y19602393D01*
X17563452Y19441519D01*
X17563457Y19441508D01*
X17652424Y19297272D01*
X17652427Y19297268D01*
X17772267Y19177428D01*
X17772271Y19177425D01*
X17913816Y19090118D01*
X17960541Y19038170D01*
X17971762Y18969208D01*
X17943919Y18905126D01*
X17913817Y18879042D01*
X17822268Y18822574D01*
X17702427Y18702733D01*
X17702424Y18702729D01*
X17613457Y18558493D01*
X17613452Y18558482D01*
X17560144Y18397607D01*
X17550000Y18298323D01*
X17550000Y18250000D01*
X18250000Y18250000D01*
X18250000Y18975001D01*
X18236321Y18988679D01*
X18202834Y19050001D01*
X18200000Y19076362D01*
X18200000Y19750000D01*
X17500001Y19750000D01*
X17500001Y19701678D01*
X17127500Y19701678D01*
X17127500Y21188720D01*
X17147185Y21255759D01*
X17163814Y21276396D01*
X17363653Y21476235D01*
X17424974Y21509718D01*
X17494666Y21504734D01*
X17550599Y21462862D01*
X17560929Y21445608D01*
X17652424Y21297272D01*
X17652427Y21297268D01*
X17772267Y21177428D01*
X17772271Y21177425D01*
X17888816Y21105538D01*
X17935541Y21053590D01*
X17946762Y20984627D01*
X17918919Y20920545D01*
X17888816Y20894462D01*
X17772271Y20822576D01*
X17772267Y20822573D01*
X17652427Y20702733D01*
X17652424Y20702729D01*
X17563457Y20558493D01*
X17563452Y20558482D01*
X17510144Y20397607D01*
X17500000Y20298323D01*
X17500000Y20250000D01*
X18200000Y20250000D01*
X18200000Y22050500D01*
X18219685Y22117539D01*
X18272489Y22163294D01*
X18324000Y22174500D01*
X18576000Y22174500D01*
X18643039Y22154815D01*
G37*
%TD.AperFunction*%
%TA.AperFunction,Conductor*%
G36*
X38446847Y19227815D02*
G01*
X38492602Y19175011D01*
X38503166Y19110898D01*
X38499500Y19075019D01*
X38499500Y18424999D01*
X38499501Y18424981D01*
X38510000Y18322204D01*
X38510001Y18322201D01*
X38550549Y18199838D01*
X38565186Y18155666D01*
X38649059Y18019685D01*
X38657289Y18006343D01*
X38709181Y17954451D01*
X38742666Y17893128D01*
X38745500Y17866770D01*
X38745500Y16363887D01*
X38725815Y16296848D01*
X38709181Y16276206D01*
X38502790Y16069816D01*
X38441467Y16036331D01*
X38371775Y16041315D01*
X38319256Y16078832D01*
X38210886Y16210880D01*
X38210884Y16210882D01*
X38210883Y16210883D01*
X38178825Y16237193D01*
X38172832Y16242112D01*
X38133500Y16299859D01*
X38127500Y16337963D01*
X38127500Y17061803D01*
X38124470Y17077035D01*
X38118473Y17107184D01*
X38103386Y17183034D01*
X38074245Y17253386D01*
X38074245Y17253387D01*
X38056086Y17297227D01*
X38056078Y17297242D01*
X37987412Y17400007D01*
X37945900Y17441519D01*
X37900008Y17487411D01*
X37652417Y17735002D01*
X37400011Y17987409D01*
X37400006Y17987413D01*
X37387904Y17995499D01*
X37387902Y17995500D01*
X37297239Y18056080D01*
X37297226Y18056087D01*
X37260253Y18071401D01*
X37183035Y18103386D01*
X37183027Y18103388D01*
X37061807Y18127500D01*
X37061803Y18127500D01*
X35375393Y18127500D01*
X35308354Y18147185D01*
X35269277Y18187349D01*
X35255471Y18210186D01*
X35255468Y18210190D01*
X35135189Y18330469D01*
X35135185Y18330472D01*
X35071203Y18369151D01*
X35024016Y18420679D01*
X35012178Y18489538D01*
X35039447Y18553867D01*
X35077863Y18583698D01*
X35077550Y18584205D01*
X35082253Y18587107D01*
X35082959Y18587654D01*
X35083687Y18587994D01*
X35083697Y18587997D01*
X35084158Y18588281D01*
X35152335Y18630334D01*
X35228044Y18677032D01*
X35347968Y18796956D01*
X35358233Y18813598D01*
X35410181Y18860322D01*
X35463771Y18872500D01*
X36110481Y18872500D01*
X36177520Y18852815D01*
X36198157Y18836186D01*
X36289815Y18744528D01*
X36435394Y18656522D01*
X36597804Y18605914D01*
X36668384Y18599500D01*
X36668387Y18599500D01*
X37331613Y18599500D01*
X37331616Y18599500D01*
X37402196Y18605914D01*
X37564606Y18656522D01*
X37710185Y18744528D01*
X37830472Y18864815D01*
X37918478Y19010394D01*
X37918735Y19011220D01*
X37919184Y19011964D01*
X37921560Y19017240D01*
X37922200Y19016952D01*
X37949443Y19062026D01*
X37987411Y19099992D01*
X38098601Y19211183D01*
X38159922Y19244666D01*
X38186281Y19247500D01*
X38379808Y19247500D01*
X38446847Y19227815D01*
G37*
%TD.AperFunction*%
%TA.AperFunction,Conductor*%
G36*
X32153269Y18852814D02*
G01*
X32191769Y18813595D01*
X32201861Y18797232D01*
X32202032Y18796956D01*
X32321956Y18677032D01*
X32381625Y18640227D01*
X32428348Y18588281D01*
X32439571Y18519318D01*
X32411727Y18455236D01*
X32365897Y18424529D01*
X32367235Y18421557D01*
X32360397Y18418480D01*
X32214811Y18330470D01*
X32094531Y18210190D01*
X32094528Y18210186D01*
X32080723Y18187349D01*
X32029195Y18140162D01*
X31974607Y18127500D01*
X31212064Y18127500D01*
X31145025Y18147185D01*
X31124383Y18163819D01*
X30627384Y18660818D01*
X30593899Y18722141D01*
X30598883Y18791833D01*
X30640755Y18847766D01*
X30706219Y18872183D01*
X30715065Y18872499D01*
X32086230Y18872499D01*
X32153269Y18852814D01*
G37*
%TD.AperFunction*%
%TA.AperFunction,Conductor*%
G36*
X16524300Y24480494D02*
G01*
X16650478Y24401211D01*
X16825186Y24340078D01*
X16881963Y24299356D01*
X16907710Y24234403D01*
X16894254Y24165842D01*
X16845867Y24115439D01*
X16820239Y24104379D01*
X16816967Y24103387D01*
X16702773Y24056087D01*
X16702760Y24056080D01*
X16599992Y23987412D01*
X16599988Y23987409D01*
X15455395Y22842814D01*
X15099992Y22487411D01*
X15056289Y22443708D01*
X15012586Y22400006D01*
X15012585Y22400004D01*
X14943923Y22297244D01*
X14943914Y22297227D01*
X14936778Y22280002D01*
X14936779Y22280001D01*
X14897204Y22184459D01*
X14896614Y22183035D01*
X14880771Y22103385D01*
X14880771Y22103384D01*
X14872500Y22061805D01*
X14872500Y20046447D01*
X14852815Y19979408D01*
X14800011Y19933653D01*
X14730853Y19923709D01*
X14667297Y19952734D01*
X14643507Y19980473D01*
X14637532Y19989982D01*
X14629816Y20002262D01*
X14502262Y20129816D01*
X14484773Y20140805D01*
X14349523Y20225789D01*
X14179254Y20285369D01*
X14179249Y20285370D01*
X14000004Y20305565D01*
X13999996Y20305565D01*
X13820750Y20285370D01*
X13820745Y20285369D01*
X13650476Y20225789D01*
X13497737Y20129816D01*
X13370185Y20002264D01*
X13356493Y19980473D01*
X13304157Y19934183D01*
X13235104Y19923536D01*
X13171256Y19951912D01*
X13132885Y20010302D01*
X13127500Y20046447D01*
X13127500Y21662039D01*
X13147185Y21729078D01*
X13172834Y21757892D01*
X13210883Y21789117D01*
X13238667Y21822971D01*
X13318986Y21920840D01*
X13335910Y21941462D01*
X13409668Y22079454D01*
X13428811Y22115267D01*
X13428811Y22115268D01*
X13428814Y22115273D01*
X13486024Y22303868D01*
X13505341Y22500000D01*
X13500516Y22548987D01*
X13513535Y22617631D01*
X13536235Y22648818D01*
X15350600Y24463181D01*
X15411923Y24496666D01*
X15438281Y24499500D01*
X16458328Y24499500D01*
X16524300Y24480494D01*
G37*
%TD.AperFunction*%
%TA.AperFunction,Conductor*%
G36*
X63463740Y32725815D02*
G01*
X63509495Y32673011D01*
X63519439Y32603853D01*
X63509778Y32570611D01*
X63506979Y32564394D01*
X63456409Y32402107D01*
X63450000Y32331573D01*
X63450000Y32250000D01*
X64476000Y32250000D01*
X64543039Y32230315D01*
X64588794Y32177511D01*
X64600000Y32126000D01*
X64600000Y31025001D01*
X64606581Y31025001D01*
X64677102Y31031409D01*
X64677107Y31031410D01*
X64839396Y31081982D01*
X64984877Y31169928D01*
X65033818Y31218869D01*
X65095141Y31252355D01*
X65164832Y31247371D01*
X65220766Y31205500D01*
X65245184Y31140036D01*
X65245500Y31131189D01*
X65245500Y30124500D01*
X65225815Y30057461D01*
X65173011Y30011706D01*
X65121500Y30000500D01*
X64152129Y30000500D01*
X64152123Y30000499D01*
X64092516Y29994092D01*
X63957671Y29943798D01*
X63957664Y29943794D01*
X63842455Y29857548D01*
X63842452Y29857545D01*
X63756206Y29742336D01*
X63756202Y29742329D01*
X63705908Y29607483D01*
X63699501Y29547884D01*
X63699500Y29547865D01*
X63699500Y27952130D01*
X63699501Y27952124D01*
X63705908Y27892517D01*
X63756202Y27757672D01*
X63756206Y27757665D01*
X63842452Y27642456D01*
X63842455Y27642453D01*
X63957664Y27556207D01*
X63957671Y27556203D01*
X64092517Y27505909D01*
X64092516Y27505909D01*
X64099444Y27505165D01*
X64152127Y27499500D01*
X65121500Y27499501D01*
X65188539Y27479817D01*
X65234294Y27427013D01*
X65245500Y27375501D01*
X65245500Y26662651D01*
X65225815Y26595612D01*
X65173011Y26549857D01*
X65164837Y26546470D01*
X65157670Y26543797D01*
X65157669Y26543797D01*
X65074311Y26481394D01*
X65008847Y26456977D01*
X64940574Y26471828D01*
X64925689Y26481394D01*
X64916064Y26488599D01*
X64842331Y26543796D01*
X64842330Y26543797D01*
X64842328Y26543798D01*
X64707482Y26594092D01*
X64707483Y26594092D01*
X64647883Y26600499D01*
X64647881Y26600500D01*
X64647873Y26600500D01*
X64647864Y26600500D01*
X63352129Y26600500D01*
X63352123Y26600499D01*
X63292516Y26594092D01*
X63157671Y26543798D01*
X63157664Y26543794D01*
X63042455Y26457548D01*
X63042452Y26457545D01*
X62956206Y26342336D01*
X62956202Y26342329D01*
X62905908Y26207483D01*
X62899992Y26152453D01*
X62899501Y26147877D01*
X62899500Y26147865D01*
X62899500Y24852130D01*
X62899501Y24852124D01*
X62905908Y24792517D01*
X62956202Y24657672D01*
X62956206Y24657665D01*
X63042452Y24542456D01*
X63042455Y24542453D01*
X63157664Y24456207D01*
X63157671Y24456203D01*
X63197071Y24441508D01*
X63292517Y24405909D01*
X63352127Y24399500D01*
X63471500Y24399501D01*
X63538539Y24379817D01*
X63584294Y24327013D01*
X63595500Y24275501D01*
X63595500Y24246361D01*
X63577617Y24182211D01*
X63506522Y24064607D01*
X63455913Y23902193D01*
X63449500Y23831614D01*
X63449500Y23476089D01*
X63429815Y23409050D01*
X63377011Y23363295D01*
X63307853Y23353351D01*
X63244297Y23382376D01*
X63237819Y23388408D01*
X61063907Y25562320D01*
X61030422Y25623643D01*
X61035406Y25693335D01*
X61063905Y25737680D01*
X61513769Y26187543D01*
X61513773Y26187545D01*
X61640455Y26314227D01*
X61702236Y26406689D01*
X61739989Y26463189D01*
X61808549Y26628708D01*
X61843500Y26804422D01*
X61843500Y26983578D01*
X61843500Y28470288D01*
X61843501Y28470309D01*
X61843501Y28655580D01*
X61808550Y28831286D01*
X61808549Y28831287D01*
X61808549Y28831291D01*
X61781080Y28897607D01*
X61739992Y28996804D01*
X61739985Y28996817D01*
X61640455Y29145773D01*
X61640452Y29145777D01*
X61510677Y29275552D01*
X61510646Y29275581D01*
X60827439Y29958788D01*
X60793954Y30020111D01*
X60791762Y30033872D01*
X60790349Y30047708D01*
X60765794Y30121811D01*
X60759500Y30160815D01*
X60759500Y30466500D01*
X60779185Y30533539D01*
X60831989Y30579294D01*
X60883500Y30590500D01*
X61589579Y30590500D01*
X61589580Y30590501D01*
X61765291Y30625451D01*
X61930810Y30694011D01*
X62079773Y30793545D01*
X62206455Y30920227D01*
X62305989Y31069190D01*
X62374549Y31234709D01*
X62409500Y31410422D01*
X62409500Y31589578D01*
X62393818Y31668418D01*
X63450001Y31668418D01*
X63456408Y31597898D01*
X63456409Y31597893D01*
X63506981Y31435604D01*
X63594927Y31290123D01*
X63715122Y31169928D01*
X63860604Y31081981D01*
X63860603Y31081981D01*
X64022894Y31031410D01*
X64022893Y31031410D01*
X64093408Y31025002D01*
X64093426Y31025001D01*
X64099999Y31025002D01*
X64100000Y31025002D01*
X64100000Y31750000D01*
X63450001Y31750000D01*
X63450001Y31668418D01*
X62393818Y31668418D01*
X62374549Y31765291D01*
X62352968Y31817392D01*
X62305992Y31930804D01*
X62305985Y31930817D01*
X62206455Y32079773D01*
X62206452Y32079777D01*
X62079775Y32206454D01*
X62079772Y32206456D01*
X61930816Y32305986D01*
X61930803Y32305993D01*
X61765295Y32374548D01*
X61765283Y32374551D01*
X61589582Y32409500D01*
X61589578Y32409500D01*
X60642874Y32409500D01*
X60575835Y32429185D01*
X60555193Y32445819D01*
X60528044Y32472968D01*
X60528040Y32472971D01*
X60458341Y32515962D01*
X60411616Y32567910D01*
X60400395Y32636872D01*
X60428238Y32700954D01*
X60486307Y32739810D01*
X60523438Y32745500D01*
X63396701Y32745500D01*
X63463740Y32725815D01*
G37*
%TD.AperFunction*%
%TA.AperFunction,Conductor*%
G36*
X46983809Y31675815D02*
G01*
X47004451Y31659181D01*
X47056346Y31607286D01*
X47059182Y31605537D01*
X47060717Y31603830D01*
X47062011Y31602807D01*
X47061836Y31602586D01*
X47105905Y31553589D01*
X47117126Y31484626D01*
X47089282Y31420544D01*
X47059182Y31394463D01*
X47056346Y31392715D01*
X46932289Y31268658D01*
X46840187Y31119337D01*
X46840185Y31119332D01*
X46831128Y31092000D01*
X46785001Y30952797D01*
X46785001Y30952796D01*
X46785000Y30952796D01*
X46774500Y30850017D01*
X46774500Y30249999D01*
X46774501Y30249981D01*
X46785000Y30147209D01*
X46785001Y30147202D01*
X46817970Y30047709D01*
X46840186Y29980666D01*
X46932288Y29831344D01*
X47056344Y29707288D01*
X47205666Y29615186D01*
X47372203Y29560001D01*
X47474991Y29549500D01*
X47882112Y29549501D01*
X47949151Y29529817D01*
X47969793Y29513182D01*
X48709181Y28773795D01*
X48742666Y28712472D01*
X48745500Y28686114D01*
X48745500Y26079448D01*
X48745499Y26079422D01*
X48745499Y25925687D01*
X48760000Y25852790D01*
X48760000Y25852788D01*
X48774492Y25779927D01*
X48774494Y25779922D01*
X48792663Y25736059D01*
X48831368Y25642615D01*
X48831372Y25642608D01*
X48913942Y25519032D01*
X48913943Y25519031D01*
X49566795Y24866181D01*
X49600280Y24804858D01*
X49595296Y24735167D01*
X49553425Y24679233D01*
X49487960Y24654816D01*
X49479114Y24654500D01*
X44683089Y24654500D01*
X44616050Y24674185D01*
X44595408Y24690819D01*
X43210795Y26075432D01*
X43210775Y26075454D01*
X43079776Y26206453D01*
X43079772Y26206456D01*
X42930816Y26305986D01*
X42930812Y26305988D01*
X42930810Y26305989D01*
X42910919Y26314228D01*
X42910917Y26314229D01*
X42910916Y26314230D01*
X42765292Y26374549D01*
X42765286Y26374551D01*
X42589580Y26409501D01*
X42589578Y26409501D01*
X42410422Y26409501D01*
X42404308Y26409501D01*
X42404288Y26409500D01*
X41428230Y26409500D01*
X41361191Y26429185D01*
X41340549Y26445819D01*
X41290819Y26495549D01*
X41257334Y26556872D01*
X41254500Y26583230D01*
X41254500Y26752126D01*
X41274185Y26819165D01*
X41290819Y26839807D01*
X41297968Y26846956D01*
X41387003Y26991303D01*
X41440349Y27152292D01*
X41450500Y27251655D01*
X41450499Y27848344D01*
X41440349Y27947708D01*
X41438884Y27952130D01*
X41431995Y27972919D01*
X41429593Y28042747D01*
X41462018Y28099601D01*
X41987411Y28624992D01*
X41993365Y28633903D01*
X42056083Y28727767D01*
X42075834Y28775451D01*
X42103386Y28841966D01*
X42127500Y28963197D01*
X42127500Y29086804D01*
X42127500Y29399955D01*
X42147185Y29466994D01*
X42199989Y29512749D01*
X42269147Y29522693D01*
X42315647Y29506073D01*
X42360394Y29479022D01*
X42522804Y29428414D01*
X42593384Y29422000D01*
X42593387Y29422000D01*
X43106613Y29422000D01*
X43106616Y29422000D01*
X43177196Y29428414D01*
X43339606Y29479022D01*
X43485185Y29567028D01*
X43587673Y29669517D01*
X43648994Y29703001D01*
X43718685Y29698017D01*
X43763034Y29669516D01*
X43865122Y29567428D01*
X44010604Y29479481D01*
X44010603Y29479481D01*
X44172894Y29428910D01*
X44172893Y29428910D01*
X44243408Y29422502D01*
X44243426Y29422501D01*
X44750000Y29422501D01*
X44756581Y29422501D01*
X44827102Y29428909D01*
X44827107Y29428910D01*
X44989396Y29479482D01*
X45134877Y29567428D01*
X45255072Y29687623D01*
X45343019Y29833105D01*
X45393590Y29995394D01*
X45400000Y30065928D01*
X45400000Y30147500D01*
X44750000Y30147500D01*
X44750000Y29422501D01*
X44243426Y29422501D01*
X44249999Y29422502D01*
X44250000Y29422502D01*
X44250000Y30523500D01*
X44269685Y30590539D01*
X44322489Y30636294D01*
X44374000Y30647500D01*
X45399999Y30647500D01*
X45399999Y30729083D01*
X45393591Y30799603D01*
X45393590Y30799608D01*
X45343018Y30961897D01*
X45255072Y31107378D01*
X45134877Y31227573D01*
X45029806Y31291091D01*
X44982618Y31342619D01*
X44970780Y31411479D01*
X44998049Y31475807D01*
X45029801Y31503322D01*
X45135185Y31567028D01*
X45227339Y31659183D01*
X45288660Y31692666D01*
X45315019Y31695500D01*
X46916770Y31695500D01*
X46983809Y31675815D01*
G37*
%TD.AperFunction*%
%TA.AperFunction,Conductor*%
G36*
X49363900Y33055816D02*
G01*
X49403978Y33028998D01*
X51251615Y31181361D01*
X51269704Y31155870D01*
X51270507Y31156374D01*
X51274210Y31150481D01*
X51274211Y31150478D01*
X51370184Y30997738D01*
X51497738Y30870184D01*
X51588080Y30813418D01*
X51650474Y30774213D01*
X51650478Y30774211D01*
X51810162Y30718335D01*
X51820745Y30714632D01*
X51820750Y30714631D01*
X51999996Y30694435D01*
X52000000Y30694435D01*
X52000004Y30694435D01*
X52179249Y30714631D01*
X52179252Y30714632D01*
X52179255Y30714632D01*
X52349522Y30774211D01*
X52380018Y30793374D01*
X52447254Y30812375D01*
X52514090Y30792009D01*
X52559305Y30738742D01*
X52568544Y30669486D01*
X52538874Y30606229D01*
X52533673Y30600700D01*
X52334942Y30401969D01*
X52252374Y30278395D01*
X52252368Y30278385D01*
X52230292Y30225090D01*
X52230293Y30225089D01*
X52198033Y30147206D01*
X52198031Y30147202D01*
X52195498Y30141090D01*
X52195495Y30141079D01*
X52166499Y29995314D01*
X52166499Y29840575D01*
X52166500Y29840554D01*
X52166500Y27154766D01*
X52166499Y27154740D01*
X52166499Y27001005D01*
X52184288Y26911580D01*
X52184288Y26911578D01*
X52195492Y26855246D01*
X52195494Y26855242D01*
X52195495Y26855238D01*
X52211568Y26816434D01*
X52211569Y26816432D01*
X52211568Y26816432D01*
X52252367Y26717933D01*
X52334942Y26594350D01*
X52334943Y26594349D01*
X52838181Y26091113D01*
X52871666Y26029790D01*
X52874500Y26003432D01*
X52874500Y25959638D01*
X52880667Y25908285D01*
X52869117Y25839377D01*
X52822145Y25787652D01*
X52757552Y25769500D01*
X50848886Y25769500D01*
X50781847Y25789185D01*
X50761205Y25805819D01*
X50290819Y26276206D01*
X50257334Y26337529D01*
X50254500Y26363887D01*
X50254500Y29124313D01*
X50254499Y29124317D01*
X50248647Y29153737D01*
X50225505Y29270080D01*
X50168629Y29407390D01*
X50166079Y29411206D01*
X50086060Y29530965D01*
X50086054Y29530972D01*
X49976647Y29640379D01*
X49976624Y29640400D01*
X49261818Y30355206D01*
X49228333Y30416529D01*
X49225499Y30442887D01*
X49225499Y30850002D01*
X49225498Y30850019D01*
X49214999Y30952797D01*
X49214998Y30952800D01*
X49197624Y31005232D01*
X49159814Y31119334D01*
X49067712Y31268656D01*
X48943656Y31392712D01*
X48940819Y31394462D01*
X48939283Y31396170D01*
X48937989Y31397193D01*
X48938163Y31397415D01*
X48894096Y31446406D01*
X48882872Y31515368D01*
X48910713Y31579451D01*
X48940817Y31605538D01*
X48943656Y31607288D01*
X49067712Y31731344D01*
X49159814Y31880666D01*
X49214999Y32047203D01*
X49225500Y32149991D01*
X49225499Y32750008D01*
X49214999Y32852797D01*
X49198590Y32902314D01*
X49196189Y32972141D01*
X49231921Y33032183D01*
X49294441Y33063376D01*
X49363900Y33055816D01*
G37*
%TD.AperFunction*%
%TA.AperFunction,Conductor*%
G36*
X29677520Y29202815D02*
G01*
X29698157Y29186186D01*
X29789815Y29094528D01*
X29935394Y29006522D01*
X30097804Y28955914D01*
X30168384Y28949500D01*
X30611719Y28949500D01*
X30678758Y28929815D01*
X30699400Y28913181D01*
X31012589Y28599992D01*
X31069226Y28543355D01*
X31099994Y28512587D01*
X31099996Y28512586D01*
X31202756Y28443924D01*
X31202760Y28443922D01*
X31202767Y28443917D01*
X31248418Y28425008D01*
X31316966Y28396614D01*
X31435829Y28372971D01*
X31438192Y28372501D01*
X31438196Y28372500D01*
X31438197Y28372500D01*
X33662038Y28372500D01*
X33729077Y28352815D01*
X33757891Y28327165D01*
X33789116Y28289117D01*
X33941460Y28164091D01*
X33941463Y28164089D01*
X34010810Y28127022D01*
X34060654Y28078059D01*
X34076114Y28009922D01*
X34052282Y27944242D01*
X34017454Y27912126D01*
X33872268Y27822574D01*
X33872265Y27822572D01*
X33863031Y27813337D01*
X33801707Y27779854D01*
X33732015Y27784841D01*
X33687672Y27813340D01*
X33678044Y27822968D01*
X33678040Y27822971D01*
X33533705Y27911999D01*
X33533699Y27912002D01*
X33533697Y27912003D01*
X33502254Y27922422D01*
X33372709Y27965349D01*
X33273346Y27975500D01*
X32726662Y27975500D01*
X32726644Y27975499D01*
X32627292Y27965350D01*
X32627289Y27965349D01*
X32466305Y27912004D01*
X32466294Y27911999D01*
X32321959Y27822971D01*
X32321955Y27822968D01*
X32202032Y27703045D01*
X32202029Y27703041D01*
X32113001Y27558706D01*
X32112996Y27558695D01*
X32059651Y27397710D01*
X32049500Y27298353D01*
X32049500Y27214138D01*
X32029815Y27147099D01*
X31977011Y27101344D01*
X31907853Y27091400D01*
X31844297Y27120425D01*
X31835487Y27129680D01*
X31835379Y27129571D01*
X31709877Y27255073D01*
X31564395Y27343020D01*
X31564396Y27343020D01*
X31402105Y27393591D01*
X31402106Y27393591D01*
X31331572Y27400000D01*
X31250000Y27400000D01*
X31250000Y26374000D01*
X31230315Y26306961D01*
X31177511Y26261206D01*
X31126000Y26250000D01*
X28874000Y26250000D01*
X28806961Y26269685D01*
X28761206Y26322489D01*
X28750000Y26374000D01*
X28750000Y27400000D01*
X29250000Y27400000D01*
X29250000Y26750000D01*
X30750000Y26750000D01*
X30750000Y27400000D01*
X30749999Y27400001D01*
X30668417Y27400000D01*
X30597897Y27393592D01*
X30597892Y27393591D01*
X30435603Y27343019D01*
X30290122Y27255073D01*
X30169927Y27134878D01*
X30106117Y27029323D01*
X30054589Y26982135D01*
X29985729Y26970297D01*
X29921401Y26997566D01*
X29893883Y27029323D01*
X29830072Y27134878D01*
X29709877Y27255073D01*
X29564395Y27343020D01*
X29564396Y27343020D01*
X29402105Y27393591D01*
X29402106Y27393591D01*
X29331572Y27400000D01*
X29250000Y27400000D01*
X28750000Y27400000D01*
X28749999Y27400001D01*
X28668417Y27400000D01*
X28597897Y27393592D01*
X28597892Y27393591D01*
X28435601Y27343019D01*
X28435599Y27343018D01*
X28366750Y27301397D01*
X28299195Y27283561D01*
X28232722Y27305079D01*
X28188434Y27359120D01*
X28178601Y27407514D01*
X28178601Y28589820D01*
X28198286Y28656859D01*
X28214920Y28677501D01*
X28450600Y28913181D01*
X28511923Y28946666D01*
X28538281Y28949500D01*
X28831613Y28949500D01*
X28831616Y28949500D01*
X28902196Y28955914D01*
X29064606Y29006522D01*
X29210185Y29094528D01*
X29301839Y29186183D01*
X29363160Y29219666D01*
X29389519Y29222500D01*
X29610481Y29222500D01*
X29677520Y29202815D01*
G37*
%TD.AperFunction*%
%TA.AperFunction,Conductor*%
G36*
X59117971Y28865165D02*
G01*
X59162327Y28836661D01*
X59171955Y28827033D01*
X59171959Y28827030D01*
X59316294Y28738002D01*
X59316297Y28738001D01*
X59316303Y28737997D01*
X59477292Y28684651D01*
X59491131Y28683238D01*
X59555820Y28656846D01*
X59566212Y28647561D01*
X59646592Y28567181D01*
X59680077Y28505858D01*
X59675093Y28436166D01*
X59633221Y28380233D01*
X59567757Y28355816D01*
X59558911Y28355500D01*
X58820383Y28355500D01*
X58753344Y28375185D01*
X58721116Y28405189D01*
X58682190Y28457187D01*
X58682189Y28457188D01*
X58658246Y28475112D01*
X58616375Y28531046D01*
X58611391Y28600738D01*
X58644876Y28662061D01*
X58693553Y28692085D01*
X58833481Y28738453D01*
X58833492Y28738458D01*
X58977731Y28827427D01*
X58986959Y28836655D01*
X59048279Y28870144D01*
X59117971Y28865165D01*
G37*
%TD.AperFunction*%
%TA.AperFunction,Conductor*%
G36*
X31608082Y34994429D02*
G01*
X31642402Y34970179D01*
X33836181Y32776400D01*
X33869666Y32715077D01*
X33872500Y32688719D01*
X33872500Y31650693D01*
X33896612Y31529472D01*
X33896616Y31529457D01*
X33904074Y31511454D01*
X33911544Y31441985D01*
X33880270Y31379506D01*
X33820182Y31343852D01*
X33789514Y31340000D01*
X33598781Y31340000D01*
X33531742Y31359685D01*
X33511100Y31376319D01*
X32325852Y32561567D01*
X32292367Y32622890D01*
X32290314Y32635352D01*
X32285368Y32679255D01*
X32225789Y32849522D01*
X32210770Y32873424D01*
X32148742Y32972141D01*
X32129816Y33002262D01*
X32002262Y33129816D01*
X31940449Y33168656D01*
X31849523Y33225789D01*
X31679254Y33285369D01*
X31679250Y33285370D01*
X31583940Y33296108D01*
X31519526Y33323175D01*
X31479971Y33380769D01*
X31474333Y33430549D01*
X31475500Y33443384D01*
X31475500Y33956616D01*
X31469086Y34027196D01*
X31418478Y34189606D01*
X31330472Y34335185D01*
X31330470Y34335187D01*
X31330469Y34335189D01*
X31227984Y34437674D01*
X31194499Y34498997D01*
X31199483Y34568689D01*
X31227985Y34613037D01*
X31330071Y34715122D01*
X31330072Y34715123D01*
X31418018Y34860603D01*
X31436335Y34919386D01*
X31475072Y34977535D01*
X31539097Y35005510D01*
X31608082Y34994429D01*
G37*
%TD.AperFunction*%
%TA.AperFunction,Conductor*%
G36*
X45249152Y37179815D02*
G01*
X45269794Y37163181D01*
X48243369Y34189606D01*
X48803998Y33628978D01*
X48837483Y33567655D01*
X48832499Y33497963D01*
X48790627Y33442030D01*
X48725163Y33417613D01*
X48677314Y33423591D01*
X48627799Y33439999D01*
X48627795Y33440000D01*
X48525010Y33450500D01*
X47474998Y33450500D01*
X47474980Y33450499D01*
X47372203Y33440000D01*
X47372200Y33439999D01*
X47205668Y33384815D01*
X47205663Y33384813D01*
X47056342Y33292711D01*
X47004451Y33240819D01*
X46943128Y33207334D01*
X46916770Y33204500D01*
X45207934Y33204500D01*
X45140895Y33224185D01*
X45137743Y33226426D01*
X44989606Y33315978D01*
X44827196Y33366586D01*
X44827194Y33366587D01*
X44827192Y33366587D01*
X44777778Y33371077D01*
X44756616Y33373000D01*
X44243384Y33373000D01*
X44224145Y33371252D01*
X44172807Y33366587D01*
X44010393Y33315978D01*
X43864813Y33227971D01*
X43762680Y33125838D01*
X43701357Y33092354D01*
X43631665Y33097338D01*
X43587319Y33125838D01*
X43513818Y33199339D01*
X43480334Y33260663D01*
X43477500Y33287020D01*
X43477500Y34130056D01*
X43497185Y34197095D01*
X43549989Y34242850D01*
X43589344Y34253459D01*
X43696132Y34263976D01*
X43884727Y34321186D01*
X43908134Y34333697D01*
X44038512Y34403386D01*
X44058538Y34414090D01*
X44210883Y34539117D01*
X44335910Y34691462D01*
X44402749Y34816508D01*
X44428811Y34865267D01*
X44428811Y34865268D01*
X44428814Y34865273D01*
X44486024Y35053868D01*
X44505341Y35250000D01*
X44486024Y35446132D01*
X44428814Y35634727D01*
X44428811Y35634731D01*
X44428811Y35634734D01*
X44335913Y35808533D01*
X44335909Y35808540D01*
X44210883Y35960884D01*
X44058539Y36085910D01*
X44058532Y36085914D01*
X43884733Y36178812D01*
X43884727Y36178814D01*
X43696132Y36236024D01*
X43696129Y36236025D01*
X43500000Y36255341D01*
X43303870Y36236025D01*
X43115266Y36178812D01*
X42941467Y36085914D01*
X42941460Y36085910D01*
X42789116Y35960884D01*
X42664090Y35808540D01*
X42664086Y35808533D01*
X42571188Y35634734D01*
X42513975Y35446130D01*
X42494659Y35250000D01*
X42499483Y35201015D01*
X42486463Y35132369D01*
X42463764Y35101184D01*
X42455968Y35093387D01*
X42449992Y35087411D01*
X42416452Y35053871D01*
X42362586Y35000006D01*
X42362585Y35000004D01*
X42293233Y34896211D01*
X42291586Y34891607D01*
X42246615Y34783038D01*
X42246612Y34783028D01*
X42227324Y34686058D01*
X42227324Y34686057D01*
X42222500Y34661806D01*
X42222500Y33287020D01*
X42202815Y33219981D01*
X42186181Y33199339D01*
X42094531Y33107690D01*
X42094530Y33107689D01*
X42006522Y32962107D01*
X41955913Y32799693D01*
X41951398Y32750002D01*
X41949500Y32729116D01*
X41949500Y32065884D01*
X41951302Y32046059D01*
X41955914Y31995302D01*
X41957194Y31988869D01*
X41954388Y31988312D01*
X41955312Y31930986D01*
X41918490Y31871607D01*
X41855410Y31841562D01*
X41835788Y31840000D01*
X41524000Y31840000D01*
X41456961Y31859685D01*
X41411206Y31912489D01*
X41400000Y31964000D01*
X41400000Y31985804D01*
X41396726Y32002263D01*
X41394672Y32012589D01*
X41375886Y32107035D01*
X41338980Y32196132D01*
X41334704Y32206456D01*
X41334704Y32206457D01*
X41330462Y32216697D01*
X41328583Y32221233D01*
X41322527Y32230296D01*
X41259914Y32324004D01*
X41259913Y32324006D01*
X41221842Y32362077D01*
X41172508Y32411411D01*
X41120987Y32462932D01*
X41087502Y32524255D01*
X41092486Y32593947D01*
X41094108Y32598067D01*
X41103384Y32620461D01*
X41103384Y32620462D01*
X41103386Y32620466D01*
X41127500Y32741697D01*
X41127500Y32865303D01*
X41127500Y33127035D01*
X41147185Y33194074D01*
X41174595Y33224306D01*
X41178033Y33227026D01*
X41178044Y33227032D01*
X41297968Y33346956D01*
X41387003Y33491303D01*
X41440349Y33652292D01*
X41450500Y33751655D01*
X41450499Y34348344D01*
X41449708Y34356083D01*
X41440349Y34447708D01*
X41440348Y34447711D01*
X41430296Y34478047D01*
X41387003Y34608697D01*
X41386999Y34608703D01*
X41386998Y34608706D01*
X41297970Y34753041D01*
X41297967Y34753045D01*
X41240819Y34810193D01*
X41207334Y34871516D01*
X41204500Y34897874D01*
X41204500Y35416770D01*
X41224185Y35483809D01*
X41240819Y35504451D01*
X41292712Y35556344D01*
X41384814Y35705666D01*
X41439999Y35872203D01*
X41450500Y35974991D01*
X41450499Y36382115D01*
X41470183Y36449153D01*
X41486813Y36469790D01*
X42180205Y37163181D01*
X42241528Y37196666D01*
X42267886Y37199500D01*
X45182113Y37199500D01*
X45249152Y37179815D01*
G37*
%TD.AperFunction*%
%TA.AperFunction,Conductor*%
G36*
X30693039Y35479815D02*
G01*
X30738794Y35427011D01*
X30750000Y35375500D01*
X30750000Y35224000D01*
X30730315Y35156961D01*
X30677511Y35111206D01*
X30626000Y35100000D01*
X27525001Y35100000D01*
X27525001Y35076678D01*
X27535144Y34977393D01*
X27588452Y34816519D01*
X27588457Y34816508D01*
X27677424Y34672272D01*
X27677427Y34672268D01*
X27686660Y34663035D01*
X27720145Y34601712D01*
X27715161Y34532020D01*
X27686663Y34487676D01*
X27677033Y34478047D01*
X27677029Y34478041D01*
X27588001Y34333706D01*
X27587996Y34333695D01*
X27534651Y34172711D01*
X27531515Y34142018D01*
X27505117Y34077327D01*
X27447935Y34037177D01*
X27378124Y34034316D01*
X27320476Y34066943D01*
X27100011Y34287409D01*
X27100007Y34287412D01*
X26997239Y34356080D01*
X26997226Y34356087D01*
X26963785Y34369938D01*
X26963784Y34369939D01*
X26963784Y34369938D01*
X26901244Y34395844D01*
X26846842Y34439685D01*
X26843161Y34445307D01*
X26822970Y34478041D01*
X26822967Y34478045D01*
X26813693Y34487319D01*
X26780208Y34548642D01*
X26785192Y34618334D01*
X26813693Y34662681D01*
X26814053Y34663041D01*
X26822968Y34671956D01*
X26912003Y34816303D01*
X26965349Y34977292D01*
X26975500Y35076655D01*
X26975499Y35375501D01*
X26995183Y35442539D01*
X27047987Y35488294D01*
X27099499Y35499500D01*
X30626000Y35499500D01*
X30693039Y35479815D01*
G37*
%TD.AperFunction*%
%TD*%
M02*
