%TF.GenerationSoftware,KiCad,Pcbnew,8.0.6*%
%TF.CreationDate,2024-12-30T16:19:15+01:00*%
%TF.ProjectId,pico-glitcher-v2.1-extension,7069636f-2d67-46c6-9974-636865722d76,rev?*%
%TF.SameCoordinates,PX3d09000PY6590fa0*%
%TF.FileFunction,Legend,Top*%
%TF.FilePolarity,Positive*%
%FSLAX46Y46*%
G04 Gerber Fmt 4.6, Leading zero omitted, Abs format (unit mm)*
G04 Created by KiCad (PCBNEW 8.0.6) date 2024-12-30 16:19:15*
%MOMM*%
%LPD*%
G01*
G04 APERTURE LIST*
%ADD10C,0.150000*%
%ADD11C,0.120000*%
%ADD12C,0.000000*%
%ADD13C,0.152400*%
%ADD14C,0.200000*%
%ADD15C,0.127000*%
G04 APERTURE END LIST*
D10*
X18836779Y9261134D02*
X19598684Y9261134D01*
X20551064Y9880181D02*
X20074874Y9880181D01*
X20074874Y9880181D02*
X20027255Y9403991D01*
X20027255Y9403991D02*
X20074874Y9451610D01*
X20074874Y9451610D02*
X20170112Y9499229D01*
X20170112Y9499229D02*
X20408207Y9499229D01*
X20408207Y9499229D02*
X20503445Y9451610D01*
X20503445Y9451610D02*
X20551064Y9403991D01*
X20551064Y9403991D02*
X20598683Y9308753D01*
X20598683Y9308753D02*
X20598683Y9070658D01*
X20598683Y9070658D02*
X20551064Y8975420D01*
X20551064Y8975420D02*
X20503445Y8927800D01*
X20503445Y8927800D02*
X20408207Y8880181D01*
X20408207Y8880181D02*
X20170112Y8880181D01*
X20170112Y8880181D02*
X20074874Y8927800D01*
X20074874Y8927800D02*
X20027255Y8975420D01*
X20884398Y9880181D02*
X21217731Y8880181D01*
X21217731Y8880181D02*
X21551064Y9880181D01*
X43765350Y1296848D02*
X43765350Y630181D01*
X43527255Y1677800D02*
X43289160Y963515D01*
X43289160Y963515D02*
X43908207Y963515D01*
X44479636Y1630181D02*
X44574874Y1630181D01*
X44574874Y1630181D02*
X44670112Y1582562D01*
X44670112Y1582562D02*
X44717731Y1534943D01*
X44717731Y1534943D02*
X44765350Y1439705D01*
X44765350Y1439705D02*
X44812969Y1249229D01*
X44812969Y1249229D02*
X44812969Y1011134D01*
X44812969Y1011134D02*
X44765350Y820658D01*
X44765350Y820658D02*
X44717731Y725420D01*
X44717731Y725420D02*
X44670112Y677800D01*
X44670112Y677800D02*
X44574874Y630181D01*
X44574874Y630181D02*
X44479636Y630181D01*
X44479636Y630181D02*
X44384398Y677800D01*
X44384398Y677800D02*
X44336779Y725420D01*
X44336779Y725420D02*
X44289160Y820658D01*
X44289160Y820658D02*
X44241541Y1011134D01*
X44241541Y1011134D02*
X44241541Y1249229D01*
X44241541Y1249229D02*
X44289160Y1439705D01*
X44289160Y1439705D02*
X44336779Y1534943D01*
X44336779Y1534943D02*
X44384398Y1582562D01*
X44384398Y1582562D02*
X44479636Y1630181D01*
X45241541Y630181D02*
X45241541Y1296848D01*
X45241541Y1201610D02*
X45289160Y1249229D01*
X45289160Y1249229D02*
X45384398Y1296848D01*
X45384398Y1296848D02*
X45527255Y1296848D01*
X45527255Y1296848D02*
X45622493Y1249229D01*
X45622493Y1249229D02*
X45670112Y1153991D01*
X45670112Y1153991D02*
X45670112Y630181D01*
X45670112Y1153991D02*
X45717731Y1249229D01*
X45717731Y1249229D02*
X45812969Y1296848D01*
X45812969Y1296848D02*
X45955826Y1296848D01*
X45955826Y1296848D02*
X46051065Y1249229D01*
X46051065Y1249229D02*
X46098684Y1153991D01*
X46098684Y1153991D02*
X46098684Y630181D01*
X46527255Y915896D02*
X47003445Y915896D01*
X46432017Y630181D02*
X46765350Y1630181D01*
X46765350Y1630181D02*
X47098683Y630181D01*
X48812969Y1106372D02*
X48765350Y1153991D01*
X48765350Y1153991D02*
X48670112Y1201610D01*
X48670112Y1201610D02*
X48574874Y1201610D01*
X48574874Y1201610D02*
X48479636Y1153991D01*
X48479636Y1153991D02*
X48432017Y1106372D01*
X48432017Y1106372D02*
X48384398Y1011134D01*
X48384398Y1011134D02*
X48384398Y915896D01*
X48384398Y915896D02*
X48432017Y820658D01*
X48432017Y820658D02*
X48479636Y773039D01*
X48479636Y773039D02*
X48574874Y725420D01*
X48574874Y725420D02*
X48670112Y725420D01*
X48670112Y725420D02*
X48765350Y773039D01*
X48765350Y773039D02*
X48812969Y820658D01*
X48812969Y1201610D02*
X48812969Y820658D01*
X48812969Y820658D02*
X48860588Y773039D01*
X48860588Y773039D02*
X48908207Y773039D01*
X48908207Y773039D02*
X49003446Y820658D01*
X49003446Y820658D02*
X49051065Y915896D01*
X49051065Y915896D02*
X49051065Y1153991D01*
X49051065Y1153991D02*
X48955827Y1296848D01*
X48955827Y1296848D02*
X48812969Y1392086D01*
X48812969Y1392086D02*
X48622493Y1439705D01*
X48622493Y1439705D02*
X48432017Y1392086D01*
X48432017Y1392086D02*
X48289160Y1296848D01*
X48289160Y1296848D02*
X48193922Y1153991D01*
X48193922Y1153991D02*
X48146303Y963515D01*
X48146303Y963515D02*
X48193922Y773039D01*
X48193922Y773039D02*
X48289160Y630181D01*
X48289160Y630181D02*
X48432017Y534943D01*
X48432017Y534943D02*
X48622493Y487324D01*
X48622493Y487324D02*
X48812969Y534943D01*
X48812969Y534943D02*
X48955827Y630181D01*
X50717731Y1630181D02*
X50241541Y1630181D01*
X50241541Y1630181D02*
X50193922Y1153991D01*
X50193922Y1153991D02*
X50241541Y1201610D01*
X50241541Y1201610D02*
X50336779Y1249229D01*
X50336779Y1249229D02*
X50574874Y1249229D01*
X50574874Y1249229D02*
X50670112Y1201610D01*
X50670112Y1201610D02*
X50717731Y1153991D01*
X50717731Y1153991D02*
X50765350Y1058753D01*
X50765350Y1058753D02*
X50765350Y820658D01*
X50765350Y820658D02*
X50717731Y725420D01*
X50717731Y725420D02*
X50670112Y677800D01*
X50670112Y677800D02*
X50574874Y630181D01*
X50574874Y630181D02*
X50336779Y630181D01*
X50336779Y630181D02*
X50241541Y677800D01*
X50241541Y677800D02*
X50193922Y725420D01*
X51384398Y1630181D02*
X51479636Y1630181D01*
X51479636Y1630181D02*
X51574874Y1582562D01*
X51574874Y1582562D02*
X51622493Y1534943D01*
X51622493Y1534943D02*
X51670112Y1439705D01*
X51670112Y1439705D02*
X51717731Y1249229D01*
X51717731Y1249229D02*
X51717731Y1011134D01*
X51717731Y1011134D02*
X51670112Y820658D01*
X51670112Y820658D02*
X51622493Y725420D01*
X51622493Y725420D02*
X51574874Y677800D01*
X51574874Y677800D02*
X51479636Y630181D01*
X51479636Y630181D02*
X51384398Y630181D01*
X51384398Y630181D02*
X51289160Y677800D01*
X51289160Y677800D02*
X51241541Y725420D01*
X51241541Y725420D02*
X51193922Y820658D01*
X51193922Y820658D02*
X51146303Y1011134D01*
X51146303Y1011134D02*
X51146303Y1249229D01*
X51146303Y1249229D02*
X51193922Y1439705D01*
X51193922Y1439705D02*
X51241541Y1534943D01*
X51241541Y1534943D02*
X51289160Y1582562D01*
X51289160Y1582562D02*
X51384398Y1630181D01*
X52098684Y630181D02*
X52336779Y630181D01*
X52336779Y630181D02*
X52336779Y820658D01*
X52336779Y820658D02*
X52241541Y868277D01*
X52241541Y868277D02*
X52146303Y963515D01*
X52146303Y963515D02*
X52098684Y1106372D01*
X52098684Y1106372D02*
X52098684Y1344467D01*
X52098684Y1344467D02*
X52146303Y1487324D01*
X52146303Y1487324D02*
X52241541Y1582562D01*
X52241541Y1582562D02*
X52384398Y1630181D01*
X52384398Y1630181D02*
X52574874Y1630181D01*
X52574874Y1630181D02*
X52717731Y1582562D01*
X52717731Y1582562D02*
X52812969Y1487324D01*
X52812969Y1487324D02*
X52860588Y1344467D01*
X52860588Y1344467D02*
X52860588Y1106372D01*
X52860588Y1106372D02*
X52812969Y963515D01*
X52812969Y963515D02*
X52717731Y868277D01*
X52717731Y868277D02*
X52622493Y820658D01*
X52622493Y820658D02*
X52622493Y630181D01*
X52622493Y630181D02*
X52860588Y630181D01*
X9408207Y21880181D02*
X9074874Y22356372D01*
X8836779Y21880181D02*
X8836779Y22880181D01*
X8836779Y22880181D02*
X9217731Y22880181D01*
X9217731Y22880181D02*
X9312969Y22832562D01*
X9312969Y22832562D02*
X9360588Y22784943D01*
X9360588Y22784943D02*
X9408207Y22689705D01*
X9408207Y22689705D02*
X9408207Y22546848D01*
X9408207Y22546848D02*
X9360588Y22451610D01*
X9360588Y22451610D02*
X9312969Y22403991D01*
X9312969Y22403991D02*
X9217731Y22356372D01*
X9217731Y22356372D02*
X8836779Y22356372D01*
X9789160Y21927800D02*
X9932017Y21880181D01*
X9932017Y21880181D02*
X10170112Y21880181D01*
X10170112Y21880181D02*
X10265350Y21927800D01*
X10265350Y21927800D02*
X10312969Y21975420D01*
X10312969Y21975420D02*
X10360588Y22070658D01*
X10360588Y22070658D02*
X10360588Y22165896D01*
X10360588Y22165896D02*
X10312969Y22261134D01*
X10312969Y22261134D02*
X10265350Y22308753D01*
X10265350Y22308753D02*
X10170112Y22356372D01*
X10170112Y22356372D02*
X9979636Y22403991D01*
X9979636Y22403991D02*
X9884398Y22451610D01*
X9884398Y22451610D02*
X9836779Y22499229D01*
X9836779Y22499229D02*
X9789160Y22594467D01*
X9789160Y22594467D02*
X9789160Y22689705D01*
X9789160Y22689705D02*
X9836779Y22784943D01*
X9836779Y22784943D02*
X9884398Y22832562D01*
X9884398Y22832562D02*
X9979636Y22880181D01*
X9979636Y22880181D02*
X10217731Y22880181D01*
X10217731Y22880181D02*
X10360588Y22832562D01*
X10646303Y22880181D02*
X11217731Y22880181D01*
X10932017Y21880181D02*
X10932017Y22880181D01*
X68369819Y23062970D02*
X68369819Y22586780D01*
X68369819Y22586780D02*
X68846009Y22539161D01*
X68846009Y22539161D02*
X68798390Y22586780D01*
X68798390Y22586780D02*
X68750771Y22682018D01*
X68750771Y22682018D02*
X68750771Y22920113D01*
X68750771Y22920113D02*
X68798390Y23015351D01*
X68798390Y23015351D02*
X68846009Y23062970D01*
X68846009Y23062970D02*
X68941247Y23110589D01*
X68941247Y23110589D02*
X69179342Y23110589D01*
X69179342Y23110589D02*
X69274580Y23062970D01*
X69274580Y23062970D02*
X69322200Y23015351D01*
X69322200Y23015351D02*
X69369819Y22920113D01*
X69369819Y22920113D02*
X69369819Y22682018D01*
X69369819Y22682018D02*
X69322200Y22586780D01*
X69322200Y22586780D02*
X69274580Y22539161D01*
X68369819Y23729637D02*
X68369819Y23824875D01*
X68369819Y23824875D02*
X68417438Y23920113D01*
X68417438Y23920113D02*
X68465057Y23967732D01*
X68465057Y23967732D02*
X68560295Y24015351D01*
X68560295Y24015351D02*
X68750771Y24062970D01*
X68750771Y24062970D02*
X68988866Y24062970D01*
X68988866Y24062970D02*
X69179342Y24015351D01*
X69179342Y24015351D02*
X69274580Y23967732D01*
X69274580Y23967732D02*
X69322200Y23920113D01*
X69322200Y23920113D02*
X69369819Y23824875D01*
X69369819Y23824875D02*
X69369819Y23729637D01*
X69369819Y23729637D02*
X69322200Y23634399D01*
X69322200Y23634399D02*
X69274580Y23586780D01*
X69274580Y23586780D02*
X69179342Y23539161D01*
X69179342Y23539161D02*
X68988866Y23491542D01*
X68988866Y23491542D02*
X68750771Y23491542D01*
X68750771Y23491542D02*
X68560295Y23539161D01*
X68560295Y23539161D02*
X68465057Y23586780D01*
X68465057Y23586780D02*
X68417438Y23634399D01*
X68417438Y23634399D02*
X68369819Y23729637D01*
X69369819Y24443923D02*
X69369819Y24682018D01*
X69369819Y24682018D02*
X69179342Y24682018D01*
X69179342Y24682018D02*
X69131723Y24586780D01*
X69131723Y24586780D02*
X69036485Y24491542D01*
X69036485Y24491542D02*
X68893628Y24443923D01*
X68893628Y24443923D02*
X68655533Y24443923D01*
X68655533Y24443923D02*
X68512676Y24491542D01*
X68512676Y24491542D02*
X68417438Y24586780D01*
X68417438Y24586780D02*
X68369819Y24729637D01*
X68369819Y24729637D02*
X68369819Y24920113D01*
X68369819Y24920113D02*
X68417438Y25062970D01*
X68417438Y25062970D02*
X68512676Y25158208D01*
X68512676Y25158208D02*
X68655533Y25205827D01*
X68655533Y25205827D02*
X68893628Y25205827D01*
X68893628Y25205827D02*
X69036485Y25158208D01*
X69036485Y25158208D02*
X69131723Y25062970D01*
X69131723Y25062970D02*
X69179342Y24967732D01*
X69179342Y24967732D02*
X69369819Y24967732D01*
X69369819Y24967732D02*
X69369819Y25205827D01*
X68322200Y27110589D02*
X69607914Y26253447D01*
X69369819Y28729637D02*
X69369819Y28158209D01*
X69369819Y28443923D02*
X68369819Y28443923D01*
X68369819Y28443923D02*
X68512676Y28348685D01*
X68512676Y28348685D02*
X68607914Y28253447D01*
X68607914Y28253447D02*
X68655533Y28158209D01*
X68369819Y29348685D02*
X68369819Y29443923D01*
X68369819Y29443923D02*
X68417438Y29539161D01*
X68417438Y29539161D02*
X68465057Y29586780D01*
X68465057Y29586780D02*
X68560295Y29634399D01*
X68560295Y29634399D02*
X68750771Y29682018D01*
X68750771Y29682018D02*
X68988866Y29682018D01*
X68988866Y29682018D02*
X69179342Y29634399D01*
X69179342Y29634399D02*
X69274580Y29586780D01*
X69274580Y29586780D02*
X69322200Y29539161D01*
X69322200Y29539161D02*
X69369819Y29443923D01*
X69369819Y29443923D02*
X69369819Y29348685D01*
X69369819Y29348685D02*
X69322200Y29253447D01*
X69322200Y29253447D02*
X69274580Y29205828D01*
X69274580Y29205828D02*
X69179342Y29158209D01*
X69179342Y29158209D02*
X68988866Y29110590D01*
X68988866Y29110590D02*
X68750771Y29110590D01*
X68750771Y29110590D02*
X68560295Y29158209D01*
X68560295Y29158209D02*
X68465057Y29205828D01*
X68465057Y29205828D02*
X68417438Y29253447D01*
X68417438Y29253447D02*
X68369819Y29348685D01*
X69369819Y30062971D02*
X69369819Y30301066D01*
X69369819Y30301066D02*
X69179342Y30301066D01*
X69179342Y30301066D02*
X69131723Y30205828D01*
X69131723Y30205828D02*
X69036485Y30110590D01*
X69036485Y30110590D02*
X68893628Y30062971D01*
X68893628Y30062971D02*
X68655533Y30062971D01*
X68655533Y30062971D02*
X68512676Y30110590D01*
X68512676Y30110590D02*
X68417438Y30205828D01*
X68417438Y30205828D02*
X68369819Y30348685D01*
X68369819Y30348685D02*
X68369819Y30539161D01*
X68369819Y30539161D02*
X68417438Y30682018D01*
X68417438Y30682018D02*
X68512676Y30777256D01*
X68512676Y30777256D02*
X68655533Y30824875D01*
X68655533Y30824875D02*
X68893628Y30824875D01*
X68893628Y30824875D02*
X69036485Y30777256D01*
X69036485Y30777256D02*
X69131723Y30682018D01*
X69131723Y30682018D02*
X69179342Y30586780D01*
X69179342Y30586780D02*
X69369819Y30586780D01*
X69369819Y30586780D02*
X69369819Y30824875D01*
X8693922Y12130181D02*
X9027255Y11130181D01*
X9027255Y11130181D02*
X9360588Y12130181D01*
X10265350Y11225420D02*
X10217731Y11177800D01*
X10217731Y11177800D02*
X10074874Y11130181D01*
X10074874Y11130181D02*
X9979636Y11130181D01*
X9979636Y11130181D02*
X9836779Y11177800D01*
X9836779Y11177800D02*
X9741541Y11273039D01*
X9741541Y11273039D02*
X9693922Y11368277D01*
X9693922Y11368277D02*
X9646303Y11558753D01*
X9646303Y11558753D02*
X9646303Y11701610D01*
X9646303Y11701610D02*
X9693922Y11892086D01*
X9693922Y11892086D02*
X9741541Y11987324D01*
X9741541Y11987324D02*
X9836779Y12082562D01*
X9836779Y12082562D02*
X9979636Y12130181D01*
X9979636Y12130181D02*
X10074874Y12130181D01*
X10074874Y12130181D02*
X10217731Y12082562D01*
X10217731Y12082562D02*
X10265350Y12034943D01*
X11265350Y11225420D02*
X11217731Y11177800D01*
X11217731Y11177800D02*
X11074874Y11130181D01*
X11074874Y11130181D02*
X10979636Y11130181D01*
X10979636Y11130181D02*
X10836779Y11177800D01*
X10836779Y11177800D02*
X10741541Y11273039D01*
X10741541Y11273039D02*
X10693922Y11368277D01*
X10693922Y11368277D02*
X10646303Y11558753D01*
X10646303Y11558753D02*
X10646303Y11701610D01*
X10646303Y11701610D02*
X10693922Y11892086D01*
X10693922Y11892086D02*
X10741541Y11987324D01*
X10741541Y11987324D02*
X10836779Y12082562D01*
X10836779Y12082562D02*
X10979636Y12130181D01*
X10979636Y12130181D02*
X11074874Y12130181D01*
X11074874Y12130181D02*
X11217731Y12082562D01*
X11217731Y12082562D02*
X11265350Y12034943D01*
X70610588Y10880181D02*
X70039160Y10880181D01*
X70324874Y10880181D02*
X70324874Y11880181D01*
X70324874Y11880181D02*
X70229636Y11737324D01*
X70229636Y11737324D02*
X70134398Y11642086D01*
X70134398Y11642086D02*
X70039160Y11594467D01*
X71229636Y11880181D02*
X71324874Y11880181D01*
X71324874Y11880181D02*
X71420112Y11832562D01*
X71420112Y11832562D02*
X71467731Y11784943D01*
X71467731Y11784943D02*
X71515350Y11689705D01*
X71515350Y11689705D02*
X71562969Y11499229D01*
X71562969Y11499229D02*
X71562969Y11261134D01*
X71562969Y11261134D02*
X71515350Y11070658D01*
X71515350Y11070658D02*
X71467731Y10975420D01*
X71467731Y10975420D02*
X71420112Y10927800D01*
X71420112Y10927800D02*
X71324874Y10880181D01*
X71324874Y10880181D02*
X71229636Y10880181D01*
X71229636Y10880181D02*
X71134398Y10927800D01*
X71134398Y10927800D02*
X71086779Y10975420D01*
X71086779Y10975420D02*
X71039160Y11070658D01*
X71039160Y11070658D02*
X70991541Y11261134D01*
X70991541Y11261134D02*
X70991541Y11499229D01*
X70991541Y11499229D02*
X71039160Y11689705D01*
X71039160Y11689705D02*
X71086779Y11784943D01*
X71086779Y11784943D02*
X71134398Y11832562D01*
X71134398Y11832562D02*
X71229636Y11880181D01*
X71943922Y10880181D02*
X72182017Y10880181D01*
X72182017Y10880181D02*
X72182017Y11070658D01*
X72182017Y11070658D02*
X72086779Y11118277D01*
X72086779Y11118277D02*
X71991541Y11213515D01*
X71991541Y11213515D02*
X71943922Y11356372D01*
X71943922Y11356372D02*
X71943922Y11594467D01*
X71943922Y11594467D02*
X71991541Y11737324D01*
X71991541Y11737324D02*
X72086779Y11832562D01*
X72086779Y11832562D02*
X72229636Y11880181D01*
X72229636Y11880181D02*
X72420112Y11880181D01*
X72420112Y11880181D02*
X72562969Y11832562D01*
X72562969Y11832562D02*
X72658207Y11737324D01*
X72658207Y11737324D02*
X72705826Y11594467D01*
X72705826Y11594467D02*
X72705826Y11356372D01*
X72705826Y11356372D02*
X72658207Y11213515D01*
X72658207Y11213515D02*
X72562969Y11118277D01*
X72562969Y11118277D02*
X72467731Y11070658D01*
X72467731Y11070658D02*
X72467731Y10880181D01*
X72467731Y10880181D02*
X72705826Y10880181D01*
X41360588Y8832562D02*
X41265350Y8880181D01*
X41265350Y8880181D02*
X41122493Y8880181D01*
X41122493Y8880181D02*
X40979636Y8832562D01*
X40979636Y8832562D02*
X40884398Y8737324D01*
X40884398Y8737324D02*
X40836779Y8642086D01*
X40836779Y8642086D02*
X40789160Y8451610D01*
X40789160Y8451610D02*
X40789160Y8308753D01*
X40789160Y8308753D02*
X40836779Y8118277D01*
X40836779Y8118277D02*
X40884398Y8023039D01*
X40884398Y8023039D02*
X40979636Y7927800D01*
X40979636Y7927800D02*
X41122493Y7880181D01*
X41122493Y7880181D02*
X41217731Y7880181D01*
X41217731Y7880181D02*
X41360588Y7927800D01*
X41360588Y7927800D02*
X41408207Y7975420D01*
X41408207Y7975420D02*
X41408207Y8308753D01*
X41408207Y8308753D02*
X41217731Y8308753D01*
X53789160Y35665896D02*
X54265350Y35665896D01*
X53693922Y35380181D02*
X54027255Y36380181D01*
X54027255Y36380181D02*
X54360588Y35380181D01*
X54693922Y35380181D02*
X54693922Y36380181D01*
X54693922Y36380181D02*
X55027255Y35665896D01*
X55027255Y35665896D02*
X55360588Y36380181D01*
X55360588Y36380181D02*
X55360588Y35380181D01*
X55836779Y35380181D02*
X55836779Y36380181D01*
X55836779Y36380181D02*
X56217731Y36380181D01*
X56217731Y36380181D02*
X56312969Y36332562D01*
X56312969Y36332562D02*
X56360588Y36284943D01*
X56360588Y36284943D02*
X56408207Y36189705D01*
X56408207Y36189705D02*
X56408207Y36046848D01*
X56408207Y36046848D02*
X56360588Y35951610D01*
X56360588Y35951610D02*
X56312969Y35903991D01*
X56312969Y35903991D02*
X56217731Y35856372D01*
X56217731Y35856372D02*
X55836779Y35856372D01*
X57312969Y35380181D02*
X56836779Y35380181D01*
X56836779Y35380181D02*
X56836779Y36380181D01*
X57408208Y35284943D02*
X58170112Y35284943D01*
X58598684Y36380181D02*
X58789160Y36380181D01*
X58789160Y36380181D02*
X58884398Y36332562D01*
X58884398Y36332562D02*
X58979636Y36237324D01*
X58979636Y36237324D02*
X59027255Y36046848D01*
X59027255Y36046848D02*
X59027255Y35713515D01*
X59027255Y35713515D02*
X58979636Y35523039D01*
X58979636Y35523039D02*
X58884398Y35427800D01*
X58884398Y35427800D02*
X58789160Y35380181D01*
X58789160Y35380181D02*
X58598684Y35380181D01*
X58598684Y35380181D02*
X58503446Y35427800D01*
X58503446Y35427800D02*
X58408208Y35523039D01*
X58408208Y35523039D02*
X58360589Y35713515D01*
X58360589Y35713515D02*
X58360589Y36046848D01*
X58360589Y36046848D02*
X58408208Y36237324D01*
X58408208Y36237324D02*
X58503446Y36332562D01*
X58503446Y36332562D02*
X58598684Y36380181D01*
X59455827Y36380181D02*
X59455827Y35570658D01*
X59455827Y35570658D02*
X59503446Y35475420D01*
X59503446Y35475420D02*
X59551065Y35427800D01*
X59551065Y35427800D02*
X59646303Y35380181D01*
X59646303Y35380181D02*
X59836779Y35380181D01*
X59836779Y35380181D02*
X59932017Y35427800D01*
X59932017Y35427800D02*
X59979636Y35475420D01*
X59979636Y35475420D02*
X60027255Y35570658D01*
X60027255Y35570658D02*
X60027255Y36380181D01*
X60360589Y36380181D02*
X60932017Y36380181D01*
X60646303Y35380181D02*
X60646303Y36380181D01*
X32836779Y30130181D02*
X32836779Y31130181D01*
X33503445Y31130181D02*
X33693921Y31130181D01*
X33693921Y31130181D02*
X33789159Y31082562D01*
X33789159Y31082562D02*
X33884397Y30987324D01*
X33884397Y30987324D02*
X33932016Y30796848D01*
X33932016Y30796848D02*
X33932016Y30463515D01*
X33932016Y30463515D02*
X33884397Y30273039D01*
X33884397Y30273039D02*
X33789159Y30177800D01*
X33789159Y30177800D02*
X33693921Y30130181D01*
X33693921Y30130181D02*
X33503445Y30130181D01*
X33503445Y30130181D02*
X33408207Y30177800D01*
X33408207Y30177800D02*
X33312969Y30273039D01*
X33312969Y30273039D02*
X33265350Y30463515D01*
X33265350Y30463515D02*
X33265350Y30796848D01*
X33265350Y30796848D02*
X33312969Y30987324D01*
X33312969Y30987324D02*
X33408207Y31082562D01*
X33408207Y31082562D02*
X33503445Y31130181D01*
X34360588Y31130181D02*
X34360588Y30320658D01*
X34360588Y30320658D02*
X34408207Y30225420D01*
X34408207Y30225420D02*
X34455826Y30177800D01*
X34455826Y30177800D02*
X34551064Y30130181D01*
X34551064Y30130181D02*
X34741540Y30130181D01*
X34741540Y30130181D02*
X34836778Y30177800D01*
X34836778Y30177800D02*
X34884397Y30225420D01*
X34884397Y30225420D02*
X34932016Y30320658D01*
X34932016Y30320658D02*
X34932016Y31130181D01*
X35265350Y31130181D02*
X35836778Y31130181D01*
X35551064Y30130181D02*
X35551064Y31130181D01*
X36170112Y30130181D02*
X36170112Y31130181D01*
X36170112Y31130181D02*
X36551064Y31130181D01*
X36551064Y31130181D02*
X36646302Y31082562D01*
X36646302Y31082562D02*
X36693921Y31034943D01*
X36693921Y31034943D02*
X36741540Y30939705D01*
X36741540Y30939705D02*
X36741540Y30796848D01*
X36741540Y30796848D02*
X36693921Y30701610D01*
X36693921Y30701610D02*
X36646302Y30653991D01*
X36646302Y30653991D02*
X36551064Y30606372D01*
X36551064Y30606372D02*
X36170112Y30606372D01*
X34869819Y2062970D02*
X34869819Y1586780D01*
X34869819Y1586780D02*
X35346009Y1539161D01*
X35346009Y1539161D02*
X35298390Y1586780D01*
X35298390Y1586780D02*
X35250771Y1682018D01*
X35250771Y1682018D02*
X35250771Y1920113D01*
X35250771Y1920113D02*
X35298390Y2015351D01*
X35298390Y2015351D02*
X35346009Y2062970D01*
X35346009Y2062970D02*
X35441247Y2110589D01*
X35441247Y2110589D02*
X35679342Y2110589D01*
X35679342Y2110589D02*
X35774580Y2062970D01*
X35774580Y2062970D02*
X35822200Y2015351D01*
X35822200Y2015351D02*
X35869819Y1920113D01*
X35869819Y1920113D02*
X35869819Y1682018D01*
X35869819Y1682018D02*
X35822200Y1586780D01*
X35822200Y1586780D02*
X35774580Y1539161D01*
X34869819Y2729637D02*
X34869819Y2824875D01*
X34869819Y2824875D02*
X34917438Y2920113D01*
X34917438Y2920113D02*
X34965057Y2967732D01*
X34965057Y2967732D02*
X35060295Y3015351D01*
X35060295Y3015351D02*
X35250771Y3062970D01*
X35250771Y3062970D02*
X35488866Y3062970D01*
X35488866Y3062970D02*
X35679342Y3015351D01*
X35679342Y3015351D02*
X35774580Y2967732D01*
X35774580Y2967732D02*
X35822200Y2920113D01*
X35822200Y2920113D02*
X35869819Y2824875D01*
X35869819Y2824875D02*
X35869819Y2729637D01*
X35869819Y2729637D02*
X35822200Y2634399D01*
X35822200Y2634399D02*
X35774580Y2586780D01*
X35774580Y2586780D02*
X35679342Y2539161D01*
X35679342Y2539161D02*
X35488866Y2491542D01*
X35488866Y2491542D02*
X35250771Y2491542D01*
X35250771Y2491542D02*
X35060295Y2539161D01*
X35060295Y2539161D02*
X34965057Y2586780D01*
X34965057Y2586780D02*
X34917438Y2634399D01*
X34917438Y2634399D02*
X34869819Y2729637D01*
X35869819Y3443923D02*
X35869819Y3682018D01*
X35869819Y3682018D02*
X35679342Y3682018D01*
X35679342Y3682018D02*
X35631723Y3586780D01*
X35631723Y3586780D02*
X35536485Y3491542D01*
X35536485Y3491542D02*
X35393628Y3443923D01*
X35393628Y3443923D02*
X35155533Y3443923D01*
X35155533Y3443923D02*
X35012676Y3491542D01*
X35012676Y3491542D02*
X34917438Y3586780D01*
X34917438Y3586780D02*
X34869819Y3729637D01*
X34869819Y3729637D02*
X34869819Y3920113D01*
X34869819Y3920113D02*
X34917438Y4062970D01*
X34917438Y4062970D02*
X35012676Y4158208D01*
X35012676Y4158208D02*
X35155533Y4205827D01*
X35155533Y4205827D02*
X35393628Y4205827D01*
X35393628Y4205827D02*
X35536485Y4158208D01*
X35536485Y4158208D02*
X35631723Y4062970D01*
X35631723Y4062970D02*
X35679342Y3967732D01*
X35679342Y3967732D02*
X35869819Y3967732D01*
X35869819Y3967732D02*
X35869819Y4205827D01*
X35869819Y5396304D02*
X35203152Y5396304D01*
X34869819Y5396304D02*
X34917438Y5348685D01*
X34917438Y5348685D02*
X34965057Y5396304D01*
X34965057Y5396304D02*
X34917438Y5443923D01*
X34917438Y5443923D02*
X34869819Y5396304D01*
X34869819Y5396304D02*
X34965057Y5396304D01*
X35203152Y5872494D02*
X35869819Y5872494D01*
X35298390Y5872494D02*
X35250771Y5920113D01*
X35250771Y5920113D02*
X35203152Y6015351D01*
X35203152Y6015351D02*
X35203152Y6158208D01*
X35203152Y6158208D02*
X35250771Y6253446D01*
X35250771Y6253446D02*
X35346009Y6301065D01*
X35346009Y6301065D02*
X35869819Y6301065D01*
X35203152Y6634399D02*
X35203152Y7015351D01*
X34869819Y6777256D02*
X35726961Y6777256D01*
X35726961Y6777256D02*
X35822200Y6824875D01*
X35822200Y6824875D02*
X35869819Y6920113D01*
X35869819Y6920113D02*
X35869819Y7015351D01*
X35822200Y7729637D02*
X35869819Y7634399D01*
X35869819Y7634399D02*
X35869819Y7443923D01*
X35869819Y7443923D02*
X35822200Y7348685D01*
X35822200Y7348685D02*
X35726961Y7301066D01*
X35726961Y7301066D02*
X35346009Y7301066D01*
X35346009Y7301066D02*
X35250771Y7348685D01*
X35250771Y7348685D02*
X35203152Y7443923D01*
X35203152Y7443923D02*
X35203152Y7634399D01*
X35203152Y7634399D02*
X35250771Y7729637D01*
X35250771Y7729637D02*
X35346009Y7777256D01*
X35346009Y7777256D02*
X35441247Y7777256D01*
X35441247Y7777256D02*
X35536485Y7301066D01*
X35869819Y8205828D02*
X35203152Y8205828D01*
X35393628Y8205828D02*
X35298390Y8253447D01*
X35298390Y8253447D02*
X35250771Y8301066D01*
X35250771Y8301066D02*
X35203152Y8396304D01*
X35203152Y8396304D02*
X35203152Y8491542D01*
X35869819Y8824876D02*
X35203152Y8824876D01*
X35298390Y8824876D02*
X35250771Y8872495D01*
X35250771Y8872495D02*
X35203152Y8967733D01*
X35203152Y8967733D02*
X35203152Y9110590D01*
X35203152Y9110590D02*
X35250771Y9205828D01*
X35250771Y9205828D02*
X35346009Y9253447D01*
X35346009Y9253447D02*
X35869819Y9253447D01*
X35346009Y9253447D02*
X35250771Y9301066D01*
X35250771Y9301066D02*
X35203152Y9396304D01*
X35203152Y9396304D02*
X35203152Y9539161D01*
X35203152Y9539161D02*
X35250771Y9634400D01*
X35250771Y9634400D02*
X35346009Y9682019D01*
X35346009Y9682019D02*
X35869819Y9682019D01*
X1586779Y37740125D02*
X1586779Y38740125D01*
X1586779Y38740125D02*
X1967731Y38740125D01*
X1967731Y38740125D02*
X2062969Y38692506D01*
X2062969Y38692506D02*
X2110588Y38644887D01*
X2110588Y38644887D02*
X2158207Y38549649D01*
X2158207Y38549649D02*
X2158207Y38406792D01*
X2158207Y38406792D02*
X2110588Y38311554D01*
X2110588Y38311554D02*
X2062969Y38263935D01*
X2062969Y38263935D02*
X1967731Y38216316D01*
X1967731Y38216316D02*
X1586779Y38216316D01*
X2586779Y37740125D02*
X2586779Y38406792D01*
X2586779Y38740125D02*
X2539160Y38692506D01*
X2539160Y38692506D02*
X2586779Y38644887D01*
X2586779Y38644887D02*
X2634398Y38692506D01*
X2634398Y38692506D02*
X2586779Y38740125D01*
X2586779Y38740125D02*
X2586779Y38644887D01*
X3491540Y37787744D02*
X3396302Y37740125D01*
X3396302Y37740125D02*
X3205826Y37740125D01*
X3205826Y37740125D02*
X3110588Y37787744D01*
X3110588Y37787744D02*
X3062969Y37835364D01*
X3062969Y37835364D02*
X3015350Y37930602D01*
X3015350Y37930602D02*
X3015350Y38216316D01*
X3015350Y38216316D02*
X3062969Y38311554D01*
X3062969Y38311554D02*
X3110588Y38359173D01*
X3110588Y38359173D02*
X3205826Y38406792D01*
X3205826Y38406792D02*
X3396302Y38406792D01*
X3396302Y38406792D02*
X3491540Y38359173D01*
X4062969Y37740125D02*
X3967731Y37787744D01*
X3967731Y37787744D02*
X3920112Y37835364D01*
X3920112Y37835364D02*
X3872493Y37930602D01*
X3872493Y37930602D02*
X3872493Y38216316D01*
X3872493Y38216316D02*
X3920112Y38311554D01*
X3920112Y38311554D02*
X3967731Y38359173D01*
X3967731Y38359173D02*
X4062969Y38406792D01*
X4062969Y38406792D02*
X4205826Y38406792D01*
X4205826Y38406792D02*
X4301064Y38359173D01*
X4301064Y38359173D02*
X4348683Y38311554D01*
X4348683Y38311554D02*
X4396302Y38216316D01*
X4396302Y38216316D02*
X4396302Y37930602D01*
X4396302Y37930602D02*
X4348683Y37835364D01*
X4348683Y37835364D02*
X4301064Y37787744D01*
X4301064Y37787744D02*
X4205826Y37740125D01*
X4205826Y37740125D02*
X4062969Y37740125D01*
X6110588Y38692506D02*
X6015350Y38740125D01*
X6015350Y38740125D02*
X5872493Y38740125D01*
X5872493Y38740125D02*
X5729636Y38692506D01*
X5729636Y38692506D02*
X5634398Y38597268D01*
X5634398Y38597268D02*
X5586779Y38502030D01*
X5586779Y38502030D02*
X5539160Y38311554D01*
X5539160Y38311554D02*
X5539160Y38168697D01*
X5539160Y38168697D02*
X5586779Y37978221D01*
X5586779Y37978221D02*
X5634398Y37882983D01*
X5634398Y37882983D02*
X5729636Y37787744D01*
X5729636Y37787744D02*
X5872493Y37740125D01*
X5872493Y37740125D02*
X5967731Y37740125D01*
X5967731Y37740125D02*
X6110588Y37787744D01*
X6110588Y37787744D02*
X6158207Y37835364D01*
X6158207Y37835364D02*
X6158207Y38168697D01*
X6158207Y38168697D02*
X5967731Y38168697D01*
X6729636Y37740125D02*
X6634398Y37787744D01*
X6634398Y37787744D02*
X6586779Y37882983D01*
X6586779Y37882983D02*
X6586779Y38740125D01*
X7110589Y37740125D02*
X7110589Y38406792D01*
X7110589Y38740125D02*
X7062970Y38692506D01*
X7062970Y38692506D02*
X7110589Y38644887D01*
X7110589Y38644887D02*
X7158208Y38692506D01*
X7158208Y38692506D02*
X7110589Y38740125D01*
X7110589Y38740125D02*
X7110589Y38644887D01*
X7443922Y38406792D02*
X7824874Y38406792D01*
X7586779Y38740125D02*
X7586779Y37882983D01*
X7586779Y37882983D02*
X7634398Y37787744D01*
X7634398Y37787744D02*
X7729636Y37740125D01*
X7729636Y37740125D02*
X7824874Y37740125D01*
X8586779Y37787744D02*
X8491541Y37740125D01*
X8491541Y37740125D02*
X8301065Y37740125D01*
X8301065Y37740125D02*
X8205827Y37787744D01*
X8205827Y37787744D02*
X8158208Y37835364D01*
X8158208Y37835364D02*
X8110589Y37930602D01*
X8110589Y37930602D02*
X8110589Y38216316D01*
X8110589Y38216316D02*
X8158208Y38311554D01*
X8158208Y38311554D02*
X8205827Y38359173D01*
X8205827Y38359173D02*
X8301065Y38406792D01*
X8301065Y38406792D02*
X8491541Y38406792D01*
X8491541Y38406792D02*
X8586779Y38359173D01*
X9015351Y37740125D02*
X9015351Y38740125D01*
X9443922Y37740125D02*
X9443922Y38263935D01*
X9443922Y38263935D02*
X9396303Y38359173D01*
X9396303Y38359173D02*
X9301065Y38406792D01*
X9301065Y38406792D02*
X9158208Y38406792D01*
X9158208Y38406792D02*
X9062970Y38359173D01*
X9062970Y38359173D02*
X9015351Y38311554D01*
X10301065Y37787744D02*
X10205827Y37740125D01*
X10205827Y37740125D02*
X10015351Y37740125D01*
X10015351Y37740125D02*
X9920113Y37787744D01*
X9920113Y37787744D02*
X9872494Y37882983D01*
X9872494Y37882983D02*
X9872494Y38263935D01*
X9872494Y38263935D02*
X9920113Y38359173D01*
X9920113Y38359173D02*
X10015351Y38406792D01*
X10015351Y38406792D02*
X10205827Y38406792D01*
X10205827Y38406792D02*
X10301065Y38359173D01*
X10301065Y38359173D02*
X10348684Y38263935D01*
X10348684Y38263935D02*
X10348684Y38168697D01*
X10348684Y38168697D02*
X9872494Y38073459D01*
X10777256Y37740125D02*
X10777256Y38406792D01*
X10777256Y38216316D02*
X10824875Y38311554D01*
X10824875Y38311554D02*
X10872494Y38359173D01*
X10872494Y38359173D02*
X10967732Y38406792D01*
X10967732Y38406792D02*
X11062970Y38406792D01*
X12158209Y37740125D02*
X12158209Y38740125D01*
X12158209Y38740125D02*
X12539161Y38740125D01*
X12539161Y38740125D02*
X12634399Y38692506D01*
X12634399Y38692506D02*
X12682018Y38644887D01*
X12682018Y38644887D02*
X12729637Y38549649D01*
X12729637Y38549649D02*
X12729637Y38406792D01*
X12729637Y38406792D02*
X12682018Y38311554D01*
X12682018Y38311554D02*
X12634399Y38263935D01*
X12634399Y38263935D02*
X12539161Y38216316D01*
X12539161Y38216316D02*
X12158209Y38216316D01*
X13586780Y38406792D02*
X13586780Y37740125D01*
X13158209Y38406792D02*
X13158209Y37882983D01*
X13158209Y37882983D02*
X13205828Y37787744D01*
X13205828Y37787744D02*
X13301066Y37740125D01*
X13301066Y37740125D02*
X13443923Y37740125D01*
X13443923Y37740125D02*
X13539161Y37787744D01*
X13539161Y37787744D02*
X13586780Y37835364D01*
X14205828Y37740125D02*
X14110590Y37787744D01*
X14110590Y37787744D02*
X14062971Y37882983D01*
X14062971Y37882983D02*
X14062971Y38740125D01*
X14539162Y37787744D02*
X14634400Y37740125D01*
X14634400Y37740125D02*
X14824876Y37740125D01*
X14824876Y37740125D02*
X14920114Y37787744D01*
X14920114Y37787744D02*
X14967733Y37882983D01*
X14967733Y37882983D02*
X14967733Y37930602D01*
X14967733Y37930602D02*
X14920114Y38025840D01*
X14920114Y38025840D02*
X14824876Y38073459D01*
X14824876Y38073459D02*
X14682019Y38073459D01*
X14682019Y38073459D02*
X14586781Y38121078D01*
X14586781Y38121078D02*
X14539162Y38216316D01*
X14539162Y38216316D02*
X14539162Y38263935D01*
X14539162Y38263935D02*
X14586781Y38359173D01*
X14586781Y38359173D02*
X14682019Y38406792D01*
X14682019Y38406792D02*
X14824876Y38406792D01*
X14824876Y38406792D02*
X14920114Y38359173D01*
X15777257Y37787744D02*
X15682019Y37740125D01*
X15682019Y37740125D02*
X15491543Y37740125D01*
X15491543Y37740125D02*
X15396305Y37787744D01*
X15396305Y37787744D02*
X15348686Y37882983D01*
X15348686Y37882983D02*
X15348686Y38263935D01*
X15348686Y38263935D02*
X15396305Y38359173D01*
X15396305Y38359173D02*
X15491543Y38406792D01*
X15491543Y38406792D02*
X15682019Y38406792D01*
X15682019Y38406792D02*
X15777257Y38359173D01*
X15777257Y38359173D02*
X15824876Y38263935D01*
X15824876Y38263935D02*
X15824876Y38168697D01*
X15824876Y38168697D02*
X15348686Y38073459D01*
X16967734Y37787744D02*
X17110591Y37740125D01*
X17110591Y37740125D02*
X17348686Y37740125D01*
X17348686Y37740125D02*
X17443924Y37787744D01*
X17443924Y37787744D02*
X17491543Y37835364D01*
X17491543Y37835364D02*
X17539162Y37930602D01*
X17539162Y37930602D02*
X17539162Y38025840D01*
X17539162Y38025840D02*
X17491543Y38121078D01*
X17491543Y38121078D02*
X17443924Y38168697D01*
X17443924Y38168697D02*
X17348686Y38216316D01*
X17348686Y38216316D02*
X17158210Y38263935D01*
X17158210Y38263935D02*
X17062972Y38311554D01*
X17062972Y38311554D02*
X17015353Y38359173D01*
X17015353Y38359173D02*
X16967734Y38454411D01*
X16967734Y38454411D02*
X16967734Y38549649D01*
X16967734Y38549649D02*
X17015353Y38644887D01*
X17015353Y38644887D02*
X17062972Y38692506D01*
X17062972Y38692506D02*
X17158210Y38740125D01*
X17158210Y38740125D02*
X17396305Y38740125D01*
X17396305Y38740125D02*
X17539162Y38692506D01*
X17967734Y37740125D02*
X17967734Y38740125D01*
X18396305Y37740125D02*
X18396305Y38263935D01*
X18396305Y38263935D02*
X18348686Y38359173D01*
X18348686Y38359173D02*
X18253448Y38406792D01*
X18253448Y38406792D02*
X18110591Y38406792D01*
X18110591Y38406792D02*
X18015353Y38359173D01*
X18015353Y38359173D02*
X17967734Y38311554D01*
X19301067Y37740125D02*
X19301067Y38263935D01*
X19301067Y38263935D02*
X19253448Y38359173D01*
X19253448Y38359173D02*
X19158210Y38406792D01*
X19158210Y38406792D02*
X18967734Y38406792D01*
X18967734Y38406792D02*
X18872496Y38359173D01*
X19301067Y37787744D02*
X19205829Y37740125D01*
X19205829Y37740125D02*
X18967734Y37740125D01*
X18967734Y37740125D02*
X18872496Y37787744D01*
X18872496Y37787744D02*
X18824877Y37882983D01*
X18824877Y37882983D02*
X18824877Y37978221D01*
X18824877Y37978221D02*
X18872496Y38073459D01*
X18872496Y38073459D02*
X18967734Y38121078D01*
X18967734Y38121078D02*
X19205829Y38121078D01*
X19205829Y38121078D02*
X19301067Y38168697D01*
X19777258Y38406792D02*
X19777258Y37406792D01*
X19777258Y38359173D02*
X19872496Y38406792D01*
X19872496Y38406792D02*
X20062972Y38406792D01*
X20062972Y38406792D02*
X20158210Y38359173D01*
X20158210Y38359173D02*
X20205829Y38311554D01*
X20205829Y38311554D02*
X20253448Y38216316D01*
X20253448Y38216316D02*
X20253448Y37930602D01*
X20253448Y37930602D02*
X20205829Y37835364D01*
X20205829Y37835364D02*
X20158210Y37787744D01*
X20158210Y37787744D02*
X20062972Y37740125D01*
X20062972Y37740125D02*
X19872496Y37740125D01*
X19872496Y37740125D02*
X19777258Y37787744D01*
X20682020Y37740125D02*
X20682020Y38406792D01*
X20682020Y38740125D02*
X20634401Y38692506D01*
X20634401Y38692506D02*
X20682020Y38644887D01*
X20682020Y38644887D02*
X20729639Y38692506D01*
X20729639Y38692506D02*
X20682020Y38740125D01*
X20682020Y38740125D02*
X20682020Y38644887D01*
X21158210Y38406792D02*
X21158210Y37740125D01*
X21158210Y38311554D02*
X21205829Y38359173D01*
X21205829Y38359173D02*
X21301067Y38406792D01*
X21301067Y38406792D02*
X21443924Y38406792D01*
X21443924Y38406792D02*
X21539162Y38359173D01*
X21539162Y38359173D02*
X21586781Y38263935D01*
X21586781Y38263935D02*
X21586781Y37740125D01*
X22491543Y38406792D02*
X22491543Y37597268D01*
X22491543Y37597268D02*
X22443924Y37502030D01*
X22443924Y37502030D02*
X22396305Y37454411D01*
X22396305Y37454411D02*
X22301067Y37406792D01*
X22301067Y37406792D02*
X22158210Y37406792D01*
X22158210Y37406792D02*
X22062972Y37454411D01*
X22491543Y37787744D02*
X22396305Y37740125D01*
X22396305Y37740125D02*
X22205829Y37740125D01*
X22205829Y37740125D02*
X22110591Y37787744D01*
X22110591Y37787744D02*
X22062972Y37835364D01*
X22062972Y37835364D02*
X22015353Y37930602D01*
X22015353Y37930602D02*
X22015353Y38216316D01*
X22015353Y38216316D02*
X22062972Y38311554D01*
X22062972Y38311554D02*
X22110591Y38359173D01*
X22110591Y38359173D02*
X22205829Y38406792D01*
X22205829Y38406792D02*
X22396305Y38406792D01*
X22396305Y38406792D02*
X22491543Y38359173D01*
X23729639Y38263935D02*
X24062972Y38263935D01*
X24205829Y37740125D02*
X23729639Y37740125D01*
X23729639Y37740125D02*
X23729639Y38740125D01*
X23729639Y38740125D02*
X24205829Y38740125D01*
X24539163Y37740125D02*
X25062972Y38406792D01*
X24539163Y38406792D02*
X25062972Y37740125D01*
X25301068Y38406792D02*
X25682020Y38406792D01*
X25443925Y38740125D02*
X25443925Y37882983D01*
X25443925Y37882983D02*
X25491544Y37787744D01*
X25491544Y37787744D02*
X25586782Y37740125D01*
X25586782Y37740125D02*
X25682020Y37740125D01*
X26396306Y37787744D02*
X26301068Y37740125D01*
X26301068Y37740125D02*
X26110592Y37740125D01*
X26110592Y37740125D02*
X26015354Y37787744D01*
X26015354Y37787744D02*
X25967735Y37882983D01*
X25967735Y37882983D02*
X25967735Y38263935D01*
X25967735Y38263935D02*
X26015354Y38359173D01*
X26015354Y38359173D02*
X26110592Y38406792D01*
X26110592Y38406792D02*
X26301068Y38406792D01*
X26301068Y38406792D02*
X26396306Y38359173D01*
X26396306Y38359173D02*
X26443925Y38263935D01*
X26443925Y38263935D02*
X26443925Y38168697D01*
X26443925Y38168697D02*
X25967735Y38073459D01*
X26872497Y38406792D02*
X26872497Y37740125D01*
X26872497Y38311554D02*
X26920116Y38359173D01*
X26920116Y38359173D02*
X27015354Y38406792D01*
X27015354Y38406792D02*
X27158211Y38406792D01*
X27158211Y38406792D02*
X27253449Y38359173D01*
X27253449Y38359173D02*
X27301068Y38263935D01*
X27301068Y38263935D02*
X27301068Y37740125D01*
X27729640Y37787744D02*
X27824878Y37740125D01*
X27824878Y37740125D02*
X28015354Y37740125D01*
X28015354Y37740125D02*
X28110592Y37787744D01*
X28110592Y37787744D02*
X28158211Y37882983D01*
X28158211Y37882983D02*
X28158211Y37930602D01*
X28158211Y37930602D02*
X28110592Y38025840D01*
X28110592Y38025840D02*
X28015354Y38073459D01*
X28015354Y38073459D02*
X27872497Y38073459D01*
X27872497Y38073459D02*
X27777259Y38121078D01*
X27777259Y38121078D02*
X27729640Y38216316D01*
X27729640Y38216316D02*
X27729640Y38263935D01*
X27729640Y38263935D02*
X27777259Y38359173D01*
X27777259Y38359173D02*
X27872497Y38406792D01*
X27872497Y38406792D02*
X28015354Y38406792D01*
X28015354Y38406792D02*
X28110592Y38359173D01*
X28586783Y37740125D02*
X28586783Y38406792D01*
X28586783Y38740125D02*
X28539164Y38692506D01*
X28539164Y38692506D02*
X28586783Y38644887D01*
X28586783Y38644887D02*
X28634402Y38692506D01*
X28634402Y38692506D02*
X28586783Y38740125D01*
X28586783Y38740125D02*
X28586783Y38644887D01*
X29205830Y37740125D02*
X29110592Y37787744D01*
X29110592Y37787744D02*
X29062973Y37835364D01*
X29062973Y37835364D02*
X29015354Y37930602D01*
X29015354Y37930602D02*
X29015354Y38216316D01*
X29015354Y38216316D02*
X29062973Y38311554D01*
X29062973Y38311554D02*
X29110592Y38359173D01*
X29110592Y38359173D02*
X29205830Y38406792D01*
X29205830Y38406792D02*
X29348687Y38406792D01*
X29348687Y38406792D02*
X29443925Y38359173D01*
X29443925Y38359173D02*
X29491544Y38311554D01*
X29491544Y38311554D02*
X29539163Y38216316D01*
X29539163Y38216316D02*
X29539163Y37930602D01*
X29539163Y37930602D02*
X29491544Y37835364D01*
X29491544Y37835364D02*
X29443925Y37787744D01*
X29443925Y37787744D02*
X29348687Y37740125D01*
X29348687Y37740125D02*
X29205830Y37740125D01*
X29967735Y38406792D02*
X29967735Y37740125D01*
X29967735Y38311554D02*
X30015354Y38359173D01*
X30015354Y38359173D02*
X30110592Y38406792D01*
X30110592Y38406792D02*
X30253449Y38406792D01*
X30253449Y38406792D02*
X30348687Y38359173D01*
X30348687Y38359173D02*
X30396306Y38263935D01*
X30396306Y38263935D02*
X30396306Y37740125D01*
X31539164Y38406792D02*
X31777259Y37740125D01*
X31777259Y37740125D02*
X32015354Y38406792D01*
X32920116Y37740125D02*
X32348688Y37740125D01*
X32634402Y37740125D02*
X32634402Y38740125D01*
X32634402Y38740125D02*
X32539164Y38597268D01*
X32539164Y38597268D02*
X32443926Y38502030D01*
X32443926Y38502030D02*
X32348688Y38454411D01*
X33348688Y37835364D02*
X33396307Y37787744D01*
X33396307Y37787744D02*
X33348688Y37740125D01*
X33348688Y37740125D02*
X33301069Y37787744D01*
X33301069Y37787744D02*
X33348688Y37835364D01*
X33348688Y37835364D02*
X33348688Y37740125D01*
X34015354Y38740125D02*
X34110592Y38740125D01*
X34110592Y38740125D02*
X34205830Y38692506D01*
X34205830Y38692506D02*
X34253449Y38644887D01*
X34253449Y38644887D02*
X34301068Y38549649D01*
X34301068Y38549649D02*
X34348687Y38359173D01*
X34348687Y38359173D02*
X34348687Y38121078D01*
X34348687Y38121078D02*
X34301068Y37930602D01*
X34301068Y37930602D02*
X34253449Y37835364D01*
X34253449Y37835364D02*
X34205830Y37787744D01*
X34205830Y37787744D02*
X34110592Y37740125D01*
X34110592Y37740125D02*
X34015354Y37740125D01*
X34015354Y37740125D02*
X33920116Y37787744D01*
X33920116Y37787744D02*
X33872497Y37835364D01*
X33872497Y37835364D02*
X33824878Y37930602D01*
X33824878Y37930602D02*
X33777259Y38121078D01*
X33777259Y38121078D02*
X33777259Y38359173D01*
X33777259Y38359173D02*
X33824878Y38549649D01*
X33824878Y38549649D02*
X33872497Y38644887D01*
X33872497Y38644887D02*
X33920116Y38692506D01*
X33920116Y38692506D02*
X34015354Y38740125D01*
X1872493Y35749229D02*
X1824874Y35796848D01*
X1824874Y35796848D02*
X1729636Y35939705D01*
X1729636Y35939705D02*
X1682017Y36034943D01*
X1682017Y36034943D02*
X1634398Y36177800D01*
X1634398Y36177800D02*
X1586779Y36415896D01*
X1586779Y36415896D02*
X1586779Y36606372D01*
X1586779Y36606372D02*
X1634398Y36844467D01*
X1634398Y36844467D02*
X1682017Y36987324D01*
X1682017Y36987324D02*
X1729636Y37082562D01*
X1729636Y37082562D02*
X1824874Y37225420D01*
X1824874Y37225420D02*
X1872493Y37273039D01*
X2682017Y36177800D02*
X2586779Y36130181D01*
X2586779Y36130181D02*
X2396303Y36130181D01*
X2396303Y36130181D02*
X2301065Y36177800D01*
X2301065Y36177800D02*
X2253446Y36225420D01*
X2253446Y36225420D02*
X2205827Y36320658D01*
X2205827Y36320658D02*
X2205827Y36606372D01*
X2205827Y36606372D02*
X2253446Y36701610D01*
X2253446Y36701610D02*
X2301065Y36749229D01*
X2301065Y36749229D02*
X2396303Y36796848D01*
X2396303Y36796848D02*
X2586779Y36796848D01*
X2586779Y36796848D02*
X2682017Y36749229D01*
X3015351Y35749229D02*
X3062970Y35796848D01*
X3062970Y35796848D02*
X3158208Y35939705D01*
X3158208Y35939705D02*
X3205827Y36034943D01*
X3205827Y36034943D02*
X3253446Y36177800D01*
X3253446Y36177800D02*
X3301065Y36415896D01*
X3301065Y36415896D02*
X3301065Y36606372D01*
X3301065Y36606372D02*
X3253446Y36844467D01*
X3253446Y36844467D02*
X3205827Y36987324D01*
X3205827Y36987324D02*
X3158208Y37082562D01*
X3158208Y37082562D02*
X3062970Y37225420D01*
X3062970Y37225420D02*
X3015351Y37273039D01*
X4491542Y37034943D02*
X4539161Y37082562D01*
X4539161Y37082562D02*
X4634399Y37130181D01*
X4634399Y37130181D02*
X4872494Y37130181D01*
X4872494Y37130181D02*
X4967732Y37082562D01*
X4967732Y37082562D02*
X5015351Y37034943D01*
X5015351Y37034943D02*
X5062970Y36939705D01*
X5062970Y36939705D02*
X5062970Y36844467D01*
X5062970Y36844467D02*
X5015351Y36701610D01*
X5015351Y36701610D02*
X4443923Y36130181D01*
X4443923Y36130181D02*
X5062970Y36130181D01*
X5682018Y37130181D02*
X5777256Y37130181D01*
X5777256Y37130181D02*
X5872494Y37082562D01*
X5872494Y37082562D02*
X5920113Y37034943D01*
X5920113Y37034943D02*
X5967732Y36939705D01*
X5967732Y36939705D02*
X6015351Y36749229D01*
X6015351Y36749229D02*
X6015351Y36511134D01*
X6015351Y36511134D02*
X5967732Y36320658D01*
X5967732Y36320658D02*
X5920113Y36225420D01*
X5920113Y36225420D02*
X5872494Y36177800D01*
X5872494Y36177800D02*
X5777256Y36130181D01*
X5777256Y36130181D02*
X5682018Y36130181D01*
X5682018Y36130181D02*
X5586780Y36177800D01*
X5586780Y36177800D02*
X5539161Y36225420D01*
X5539161Y36225420D02*
X5491542Y36320658D01*
X5491542Y36320658D02*
X5443923Y36511134D01*
X5443923Y36511134D02*
X5443923Y36749229D01*
X5443923Y36749229D02*
X5491542Y36939705D01*
X5491542Y36939705D02*
X5539161Y37034943D01*
X5539161Y37034943D02*
X5586780Y37082562D01*
X5586780Y37082562D02*
X5682018Y37130181D01*
X6396304Y37034943D02*
X6443923Y37082562D01*
X6443923Y37082562D02*
X6539161Y37130181D01*
X6539161Y37130181D02*
X6777256Y37130181D01*
X6777256Y37130181D02*
X6872494Y37082562D01*
X6872494Y37082562D02*
X6920113Y37034943D01*
X6920113Y37034943D02*
X6967732Y36939705D01*
X6967732Y36939705D02*
X6967732Y36844467D01*
X6967732Y36844467D02*
X6920113Y36701610D01*
X6920113Y36701610D02*
X6348685Y36130181D01*
X6348685Y36130181D02*
X6967732Y36130181D01*
X7824875Y36796848D02*
X7824875Y36130181D01*
X7586780Y37177800D02*
X7348685Y36463515D01*
X7348685Y36463515D02*
X7967732Y36463515D01*
X9110590Y36130181D02*
X9110590Y37130181D01*
X9110590Y37130181D02*
X9443923Y36415896D01*
X9443923Y36415896D02*
X9777256Y37130181D01*
X9777256Y37130181D02*
X9777256Y36130181D01*
X10682018Y36130181D02*
X10682018Y36653991D01*
X10682018Y36653991D02*
X10634399Y36749229D01*
X10634399Y36749229D02*
X10539161Y36796848D01*
X10539161Y36796848D02*
X10348685Y36796848D01*
X10348685Y36796848D02*
X10253447Y36749229D01*
X10682018Y36177800D02*
X10586780Y36130181D01*
X10586780Y36130181D02*
X10348685Y36130181D01*
X10348685Y36130181D02*
X10253447Y36177800D01*
X10253447Y36177800D02*
X10205828Y36273039D01*
X10205828Y36273039D02*
X10205828Y36368277D01*
X10205828Y36368277D02*
X10253447Y36463515D01*
X10253447Y36463515D02*
X10348685Y36511134D01*
X10348685Y36511134D02*
X10586780Y36511134D01*
X10586780Y36511134D02*
X10682018Y36558753D01*
X11015352Y36796848D02*
X11396304Y36796848D01*
X11158209Y37130181D02*
X11158209Y36273039D01*
X11158209Y36273039D02*
X11205828Y36177800D01*
X11205828Y36177800D02*
X11301066Y36130181D01*
X11301066Y36130181D02*
X11396304Y36130181D01*
X11586781Y36796848D02*
X11967733Y36796848D01*
X11729638Y37130181D02*
X11729638Y36273039D01*
X11729638Y36273039D02*
X11777257Y36177800D01*
X11777257Y36177800D02*
X11872495Y36130181D01*
X11872495Y36130181D02*
X11967733Y36130181D01*
X12301067Y36130181D02*
X12301067Y37130181D01*
X12729638Y36130181D02*
X12729638Y36653991D01*
X12729638Y36653991D02*
X12682019Y36749229D01*
X12682019Y36749229D02*
X12586781Y36796848D01*
X12586781Y36796848D02*
X12443924Y36796848D01*
X12443924Y36796848D02*
X12348686Y36749229D01*
X12348686Y36749229D02*
X12301067Y36701610D01*
X13205829Y36130181D02*
X13205829Y36796848D01*
X13205829Y37130181D02*
X13158210Y37082562D01*
X13158210Y37082562D02*
X13205829Y37034943D01*
X13205829Y37034943D02*
X13253448Y37082562D01*
X13253448Y37082562D02*
X13205829Y37130181D01*
X13205829Y37130181D02*
X13205829Y37034943D01*
X14110590Y36130181D02*
X14110590Y36653991D01*
X14110590Y36653991D02*
X14062971Y36749229D01*
X14062971Y36749229D02*
X13967733Y36796848D01*
X13967733Y36796848D02*
X13777257Y36796848D01*
X13777257Y36796848D02*
X13682019Y36749229D01*
X14110590Y36177800D02*
X14015352Y36130181D01*
X14015352Y36130181D02*
X13777257Y36130181D01*
X13777257Y36130181D02*
X13682019Y36177800D01*
X13682019Y36177800D02*
X13634400Y36273039D01*
X13634400Y36273039D02*
X13634400Y36368277D01*
X13634400Y36368277D02*
X13682019Y36463515D01*
X13682019Y36463515D02*
X13777257Y36511134D01*
X13777257Y36511134D02*
X14015352Y36511134D01*
X14015352Y36511134D02*
X14110590Y36558753D01*
X14539162Y36177800D02*
X14634400Y36130181D01*
X14634400Y36130181D02*
X14824876Y36130181D01*
X14824876Y36130181D02*
X14920114Y36177800D01*
X14920114Y36177800D02*
X14967733Y36273039D01*
X14967733Y36273039D02*
X14967733Y36320658D01*
X14967733Y36320658D02*
X14920114Y36415896D01*
X14920114Y36415896D02*
X14824876Y36463515D01*
X14824876Y36463515D02*
X14682019Y36463515D01*
X14682019Y36463515D02*
X14586781Y36511134D01*
X14586781Y36511134D02*
X14539162Y36606372D01*
X14539162Y36606372D02*
X14539162Y36653991D01*
X14539162Y36653991D02*
X14586781Y36749229D01*
X14586781Y36749229D02*
X14682019Y36796848D01*
X14682019Y36796848D02*
X14824876Y36796848D01*
X14824876Y36796848D02*
X14920114Y36749229D01*
X16158210Y36130181D02*
X16158210Y37130181D01*
X16729638Y36130181D02*
X16301067Y36701610D01*
X16729638Y37130181D02*
X16158210Y36558753D01*
X17539162Y36177800D02*
X17443924Y36130181D01*
X17443924Y36130181D02*
X17253448Y36130181D01*
X17253448Y36130181D02*
X17158210Y36177800D01*
X17158210Y36177800D02*
X17110591Y36273039D01*
X17110591Y36273039D02*
X17110591Y36653991D01*
X17110591Y36653991D02*
X17158210Y36749229D01*
X17158210Y36749229D02*
X17253448Y36796848D01*
X17253448Y36796848D02*
X17443924Y36796848D01*
X17443924Y36796848D02*
X17539162Y36749229D01*
X17539162Y36749229D02*
X17586781Y36653991D01*
X17586781Y36653991D02*
X17586781Y36558753D01*
X17586781Y36558753D02*
X17110591Y36463515D01*
X17967734Y36177800D02*
X18062972Y36130181D01*
X18062972Y36130181D02*
X18253448Y36130181D01*
X18253448Y36130181D02*
X18348686Y36177800D01*
X18348686Y36177800D02*
X18396305Y36273039D01*
X18396305Y36273039D02*
X18396305Y36320658D01*
X18396305Y36320658D02*
X18348686Y36415896D01*
X18348686Y36415896D02*
X18253448Y36463515D01*
X18253448Y36463515D02*
X18110591Y36463515D01*
X18110591Y36463515D02*
X18015353Y36511134D01*
X18015353Y36511134D02*
X17967734Y36606372D01*
X17967734Y36606372D02*
X17967734Y36653991D01*
X17967734Y36653991D02*
X18015353Y36749229D01*
X18015353Y36749229D02*
X18110591Y36796848D01*
X18110591Y36796848D02*
X18253448Y36796848D01*
X18253448Y36796848D02*
X18348686Y36749229D01*
X19205829Y36177800D02*
X19110591Y36130181D01*
X19110591Y36130181D02*
X18920115Y36130181D01*
X18920115Y36130181D02*
X18824877Y36177800D01*
X18824877Y36177800D02*
X18777258Y36273039D01*
X18777258Y36273039D02*
X18777258Y36653991D01*
X18777258Y36653991D02*
X18824877Y36749229D01*
X18824877Y36749229D02*
X18920115Y36796848D01*
X18920115Y36796848D02*
X19110591Y36796848D01*
X19110591Y36796848D02*
X19205829Y36749229D01*
X19205829Y36749229D02*
X19253448Y36653991D01*
X19253448Y36653991D02*
X19253448Y36558753D01*
X19253448Y36558753D02*
X18777258Y36463515D01*
X19682020Y36796848D02*
X19682020Y36130181D01*
X19682020Y36701610D02*
X19729639Y36749229D01*
X19729639Y36749229D02*
X19824877Y36796848D01*
X19824877Y36796848D02*
X19967734Y36796848D01*
X19967734Y36796848D02*
X20062972Y36749229D01*
X20062972Y36749229D02*
X20110591Y36653991D01*
X20110591Y36653991D02*
X20110591Y36130181D01*
X20586782Y36130181D02*
X20586782Y37130181D01*
X21015353Y36130181D02*
X21015353Y36653991D01*
X21015353Y36653991D02*
X20967734Y36749229D01*
X20967734Y36749229D02*
X20872496Y36796848D01*
X20872496Y36796848D02*
X20729639Y36796848D01*
X20729639Y36796848D02*
X20634401Y36749229D01*
X20634401Y36749229D02*
X20586782Y36701610D01*
X21872496Y36177800D02*
X21777258Y36130181D01*
X21777258Y36130181D02*
X21586782Y36130181D01*
X21586782Y36130181D02*
X21491544Y36177800D01*
X21491544Y36177800D02*
X21443925Y36273039D01*
X21443925Y36273039D02*
X21443925Y36653991D01*
X21443925Y36653991D02*
X21491544Y36749229D01*
X21491544Y36749229D02*
X21586782Y36796848D01*
X21586782Y36796848D02*
X21777258Y36796848D01*
X21777258Y36796848D02*
X21872496Y36749229D01*
X21872496Y36749229D02*
X21920115Y36653991D01*
X21920115Y36653991D02*
X21920115Y36558753D01*
X21920115Y36558753D02*
X21443925Y36463515D01*
X22348687Y36130181D02*
X22348687Y36796848D01*
X22348687Y37130181D02*
X22301068Y37082562D01*
X22301068Y37082562D02*
X22348687Y37034943D01*
X22348687Y37034943D02*
X22396306Y37082562D01*
X22396306Y37082562D02*
X22348687Y37130181D01*
X22348687Y37130181D02*
X22348687Y37034943D01*
X22824877Y36130181D02*
X22824877Y36796848D01*
X22824877Y36701610D02*
X22872496Y36749229D01*
X22872496Y36749229D02*
X22967734Y36796848D01*
X22967734Y36796848D02*
X23110591Y36796848D01*
X23110591Y36796848D02*
X23205829Y36749229D01*
X23205829Y36749229D02*
X23253448Y36653991D01*
X23253448Y36653991D02*
X23253448Y36130181D01*
X23253448Y36653991D02*
X23301067Y36749229D01*
X23301067Y36749229D02*
X23396305Y36796848D01*
X23396305Y36796848D02*
X23539162Y36796848D01*
X23539162Y36796848D02*
X23634401Y36749229D01*
X23634401Y36749229D02*
X23682020Y36653991D01*
X23682020Y36653991D02*
X23682020Y36130181D01*
X24539162Y36177800D02*
X24443924Y36130181D01*
X24443924Y36130181D02*
X24253448Y36130181D01*
X24253448Y36130181D02*
X24158210Y36177800D01*
X24158210Y36177800D02*
X24110591Y36273039D01*
X24110591Y36273039D02*
X24110591Y36653991D01*
X24110591Y36653991D02*
X24158210Y36749229D01*
X24158210Y36749229D02*
X24253448Y36796848D01*
X24253448Y36796848D02*
X24443924Y36796848D01*
X24443924Y36796848D02*
X24539162Y36749229D01*
X24539162Y36749229D02*
X24586781Y36653991D01*
X24586781Y36653991D02*
X24586781Y36558753D01*
X24586781Y36558753D02*
X24110591Y36463515D01*
X25015353Y36130181D02*
X25015353Y36796848D01*
X25015353Y36606372D02*
X25062972Y36701610D01*
X25062972Y36701610D02*
X25110591Y36749229D01*
X25110591Y36749229D02*
X25205829Y36796848D01*
X25205829Y36796848D02*
X25301067Y36796848D01*
X18836779Y12261134D02*
X19598684Y12261134D01*
X19217731Y11880181D02*
X19217731Y12642086D01*
X20551064Y12880181D02*
X20074874Y12880181D01*
X20074874Y12880181D02*
X20027255Y12403991D01*
X20027255Y12403991D02*
X20074874Y12451610D01*
X20074874Y12451610D02*
X20170112Y12499229D01*
X20170112Y12499229D02*
X20408207Y12499229D01*
X20408207Y12499229D02*
X20503445Y12451610D01*
X20503445Y12451610D02*
X20551064Y12403991D01*
X20551064Y12403991D02*
X20598683Y12308753D01*
X20598683Y12308753D02*
X20598683Y12070658D01*
X20598683Y12070658D02*
X20551064Y11975420D01*
X20551064Y11975420D02*
X20503445Y11927800D01*
X20503445Y11927800D02*
X20408207Y11880181D01*
X20408207Y11880181D02*
X20170112Y11880181D01*
X20170112Y11880181D02*
X20074874Y11927800D01*
X20074874Y11927800D02*
X20027255Y11975420D01*
X20884398Y12880181D02*
X21217731Y11880181D01*
X21217731Y11880181D02*
X21551064Y12880181D01*
X64110588Y22082562D02*
X64015350Y22130181D01*
X64015350Y22130181D02*
X63872493Y22130181D01*
X63872493Y22130181D02*
X63729636Y22082562D01*
X63729636Y22082562D02*
X63634398Y21987324D01*
X63634398Y21987324D02*
X63586779Y21892086D01*
X63586779Y21892086D02*
X63539160Y21701610D01*
X63539160Y21701610D02*
X63539160Y21558753D01*
X63539160Y21558753D02*
X63586779Y21368277D01*
X63586779Y21368277D02*
X63634398Y21273039D01*
X63634398Y21273039D02*
X63729636Y21177800D01*
X63729636Y21177800D02*
X63872493Y21130181D01*
X63872493Y21130181D02*
X63967731Y21130181D01*
X63967731Y21130181D02*
X64110588Y21177800D01*
X64110588Y21177800D02*
X64158207Y21225420D01*
X64158207Y21225420D02*
X64158207Y21558753D01*
X64158207Y21558753D02*
X63967731Y21558753D01*
X64539160Y21415896D02*
X65015350Y21415896D01*
X64443922Y21130181D02*
X64777255Y22130181D01*
X64777255Y22130181D02*
X65110588Y21130181D01*
X65443922Y21130181D02*
X65443922Y22130181D01*
X65920112Y21130181D02*
X65920112Y22130181D01*
X65920112Y22130181D02*
X66491540Y21130181D01*
X66491540Y21130181D02*
X66491540Y22130181D01*
X65062969Y11880181D02*
X64586779Y11880181D01*
X64586779Y11880181D02*
X64539160Y11403991D01*
X64539160Y11403991D02*
X64586779Y11451610D01*
X64586779Y11451610D02*
X64682017Y11499229D01*
X64682017Y11499229D02*
X64920112Y11499229D01*
X64920112Y11499229D02*
X65015350Y11451610D01*
X65015350Y11451610D02*
X65062969Y11403991D01*
X65062969Y11403991D02*
X65110588Y11308753D01*
X65110588Y11308753D02*
X65110588Y11070658D01*
X65110588Y11070658D02*
X65062969Y10975420D01*
X65062969Y10975420D02*
X65015350Y10927800D01*
X65015350Y10927800D02*
X64920112Y10880181D01*
X64920112Y10880181D02*
X64682017Y10880181D01*
X64682017Y10880181D02*
X64586779Y10927800D01*
X64586779Y10927800D02*
X64539160Y10975420D01*
X65729636Y11880181D02*
X65824874Y11880181D01*
X65824874Y11880181D02*
X65920112Y11832562D01*
X65920112Y11832562D02*
X65967731Y11784943D01*
X65967731Y11784943D02*
X66015350Y11689705D01*
X66015350Y11689705D02*
X66062969Y11499229D01*
X66062969Y11499229D02*
X66062969Y11261134D01*
X66062969Y11261134D02*
X66015350Y11070658D01*
X66015350Y11070658D02*
X65967731Y10975420D01*
X65967731Y10975420D02*
X65920112Y10927800D01*
X65920112Y10927800D02*
X65824874Y10880181D01*
X65824874Y10880181D02*
X65729636Y10880181D01*
X65729636Y10880181D02*
X65634398Y10927800D01*
X65634398Y10927800D02*
X65586779Y10975420D01*
X65586779Y10975420D02*
X65539160Y11070658D01*
X65539160Y11070658D02*
X65491541Y11261134D01*
X65491541Y11261134D02*
X65491541Y11499229D01*
X65491541Y11499229D02*
X65539160Y11689705D01*
X65539160Y11689705D02*
X65586779Y11784943D01*
X65586779Y11784943D02*
X65634398Y11832562D01*
X65634398Y11832562D02*
X65729636Y11880181D01*
X66443922Y10880181D02*
X66682017Y10880181D01*
X66682017Y10880181D02*
X66682017Y11070658D01*
X66682017Y11070658D02*
X66586779Y11118277D01*
X66586779Y11118277D02*
X66491541Y11213515D01*
X66491541Y11213515D02*
X66443922Y11356372D01*
X66443922Y11356372D02*
X66443922Y11594467D01*
X66443922Y11594467D02*
X66491541Y11737324D01*
X66491541Y11737324D02*
X66586779Y11832562D01*
X66586779Y11832562D02*
X66729636Y11880181D01*
X66729636Y11880181D02*
X66920112Y11880181D01*
X66920112Y11880181D02*
X67062969Y11832562D01*
X67062969Y11832562D02*
X67158207Y11737324D01*
X67158207Y11737324D02*
X67205826Y11594467D01*
X67205826Y11594467D02*
X67205826Y11356372D01*
X67205826Y11356372D02*
X67158207Y11213515D01*
X67158207Y11213515D02*
X67062969Y11118277D01*
X67062969Y11118277D02*
X66967731Y11070658D01*
X66967731Y11070658D02*
X66967731Y10880181D01*
X66967731Y10880181D02*
X67205826Y10880181D01*
X56443922Y1011134D02*
X56491541Y1058753D01*
X56491541Y1058753D02*
X56586779Y1106372D01*
X56586779Y1106372D02*
X56777255Y1011134D01*
X56777255Y1011134D02*
X56872493Y1058753D01*
X56872493Y1058753D02*
X56920112Y1106372D01*
X57824874Y630181D02*
X57253446Y630181D01*
X57539160Y630181D02*
X57539160Y1630181D01*
X57539160Y1630181D02*
X57443922Y1487324D01*
X57443922Y1487324D02*
X57348684Y1392086D01*
X57348684Y1392086D02*
X57253446Y1344467D01*
X58443922Y1630181D02*
X58539160Y1630181D01*
X58539160Y1630181D02*
X58634398Y1582562D01*
X58634398Y1582562D02*
X58682017Y1534943D01*
X58682017Y1534943D02*
X58729636Y1439705D01*
X58729636Y1439705D02*
X58777255Y1249229D01*
X58777255Y1249229D02*
X58777255Y1011134D01*
X58777255Y1011134D02*
X58729636Y820658D01*
X58729636Y820658D02*
X58682017Y725420D01*
X58682017Y725420D02*
X58634398Y677800D01*
X58634398Y677800D02*
X58539160Y630181D01*
X58539160Y630181D02*
X58443922Y630181D01*
X58443922Y630181D02*
X58348684Y677800D01*
X58348684Y677800D02*
X58301065Y725420D01*
X58301065Y725420D02*
X58253446Y820658D01*
X58253446Y820658D02*
X58205827Y1011134D01*
X58205827Y1011134D02*
X58205827Y1249229D01*
X58205827Y1249229D02*
X58253446Y1439705D01*
X58253446Y1439705D02*
X58301065Y1534943D01*
X58301065Y1534943D02*
X58348684Y1582562D01*
X58348684Y1582562D02*
X58443922Y1630181D01*
X59396303Y1630181D02*
X59491541Y1630181D01*
X59491541Y1630181D02*
X59586779Y1582562D01*
X59586779Y1582562D02*
X59634398Y1534943D01*
X59634398Y1534943D02*
X59682017Y1439705D01*
X59682017Y1439705D02*
X59729636Y1249229D01*
X59729636Y1249229D02*
X59729636Y1011134D01*
X59729636Y1011134D02*
X59682017Y820658D01*
X59682017Y820658D02*
X59634398Y725420D01*
X59634398Y725420D02*
X59586779Y677800D01*
X59586779Y677800D02*
X59491541Y630181D01*
X59491541Y630181D02*
X59396303Y630181D01*
X59396303Y630181D02*
X59301065Y677800D01*
X59301065Y677800D02*
X59253446Y725420D01*
X59253446Y725420D02*
X59205827Y820658D01*
X59205827Y820658D02*
X59158208Y1011134D01*
X59158208Y1011134D02*
X59158208Y1249229D01*
X59158208Y1249229D02*
X59205827Y1439705D01*
X59205827Y1439705D02*
X59253446Y1534943D01*
X59253446Y1534943D02*
X59301065Y1582562D01*
X59301065Y1582562D02*
X59396303Y1630181D01*
X60158208Y630181D02*
X60158208Y1296848D01*
X60158208Y1201610D02*
X60205827Y1249229D01*
X60205827Y1249229D02*
X60301065Y1296848D01*
X60301065Y1296848D02*
X60443922Y1296848D01*
X60443922Y1296848D02*
X60539160Y1249229D01*
X60539160Y1249229D02*
X60586779Y1153991D01*
X60586779Y1153991D02*
X60586779Y630181D01*
X60586779Y1153991D02*
X60634398Y1249229D01*
X60634398Y1249229D02*
X60729636Y1296848D01*
X60729636Y1296848D02*
X60872493Y1296848D01*
X60872493Y1296848D02*
X60967732Y1249229D01*
X60967732Y1249229D02*
X61015351Y1153991D01*
X61015351Y1153991D02*
X61015351Y630181D01*
X61443922Y915896D02*
X61920112Y915896D01*
X61348684Y630181D02*
X61682017Y1630181D01*
X61682017Y1630181D02*
X62015350Y630181D01*
X63729636Y1106372D02*
X63682017Y1153991D01*
X63682017Y1153991D02*
X63586779Y1201610D01*
X63586779Y1201610D02*
X63491541Y1201610D01*
X63491541Y1201610D02*
X63396303Y1153991D01*
X63396303Y1153991D02*
X63348684Y1106372D01*
X63348684Y1106372D02*
X63301065Y1011134D01*
X63301065Y1011134D02*
X63301065Y915896D01*
X63301065Y915896D02*
X63348684Y820658D01*
X63348684Y820658D02*
X63396303Y773039D01*
X63396303Y773039D02*
X63491541Y725420D01*
X63491541Y725420D02*
X63586779Y725420D01*
X63586779Y725420D02*
X63682017Y773039D01*
X63682017Y773039D02*
X63729636Y820658D01*
X63729636Y1201610D02*
X63729636Y820658D01*
X63729636Y820658D02*
X63777255Y773039D01*
X63777255Y773039D02*
X63824874Y773039D01*
X63824874Y773039D02*
X63920113Y820658D01*
X63920113Y820658D02*
X63967732Y915896D01*
X63967732Y915896D02*
X63967732Y1153991D01*
X63967732Y1153991D02*
X63872494Y1296848D01*
X63872494Y1296848D02*
X63729636Y1392086D01*
X63729636Y1392086D02*
X63539160Y1439705D01*
X63539160Y1439705D02*
X63348684Y1392086D01*
X63348684Y1392086D02*
X63205827Y1296848D01*
X63205827Y1296848D02*
X63110589Y1153991D01*
X63110589Y1153991D02*
X63062970Y963515D01*
X63062970Y963515D02*
X63110589Y773039D01*
X63110589Y773039D02*
X63205827Y630181D01*
X63205827Y630181D02*
X63348684Y534943D01*
X63348684Y534943D02*
X63539160Y487324D01*
X63539160Y487324D02*
X63729636Y534943D01*
X63729636Y534943D02*
X63872494Y630181D01*
X65634398Y1630181D02*
X65158208Y1630181D01*
X65158208Y1630181D02*
X65110589Y1153991D01*
X65110589Y1153991D02*
X65158208Y1201610D01*
X65158208Y1201610D02*
X65253446Y1249229D01*
X65253446Y1249229D02*
X65491541Y1249229D01*
X65491541Y1249229D02*
X65586779Y1201610D01*
X65586779Y1201610D02*
X65634398Y1153991D01*
X65634398Y1153991D02*
X65682017Y1058753D01*
X65682017Y1058753D02*
X65682017Y820658D01*
X65682017Y820658D02*
X65634398Y725420D01*
X65634398Y725420D02*
X65586779Y677800D01*
X65586779Y677800D02*
X65491541Y630181D01*
X65491541Y630181D02*
X65253446Y630181D01*
X65253446Y630181D02*
X65158208Y677800D01*
X65158208Y677800D02*
X65110589Y725420D01*
X66301065Y1630181D02*
X66396303Y1630181D01*
X66396303Y1630181D02*
X66491541Y1582562D01*
X66491541Y1582562D02*
X66539160Y1534943D01*
X66539160Y1534943D02*
X66586779Y1439705D01*
X66586779Y1439705D02*
X66634398Y1249229D01*
X66634398Y1249229D02*
X66634398Y1011134D01*
X66634398Y1011134D02*
X66586779Y820658D01*
X66586779Y820658D02*
X66539160Y725420D01*
X66539160Y725420D02*
X66491541Y677800D01*
X66491541Y677800D02*
X66396303Y630181D01*
X66396303Y630181D02*
X66301065Y630181D01*
X66301065Y630181D02*
X66205827Y677800D01*
X66205827Y677800D02*
X66158208Y725420D01*
X66158208Y725420D02*
X66110589Y820658D01*
X66110589Y820658D02*
X66062970Y1011134D01*
X66062970Y1011134D02*
X66062970Y1249229D01*
X66062970Y1249229D02*
X66110589Y1439705D01*
X66110589Y1439705D02*
X66158208Y1534943D01*
X66158208Y1534943D02*
X66205827Y1582562D01*
X66205827Y1582562D02*
X66301065Y1630181D01*
X67062970Y630181D02*
X67062970Y1296848D01*
X67062970Y1201610D02*
X67110589Y1249229D01*
X67110589Y1249229D02*
X67205827Y1296848D01*
X67205827Y1296848D02*
X67348684Y1296848D01*
X67348684Y1296848D02*
X67443922Y1249229D01*
X67443922Y1249229D02*
X67491541Y1153991D01*
X67491541Y1153991D02*
X67491541Y630181D01*
X67491541Y1153991D02*
X67539160Y1249229D01*
X67539160Y1249229D02*
X67634398Y1296848D01*
X67634398Y1296848D02*
X67777255Y1296848D01*
X67777255Y1296848D02*
X67872494Y1249229D01*
X67872494Y1249229D02*
X67920113Y1153991D01*
X67920113Y1153991D02*
X67920113Y630181D01*
X68348684Y915896D02*
X68824874Y915896D01*
X68253446Y630181D02*
X68586779Y1630181D01*
X68586779Y1630181D02*
X68920112Y630181D01*
X55860588Y8832562D02*
X55765350Y8880181D01*
X55765350Y8880181D02*
X55622493Y8880181D01*
X55622493Y8880181D02*
X55479636Y8832562D01*
X55479636Y8832562D02*
X55384398Y8737324D01*
X55384398Y8737324D02*
X55336779Y8642086D01*
X55336779Y8642086D02*
X55289160Y8451610D01*
X55289160Y8451610D02*
X55289160Y8308753D01*
X55289160Y8308753D02*
X55336779Y8118277D01*
X55336779Y8118277D02*
X55384398Y8023039D01*
X55384398Y8023039D02*
X55479636Y7927800D01*
X55479636Y7927800D02*
X55622493Y7880181D01*
X55622493Y7880181D02*
X55717731Y7880181D01*
X55717731Y7880181D02*
X55860588Y7927800D01*
X55860588Y7927800D02*
X55908207Y7975420D01*
X55908207Y7975420D02*
X55908207Y8308753D01*
X55908207Y8308753D02*
X55717731Y8308753D01*
X44536779Y35380181D02*
X44536779Y36380181D01*
X45012969Y35380181D02*
X45012969Y36380181D01*
X45012969Y36380181D02*
X45584397Y35380181D01*
X45584397Y35380181D02*
X45584397Y36380181D01*
X45917731Y36380181D02*
X46489159Y36380181D01*
X46203445Y35380181D02*
X46203445Y36380181D01*
X46822493Y35903991D02*
X47155826Y35903991D01*
X47298683Y35380181D02*
X46822493Y35380181D01*
X46822493Y35380181D02*
X46822493Y36380181D01*
X46822493Y36380181D02*
X47298683Y36380181D01*
X48298683Y35380181D02*
X47965350Y35856372D01*
X47727255Y35380181D02*
X47727255Y36380181D01*
X47727255Y36380181D02*
X48108207Y36380181D01*
X48108207Y36380181D02*
X48203445Y36332562D01*
X48203445Y36332562D02*
X48251064Y36284943D01*
X48251064Y36284943D02*
X48298683Y36189705D01*
X48298683Y36189705D02*
X48298683Y36046848D01*
X48298683Y36046848D02*
X48251064Y35951610D01*
X48251064Y35951610D02*
X48203445Y35903991D01*
X48203445Y35903991D02*
X48108207Y35856372D01*
X48108207Y35856372D02*
X47727255Y35856372D01*
X48727255Y35380181D02*
X48727255Y36380181D01*
X48727255Y36380181D02*
X49060588Y35665896D01*
X49060588Y35665896D02*
X49393921Y36380181D01*
X49393921Y36380181D02*
X49393921Y35380181D01*
X5860588Y33832562D02*
X5765350Y33880181D01*
X5765350Y33880181D02*
X5622493Y33880181D01*
X5622493Y33880181D02*
X5479636Y33832562D01*
X5479636Y33832562D02*
X5384398Y33737324D01*
X5384398Y33737324D02*
X5336779Y33642086D01*
X5336779Y33642086D02*
X5289160Y33451610D01*
X5289160Y33451610D02*
X5289160Y33308753D01*
X5289160Y33308753D02*
X5336779Y33118277D01*
X5336779Y33118277D02*
X5384398Y33023039D01*
X5384398Y33023039D02*
X5479636Y32927800D01*
X5479636Y32927800D02*
X5622493Y32880181D01*
X5622493Y32880181D02*
X5717731Y32880181D01*
X5717731Y32880181D02*
X5860588Y32927800D01*
X5860588Y32927800D02*
X5908207Y32975420D01*
X5908207Y32975420D02*
X5908207Y33308753D01*
X5908207Y33308753D02*
X5717731Y33308753D01*
X6336779Y32880181D02*
X6336779Y33880181D01*
X6336779Y33880181D02*
X6908207Y32880181D01*
X6908207Y32880181D02*
X6908207Y33880181D01*
X7384398Y32880181D02*
X7384398Y33880181D01*
X7384398Y33880181D02*
X7622493Y33880181D01*
X7622493Y33880181D02*
X7765350Y33832562D01*
X7765350Y33832562D02*
X7860588Y33737324D01*
X7860588Y33737324D02*
X7908207Y33642086D01*
X7908207Y33642086D02*
X7955826Y33451610D01*
X7955826Y33451610D02*
X7955826Y33308753D01*
X7955826Y33308753D02*
X7908207Y33118277D01*
X7908207Y33118277D02*
X7860588Y33023039D01*
X7860588Y33023039D02*
X7765350Y32927800D01*
X7765350Y32927800D02*
X7622493Y32880181D01*
X7622493Y32880181D02*
X7384398Y32880181D01*
X10943922Y25130181D02*
X11515350Y25130181D01*
X11229636Y24130181D02*
X11229636Y25130181D01*
X12420112Y24130181D02*
X12086779Y24606372D01*
X11848684Y24130181D02*
X11848684Y25130181D01*
X11848684Y25130181D02*
X12229636Y25130181D01*
X12229636Y25130181D02*
X12324874Y25082562D01*
X12324874Y25082562D02*
X12372493Y25034943D01*
X12372493Y25034943D02*
X12420112Y24939705D01*
X12420112Y24939705D02*
X12420112Y24796848D01*
X12420112Y24796848D02*
X12372493Y24701610D01*
X12372493Y24701610D02*
X12324874Y24653991D01*
X12324874Y24653991D02*
X12229636Y24606372D01*
X12229636Y24606372D02*
X11848684Y24606372D01*
X12848684Y24130181D02*
X12848684Y25130181D01*
X13848683Y25082562D02*
X13753445Y25130181D01*
X13753445Y25130181D02*
X13610588Y25130181D01*
X13610588Y25130181D02*
X13467731Y25082562D01*
X13467731Y25082562D02*
X13372493Y24987324D01*
X13372493Y24987324D02*
X13324874Y24892086D01*
X13324874Y24892086D02*
X13277255Y24701610D01*
X13277255Y24701610D02*
X13277255Y24558753D01*
X13277255Y24558753D02*
X13324874Y24368277D01*
X13324874Y24368277D02*
X13372493Y24273039D01*
X13372493Y24273039D02*
X13467731Y24177800D01*
X13467731Y24177800D02*
X13610588Y24130181D01*
X13610588Y24130181D02*
X13705826Y24130181D01*
X13705826Y24130181D02*
X13848683Y24177800D01*
X13848683Y24177800D02*
X13896302Y24225420D01*
X13896302Y24225420D02*
X13896302Y24558753D01*
X13896302Y24558753D02*
X13705826Y24558753D01*
X18336779Y33380181D02*
X18336779Y34380181D01*
X19003445Y34380181D02*
X19193921Y34380181D01*
X19193921Y34380181D02*
X19289159Y34332562D01*
X19289159Y34332562D02*
X19384397Y34237324D01*
X19384397Y34237324D02*
X19432016Y34046848D01*
X19432016Y34046848D02*
X19432016Y33713515D01*
X19432016Y33713515D02*
X19384397Y33523039D01*
X19384397Y33523039D02*
X19289159Y33427800D01*
X19289159Y33427800D02*
X19193921Y33380181D01*
X19193921Y33380181D02*
X19003445Y33380181D01*
X19003445Y33380181D02*
X18908207Y33427800D01*
X18908207Y33427800D02*
X18812969Y33523039D01*
X18812969Y33523039D02*
X18765350Y33713515D01*
X18765350Y33713515D02*
X18765350Y34046848D01*
X18765350Y34046848D02*
X18812969Y34237324D01*
X18812969Y34237324D02*
X18908207Y34332562D01*
X18908207Y34332562D02*
X19003445Y34380181D01*
X19860588Y34380181D02*
X19860588Y33570658D01*
X19860588Y33570658D02*
X19908207Y33475420D01*
X19908207Y33475420D02*
X19955826Y33427800D01*
X19955826Y33427800D02*
X20051064Y33380181D01*
X20051064Y33380181D02*
X20241540Y33380181D01*
X20241540Y33380181D02*
X20336778Y33427800D01*
X20336778Y33427800D02*
X20384397Y33475420D01*
X20384397Y33475420D02*
X20432016Y33570658D01*
X20432016Y33570658D02*
X20432016Y34380181D01*
X20765350Y34380181D02*
X21336778Y34380181D01*
X21051064Y33380181D02*
X21051064Y34380181D01*
X21670112Y33380181D02*
X21670112Y34380181D01*
X21670112Y34380181D02*
X22241540Y33380181D01*
X22241540Y33380181D02*
X22241540Y34380181D01*
X39158207Y15130181D02*
X38824874Y15606372D01*
X38586779Y15130181D02*
X38586779Y16130181D01*
X38586779Y16130181D02*
X38967731Y16130181D01*
X38967731Y16130181D02*
X39062969Y16082562D01*
X39062969Y16082562D02*
X39110588Y16034943D01*
X39110588Y16034943D02*
X39158207Y15939705D01*
X39158207Y15939705D02*
X39158207Y15796848D01*
X39158207Y15796848D02*
X39110588Y15701610D01*
X39110588Y15701610D02*
X39062969Y15653991D01*
X39062969Y15653991D02*
X38967731Y15606372D01*
X38967731Y15606372D02*
X38586779Y15606372D01*
X39586779Y15653991D02*
X39920112Y15653991D01*
X40062969Y15130181D02*
X39586779Y15130181D01*
X39586779Y15130181D02*
X39586779Y16130181D01*
X39586779Y16130181D02*
X40062969Y16130181D01*
X40824874Y15653991D02*
X40491541Y15653991D01*
X40491541Y15130181D02*
X40491541Y16130181D01*
X40491541Y16130181D02*
X40967731Y16130181D01*
X41348684Y15130181D02*
X41348684Y16130181D01*
X42015350Y16130181D02*
X42205826Y16130181D01*
X42205826Y16130181D02*
X42301064Y16082562D01*
X42301064Y16082562D02*
X42396302Y15987324D01*
X42396302Y15987324D02*
X42443921Y15796848D01*
X42443921Y15796848D02*
X42443921Y15463515D01*
X42443921Y15463515D02*
X42396302Y15273039D01*
X42396302Y15273039D02*
X42301064Y15177800D01*
X42301064Y15177800D02*
X42205826Y15130181D01*
X42205826Y15130181D02*
X42015350Y15130181D01*
X42015350Y15130181D02*
X41920112Y15177800D01*
X41920112Y15177800D02*
X41824874Y15273039D01*
X41824874Y15273039D02*
X41777255Y15463515D01*
X41777255Y15463515D02*
X41777255Y15796848D01*
X41777255Y15796848D02*
X41824874Y15987324D01*
X41824874Y15987324D02*
X41920112Y16082562D01*
X41920112Y16082562D02*
X42015350Y16130181D01*
X10586779Y9261134D02*
X11348684Y9261134D01*
X10967731Y8880181D02*
X10967731Y9642086D01*
X11729636Y9880181D02*
X12348683Y9880181D01*
X12348683Y9880181D02*
X12015350Y9499229D01*
X12015350Y9499229D02*
X12158207Y9499229D01*
X12158207Y9499229D02*
X12253445Y9451610D01*
X12253445Y9451610D02*
X12301064Y9403991D01*
X12301064Y9403991D02*
X12348683Y9308753D01*
X12348683Y9308753D02*
X12348683Y9070658D01*
X12348683Y9070658D02*
X12301064Y8975420D01*
X12301064Y8975420D02*
X12253445Y8927800D01*
X12253445Y8927800D02*
X12158207Y8880181D01*
X12158207Y8880181D02*
X11872493Y8880181D01*
X11872493Y8880181D02*
X11777255Y8927800D01*
X11777255Y8927800D02*
X11729636Y8975420D01*
X12634398Y9880181D02*
X12967731Y8880181D01*
X12967731Y8880181D02*
X13301064Y9880181D01*
X13539160Y9880181D02*
X14158207Y9880181D01*
X14158207Y9880181D02*
X13824874Y9499229D01*
X13824874Y9499229D02*
X13967731Y9499229D01*
X13967731Y9499229D02*
X14062969Y9451610D01*
X14062969Y9451610D02*
X14110588Y9403991D01*
X14110588Y9403991D02*
X14158207Y9308753D01*
X14158207Y9308753D02*
X14158207Y9070658D01*
X14158207Y9070658D02*
X14110588Y8975420D01*
X14110588Y8975420D02*
X14062969Y8927800D01*
X14062969Y8927800D02*
X13967731Y8880181D01*
X13967731Y8880181D02*
X13682017Y8880181D01*
X13682017Y8880181D02*
X13586779Y8927800D01*
X13586779Y8927800D02*
X13539160Y8975420D01*
X31369819Y7943923D02*
X31369819Y8515351D01*
X32369819Y8229637D02*
X31369819Y8229637D01*
X32369819Y9420113D02*
X31893628Y9086780D01*
X32369819Y8848685D02*
X31369819Y8848685D01*
X31369819Y8848685D02*
X31369819Y9229637D01*
X31369819Y9229637D02*
X31417438Y9324875D01*
X31417438Y9324875D02*
X31465057Y9372494D01*
X31465057Y9372494D02*
X31560295Y9420113D01*
X31560295Y9420113D02*
X31703152Y9420113D01*
X31703152Y9420113D02*
X31798390Y9372494D01*
X31798390Y9372494D02*
X31846009Y9324875D01*
X31846009Y9324875D02*
X31893628Y9229637D01*
X31893628Y9229637D02*
X31893628Y8848685D01*
X32369819Y9848685D02*
X31369819Y9848685D01*
X31417438Y10848684D02*
X31369819Y10753446D01*
X31369819Y10753446D02*
X31369819Y10610589D01*
X31369819Y10610589D02*
X31417438Y10467732D01*
X31417438Y10467732D02*
X31512676Y10372494D01*
X31512676Y10372494D02*
X31607914Y10324875D01*
X31607914Y10324875D02*
X31798390Y10277256D01*
X31798390Y10277256D02*
X31941247Y10277256D01*
X31941247Y10277256D02*
X32131723Y10324875D01*
X32131723Y10324875D02*
X32226961Y10372494D01*
X32226961Y10372494D02*
X32322200Y10467732D01*
X32322200Y10467732D02*
X32369819Y10610589D01*
X32369819Y10610589D02*
X32369819Y10705827D01*
X32369819Y10705827D02*
X32322200Y10848684D01*
X32322200Y10848684D02*
X32274580Y10896303D01*
X32274580Y10896303D02*
X31941247Y10896303D01*
X31941247Y10896303D02*
X31941247Y10705827D01*
X29869819Y8658208D02*
X29393628Y8324875D01*
X29869819Y8086780D02*
X28869819Y8086780D01*
X28869819Y8086780D02*
X28869819Y8467732D01*
X28869819Y8467732D02*
X28917438Y8562970D01*
X28917438Y8562970D02*
X28965057Y8610589D01*
X28965057Y8610589D02*
X29060295Y8658208D01*
X29060295Y8658208D02*
X29203152Y8658208D01*
X29203152Y8658208D02*
X29298390Y8610589D01*
X29298390Y8610589D02*
X29346009Y8562970D01*
X29346009Y8562970D02*
X29393628Y8467732D01*
X29393628Y8467732D02*
X29393628Y8086780D01*
X29822200Y9039161D02*
X29869819Y9182018D01*
X29869819Y9182018D02*
X29869819Y9420113D01*
X29869819Y9420113D02*
X29822200Y9515351D01*
X29822200Y9515351D02*
X29774580Y9562970D01*
X29774580Y9562970D02*
X29679342Y9610589D01*
X29679342Y9610589D02*
X29584104Y9610589D01*
X29584104Y9610589D02*
X29488866Y9562970D01*
X29488866Y9562970D02*
X29441247Y9515351D01*
X29441247Y9515351D02*
X29393628Y9420113D01*
X29393628Y9420113D02*
X29346009Y9229637D01*
X29346009Y9229637D02*
X29298390Y9134399D01*
X29298390Y9134399D02*
X29250771Y9086780D01*
X29250771Y9086780D02*
X29155533Y9039161D01*
X29155533Y9039161D02*
X29060295Y9039161D01*
X29060295Y9039161D02*
X28965057Y9086780D01*
X28965057Y9086780D02*
X28917438Y9134399D01*
X28917438Y9134399D02*
X28869819Y9229637D01*
X28869819Y9229637D02*
X28869819Y9467732D01*
X28869819Y9467732D02*
X28917438Y9610589D01*
X28869819Y9896304D02*
X28869819Y10467732D01*
X29869819Y10182018D02*
X28869819Y10182018D01*
X26988866Y7836780D02*
X26988866Y8598684D01*
X27369819Y8217732D02*
X26607914Y8217732D01*
X26369819Y8979637D02*
X26369819Y9598684D01*
X26369819Y9598684D02*
X26750771Y9265351D01*
X26750771Y9265351D02*
X26750771Y9408208D01*
X26750771Y9408208D02*
X26798390Y9503446D01*
X26798390Y9503446D02*
X26846009Y9551065D01*
X26846009Y9551065D02*
X26941247Y9598684D01*
X26941247Y9598684D02*
X27179342Y9598684D01*
X27179342Y9598684D02*
X27274580Y9551065D01*
X27274580Y9551065D02*
X27322200Y9503446D01*
X27322200Y9503446D02*
X27369819Y9408208D01*
X27369819Y9408208D02*
X27369819Y9122494D01*
X27369819Y9122494D02*
X27322200Y9027256D01*
X27322200Y9027256D02*
X27274580Y8979637D01*
X26369819Y9884399D02*
X27369819Y10217732D01*
X27369819Y10217732D02*
X26369819Y10551065D01*
X26369819Y10789161D02*
X26369819Y11408208D01*
X26369819Y11408208D02*
X26750771Y11074875D01*
X26750771Y11074875D02*
X26750771Y11217732D01*
X26750771Y11217732D02*
X26798390Y11312970D01*
X26798390Y11312970D02*
X26846009Y11360589D01*
X26846009Y11360589D02*
X26941247Y11408208D01*
X26941247Y11408208D02*
X27179342Y11408208D01*
X27179342Y11408208D02*
X27274580Y11360589D01*
X27274580Y11360589D02*
X27322200Y11312970D01*
X27322200Y11312970D02*
X27369819Y11217732D01*
X27369819Y11217732D02*
X27369819Y10932018D01*
X27369819Y10932018D02*
X27322200Y10836780D01*
X27322200Y10836780D02*
X27274580Y10789161D01*
X23156200Y22045180D02*
X23156200Y21807085D01*
X22918105Y21902323D02*
X23156200Y21807085D01*
X23156200Y21807085D02*
X23394295Y21902323D01*
X23013343Y21616609D02*
X23156200Y21807085D01*
X23156200Y21807085D02*
X23299057Y21616609D01*
X23156200Y22045180D02*
X23156200Y21807085D01*
X22918105Y21902323D02*
X23156200Y21807085D01*
X23156200Y21807085D02*
X23394295Y21902323D01*
X23013343Y21616609D02*
X23156200Y21807085D01*
X23156200Y21807085D02*
X23299057Y21616609D01*
X16995181Y4981105D02*
X16185658Y4981105D01*
X16185658Y4981105D02*
X16090420Y4933486D01*
X16090420Y4933486D02*
X16042801Y4885867D01*
X16042801Y4885867D02*
X15995181Y4790629D01*
X15995181Y4790629D02*
X15995181Y4600153D01*
X15995181Y4600153D02*
X16042801Y4504915D01*
X16042801Y4504915D02*
X16090420Y4457296D01*
X16090420Y4457296D02*
X16185658Y4409677D01*
X16185658Y4409677D02*
X16995181Y4409677D01*
X16899943Y3981105D02*
X16947562Y3933486D01*
X16947562Y3933486D02*
X16995181Y3838248D01*
X16995181Y3838248D02*
X16995181Y3600153D01*
X16995181Y3600153D02*
X16947562Y3504915D01*
X16947562Y3504915D02*
X16899943Y3457296D01*
X16899943Y3457296D02*
X16804705Y3409677D01*
X16804705Y3409677D02*
X16709467Y3409677D01*
X16709467Y3409677D02*
X16566610Y3457296D01*
X16566610Y3457296D02*
X15995181Y4028724D01*
X15995181Y4028724D02*
X15995181Y3409677D01*
X18556620Y5692401D02*
X18794715Y5692401D01*
X18699477Y5454306D02*
X18794715Y5692401D01*
X18794715Y5692401D02*
X18699477Y5930496D01*
X18985191Y5549544D02*
X18794715Y5692401D01*
X18794715Y5692401D02*
X18985191Y5835258D01*
X19646981Y5692400D02*
X19408886Y5692400D01*
X19504124Y5930495D02*
X19408886Y5692400D01*
X19408886Y5692400D02*
X19504124Y5454305D01*
X19218410Y5835257D02*
X19408886Y5692400D01*
X19408886Y5692400D02*
X19218410Y5549543D01*
D11*
%TO.C,D3*%
X32735000Y1302500D02*
X32735000Y3587500D01*
X31265000Y1302500D02*
X32735000Y1302500D01*
X31265000Y3587500D02*
X31265000Y1302500D01*
%TO.C,C15*%
X26010000Y13584420D02*
X26010000Y13865580D01*
X24990000Y13584420D02*
X24990000Y13865580D01*
%TO.C,C30*%
X39584420Y27040000D02*
X39865580Y27040000D01*
X39584420Y28060000D02*
X39865580Y28060000D01*
%TO.C,TP8*%
X21700000Y8000000D02*
G75*
G02*
X20300000Y8000000I-700000J0D01*
G01*
X20300000Y8000000D02*
G75*
G02*
X21700000Y8000000I700000J0D01*
G01*
%TO.C,C29*%
X13510000Y4359420D02*
X13510000Y4640580D01*
X12490000Y4359420D02*
X12490000Y4640580D01*
%TO.C,J6*%
X72830000Y22670000D02*
X71500000Y22670000D01*
X72830000Y24000000D02*
X72830000Y22670000D01*
X72830000Y25270000D02*
X72830000Y30410000D01*
X72830000Y25270000D02*
X70170000Y25270000D01*
X72830000Y30410000D02*
X70170000Y30410000D01*
X70170000Y25270000D02*
X70170000Y30410000D01*
D12*
%TO.C,U1*%
G36*
X30166600Y19309499D02*
G01*
X29912600Y19309499D01*
X29912600Y19690500D01*
X30166600Y19690500D01*
X30166600Y19309499D01*
G37*
G36*
X26241599Y22861499D02*
G01*
X25860599Y22861499D01*
X25860599Y23115499D01*
X26241599Y23115499D01*
X26241599Y22861499D01*
G37*
G36*
X25741600Y16384499D02*
G01*
X25360600Y16384499D01*
X25360600Y16638499D01*
X25741600Y16638499D01*
X25741600Y16384499D01*
G37*
D13*
X29480800Y17070299D02*
X29480800Y17540260D01*
X29480800Y21959738D02*
X29480800Y22429699D01*
X29480800Y22429699D02*
X29010839Y22429699D01*
X29010839Y17070299D02*
X29480800Y17070299D01*
X24591361Y22429699D02*
X24121400Y22429699D01*
X24121400Y17070299D02*
X24591361Y17070299D01*
X24121400Y17540260D02*
X24121400Y17070299D01*
X24121400Y22429699D02*
X24121400Y21959738D01*
D11*
%TO.C,TP9*%
X35200000Y29000000D02*
G75*
G02*
X33800000Y29000000I-700000J0D01*
G01*
X33800000Y29000000D02*
G75*
G02*
X35200000Y29000000I700000J0D01*
G01*
%TO.C,TP4*%
X21700000Y11000000D02*
G75*
G02*
X20300000Y11000000I-700000J0D01*
G01*
X20300000Y11000000D02*
G75*
G02*
X21700000Y11000000I700000J0D01*
G01*
%TO.C,R12*%
X26522500Y30912258D02*
X26522500Y30437742D01*
X25477500Y30912258D02*
X25477500Y30437742D01*
%TO.C,C28*%
X39238748Y35765000D02*
X39761252Y35765000D01*
X39238748Y37235000D02*
X39761252Y37235000D01*
%TO.C,C27*%
X39584420Y33540000D02*
X39865580Y33540000D01*
X39584420Y34560000D02*
X39865580Y34560000D01*
%TO.C,R15*%
X31022500Y34762258D02*
X31022500Y34287742D01*
X29977500Y34762258D02*
X29977500Y34287742D01*
%TO.C,TP7*%
X11200000Y20500000D02*
G75*
G02*
X9800000Y20500000I-700000J0D01*
G01*
X9800000Y20500000D02*
G75*
G02*
X11200000Y20500000I700000J0D01*
G01*
%TO.C,J4*%
X42330000Y4270000D02*
X42330000Y1670000D01*
X39670000Y1670000D02*
X42330000Y1670000D01*
X39670000Y4270000D02*
X42330000Y4270000D01*
X39670000Y4270000D02*
X39670000Y1670000D01*
X39670000Y5540000D02*
X39670000Y6870000D01*
X39670000Y6870000D02*
X41000000Y6870000D01*
%TO.C,RV1*%
X66600000Y26300000D02*
X66600000Y29200000D01*
X66600000Y29200000D02*
X66000000Y29200000D01*
X64800000Y25200000D02*
X65200000Y25200000D01*
X63400000Y26300000D02*
X63400000Y29200000D01*
X63400000Y29200000D02*
X64000000Y29200000D01*
X63200000Y24700000D02*
X63900000Y24700000D01*
X63200000Y25400000D02*
X63200000Y24700000D01*
%TO.C,J2*%
X51355000Y6990000D02*
X51355000Y4090000D01*
X46550000Y2185000D02*
X49450000Y2185000D01*
X46550000Y8895000D02*
X49450000Y8895000D01*
X44645000Y6990000D02*
X44645000Y4090000D01*
%TO.C,R6*%
X33912258Y16977500D02*
X33437742Y16977500D01*
X33912258Y18022500D02*
X33437742Y18022500D01*
%TO.C,C1*%
X33915580Y20490000D02*
X33634420Y20490000D01*
X33915580Y21510000D02*
X33634420Y21510000D01*
%TO.C,C9*%
X33915580Y22490000D02*
X33634420Y22490000D01*
X33915580Y23510000D02*
X33634420Y23510000D01*
%TO.C,C32*%
X48735000Y31238748D02*
X48735000Y31761252D01*
X47265000Y31238748D02*
X47265000Y31761252D01*
%TO.C,C26*%
X26510000Y34715580D02*
X26510000Y34434420D01*
X25490000Y34715580D02*
X25490000Y34434420D01*
%TO.C,J1*%
X7620000Y28690000D02*
X7620000Y3170000D01*
X5020000Y26090000D02*
X5020000Y28690000D01*
X5020000Y28690000D02*
X7620000Y28690000D01*
X2420000Y3170000D02*
X7620000Y3170000D01*
X2420000Y26090000D02*
X5020000Y26090000D01*
X2420000Y26090000D02*
X2420000Y3170000D01*
X2420000Y27360000D02*
X2420000Y28690000D01*
X2420000Y28690000D02*
X3750000Y28690000D01*
%TO.C,R20*%
X73130000Y14285436D02*
X73130000Y18639564D01*
X69710000Y14285436D02*
X69710000Y18639564D01*
%TO.C,C6*%
X19209420Y23990000D02*
X19490580Y23990000D01*
X19209420Y25010000D02*
X19490580Y25010000D01*
%TO.C,TP11*%
X44200000Y35250000D02*
G75*
G02*
X42800000Y35250000I-700000J0D01*
G01*
X42800000Y35250000D02*
G75*
G02*
X44200000Y35250000I700000J0D01*
G01*
%TO.C,R2*%
X13022500Y15587742D02*
X13022500Y16062258D01*
X11977500Y15587742D02*
X11977500Y16062258D01*
%TO.C,R17*%
X43912258Y29875000D02*
X43437742Y29875000D01*
X43912258Y30920000D02*
X43437742Y30920000D01*
%TO.C,C13*%
X19084420Y21490000D02*
X19365580Y21490000D01*
X19084420Y22510000D02*
X19365580Y22510000D01*
%TO.C,R18*%
X43437742Y31875000D02*
X43912258Y31875000D01*
X43437742Y32920000D02*
X43912258Y32920000D01*
%TO.C,TP10*%
X22200000Y32000000D02*
G75*
G02*
X20800000Y32000000I-700000J0D01*
G01*
X20800000Y32000000D02*
G75*
G02*
X22200000Y32000000I700000J0D01*
G01*
%TO.C,C2*%
X33915580Y18990000D02*
X33634420Y18990000D01*
X33915580Y20010000D02*
X33634420Y20010000D01*
%TO.C,C7*%
X19209420Y25990000D02*
X19490580Y25990000D01*
X19209420Y27010000D02*
X19490580Y27010000D01*
%TO.C,X1*%
X41860000Y19275000D02*
X41860000Y21775000D01*
X38740000Y17965000D02*
X40600000Y17965000D01*
X38740000Y17970000D02*
X38740000Y21775000D01*
X38740000Y21775000D02*
X41860000Y21775000D01*
%TO.C,TP3*%
X12700000Y8000000D02*
G75*
G02*
X11300000Y8000000I-700000J0D01*
G01*
X11300000Y8000000D02*
G75*
G02*
X12700000Y8000000I700000J0D01*
G01*
%TO.C,J3*%
X65855000Y6990000D02*
X65855000Y4090000D01*
X61050000Y2185000D02*
X63950000Y2185000D01*
X61050000Y8895000D02*
X63950000Y8895000D01*
X59145000Y6990000D02*
X59145000Y4090000D01*
D14*
%TO.C,U4*%
X52880000Y27555000D02*
G75*
G02*
X52680000Y27555000I-100000J0D01*
G01*
X52680000Y27555000D02*
G75*
G02*
X52880000Y27555000I100000J0D01*
G01*
D15*
X54900000Y23125000D02*
X58800000Y23125000D01*
X54900000Y28175000D02*
X58800000Y28175000D01*
D11*
%TO.C,R5*%
X29522500Y25437742D02*
X29522500Y25912258D01*
X28477500Y25437742D02*
X28477500Y25912258D01*
%TO.C,C23*%
X54715580Y21140000D02*
X54434420Y21140000D01*
X54715580Y22160000D02*
X54434420Y22160000D01*
%TO.C,TP12*%
X62700000Y35750000D02*
G75*
G02*
X61300000Y35750000I-700000J0D01*
G01*
X61300000Y35750000D02*
G75*
G02*
X62700000Y35750000I700000J0D01*
G01*
%TO.C,U3*%
X37745000Y32052500D02*
X37465000Y32052500D01*
X37745000Y32332500D01*
X37745000Y32052500D01*
G36*
X37745000Y32052500D02*
G01*
X37465000Y32052500D01*
X37745000Y32332500D01*
X37745000Y32052500D01*
G37*
X37985000Y29352500D02*
X40985000Y29352500D01*
X37985000Y32572500D02*
X40985000Y32572500D01*
%TO.C,R11*%
X29022500Y30437742D02*
X29022500Y30912258D01*
X27977500Y30437742D02*
X27977500Y30912258D01*
%TO.C,C31*%
X39288748Y24765000D02*
X39811252Y24765000D01*
X39288748Y26235000D02*
X39811252Y26235000D01*
%TO.C,C17*%
X33915580Y26490000D02*
X33634420Y26490000D01*
X33915580Y27510000D02*
X33634420Y27510000D01*
%TO.C,C19*%
X20735000Y4188748D02*
X20735000Y4711252D01*
X19265000Y4188748D02*
X19265000Y4711252D01*
%TO.C,R14*%
X24522500Y30912258D02*
X24522500Y30437742D01*
X23477500Y30912258D02*
X23477500Y30437742D01*
%TO.C,D2*%
X30235000Y1987500D02*
X30235000Y4272500D01*
X30235000Y4272500D02*
X28765000Y4272500D01*
X28765000Y4272500D02*
X28765000Y1987500D01*
%TO.C,R13*%
X31022500Y30912258D02*
X31022500Y30437742D01*
X29977500Y30912258D02*
X29977500Y30437742D01*
%TO.C,TP6*%
X13200000Y22500000D02*
G75*
G02*
X11800000Y22500000I-700000J0D01*
G01*
X11800000Y22500000D02*
G75*
G02*
X13200000Y22500000I700000J0D01*
G01*
%TO.C,C24*%
X54715580Y19140000D02*
X54434420Y19140000D01*
X54715580Y20160000D02*
X54434420Y20160000D01*
%TO.C,TP2*%
X7200000Y31500000D02*
G75*
G02*
X5800000Y31500000I-700000J0D01*
G01*
X5800000Y31500000D02*
G75*
G02*
X7200000Y31500000I700000J0D01*
G01*
%TO.C,R21*%
X38022500Y6602258D02*
X38022500Y6127742D01*
X36977500Y6602258D02*
X36977500Y6127742D01*
%TO.C,R8*%
X27522500Y6562258D02*
X27522500Y6087742D01*
X26477500Y6562258D02*
X26477500Y6087742D01*
%TO.C,TP1*%
X38200000Y15500000D02*
G75*
G02*
X36800000Y15500000I-700000J0D01*
G01*
X36800000Y15500000D02*
G75*
G02*
X38200000Y15500000I700000J0D01*
G01*
%TO.C,C12*%
X19084420Y19490000D02*
X19365580Y19490000D01*
X19084420Y20510000D02*
X19365580Y20510000D01*
%TO.C,JP3*%
X38500000Y1365000D02*
X36500000Y1365000D01*
X38500000Y4165000D02*
X38500000Y1365000D01*
X36500000Y1365000D02*
X36500000Y4165000D01*
X36500000Y4165000D02*
X38500000Y4165000D01*
%TO.C,R19*%
X65412258Y31477500D02*
X64937742Y31477500D01*
X65412258Y32522500D02*
X64937742Y32522500D01*
%TO.C,C22*%
X58934420Y31140000D02*
X59215580Y31140000D01*
X58934420Y32160000D02*
X59215580Y32160000D01*
%TO.C,R10*%
X32522500Y6562258D02*
X32522500Y6087742D01*
X31477500Y6562258D02*
X31477500Y6087742D01*
%TO.C,R1*%
X11022500Y15587742D02*
X11022500Y16062258D01*
X9977500Y15587742D02*
X9977500Y16062258D01*
%TO.C,R7*%
X31522500Y25437742D02*
X31522500Y25912258D01*
X30477500Y25437742D02*
X30477500Y25912258D01*
%TO.C,C8*%
X33865580Y14990000D02*
X33584420Y14990000D01*
X33865580Y16010000D02*
X33584420Y16010000D01*
%TO.C,R3*%
X15022500Y15587742D02*
X15022500Y16062258D01*
X13977500Y15587742D02*
X13977500Y16062258D01*
%TO.C,C18*%
X26010000Y25915580D02*
X26010000Y25634420D01*
X24990000Y25915580D02*
X24990000Y25634420D01*
%TO.C,C16*%
X19134420Y27990000D02*
X19415580Y27990000D01*
X19134420Y29010000D02*
X19415580Y29010000D01*
%TO.C,C14*%
X28010000Y13584420D02*
X28010000Y13865580D01*
X26990000Y13584420D02*
X26990000Y13865580D01*
%TO.C,J5*%
X56830000Y4270000D02*
X56830000Y1670000D01*
X54170000Y1670000D02*
X56830000Y1670000D01*
X54170000Y4270000D02*
X56830000Y4270000D01*
X54170000Y4270000D02*
X54170000Y1670000D01*
X54170000Y5540000D02*
X54170000Y6870000D01*
X54170000Y6870000D02*
X55500000Y6870000D01*
%TO.C,C21*%
X58934420Y29140000D02*
X59215580Y29140000D01*
X58934420Y30160000D02*
X59215580Y30160000D01*
%TO.C,C10*%
X33915580Y24490000D02*
X33634420Y24490000D01*
X33915580Y25510000D02*
X33634420Y25510000D01*
%TO.C,C25*%
X29010000Y34715580D02*
X29010000Y34434420D01*
X27990000Y34715580D02*
X27990000Y34434420D01*
%TO.C,C20*%
X16188748Y7265000D02*
X16711252Y7265000D01*
X16188748Y8735000D02*
X16711252Y8735000D01*
%TO.C,R4*%
X37522500Y20562258D02*
X37522500Y20087742D01*
X36477500Y20562258D02*
X36477500Y20087742D01*
%TO.C,C4*%
X19134420Y15490000D02*
X19415580Y15490000D01*
X19134420Y16510000D02*
X19415580Y16510000D01*
%TO.C,R23*%
X67667500Y14285436D02*
X67667500Y18639564D01*
X64247500Y14285436D02*
X64247500Y18639564D01*
%TO.C,C3*%
X43560000Y20365580D02*
X43560000Y20084420D01*
X42540000Y20365580D02*
X42540000Y20084420D01*
%TO.C,R9*%
X30022500Y6087742D02*
X30022500Y6562258D01*
X28977500Y6087742D02*
X28977500Y6562258D01*
%TO.C,C5*%
X19134420Y17490000D02*
X19415580Y17490000D01*
X19134420Y18510000D02*
X19415580Y18510000D01*
%TO.C,R22*%
X65412258Y22977500D02*
X64937742Y22977500D01*
X65412258Y24022500D02*
X64937742Y24022500D01*
%TO.C,C11*%
X24010000Y25915580D02*
X24010000Y25634420D01*
X22990000Y25915580D02*
X22990000Y25634420D01*
%TO.C,TP5*%
X10700000Y10000000D02*
G75*
G02*
X9300000Y10000000I-700000J0D01*
G01*
X9300000Y10000000D02*
G75*
G02*
X10700000Y10000000I700000J0D01*
G01*
%TO.C,R16*%
X24522500Y34762258D02*
X24522500Y34287742D01*
X23477500Y34762258D02*
X23477500Y34287742D01*
%TO.C,D1*%
X27735000Y1302500D02*
X27735000Y3587500D01*
X26265000Y1302500D02*
X27735000Y1302500D01*
X26265000Y3587500D02*
X26265000Y1302500D01*
D13*
%TO.C,U2*%
X18126401Y3190500D02*
X18126401Y5247900D01*
X14773601Y5247900D02*
X14773601Y3190500D01*
%TD*%
M02*
