M48
; DRILL file {KiCad 8.0.6} date 2024-12-30T16:19:11+0100
; FORMAT={-:-/ absolute / inch / decimal}
; #@! TF.CreationDate,2024-12-30T16:19:11+01:00
; #@! TF.GenerationSoftware,Kicad,Pcbnew,8.0.6
; #@! TF.FileFunction,Plated,1,2,PTH
FMAT,2
INCH
; #@! TA.AperFunction,Plated,PTH,ComponentDrill
T1C0.0079
; #@! TA.AperFunction,Plated,PTH,ViaDrill
T2C0.0118
; #@! TA.AperFunction,Plated,PTH,ViaDrill
T3C0.0130
; #@! TA.AperFunction,Plated,PTH,ViaDrill
T4C0.0177
; #@! TA.AperFunction,Plated,PTH,ComponentDrill
T5C0.0394
; #@! TA.AperFunction,Plated,PTH,ComponentDrill
T6C0.0591
; #@! TA.AperFunction,Plated,PTH,ComponentDrill
T7C0.0669
%
G90
G05
T1
X2.2126Y1.0866
X2.2126Y1.0354
X2.2126Y0.9843
X2.2126Y0.9331
X2.2638Y1.0866
X2.2638Y1.0354
X2.2638Y0.9843
X2.2638Y0.9331
T2
X0.4528Y0.8268
X0.4528Y0.0787
X0.4635Y0.6269
X0.5512Y0.7677
X0.5512Y0.4921
X0.5709Y0.9055
X0.6102Y0.7283
X0.6299Y0.689
X0.6496Y1.0236
X0.6693Y0.9893
X0.689Y1.1614
X0.8268Y1.0827
X0.8465Y0.7874
X0.8661Y0.9646
X0.8661Y0.8268
X0.8661Y0.689
X0.876Y0.561
X0.9449Y0.6102
X0.9449Y0.5512
X0.9449Y0.2953
X0.9547Y0.935
X1.0039Y1.1024
X1.0039Y0.3346
X1.0236Y1.2795
X1.0827Y1.2992
X1.1417Y1.1024
X1.1614Y0.9252
X1.1811Y0.3346
X1.2205Y0.9252
X1.2402Y1.2795
X1.2402Y0.7283
X1.2598Y1.3386
X1.3976Y0.5709
X1.4173Y1.1024
X1.437Y1.0236
X1.4567Y1.437
X1.4961Y0.7087
X1.5545Y1.1417
X1.752Y0.7677
X1.8012Y1.378
X1.811Y1.1614
X1.9685Y1.1909
X1.9882Y0.9843
X2.0472Y1.2402
X2.1654Y1.1811
X2.1654Y1.1417
X2.2047Y1.1811
X2.2047Y1.1417
X2.2441Y1.1811
X2.2441Y1.1417
X2.2441Y0.8661
X2.2441Y0.8268
X2.2835Y0.8661
X2.2835Y0.8268
X2.3228Y0.8661
X2.3228Y0.8268
T3
X0.7087Y0.5709
T4
X0.6496Y0.374
X2.0276Y0.8465
X2.4213Y1.2402
T5
X0.1476Y1.0772
X0.1476Y0.9772
X0.1476Y0.8772
X0.1476Y0.7772
X0.1476Y0.6772
X0.1476Y0.5772
X0.1476Y0.4772
X0.1476Y0.3772
X0.1476Y0.2772
X0.1476Y0.1772
X0.2476Y1.0772
X0.2476Y0.9772
X0.2476Y0.8772
X0.2476Y0.7772
X0.2476Y0.6772
X0.2476Y0.5772
X0.2476Y0.4772
X0.2476Y0.3772
X0.2476Y0.2772
X0.2476Y0.1772
X1.6142Y0.2181
X1.6142Y0.1181
X2.185Y0.2181
X2.185Y0.1181
X2.815Y1.1449
X2.815Y1.0449
X2.815Y0.9449
T6
X1.8898Y0.2181
X2.4606Y0.2181
T7
X1.7898Y0.3181
X1.7898Y0.1181
X1.9898Y0.3181
X1.9898Y0.1181
X2.3606Y0.3181
X2.3606Y0.1181
X2.5606Y0.3181
X2.5606Y0.1181
M30
