M48
; DRILL file {KiCad 8.0.6} date 2025-02-28T22:10:31+0100
; FORMAT={-:-/ absolute / inch / decimal}
; #@! TF.CreationDate,2025-02-28T22:10:31+01:00
; #@! TF.GenerationSoftware,Kicad,Pcbnew,8.0.6
; #@! TF.FileFunction,Plated,1,2,PTH
FMAT,2
INCH
; #@! TA.AperFunction,Plated,PTH,ViaDrill
T1C0.0130
; #@! TA.AperFunction,Plated,PTH,ViaDrill
T2C0.0177
; #@! TA.AperFunction,Plated,PTH,ComponentDrill
T3C0.0236
; #@! TA.AperFunction,Plated,PTH,ComponentDrill
T4C0.0394
; #@! TA.AperFunction,Plated,PTH,ComponentDrill
T5C0.0591
; #@! TA.AperFunction,Plated,PTH,ComponentDrill
T6C0.0669
%
G90
G05
T1
X0.2205Y0.0945
X0.3248Y0.6299
X0.3248Y0.4232
X0.3248Y0.0591
X0.3543Y0.4843
X0.3563Y0.5531
X0.5413Y0.5413
X0.5709Y0.5315
X0.5807Y0.4528
X0.6299Y0.2362
X0.6594Y0.2461
X0.689Y0.502
X0.689Y0.2559
X0.7579Y0.3642
X0.7677Y0.5807
X0.7776Y0.5118
X1.1811Y0.745
X1.2205Y0.7677
X1.2697Y0.7087
X1.3091Y0.5118
X1.3189Y0.5709
X1.4075Y0.561
X1.4272Y0.7087
X1.4272Y0.6693
X1.437Y0.5906
X1.565Y0.3248
X1.5748Y0.745
X1.6314Y0.7357
X1.6634Y0.6004
X1.8602Y0.2461
X1.9488Y0.2461
T2
X0.3937Y0.1378
X0.5807Y0.2657
X0.6004Y0.8071
X0.9449Y0.3839
X0.9646Y0.8071
X1.3091Y0.8071
T4
X0.7776Y0.8858
X0.8776Y0.8858
X0.9055Y0.1181
X1.0055Y0.1181
X1.1024Y0.8858
X1.1055Y0.1181
X1.2024Y0.8858
X1.2055Y0.1181
X1.3583Y0.1181
X1.4272Y0.8858
X1.4583Y0.1181
X1.5272Y0.8858
X1.5583Y0.1181
X1.6583Y0.1181
X1.7583Y0.1181
X1.7701Y0.5413
X1.7701Y0.3937
X1.8701Y0.5413
X1.8701Y0.3937
X2.126Y0.7087
X2.126Y0.6087
X2.126Y0.5087
X2.126Y0.4087
X2.126Y0.3087
X2.126Y0.2087
X2.126Y0.1087
T5
X1.8701Y0.7874
T6
X1.7701Y0.8874
X1.7701Y0.6874
X1.9701Y0.8874
X1.9701Y0.6874
T3
G00X0.0709Y0.6862
M15
G01X0.0472Y0.6862
M16
G05
G00X0.0709Y0.3461
M15
G01X0.0472Y0.3461
M16
G05
G00X0.2453Y0.6862
M15
G01X0.202Y0.6862
M16
G05
G00X0.2453Y0.3461
M15
G01X0.202Y0.3461
M16
G05
M30
