%TF.GenerationSoftware,KiCad,Pcbnew,8.0.6*%
%TF.CreationDate,2025-02-28T22:10:36+01:00*%
%TF.ProjectId,stm8s-target-v1,73746d38-732d-4746-9172-6765742d7631,rev?*%
%TF.SameCoordinates,PX3d09000PY6590fa0*%
%TF.FileFunction,Copper,L2,Bot*%
%TF.FilePolarity,Positive*%
%FSLAX46Y46*%
G04 Gerber Fmt 4.6, Leading zero omitted, Abs format (unit mm)*
G04 Created by KiCad (PCBNEW 8.0.6) date 2025-02-28 22:10:36*
%MOMM*%
%LPD*%
G01*
G04 APERTURE LIST*
%TA.AperFunction,ComponentPad*%
%ADD10R,1.700000X1.700000*%
%TD*%
%TA.AperFunction,ComponentPad*%
%ADD11O,1.700000X1.700000*%
%TD*%
%TA.AperFunction,ComponentPad*%
%ADD12O,2.100000X1.000000*%
%TD*%
%TA.AperFunction,ComponentPad*%
%ADD13O,1.600000X1.000000*%
%TD*%
%TA.AperFunction,ComponentPad*%
%ADD14C,2.050000*%
%TD*%
%TA.AperFunction,ComponentPad*%
%ADD15C,2.250000*%
%TD*%
%TA.AperFunction,ViaPad*%
%ADD16C,0.500000*%
%TD*%
%TA.AperFunction,ViaPad*%
%ADD17C,0.700000*%
%TD*%
%TA.AperFunction,Conductor*%
%ADD18C,0.254000*%
%TD*%
%TA.AperFunction,Conductor*%
%ADD19C,0.818000*%
%TD*%
%TA.AperFunction,Conductor*%
%ADD20C,0.508000*%
%TD*%
G04 APERTURE END LIST*
D10*
%TO.P,J5,1,Pin_1*%
%TO.N,+3V3*%
X23000000Y3000000D03*
D11*
%TO.P,J5,2,Pin_2*%
%TO.N,/SWIM*%
X25540000Y3000000D03*
%TO.P,J5,3,Pin_3*%
%TO.N,GND*%
X28080000Y3000000D03*
%TO.P,J5,4,Pin_4*%
%TO.N,/_RESET*%
X30620000Y3000000D03*
%TD*%
%TO.P,J3,2,Pin_2*%
%TO.N,/RX*%
X30540000Y22500000D03*
D10*
%TO.P,J3,1,Pin_1*%
%TO.N,/TX*%
X28000000Y22500000D03*
%TD*%
%TO.P,J9,1,Pin_1*%
%TO.N,GND*%
X36250000Y22500000D03*
D11*
%TO.P,J9,2,Pin_2*%
%TO.N,Net-(J2-Pin_1)*%
X38790000Y22500000D03*
%TD*%
D10*
%TO.P,J1,1,Pin_1*%
%TO.N,GND*%
X47500000Y10000000D03*
D11*
%TO.P,J1,2,Pin_2*%
%TO.N,/_ISP*%
X44960000Y10000000D03*
%TD*%
D12*
%TO.P,J7,S1,SHIELD*%
%TO.N,GND*%
X5680000Y17430000D03*
D13*
X1500000Y17430000D03*
D12*
X5680000Y8790000D03*
D13*
X1500000Y8790000D03*
%TD*%
D10*
%TO.P,J4,1,Pin_1*%
%TO.N,+3V3*%
X54000000Y18000000D03*
D11*
%TO.P,J4,2,Pin_2*%
%TO.N,GND*%
X54000000Y15460000D03*
%TO.P,J4,3,Pin_3*%
%TO.N,/TX*%
X54000000Y12920000D03*
%TO.P,J4,4,Pin_4*%
%TO.N,/RX*%
X54000000Y10380000D03*
%TO.P,J4,5,Pin_5*%
%TO.N,/_RTS*%
X54000000Y7840000D03*
%TO.P,J4,6,Pin_6*%
%TO.N,/_DTR*%
X54000000Y5300000D03*
%TO.P,J4,7,Pin_7*%
%TO.N,/_CTS*%
X54000000Y2760000D03*
%TD*%
D10*
%TO.P,J2,1,Pin_1*%
%TO.N,Net-(J2-Pin_1)*%
X47500000Y13750000D03*
D11*
%TO.P,J2,2,Pin_2*%
%TO.N,Net-(J2-Pin_2)*%
X44960000Y13750000D03*
%TD*%
D14*
%TO.P,J8,1,In*%
%TO.N,Net-(J2-Pin_1)*%
X47500000Y20000000D03*
D15*
%TO.P,J8,2,Ext*%
%TO.N,GND*%
X44960000Y22540000D03*
X44960000Y17460000D03*
X50040000Y22540000D03*
X50040000Y17460000D03*
%TD*%
D10*
%TO.P,J6,1,Pin_1*%
%TO.N,/GPIO1*%
X34500000Y3000000D03*
D11*
%TO.P,J6,2,Pin_2*%
%TO.N,/GPIO2*%
X37040000Y3000000D03*
%TO.P,J6,3,Pin_3*%
%TO.N,/GPIO3*%
X39580000Y3000000D03*
%TO.P,J6,4,Pin_4*%
%TO.N,/GPIO4*%
X42120000Y3000000D03*
%TO.P,J6,5,Pin_5*%
%TO.N,GND*%
X44660000Y3000000D03*
%TD*%
D10*
%TO.P,J10,1,Pin_1*%
%TO.N,GND*%
X19750000Y22500000D03*
D11*
%TO.P,J10,2,Pin_2*%
%TO.N,Net-(D8-K)*%
X22290000Y22500000D03*
%TD*%
D16*
%TO.N,GND*%
X19250000Y9250000D03*
X39750000Y8250000D03*
X33500000Y14500000D03*
%TO.N,/RX*%
X31000000Y19500000D03*
%TO.N,/TX*%
X30000000Y18923000D03*
D17*
%TO.N,+3V3*%
X33250000Y20500000D03*
%TO.N,GND*%
X15250000Y20500000D03*
D16*
%TO.N,/_DTR*%
X19500000Y14750000D03*
D17*
%TO.N,GND*%
X14750000Y6750000D03*
D16*
X36500000Y15000000D03*
D17*
X24000000Y9750000D03*
D16*
%TO.N,+5V*%
X8250000Y16000000D03*
D17*
X10000000Y3500000D03*
D16*
X8250000Y10750000D03*
D17*
%TO.N,+3V3*%
X24500000Y20500000D03*
D16*
%TO.N,/TX*%
X14500000Y13500000D03*
X8250000Y1500000D03*
X40000000Y18923000D03*
%TO.N,/RX*%
X13750000Y13750000D03*
X5600000Y2400000D03*
X41437500Y18687500D03*
%TO.N,/_DTR*%
X17500000Y6500000D03*
X17500000Y12750000D03*
%TO.N,/_RTS*%
X14750000Y11500000D03*
X19750000Y13000000D03*
X16750000Y6250000D03*
%TO.N,/_CTS*%
X16000000Y6000000D03*
%TO.N,/_ISP*%
X33250000Y13000000D03*
X35750000Y14250000D03*
%TO.N,/_RESET*%
X36250000Y18000000D03*
X32250000Y18000000D03*
%TO.N,/Dp*%
X9050000Y14050000D03*
X9000000Y12300000D03*
%TO.N,Net-(J2-Pin_1)*%
X36250000Y17000000D03*
X42250000Y15250000D03*
%TO.N,/GPIO1*%
X47250000Y6250000D03*
%TO.N,/GPIO2*%
X49500000Y6250000D03*
%TD*%
D18*
%TO.N,GND*%
X33500000Y14500000D02*
X34000000Y15000000D01*
X34000000Y15000000D02*
X36500000Y15000000D01*
%TO.N,/RX*%
X31000000Y19500000D02*
X40625000Y19500000D01*
%TO.N,/TX*%
X30000000Y18923000D02*
X34750000Y18923000D01*
D19*
%TO.N,GND*%
X36250000Y23999000D02*
X21249000Y23999000D01*
X43501000Y23999000D02*
X36250000Y23999000D01*
X36250000Y23999000D02*
X36250000Y22500000D01*
X44960000Y22540000D02*
X43501000Y23999000D01*
X21249000Y23999000D02*
X19750000Y22500000D01*
D20*
X15250000Y20500000D02*
X15500000Y20500000D01*
X15500000Y20500000D02*
X17500000Y22500000D01*
X17500000Y22500000D02*
X19750000Y22500000D01*
X1500000Y8790000D02*
X5680000Y8790000D01*
X1500000Y17430000D02*
X1500000Y8790000D01*
X24000000Y7080000D02*
X28080000Y3000000D01*
D19*
X44960000Y17460000D02*
X44960000Y22540000D01*
D20*
X24000000Y7580000D02*
X24000000Y9750000D01*
D19*
X52040000Y15460000D02*
X54000000Y15460000D01*
D20*
X46196000Y11304000D02*
X47500000Y10000000D01*
X24000000Y7580000D02*
X24000000Y7080000D01*
D19*
X50040000Y22540000D02*
X44960000Y22540000D01*
X50040000Y22540000D02*
X50040000Y17460000D01*
X50040000Y17460000D02*
X52040000Y15460000D01*
D20*
X6710000Y8790000D02*
X5680000Y8790000D01*
X14750000Y6750000D02*
X15580000Y7580000D01*
X5680000Y17430000D02*
X1500000Y17430000D01*
X40196000Y11304000D02*
X46196000Y11304000D01*
X36500000Y15000000D02*
X40196000Y11304000D01*
D19*
X50040000Y17460000D02*
X44960000Y17460000D01*
D20*
X15580000Y7580000D02*
X24000000Y7580000D01*
%TO.N,+5V*%
X8250000Y10750000D02*
X8250000Y5250000D01*
X8250000Y16000000D02*
X8250000Y10750000D01*
X8250000Y5250000D02*
X10000000Y3500000D01*
%TO.N,+3V3*%
X24500000Y20500000D02*
X33250000Y20500000D01*
D18*
%TO.N,/TX*%
X14000000Y5100000D02*
X14000000Y13000000D01*
X40000000Y18923000D02*
X40077000Y18923000D01*
X50790919Y14927000D02*
X52797919Y12920000D01*
X14500000Y13500000D02*
X19923000Y18923000D01*
X40077000Y18923000D02*
X44073000Y14927000D01*
X8250000Y1500000D02*
X10400000Y1500000D01*
X34750000Y18923000D02*
X40000000Y18923000D01*
X44073000Y14927000D02*
X50790919Y14927000D01*
X19923000Y18923000D02*
X30000000Y18923000D01*
X10400000Y1500000D02*
X14000000Y5100000D01*
X14000000Y13000000D02*
X14500000Y13500000D01*
X52797919Y12920000D02*
X54000000Y12920000D01*
%TO.N,/RX*%
X40625000Y19500000D02*
X41437500Y18687500D01*
X5600000Y2400000D02*
X5877000Y2677000D01*
X10934948Y2677000D02*
X13500000Y5242052D01*
X41437500Y18687500D02*
X44375000Y15750000D01*
X55250000Y13334530D02*
X55250000Y11630000D01*
X54130000Y10380000D02*
X54000000Y10380000D01*
X13500000Y13500000D02*
X13750000Y13750000D01*
X13500000Y5242052D02*
X13500000Y13500000D01*
X44375000Y15750000D02*
X50709138Y15750000D01*
X5877000Y2677000D02*
X10934948Y2677000D01*
X19500000Y19500000D02*
X31000000Y19500000D01*
X13750000Y13750000D02*
X19500000Y19500000D01*
X52209138Y14250000D02*
X54334530Y14250000D01*
X54334530Y14250000D02*
X55250000Y13334530D01*
X50709138Y15750000D02*
X52209138Y14250000D01*
X55250000Y11630000D02*
X54000000Y10380000D01*
%TO.N,/_DTR*%
X51750001Y1823000D02*
X52250000Y2322999D01*
X52250000Y3550000D02*
X54000000Y5300000D01*
X17500000Y6146000D02*
X17500000Y6500000D01*
X21823000Y1823000D02*
X17500000Y6146000D01*
X22427000Y1823000D02*
X51750001Y1823000D01*
X22427000Y1823000D02*
X21823000Y1823000D01*
X52250000Y2322999D02*
X52250000Y3550000D01*
X17500000Y12750000D02*
X19500000Y14750000D01*
%TO.N,/_RTS*%
X21753947Y1250000D02*
X16753947Y6250000D01*
X52823000Y2253947D02*
X52823000Y3433530D01*
X16753947Y6250000D02*
X16750000Y6250000D01*
X53512470Y4123000D02*
X54623000Y4123000D01*
X18250000Y11500000D02*
X14750000Y11500000D01*
X54623000Y4123000D02*
X55250000Y4750000D01*
X22250000Y1250000D02*
X51819053Y1250000D01*
X51819053Y1250000D02*
X52823000Y2253947D01*
X55250000Y6590000D02*
X54000000Y7840000D01*
X19750000Y13000000D02*
X18250000Y11500000D01*
X55250000Y4750000D02*
X55250000Y6590000D01*
X52823000Y3433530D02*
X53512470Y4123000D01*
X22250000Y1250000D02*
X21753947Y1250000D01*
%TO.N,/_CTS*%
X21933998Y750000D02*
X21433998Y750000D01*
X53750000Y750000D02*
X54000000Y1000000D01*
X54000000Y1000000D02*
X54000000Y2760000D01*
X16183998Y6000000D02*
X16000000Y6000000D01*
X21933998Y750000D02*
X53750000Y750000D01*
X21433998Y750000D02*
X16183998Y6000000D01*
%TO.N,/_ISP*%
X34500000Y13000000D02*
X33250000Y13000000D01*
X35750000Y14250000D02*
X34500000Y13000000D01*
%TO.N,/_RESET*%
X32250000Y18000000D02*
X30620000Y16370000D01*
X36250000Y18000000D02*
X32250000Y18000000D01*
X30620000Y16370000D02*
X30620000Y3000000D01*
%TO.N,/Dp*%
X9050000Y12350000D02*
X9000000Y12300000D01*
X9050000Y14050000D02*
X9050000Y12350000D01*
%TO.N,Net-(J2-Pin_1)*%
X40500000Y17000000D02*
X36250000Y17000000D01*
X42250000Y15250000D02*
X40500000Y17000000D01*
%TO.N,/GPIO1*%
X45750000Y4750000D02*
X47250000Y6250000D01*
X36250000Y4750000D02*
X45750000Y4750000D01*
X34500000Y3000000D02*
X36250000Y4750000D01*
%TO.N,/GPIO2*%
X47427000Y4177000D02*
X49500000Y6250000D01*
X38217000Y4177000D02*
X47427000Y4177000D01*
X37040000Y3000000D02*
X38217000Y4177000D01*
%TD*%
%TA.AperFunction,Conductor*%
%TO.N,GND*%
G36*
X55505394Y24999028D02*
G01*
X55535721Y24996375D01*
X55662755Y24985261D01*
X55684035Y24981509D01*
X55801188Y24950118D01*
X55831369Y24942031D01*
X55851681Y24934638D01*
X55989915Y24870178D01*
X56008633Y24859371D01*
X56133582Y24771881D01*
X56150140Y24757987D01*
X56257986Y24650141D01*
X56271880Y24633583D01*
X56359370Y24508634D01*
X56370177Y24489916D01*
X56434637Y24351682D01*
X56442030Y24331370D01*
X56481507Y24184039D01*
X56485260Y24162754D01*
X56499028Y24005395D01*
X56499500Y23994587D01*
X56499500Y1505414D01*
X56499028Y1494606D01*
X56485260Y1337247D01*
X56481507Y1315962D01*
X56442030Y1168631D01*
X56434637Y1148319D01*
X56370177Y1010085D01*
X56359370Y991367D01*
X56271880Y866418D01*
X56257986Y849860D01*
X56150140Y742014D01*
X56133582Y728120D01*
X56008633Y640630D01*
X55989915Y629823D01*
X55851681Y565363D01*
X55831369Y557970D01*
X55684038Y518493D01*
X55662753Y514740D01*
X55505395Y500972D01*
X55494587Y500500D01*
X54652921Y500500D01*
X54585882Y520185D01*
X54540127Y572989D01*
X54530183Y642147D01*
X54549818Y693390D01*
X54556080Y702763D01*
X54556083Y702767D01*
X54603385Y816965D01*
X54627500Y938196D01*
X54627500Y1061803D01*
X54627500Y1486174D01*
X54647185Y1553213D01*
X54680375Y1587748D01*
X54871401Y1721505D01*
X55038495Y1888599D01*
X55174035Y2082170D01*
X55273903Y2296337D01*
X55335063Y2524592D01*
X55355659Y2760000D01*
X55355553Y2761206D01*
X55350192Y2822489D01*
X55335063Y2995408D01*
X55273903Y3223663D01*
X55174035Y3437829D01*
X55090070Y3557744D01*
X55067744Y3623947D01*
X55084754Y3691715D01*
X55103972Y3716553D01*
X55110418Y3722998D01*
X55737406Y4349987D01*
X55737411Y4349992D01*
X55744121Y4360034D01*
X55762018Y4386819D01*
X55806083Y4452767D01*
X55819937Y4486216D01*
X55853386Y4566965D01*
X55877500Y4688197D01*
X55877500Y4811803D01*
X55877500Y6651803D01*
X55875783Y6660434D01*
X55875783Y6660437D01*
X55853387Y6773029D01*
X55853386Y6773035D01*
X55819937Y6853785D01*
X55806083Y6887233D01*
X55737414Y6990004D01*
X55737413Y6990006D01*
X55699579Y7027840D01*
X55650008Y7077411D01*
X55340835Y7386584D01*
X55307350Y7447907D01*
X55308741Y7506359D01*
X55335063Y7604592D01*
X55355659Y7840000D01*
X55335063Y8075408D01*
X55273903Y8303663D01*
X55174035Y8517829D01*
X55081489Y8650000D01*
X55038494Y8711403D01*
X54871402Y8878494D01*
X54871396Y8878499D01*
X54685842Y9008425D01*
X54642217Y9063002D01*
X54635023Y9132500D01*
X54666546Y9194855D01*
X54685842Y9211575D01*
X54760244Y9263672D01*
X54871401Y9341505D01*
X55038495Y9508599D01*
X55174035Y9702170D01*
X55273903Y9916337D01*
X55335063Y10144592D01*
X55355659Y10380000D01*
X55335063Y10615408D01*
X55308741Y10713643D01*
X55310404Y10783492D01*
X55340835Y10833417D01*
X55520005Y11012586D01*
X55737411Y11229992D01*
X55752136Y11252031D01*
X55795523Y11316962D01*
X55795524Y11316964D01*
X55806080Y11332763D01*
X55806083Y11332767D01*
X55840352Y11415500D01*
X55853386Y11446965D01*
X55877500Y11568197D01*
X55877500Y11691803D01*
X55877500Y13396333D01*
X55877500Y13396336D01*
X55853386Y13517560D01*
X55853385Y13517561D01*
X55853385Y13517565D01*
X55831855Y13569544D01*
X55806086Y13631757D01*
X55806079Y13631770D01*
X55737412Y13734537D01*
X55710341Y13761608D01*
X55650008Y13821941D01*
X55047697Y14424252D01*
X55014212Y14485575D01*
X55019196Y14555267D01*
X55035874Y14583878D01*
X55035004Y14584487D01*
X55173600Y14782422D01*
X55273429Y14996508D01*
X55273432Y14996514D01*
X55330636Y15210000D01*
X54433012Y15210000D01*
X54465925Y15267007D01*
X54500000Y15394174D01*
X54500000Y15525826D01*
X54465925Y15652993D01*
X54433012Y15710000D01*
X55330636Y15710000D01*
X55330635Y15710001D01*
X55273432Y15923487D01*
X55273429Y15923493D01*
X55173600Y16137578D01*
X55173599Y16137580D01*
X55038113Y16331074D01*
X55038108Y16331080D01*
X54916053Y16453135D01*
X54882568Y16514458D01*
X54887552Y16584150D01*
X54929424Y16640083D01*
X54960400Y16656998D01*
X55092331Y16706204D01*
X55207546Y16792454D01*
X55293796Y16907669D01*
X55344091Y17042517D01*
X55350500Y17102127D01*
X55350499Y18897872D01*
X55344091Y18957483D01*
X55293796Y19092331D01*
X55293795Y19092332D01*
X55293793Y19092336D01*
X55207547Y19207545D01*
X55207544Y19207548D01*
X55092335Y19293794D01*
X55092328Y19293798D01*
X54957482Y19344092D01*
X54957483Y19344092D01*
X54897883Y19350499D01*
X54897881Y19350500D01*
X54897873Y19350500D01*
X54897864Y19350500D01*
X53102129Y19350500D01*
X53102123Y19350499D01*
X53042516Y19344092D01*
X52907671Y19293798D01*
X52907664Y19293794D01*
X52792455Y19207548D01*
X52792452Y19207545D01*
X52706206Y19092336D01*
X52706202Y19092329D01*
X52655908Y18957483D01*
X52651661Y18917974D01*
X52649501Y18897877D01*
X52649500Y18897865D01*
X52649500Y17102130D01*
X52649501Y17102124D01*
X52655908Y17042517D01*
X52706202Y16907672D01*
X52706206Y16907665D01*
X52792452Y16792456D01*
X52792455Y16792453D01*
X52907664Y16706207D01*
X52907671Y16706203D01*
X52907674Y16706202D01*
X53039598Y16656998D01*
X53095531Y16615127D01*
X53119949Y16549663D01*
X53105098Y16481390D01*
X53083947Y16453135D01*
X52961886Y16331074D01*
X52826400Y16137580D01*
X52826399Y16137578D01*
X52726570Y15923493D01*
X52726567Y15923487D01*
X52669364Y15710001D01*
X52669364Y15710000D01*
X53566988Y15710000D01*
X53534075Y15652993D01*
X53500000Y15525826D01*
X53500000Y15394174D01*
X53534075Y15267007D01*
X53566988Y15210000D01*
X52669364Y15210000D01*
X52716632Y15033594D01*
X52714969Y14963744D01*
X52675807Y14905881D01*
X52611578Y14878377D01*
X52596857Y14877500D01*
X52520419Y14877500D01*
X52453380Y14897185D01*
X52432738Y14913819D01*
X51109149Y16237409D01*
X51109144Y16237413D01*
X51069822Y16263686D01*
X51069821Y16263687D01*
X51006376Y16306080D01*
X51006364Y16306087D01*
X50954208Y16327690D01*
X50892173Y16353386D01*
X50892165Y16353388D01*
X50805342Y16370658D01*
X50743431Y16403042D01*
X50741852Y16404594D01*
X50440561Y16705885D01*
X50442626Y16706740D01*
X50581844Y16799762D01*
X50700238Y16918156D01*
X50793260Y17057374D01*
X50794114Y17059439D01*
X51355464Y16498089D01*
X51355466Y16498089D01*
X51358713Y16501890D01*
X51358724Y16501905D01*
X51492363Y16719985D01*
X51492365Y16719988D01*
X51590247Y16956298D01*
X51649957Y17205011D01*
X51670024Y17460000D01*
X51649957Y17714990D01*
X51590247Y17963703D01*
X51492365Y18200013D01*
X51492363Y18200016D01*
X51358719Y18418103D01*
X51355465Y18421913D01*
X50794114Y17860563D01*
X50793260Y17862626D01*
X50700238Y18001844D01*
X50581844Y18120238D01*
X50442626Y18213260D01*
X50440561Y18214116D01*
X51001912Y18775467D01*
X50998107Y18778716D01*
X50998098Y18778723D01*
X50780015Y18912364D01*
X50780012Y18912366D01*
X50543702Y19010248D01*
X50294988Y19069958D01*
X50294989Y19069958D01*
X50040000Y19090025D01*
X49785010Y19069958D01*
X49536297Y19010248D01*
X49299987Y18912366D01*
X49299984Y18912364D01*
X49081893Y18778718D01*
X49078086Y18775468D01*
X49639438Y18214116D01*
X49637374Y18213260D01*
X49498156Y18120238D01*
X49379762Y18001844D01*
X49286740Y17862626D01*
X49285884Y17860562D01*
X48724532Y18421914D01*
X48721282Y18418107D01*
X48587636Y18200016D01*
X48587634Y18200013D01*
X48489752Y17963703D01*
X48430042Y17714990D01*
X48409975Y17460000D01*
X48430042Y17205011D01*
X48489752Y16956298D01*
X48587634Y16719988D01*
X48587636Y16719985D01*
X48681820Y16566290D01*
X48700065Y16498844D01*
X48678949Y16432241D01*
X48625177Y16387628D01*
X48576093Y16377500D01*
X46423907Y16377500D01*
X46356868Y16397185D01*
X46311113Y16449989D01*
X46301169Y16519147D01*
X46318180Y16566290D01*
X46412363Y16719985D01*
X46412365Y16719988D01*
X46510247Y16956298D01*
X46569957Y17205011D01*
X46590024Y17460000D01*
X46569957Y17714990D01*
X46510247Y17963703D01*
X46412365Y18200013D01*
X46412363Y18200016D01*
X46278719Y18418103D01*
X46275465Y18421913D01*
X45714114Y17860563D01*
X45713260Y17862626D01*
X45620238Y18001844D01*
X45501844Y18120238D01*
X45362626Y18213260D01*
X45360561Y18214116D01*
X45921912Y18775467D01*
X45918107Y18778716D01*
X45918098Y18778723D01*
X45700015Y18912364D01*
X45700012Y18912366D01*
X45463702Y19010248D01*
X45214988Y19069958D01*
X45214989Y19069958D01*
X44960000Y19090025D01*
X44705010Y19069958D01*
X44456297Y19010248D01*
X44219987Y18912366D01*
X44219984Y18912364D01*
X44001893Y18778718D01*
X43998086Y18775468D01*
X44559438Y18214116D01*
X44557374Y18213260D01*
X44418156Y18120238D01*
X44299762Y18001844D01*
X44206740Y17862626D01*
X44205884Y17860562D01*
X43644532Y18421914D01*
X43641282Y18418107D01*
X43507636Y18200016D01*
X43507634Y18200013D01*
X43409753Y17963704D01*
X43391545Y17887862D01*
X43356754Y17827270D01*
X43294727Y17795107D01*
X43225158Y17801583D01*
X43183290Y17829129D01*
X42202951Y18809468D01*
X42173590Y18856195D01*
X42159009Y18897865D01*
X42117956Y19015190D01*
X42117955Y19015192D01*
X42117952Y19015198D01*
X42027981Y19158385D01*
X42027976Y19158391D01*
X41908390Y19277977D01*
X41908384Y19277982D01*
X41765197Y19367953D01*
X41765191Y19367956D01*
X41696087Y19392136D01*
X41606193Y19423592D01*
X41559468Y19452951D01*
X41025013Y19987407D01*
X41025007Y19987412D01*
X41006166Y20000001D01*
X41006165Y20000002D01*
X45969783Y20000002D01*
X45988623Y19760618D01*
X46044674Y19527147D01*
X46044678Y19527135D01*
X46136565Y19305298D01*
X46262026Y19100564D01*
X46262028Y19100561D01*
X46417973Y18917973D01*
X46600561Y18762028D01*
X46600563Y18762027D01*
X46805297Y18636566D01*
X46902047Y18596492D01*
X47027137Y18544677D01*
X47260621Y18488623D01*
X47500000Y18469783D01*
X47739379Y18488623D01*
X47972863Y18544677D01*
X48194704Y18636567D01*
X48399439Y18762028D01*
X48582027Y18917973D01*
X48737972Y19100561D01*
X48863433Y19305296D01*
X48955323Y19527137D01*
X49011377Y19760621D01*
X49030217Y20000000D01*
X49011377Y20239379D01*
X48955323Y20472863D01*
X48870434Y20677803D01*
X48863434Y20694703D01*
X48737973Y20899437D01*
X48737972Y20899439D01*
X48582027Y21082027D01*
X48399439Y21237972D01*
X48395131Y21240612D01*
X48194702Y21363435D01*
X47972865Y21455322D01*
X47972867Y21455322D01*
X47972863Y21455323D01*
X47972859Y21455324D01*
X47972853Y21455326D01*
X47739382Y21511377D01*
X47500000Y21530217D01*
X47260617Y21511377D01*
X47027146Y21455326D01*
X47027134Y21455322D01*
X46805297Y21363435D01*
X46600563Y21237974D01*
X46417973Y21082027D01*
X46262026Y20899437D01*
X46136565Y20694703D01*
X46044678Y20472866D01*
X46044674Y20472854D01*
X45988623Y20239383D01*
X45969783Y20000002D01*
X41006165Y20000002D01*
X40922239Y20056080D01*
X40922226Y20056087D01*
X40888785Y20069938D01*
X40808035Y20103386D01*
X40808027Y20103388D01*
X40686807Y20127500D01*
X40686803Y20127500D01*
X34193907Y20127500D01*
X34126868Y20147185D01*
X34081113Y20199989D01*
X34071169Y20269147D01*
X34075974Y20289812D01*
X34086497Y20322197D01*
X34105185Y20500000D01*
X34086497Y20677803D01*
X34031250Y20847835D01*
X33941859Y21002665D01*
X33870401Y21082027D01*
X33822235Y21135522D01*
X33822232Y21135524D01*
X33822231Y21135525D01*
X33822230Y21135526D01*
X33677593Y21240612D01*
X33514267Y21313329D01*
X33514265Y21313330D01*
X33386594Y21340467D01*
X33339391Y21350500D01*
X33160609Y21350500D01*
X33129954Y21343985D01*
X32985733Y21313330D01*
X32877678Y21265220D01*
X32827243Y21254500D01*
X31503758Y21254500D01*
X31436719Y21274185D01*
X31390964Y21326989D01*
X31381020Y21396147D01*
X31410045Y21459703D01*
X31416077Y21466181D01*
X31492524Y21542628D01*
X31578495Y21628599D01*
X31714035Y21822170D01*
X31813903Y22036337D01*
X31875063Y22264592D01*
X31895659Y22500000D01*
X31875063Y22735408D01*
X31813903Y22963663D01*
X31714035Y23177829D01*
X31698345Y23200238D01*
X31578494Y23371403D01*
X31552052Y23397845D01*
X34900000Y23397845D01*
X34900000Y22750000D01*
X35816988Y22750000D01*
X35784075Y22692993D01*
X35750000Y22565826D01*
X35750000Y22434174D01*
X35784075Y22307007D01*
X35816988Y22250000D01*
X34900000Y22250000D01*
X34900000Y21602156D01*
X34906401Y21542628D01*
X34906403Y21542621D01*
X34956645Y21407914D01*
X34956649Y21407907D01*
X35042809Y21292813D01*
X35042812Y21292810D01*
X35157906Y21206650D01*
X35157913Y21206646D01*
X35292620Y21156404D01*
X35292627Y21156402D01*
X35352155Y21150001D01*
X35352172Y21150000D01*
X36000000Y21150000D01*
X36000000Y22066988D01*
X36057007Y22034075D01*
X36184174Y22000000D01*
X36315826Y22000000D01*
X36442993Y22034075D01*
X36500000Y22066988D01*
X36500000Y21150000D01*
X37147828Y21150000D01*
X37147844Y21150001D01*
X37207372Y21156402D01*
X37207379Y21156404D01*
X37342086Y21206646D01*
X37342093Y21206650D01*
X37457187Y21292810D01*
X37457190Y21292813D01*
X37543350Y21407907D01*
X37543354Y21407914D01*
X37592422Y21539471D01*
X37634293Y21595405D01*
X37699757Y21619822D01*
X37768030Y21604970D01*
X37796285Y21583819D01*
X37918599Y21461505D01*
X37995135Y21407914D01*
X38112165Y21325968D01*
X38112167Y21325967D01*
X38112170Y21325965D01*
X38326337Y21226097D01*
X38326343Y21226096D01*
X38326344Y21226095D01*
X38344329Y21221276D01*
X38554592Y21164937D01*
X38725319Y21150000D01*
X38789999Y21144341D01*
X38790000Y21144341D01*
X38790001Y21144341D01*
X38854681Y21150000D01*
X39025408Y21164937D01*
X39253663Y21226097D01*
X39467830Y21325965D01*
X39661401Y21461505D01*
X39828495Y21628599D01*
X39964035Y21822170D01*
X40063903Y22036337D01*
X40125063Y22264592D01*
X40145659Y22500000D01*
X40142159Y22540000D01*
X43329975Y22540000D01*
X43350042Y22285011D01*
X43409752Y22036298D01*
X43507634Y21799988D01*
X43507636Y21799985D01*
X43641277Y21581902D01*
X43641284Y21581893D01*
X43644533Y21578088D01*
X44205884Y22139440D01*
X44206740Y22137374D01*
X44299762Y21998156D01*
X44418156Y21879762D01*
X44557374Y21786740D01*
X44559437Y21785886D01*
X43998087Y21224535D01*
X44001897Y21221281D01*
X44219984Y21087637D01*
X44219987Y21087635D01*
X44456297Y20989753D01*
X44705011Y20930043D01*
X44705010Y20930043D01*
X44960000Y20909976D01*
X45214989Y20930043D01*
X45463702Y20989753D01*
X45700012Y21087635D01*
X45700015Y21087637D01*
X45918095Y21221276D01*
X45918110Y21221287D01*
X45921911Y21224534D01*
X45921911Y21224536D01*
X45360562Y21785886D01*
X45362626Y21786740D01*
X45501844Y21879762D01*
X45620238Y21998156D01*
X45713260Y22137374D01*
X45714114Y22139439D01*
X46275464Y21578089D01*
X46275466Y21578089D01*
X46278713Y21581890D01*
X46278724Y21581905D01*
X46412363Y21799985D01*
X46412365Y21799988D01*
X46510247Y22036298D01*
X46569957Y22285011D01*
X46590024Y22540000D01*
X48409975Y22540000D01*
X48430042Y22285011D01*
X48489752Y22036298D01*
X48587634Y21799988D01*
X48587636Y21799985D01*
X48721277Y21581902D01*
X48721284Y21581893D01*
X48724533Y21578088D01*
X49285884Y22139440D01*
X49286740Y22137374D01*
X49379762Y21998156D01*
X49498156Y21879762D01*
X49637374Y21786740D01*
X49639437Y21785886D01*
X49078087Y21224535D01*
X49081897Y21221281D01*
X49299984Y21087637D01*
X49299987Y21087635D01*
X49536297Y20989753D01*
X49785011Y20930043D01*
X49785010Y20930043D01*
X50040000Y20909976D01*
X50294989Y20930043D01*
X50543702Y20989753D01*
X50780012Y21087635D01*
X50780015Y21087637D01*
X50998095Y21221276D01*
X50998110Y21221287D01*
X51001911Y21224534D01*
X51001911Y21224536D01*
X50440562Y21785886D01*
X50442626Y21786740D01*
X50581844Y21879762D01*
X50700238Y21998156D01*
X50793260Y22137374D01*
X50794114Y22139439D01*
X51355464Y21578089D01*
X51355466Y21578089D01*
X51358713Y21581890D01*
X51358724Y21581905D01*
X51492363Y21799985D01*
X51492365Y21799988D01*
X51590247Y22036298D01*
X51649957Y22285011D01*
X51670024Y22540000D01*
X51649957Y22794990D01*
X51590247Y23043703D01*
X51492365Y23280013D01*
X51492363Y23280016D01*
X51358719Y23498103D01*
X51355465Y23501913D01*
X50794114Y22940563D01*
X50793260Y22942626D01*
X50700238Y23081844D01*
X50581844Y23200238D01*
X50442626Y23293260D01*
X50440561Y23294116D01*
X51001912Y23855467D01*
X50998107Y23858716D01*
X50998098Y23858723D01*
X50780015Y23992364D01*
X50780012Y23992366D01*
X50543702Y24090248D01*
X50294988Y24149958D01*
X50294989Y24149958D01*
X50040000Y24170025D01*
X49785010Y24149958D01*
X49536297Y24090248D01*
X49299987Y23992366D01*
X49299984Y23992364D01*
X49081893Y23858718D01*
X49078086Y23855468D01*
X49639438Y23294116D01*
X49637374Y23293260D01*
X49498156Y23200238D01*
X49379762Y23081844D01*
X49286740Y22942626D01*
X49285884Y22940562D01*
X48724532Y23501914D01*
X48721282Y23498107D01*
X48587636Y23280016D01*
X48587634Y23280013D01*
X48489752Y23043703D01*
X48430042Y22794990D01*
X48409975Y22540000D01*
X46590024Y22540000D01*
X46569957Y22794990D01*
X46510247Y23043703D01*
X46412365Y23280013D01*
X46412363Y23280016D01*
X46278719Y23498103D01*
X46275465Y23501913D01*
X45714114Y22940563D01*
X45713260Y22942626D01*
X45620238Y23081844D01*
X45501844Y23200238D01*
X45362626Y23293260D01*
X45360561Y23294116D01*
X45921912Y23855467D01*
X45918107Y23858716D01*
X45918098Y23858723D01*
X45700015Y23992364D01*
X45700012Y23992366D01*
X45463702Y24090248D01*
X45214988Y24149958D01*
X45214989Y24149958D01*
X44960000Y24170025D01*
X44705010Y24149958D01*
X44456297Y24090248D01*
X44219987Y23992366D01*
X44219984Y23992364D01*
X44001893Y23858718D01*
X43998086Y23855468D01*
X44559438Y23294116D01*
X44557374Y23293260D01*
X44418156Y23200238D01*
X44299762Y23081844D01*
X44206740Y22942626D01*
X44205884Y22940562D01*
X43644532Y23501914D01*
X43641282Y23498107D01*
X43507636Y23280016D01*
X43507634Y23280013D01*
X43409752Y23043703D01*
X43350042Y22794990D01*
X43329975Y22540000D01*
X40142159Y22540000D01*
X40125063Y22735408D01*
X40063903Y22963663D01*
X39964035Y23177829D01*
X39948345Y23200238D01*
X39828494Y23371403D01*
X39661402Y23538494D01*
X39661395Y23538499D01*
X39467834Y23674033D01*
X39467830Y23674035D01*
X39396727Y23707191D01*
X39253663Y23773903D01*
X39253659Y23773904D01*
X39253655Y23773906D01*
X39025413Y23835062D01*
X39025403Y23835064D01*
X38790001Y23855659D01*
X38789999Y23855659D01*
X38554596Y23835064D01*
X38554586Y23835062D01*
X38326344Y23773906D01*
X38326335Y23773902D01*
X38112171Y23674036D01*
X38112169Y23674035D01*
X37918600Y23538497D01*
X37796284Y23416181D01*
X37734961Y23382697D01*
X37665269Y23387681D01*
X37609336Y23429553D01*
X37592421Y23460530D01*
X37543354Y23592087D01*
X37543350Y23592094D01*
X37457190Y23707188D01*
X37457187Y23707191D01*
X37342093Y23793351D01*
X37342086Y23793355D01*
X37207379Y23843597D01*
X37207372Y23843599D01*
X37147844Y23850000D01*
X36500000Y23850000D01*
X36500000Y22933012D01*
X36442993Y22965925D01*
X36315826Y23000000D01*
X36184174Y23000000D01*
X36057007Y22965925D01*
X36000000Y22933012D01*
X36000000Y23850000D01*
X35352155Y23850000D01*
X35292627Y23843599D01*
X35292620Y23843597D01*
X35157913Y23793355D01*
X35157906Y23793351D01*
X35042812Y23707191D01*
X35042809Y23707188D01*
X34956649Y23592094D01*
X34956645Y23592087D01*
X34906403Y23457380D01*
X34906401Y23457373D01*
X34900000Y23397845D01*
X31552052Y23397845D01*
X31411402Y23538494D01*
X31411395Y23538499D01*
X31217834Y23674033D01*
X31217830Y23674035D01*
X31146727Y23707191D01*
X31003663Y23773903D01*
X31003659Y23773904D01*
X31003655Y23773906D01*
X30775413Y23835062D01*
X30775403Y23835064D01*
X30540001Y23855659D01*
X30539999Y23855659D01*
X30304596Y23835064D01*
X30304586Y23835062D01*
X30076344Y23773906D01*
X30076335Y23773902D01*
X29862171Y23674036D01*
X29862169Y23674035D01*
X29668600Y23538497D01*
X29546673Y23416570D01*
X29485350Y23383086D01*
X29415658Y23388070D01*
X29359725Y23429942D01*
X29342810Y23460919D01*
X29293797Y23592329D01*
X29293793Y23592336D01*
X29207547Y23707545D01*
X29207544Y23707548D01*
X29092335Y23793794D01*
X29092328Y23793798D01*
X28957482Y23844092D01*
X28957483Y23844092D01*
X28897883Y23850499D01*
X28897881Y23850500D01*
X28897873Y23850500D01*
X28897864Y23850500D01*
X27102129Y23850500D01*
X27102123Y23850499D01*
X27042516Y23844092D01*
X26907671Y23793798D01*
X26907664Y23793794D01*
X26792455Y23707548D01*
X26792452Y23707545D01*
X26706206Y23592336D01*
X26706202Y23592329D01*
X26655908Y23457483D01*
X26649501Y23397884D01*
X26649500Y23397865D01*
X26649500Y21602130D01*
X26649501Y21602124D01*
X26655908Y21542517D01*
X26700921Y21421833D01*
X26705905Y21352141D01*
X26672420Y21290818D01*
X26611097Y21257334D01*
X26584739Y21254500D01*
X24922757Y21254500D01*
X24872322Y21265220D01*
X24852186Y21274185D01*
X24764267Y21313329D01*
X24764265Y21313330D01*
X24636594Y21340467D01*
X24589391Y21350500D01*
X24410609Y21350500D01*
X24379954Y21343985D01*
X24235733Y21313330D01*
X24235728Y21313328D01*
X24072408Y21240613D01*
X23927768Y21135525D01*
X23808140Y21002664D01*
X23718750Y20847836D01*
X23718747Y20847830D01*
X23663504Y20677808D01*
X23663503Y20677806D01*
X23663503Y20677803D01*
X23644815Y20500000D01*
X23663503Y20322197D01*
X23674024Y20289817D01*
X23676020Y20219978D01*
X23639940Y20160145D01*
X23577239Y20129316D01*
X23556093Y20127500D01*
X19438192Y20127500D01*
X19316972Y20103388D01*
X19316964Y20103386D01*
X19236215Y20069938D01*
X19202777Y20056087D01*
X19202767Y20056083D01*
X19118833Y20000000D01*
X19118832Y20000001D01*
X19099992Y19987412D01*
X19099986Y19987407D01*
X13628030Y14515451D01*
X13581304Y14486090D01*
X13422305Y14430455D01*
X13422302Y14430453D01*
X13279115Y14340482D01*
X13279109Y14340477D01*
X13159523Y14220891D01*
X13159518Y14220885D01*
X13069547Y14077698D01*
X13069544Y14077693D01*
X13013686Y13918057D01*
X13013086Y13915425D01*
X12995299Y13874133D01*
X12943915Y13797231D01*
X12936409Y13779112D01*
X12936410Y13779111D01*
X12896615Y13683038D01*
X12896612Y13683028D01*
X12874040Y13569553D01*
X12874041Y13569552D01*
X12872500Y13561804D01*
X12872500Y5553334D01*
X12852815Y5486295D01*
X12836181Y5465653D01*
X11031529Y3661002D01*
X10970206Y3627517D01*
X10900514Y3632501D01*
X10844581Y3674373D01*
X10825917Y3710365D01*
X10781252Y3847830D01*
X10781249Y3847836D01*
X10767833Y3871074D01*
X10691859Y4002665D01*
X10645003Y4054704D01*
X10572235Y4135522D01*
X10572232Y4135524D01*
X10572231Y4135525D01*
X10572230Y4135526D01*
X10473101Y4207548D01*
X10427592Y4240613D01*
X10266203Y4312468D01*
X10228958Y4338066D01*
X9040819Y5526206D01*
X9007334Y5587529D01*
X9004500Y5613887D01*
X9004500Y10736390D01*
X9005249Y10749728D01*
X9005249Y10750279D01*
X9004500Y10763610D01*
X9004500Y11434446D01*
X9024185Y11501485D01*
X9076989Y11547240D01*
X9114612Y11557666D01*
X9168059Y11563687D01*
X9327690Y11619544D01*
X9327693Y11619547D01*
X9327697Y11619548D01*
X9470884Y11709519D01*
X9470885Y11709520D01*
X9470890Y11709523D01*
X9590477Y11829110D01*
X9590481Y11829116D01*
X9680452Y11972303D01*
X9680454Y11972306D01*
X9680454Y11972308D01*
X9680456Y11972310D01*
X9736313Y12131941D01*
X9736313Y12131942D01*
X9736314Y12131944D01*
X9755249Y12299998D01*
X9755249Y12300003D01*
X9736314Y12468057D01*
X9710281Y12542454D01*
X9684457Y12616254D01*
X9677500Y12657207D01*
X9677500Y13602308D01*
X9696507Y13668281D01*
X9730456Y13722310D01*
X9735356Y13736313D01*
X9786313Y13881941D01*
X9800915Y14011535D01*
X9805249Y14049998D01*
X9805249Y14050003D01*
X9786314Y14218057D01*
X9743477Y14340477D01*
X9730456Y14377690D01*
X9730455Y14377691D01*
X9730454Y14377695D01*
X9730452Y14377698D01*
X9640481Y14520885D01*
X9640476Y14520891D01*
X9520890Y14640477D01*
X9520884Y14640482D01*
X9377697Y14730453D01*
X9377694Y14730455D01*
X9218056Y14786315D01*
X9114616Y14797969D01*
X9050202Y14825036D01*
X9010647Y14882630D01*
X9004500Y14921189D01*
X9004500Y15986390D01*
X9005249Y15999728D01*
X9005249Y16000279D01*
X9004500Y16013610D01*
X9004500Y16074314D01*
X8987933Y16157596D01*
X8986330Y16167907D01*
X8986313Y16168059D01*
X8986310Y16168066D01*
X8986310Y16168072D01*
X8984763Y16174854D01*
X8984851Y16174875D01*
X8983547Y16179648D01*
X8975505Y16220080D01*
X8918629Y16357390D01*
X8917011Y16359811D01*
X8836059Y16480966D01*
X8836054Y16480972D01*
X8730971Y16586055D01*
X8730964Y16586061D01*
X8607391Y16668629D01*
X8470078Y16725506D01*
X8470075Y16725507D01*
X8429636Y16733551D01*
X8424856Y16734855D01*
X8424836Y16734766D01*
X8418048Y16736316D01*
X8417891Y16736333D01*
X8407609Y16737932D01*
X8324312Y16754500D01*
X8324310Y16754500D01*
X8263610Y16754500D01*
X8250275Y16755249D01*
X8249725Y16755249D01*
X8236390Y16754500D01*
X8175688Y16754500D01*
X8092388Y16737932D01*
X8082103Y16736332D01*
X8081944Y16736315D01*
X8075164Y16734767D01*
X8075144Y16734855D01*
X8070365Y16733551D01*
X8029923Y16725507D01*
X8029921Y16725506D01*
X7892608Y16668629D01*
X7769035Y16586061D01*
X7769028Y16586055D01*
X7663945Y16480972D01*
X7663941Y16480966D01*
X7581371Y16357392D01*
X7524494Y16220079D01*
X7524493Y16220077D01*
X7516449Y16179635D01*
X7515145Y16174856D01*
X7515233Y16174836D01*
X7513685Y16168056D01*
X7513668Y16167897D01*
X7512068Y16157612D01*
X7495500Y16074312D01*
X7495500Y16013610D01*
X7494751Y16000279D01*
X7494751Y15999728D01*
X7495500Y15986390D01*
X7495500Y10763610D01*
X7494751Y10750279D01*
X7494751Y10749728D01*
X7495500Y10736390D01*
X7495500Y5329448D01*
X7495499Y5329422D01*
X7495499Y5175686D01*
X7517598Y5064592D01*
X7517598Y5064591D01*
X7524493Y5029927D01*
X7524495Y5029919D01*
X7535742Y5002767D01*
X7581366Y4892619D01*
X7581368Y4892616D01*
X7581370Y4892611D01*
X7615976Y4840819D01*
X7663942Y4769032D01*
X7663943Y4769031D01*
X8916795Y3516181D01*
X8950280Y3454858D01*
X8945296Y3385167D01*
X8903425Y3329233D01*
X8837960Y3304816D01*
X8829114Y3304500D01*
X5815195Y3304500D01*
X5693970Y3280387D01*
X5693960Y3280384D01*
X5579769Y3233085D01*
X5505149Y3183226D01*
X5505149Y3183225D01*
X5477179Y3164537D01*
X5476989Y3164409D01*
X5472283Y3160546D01*
X5471585Y3161396D01*
X5431304Y3136090D01*
X5272308Y3080456D01*
X5272302Y3080453D01*
X5129115Y2990482D01*
X5129109Y2990477D01*
X5009523Y2870891D01*
X5009518Y2870885D01*
X4919547Y2727698D01*
X4919545Y2727695D01*
X4863685Y2568057D01*
X4844751Y2400003D01*
X4844751Y2399998D01*
X4863685Y2231944D01*
X4919545Y2072306D01*
X4919547Y2072303D01*
X5009518Y1929116D01*
X5009523Y1929110D01*
X5129109Y1809524D01*
X5129115Y1809519D01*
X5272302Y1719548D01*
X5272305Y1719546D01*
X5272309Y1719545D01*
X5272310Y1719544D01*
X5324820Y1701170D01*
X5431943Y1663686D01*
X5599997Y1644751D01*
X5600000Y1644751D01*
X5600003Y1644751D01*
X5768056Y1663686D01*
X5780548Y1668057D01*
X5927690Y1719544D01*
X5927692Y1719546D01*
X5927694Y1719546D01*
X5927697Y1719548D01*
X6070884Y1809519D01*
X6070885Y1809520D01*
X6070890Y1809523D01*
X6190477Y1929110D01*
X6229662Y1991474D01*
X6281995Y2037763D01*
X6334655Y2049500D01*
X7484555Y2049500D01*
X7551594Y2029815D01*
X7597349Y1977011D01*
X7607293Y1907853D01*
X7589549Y1859528D01*
X7569545Y1827693D01*
X7513685Y1668057D01*
X7494751Y1500003D01*
X7494751Y1499998D01*
X7513685Y1331944D01*
X7569545Y1172306D01*
X7569547Y1172303D01*
X7659518Y1029116D01*
X7659523Y1029110D01*
X7779109Y909524D01*
X7779115Y909519D01*
X7922302Y819548D01*
X7922305Y819546D01*
X7922309Y819545D01*
X7922310Y819544D01*
X8081941Y763687D01*
X8081944Y763686D01*
X8223646Y747720D01*
X8246779Y738000D01*
X8255302Y743477D01*
X8276354Y747720D01*
X8418055Y763686D01*
X8418057Y763687D01*
X8418059Y763687D01*
X8577690Y819544D01*
X8631721Y853495D01*
X8697693Y872500D01*
X10461804Y872500D01*
X10461805Y872501D01*
X10583035Y896614D01*
X10683421Y938196D01*
X10697233Y943917D01*
X10800008Y1012589D01*
X10887411Y1099992D01*
X14487411Y4699992D01*
X14505047Y4726386D01*
X14556083Y4802767D01*
X14593297Y4892610D01*
X14603386Y4916966D01*
X14627500Y5038197D01*
X14627500Y5161803D01*
X14627500Y10620751D01*
X14647185Y10687790D01*
X14699989Y10733545D01*
X14743195Y10742945D01*
X14743080Y10743971D01*
X14918056Y10763686D01*
X14918059Y10763687D01*
X15077690Y10819544D01*
X15131721Y10853495D01*
X15197693Y10872500D01*
X18311804Y10872500D01*
X18311805Y10872501D01*
X18433035Y10896614D01*
X18513784Y10930063D01*
X18547233Y10943917D01*
X18650008Y11012589D01*
X18737411Y11099992D01*
X19871968Y12234551D01*
X19918688Y12263908D01*
X20077690Y12319544D01*
X20077692Y12319545D01*
X20077697Y12319548D01*
X20220884Y12409519D01*
X20220885Y12409520D01*
X20220890Y12409523D01*
X20340477Y12529110D01*
X20373675Y12581944D01*
X20430452Y12672303D01*
X20430454Y12672306D01*
X20430454Y12672308D01*
X20430456Y12672310D01*
X20486313Y12831941D01*
X20486313Y12831942D01*
X20486314Y12831944D01*
X20505249Y12999998D01*
X20505249Y13000003D01*
X20486314Y13168057D01*
X20430454Y13327695D01*
X20430452Y13327698D01*
X20340481Y13470885D01*
X20340476Y13470891D01*
X20220890Y13590477D01*
X20220884Y13590482D01*
X20077697Y13680453D01*
X20077694Y13680455D01*
X19918056Y13736315D01*
X19750003Y13755249D01*
X19750001Y13755249D01*
X19750000Y13755249D01*
X19729838Y13752978D01*
X19699434Y13749552D01*
X19630612Y13761608D01*
X19579233Y13808958D01*
X19561610Y13876569D01*
X19583338Y13942974D01*
X19597866Y13960449D01*
X19621968Y13984551D01*
X19668688Y14013908D01*
X19827690Y14069544D01*
X19827692Y14069545D01*
X19827697Y14069548D01*
X19970884Y14159519D01*
X19970885Y14159520D01*
X19970890Y14159523D01*
X20090477Y14279110D01*
X20148825Y14371970D01*
X20180452Y14422303D01*
X20180454Y14422306D01*
X20180454Y14422308D01*
X20180456Y14422310D01*
X20236313Y14581941D01*
X20236313Y14581942D01*
X20236314Y14581944D01*
X20255249Y14749998D01*
X20255249Y14750003D01*
X20236314Y14918057D01*
X20195886Y15033594D01*
X20180456Y15077690D01*
X20180455Y15077691D01*
X20180454Y15077695D01*
X20180452Y15077698D01*
X20090481Y15220885D01*
X20090476Y15220891D01*
X19970890Y15340477D01*
X19970884Y15340482D01*
X19827697Y15430453D01*
X19827694Y15430455D01*
X19668056Y15486315D01*
X19500003Y15505249D01*
X19499997Y15505249D01*
X19331943Y15486315D01*
X19172305Y15430455D01*
X19172302Y15430453D01*
X19029115Y15340482D01*
X19029109Y15340477D01*
X18909523Y15220891D01*
X18909518Y15220885D01*
X18819547Y15077698D01*
X18819545Y15077695D01*
X18787570Y14986313D01*
X18765175Y14922310D01*
X18763910Y14918696D01*
X18734549Y14871970D01*
X17378030Y13515451D01*
X17331304Y13486090D01*
X17172305Y13430455D01*
X17172302Y13430453D01*
X17029115Y13340482D01*
X17029109Y13340477D01*
X16909523Y13220891D01*
X16909518Y13220885D01*
X16819547Y13077698D01*
X16819545Y13077695D01*
X16763685Y12918057D01*
X16744751Y12750003D01*
X16744751Y12749998D01*
X16763685Y12581944D01*
X16819545Y12422307D01*
X16856232Y12363921D01*
X16884116Y12319544D01*
X16885418Y12317473D01*
X16904419Y12250236D01*
X16884052Y12183401D01*
X16830784Y12138186D01*
X16780425Y12127500D01*
X15197693Y12127500D01*
X15131721Y12146506D01*
X15077692Y12180455D01*
X15077691Y12180456D01*
X15077690Y12180456D01*
X15039370Y12193865D01*
X14918056Y12236315D01*
X14743080Y12256029D01*
X14743264Y12257668D01*
X14684461Y12274934D01*
X14638706Y12327738D01*
X14627500Y12379249D01*
X14627500Y12661513D01*
X14647185Y12728552D01*
X14699989Y12774307D01*
X14710530Y12778549D01*
X14827690Y12819544D01*
X14827693Y12819547D01*
X14827697Y12819548D01*
X14970884Y12909519D01*
X14970885Y12909520D01*
X14970890Y12909523D01*
X15090477Y13029110D01*
X15138374Y13105337D01*
X15180452Y13172303D01*
X15180455Y13172308D01*
X15180456Y13172310D01*
X15236092Y13331312D01*
X15265449Y13378032D01*
X20146600Y18259181D01*
X20207923Y18292666D01*
X20234281Y18295500D01*
X29552307Y18295500D01*
X29618278Y18276495D01*
X29672310Y18242544D01*
X29774607Y18206749D01*
X29831943Y18186686D01*
X29999997Y18167751D01*
X30000000Y18167751D01*
X30000003Y18167751D01*
X30168056Y18186686D01*
X30168059Y18186687D01*
X30327690Y18242544D01*
X30381721Y18276495D01*
X30447693Y18295500D01*
X31358718Y18295500D01*
X31425757Y18275815D01*
X31471512Y18223011D01*
X31481456Y18153853D01*
X31452431Y18090297D01*
X31446398Y18083819D01*
X30219992Y16857411D01*
X30162343Y16799762D01*
X30132589Y16770008D01*
X30063915Y16667230D01*
X30056572Y16649501D01*
X30016614Y16553036D01*
X30016612Y16553028D01*
X30002278Y16480968D01*
X30002279Y16480967D01*
X29992500Y16431802D01*
X29992500Y4273827D01*
X29972815Y4206788D01*
X29939624Y4172252D01*
X29748594Y4038492D01*
X29581508Y3871406D01*
X29451269Y3685405D01*
X29396692Y3641781D01*
X29327193Y3634588D01*
X29264839Y3666110D01*
X29248119Y3685406D01*
X29118113Y3871074D01*
X29118108Y3871080D01*
X28951082Y4038106D01*
X28757578Y4173601D01*
X28543492Y4273430D01*
X28543486Y4273433D01*
X28330000Y4330636D01*
X28330000Y3433012D01*
X28272993Y3465925D01*
X28145826Y3500000D01*
X28014174Y3500000D01*
X27887007Y3465925D01*
X27830000Y3433012D01*
X27830000Y4330636D01*
X27829999Y4330636D01*
X27616513Y4273433D01*
X27616507Y4273430D01*
X27402422Y4173601D01*
X27402420Y4173600D01*
X27208926Y4038114D01*
X27208920Y4038109D01*
X27041891Y3871080D01*
X27041890Y3871078D01*
X26911880Y3685405D01*
X26857303Y3641781D01*
X26787804Y3634588D01*
X26725450Y3666110D01*
X26708730Y3685406D01*
X26578494Y3871403D01*
X26411402Y4038494D01*
X26411395Y4038499D01*
X26217834Y4174033D01*
X26217830Y4174035D01*
X26217828Y4174036D01*
X26003663Y4273903D01*
X26003659Y4273904D01*
X26003655Y4273906D01*
X25775413Y4335062D01*
X25775403Y4335064D01*
X25540001Y4355659D01*
X25539999Y4355659D01*
X25304596Y4335064D01*
X25304586Y4335062D01*
X25076344Y4273906D01*
X25076335Y4273902D01*
X24862171Y4174036D01*
X24862169Y4174035D01*
X24668600Y4038497D01*
X24546673Y3916570D01*
X24485350Y3883086D01*
X24415658Y3888070D01*
X24359725Y3929942D01*
X24342810Y3960919D01*
X24293797Y4092329D01*
X24293793Y4092336D01*
X24207547Y4207545D01*
X24207544Y4207548D01*
X24092335Y4293794D01*
X24092328Y4293798D01*
X23957482Y4344092D01*
X23957483Y4344092D01*
X23897883Y4350499D01*
X23897881Y4350500D01*
X23897873Y4350500D01*
X23897864Y4350500D01*
X22102129Y4350500D01*
X22102123Y4350499D01*
X22042516Y4344092D01*
X21907671Y4293798D01*
X21907664Y4293794D01*
X21792455Y4207548D01*
X21792452Y4207545D01*
X21706206Y4092336D01*
X21706202Y4092329D01*
X21655908Y3957483D01*
X21649501Y3897884D01*
X21649500Y3897865D01*
X21649500Y3183281D01*
X21629815Y3116242D01*
X21577011Y3070487D01*
X21507853Y3060543D01*
X21444297Y3089568D01*
X21437819Y3095600D01*
X18275011Y6258408D01*
X18241526Y6319731D01*
X18239472Y6359973D01*
X18255249Y6499998D01*
X18255249Y6500003D01*
X18236314Y6668057D01*
X18199583Y6773029D01*
X18180456Y6827690D01*
X18180455Y6827691D01*
X18180454Y6827695D01*
X18180452Y6827698D01*
X18090481Y6970885D01*
X18090476Y6970891D01*
X17970890Y7090477D01*
X17970884Y7090482D01*
X17827697Y7180453D01*
X17827694Y7180455D01*
X17668056Y7236315D01*
X17500003Y7255249D01*
X17499997Y7255249D01*
X17331943Y7236315D01*
X17172305Y7180455D01*
X17172302Y7180453D01*
X17029112Y7090480D01*
X17029110Y7090478D01*
X16966471Y7027840D01*
X16905147Y6994356D01*
X16864908Y6992303D01*
X16750004Y7005249D01*
X16749997Y7005249D01*
X16581943Y6986315D01*
X16422305Y6930455D01*
X16422302Y6930453D01*
X16279112Y6840480D01*
X16279110Y6840478D01*
X16216471Y6777840D01*
X16155147Y6744356D01*
X16114908Y6742303D01*
X16000004Y6755249D01*
X15999997Y6755249D01*
X15831943Y6736315D01*
X15672305Y6680455D01*
X15672302Y6680453D01*
X15529115Y6590482D01*
X15529109Y6590477D01*
X15409523Y6470891D01*
X15409518Y6470885D01*
X15319547Y6327698D01*
X15319545Y6327695D01*
X15263685Y6168057D01*
X15244751Y6000003D01*
X15244751Y5999998D01*
X15263685Y5831944D01*
X15319545Y5672306D01*
X15319547Y5672303D01*
X15409518Y5529116D01*
X15409523Y5529110D01*
X15529109Y5409524D01*
X15529115Y5409519D01*
X15672302Y5319548D01*
X15672305Y5319546D01*
X15672309Y5319545D01*
X15672310Y5319544D01*
X15728164Y5300000D01*
X15831944Y5263686D01*
X15999997Y5244751D01*
X16000466Y5244751D01*
X16000757Y5244666D01*
X16006920Y5243971D01*
X16006798Y5242892D01*
X16067505Y5225066D01*
X16088147Y5208432D01*
X20584398Y712181D01*
X20617883Y650858D01*
X20612899Y581166D01*
X20571027Y525233D01*
X20505563Y500816D01*
X20496717Y500500D01*
X8290237Y500500D01*
X8250816Y512076D01*
X8231157Y502360D01*
X8209763Y500500D01*
X1505413Y500500D01*
X1494605Y500972D01*
X1337246Y514740D01*
X1315961Y518493D01*
X1168630Y557970D01*
X1148318Y565363D01*
X1010084Y629823D01*
X991366Y640630D01*
X866417Y728120D01*
X849859Y742014D01*
X742013Y849860D01*
X728119Y866418D01*
X640629Y991367D01*
X629822Y1010085D01*
X565362Y1148319D01*
X557969Y1168631D01*
X518492Y1315962D01*
X514739Y1337248D01*
X511217Y1377500D01*
X500972Y1494607D01*
X500500Y1505414D01*
X500500Y7822713D01*
X520185Y7889752D01*
X572989Y7935507D01*
X642147Y7945451D01*
X693392Y7925814D01*
X726314Y7903816D01*
X726328Y7903808D01*
X908306Y7828431D01*
X908318Y7828428D01*
X1101504Y7790001D01*
X1101508Y7790000D01*
X1250000Y7790000D01*
X1250000Y8490000D01*
X1750000Y8490000D01*
X1750000Y7790000D01*
X1898492Y7790000D01*
X1898495Y7790001D01*
X2091681Y7828428D01*
X2091693Y7828431D01*
X2273671Y7903808D01*
X2273684Y7903815D01*
X2437462Y8013249D01*
X2437466Y8013252D01*
X2576748Y8152534D01*
X2576751Y8152538D01*
X2686185Y8316316D01*
X2686192Y8316329D01*
X2761569Y8498308D01*
X2761569Y8498310D01*
X2769862Y8540000D01*
X1966988Y8540000D01*
X1984205Y8549940D01*
X2040060Y8605795D01*
X2079556Y8674204D01*
X2100000Y8750504D01*
X2100000Y8829496D01*
X2079556Y8905796D01*
X2040060Y8974205D01*
X1984205Y9030060D01*
X1966988Y9040000D01*
X2769862Y9040000D01*
X4160138Y9040000D01*
X4963012Y9040000D01*
X4945795Y9030060D01*
X4889940Y8974205D01*
X4850444Y8905796D01*
X4830000Y8829496D01*
X4830000Y8750504D01*
X4850444Y8674204D01*
X4889940Y8605795D01*
X4945795Y8549940D01*
X4963012Y8540000D01*
X4160138Y8540000D01*
X4168430Y8498310D01*
X4168430Y8498308D01*
X4243807Y8316329D01*
X4243814Y8316316D01*
X4353248Y8152538D01*
X4353251Y8152534D01*
X4492533Y8013252D01*
X4492537Y8013249D01*
X4656315Y7903815D01*
X4656328Y7903808D01*
X4838306Y7828431D01*
X4838318Y7828428D01*
X5031504Y7790001D01*
X5031508Y7790000D01*
X5430000Y7790000D01*
X5430000Y8490000D01*
X5930000Y8490000D01*
X5930000Y7790000D01*
X6328492Y7790000D01*
X6328495Y7790001D01*
X6521681Y7828428D01*
X6521693Y7828431D01*
X6703671Y7903808D01*
X6703684Y7903815D01*
X6867462Y8013249D01*
X6867466Y8013252D01*
X7006748Y8152534D01*
X7006751Y8152538D01*
X7116185Y8316316D01*
X7116192Y8316329D01*
X7191569Y8498308D01*
X7191569Y8498310D01*
X7199862Y8540000D01*
X6396988Y8540000D01*
X6414205Y8549940D01*
X6470060Y8605795D01*
X6509556Y8674204D01*
X6530000Y8750504D01*
X6530000Y8829496D01*
X6509556Y8905796D01*
X6470060Y8974205D01*
X6414205Y9030060D01*
X6396988Y9040000D01*
X7199862Y9040000D01*
X7191569Y9081691D01*
X7191569Y9081693D01*
X7116192Y9263672D01*
X7116185Y9263685D01*
X7006751Y9427463D01*
X7006748Y9427467D01*
X6867466Y9566749D01*
X6867462Y9566752D01*
X6703684Y9676186D01*
X6703671Y9676193D01*
X6521693Y9751570D01*
X6521681Y9751573D01*
X6328495Y9790000D01*
X5781045Y9790000D01*
X5714006Y9809685D01*
X5668251Y9862489D01*
X5658307Y9931647D01*
X5673658Y9976000D01*
X5686279Y9997862D01*
X5686281Y9997865D01*
X5725500Y10144234D01*
X5725500Y10295766D01*
X5686281Y10442135D01*
X5610515Y10573365D01*
X5503365Y10680515D01*
X5411515Y10733545D01*
X5372136Y10756281D01*
X5270581Y10783492D01*
X5225766Y10795500D01*
X5074234Y10795500D01*
X4927863Y10756281D01*
X4796635Y10680515D01*
X4796632Y10680513D01*
X4689487Y10573368D01*
X4689485Y10573365D01*
X4613719Y10442137D01*
X4574500Y10295766D01*
X4574500Y10144235D01*
X4613719Y9997864D01*
X4650491Y9934174D01*
X4689485Y9866635D01*
X4689488Y9866632D01*
X4694432Y9860189D01*
X4691612Y9858026D01*
X4717302Y9810980D01*
X4712318Y9741288D01*
X4670446Y9685355D01*
X4661379Y9679584D01*
X4661387Y9679573D01*
X4492536Y9566752D01*
X4353251Y9427467D01*
X4353248Y9427463D01*
X4243814Y9263685D01*
X4243807Y9263672D01*
X4168430Y9081693D01*
X4168430Y9081691D01*
X4160138Y9040000D01*
X2769862Y9040000D01*
X2761569Y9081691D01*
X2761569Y9081693D01*
X2686192Y9263672D01*
X2686185Y9263685D01*
X2576751Y9427463D01*
X2576748Y9427467D01*
X2437466Y9566749D01*
X2437462Y9566752D01*
X2273684Y9676186D01*
X2273671Y9676193D01*
X2091693Y9751570D01*
X2091681Y9751573D01*
X1898495Y9790000D01*
X1750000Y9790000D01*
X1750000Y9090000D01*
X1250000Y9090000D01*
X1250000Y9790000D01*
X1101504Y9790000D01*
X908318Y9751573D01*
X908306Y9751570D01*
X726328Y9676193D01*
X726310Y9676183D01*
X693390Y9654186D01*
X626713Y9633308D01*
X559333Y9651793D01*
X512643Y9703772D01*
X500500Y9757288D01*
X500500Y16462713D01*
X520185Y16529752D01*
X572989Y16575507D01*
X642147Y16585451D01*
X693392Y16565814D01*
X726314Y16543816D01*
X726328Y16543808D01*
X908306Y16468431D01*
X908318Y16468428D01*
X1101504Y16430001D01*
X1101508Y16430000D01*
X1250000Y16430000D01*
X1250000Y17130000D01*
X1750000Y17130000D01*
X1750000Y16430000D01*
X1898492Y16430000D01*
X1898495Y16430001D01*
X2091681Y16468428D01*
X2091693Y16468431D01*
X2273671Y16543808D01*
X2273684Y16543815D01*
X2437462Y16653249D01*
X2437466Y16653252D01*
X2576748Y16792534D01*
X2576751Y16792538D01*
X2686185Y16956316D01*
X2686192Y16956329D01*
X2761569Y17138308D01*
X2761569Y17138310D01*
X2769862Y17180000D01*
X1966988Y17180000D01*
X1984205Y17189940D01*
X2040060Y17245795D01*
X2079556Y17314204D01*
X2100000Y17390504D01*
X2100000Y17469496D01*
X2079556Y17545796D01*
X2040060Y17614205D01*
X1984205Y17670060D01*
X1966988Y17680000D01*
X2769862Y17680000D01*
X4160138Y17680000D01*
X4963012Y17680000D01*
X4945795Y17670060D01*
X4889940Y17614205D01*
X4850444Y17545796D01*
X4830000Y17469496D01*
X4830000Y17390504D01*
X4850444Y17314204D01*
X4889940Y17245795D01*
X4945795Y17189940D01*
X4963012Y17180000D01*
X4160138Y17180000D01*
X4168430Y17138310D01*
X4168430Y17138308D01*
X4243807Y16956329D01*
X4243814Y16956316D01*
X4353248Y16792538D01*
X4353251Y16792534D01*
X4492533Y16653252D01*
X4492537Y16653249D01*
X4661387Y16540426D01*
X4660430Y16538995D01*
X4704425Y16495789D01*
X4719895Y16427654D01*
X4696072Y16361971D01*
X4694309Y16359906D01*
X4694432Y16359811D01*
X4689485Y16353365D01*
X4613719Y16222137D01*
X4574500Y16075766D01*
X4574500Y15924235D01*
X4613719Y15777864D01*
X4651602Y15712250D01*
X4689485Y15646635D01*
X4796635Y15539485D01*
X4927865Y15463719D01*
X5074234Y15424500D01*
X5074236Y15424500D01*
X5225764Y15424500D01*
X5225766Y15424500D01*
X5372135Y15463719D01*
X5503365Y15539485D01*
X5610515Y15646635D01*
X5686281Y15777865D01*
X5725500Y15924234D01*
X5725500Y16075766D01*
X5686281Y16222135D01*
X5677463Y16237409D01*
X5673658Y16244000D01*
X5657185Y16311901D01*
X5680038Y16377927D01*
X5734959Y16421118D01*
X5781045Y16430000D01*
X6328492Y16430000D01*
X6328495Y16430001D01*
X6521681Y16468428D01*
X6521693Y16468431D01*
X6703671Y16543808D01*
X6703684Y16543815D01*
X6867462Y16653249D01*
X6867466Y16653252D01*
X7006748Y16792534D01*
X7006751Y16792538D01*
X7116185Y16956316D01*
X7116192Y16956329D01*
X7191569Y17138308D01*
X7191569Y17138310D01*
X7199862Y17180000D01*
X6396988Y17180000D01*
X6414205Y17189940D01*
X6470060Y17245795D01*
X6509556Y17314204D01*
X6530000Y17390504D01*
X6530000Y17469496D01*
X6509556Y17545796D01*
X6470060Y17614205D01*
X6414205Y17670060D01*
X6396988Y17680000D01*
X7199862Y17680000D01*
X7191569Y17721691D01*
X7191569Y17721693D01*
X7116192Y17903672D01*
X7116185Y17903685D01*
X7006751Y18067463D01*
X7006748Y18067467D01*
X6867466Y18206749D01*
X6867462Y18206752D01*
X6703684Y18316186D01*
X6703671Y18316193D01*
X6521693Y18391570D01*
X6521681Y18391573D01*
X6328495Y18430000D01*
X5930000Y18430000D01*
X5930000Y17730000D01*
X5430000Y17730000D01*
X5430000Y18430000D01*
X5031504Y18430000D01*
X4838318Y18391573D01*
X4838306Y18391570D01*
X4656328Y18316193D01*
X4656315Y18316186D01*
X4492537Y18206752D01*
X4492533Y18206749D01*
X4353251Y18067467D01*
X4353248Y18067463D01*
X4243814Y17903685D01*
X4243807Y17903672D01*
X4168430Y17721693D01*
X4168430Y17721691D01*
X4160138Y17680000D01*
X2769862Y17680000D01*
X2761569Y17721691D01*
X2761569Y17721693D01*
X2686192Y17903672D01*
X2686185Y17903685D01*
X2576751Y18067463D01*
X2576748Y18067467D01*
X2437466Y18206749D01*
X2437462Y18206752D01*
X2273684Y18316186D01*
X2273671Y18316193D01*
X2091693Y18391570D01*
X2091681Y18391573D01*
X1898495Y18430000D01*
X1750000Y18430000D01*
X1750000Y17730000D01*
X1250000Y17730000D01*
X1250000Y18430000D01*
X1101504Y18430000D01*
X908318Y18391573D01*
X908306Y18391570D01*
X726328Y18316193D01*
X726310Y18316183D01*
X693390Y18294186D01*
X626713Y18273308D01*
X559333Y18291793D01*
X512643Y18343772D01*
X500500Y18397288D01*
X500500Y23397845D01*
X18400000Y23397845D01*
X18400000Y22750000D01*
X19316988Y22750000D01*
X19284075Y22692993D01*
X19250000Y22565826D01*
X19250000Y22434174D01*
X19284075Y22307007D01*
X19316988Y22250000D01*
X18400000Y22250000D01*
X18400000Y21602156D01*
X18406401Y21542628D01*
X18406403Y21542621D01*
X18456645Y21407914D01*
X18456649Y21407907D01*
X18542809Y21292813D01*
X18542812Y21292810D01*
X18657906Y21206650D01*
X18657913Y21206646D01*
X18792620Y21156404D01*
X18792627Y21156402D01*
X18852155Y21150001D01*
X18852172Y21150000D01*
X19500000Y21150000D01*
X19500000Y22066988D01*
X19557007Y22034075D01*
X19684174Y22000000D01*
X19815826Y22000000D01*
X19942993Y22034075D01*
X20000000Y22066988D01*
X20000000Y21150000D01*
X20647828Y21150000D01*
X20647844Y21150001D01*
X20707372Y21156402D01*
X20707379Y21156404D01*
X20842086Y21206646D01*
X20842093Y21206650D01*
X20957187Y21292810D01*
X20957190Y21292813D01*
X21043350Y21407907D01*
X21043354Y21407914D01*
X21092422Y21539471D01*
X21134293Y21595405D01*
X21199757Y21619822D01*
X21268030Y21604970D01*
X21296285Y21583819D01*
X21418599Y21461505D01*
X21495135Y21407914D01*
X21612165Y21325968D01*
X21612167Y21325967D01*
X21612170Y21325965D01*
X21826337Y21226097D01*
X21826343Y21226096D01*
X21826344Y21226095D01*
X21844329Y21221276D01*
X22054592Y21164937D01*
X22225319Y21150000D01*
X22289999Y21144341D01*
X22290000Y21144341D01*
X22290001Y21144341D01*
X22354681Y21150000D01*
X22525408Y21164937D01*
X22753663Y21226097D01*
X22967830Y21325965D01*
X23161401Y21461505D01*
X23328495Y21628599D01*
X23464035Y21822170D01*
X23563903Y22036337D01*
X23625063Y22264592D01*
X23645659Y22500000D01*
X23625063Y22735408D01*
X23563903Y22963663D01*
X23464035Y23177829D01*
X23448345Y23200238D01*
X23328494Y23371403D01*
X23161402Y23538494D01*
X23161395Y23538499D01*
X22967834Y23674033D01*
X22967830Y23674035D01*
X22896727Y23707191D01*
X22753663Y23773903D01*
X22753659Y23773904D01*
X22753655Y23773906D01*
X22525413Y23835062D01*
X22525403Y23835064D01*
X22290001Y23855659D01*
X22289999Y23855659D01*
X22054596Y23835064D01*
X22054586Y23835062D01*
X21826344Y23773906D01*
X21826335Y23773902D01*
X21612171Y23674036D01*
X21612169Y23674035D01*
X21418600Y23538497D01*
X21296284Y23416181D01*
X21234961Y23382697D01*
X21165269Y23387681D01*
X21109336Y23429553D01*
X21092421Y23460530D01*
X21043354Y23592087D01*
X21043350Y23592094D01*
X20957190Y23707188D01*
X20957187Y23707191D01*
X20842093Y23793351D01*
X20842086Y23793355D01*
X20707379Y23843597D01*
X20707372Y23843599D01*
X20647844Y23850000D01*
X20000000Y23850000D01*
X20000000Y22933012D01*
X19942993Y22965925D01*
X19815826Y23000000D01*
X19684174Y23000000D01*
X19557007Y22965925D01*
X19500000Y22933012D01*
X19500000Y23850000D01*
X18852155Y23850000D01*
X18792627Y23843599D01*
X18792620Y23843597D01*
X18657913Y23793355D01*
X18657906Y23793351D01*
X18542812Y23707191D01*
X18542809Y23707188D01*
X18456649Y23592094D01*
X18456645Y23592087D01*
X18406403Y23457380D01*
X18406401Y23457373D01*
X18400000Y23397845D01*
X500500Y23397845D01*
X500500Y23994587D01*
X500972Y24005394D01*
X508396Y24090248D01*
X514739Y24162758D01*
X518490Y24184034D01*
X557969Y24331373D01*
X565362Y24351682D01*
X629823Y24489919D01*
X640629Y24508634D01*
X728119Y24633583D01*
X742007Y24650135D01*
X849865Y24757993D01*
X866417Y24771881D01*
X991366Y24859371D01*
X1010081Y24870177D01*
X1148320Y24934639D01*
X1168627Y24942031D01*
X1315966Y24981510D01*
X1337242Y24985261D01*
X1469885Y24996866D01*
X1494606Y24999028D01*
X1505413Y24999500D01*
X1565892Y24999500D01*
X55434108Y24999500D01*
X55494587Y24999500D01*
X55505394Y24999028D01*
G37*
%TD.AperFunction*%
%TA.AperFunction,Conductor*%
G36*
X35477501Y17352815D02*
G01*
X35523256Y17300011D01*
X35533200Y17230853D01*
X35527503Y17207545D01*
X35513686Y17168061D01*
X35513686Y17168060D01*
X35494751Y17000003D01*
X35494751Y16999998D01*
X35513685Y16831944D01*
X35569545Y16672306D01*
X35569547Y16672303D01*
X35659518Y16529116D01*
X35659523Y16529110D01*
X35779109Y16409524D01*
X35779115Y16409519D01*
X35922302Y16319548D01*
X35922305Y16319546D01*
X35922309Y16319545D01*
X35922310Y16319544D01*
X35944153Y16311901D01*
X36081943Y16263686D01*
X36249997Y16244751D01*
X36250000Y16244751D01*
X36250003Y16244751D01*
X36418056Y16263686D01*
X36418059Y16263687D01*
X36577690Y16319544D01*
X36631721Y16353495D01*
X36697693Y16372500D01*
X40188719Y16372500D01*
X40255758Y16352815D01*
X40276400Y16336181D01*
X41484549Y15128032D01*
X41513908Y15081307D01*
X41521399Y15059901D01*
X41569544Y14922309D01*
X41569547Y14922303D01*
X41659518Y14779116D01*
X41659523Y14779110D01*
X41779109Y14659524D01*
X41779115Y14659519D01*
X41922302Y14569548D01*
X41922305Y14569546D01*
X41922309Y14569545D01*
X41922310Y14569544D01*
X41963112Y14555267D01*
X42081943Y14513686D01*
X42249997Y14494751D01*
X42250000Y14494751D01*
X42250003Y14494751D01*
X42418056Y14513686D01*
X42423100Y14515451D01*
X42577690Y14569544D01*
X42577692Y14569546D01*
X42577694Y14569546D01*
X42577697Y14569548D01*
X42720884Y14659519D01*
X42720885Y14659520D01*
X42720890Y14659523D01*
X42840477Y14779110D01*
X42852327Y14797969D01*
X42930452Y14922303D01*
X42930452Y14922305D01*
X42930456Y14922310D01*
X42932623Y14928505D01*
X42973343Y14985281D01*
X43038295Y15011031D01*
X43106857Y14997576D01*
X43137347Y14975234D01*
X43672986Y14439594D01*
X43672989Y14439592D01*
X43672992Y14439589D01*
X43674856Y14438344D01*
X43675613Y14437437D01*
X43677700Y14435725D01*
X43677375Y14435330D01*
X43719662Y14384734D01*
X43728373Y14315410D01*
X43718352Y14282836D01*
X43686098Y14213665D01*
X43686094Y14213656D01*
X43624938Y13985414D01*
X43624936Y13985404D01*
X43604341Y13750001D01*
X43604341Y13750000D01*
X43624936Y13514597D01*
X43624938Y13514587D01*
X43686094Y13286345D01*
X43686096Y13286341D01*
X43686097Y13286337D01*
X43716615Y13220891D01*
X43785965Y13072170D01*
X43785967Y13072166D01*
X43836499Y13000000D01*
X43921505Y12878599D01*
X44088599Y12711505D01*
X44166145Y12657207D01*
X44282165Y12575968D01*
X44282167Y12575967D01*
X44282170Y12575965D01*
X44496337Y12476097D01*
X44496343Y12476096D01*
X44496344Y12476095D01*
X44526343Y12468057D01*
X44724592Y12414937D01*
X44901034Y12399500D01*
X44959999Y12394341D01*
X44960000Y12394341D01*
X44960001Y12394341D01*
X45018966Y12399500D01*
X45195408Y12414937D01*
X45423663Y12476097D01*
X45637830Y12575965D01*
X45831401Y12711505D01*
X45953329Y12833434D01*
X46014648Y12866916D01*
X46084340Y12861932D01*
X46140274Y12820061D01*
X46157189Y12789083D01*
X46206202Y12657672D01*
X46206206Y12657665D01*
X46292452Y12542456D01*
X46292455Y12542453D01*
X46407664Y12456207D01*
X46407671Y12456203D01*
X46542517Y12405909D01*
X46542516Y12405909D01*
X46549444Y12405165D01*
X46602127Y12399500D01*
X48397872Y12399501D01*
X48457483Y12405909D01*
X48592331Y12456204D01*
X48707546Y12542454D01*
X48793796Y12657669D01*
X48844091Y12792517D01*
X48850500Y12852127D01*
X48850499Y14175501D01*
X48870184Y14242539D01*
X48922987Y14288294D01*
X48974499Y14299500D01*
X50479638Y14299500D01*
X50546677Y14279815D01*
X50567319Y14263181D01*
X52310508Y12519992D01*
X52354401Y12476099D01*
X52397912Y12432588D01*
X52500679Y12363921D01*
X52500692Y12363914D01*
X52534303Y12349992D01*
X52534304Y12349992D01*
X52614885Y12316614D01*
X52736116Y12292500D01*
X52736126Y12292500D01*
X52738031Y12292312D01*
X52738975Y12291931D01*
X52742091Y12291311D01*
X52741973Y12290721D01*
X52802821Y12266156D01*
X52827462Y12240032D01*
X52961505Y12048599D01*
X52961506Y12048598D01*
X53128597Y11881507D01*
X53128603Y11881502D01*
X53314158Y11751575D01*
X53357783Y11696998D01*
X53364977Y11627500D01*
X53333454Y11565145D01*
X53314158Y11548425D01*
X53128597Y11418495D01*
X52961505Y11251403D01*
X52825965Y11057831D01*
X52825964Y11057829D01*
X52726098Y10843665D01*
X52726094Y10843656D01*
X52664938Y10615414D01*
X52664936Y10615404D01*
X52644341Y10380001D01*
X52644341Y10380000D01*
X52664936Y10144597D01*
X52664938Y10144587D01*
X52726094Y9916345D01*
X52726096Y9916341D01*
X52726097Y9916337D01*
X52807724Y9741288D01*
X52825965Y9702170D01*
X52825967Y9702166D01*
X52920786Y9566752D01*
X52943666Y9534075D01*
X52961501Y9508605D01*
X52961506Y9508598D01*
X53128597Y9341507D01*
X53128603Y9341502D01*
X53314158Y9211575D01*
X53357783Y9156998D01*
X53364977Y9087500D01*
X53333454Y9025145D01*
X53314158Y9008425D01*
X53128597Y8878495D01*
X52961505Y8711403D01*
X52825965Y8517831D01*
X52825964Y8517829D01*
X52726098Y8303665D01*
X52726094Y8303656D01*
X52664938Y8075414D01*
X52664936Y8075404D01*
X52644341Y7840001D01*
X52644341Y7840000D01*
X52664936Y7604597D01*
X52664938Y7604587D01*
X52726094Y7376345D01*
X52726096Y7376341D01*
X52726097Y7376337D01*
X52825965Y7162170D01*
X52825967Y7162166D01*
X52920024Y7027840D01*
X52959904Y6970885D01*
X52961501Y6968605D01*
X52961506Y6968598D01*
X53128597Y6801507D01*
X53128603Y6801502D01*
X53314158Y6671575D01*
X53357783Y6616998D01*
X53364977Y6547500D01*
X53333454Y6485145D01*
X53314158Y6468425D01*
X53128597Y6338495D01*
X52961505Y6171403D01*
X52825965Y5977831D01*
X52825964Y5977829D01*
X52726098Y5763665D01*
X52726094Y5763656D01*
X52664938Y5535414D01*
X52664936Y5535404D01*
X52644341Y5300001D01*
X52644341Y5300000D01*
X52664936Y5064597D01*
X52664938Y5064587D01*
X52691258Y4966359D01*
X52689595Y4896509D01*
X52659164Y4846585D01*
X52039410Y4226829D01*
X51849992Y4037411D01*
X51815246Y4002665D01*
X51762586Y3950006D01*
X51762585Y3950004D01*
X51693923Y3847244D01*
X51693914Y3847227D01*
X51685025Y3825770D01*
X51685026Y3825769D01*
X51646614Y3733036D01*
X51646612Y3733028D01*
X51627230Y3635592D01*
X51627231Y3635591D01*
X51622500Y3611804D01*
X51622500Y2634280D01*
X51602815Y2567241D01*
X51586181Y2546599D01*
X51526401Y2486819D01*
X51465078Y2453334D01*
X51438720Y2450500D01*
X46071985Y2450500D01*
X46004946Y2470185D01*
X45959191Y2522989D01*
X45949247Y2592147D01*
X45952210Y2606594D01*
X45990636Y2750000D01*
X45093012Y2750000D01*
X45125925Y2807007D01*
X45160000Y2934174D01*
X45160000Y3065826D01*
X45125925Y3192993D01*
X45093012Y3250000D01*
X45990636Y3250000D01*
X45990635Y3250001D01*
X45952210Y3393406D01*
X45953873Y3463256D01*
X45993035Y3521119D01*
X46057264Y3548623D01*
X46071985Y3549500D01*
X47488804Y3549500D01*
X47488805Y3549501D01*
X47610035Y3573614D01*
X47690784Y3607063D01*
X47724233Y3620917D01*
X47827008Y3689589D01*
X47914411Y3776992D01*
X49621968Y5484551D01*
X49668688Y5513908D01*
X49827690Y5569544D01*
X49827692Y5569545D01*
X49827697Y5569548D01*
X49970884Y5659519D01*
X49970885Y5659520D01*
X49970890Y5659523D01*
X50090477Y5779110D01*
X50180452Y5922303D01*
X50180454Y5922306D01*
X50180454Y5922308D01*
X50180456Y5922310D01*
X50236313Y6081941D01*
X50236313Y6081942D01*
X50236314Y6081944D01*
X50255249Y6249998D01*
X50255249Y6250003D01*
X50236314Y6418057D01*
X50180454Y6577695D01*
X50180452Y6577698D01*
X50090481Y6720885D01*
X50090476Y6720891D01*
X49970890Y6840477D01*
X49970884Y6840482D01*
X49827697Y6930453D01*
X49827694Y6930455D01*
X49668056Y6986315D01*
X49500003Y7005249D01*
X49499997Y7005249D01*
X49331943Y6986315D01*
X49172305Y6930455D01*
X49172302Y6930453D01*
X49029115Y6840482D01*
X49029109Y6840477D01*
X48909523Y6720891D01*
X48909518Y6720885D01*
X48819547Y6577698D01*
X48819545Y6577695D01*
X48763910Y6418696D01*
X48734549Y6371970D01*
X48109426Y5746846D01*
X48048103Y5713361D01*
X47978412Y5718345D01*
X47922478Y5760216D01*
X47898061Y5825681D01*
X47912913Y5893954D01*
X47916752Y5900500D01*
X47925512Y5914444D01*
X47930456Y5922310D01*
X47986313Y6081941D01*
X47986313Y6081942D01*
X47986314Y6081944D01*
X48005249Y6249998D01*
X48005249Y6250003D01*
X47986314Y6418057D01*
X47930454Y6577695D01*
X47930452Y6577698D01*
X47840481Y6720885D01*
X47840476Y6720891D01*
X47720890Y6840477D01*
X47720884Y6840482D01*
X47577697Y6930453D01*
X47577694Y6930455D01*
X47418056Y6986315D01*
X47250003Y7005249D01*
X47249997Y7005249D01*
X47081943Y6986315D01*
X46922305Y6930455D01*
X46922302Y6930453D01*
X46779115Y6840482D01*
X46779109Y6840477D01*
X46659523Y6720891D01*
X46659518Y6720885D01*
X46569547Y6577698D01*
X46569545Y6577695D01*
X46513910Y6418696D01*
X46484549Y6371970D01*
X45526400Y5413819D01*
X45465077Y5380334D01*
X45438719Y5377500D01*
X36188192Y5377500D01*
X36066973Y5353388D01*
X36066965Y5353386D01*
X36021372Y5334500D01*
X36021371Y5334500D01*
X35952773Y5306087D01*
X35952761Y5306080D01*
X35889317Y5263687D01*
X35889316Y5263686D01*
X35849989Y5237410D01*
X34999398Y4386819D01*
X34938075Y4353334D01*
X34911717Y4350500D01*
X33602129Y4350500D01*
X33602123Y4350499D01*
X33542516Y4344092D01*
X33407671Y4293798D01*
X33407664Y4293794D01*
X33292455Y4207548D01*
X33292452Y4207545D01*
X33206206Y4092336D01*
X33206202Y4092329D01*
X33155908Y3957483D01*
X33151510Y3916570D01*
X33149500Y3897873D01*
X33149500Y3183225D01*
X33149501Y2574500D01*
X33129816Y2507461D01*
X33077013Y2461706D01*
X33025501Y2450500D01*
X32032503Y2450500D01*
X31965464Y2470185D01*
X31919709Y2522989D01*
X31909765Y2592147D01*
X31912728Y2606593D01*
X31945175Y2727690D01*
X31955063Y2764592D01*
X31975659Y3000000D01*
X31955063Y3235408D01*
X31893903Y3463663D01*
X31794035Y3677829D01*
X31788731Y3685405D01*
X31658494Y3871403D01*
X31491402Y4038494D01*
X31491401Y4038495D01*
X31352829Y4135524D01*
X31300375Y4172253D01*
X31256752Y4226829D01*
X31247500Y4273827D01*
X31247500Y10000001D01*
X43604341Y10000001D01*
X43604341Y10000000D01*
X43624936Y9764597D01*
X43624938Y9764587D01*
X43686094Y9536345D01*
X43686096Y9536341D01*
X43686097Y9536337D01*
X43736864Y9427467D01*
X43785965Y9322170D01*
X43785967Y9322166D01*
X43875112Y9194855D01*
X43921505Y9128599D01*
X44088599Y8961505D01*
X44165135Y8907914D01*
X44282165Y8825968D01*
X44282167Y8825967D01*
X44282170Y8825965D01*
X44496337Y8726097D01*
X44724592Y8664937D01*
X44895319Y8650000D01*
X44959999Y8644341D01*
X44960000Y8644341D01*
X44960001Y8644341D01*
X45024681Y8650000D01*
X45195408Y8664937D01*
X45423663Y8726097D01*
X45637830Y8825965D01*
X45831401Y8961505D01*
X45953717Y9083822D01*
X46015036Y9117304D01*
X46084728Y9112320D01*
X46140662Y9070449D01*
X46157577Y9039472D01*
X46206646Y8907912D01*
X46206649Y8907907D01*
X46292809Y8792813D01*
X46292812Y8792810D01*
X46407906Y8706650D01*
X46407913Y8706646D01*
X46542620Y8656404D01*
X46542627Y8656402D01*
X46602155Y8650001D01*
X46602172Y8650000D01*
X47250000Y8650000D01*
X47250000Y9566988D01*
X47307007Y9534075D01*
X47434174Y9500000D01*
X47565826Y9500000D01*
X47692993Y9534075D01*
X47750000Y9566988D01*
X47750000Y8650000D01*
X48397828Y8650000D01*
X48397844Y8650001D01*
X48457372Y8656402D01*
X48457379Y8656404D01*
X48592086Y8706646D01*
X48592093Y8706650D01*
X48707187Y8792810D01*
X48707190Y8792813D01*
X48793350Y8907907D01*
X48793354Y8907914D01*
X48843596Y9042621D01*
X48843598Y9042628D01*
X48849999Y9102156D01*
X48850000Y9102173D01*
X48850000Y9750000D01*
X47933012Y9750000D01*
X47965925Y9807007D01*
X48000000Y9934174D01*
X48000000Y10065826D01*
X47965925Y10192993D01*
X47933012Y10250000D01*
X48850000Y10250000D01*
X48850000Y10897828D01*
X48849999Y10897845D01*
X48843598Y10957373D01*
X48843596Y10957380D01*
X48793354Y11092087D01*
X48793350Y11092094D01*
X48707190Y11207188D01*
X48707187Y11207191D01*
X48592093Y11293351D01*
X48592086Y11293355D01*
X48457379Y11343597D01*
X48457372Y11343599D01*
X48397844Y11350000D01*
X47750000Y11350000D01*
X47750000Y10433012D01*
X47692993Y10465925D01*
X47565826Y10500000D01*
X47434174Y10500000D01*
X47307007Y10465925D01*
X47250000Y10433012D01*
X47250000Y11350000D01*
X46602155Y11350000D01*
X46542627Y11343599D01*
X46542620Y11343597D01*
X46407913Y11293355D01*
X46407906Y11293351D01*
X46292812Y11207191D01*
X46292809Y11207188D01*
X46206649Y11092094D01*
X46206645Y11092087D01*
X46157578Y10960530D01*
X46115707Y10904596D01*
X46050242Y10880179D01*
X45981969Y10895031D01*
X45953715Y10916181D01*
X45909366Y10960530D01*
X45831401Y11038495D01*
X45831397Y11038498D01*
X45831396Y11038499D01*
X45637834Y11174033D01*
X45637830Y11174035D01*
X45566727Y11207191D01*
X45423663Y11273903D01*
X45423659Y11273904D01*
X45423655Y11273906D01*
X45195413Y11335062D01*
X45195403Y11335064D01*
X44960001Y11355659D01*
X44959999Y11355659D01*
X44724596Y11335064D01*
X44724586Y11335062D01*
X44496344Y11273906D01*
X44496335Y11273902D01*
X44282171Y11174036D01*
X44282169Y11174035D01*
X44088597Y11038495D01*
X43921505Y10871403D01*
X43785965Y10677831D01*
X43785964Y10677829D01*
X43686098Y10463665D01*
X43686094Y10463656D01*
X43624938Y10235414D01*
X43624936Y10235404D01*
X43604341Y10000001D01*
X31247500Y10000001D01*
X31247500Y13000003D01*
X32494751Y13000003D01*
X32494751Y12999998D01*
X32513685Y12831944D01*
X32569545Y12672306D01*
X32569547Y12672303D01*
X32659518Y12529116D01*
X32659523Y12529110D01*
X32779109Y12409524D01*
X32779115Y12409519D01*
X32922302Y12319548D01*
X32922305Y12319546D01*
X32922309Y12319545D01*
X32922310Y12319544D01*
X32978155Y12300003D01*
X33081943Y12263686D01*
X33249997Y12244751D01*
X33250000Y12244751D01*
X33250003Y12244751D01*
X33418056Y12263686D01*
X33425115Y12266156D01*
X33577690Y12319544D01*
X33631721Y12353495D01*
X33697693Y12372500D01*
X34561804Y12372500D01*
X34561805Y12372501D01*
X34683035Y12396614D01*
X34763784Y12430063D01*
X34797233Y12443917D01*
X34900008Y12512589D01*
X34987411Y12599992D01*
X35871968Y13484551D01*
X35918688Y13513908D01*
X36077690Y13569544D01*
X36077692Y13569545D01*
X36077697Y13569548D01*
X36220884Y13659519D01*
X36220885Y13659520D01*
X36220890Y13659523D01*
X36340477Y13779110D01*
X36340479Y13779112D01*
X36340481Y13779116D01*
X36430452Y13922303D01*
X36430454Y13922306D01*
X36430454Y13922308D01*
X36430456Y13922310D01*
X36486313Y14081941D01*
X36486313Y14081942D01*
X36486314Y14081944D01*
X36505249Y14249998D01*
X36505249Y14250003D01*
X36486314Y14418057D01*
X36433306Y14569544D01*
X36430456Y14577690D01*
X36430455Y14577691D01*
X36430454Y14577695D01*
X36430452Y14577698D01*
X36340481Y14720885D01*
X36340476Y14720891D01*
X36220890Y14840477D01*
X36220884Y14840482D01*
X36077697Y14930453D01*
X36077694Y14930455D01*
X35918056Y14986315D01*
X35750003Y15005249D01*
X35749997Y15005249D01*
X35581943Y14986315D01*
X35422305Y14930455D01*
X35422302Y14930453D01*
X35279115Y14840482D01*
X35279109Y14840477D01*
X35159523Y14720891D01*
X35159518Y14720885D01*
X35069547Y14577698D01*
X35069545Y14577695D01*
X35021222Y14439594D01*
X35015175Y14422310D01*
X35013910Y14418696D01*
X34984549Y14371970D01*
X34276400Y13663819D01*
X34215077Y13630334D01*
X34188719Y13627500D01*
X33697693Y13627500D01*
X33631721Y13646506D01*
X33577692Y13680455D01*
X33577691Y13680456D01*
X33577690Y13680456D01*
X33539370Y13693865D01*
X33418056Y13736315D01*
X33250003Y13755249D01*
X33249997Y13755249D01*
X33081943Y13736315D01*
X32922305Y13680455D01*
X32922302Y13680453D01*
X32779115Y13590482D01*
X32779109Y13590477D01*
X32659523Y13470891D01*
X32659518Y13470885D01*
X32569547Y13327698D01*
X32569545Y13327695D01*
X32513685Y13168057D01*
X32494751Y13000003D01*
X31247500Y13000003D01*
X31247500Y16058720D01*
X31267185Y16125759D01*
X31283814Y16146397D01*
X32371968Y17234551D01*
X32418688Y17263908D01*
X32577690Y17319544D01*
X32631721Y17353495D01*
X32697693Y17372500D01*
X35410462Y17372500D01*
X35477501Y17352815D01*
G37*
%TD.AperFunction*%
%TD*%
M02*
