%TF.GenerationSoftware,KiCad,Pcbnew,8.0.6*%
%TF.CreationDate,2025-02-28T22:10:36+01:00*%
%TF.ProjectId,stm8s-target-v1,73746d38-732d-4746-9172-6765742d7631,rev?*%
%TF.SameCoordinates,PX3d09000PY6590fa0*%
%TF.FileFunction,Paste,Top*%
%TF.FilePolarity,Positive*%
%FSLAX46Y46*%
G04 Gerber Fmt 4.6, Leading zero omitted, Abs format (unit mm)*
G04 Created by KiCad (PCBNEW 8.0.6) date 2025-02-28 22:10:36*
%MOMM*%
%LPD*%
G01*
G04 APERTURE LIST*
G04 Aperture macros list*
%AMRoundRect*
0 Rectangle with rounded corners*
0 $1 Rounding radius*
0 $2 $3 $4 $5 $6 $7 $8 $9 X,Y pos of 4 corners*
0 Add a 4 corners polygon primitive as box body*
4,1,4,$2,$3,$4,$5,$6,$7,$8,$9,$2,$3,0*
0 Add four circle primitives for the rounded corners*
1,1,$1+$1,$2,$3*
1,1,$1+$1,$4,$5*
1,1,$1+$1,$6,$7*
1,1,$1+$1,$8,$9*
0 Add four rect primitives between the rounded corners*
20,1,$1+$1,$2,$3,$4,$5,0*
20,1,$1+$1,$4,$5,$6,$7,0*
20,1,$1+$1,$6,$7,$8,$9,0*
20,1,$1+$1,$8,$9,$2,$3,0*%
%AMFreePoly0*
4,1,6,0.325000,0.000000,0.325000,-0.150000,-0.175000,-0.150000,-0.175000,0.150000,0.175000,0.150000,0.325000,0.000000,0.325000,0.000000,$1*%
%AMFreePoly1*
4,1,6,0.325000,0.000000,0.175000,-0.150000,-0.175000,-0.150000,-0.175000,0.150000,0.325000,0.150000,0.325000,0.000000,0.325000,0.000000,$1*%
%AMFreePoly2*
4,1,6,0.150000,-0.175000,-0.150000,-0.175000,-0.150000,0.175000,0.000000,0.325000,0.150000,0.325000,0.150000,-0.175000,0.150000,-0.175000,$1*%
%AMFreePoly3*
4,1,6,0.150000,0.175000,0.150000,-0.175000,-0.150000,-0.175000,-0.150000,0.325000,0.000000,0.325000,0.150000,0.175000,0.150000,0.175000,$1*%
%AMFreePoly4*
4,1,6,0.175000,-0.150000,-0.175000,-0.150000,-0.325000,0.000000,-0.325000,0.150000,0.175000,0.150000,0.175000,-0.150000,0.175000,-0.150000,$1*%
%AMFreePoly5*
4,1,7,0.175000,-0.150000,-0.175000,-0.150000,-0.325000,-0.150000,-0.325000,0.000000,-0.175000,0.150000,0.175000,0.150000,0.175000,-0.150000,0.175000,-0.150000,$1*%
%AMFreePoly6*
4,1,6,0.150000,-0.175000,0.000000,-0.325000,-0.150000,-0.325000,-0.150000,0.175000,0.150000,0.175000,0.150000,-0.175000,0.150000,-0.175000,$1*%
%AMFreePoly7*
4,1,6,0.150000,-0.325000,0.000000,-0.325000,-0.150000,-0.175000,-0.150000,0.175000,0.150000,0.175000,0.150000,-0.325000,0.150000,-0.325000,$1*%
G04 Aperture macros list end*
%ADD10RoundRect,0.112500X-0.187500X-0.112500X0.187500X-0.112500X0.187500X0.112500X-0.187500X0.112500X0*%
%ADD11RoundRect,0.225000X-0.225000X-0.250000X0.225000X-0.250000X0.225000X0.250000X-0.225000X0.250000X0*%
%ADD12RoundRect,0.200000X0.275000X-0.200000X0.275000X0.200000X-0.275000X0.200000X-0.275000X-0.200000X0*%
%ADD13RoundRect,0.250000X0.475000X-0.250000X0.475000X0.250000X-0.475000X0.250000X-0.475000X-0.250000X0*%
%ADD14RoundRect,0.200000X-0.200000X-0.275000X0.200000X-0.275000X0.200000X0.275000X-0.200000X0.275000X0*%
%ADD15RoundRect,0.200000X-0.275000X0.200000X-0.275000X-0.200000X0.275000X-0.200000X0.275000X0.200000X0*%
%ADD16RoundRect,0.218750X0.256250X-0.218750X0.256250X0.218750X-0.256250X0.218750X-0.256250X-0.218750X0*%
%ADD17FreePoly0,270.000000*%
%ADD18R,0.300000X0.700000*%
%ADD19FreePoly1,270.000000*%
%ADD20FreePoly2,270.000000*%
%ADD21R,0.700000X0.300000*%
%ADD22FreePoly3,270.000000*%
%ADD23FreePoly4,270.000000*%
%ADD24FreePoly5,270.000000*%
%ADD25FreePoly6,270.000000*%
%ADD26FreePoly7,270.000000*%
%ADD27R,1.450000X0.600000*%
%ADD28R,1.450000X0.300000*%
%ADD29RoundRect,0.250000X-0.250000X-0.475000X0.250000X-0.475000X0.250000X0.475000X-0.250000X0.475000X0*%
%ADD30R,0.900000X1.000000*%
%ADD31R,1.700000X0.550000*%
%ADD32RoundRect,0.225000X0.250000X-0.225000X0.250000X0.225000X-0.250000X0.225000X-0.250000X-0.225000X0*%
%ADD33RoundRect,0.087500X-0.725000X-0.087500X0.725000X-0.087500X0.725000X0.087500X-0.725000X0.087500X0*%
%ADD34RoundRect,0.225000X0.225000X0.250000X-0.225000X0.250000X-0.225000X-0.250000X0.225000X-0.250000X0*%
%ADD35RoundRect,0.200000X0.200000X0.275000X-0.200000X0.275000X-0.200000X-0.275000X0.200000X-0.275000X0*%
%ADD36RoundRect,0.375000X-0.625000X-0.375000X0.625000X-0.375000X0.625000X0.375000X-0.625000X0.375000X0*%
%ADD37RoundRect,0.500000X-0.500000X-1.400000X0.500000X-1.400000X0.500000X1.400000X-0.500000X1.400000X0*%
G04 APERTURE END LIST*
D10*
%TO.C,D8*%
X20900000Y18500000D03*
X23000000Y18500000D03*
%TD*%
%TO.C,D7*%
X20950000Y15250000D03*
X23050000Y15250000D03*
%TD*%
D11*
%TO.C,C6*%
X40450000Y13750000D03*
X42000000Y13750000D03*
%TD*%
D12*
%TO.C,R9*%
X27500000Y6500000D03*
X27500000Y8150000D03*
%TD*%
D13*
%TO.C,C1*%
X10000000Y6000000D03*
X10000000Y7900000D03*
%TD*%
D14*
%TO.C,R1*%
X12425000Y18750000D03*
X14075000Y18750000D03*
%TD*%
%TO.C,R8*%
X26000000Y19000000D03*
X27650000Y19000000D03*
%TD*%
D15*
%TO.C,R6*%
X48000000Y7150000D03*
X48000000Y5500000D03*
%TD*%
D16*
%TO.C,D1*%
X2000000Y1500000D03*
X2000000Y3075000D03*
%TD*%
%TO.C,D4*%
X7000000Y1500000D03*
X7000000Y3075000D03*
%TD*%
D15*
%TO.C,R4*%
X4500000Y6650000D03*
X4500000Y5000000D03*
%TD*%
D17*
%TO.C,U3*%
X37037500Y15975000D03*
D18*
X36537500Y15800000D03*
X36037500Y15800000D03*
X35537500Y15800000D03*
D19*
X35037500Y15975000D03*
D20*
X34562500Y15500000D03*
D21*
X34737500Y15000000D03*
X34737500Y14500000D03*
X34737500Y14000000D03*
D22*
X34562500Y13500000D03*
D23*
X35037500Y13025000D03*
D18*
X35537500Y13200000D03*
X36037500Y13200000D03*
X36537500Y13200000D03*
D24*
X37037500Y13025000D03*
D25*
X37512500Y13500000D03*
D21*
X37337500Y14000000D03*
X37337500Y14500000D03*
X37337500Y15000000D03*
D26*
X37512500Y15500000D03*
%TD*%
D16*
%TO.C,D5*%
X4500000Y1500000D03*
X4500000Y3075000D03*
%TD*%
D15*
%TO.C,R3*%
X7000000Y6650000D03*
X7000000Y5000000D03*
%TD*%
D27*
%TO.C,J7*%
X6595000Y16360000D03*
X6595000Y15560000D03*
D28*
X6595000Y14360000D03*
X6595000Y13360000D03*
X6595000Y12860000D03*
X6595000Y11860000D03*
D27*
X6595000Y10660000D03*
X6595000Y9860000D03*
X6595000Y9860000D03*
X6595000Y10660000D03*
D28*
X6595000Y11360000D03*
X6595000Y12360000D03*
X6595000Y13860000D03*
X6595000Y14860000D03*
D27*
X6595000Y15560000D03*
X6595000Y16360000D03*
%TD*%
D29*
%TO.C,C2*%
X22600000Y6500000D03*
X24500000Y6500000D03*
%TD*%
D30*
%TO.C,S1*%
X1950000Y22900000D03*
X1950000Y21300000D03*
X6050000Y21300000D03*
X6050000Y22900000D03*
D31*
X4000000Y23525000D03*
%TD*%
D32*
%TO.C,C5*%
X32250000Y16275000D03*
X32250000Y14725000D03*
%TD*%
D14*
%TO.C,R2*%
X12425000Y20500000D03*
X14075000Y20500000D03*
%TD*%
D16*
%TO.C,D3*%
X50500000Y2000000D03*
X50500000Y3575000D03*
%TD*%
D15*
%TO.C,R7*%
X50500000Y7150000D03*
X50500000Y5500000D03*
%TD*%
D11*
%TO.C,C4*%
X12500000Y17000000D03*
X14050000Y17000000D03*
%TD*%
D16*
%TO.C,D2*%
X48000000Y1925000D03*
X48000000Y3500000D03*
%TD*%
D33*
%TO.C,U2*%
X11775000Y15000000D03*
X11775000Y14500000D03*
X11775000Y14000000D03*
X11775000Y13500000D03*
X11775000Y13000000D03*
X16000000Y13000000D03*
X16000000Y13500000D03*
X16000000Y14000000D03*
X16000000Y14500000D03*
X16000000Y15000000D03*
%TD*%
D34*
%TO.C,C3*%
X24050000Y8500000D03*
X22500000Y8500000D03*
%TD*%
D15*
%TO.C,R5*%
X2000000Y6650000D03*
X2000000Y5000000D03*
%TD*%
D35*
%TO.C,R12*%
X22650000Y13000000D03*
X21000000Y13000000D03*
%TD*%
D36*
%TO.C,U1*%
X13200000Y7300000D03*
X13200000Y5000000D03*
D37*
X19500000Y5000000D03*
D36*
X13200000Y2700000D03*
%TD*%
D10*
%TO.C,D6*%
X12250000Y22750000D03*
X14350000Y22750000D03*
%TD*%
D32*
%TO.C,C7*%
X30500000Y14750000D03*
X30500000Y16300000D03*
%TD*%
M02*
