%TF.GenerationSoftware,KiCad,Pcbnew,8.0.6*%
%TF.CreationDate,2025-02-28T22:10:36+01:00*%
%TF.ProjectId,stm8s-target-v1,73746d38-732d-4746-9172-6765742d7631,rev?*%
%TF.SameCoordinates,PX3d09000PY6590fa0*%
%TF.FileFunction,Legend,Top*%
%TF.FilePolarity,Positive*%
%FSLAX46Y46*%
G04 Gerber Fmt 4.6, Leading zero omitted, Abs format (unit mm)*
G04 Created by KiCad (PCBNEW 8.0.6) date 2025-02-28 22:10:36*
%MOMM*%
%LPD*%
G01*
G04 APERTURE LIST*
%ADD10C,0.150000*%
%ADD11C,0.080000*%
%ADD12C,0.120000*%
%ADD13C,0.200000*%
G04 APERTURE END LIST*
D10*
X21928207Y23960181D02*
X21594874Y24436372D01*
X21356779Y23960181D02*
X21356779Y24960181D01*
X21356779Y24960181D02*
X21737731Y24960181D01*
X21737731Y24960181D02*
X21832969Y24912562D01*
X21832969Y24912562D02*
X21880588Y24864943D01*
X21880588Y24864943D02*
X21928207Y24769705D01*
X21928207Y24769705D02*
X21928207Y24626848D01*
X21928207Y24626848D02*
X21880588Y24531610D01*
X21880588Y24531610D02*
X21832969Y24483991D01*
X21832969Y24483991D02*
X21737731Y24436372D01*
X21737731Y24436372D02*
X21356779Y24436372D01*
X22356779Y24483991D02*
X22690112Y24483991D01*
X22832969Y23960181D02*
X22356779Y23960181D01*
X22356779Y23960181D02*
X22356779Y24960181D01*
X22356779Y24960181D02*
X22832969Y24960181D01*
X23213922Y24007800D02*
X23356779Y23960181D01*
X23356779Y23960181D02*
X23594874Y23960181D01*
X23594874Y23960181D02*
X23690112Y24007800D01*
X23690112Y24007800D02*
X23737731Y24055420D01*
X23737731Y24055420D02*
X23785350Y24150658D01*
X23785350Y24150658D02*
X23785350Y24245896D01*
X23785350Y24245896D02*
X23737731Y24341134D01*
X23737731Y24341134D02*
X23690112Y24388753D01*
X23690112Y24388753D02*
X23594874Y24436372D01*
X23594874Y24436372D02*
X23404398Y24483991D01*
X23404398Y24483991D02*
X23309160Y24531610D01*
X23309160Y24531610D02*
X23261541Y24579229D01*
X23261541Y24579229D02*
X23213922Y24674467D01*
X23213922Y24674467D02*
X23213922Y24769705D01*
X23213922Y24769705D02*
X23261541Y24864943D01*
X23261541Y24864943D02*
X23309160Y24912562D01*
X23309160Y24912562D02*
X23404398Y24960181D01*
X23404398Y24960181D02*
X23642493Y24960181D01*
X23642493Y24960181D02*
X23785350Y24912562D01*
X24213922Y24483991D02*
X24547255Y24483991D01*
X24690112Y23960181D02*
X24213922Y23960181D01*
X24213922Y23960181D02*
X24213922Y24960181D01*
X24213922Y24960181D02*
X24690112Y24960181D01*
X24975827Y24960181D02*
X25547255Y24960181D01*
X25261541Y23960181D02*
X25261541Y24960181D01*
D11*
X3434649Y1671679D02*
X2934649Y1671679D01*
X2934649Y1671679D02*
X2934649Y1862155D01*
X2934649Y1862155D02*
X2958459Y1909774D01*
X2958459Y1909774D02*
X2982268Y1933584D01*
X2982268Y1933584D02*
X3029887Y1957393D01*
X3029887Y1957393D02*
X3101316Y1957393D01*
X3101316Y1957393D02*
X3148935Y1933584D01*
X3148935Y1933584D02*
X3172744Y1909774D01*
X3172744Y1909774D02*
X3196554Y1862155D01*
X3196554Y1862155D02*
X3196554Y1671679D01*
X2934649Y2124060D02*
X3434649Y2243108D01*
X3434649Y2243108D02*
X3077506Y2338346D01*
X3077506Y2338346D02*
X3434649Y2433584D01*
X3434649Y2433584D02*
X2934649Y2552631D01*
X3434649Y3028822D02*
X3196554Y2862156D01*
X3434649Y2743108D02*
X2934649Y2743108D01*
X2934649Y2743108D02*
X2934649Y2933584D01*
X2934649Y2933584D02*
X2958459Y2981203D01*
X2958459Y2981203D02*
X2982268Y3005013D01*
X2982268Y3005013D02*
X3029887Y3028822D01*
X3029887Y3028822D02*
X3101316Y3028822D01*
X3101316Y3028822D02*
X3148935Y3005013D01*
X3148935Y3005013D02*
X3172744Y2981203D01*
X3172744Y2981203D02*
X3196554Y2933584D01*
X3196554Y2933584D02*
X3196554Y2743108D01*
D10*
X37110588Y24832562D02*
X37015350Y24880181D01*
X37015350Y24880181D02*
X36872493Y24880181D01*
X36872493Y24880181D02*
X36729636Y24832562D01*
X36729636Y24832562D02*
X36634398Y24737324D01*
X36634398Y24737324D02*
X36586779Y24642086D01*
X36586779Y24642086D02*
X36539160Y24451610D01*
X36539160Y24451610D02*
X36539160Y24308753D01*
X36539160Y24308753D02*
X36586779Y24118277D01*
X36586779Y24118277D02*
X36634398Y24023039D01*
X36634398Y24023039D02*
X36729636Y23927800D01*
X36729636Y23927800D02*
X36872493Y23880181D01*
X36872493Y23880181D02*
X36967731Y23880181D01*
X36967731Y23880181D02*
X37110588Y23927800D01*
X37110588Y23927800D02*
X37158207Y23975420D01*
X37158207Y23975420D02*
X37158207Y24308753D01*
X37158207Y24308753D02*
X36967731Y24308753D01*
X38062969Y23880181D02*
X37586779Y23880181D01*
X37586779Y23880181D02*
X37586779Y24880181D01*
X38396303Y23880181D02*
X38396303Y24880181D01*
X38729636Y24880181D02*
X39301064Y24880181D01*
X39015350Y23880181D02*
X39015350Y24880181D01*
X40205826Y23975420D02*
X40158207Y23927800D01*
X40158207Y23927800D02*
X40015350Y23880181D01*
X40015350Y23880181D02*
X39920112Y23880181D01*
X39920112Y23880181D02*
X39777255Y23927800D01*
X39777255Y23927800D02*
X39682017Y24023039D01*
X39682017Y24023039D02*
X39634398Y24118277D01*
X39634398Y24118277D02*
X39586779Y24308753D01*
X39586779Y24308753D02*
X39586779Y24451610D01*
X39586779Y24451610D02*
X39634398Y24642086D01*
X39634398Y24642086D02*
X39682017Y24737324D01*
X39682017Y24737324D02*
X39777255Y24832562D01*
X39777255Y24832562D02*
X39920112Y24880181D01*
X39920112Y24880181D02*
X40015350Y24880181D01*
X40015350Y24880181D02*
X40158207Y24832562D01*
X40158207Y24832562D02*
X40205826Y24784943D01*
X40634398Y23880181D02*
X40634398Y24880181D01*
X40634398Y24403991D02*
X41205826Y24403991D01*
X41205826Y23880181D02*
X41205826Y24880181D01*
D11*
X5934649Y2207393D02*
X5696554Y2040727D01*
X5934649Y1921679D02*
X5434649Y1921679D01*
X5434649Y1921679D02*
X5434649Y2112155D01*
X5434649Y2112155D02*
X5458459Y2159774D01*
X5458459Y2159774D02*
X5482268Y2183584D01*
X5482268Y2183584D02*
X5529887Y2207393D01*
X5529887Y2207393D02*
X5601316Y2207393D01*
X5601316Y2207393D02*
X5648935Y2183584D01*
X5648935Y2183584D02*
X5672744Y2159774D01*
X5672744Y2159774D02*
X5696554Y2112155D01*
X5696554Y2112155D02*
X5696554Y1921679D01*
X5434649Y2374060D02*
X5934649Y2707393D01*
X5434649Y2707393D02*
X5934649Y2374060D01*
D10*
X52610588Y22332562D02*
X52515350Y22380181D01*
X52515350Y22380181D02*
X52372493Y22380181D01*
X52372493Y22380181D02*
X52229636Y22332562D01*
X52229636Y22332562D02*
X52134398Y22237324D01*
X52134398Y22237324D02*
X52086779Y22142086D01*
X52086779Y22142086D02*
X52039160Y21951610D01*
X52039160Y21951610D02*
X52039160Y21808753D01*
X52039160Y21808753D02*
X52086779Y21618277D01*
X52086779Y21618277D02*
X52134398Y21523039D01*
X52134398Y21523039D02*
X52229636Y21427800D01*
X52229636Y21427800D02*
X52372493Y21380181D01*
X52372493Y21380181D02*
X52467731Y21380181D01*
X52467731Y21380181D02*
X52610588Y21427800D01*
X52610588Y21427800D02*
X52658207Y21475420D01*
X52658207Y21475420D02*
X52658207Y21808753D01*
X52658207Y21808753D02*
X52467731Y21808753D01*
X53562969Y21380181D02*
X53086779Y21380181D01*
X53086779Y21380181D02*
X53086779Y22380181D01*
X53896303Y21380181D02*
X53896303Y22380181D01*
X54229636Y22380181D02*
X54801064Y22380181D01*
X54515350Y21380181D02*
X54515350Y22380181D01*
X55705826Y21475420D02*
X55658207Y21427800D01*
X55658207Y21427800D02*
X55515350Y21380181D01*
X55515350Y21380181D02*
X55420112Y21380181D01*
X55420112Y21380181D02*
X55277255Y21427800D01*
X55277255Y21427800D02*
X55182017Y21523039D01*
X55182017Y21523039D02*
X55134398Y21618277D01*
X55134398Y21618277D02*
X55086779Y21808753D01*
X55086779Y21808753D02*
X55086779Y21951610D01*
X55086779Y21951610D02*
X55134398Y22142086D01*
X55134398Y22142086D02*
X55182017Y22237324D01*
X55182017Y22237324D02*
X55277255Y22332562D01*
X55277255Y22332562D02*
X55420112Y22380181D01*
X55420112Y22380181D02*
X55515350Y22380181D01*
X55515350Y22380181D02*
X55658207Y22332562D01*
X55658207Y22332562D02*
X55705826Y22284943D01*
X56134398Y21380181D02*
X56134398Y22380181D01*
X56134398Y21903991D02*
X56705826Y21903991D01*
X56705826Y21380181D02*
X56705826Y22380181D01*
D11*
X56101316Y1897870D02*
X56101316Y2255012D01*
X55887030Y2040727D02*
X56529887Y1897870D01*
X56315601Y2207393D02*
X56315601Y1850251D01*
X56529887Y2064536D02*
X55887030Y2207393D01*
X56387030Y2707393D02*
X56410840Y2683584D01*
X56410840Y2683584D02*
X56434649Y2612155D01*
X56434649Y2612155D02*
X56434649Y2564536D01*
X56434649Y2564536D02*
X56410840Y2493108D01*
X56410840Y2493108D02*
X56363220Y2445489D01*
X56363220Y2445489D02*
X56315601Y2421679D01*
X56315601Y2421679D02*
X56220363Y2397870D01*
X56220363Y2397870D02*
X56148935Y2397870D01*
X56148935Y2397870D02*
X56053697Y2421679D01*
X56053697Y2421679D02*
X56006078Y2445489D01*
X56006078Y2445489D02*
X55958459Y2493108D01*
X55958459Y2493108D02*
X55934649Y2564536D01*
X55934649Y2564536D02*
X55934649Y2612155D01*
X55934649Y2612155D02*
X55958459Y2683584D01*
X55958459Y2683584D02*
X55982268Y2707393D01*
X55934649Y2850251D02*
X55934649Y3135965D01*
X56434649Y2993108D02*
X55934649Y2993108D01*
X56410840Y3278822D02*
X56434649Y3350250D01*
X56434649Y3350250D02*
X56434649Y3469298D01*
X56434649Y3469298D02*
X56410840Y3516917D01*
X56410840Y3516917D02*
X56387030Y3540726D01*
X56387030Y3540726D02*
X56339411Y3564536D01*
X56339411Y3564536D02*
X56291792Y3564536D01*
X56291792Y3564536D02*
X56244173Y3540726D01*
X56244173Y3540726D02*
X56220363Y3516917D01*
X56220363Y3516917D02*
X56196554Y3469298D01*
X56196554Y3469298D02*
X56172744Y3374060D01*
X56172744Y3374060D02*
X56148935Y3326441D01*
X56148935Y3326441D02*
X56125125Y3302631D01*
X56125125Y3302631D02*
X56077506Y3278822D01*
X56077506Y3278822D02*
X56029887Y3278822D01*
X56029887Y3278822D02*
X55982268Y3302631D01*
X55982268Y3302631D02*
X55958459Y3326441D01*
X55958459Y3326441D02*
X55934649Y3374060D01*
X55934649Y3374060D02*
X55934649Y3493107D01*
X55934649Y3493107D02*
X55958459Y3564536D01*
D10*
X24289160Y677800D02*
X24432017Y630181D01*
X24432017Y630181D02*
X24670112Y630181D01*
X24670112Y630181D02*
X24765350Y677800D01*
X24765350Y677800D02*
X24812969Y725420D01*
X24812969Y725420D02*
X24860588Y820658D01*
X24860588Y820658D02*
X24860588Y915896D01*
X24860588Y915896D02*
X24812969Y1011134D01*
X24812969Y1011134D02*
X24765350Y1058753D01*
X24765350Y1058753D02*
X24670112Y1106372D01*
X24670112Y1106372D02*
X24479636Y1153991D01*
X24479636Y1153991D02*
X24384398Y1201610D01*
X24384398Y1201610D02*
X24336779Y1249229D01*
X24336779Y1249229D02*
X24289160Y1344467D01*
X24289160Y1344467D02*
X24289160Y1439705D01*
X24289160Y1439705D02*
X24336779Y1534943D01*
X24336779Y1534943D02*
X24384398Y1582562D01*
X24384398Y1582562D02*
X24479636Y1630181D01*
X24479636Y1630181D02*
X24717731Y1630181D01*
X24717731Y1630181D02*
X24860588Y1582562D01*
X25193922Y1630181D02*
X25432017Y630181D01*
X25432017Y630181D02*
X25622493Y1344467D01*
X25622493Y1344467D02*
X25812969Y630181D01*
X25812969Y630181D02*
X26051065Y1630181D01*
X26432017Y630181D02*
X26432017Y1630181D01*
D11*
X8184649Y1850251D02*
X8184649Y2135965D01*
X8684649Y1993108D02*
X8184649Y1993108D01*
X8184649Y2255012D02*
X8684649Y2588345D01*
X8184649Y2588345D02*
X8684649Y2255012D01*
X55934649Y12350251D02*
X55934649Y12635965D01*
X56434649Y12493108D02*
X55934649Y12493108D01*
X55934649Y12755012D02*
X56434649Y13088345D01*
X55934649Y13088345D02*
X56434649Y12755012D01*
D10*
X44860588Y1582562D02*
X44765350Y1630181D01*
X44765350Y1630181D02*
X44622493Y1630181D01*
X44622493Y1630181D02*
X44479636Y1582562D01*
X44479636Y1582562D02*
X44384398Y1487324D01*
X44384398Y1487324D02*
X44336779Y1392086D01*
X44336779Y1392086D02*
X44289160Y1201610D01*
X44289160Y1201610D02*
X44289160Y1058753D01*
X44289160Y1058753D02*
X44336779Y868277D01*
X44336779Y868277D02*
X44384398Y773039D01*
X44384398Y773039D02*
X44479636Y677800D01*
X44479636Y677800D02*
X44622493Y630181D01*
X44622493Y630181D02*
X44717731Y630181D01*
X44717731Y630181D02*
X44860588Y677800D01*
X44860588Y677800D02*
X44908207Y725420D01*
X44908207Y725420D02*
X44908207Y1058753D01*
X44908207Y1058753D02*
X44717731Y1058753D01*
D11*
X56244173Y17171679D02*
X56244173Y17552631D01*
X56434649Y17362155D02*
X56053697Y17362155D01*
X55934649Y17743108D02*
X55934649Y18052632D01*
X55934649Y18052632D02*
X56125125Y17885965D01*
X56125125Y17885965D02*
X56125125Y17957394D01*
X56125125Y17957394D02*
X56148935Y18005013D01*
X56148935Y18005013D02*
X56172744Y18028822D01*
X56172744Y18028822D02*
X56220363Y18052632D01*
X56220363Y18052632D02*
X56339411Y18052632D01*
X56339411Y18052632D02*
X56387030Y18028822D01*
X56387030Y18028822D02*
X56410840Y18005013D01*
X56410840Y18005013D02*
X56434649Y17957394D01*
X56434649Y17957394D02*
X56434649Y17814537D01*
X56434649Y17814537D02*
X56410840Y17766918D01*
X56410840Y17766918D02*
X56387030Y17743108D01*
X55934649Y18195489D02*
X56434649Y18362155D01*
X56434649Y18362155D02*
X55934649Y18528822D01*
X55934649Y18647869D02*
X55934649Y18957393D01*
X55934649Y18957393D02*
X56125125Y18790726D01*
X56125125Y18790726D02*
X56125125Y18862155D01*
X56125125Y18862155D02*
X56148935Y18909774D01*
X56148935Y18909774D02*
X56172744Y18933583D01*
X56172744Y18933583D02*
X56220363Y18957393D01*
X56220363Y18957393D02*
X56339411Y18957393D01*
X56339411Y18957393D02*
X56387030Y18933583D01*
X56387030Y18933583D02*
X56410840Y18909774D01*
X56410840Y18909774D02*
X56434649Y18862155D01*
X56434649Y18862155D02*
X56434649Y18719298D01*
X56434649Y18719298D02*
X56410840Y18671679D01*
X56410840Y18671679D02*
X56387030Y18647869D01*
D10*
X20991541Y1630181D02*
X21610588Y1630181D01*
X21610588Y1630181D02*
X21277255Y1249229D01*
X21277255Y1249229D02*
X21420112Y1249229D01*
X21420112Y1249229D02*
X21515350Y1201610D01*
X21515350Y1201610D02*
X21562969Y1153991D01*
X21562969Y1153991D02*
X21610588Y1058753D01*
X21610588Y1058753D02*
X21610588Y820658D01*
X21610588Y820658D02*
X21562969Y725420D01*
X21562969Y725420D02*
X21515350Y677800D01*
X21515350Y677800D02*
X21420112Y630181D01*
X21420112Y630181D02*
X21134398Y630181D01*
X21134398Y630181D02*
X21039160Y677800D01*
X21039160Y677800D02*
X20991541Y725420D01*
X21896303Y1630181D02*
X22229636Y630181D01*
X22229636Y630181D02*
X22562969Y1630181D01*
X22801065Y1630181D02*
X23420112Y1630181D01*
X23420112Y1630181D02*
X23086779Y1249229D01*
X23086779Y1249229D02*
X23229636Y1249229D01*
X23229636Y1249229D02*
X23324874Y1201610D01*
X23324874Y1201610D02*
X23372493Y1153991D01*
X23372493Y1153991D02*
X23420112Y1058753D01*
X23420112Y1058753D02*
X23420112Y820658D01*
X23420112Y820658D02*
X23372493Y725420D01*
X23372493Y725420D02*
X23324874Y677800D01*
X23324874Y677800D02*
X23229636Y630181D01*
X23229636Y630181D02*
X22943922Y630181D01*
X22943922Y630181D02*
X22848684Y677800D01*
X22848684Y677800D02*
X22801065Y725420D01*
D11*
X48958459Y2683584D02*
X48934649Y2635965D01*
X48934649Y2635965D02*
X48934649Y2564536D01*
X48934649Y2564536D02*
X48958459Y2493108D01*
X48958459Y2493108D02*
X49006078Y2445489D01*
X49006078Y2445489D02*
X49053697Y2421679D01*
X49053697Y2421679D02*
X49148935Y2397870D01*
X49148935Y2397870D02*
X49220363Y2397870D01*
X49220363Y2397870D02*
X49315601Y2421679D01*
X49315601Y2421679D02*
X49363220Y2445489D01*
X49363220Y2445489D02*
X49410840Y2493108D01*
X49410840Y2493108D02*
X49434649Y2564536D01*
X49434649Y2564536D02*
X49434649Y2612155D01*
X49434649Y2612155D02*
X49410840Y2683584D01*
X49410840Y2683584D02*
X49387030Y2707393D01*
X49387030Y2707393D02*
X49220363Y2707393D01*
X49220363Y2707393D02*
X49220363Y2612155D01*
X49434649Y2921679D02*
X48934649Y2921679D01*
X48934649Y2921679D02*
X48934649Y3112155D01*
X48934649Y3112155D02*
X48958459Y3159774D01*
X48958459Y3159774D02*
X48982268Y3183584D01*
X48982268Y3183584D02*
X49029887Y3207393D01*
X49029887Y3207393D02*
X49101316Y3207393D01*
X49101316Y3207393D02*
X49148935Y3183584D01*
X49148935Y3183584D02*
X49172744Y3159774D01*
X49172744Y3159774D02*
X49196554Y3112155D01*
X49196554Y3112155D02*
X49196554Y2921679D01*
X49434649Y3421679D02*
X48934649Y3421679D01*
X48934649Y3755012D02*
X48934649Y3850250D01*
X48934649Y3850250D02*
X48958459Y3897869D01*
X48958459Y3897869D02*
X49006078Y3945488D01*
X49006078Y3945488D02*
X49101316Y3969298D01*
X49101316Y3969298D02*
X49267982Y3969298D01*
X49267982Y3969298D02*
X49363220Y3945488D01*
X49363220Y3945488D02*
X49410840Y3897869D01*
X49410840Y3897869D02*
X49434649Y3850250D01*
X49434649Y3850250D02*
X49434649Y3755012D01*
X49434649Y3755012D02*
X49410840Y3707393D01*
X49410840Y3707393D02*
X49363220Y3659774D01*
X49363220Y3659774D02*
X49267982Y3635965D01*
X49267982Y3635965D02*
X49101316Y3635965D01*
X49101316Y3635965D02*
X49006078Y3659774D01*
X49006078Y3659774D02*
X48958459Y3707393D01*
X48958459Y3707393D02*
X48934649Y3755012D01*
X49434649Y4445489D02*
X49434649Y4159775D01*
X49434649Y4302632D02*
X48934649Y4302632D01*
X48934649Y4302632D02*
X49006078Y4255013D01*
X49006078Y4255013D02*
X49053697Y4207394D01*
X49053697Y4207394D02*
X49077506Y4159775D01*
X49471678Y10370323D02*
X49471678Y10870323D01*
X49685964Y10394132D02*
X49757392Y10370323D01*
X49757392Y10370323D02*
X49876440Y10370323D01*
X49876440Y10370323D02*
X49924059Y10394132D01*
X49924059Y10394132D02*
X49947868Y10417942D01*
X49947868Y10417942D02*
X49971678Y10465561D01*
X49971678Y10465561D02*
X49971678Y10513180D01*
X49971678Y10513180D02*
X49947868Y10560799D01*
X49947868Y10560799D02*
X49924059Y10584609D01*
X49924059Y10584609D02*
X49876440Y10608418D01*
X49876440Y10608418D02*
X49781202Y10632228D01*
X49781202Y10632228D02*
X49733583Y10656037D01*
X49733583Y10656037D02*
X49709773Y10679847D01*
X49709773Y10679847D02*
X49685964Y10727466D01*
X49685964Y10727466D02*
X49685964Y10775085D01*
X49685964Y10775085D02*
X49709773Y10822704D01*
X49709773Y10822704D02*
X49733583Y10846513D01*
X49733583Y10846513D02*
X49781202Y10870323D01*
X49781202Y10870323D02*
X49900249Y10870323D01*
X49900249Y10870323D02*
X49971678Y10846513D01*
X50185963Y10370323D02*
X50185963Y10870323D01*
X50185963Y10870323D02*
X50376439Y10870323D01*
X50376439Y10870323D02*
X50424058Y10846513D01*
X50424058Y10846513D02*
X50447868Y10822704D01*
X50447868Y10822704D02*
X50471677Y10775085D01*
X50471677Y10775085D02*
X50471677Y10703656D01*
X50471677Y10703656D02*
X50447868Y10656037D01*
X50447868Y10656037D02*
X50424058Y10632228D01*
X50424058Y10632228D02*
X50376439Y10608418D01*
X50376439Y10608418D02*
X50185963Y10608418D01*
X49471678Y9827256D02*
X49638345Y9827256D01*
X49709773Y9565351D02*
X49471678Y9565351D01*
X49471678Y9565351D02*
X49471678Y10065351D01*
X49471678Y10065351D02*
X49709773Y10065351D01*
X49924059Y9565351D02*
X49924059Y10065351D01*
X49924059Y10065351D02*
X50209773Y9565351D01*
X50209773Y9565351D02*
X50209773Y10065351D01*
X50424060Y9708208D02*
X50662155Y9708208D01*
X50376441Y9565351D02*
X50543107Y10065351D01*
X50543107Y10065351D02*
X50709774Y9565351D01*
X51043107Y9827256D02*
X51114535Y9803446D01*
X51114535Y9803446D02*
X51138345Y9779637D01*
X51138345Y9779637D02*
X51162154Y9732018D01*
X51162154Y9732018D02*
X51162154Y9660589D01*
X51162154Y9660589D02*
X51138345Y9612970D01*
X51138345Y9612970D02*
X51114535Y9589160D01*
X51114535Y9589160D02*
X51066916Y9565351D01*
X51066916Y9565351D02*
X50876440Y9565351D01*
X50876440Y9565351D02*
X50876440Y10065351D01*
X50876440Y10065351D02*
X51043107Y10065351D01*
X51043107Y10065351D02*
X51090726Y10041541D01*
X51090726Y10041541D02*
X51114535Y10017732D01*
X51114535Y10017732D02*
X51138345Y9970113D01*
X51138345Y9970113D02*
X51138345Y9922494D01*
X51138345Y9922494D02*
X51114535Y9874875D01*
X51114535Y9874875D02*
X51090726Y9851065D01*
X51090726Y9851065D02*
X51043107Y9827256D01*
X51043107Y9827256D02*
X50876440Y9827256D01*
X51614535Y9565351D02*
X51376440Y9565351D01*
X51376440Y9565351D02*
X51376440Y10065351D01*
X51781202Y9827256D02*
X51947869Y9827256D01*
X52019297Y9565351D02*
X51781202Y9565351D01*
X51781202Y9565351D02*
X51781202Y10065351D01*
X51781202Y10065351D02*
X52019297Y10065351D01*
X56101316Y4397870D02*
X56101316Y4755012D01*
X55887030Y4540727D02*
X56529887Y4397870D01*
X56315601Y4707393D02*
X56315601Y4350251D01*
X56529887Y4564536D02*
X55887030Y4707393D01*
X56434649Y4921679D02*
X55934649Y4921679D01*
X55934649Y4921679D02*
X55934649Y5040727D01*
X55934649Y5040727D02*
X55958459Y5112155D01*
X55958459Y5112155D02*
X56006078Y5159774D01*
X56006078Y5159774D02*
X56053697Y5183584D01*
X56053697Y5183584D02*
X56148935Y5207393D01*
X56148935Y5207393D02*
X56220363Y5207393D01*
X56220363Y5207393D02*
X56315601Y5183584D01*
X56315601Y5183584D02*
X56363220Y5159774D01*
X56363220Y5159774D02*
X56410840Y5112155D01*
X56410840Y5112155D02*
X56434649Y5040727D01*
X56434649Y5040727D02*
X56434649Y4921679D01*
X55934649Y5350251D02*
X55934649Y5635965D01*
X56434649Y5493108D02*
X55934649Y5493108D01*
X56434649Y6088345D02*
X56196554Y5921679D01*
X56434649Y5802631D02*
X55934649Y5802631D01*
X55934649Y5802631D02*
X55934649Y5993107D01*
X55934649Y5993107D02*
X55958459Y6040726D01*
X55958459Y6040726D02*
X55982268Y6064536D01*
X55982268Y6064536D02*
X56029887Y6088345D01*
X56029887Y6088345D02*
X56101316Y6088345D01*
X56101316Y6088345D02*
X56148935Y6064536D01*
X56148935Y6064536D02*
X56172744Y6040726D01*
X56172744Y6040726D02*
X56196554Y5993107D01*
X56196554Y5993107D02*
X56196554Y5802631D01*
D10*
X28360588Y1582562D02*
X28265350Y1630181D01*
X28265350Y1630181D02*
X28122493Y1630181D01*
X28122493Y1630181D02*
X27979636Y1582562D01*
X27979636Y1582562D02*
X27884398Y1487324D01*
X27884398Y1487324D02*
X27836779Y1392086D01*
X27836779Y1392086D02*
X27789160Y1201610D01*
X27789160Y1201610D02*
X27789160Y1058753D01*
X27789160Y1058753D02*
X27836779Y868277D01*
X27836779Y868277D02*
X27884398Y773039D01*
X27884398Y773039D02*
X27979636Y677800D01*
X27979636Y677800D02*
X28122493Y630181D01*
X28122493Y630181D02*
X28217731Y630181D01*
X28217731Y630181D02*
X28360588Y677800D01*
X28360588Y677800D02*
X28408207Y725420D01*
X28408207Y725420D02*
X28408207Y1058753D01*
X28408207Y1058753D02*
X28217731Y1058753D01*
X27193922Y24880181D02*
X27765350Y24880181D01*
X27479636Y23880181D02*
X27479636Y24880181D01*
X28003446Y24880181D02*
X28670112Y23880181D01*
X28670112Y24880181D02*
X28003446Y23880181D01*
X30384398Y23880181D02*
X30051065Y24356372D01*
X29812970Y23880181D02*
X29812970Y24880181D01*
X29812970Y24880181D02*
X30193922Y24880181D01*
X30193922Y24880181D02*
X30289160Y24832562D01*
X30289160Y24832562D02*
X30336779Y24784943D01*
X30336779Y24784943D02*
X30384398Y24689705D01*
X30384398Y24689705D02*
X30384398Y24546848D01*
X30384398Y24546848D02*
X30336779Y24451610D01*
X30336779Y24451610D02*
X30289160Y24403991D01*
X30289160Y24403991D02*
X30193922Y24356372D01*
X30193922Y24356372D02*
X29812970Y24356372D01*
X30717732Y24880181D02*
X31384398Y23880181D01*
X31384398Y24880181D02*
X30717732Y23880181D01*
X19340588Y24852562D02*
X19245350Y24900181D01*
X19245350Y24900181D02*
X19102493Y24900181D01*
X19102493Y24900181D02*
X18959636Y24852562D01*
X18959636Y24852562D02*
X18864398Y24757324D01*
X18864398Y24757324D02*
X18816779Y24662086D01*
X18816779Y24662086D02*
X18769160Y24471610D01*
X18769160Y24471610D02*
X18769160Y24328753D01*
X18769160Y24328753D02*
X18816779Y24138277D01*
X18816779Y24138277D02*
X18864398Y24043039D01*
X18864398Y24043039D02*
X18959636Y23947800D01*
X18959636Y23947800D02*
X19102493Y23900181D01*
X19102493Y23900181D02*
X19197731Y23900181D01*
X19197731Y23900181D02*
X19340588Y23947800D01*
X19340588Y23947800D02*
X19388207Y23995420D01*
X19388207Y23995420D02*
X19388207Y24328753D01*
X19388207Y24328753D02*
X19197731Y24328753D01*
D11*
X55958459Y14933584D02*
X55934649Y14885965D01*
X55934649Y14885965D02*
X55934649Y14814536D01*
X55934649Y14814536D02*
X55958459Y14743108D01*
X55958459Y14743108D02*
X56006078Y14695489D01*
X56006078Y14695489D02*
X56053697Y14671679D01*
X56053697Y14671679D02*
X56148935Y14647870D01*
X56148935Y14647870D02*
X56220363Y14647870D01*
X56220363Y14647870D02*
X56315601Y14671679D01*
X56315601Y14671679D02*
X56363220Y14695489D01*
X56363220Y14695489D02*
X56410840Y14743108D01*
X56410840Y14743108D02*
X56434649Y14814536D01*
X56434649Y14814536D02*
X56434649Y14862155D01*
X56434649Y14862155D02*
X56410840Y14933584D01*
X56410840Y14933584D02*
X56387030Y14957393D01*
X56387030Y14957393D02*
X56220363Y14957393D01*
X56220363Y14957393D02*
X56220363Y14862155D01*
X56434649Y15171679D02*
X55934649Y15171679D01*
X55934649Y15171679D02*
X56434649Y15457393D01*
X56434649Y15457393D02*
X55934649Y15457393D01*
X56434649Y15695489D02*
X55934649Y15695489D01*
X55934649Y15695489D02*
X55934649Y15814537D01*
X55934649Y15814537D02*
X55958459Y15885965D01*
X55958459Y15885965D02*
X56006078Y15933584D01*
X56006078Y15933584D02*
X56053697Y15957394D01*
X56053697Y15957394D02*
X56148935Y15981203D01*
X56148935Y15981203D02*
X56220363Y15981203D01*
X56220363Y15981203D02*
X56315601Y15957394D01*
X56315601Y15957394D02*
X56363220Y15933584D01*
X56363220Y15933584D02*
X56410840Y15885965D01*
X56410840Y15885965D02*
X56434649Y15814537D01*
X56434649Y15814537D02*
X56434649Y15695489D01*
D10*
X30158207Y4880181D02*
X29824874Y5356372D01*
X29586779Y4880181D02*
X29586779Y5880181D01*
X29586779Y5880181D02*
X29967731Y5880181D01*
X29967731Y5880181D02*
X30062969Y5832562D01*
X30062969Y5832562D02*
X30110588Y5784943D01*
X30110588Y5784943D02*
X30158207Y5689705D01*
X30158207Y5689705D02*
X30158207Y5546848D01*
X30158207Y5546848D02*
X30110588Y5451610D01*
X30110588Y5451610D02*
X30062969Y5403991D01*
X30062969Y5403991D02*
X29967731Y5356372D01*
X29967731Y5356372D02*
X29586779Y5356372D01*
X30539160Y4927800D02*
X30682017Y4880181D01*
X30682017Y4880181D02*
X30920112Y4880181D01*
X30920112Y4880181D02*
X31015350Y4927800D01*
X31015350Y4927800D02*
X31062969Y4975420D01*
X31062969Y4975420D02*
X31110588Y5070658D01*
X31110588Y5070658D02*
X31110588Y5165896D01*
X31110588Y5165896D02*
X31062969Y5261134D01*
X31062969Y5261134D02*
X31015350Y5308753D01*
X31015350Y5308753D02*
X30920112Y5356372D01*
X30920112Y5356372D02*
X30729636Y5403991D01*
X30729636Y5403991D02*
X30634398Y5451610D01*
X30634398Y5451610D02*
X30586779Y5499229D01*
X30586779Y5499229D02*
X30539160Y5594467D01*
X30539160Y5594467D02*
X30539160Y5689705D01*
X30539160Y5689705D02*
X30586779Y5784943D01*
X30586779Y5784943D02*
X30634398Y5832562D01*
X30634398Y5832562D02*
X30729636Y5880181D01*
X30729636Y5880181D02*
X30967731Y5880181D01*
X30967731Y5880181D02*
X31110588Y5832562D01*
X31396303Y5880181D02*
X31967731Y5880181D01*
X31682017Y4880181D02*
X31682017Y5880181D01*
D11*
X51458459Y2683584D02*
X51434649Y2635965D01*
X51434649Y2635965D02*
X51434649Y2564536D01*
X51434649Y2564536D02*
X51458459Y2493108D01*
X51458459Y2493108D02*
X51506078Y2445489D01*
X51506078Y2445489D02*
X51553697Y2421679D01*
X51553697Y2421679D02*
X51648935Y2397870D01*
X51648935Y2397870D02*
X51720363Y2397870D01*
X51720363Y2397870D02*
X51815601Y2421679D01*
X51815601Y2421679D02*
X51863220Y2445489D01*
X51863220Y2445489D02*
X51910840Y2493108D01*
X51910840Y2493108D02*
X51934649Y2564536D01*
X51934649Y2564536D02*
X51934649Y2612155D01*
X51934649Y2612155D02*
X51910840Y2683584D01*
X51910840Y2683584D02*
X51887030Y2707393D01*
X51887030Y2707393D02*
X51720363Y2707393D01*
X51720363Y2707393D02*
X51720363Y2612155D01*
X51934649Y2921679D02*
X51434649Y2921679D01*
X51434649Y2921679D02*
X51434649Y3112155D01*
X51434649Y3112155D02*
X51458459Y3159774D01*
X51458459Y3159774D02*
X51482268Y3183584D01*
X51482268Y3183584D02*
X51529887Y3207393D01*
X51529887Y3207393D02*
X51601316Y3207393D01*
X51601316Y3207393D02*
X51648935Y3183584D01*
X51648935Y3183584D02*
X51672744Y3159774D01*
X51672744Y3159774D02*
X51696554Y3112155D01*
X51696554Y3112155D02*
X51696554Y2921679D01*
X51934649Y3421679D02*
X51434649Y3421679D01*
X51434649Y3755012D02*
X51434649Y3850250D01*
X51434649Y3850250D02*
X51458459Y3897869D01*
X51458459Y3897869D02*
X51506078Y3945488D01*
X51506078Y3945488D02*
X51601316Y3969298D01*
X51601316Y3969298D02*
X51767982Y3969298D01*
X51767982Y3969298D02*
X51863220Y3945488D01*
X51863220Y3945488D02*
X51910840Y3897869D01*
X51910840Y3897869D02*
X51934649Y3850250D01*
X51934649Y3850250D02*
X51934649Y3755012D01*
X51934649Y3755012D02*
X51910840Y3707393D01*
X51910840Y3707393D02*
X51863220Y3659774D01*
X51863220Y3659774D02*
X51767982Y3635965D01*
X51767982Y3635965D02*
X51601316Y3635965D01*
X51601316Y3635965D02*
X51506078Y3659774D01*
X51506078Y3659774D02*
X51458459Y3707393D01*
X51458459Y3707393D02*
X51434649Y3755012D01*
X51482268Y4159775D02*
X51458459Y4183584D01*
X51458459Y4183584D02*
X51434649Y4231203D01*
X51434649Y4231203D02*
X51434649Y4350251D01*
X51434649Y4350251D02*
X51458459Y4397870D01*
X51458459Y4397870D02*
X51482268Y4421679D01*
X51482268Y4421679D02*
X51529887Y4445489D01*
X51529887Y4445489D02*
X51577506Y4445489D01*
X51577506Y4445489D02*
X51648935Y4421679D01*
X51648935Y4421679D02*
X51934649Y4135965D01*
X51934649Y4135965D02*
X51934649Y4445489D01*
D10*
X36789160Y1534943D02*
X36836779Y1582562D01*
X36836779Y1582562D02*
X36932017Y1630181D01*
X36932017Y1630181D02*
X37170112Y1630181D01*
X37170112Y1630181D02*
X37265350Y1582562D01*
X37265350Y1582562D02*
X37312969Y1534943D01*
X37312969Y1534943D02*
X37360588Y1439705D01*
X37360588Y1439705D02*
X37360588Y1344467D01*
X37360588Y1344467D02*
X37312969Y1201610D01*
X37312969Y1201610D02*
X36741541Y630181D01*
X36741541Y630181D02*
X37360588Y630181D01*
X42265350Y1296848D02*
X42265350Y630181D01*
X42027255Y1677800D02*
X41789160Y963515D01*
X41789160Y963515D02*
X42408207Y963515D01*
D11*
X56434649Y10207393D02*
X56196554Y10040727D01*
X56434649Y9921679D02*
X55934649Y9921679D01*
X55934649Y9921679D02*
X55934649Y10112155D01*
X55934649Y10112155D02*
X55958459Y10159774D01*
X55958459Y10159774D02*
X55982268Y10183584D01*
X55982268Y10183584D02*
X56029887Y10207393D01*
X56029887Y10207393D02*
X56101316Y10207393D01*
X56101316Y10207393D02*
X56148935Y10183584D01*
X56148935Y10183584D02*
X56172744Y10159774D01*
X56172744Y10159774D02*
X56196554Y10112155D01*
X56196554Y10112155D02*
X56196554Y9921679D01*
X55934649Y10374060D02*
X56434649Y10707393D01*
X55934649Y10707393D02*
X56434649Y10374060D01*
X56101316Y6897870D02*
X56101316Y7255012D01*
X55887030Y7040727D02*
X56529887Y6897870D01*
X56315601Y7207393D02*
X56315601Y6850251D01*
X56529887Y7064536D02*
X55887030Y7207393D01*
X56434649Y7707393D02*
X56196554Y7540727D01*
X56434649Y7421679D02*
X55934649Y7421679D01*
X55934649Y7421679D02*
X55934649Y7612155D01*
X55934649Y7612155D02*
X55958459Y7659774D01*
X55958459Y7659774D02*
X55982268Y7683584D01*
X55982268Y7683584D02*
X56029887Y7707393D01*
X56029887Y7707393D02*
X56101316Y7707393D01*
X56101316Y7707393D02*
X56148935Y7683584D01*
X56148935Y7683584D02*
X56172744Y7659774D01*
X56172744Y7659774D02*
X56196554Y7612155D01*
X56196554Y7612155D02*
X56196554Y7421679D01*
X55934649Y7850251D02*
X55934649Y8135965D01*
X56434649Y7993108D02*
X55934649Y7993108D01*
X56410840Y8278822D02*
X56434649Y8350250D01*
X56434649Y8350250D02*
X56434649Y8469298D01*
X56434649Y8469298D02*
X56410840Y8516917D01*
X56410840Y8516917D02*
X56387030Y8540726D01*
X56387030Y8540726D02*
X56339411Y8564536D01*
X56339411Y8564536D02*
X56291792Y8564536D01*
X56291792Y8564536D02*
X56244173Y8540726D01*
X56244173Y8540726D02*
X56220363Y8516917D01*
X56220363Y8516917D02*
X56196554Y8469298D01*
X56196554Y8469298D02*
X56172744Y8374060D01*
X56172744Y8374060D02*
X56148935Y8326441D01*
X56148935Y8326441D02*
X56125125Y8302631D01*
X56125125Y8302631D02*
X56077506Y8278822D01*
X56077506Y8278822D02*
X56029887Y8278822D01*
X56029887Y8278822D02*
X55982268Y8302631D01*
X55982268Y8302631D02*
X55958459Y8326441D01*
X55958459Y8326441D02*
X55934649Y8374060D01*
X55934649Y8374060D02*
X55934649Y8493107D01*
X55934649Y8493107D02*
X55958459Y8564536D01*
D10*
X35340588Y24772562D02*
X35245350Y24820181D01*
X35245350Y24820181D02*
X35102493Y24820181D01*
X35102493Y24820181D02*
X34959636Y24772562D01*
X34959636Y24772562D02*
X34864398Y24677324D01*
X34864398Y24677324D02*
X34816779Y24582086D01*
X34816779Y24582086D02*
X34769160Y24391610D01*
X34769160Y24391610D02*
X34769160Y24248753D01*
X34769160Y24248753D02*
X34816779Y24058277D01*
X34816779Y24058277D02*
X34864398Y23963039D01*
X34864398Y23963039D02*
X34959636Y23867800D01*
X34959636Y23867800D02*
X35102493Y23820181D01*
X35102493Y23820181D02*
X35197731Y23820181D01*
X35197731Y23820181D02*
X35340588Y23867800D01*
X35340588Y23867800D02*
X35388207Y23915420D01*
X35388207Y23915420D02*
X35388207Y24248753D01*
X35388207Y24248753D02*
X35197731Y24248753D01*
X39241541Y1630181D02*
X39860588Y1630181D01*
X39860588Y1630181D02*
X39527255Y1249229D01*
X39527255Y1249229D02*
X39670112Y1249229D01*
X39670112Y1249229D02*
X39765350Y1201610D01*
X39765350Y1201610D02*
X39812969Y1153991D01*
X39812969Y1153991D02*
X39860588Y1058753D01*
X39860588Y1058753D02*
X39860588Y820658D01*
X39860588Y820658D02*
X39812969Y725420D01*
X39812969Y725420D02*
X39765350Y677800D01*
X39765350Y677800D02*
X39670112Y630181D01*
X39670112Y630181D02*
X39384398Y630181D01*
X39384398Y630181D02*
X39289160Y677800D01*
X39289160Y677800D02*
X39241541Y725420D01*
X31860588Y1582562D02*
X31765350Y1630181D01*
X31765350Y1630181D02*
X31622493Y1630181D01*
X31622493Y1630181D02*
X31479636Y1582562D01*
X31479636Y1582562D02*
X31384398Y1487324D01*
X31384398Y1487324D02*
X31336779Y1392086D01*
X31336779Y1392086D02*
X31289160Y1201610D01*
X31289160Y1201610D02*
X31289160Y1058753D01*
X31289160Y1058753D02*
X31336779Y868277D01*
X31336779Y868277D02*
X31384398Y773039D01*
X31384398Y773039D02*
X31479636Y677800D01*
X31479636Y677800D02*
X31622493Y630181D01*
X31622493Y630181D02*
X31717731Y630181D01*
X31717731Y630181D02*
X31860588Y677800D01*
X31860588Y677800D02*
X31908207Y725420D01*
X31908207Y725420D02*
X31908207Y1058753D01*
X31908207Y1058753D02*
X31717731Y1058753D01*
X32336779Y630181D02*
X32336779Y1630181D01*
X32336779Y1630181D02*
X32717731Y1630181D01*
X32717731Y1630181D02*
X32812969Y1582562D01*
X32812969Y1582562D02*
X32860588Y1534943D01*
X32860588Y1534943D02*
X32908207Y1439705D01*
X32908207Y1439705D02*
X32908207Y1296848D01*
X32908207Y1296848D02*
X32860588Y1201610D01*
X32860588Y1201610D02*
X32812969Y1153991D01*
X32812969Y1153991D02*
X32717731Y1106372D01*
X32717731Y1106372D02*
X32336779Y1106372D01*
X33336779Y630181D02*
X33336779Y1630181D01*
X34003445Y1630181D02*
X34193921Y1630181D01*
X34193921Y1630181D02*
X34289159Y1582562D01*
X34289159Y1582562D02*
X34384397Y1487324D01*
X34384397Y1487324D02*
X34432016Y1296848D01*
X34432016Y1296848D02*
X34432016Y963515D01*
X34432016Y963515D02*
X34384397Y773039D01*
X34384397Y773039D02*
X34289159Y677800D01*
X34289159Y677800D02*
X34193921Y630181D01*
X34193921Y630181D02*
X34003445Y630181D01*
X34003445Y630181D02*
X33908207Y677800D01*
X33908207Y677800D02*
X33812969Y773039D01*
X33812969Y773039D02*
X33765350Y963515D01*
X33765350Y963515D02*
X33765350Y1296848D01*
X33765350Y1296848D02*
X33812969Y1487324D01*
X33812969Y1487324D02*
X33908207Y1582562D01*
X33908207Y1582562D02*
X34003445Y1630181D01*
X35384397Y630181D02*
X34812969Y630181D01*
X35098683Y630181D02*
X35098683Y1630181D01*
X35098683Y1630181D02*
X35003445Y1487324D01*
X35003445Y1487324D02*
X34908207Y1392086D01*
X34908207Y1392086D02*
X34812969Y1344467D01*
X2658207Y19130181D02*
X2324874Y19606372D01*
X2086779Y19130181D02*
X2086779Y20130181D01*
X2086779Y20130181D02*
X2467731Y20130181D01*
X2467731Y20130181D02*
X2562969Y20082562D01*
X2562969Y20082562D02*
X2610588Y20034943D01*
X2610588Y20034943D02*
X2658207Y19939705D01*
X2658207Y19939705D02*
X2658207Y19796848D01*
X2658207Y19796848D02*
X2610588Y19701610D01*
X2610588Y19701610D02*
X2562969Y19653991D01*
X2562969Y19653991D02*
X2467731Y19606372D01*
X2467731Y19606372D02*
X2086779Y19606372D01*
X3467731Y19177800D02*
X3372493Y19130181D01*
X3372493Y19130181D02*
X3182017Y19130181D01*
X3182017Y19130181D02*
X3086779Y19177800D01*
X3086779Y19177800D02*
X3039160Y19273039D01*
X3039160Y19273039D02*
X3039160Y19653991D01*
X3039160Y19653991D02*
X3086779Y19749229D01*
X3086779Y19749229D02*
X3182017Y19796848D01*
X3182017Y19796848D02*
X3372493Y19796848D01*
X3372493Y19796848D02*
X3467731Y19749229D01*
X3467731Y19749229D02*
X3515350Y19653991D01*
X3515350Y19653991D02*
X3515350Y19558753D01*
X3515350Y19558753D02*
X3039160Y19463515D01*
X3896303Y19177800D02*
X3991541Y19130181D01*
X3991541Y19130181D02*
X4182017Y19130181D01*
X4182017Y19130181D02*
X4277255Y19177800D01*
X4277255Y19177800D02*
X4324874Y19273039D01*
X4324874Y19273039D02*
X4324874Y19320658D01*
X4324874Y19320658D02*
X4277255Y19415896D01*
X4277255Y19415896D02*
X4182017Y19463515D01*
X4182017Y19463515D02*
X4039160Y19463515D01*
X4039160Y19463515D02*
X3943922Y19511134D01*
X3943922Y19511134D02*
X3896303Y19606372D01*
X3896303Y19606372D02*
X3896303Y19653991D01*
X3896303Y19653991D02*
X3943922Y19749229D01*
X3943922Y19749229D02*
X4039160Y19796848D01*
X4039160Y19796848D02*
X4182017Y19796848D01*
X4182017Y19796848D02*
X4277255Y19749229D01*
X5134398Y19177800D02*
X5039160Y19130181D01*
X5039160Y19130181D02*
X4848684Y19130181D01*
X4848684Y19130181D02*
X4753446Y19177800D01*
X4753446Y19177800D02*
X4705827Y19273039D01*
X4705827Y19273039D02*
X4705827Y19653991D01*
X4705827Y19653991D02*
X4753446Y19749229D01*
X4753446Y19749229D02*
X4848684Y19796848D01*
X4848684Y19796848D02*
X5039160Y19796848D01*
X5039160Y19796848D02*
X5134398Y19749229D01*
X5134398Y19749229D02*
X5182017Y19653991D01*
X5182017Y19653991D02*
X5182017Y19558753D01*
X5182017Y19558753D02*
X4705827Y19463515D01*
X5467732Y19796848D02*
X5848684Y19796848D01*
X5610589Y20130181D02*
X5610589Y19273039D01*
X5610589Y19273039D02*
X5658208Y19177800D01*
X5658208Y19177800D02*
X5753446Y19130181D01*
X5753446Y19130181D02*
X5848684Y19130181D01*
D11*
X49350250Y13315351D02*
X49516916Y12815351D01*
X49516916Y12815351D02*
X49683583Y13315351D01*
X50135963Y12862970D02*
X50112154Y12839160D01*
X50112154Y12839160D02*
X50040725Y12815351D01*
X50040725Y12815351D02*
X49993106Y12815351D01*
X49993106Y12815351D02*
X49921678Y12839160D01*
X49921678Y12839160D02*
X49874059Y12886780D01*
X49874059Y12886780D02*
X49850249Y12934399D01*
X49850249Y12934399D02*
X49826440Y13029637D01*
X49826440Y13029637D02*
X49826440Y13101065D01*
X49826440Y13101065D02*
X49850249Y13196303D01*
X49850249Y13196303D02*
X49874059Y13243922D01*
X49874059Y13243922D02*
X49921678Y13291541D01*
X49921678Y13291541D02*
X49993106Y13315351D01*
X49993106Y13315351D02*
X50040725Y13315351D01*
X50040725Y13315351D02*
X50112154Y13291541D01*
X50112154Y13291541D02*
X50135963Y13267732D01*
X50326440Y12958208D02*
X50564535Y12958208D01*
X50278821Y12815351D02*
X50445487Y13315351D01*
X50445487Y13315351D02*
X50612154Y12815351D01*
X50778820Y12815351D02*
X50778820Y13315351D01*
X50778820Y13315351D02*
X50969296Y13315351D01*
X50969296Y13315351D02*
X51016915Y13291541D01*
X51016915Y13291541D02*
X51040725Y13267732D01*
X51040725Y13267732D02*
X51064534Y13220113D01*
X51064534Y13220113D02*
X51064534Y13148684D01*
X51064534Y13148684D02*
X51040725Y13101065D01*
X51040725Y13101065D02*
X51016915Y13077256D01*
X51016915Y13077256D02*
X50969296Y13053446D01*
X50969296Y13053446D02*
X50778820Y13053446D01*
D10*
X20124819Y2666667D02*
X20839104Y2666667D01*
X20839104Y2666667D02*
X20981961Y2619048D01*
X20981961Y2619048D02*
X21077200Y2523810D01*
X21077200Y2523810D02*
X21124819Y2380953D01*
X21124819Y2380953D02*
X21124819Y2285715D01*
X20124819Y3619048D02*
X20124819Y3142858D01*
X20124819Y3142858D02*
X20601009Y3095239D01*
X20601009Y3095239D02*
X20553390Y3142858D01*
X20553390Y3142858D02*
X20505771Y3238096D01*
X20505771Y3238096D02*
X20505771Y3476191D01*
X20505771Y3476191D02*
X20553390Y3571429D01*
X20553390Y3571429D02*
X20601009Y3619048D01*
X20601009Y3619048D02*
X20696247Y3666667D01*
X20696247Y3666667D02*
X20934342Y3666667D01*
X20934342Y3666667D02*
X21029580Y3619048D01*
X21029580Y3619048D02*
X21077200Y3571429D01*
X21077200Y3571429D02*
X21124819Y3476191D01*
X21124819Y3476191D02*
X21124819Y3238096D01*
X21124819Y3238096D02*
X21077200Y3142858D01*
X21077200Y3142858D02*
X21029580Y3095239D01*
X7649819Y12776667D02*
X8364104Y12776667D01*
X8364104Y12776667D02*
X8506961Y12729048D01*
X8506961Y12729048D02*
X8602200Y12633810D01*
X8602200Y12633810D02*
X8649819Y12490953D01*
X8649819Y12490953D02*
X8649819Y12395715D01*
X7649819Y13157620D02*
X7649819Y13824286D01*
X7649819Y13824286D02*
X8649819Y13395715D01*
D12*
%TO.C,D8*%
X20340000Y19350000D02*
X20340000Y17650000D01*
X20340000Y19350000D02*
X23000000Y19350000D01*
X20340000Y17650000D02*
X23000000Y17650000D01*
%TO.C,D7*%
X20390000Y16100000D02*
X20390000Y14400000D01*
X20390000Y16100000D02*
X23050000Y16100000D01*
X20390000Y14400000D02*
X23050000Y14400000D01*
%TO.C,C6*%
X41084420Y14260000D02*
X41365580Y14260000D01*
X41084420Y13240000D02*
X41365580Y13240000D01*
%TO.C,R9*%
X26977500Y7087742D02*
X26977500Y7562258D01*
X28022500Y7087742D02*
X28022500Y7562258D01*
%TO.C,C1*%
X9265000Y6688748D02*
X9265000Y7211252D01*
X10735000Y6688748D02*
X10735000Y7211252D01*
%TO.C,R1*%
X13012742Y19272500D02*
X13487258Y19272500D01*
X13012742Y18227500D02*
X13487258Y18227500D01*
%TO.C,R8*%
X26587742Y19522500D02*
X27062258Y19522500D01*
X26587742Y18477500D02*
X27062258Y18477500D01*
%TO.C,R6*%
X47477500Y6562258D02*
X47477500Y6087742D01*
X48522500Y6562258D02*
X48522500Y6087742D01*
%TO.C,J5*%
X21670000Y1670000D02*
X21670000Y3000000D01*
X23000000Y1670000D02*
X21670000Y1670000D01*
X24270000Y4330000D02*
X31950000Y4330000D01*
X24270000Y1670000D02*
X24270000Y4330000D01*
X24270000Y1670000D02*
X31950000Y1670000D01*
X31950000Y1670000D02*
X31950000Y4330000D01*
%TO.C,D1*%
X1265000Y3087500D02*
X1265000Y802500D01*
X1265000Y802500D02*
X2735000Y802500D01*
X2735000Y802500D02*
X2735000Y3087500D01*
%TO.C,D4*%
X6265000Y3087500D02*
X6265000Y802500D01*
X6265000Y802500D02*
X7735000Y802500D01*
X7735000Y802500D02*
X7735000Y3087500D01*
%TO.C,J3*%
X26670000Y21170000D02*
X26670000Y22500000D01*
X28000000Y21170000D02*
X26670000Y21170000D01*
X29270000Y23830000D02*
X31870000Y23830000D01*
X29270000Y21170000D02*
X29270000Y23830000D01*
X29270000Y21170000D02*
X31870000Y21170000D01*
X31870000Y21170000D02*
X31870000Y23830000D01*
%TO.C,R4*%
X3977500Y6062258D02*
X3977500Y5587742D01*
X5022500Y6062258D02*
X5022500Y5587742D01*
%TO.C,U3*%
X34417500Y16120000D02*
X34417500Y15910000D01*
X34417500Y16120000D02*
X34627500Y16120000D01*
X34417500Y12880000D02*
X34417500Y13090000D01*
X34417500Y12880000D02*
X34627500Y12880000D01*
X37657500Y12880000D02*
X37447500Y12880000D01*
X37657500Y12880000D02*
X37657500Y13090000D01*
X37777500Y15950000D02*
X37447500Y16190000D01*
X37777500Y16430000D01*
X37777500Y15950000D01*
G36*
X37777500Y15950000D02*
G01*
X37447500Y16190000D01*
X37777500Y16430000D01*
X37777500Y15950000D01*
G37*
%TO.C,D5*%
X3765000Y3087500D02*
X3765000Y802500D01*
X3765000Y802500D02*
X5235000Y802500D01*
X5235000Y802500D02*
X5235000Y3087500D01*
%TO.C,J9*%
X34920000Y21170000D02*
X34920000Y22500000D01*
X36250000Y21170000D02*
X34920000Y21170000D01*
X37520000Y23830000D02*
X40120000Y23830000D01*
X37520000Y21170000D02*
X37520000Y23830000D01*
X37520000Y21170000D02*
X40120000Y21170000D01*
X40120000Y21170000D02*
X40120000Y23830000D01*
%TO.C,R3*%
X6477500Y6062258D02*
X6477500Y5587742D01*
X7522500Y6062258D02*
X7522500Y5587742D01*
%TO.C,J1*%
X43630000Y11330000D02*
X43630000Y8670000D01*
X46230000Y11330000D02*
X43630000Y11330000D01*
X46230000Y11330000D02*
X46230000Y8670000D01*
X46230000Y8670000D02*
X43630000Y8670000D01*
X47500000Y11330000D02*
X48830000Y11330000D01*
X48830000Y11330000D02*
X48830000Y10000000D01*
%TO.C,J7*%
X-1350000Y17810000D02*
X-1350000Y8410000D01*
X550000Y17810000D02*
X-1350000Y17810000D01*
X550000Y8410000D02*
X-1350000Y8410000D01*
X4450000Y17810000D02*
X2450000Y17810000D01*
X4450000Y8410000D02*
X2450000Y8410000D01*
%TO.C,C2*%
X23288748Y7235000D02*
X23811252Y7235000D01*
X23288748Y5765000D02*
X23811252Y5765000D01*
%TO.C,J4*%
X52670000Y19330000D02*
X54000000Y19330000D01*
X52670000Y18000000D02*
X52670000Y19330000D01*
X52670000Y16730000D02*
X52670000Y1430000D01*
X52670000Y16730000D02*
X55330000Y16730000D01*
X52670000Y1430000D02*
X55330000Y1430000D01*
X55330000Y16730000D02*
X55330000Y1430000D01*
%TO.C,JP1*%
X25250000Y15700000D02*
X25250000Y16300000D01*
X25950000Y17000000D02*
X27350000Y17000000D01*
X27350000Y15000000D02*
X25950000Y15000000D01*
X28050000Y16300000D02*
X28050000Y15700000D01*
X25250000Y16300000D02*
G75*
G02*
X25950000Y17000000I699999J1D01*
G01*
X25950000Y15000000D02*
G75*
G02*
X25250000Y15700000I-1J699999D01*
G01*
X27350000Y17000000D02*
G75*
G02*
X28050000Y16300000I0J-700000D01*
G01*
X28050000Y15700000D02*
G75*
G02*
X27350000Y15000000I-700000J0D01*
G01*
D13*
%TO.C,S1*%
X2800000Y20700000D02*
X5200000Y20700000D01*
D12*
%TO.C,C5*%
X32760000Y15359420D02*
X32760000Y15640580D01*
X31740000Y15359420D02*
X31740000Y15640580D01*
%TO.C,J2*%
X43630000Y15080000D02*
X43630000Y12420000D01*
X46230000Y15080000D02*
X43630000Y15080000D01*
X46230000Y15080000D02*
X46230000Y12420000D01*
X46230000Y12420000D02*
X43630000Y12420000D01*
X47500000Y15080000D02*
X48830000Y15080000D01*
X48830000Y15080000D02*
X48830000Y13750000D01*
%TO.C,J8*%
X44145000Y21450000D02*
X44145000Y18550000D01*
X46050000Y23355000D02*
X48950000Y23355000D01*
X46050000Y16645000D02*
X48950000Y16645000D01*
X50855000Y21450000D02*
X50855000Y18550000D01*
%TO.C,R2*%
X13012742Y21022500D02*
X13487258Y21022500D01*
X13012742Y19977500D02*
X13487258Y19977500D01*
%TO.C,D3*%
X49765000Y3587500D02*
X49765000Y1302500D01*
X49765000Y1302500D02*
X51235000Y1302500D01*
X51235000Y1302500D02*
X51235000Y3587500D01*
%TO.C,R7*%
X49977500Y6562258D02*
X49977500Y6087742D01*
X51022500Y6562258D02*
X51022500Y6087742D01*
%TO.C,C4*%
X13134420Y17510000D02*
X13415580Y17510000D01*
X13134420Y16490000D02*
X13415580Y16490000D01*
%TO.C,JP2*%
X25250000Y12700000D02*
X25250000Y13300000D01*
X25950000Y14000000D02*
X27350000Y14000000D01*
X27350000Y12000000D02*
X25950000Y12000000D01*
X28050000Y13300000D02*
X28050000Y12700000D01*
X25250000Y13300000D02*
G75*
G02*
X25950000Y14000000I699999J1D01*
G01*
X25950000Y12000000D02*
G75*
G02*
X25250000Y12700000I-1J699999D01*
G01*
X27350000Y14000000D02*
G75*
G02*
X28050000Y13300000I0J-700000D01*
G01*
X28050000Y12700000D02*
G75*
G02*
X27350000Y12000000I-700000J0D01*
G01*
%TO.C,D2*%
X47265000Y3512500D02*
X47265000Y1227500D01*
X47265000Y1227500D02*
X48735000Y1227500D01*
X48735000Y1227500D02*
X48735000Y3512500D01*
%TO.C,U2*%
X13887500Y15610000D02*
X12387500Y15610000D01*
X13887500Y15610000D02*
X15387500Y15610000D01*
X13887500Y12390000D02*
X12387500Y12390000D01*
X13887500Y12390000D02*
X15387500Y12390000D01*
X11675000Y15435000D02*
X11435000Y15765000D01*
X11915000Y15765000D01*
X11675000Y15435000D01*
G36*
X11675000Y15435000D02*
G01*
X11435000Y15765000D01*
X11915000Y15765000D01*
X11675000Y15435000D01*
G37*
%TO.C,C3*%
X23415580Y9010000D02*
X23134420Y9010000D01*
X23415580Y7990000D02*
X23134420Y7990000D01*
%TO.C,R5*%
X1477500Y6062258D02*
X1477500Y5587742D01*
X2522500Y6062258D02*
X2522500Y5587742D01*
%TO.C,J6*%
X33170000Y1670000D02*
X33170000Y3000000D01*
X34500000Y1670000D02*
X33170000Y1670000D01*
X35770000Y4330000D02*
X45990000Y4330000D01*
X35770000Y1670000D02*
X35770000Y4330000D01*
X35770000Y1670000D02*
X45990000Y1670000D01*
X45990000Y1670000D02*
X45990000Y4330000D01*
%TO.C,R12*%
X22062258Y13522500D02*
X21587742Y13522500D01*
X22062258Y12477500D02*
X21587742Y12477500D01*
%TO.C,U1*%
X14500000Y8410000D02*
X18260000Y8410000D01*
X14500000Y1590000D02*
X18260000Y1590000D01*
X18260000Y8410000D02*
X18260000Y7150000D01*
X18260000Y1590000D02*
X18260000Y2850000D01*
X13220000Y8310000D02*
X12980000Y8640000D01*
X13460000Y8640000D01*
X13220000Y8310000D01*
G36*
X13220000Y8310000D02*
G01*
X12980000Y8640000D01*
X13460000Y8640000D01*
X13220000Y8310000D01*
G37*
%TO.C,D6*%
X11690000Y23600000D02*
X11690000Y21900000D01*
X11690000Y23600000D02*
X14350000Y23600000D01*
X11690000Y21900000D02*
X14350000Y21900000D01*
%TO.C,J10*%
X18420000Y21170000D02*
X18420000Y22500000D01*
X19750000Y21170000D02*
X18420000Y21170000D01*
X21020000Y23830000D02*
X23620000Y23830000D01*
X21020000Y21170000D02*
X21020000Y23830000D01*
X21020000Y21170000D02*
X23620000Y21170000D01*
X23620000Y21170000D02*
X23620000Y23830000D01*
%TO.C,C7*%
X29990000Y15384420D02*
X29990000Y15665580D01*
X31010000Y15384420D02*
X31010000Y15665580D01*
%TD*%
M02*
