%TF.GenerationSoftware,KiCad,Pcbnew,8.0.6*%
%TF.CreationDate,2025-05-09T15:02:35+02:00*%
%TF.ProjectId,pulse-shaping-extension-v1.1,70756c73-652d-4736-9861-70696e672d65,rev?*%
%TF.SameCoordinates,PX3d09000PY6590fa0*%
%TF.FileFunction,Legend,Bot*%
%TF.FilePolarity,Positive*%
%FSLAX46Y46*%
G04 Gerber Fmt 4.6, Leading zero omitted, Abs format (unit mm)*
G04 Created by KiCad (PCBNEW 8.0.6) date 2025-05-09 15:02:35*
%MOMM*%
%LPD*%
G01*
G04 APERTURE LIST*
%ADD10C,0.230000*%
%ADD11C,0.150000*%
%ADD12C,0.120000*%
G04 APERTURE END LIST*
D10*
X35884399Y6875448D02*
X35527256Y5375448D01*
X35527256Y5375448D02*
X35241542Y6446876D01*
X35241542Y6446876D02*
X34955827Y5375448D01*
X34955827Y5375448D02*
X34598685Y6875448D01*
X33384399Y6375448D02*
X33384399Y5375448D01*
X34027256Y6375448D02*
X34027256Y5589734D01*
X34027256Y5589734D02*
X33955827Y5446876D01*
X33955827Y5446876D02*
X33812970Y5375448D01*
X33812970Y5375448D02*
X33598684Y5375448D01*
X33598684Y5375448D02*
X33455827Y5446876D01*
X33455827Y5446876D02*
X33384399Y5518305D01*
X32670113Y6375448D02*
X32670113Y4875448D01*
X32670113Y6304019D02*
X32527256Y6375448D01*
X32527256Y6375448D02*
X32241541Y6375448D01*
X32241541Y6375448D02*
X32098684Y6304019D01*
X32098684Y6304019D02*
X32027256Y6232591D01*
X32027256Y6232591D02*
X31955827Y6089734D01*
X31955827Y6089734D02*
X31955827Y5661162D01*
X31955827Y5661162D02*
X32027256Y5518305D01*
X32027256Y5518305D02*
X32098684Y5446876D01*
X32098684Y5446876D02*
X32241541Y5375448D01*
X32241541Y5375448D02*
X32527256Y5375448D01*
X32527256Y5375448D02*
X32670113Y5446876D01*
X30312970Y6875448D02*
X29955827Y5375448D01*
X29955827Y5375448D02*
X29670113Y6446876D01*
X29670113Y6446876D02*
X29384398Y5375448D01*
X29384398Y5375448D02*
X29027256Y6875448D01*
X27812970Y6375448D02*
X27812970Y5375448D01*
X28455827Y6375448D02*
X28455827Y5589734D01*
X28455827Y5589734D02*
X28384398Y5446876D01*
X28384398Y5446876D02*
X28241541Y5375448D01*
X28241541Y5375448D02*
X28027255Y5375448D01*
X28027255Y5375448D02*
X27884398Y5446876D01*
X27884398Y5446876D02*
X27812970Y5518305D01*
X27098684Y6375448D02*
X27098684Y4875448D01*
X27098684Y6304019D02*
X26955827Y6375448D01*
X26955827Y6375448D02*
X26670112Y6375448D01*
X26670112Y6375448D02*
X26527255Y6304019D01*
X26527255Y6304019D02*
X26455827Y6232591D01*
X26455827Y6232591D02*
X26384398Y6089734D01*
X26384398Y6089734D02*
X26384398Y5661162D01*
X26384398Y5661162D02*
X26455827Y5518305D01*
X26455827Y5518305D02*
X26527255Y5446876D01*
X26527255Y5446876D02*
X26670112Y5375448D01*
X26670112Y5375448D02*
X26955827Y5375448D01*
X26955827Y5375448D02*
X27098684Y5446876D01*
X24741541Y6875448D02*
X24384398Y5375448D01*
X24384398Y5375448D02*
X24098684Y6446876D01*
X24098684Y6446876D02*
X23812969Y5375448D01*
X23812969Y5375448D02*
X23455827Y6875448D01*
X22241541Y6375448D02*
X22241541Y5375448D01*
X22884398Y6375448D02*
X22884398Y5589734D01*
X22884398Y5589734D02*
X22812969Y5446876D01*
X22812969Y5446876D02*
X22670112Y5375448D01*
X22670112Y5375448D02*
X22455826Y5375448D01*
X22455826Y5375448D02*
X22312969Y5446876D01*
X22312969Y5446876D02*
X22241541Y5518305D01*
X21527255Y6375448D02*
X21527255Y4875448D01*
X21527255Y6304019D02*
X21384398Y6375448D01*
X21384398Y6375448D02*
X21098683Y6375448D01*
X21098683Y6375448D02*
X20955826Y6304019D01*
X20955826Y6304019D02*
X20884398Y6232591D01*
X20884398Y6232591D02*
X20812969Y6089734D01*
X20812969Y6089734D02*
X20812969Y5661162D01*
X20812969Y5661162D02*
X20884398Y5518305D01*
X20884398Y5518305D02*
X20955826Y5446876D01*
X20955826Y5446876D02*
X21098683Y5375448D01*
X21098683Y5375448D02*
X21384398Y5375448D01*
X21384398Y5375448D02*
X21527255Y5446876D01*
X35312970Y2389103D02*
X35384399Y2460532D01*
X35384399Y2460532D02*
X35527256Y2674818D01*
X35527256Y2674818D02*
X35598685Y2817675D01*
X35598685Y2817675D02*
X35670113Y3031960D01*
X35670113Y3031960D02*
X35741542Y3389103D01*
X35741542Y3389103D02*
X35741542Y3674818D01*
X35741542Y3674818D02*
X35670113Y4031960D01*
X35670113Y4031960D02*
X35598685Y4246246D01*
X35598685Y4246246D02*
X35527256Y4389103D01*
X35527256Y4389103D02*
X35384399Y4603389D01*
X35384399Y4603389D02*
X35312970Y4674818D01*
X34955827Y4460532D02*
X34455827Y2960532D01*
X34455827Y2960532D02*
X33955827Y4460532D01*
X33598685Y2389103D02*
X33527256Y2460532D01*
X33527256Y2460532D02*
X33384399Y2674818D01*
X33384399Y2674818D02*
X33312971Y2817675D01*
X33312971Y2817675D02*
X33241542Y3031960D01*
X33241542Y3031960D02*
X33170113Y3389103D01*
X33170113Y3389103D02*
X33170113Y3674818D01*
X33170113Y3674818D02*
X33241542Y4031960D01*
X33241542Y4031960D02*
X33312971Y4246246D01*
X33312971Y4246246D02*
X33384399Y4389103D01*
X33384399Y4389103D02*
X33527256Y4603389D01*
X33527256Y4603389D02*
X33598685Y4674818D01*
X30884399Y2389103D02*
X30955828Y2460532D01*
X30955828Y2460532D02*
X31098685Y2674818D01*
X31098685Y2674818D02*
X31170114Y2817675D01*
X31170114Y2817675D02*
X31241542Y3031960D01*
X31241542Y3031960D02*
X31312971Y3389103D01*
X31312971Y3389103D02*
X31312971Y3674818D01*
X31312971Y3674818D02*
X31241542Y4031960D01*
X31241542Y4031960D02*
X31170114Y4246246D01*
X31170114Y4246246D02*
X31098685Y4389103D01*
X31098685Y4389103D02*
X30955828Y4603389D01*
X30955828Y4603389D02*
X30884399Y4674818D01*
X30098685Y4460532D02*
X30241542Y4389103D01*
X30241542Y4389103D02*
X30312971Y4246246D01*
X30312971Y4246246D02*
X30241542Y4103389D01*
X30241542Y4103389D02*
X30098685Y4031960D01*
X30098685Y4031960D02*
X29955828Y4103389D01*
X29955828Y4103389D02*
X29884399Y4246246D01*
X29884399Y4246246D02*
X29955828Y4389103D01*
X29955828Y4389103D02*
X30098685Y4460532D01*
X29098685Y3031960D02*
X29098685Y2960532D01*
X29098685Y2960532D02*
X29170114Y2817675D01*
X29170114Y2817675D02*
X29241542Y2746246D01*
X28384399Y3031960D02*
X28384399Y2960532D01*
X28384399Y2960532D02*
X28455828Y2817675D01*
X28455828Y2817675D02*
X28527256Y2746246D01*
X27670113Y3031960D02*
X27670113Y2960532D01*
X27670113Y2960532D02*
X27741542Y2817675D01*
X27741542Y2817675D02*
X27812970Y2746246D01*
X26955827Y3031960D02*
X26955827Y2960532D01*
X26955827Y2960532D02*
X27027256Y2817675D01*
X27027256Y2817675D02*
X27098684Y2746246D01*
X26098684Y4460532D02*
X26241541Y4389103D01*
X26241541Y4389103D02*
X26312970Y4246246D01*
X26312970Y4246246D02*
X26241541Y4103389D01*
X26241541Y4103389D02*
X26098684Y4031960D01*
X26098684Y4031960D02*
X25955827Y4103389D01*
X25955827Y4103389D02*
X25884398Y4246246D01*
X25884398Y4246246D02*
X25955827Y4389103D01*
X25955827Y4389103D02*
X26098684Y4460532D01*
X25312970Y2389103D02*
X25241541Y2460532D01*
X25241541Y2460532D02*
X25098684Y2674818D01*
X25098684Y2674818D02*
X25027256Y2817675D01*
X25027256Y2817675D02*
X24955827Y3031960D01*
X24955827Y3031960D02*
X24884398Y3389103D01*
X24884398Y3389103D02*
X24884398Y3674818D01*
X24884398Y3674818D02*
X24955827Y4031960D01*
X24955827Y4031960D02*
X25027256Y4246246D01*
X25027256Y4246246D02*
X25098684Y4389103D01*
X25098684Y4389103D02*
X25241541Y4603389D01*
X25241541Y4603389D02*
X25312970Y4674818D01*
X22598684Y2389103D02*
X22670113Y2460532D01*
X22670113Y2460532D02*
X22812970Y2674818D01*
X22812970Y2674818D02*
X22884399Y2817675D01*
X22884399Y2817675D02*
X22955827Y3031960D01*
X22955827Y3031960D02*
X23027256Y3389103D01*
X23027256Y3389103D02*
X23027256Y3674818D01*
X23027256Y3674818D02*
X22955827Y4031960D01*
X22955827Y4031960D02*
X22884399Y4246246D01*
X22884399Y4246246D02*
X22812970Y4389103D01*
X22812970Y4389103D02*
X22670113Y4603389D01*
X22670113Y4603389D02*
X22598684Y4674818D01*
X22241541Y4460532D02*
X21741541Y2960532D01*
X21741541Y2960532D02*
X21241541Y4460532D01*
X20884399Y2389103D02*
X20812970Y2460532D01*
X20812970Y2460532D02*
X20670113Y2674818D01*
X20670113Y2674818D02*
X20598685Y2817675D01*
X20598685Y2817675D02*
X20527256Y3031960D01*
X20527256Y3031960D02*
X20455827Y3389103D01*
X20455827Y3389103D02*
X20455827Y3674818D01*
X20455827Y3674818D02*
X20527256Y4031960D01*
X20527256Y4031960D02*
X20598685Y4246246D01*
X20598685Y4246246D02*
X20670113Y4389103D01*
X20670113Y4389103D02*
X20812970Y4603389D01*
X20812970Y4603389D02*
X20884399Y4674818D01*
D11*
X40329887Y22403991D02*
X40663220Y22403991D01*
X40663220Y21880181D02*
X40663220Y22880181D01*
X40663220Y22880181D02*
X40187030Y22880181D01*
X39853696Y21927800D02*
X39710839Y21880181D01*
X39710839Y21880181D02*
X39472744Y21880181D01*
X39472744Y21880181D02*
X39377506Y21927800D01*
X39377506Y21927800D02*
X39329887Y21975420D01*
X39329887Y21975420D02*
X39282268Y22070658D01*
X39282268Y22070658D02*
X39282268Y22165896D01*
X39282268Y22165896D02*
X39329887Y22261134D01*
X39329887Y22261134D02*
X39377506Y22308753D01*
X39377506Y22308753D02*
X39472744Y22356372D01*
X39472744Y22356372D02*
X39663220Y22403991D01*
X39663220Y22403991D02*
X39758458Y22451610D01*
X39758458Y22451610D02*
X39806077Y22499229D01*
X39806077Y22499229D02*
X39853696Y22594467D01*
X39853696Y22594467D02*
X39853696Y22689705D01*
X39853696Y22689705D02*
X39806077Y22784943D01*
X39806077Y22784943D02*
X39758458Y22832562D01*
X39758458Y22832562D02*
X39663220Y22880181D01*
X39663220Y22880181D02*
X39425125Y22880181D01*
X39425125Y22880181D02*
X39282268Y22832562D01*
X38901315Y22165896D02*
X38425125Y22165896D01*
X38996553Y21880181D02*
X38663220Y22880181D01*
X38663220Y22880181D02*
X38329887Y21880181D01*
X37996553Y21880181D02*
X37996553Y22880181D01*
X37996553Y22880181D02*
X37758458Y22880181D01*
X37758458Y22880181D02*
X37615601Y22832562D01*
X37615601Y22832562D02*
X37520363Y22737324D01*
X37520363Y22737324D02*
X37472744Y22642086D01*
X37472744Y22642086D02*
X37425125Y22451610D01*
X37425125Y22451610D02*
X37425125Y22308753D01*
X37425125Y22308753D02*
X37472744Y22118277D01*
X37472744Y22118277D02*
X37520363Y22023039D01*
X37520363Y22023039D02*
X37615601Y21927800D01*
X37615601Y21927800D02*
X37758458Y21880181D01*
X37758458Y21880181D02*
X37996553Y21880181D01*
X36710839Y22880181D02*
X36710839Y22165896D01*
X36710839Y22165896D02*
X36758458Y22023039D01*
X36758458Y22023039D02*
X36853696Y21927800D01*
X36853696Y21927800D02*
X36996553Y21880181D01*
X36996553Y21880181D02*
X37091791Y21880181D01*
X35472743Y22261134D02*
X34710839Y22261134D01*
X32901315Y21975420D02*
X32948934Y21927800D01*
X32948934Y21927800D02*
X33091791Y21880181D01*
X33091791Y21880181D02*
X33187029Y21880181D01*
X33187029Y21880181D02*
X33329886Y21927800D01*
X33329886Y21927800D02*
X33425124Y22023039D01*
X33425124Y22023039D02*
X33472743Y22118277D01*
X33472743Y22118277D02*
X33520362Y22308753D01*
X33520362Y22308753D02*
X33520362Y22451610D01*
X33520362Y22451610D02*
X33472743Y22642086D01*
X33472743Y22642086D02*
X33425124Y22737324D01*
X33425124Y22737324D02*
X33329886Y22832562D01*
X33329886Y22832562D02*
X33187029Y22880181D01*
X33187029Y22880181D02*
X33091791Y22880181D01*
X33091791Y22880181D02*
X32948934Y22832562D01*
X32948934Y22832562D02*
X32901315Y22784943D01*
X32520362Y22165896D02*
X32044172Y22165896D01*
X32615600Y21880181D02*
X32282267Y22880181D01*
X32282267Y22880181D02*
X31948934Y21880181D01*
X31139410Y21880181D02*
X31615600Y21880181D01*
X31615600Y21880181D02*
X31615600Y22880181D01*
X31044172Y21784943D02*
X30282267Y21784943D01*
X30091790Y21927800D02*
X29948933Y21880181D01*
X29948933Y21880181D02*
X29710838Y21880181D01*
X29710838Y21880181D02*
X29615600Y21927800D01*
X29615600Y21927800D02*
X29567981Y21975420D01*
X29567981Y21975420D02*
X29520362Y22070658D01*
X29520362Y22070658D02*
X29520362Y22165896D01*
X29520362Y22165896D02*
X29567981Y22261134D01*
X29567981Y22261134D02*
X29615600Y22308753D01*
X29615600Y22308753D02*
X29710838Y22356372D01*
X29710838Y22356372D02*
X29901314Y22403991D01*
X29901314Y22403991D02*
X29996552Y22451610D01*
X29996552Y22451610D02*
X30044171Y22499229D01*
X30044171Y22499229D02*
X30091790Y22594467D01*
X30091790Y22594467D02*
X30091790Y22689705D01*
X30091790Y22689705D02*
X30044171Y22784943D01*
X30044171Y22784943D02*
X29996552Y22832562D01*
X29996552Y22832562D02*
X29901314Y22880181D01*
X29901314Y22880181D02*
X29663219Y22880181D01*
X29663219Y22880181D02*
X29520362Y22832562D01*
X29091790Y22403991D02*
X28758457Y22403991D01*
X28615600Y21880181D02*
X29091790Y21880181D01*
X29091790Y21880181D02*
X29091790Y22880181D01*
X29091790Y22880181D02*
X28615600Y22880181D01*
X28187028Y21880181D02*
X28187028Y22880181D01*
X28187028Y22880181D02*
X27615600Y21880181D01*
X27615600Y21880181D02*
X27615600Y22880181D01*
X27187028Y21927800D02*
X27044171Y21880181D01*
X27044171Y21880181D02*
X26806076Y21880181D01*
X26806076Y21880181D02*
X26710838Y21927800D01*
X26710838Y21927800D02*
X26663219Y21975420D01*
X26663219Y21975420D02*
X26615600Y22070658D01*
X26615600Y22070658D02*
X26615600Y22165896D01*
X26615600Y22165896D02*
X26663219Y22261134D01*
X26663219Y22261134D02*
X26710838Y22308753D01*
X26710838Y22308753D02*
X26806076Y22356372D01*
X26806076Y22356372D02*
X26996552Y22403991D01*
X26996552Y22403991D02*
X27091790Y22451610D01*
X27091790Y22451610D02*
X27139409Y22499229D01*
X27139409Y22499229D02*
X27187028Y22594467D01*
X27187028Y22594467D02*
X27187028Y22689705D01*
X27187028Y22689705D02*
X27139409Y22784943D01*
X27139409Y22784943D02*
X27091790Y22832562D01*
X27091790Y22832562D02*
X26996552Y22880181D01*
X26996552Y22880181D02*
X26758457Y22880181D01*
X26758457Y22880181D02*
X26615600Y22832562D01*
X26187028Y22403991D02*
X25853695Y22403991D01*
X25710838Y21880181D02*
X26187028Y21880181D01*
X26187028Y21880181D02*
X26187028Y22880181D01*
X26187028Y22880181D02*
X25710838Y22880181D01*
X30958333Y27995181D02*
X30958333Y27280896D01*
X30958333Y27280896D02*
X31005952Y27138039D01*
X31005952Y27138039D02*
X31101190Y27042800D01*
X31101190Y27042800D02*
X31244047Y26995181D01*
X31244047Y26995181D02*
X31339285Y26995181D01*
X30482142Y26995181D02*
X30482142Y27995181D01*
X30482142Y27995181D02*
X30101190Y27995181D01*
X30101190Y27995181D02*
X30005952Y27947562D01*
X30005952Y27947562D02*
X29958333Y27899943D01*
X29958333Y27899943D02*
X29910714Y27804705D01*
X29910714Y27804705D02*
X29910714Y27661848D01*
X29910714Y27661848D02*
X29958333Y27566610D01*
X29958333Y27566610D02*
X30005952Y27518991D01*
X30005952Y27518991D02*
X30101190Y27471372D01*
X30101190Y27471372D02*
X30482142Y27471372D01*
X28958333Y26995181D02*
X29529761Y26995181D01*
X29244047Y26995181D02*
X29244047Y27995181D01*
X29244047Y27995181D02*
X29339285Y27852324D01*
X29339285Y27852324D02*
X29434523Y27757086D01*
X29434523Y27757086D02*
X29529761Y27709467D01*
D12*
%TO.C,JP1*%
X28725000Y26650000D02*
X31525000Y26650000D01*
X28725000Y24650000D02*
X28725000Y26650000D01*
X31525000Y26650000D02*
X31525000Y24650000D01*
X31525000Y24650000D02*
X28725000Y24650000D01*
%TD*%
M02*
