%TF.GenerationSoftware,KiCad,Pcbnew,8.0.6*%
%TF.CreationDate,2025-05-09T15:02:35+02:00*%
%TF.ProjectId,pulse-shaping-extension-v1.1,70756c73-652d-4736-9861-70696e672d65,rev?*%
%TF.SameCoordinates,PX3d09000PY6590fa0*%
%TF.FileFunction,Paste,Top*%
%TF.FilePolarity,Positive*%
%FSLAX46Y46*%
G04 Gerber Fmt 4.6, Leading zero omitted, Abs format (unit mm)*
G04 Created by KiCad (PCBNEW 8.0.6) date 2025-05-09 15:02:35*
%MOMM*%
%LPD*%
G01*
G04 APERTURE LIST*
G04 Aperture macros list*
%AMRoundRect*
0 Rectangle with rounded corners*
0 $1 Rounding radius*
0 $2 $3 $4 $5 $6 $7 $8 $9 X,Y pos of 4 corners*
0 Add a 4 corners polygon primitive as box body*
4,1,4,$2,$3,$4,$5,$6,$7,$8,$9,$2,$3,0*
0 Add four circle primitives for the rounded corners*
1,1,$1+$1,$2,$3*
1,1,$1+$1,$4,$5*
1,1,$1+$1,$6,$7*
1,1,$1+$1,$8,$9*
0 Add four rect primitives between the rounded corners*
20,1,$1+$1,$2,$3,$4,$5,0*
20,1,$1+$1,$4,$5,$6,$7,0*
20,1,$1+$1,$6,$7,$8,$9,0*
20,1,$1+$1,$8,$9,$2,$3,0*%
G04 Aperture macros list end*
%ADD10C,0.010000*%
%ADD11RoundRect,0.218750X-0.256250X0.218750X-0.256250X-0.218750X0.256250X-0.218750X0.256250X0.218750X0*%
%ADD12RoundRect,0.225000X0.250000X-0.225000X0.250000X0.225000X-0.250000X0.225000X-0.250000X-0.225000X0*%
%ADD13RoundRect,0.225000X-0.225000X-0.250000X0.225000X-0.250000X0.225000X0.250000X-0.225000X0.250000X0*%
%ADD14R,0.812800X0.254000*%
%ADD15R,0.254000X0.812800*%
%ADD16R,3.759200X3.759200*%
%ADD17RoundRect,0.200000X-0.275000X0.200000X-0.275000X-0.200000X0.275000X-0.200000X0.275000X0.200000X0*%
%ADD18RoundRect,0.250000X-0.250000X-0.475000X0.250000X-0.475000X0.250000X0.475000X-0.250000X0.475000X0*%
%ADD19R,1.200000X1.200000*%
%ADD20R,1.600000X1.500000*%
%ADD21RoundRect,0.200000X0.200000X0.275000X-0.200000X0.275000X-0.200000X-0.275000X0.200000X-0.275000X0*%
%ADD22RoundRect,0.225000X0.225000X0.250000X-0.225000X0.250000X-0.225000X-0.250000X0.225000X-0.250000X0*%
%ADD23RoundRect,0.225000X-0.250000X0.225000X-0.250000X-0.225000X0.250000X-0.225000X0.250000X0.225000X0*%
%ADD24RoundRect,0.250000X1.425000X-0.362500X1.425000X0.362500X-1.425000X0.362500X-1.425000X-0.362500X0*%
%ADD25RoundRect,0.200000X0.275000X-0.200000X0.275000X0.200000X-0.275000X0.200000X-0.275000X-0.200000X0*%
%ADD26RoundRect,0.200000X-0.200000X-0.275000X0.200000X-0.275000X0.200000X0.275000X-0.200000X0.275000X0*%
%ADD27RoundRect,0.250000X0.250000X0.275000X-0.250000X0.275000X-0.250000X-0.275000X0.250000X-0.275000X0*%
%ADD28RoundRect,0.162500X0.337500X0.162500X-0.337500X0.162500X-0.337500X-0.162500X0.337500X-0.162500X0*%
%ADD29RoundRect,0.015000X-0.760000X-0.285000X0.760000X-0.285000X0.760000X0.285000X-0.760000X0.285000X0*%
%ADD30RoundRect,0.145000X-0.145000X-0.205000X0.145000X-0.205000X0.145000X0.205000X-0.145000X0.205000X0*%
%ADD31RoundRect,0.087500X-0.200000X-0.087500X0.200000X-0.087500X0.200000X0.087500X-0.200000X0.087500X0*%
%ADD32RoundRect,0.250000X0.475000X-0.250000X0.475000X0.250000X-0.475000X0.250000X-0.475000X-0.250000X0*%
%ADD33RoundRect,0.218750X0.256250X-0.218750X0.256250X0.218750X-0.256250X0.218750X-0.256250X-0.218750X0*%
%ADD34RoundRect,0.100000X-0.100000X0.225000X-0.100000X-0.225000X0.100000X-0.225000X0.100000X0.225000X0*%
G04 APERTURE END LIST*
D10*
%TO.C,U4*%
X58205000Y23950000D02*
X55495000Y23950000D01*
X55495000Y27350000D01*
X58205000Y27350000D01*
X58205000Y23950000D01*
G36*
X58205000Y23950000D02*
G01*
X55495000Y23950000D01*
X55495000Y27350000D01*
X58205000Y27350000D01*
X58205000Y23950000D01*
G37*
%TD*%
D11*
%TO.C,D3*%
X32000000Y3575000D03*
X32000000Y2000000D03*
%TD*%
D12*
%TO.C,C15*%
X25500000Y12950000D03*
X25500000Y14500000D03*
%TD*%
D13*
%TO.C,C30*%
X38950000Y27550000D03*
X40500000Y27550000D03*
%TD*%
D12*
%TO.C,C29*%
X13000000Y3725000D03*
X13000000Y5275000D03*
%TD*%
D14*
%TO.C,U1*%
X24350000Y21499998D03*
X24350000Y20999999D03*
X24350000Y20500000D03*
X24350000Y19999999D03*
X24350000Y19499999D03*
X24350000Y18999998D03*
X24350000Y18499999D03*
X24350000Y18000000D03*
D15*
X25051101Y17298899D03*
X25551100Y17298899D03*
X26051099Y17298899D03*
X26551100Y17298899D03*
X27051100Y17298899D03*
X27551101Y17298899D03*
X28051100Y17298899D03*
X28551099Y17298899D03*
D14*
X29252200Y18000000D03*
X29252200Y18499999D03*
X29252200Y18999998D03*
X29252200Y19499999D03*
X29252200Y19999999D03*
X29252200Y20500000D03*
X29252200Y20999999D03*
X29252200Y21499998D03*
D15*
X28551099Y22201099D03*
X28051100Y22201099D03*
X27551101Y22201099D03*
X27051100Y22201099D03*
X26551100Y22201099D03*
X26051099Y22201099D03*
X25551100Y22201099D03*
X25051101Y22201099D03*
D16*
X26801100Y19749999D03*
%TD*%
D17*
%TO.C,R12*%
X26000000Y31500000D03*
X26000000Y29850000D03*
%TD*%
D18*
%TO.C,C28*%
X38550000Y36500000D03*
X40450000Y36500000D03*
%TD*%
D13*
%TO.C,C27*%
X38950000Y34050000D03*
X40500000Y34050000D03*
%TD*%
D17*
%TO.C,R15*%
X30500000Y35350000D03*
X30500000Y33700000D03*
%TD*%
D19*
%TO.C,RV1*%
X64000000Y25500000D03*
D20*
X65000000Y28750000D03*
D19*
X66000000Y25500000D03*
%TD*%
D21*
%TO.C,R6*%
X34500000Y17500000D03*
X32850000Y17500000D03*
%TD*%
D22*
%TO.C,C1*%
X34550000Y21000000D03*
X33000000Y21000000D03*
%TD*%
%TO.C,C9*%
X34550000Y23000000D03*
X33000000Y23000000D03*
%TD*%
D23*
%TO.C,C26*%
X26000000Y35350000D03*
X26000000Y33800000D03*
%TD*%
D24*
%TO.C,R20*%
X71420000Y13500000D03*
X71420000Y19425000D03*
%TD*%
D13*
%TO.C,C6*%
X18575000Y24500000D03*
X20125000Y24500000D03*
%TD*%
D25*
%TO.C,R2*%
X12500000Y15000000D03*
X12500000Y16650000D03*
%TD*%
D21*
%TO.C,R17*%
X44500000Y30397500D03*
X42850000Y30397500D03*
%TD*%
D13*
%TO.C,C13*%
X18450000Y22000000D03*
X20000000Y22000000D03*
%TD*%
D26*
%TO.C,R18*%
X42850000Y32397500D03*
X44500000Y32397500D03*
%TD*%
D22*
%TO.C,C2*%
X34550000Y19500000D03*
X33000000Y19500000D03*
%TD*%
D13*
%TO.C,C7*%
X18575000Y26500000D03*
X20125000Y26500000D03*
%TD*%
D27*
%TO.C,X1*%
X41100000Y18750000D03*
D28*
X41100000Y19875000D03*
D27*
X41100000Y21000000D03*
X39500000Y21000000D03*
D28*
X39500000Y19875000D03*
D27*
X39500000Y18750000D03*
%TD*%
D29*
%TO.C,U4*%
X54150000Y27555000D03*
X54150000Y26285000D03*
X54150000Y25015000D03*
X54150000Y23745000D03*
X59550000Y23745000D03*
X59550000Y25015000D03*
X59550000Y26285000D03*
X59550000Y27555000D03*
%TD*%
D25*
%TO.C,R5*%
X29000000Y24850000D03*
X29000000Y26500000D03*
%TD*%
D22*
%TO.C,C23*%
X55350000Y21650000D03*
X53800000Y21650000D03*
%TD*%
D30*
%TO.C,U3*%
X39120000Y31397500D03*
X39120000Y30527500D03*
X39850000Y31397500D03*
X39850000Y30527500D03*
D31*
X38197500Y31712500D03*
X38197500Y31212500D03*
X38197500Y30712500D03*
X38197500Y30212500D03*
X40772500Y30212500D03*
X40772500Y30712500D03*
X40772500Y31212500D03*
X40772500Y31712500D03*
%TD*%
D25*
%TO.C,R11*%
X28500000Y29850000D03*
X28500000Y31500000D03*
%TD*%
D18*
%TO.C,C31*%
X38600000Y25500000D03*
X40500000Y25500000D03*
%TD*%
D22*
%TO.C,C17*%
X34550000Y27000000D03*
X33000000Y27000000D03*
%TD*%
D32*
%TO.C,C19*%
X20000000Y3500000D03*
X20000000Y5400000D03*
%TD*%
D17*
%TO.C,R14*%
X24000000Y31500000D03*
X24000000Y29850000D03*
%TD*%
D11*
%TO.C,D2*%
X29500000Y3575000D03*
X29500000Y2000000D03*
%TD*%
D17*
%TO.C,R13*%
X30500000Y31500000D03*
X30500000Y29850000D03*
%TD*%
D22*
%TO.C,C24*%
X55350000Y19650000D03*
X53800000Y19650000D03*
%TD*%
D17*
%TO.C,R21*%
X37500000Y7190000D03*
X37500000Y5540000D03*
%TD*%
%TO.C,R8*%
X27000000Y7150000D03*
X27000000Y5500000D03*
%TD*%
D13*
%TO.C,C12*%
X18450000Y20000000D03*
X20000000Y20000000D03*
%TD*%
D21*
%TO.C,R19*%
X66000000Y32000000D03*
X64350000Y32000000D03*
%TD*%
D13*
%TO.C,C22*%
X58300000Y31650000D03*
X59850000Y31650000D03*
%TD*%
D25*
%TO.C,R10*%
X32000000Y5500000D03*
X32000000Y7150000D03*
%TD*%
%TO.C,R1*%
X10500000Y15000000D03*
X10500000Y16650000D03*
%TD*%
%TO.C,R7*%
X31000000Y24850000D03*
X31000000Y26500000D03*
%TD*%
D22*
%TO.C,C8*%
X34500000Y15500000D03*
X32950000Y15500000D03*
%TD*%
D25*
%TO.C,R3*%
X14500000Y15000000D03*
X14500000Y16650000D03*
%TD*%
D23*
%TO.C,C18*%
X25500000Y26550000D03*
X25500000Y25000000D03*
%TD*%
D13*
%TO.C,C16*%
X18500000Y28500000D03*
X20050000Y28500000D03*
%TD*%
D12*
%TO.C,C14*%
X27500000Y12950000D03*
X27500000Y14500000D03*
%TD*%
D13*
%TO.C,C21*%
X58300000Y29650000D03*
X59850000Y29650000D03*
%TD*%
D22*
%TO.C,C10*%
X34550000Y25000000D03*
X33000000Y25000000D03*
%TD*%
D23*
%TO.C,C25*%
X28500000Y35350000D03*
X28500000Y33800000D03*
%TD*%
D18*
%TO.C,C20*%
X15500000Y8000000D03*
X17400000Y8000000D03*
%TD*%
D17*
%TO.C,R4*%
X37000000Y21150000D03*
X37000000Y19500000D03*
%TD*%
D13*
%TO.C,C4*%
X18500000Y16000000D03*
X20050000Y16000000D03*
%TD*%
D24*
%TO.C,R23*%
X65957500Y13500000D03*
X65957500Y19425000D03*
%TD*%
D23*
%TO.C,C3*%
X43050000Y21000000D03*
X43050000Y19450000D03*
%TD*%
D25*
%TO.C,R9*%
X29500000Y5500000D03*
X29500000Y7150000D03*
%TD*%
D13*
%TO.C,C5*%
X18500000Y18000000D03*
X20050000Y18000000D03*
%TD*%
D21*
%TO.C,R22*%
X66000000Y23500000D03*
X64350000Y23500000D03*
%TD*%
D23*
%TO.C,C11*%
X23500000Y26550000D03*
X23500000Y25000000D03*
%TD*%
D17*
%TO.C,R16*%
X24000000Y35350000D03*
X24000000Y33700000D03*
%TD*%
D33*
%TO.C,D1*%
X27000000Y2000000D03*
X27000000Y3575000D03*
%TD*%
D34*
%TO.C,U5*%
X17094000Y5126000D03*
X16444000Y5126000D03*
X15794000Y5126000D03*
X15794000Y3226000D03*
X16444000Y3226000D03*
X17094000Y3226000D03*
%TD*%
M02*
