%TF.GenerationSoftware,KiCad,Pcbnew,8.0.6*%
%TF.CreationDate,2025-05-09T15:02:35+02:00*%
%TF.ProjectId,pulse-shaping-extension-v1.1,70756c73-652d-4736-9861-70696e672d65,rev?*%
%TF.SameCoordinates,PX3d09000PY6590fa0*%
%TF.FileFunction,Soldermask,Top*%
%TF.FilePolarity,Negative*%
%FSLAX46Y46*%
G04 Gerber Fmt 4.6, Leading zero omitted, Abs format (unit mm)*
G04 Created by KiCad (PCBNEW 8.0.6) date 2025-05-09 15:02:35*
%MOMM*%
%LPD*%
G01*
G04 APERTURE LIST*
G04 Aperture macros list*
%AMRoundRect*
0 Rectangle with rounded corners*
0 $1 Rounding radius*
0 $2 $3 $4 $5 $6 $7 $8 $9 X,Y pos of 4 corners*
0 Add a 4 corners polygon primitive as box body*
4,1,4,$2,$3,$4,$5,$6,$7,$8,$9,$2,$3,0*
0 Add four circle primitives for the rounded corners*
1,1,$1+$1,$2,$3*
1,1,$1+$1,$4,$5*
1,1,$1+$1,$6,$7*
1,1,$1+$1,$8,$9*
0 Add four rect primitives between the rounded corners*
20,1,$1+$1,$2,$3,$4,$5,0*
20,1,$1+$1,$4,$5,$6,$7,0*
20,1,$1+$1,$6,$7,$8,$9,0*
20,1,$1+$1,$8,$9,$2,$3,0*%
%AMFreePoly0*
4,1,6,1.000000,0.000000,0.500000,-0.750000,-0.500000,-0.750000,-0.500000,0.750000,0.500000,0.750000,1.000000,0.000000,1.000000,0.000000,$1*%
%AMFreePoly1*
4,1,6,0.500000,-0.750000,-0.650000,-0.750000,-0.150000,0.000000,-0.650000,0.750000,0.500000,0.750000,0.500000,-0.750000,0.500000,-0.750000,$1*%
G04 Aperture macros list end*
%ADD10C,0.010000*%
%ADD11RoundRect,0.218750X-0.256250X0.218750X-0.256250X-0.218750X0.256250X-0.218750X0.256250X0.218750X0*%
%ADD12RoundRect,0.225000X0.250000X-0.225000X0.250000X0.225000X-0.250000X0.225000X-0.250000X-0.225000X0*%
%ADD13RoundRect,0.225000X-0.225000X-0.250000X0.225000X-0.250000X0.225000X0.250000X-0.225000X0.250000X0*%
%ADD14C,1.000000*%
%ADD15R,1.700000X1.700000*%
%ADD16O,1.700000X1.700000*%
%ADD17R,0.812800X0.254000*%
%ADD18R,0.254000X0.812800*%
%ADD19R,3.759200X3.759200*%
%ADD20RoundRect,0.200000X-0.275000X0.200000X-0.275000X-0.200000X0.275000X-0.200000X0.275000X0.200000X0*%
%ADD21RoundRect,0.250000X-0.250000X-0.475000X0.250000X-0.475000X0.250000X0.475000X-0.250000X0.475000X0*%
%ADD22R,1.200000X1.200000*%
%ADD23R,1.600000X1.500000*%
%ADD24C,2.050000*%
%ADD25C,2.250000*%
%ADD26RoundRect,0.200000X0.200000X0.275000X-0.200000X0.275000X-0.200000X-0.275000X0.200000X-0.275000X0*%
%ADD27RoundRect,0.225000X0.225000X0.250000X-0.225000X0.250000X-0.225000X-0.250000X0.225000X-0.250000X0*%
%ADD28RoundRect,0.225000X-0.250000X0.225000X-0.250000X-0.225000X0.250000X-0.225000X0.250000X0.225000X0*%
%ADD29RoundRect,0.250000X1.425000X-0.362500X1.425000X0.362500X-1.425000X0.362500X-1.425000X-0.362500X0*%
%ADD30RoundRect,0.200000X0.275000X-0.200000X0.275000X0.200000X-0.275000X0.200000X-0.275000X-0.200000X0*%
%ADD31RoundRect,0.200000X-0.200000X-0.275000X0.200000X-0.275000X0.200000X0.275000X-0.200000X0.275000X0*%
%ADD32RoundRect,0.250000X0.250000X0.275000X-0.250000X0.275000X-0.250000X-0.275000X0.250000X-0.275000X0*%
%ADD33RoundRect,0.162500X0.337500X0.162500X-0.337500X0.162500X-0.337500X-0.162500X0.337500X-0.162500X0*%
%ADD34C,0.504000*%
%ADD35RoundRect,0.087500X-0.200000X-0.087500X0.200000X-0.087500X0.200000X0.087500X-0.200000X0.087500X0*%
%ADD36R,1.450000X1.740000*%
%ADD37RoundRect,0.250000X0.475000X-0.250000X0.475000X0.250000X-0.475000X0.250000X-0.475000X-0.250000X0*%
%ADD38C,3.000000*%
%ADD39FreePoly0,90.000000*%
%ADD40FreePoly1,90.000000*%
%ADD41RoundRect,0.218750X0.256250X-0.218750X0.256250X0.218750X-0.256250X0.218750X-0.256250X-0.218750X0*%
%ADD42RoundRect,0.100000X-0.100000X0.225000X-0.100000X-0.225000X0.100000X-0.225000X0.100000X0.225000X0*%
G04 APERTURE END LIST*
D10*
%TO.C,U4*%
X58205000Y23950000D02*
X55495000Y23950000D01*
X55495000Y27350000D01*
X58205000Y27350000D01*
X58205000Y23950000D01*
G36*
X58205000Y23950000D02*
G01*
X55495000Y23950000D01*
X55495000Y27350000D01*
X58205000Y27350000D01*
X58205000Y23950000D01*
G37*
X54953000Y27924000D02*
X54955000Y27924000D01*
X54958000Y27923000D01*
X54960000Y27923000D01*
X54963000Y27922000D01*
X54965000Y27921000D01*
X54968000Y27920000D01*
X54970000Y27918000D01*
X54972000Y27917000D01*
X54974000Y27915000D01*
X54976000Y27914000D01*
X54978000Y27912000D01*
X54980000Y27910000D01*
X54982000Y27908000D01*
X54984000Y27906000D01*
X54985000Y27904000D01*
X54987000Y27902000D01*
X54988000Y27900000D01*
X54990000Y27898000D01*
X54991000Y27895000D01*
X54992000Y27893000D01*
X54993000Y27890000D01*
X54993000Y27888000D01*
X54994000Y27885000D01*
X54994000Y27883000D01*
X54995000Y27880000D01*
X54995000Y27878000D01*
X54995000Y27875000D01*
X54995000Y27235000D01*
X54995000Y27232000D01*
X54995000Y27230000D01*
X54994000Y27227000D01*
X54994000Y27225000D01*
X54993000Y27222000D01*
X54993000Y27220000D01*
X54992000Y27217000D01*
X54991000Y27215000D01*
X54990000Y27212000D01*
X54988000Y27210000D01*
X54987000Y27208000D01*
X54985000Y27206000D01*
X54984000Y27204000D01*
X54982000Y27202000D01*
X54980000Y27200000D01*
X54978000Y27198000D01*
X54976000Y27196000D01*
X54974000Y27195000D01*
X54972000Y27193000D01*
X54970000Y27192000D01*
X54968000Y27190000D01*
X54965000Y27189000D01*
X54963000Y27188000D01*
X54960000Y27187000D01*
X54958000Y27187000D01*
X54955000Y27186000D01*
X54953000Y27186000D01*
X54950000Y27185000D01*
X54948000Y27185000D01*
X54945000Y27185000D01*
X53355000Y27185000D01*
X53352000Y27185000D01*
X53350000Y27185000D01*
X53347000Y27186000D01*
X53345000Y27186000D01*
X53342000Y27187000D01*
X53340000Y27187000D01*
X53337000Y27188000D01*
X53335000Y27189000D01*
X53332000Y27190000D01*
X53330000Y27192000D01*
X53328000Y27193000D01*
X53326000Y27195000D01*
X53324000Y27196000D01*
X53322000Y27198000D01*
X53320000Y27200000D01*
X53318000Y27202000D01*
X53316000Y27204000D01*
X53315000Y27206000D01*
X53313000Y27208000D01*
X53312000Y27210000D01*
X53310000Y27212000D01*
X53309000Y27215000D01*
X53308000Y27217000D01*
X53307000Y27220000D01*
X53307000Y27222000D01*
X53306000Y27225000D01*
X53306000Y27227000D01*
X53305000Y27230000D01*
X53305000Y27232000D01*
X53305000Y27235000D01*
X53305000Y27875000D01*
X53305000Y27878000D01*
X53305000Y27880000D01*
X53306000Y27883000D01*
X53306000Y27885000D01*
X53307000Y27888000D01*
X53307000Y27890000D01*
X53308000Y27893000D01*
X53309000Y27895000D01*
X53310000Y27898000D01*
X53312000Y27900000D01*
X53313000Y27902000D01*
X53315000Y27904000D01*
X53316000Y27906000D01*
X53318000Y27908000D01*
X53320000Y27910000D01*
X53322000Y27912000D01*
X53324000Y27914000D01*
X53326000Y27915000D01*
X53328000Y27917000D01*
X53330000Y27918000D01*
X53332000Y27920000D01*
X53335000Y27921000D01*
X53337000Y27922000D01*
X53340000Y27923000D01*
X53342000Y27923000D01*
X53345000Y27924000D01*
X53347000Y27924000D01*
X53350000Y27925000D01*
X53352000Y27925000D01*
X53355000Y27925000D01*
X54945000Y27925000D01*
X54948000Y27925000D01*
X54950000Y27925000D01*
X54953000Y27924000D01*
G36*
X54953000Y27924000D02*
G01*
X54955000Y27924000D01*
X54958000Y27923000D01*
X54960000Y27923000D01*
X54963000Y27922000D01*
X54965000Y27921000D01*
X54968000Y27920000D01*
X54970000Y27918000D01*
X54972000Y27917000D01*
X54974000Y27915000D01*
X54976000Y27914000D01*
X54978000Y27912000D01*
X54980000Y27910000D01*
X54982000Y27908000D01*
X54984000Y27906000D01*
X54985000Y27904000D01*
X54987000Y27902000D01*
X54988000Y27900000D01*
X54990000Y27898000D01*
X54991000Y27895000D01*
X54992000Y27893000D01*
X54993000Y27890000D01*
X54993000Y27888000D01*
X54994000Y27885000D01*
X54994000Y27883000D01*
X54995000Y27880000D01*
X54995000Y27878000D01*
X54995000Y27875000D01*
X54995000Y27235000D01*
X54995000Y27232000D01*
X54995000Y27230000D01*
X54994000Y27227000D01*
X54994000Y27225000D01*
X54993000Y27222000D01*
X54993000Y27220000D01*
X54992000Y27217000D01*
X54991000Y27215000D01*
X54990000Y27212000D01*
X54988000Y27210000D01*
X54987000Y27208000D01*
X54985000Y27206000D01*
X54984000Y27204000D01*
X54982000Y27202000D01*
X54980000Y27200000D01*
X54978000Y27198000D01*
X54976000Y27196000D01*
X54974000Y27195000D01*
X54972000Y27193000D01*
X54970000Y27192000D01*
X54968000Y27190000D01*
X54965000Y27189000D01*
X54963000Y27188000D01*
X54960000Y27187000D01*
X54958000Y27187000D01*
X54955000Y27186000D01*
X54953000Y27186000D01*
X54950000Y27185000D01*
X54948000Y27185000D01*
X54945000Y27185000D01*
X53355000Y27185000D01*
X53352000Y27185000D01*
X53350000Y27185000D01*
X53347000Y27186000D01*
X53345000Y27186000D01*
X53342000Y27187000D01*
X53340000Y27187000D01*
X53337000Y27188000D01*
X53335000Y27189000D01*
X53332000Y27190000D01*
X53330000Y27192000D01*
X53328000Y27193000D01*
X53326000Y27195000D01*
X53324000Y27196000D01*
X53322000Y27198000D01*
X53320000Y27200000D01*
X53318000Y27202000D01*
X53316000Y27204000D01*
X53315000Y27206000D01*
X53313000Y27208000D01*
X53312000Y27210000D01*
X53310000Y27212000D01*
X53309000Y27215000D01*
X53308000Y27217000D01*
X53307000Y27220000D01*
X53307000Y27222000D01*
X53306000Y27225000D01*
X53306000Y27227000D01*
X53305000Y27230000D01*
X53305000Y27232000D01*
X53305000Y27235000D01*
X53305000Y27875000D01*
X53305000Y27878000D01*
X53305000Y27880000D01*
X53306000Y27883000D01*
X53306000Y27885000D01*
X53307000Y27888000D01*
X53307000Y27890000D01*
X53308000Y27893000D01*
X53309000Y27895000D01*
X53310000Y27898000D01*
X53312000Y27900000D01*
X53313000Y27902000D01*
X53315000Y27904000D01*
X53316000Y27906000D01*
X53318000Y27908000D01*
X53320000Y27910000D01*
X53322000Y27912000D01*
X53324000Y27914000D01*
X53326000Y27915000D01*
X53328000Y27917000D01*
X53330000Y27918000D01*
X53332000Y27920000D01*
X53335000Y27921000D01*
X53337000Y27922000D01*
X53340000Y27923000D01*
X53342000Y27923000D01*
X53345000Y27924000D01*
X53347000Y27924000D01*
X53350000Y27925000D01*
X53352000Y27925000D01*
X53355000Y27925000D01*
X54945000Y27925000D01*
X54948000Y27925000D01*
X54950000Y27925000D01*
X54953000Y27924000D01*
G37*
X54953000Y26654000D02*
X54955000Y26654000D01*
X54958000Y26653000D01*
X54960000Y26653000D01*
X54963000Y26652000D01*
X54965000Y26651000D01*
X54968000Y26650000D01*
X54970000Y26648000D01*
X54972000Y26647000D01*
X54974000Y26645000D01*
X54976000Y26644000D01*
X54978000Y26642000D01*
X54980000Y26640000D01*
X54982000Y26638000D01*
X54984000Y26636000D01*
X54985000Y26634000D01*
X54987000Y26632000D01*
X54988000Y26630000D01*
X54990000Y26628000D01*
X54991000Y26625000D01*
X54992000Y26623000D01*
X54993000Y26620000D01*
X54993000Y26618000D01*
X54994000Y26615000D01*
X54994000Y26613000D01*
X54995000Y26610000D01*
X54995000Y26608000D01*
X54995000Y26605000D01*
X54995000Y25965000D01*
X54995000Y25962000D01*
X54995000Y25960000D01*
X54994000Y25957000D01*
X54994000Y25955000D01*
X54993000Y25952000D01*
X54993000Y25950000D01*
X54992000Y25947000D01*
X54991000Y25945000D01*
X54990000Y25942000D01*
X54988000Y25940000D01*
X54987000Y25938000D01*
X54985000Y25936000D01*
X54984000Y25934000D01*
X54982000Y25932000D01*
X54980000Y25930000D01*
X54978000Y25928000D01*
X54976000Y25926000D01*
X54974000Y25925000D01*
X54972000Y25923000D01*
X54970000Y25922000D01*
X54968000Y25920000D01*
X54965000Y25919000D01*
X54963000Y25918000D01*
X54960000Y25917000D01*
X54958000Y25917000D01*
X54955000Y25916000D01*
X54953000Y25916000D01*
X54950000Y25915000D01*
X54948000Y25915000D01*
X54945000Y25915000D01*
X53355000Y25915000D01*
X53352000Y25915000D01*
X53350000Y25915000D01*
X53347000Y25916000D01*
X53345000Y25916000D01*
X53342000Y25917000D01*
X53340000Y25917000D01*
X53337000Y25918000D01*
X53335000Y25919000D01*
X53332000Y25920000D01*
X53330000Y25922000D01*
X53328000Y25923000D01*
X53326000Y25925000D01*
X53324000Y25926000D01*
X53322000Y25928000D01*
X53320000Y25930000D01*
X53318000Y25932000D01*
X53316000Y25934000D01*
X53315000Y25936000D01*
X53313000Y25938000D01*
X53312000Y25940000D01*
X53310000Y25942000D01*
X53309000Y25945000D01*
X53308000Y25947000D01*
X53307000Y25950000D01*
X53307000Y25952000D01*
X53306000Y25955000D01*
X53306000Y25957000D01*
X53305000Y25960000D01*
X53305000Y25962000D01*
X53305000Y25965000D01*
X53305000Y26605000D01*
X53305000Y26608000D01*
X53305000Y26610000D01*
X53306000Y26613000D01*
X53306000Y26615000D01*
X53307000Y26618000D01*
X53307000Y26620000D01*
X53308000Y26623000D01*
X53309000Y26625000D01*
X53310000Y26628000D01*
X53312000Y26630000D01*
X53313000Y26632000D01*
X53315000Y26634000D01*
X53316000Y26636000D01*
X53318000Y26638000D01*
X53320000Y26640000D01*
X53322000Y26642000D01*
X53324000Y26644000D01*
X53326000Y26645000D01*
X53328000Y26647000D01*
X53330000Y26648000D01*
X53332000Y26650000D01*
X53335000Y26651000D01*
X53337000Y26652000D01*
X53340000Y26653000D01*
X53342000Y26653000D01*
X53345000Y26654000D01*
X53347000Y26654000D01*
X53350000Y26655000D01*
X53352000Y26655000D01*
X53355000Y26655000D01*
X54945000Y26655000D01*
X54948000Y26655000D01*
X54950000Y26655000D01*
X54953000Y26654000D01*
G36*
X54953000Y26654000D02*
G01*
X54955000Y26654000D01*
X54958000Y26653000D01*
X54960000Y26653000D01*
X54963000Y26652000D01*
X54965000Y26651000D01*
X54968000Y26650000D01*
X54970000Y26648000D01*
X54972000Y26647000D01*
X54974000Y26645000D01*
X54976000Y26644000D01*
X54978000Y26642000D01*
X54980000Y26640000D01*
X54982000Y26638000D01*
X54984000Y26636000D01*
X54985000Y26634000D01*
X54987000Y26632000D01*
X54988000Y26630000D01*
X54990000Y26628000D01*
X54991000Y26625000D01*
X54992000Y26623000D01*
X54993000Y26620000D01*
X54993000Y26618000D01*
X54994000Y26615000D01*
X54994000Y26613000D01*
X54995000Y26610000D01*
X54995000Y26608000D01*
X54995000Y26605000D01*
X54995000Y25965000D01*
X54995000Y25962000D01*
X54995000Y25960000D01*
X54994000Y25957000D01*
X54994000Y25955000D01*
X54993000Y25952000D01*
X54993000Y25950000D01*
X54992000Y25947000D01*
X54991000Y25945000D01*
X54990000Y25942000D01*
X54988000Y25940000D01*
X54987000Y25938000D01*
X54985000Y25936000D01*
X54984000Y25934000D01*
X54982000Y25932000D01*
X54980000Y25930000D01*
X54978000Y25928000D01*
X54976000Y25926000D01*
X54974000Y25925000D01*
X54972000Y25923000D01*
X54970000Y25922000D01*
X54968000Y25920000D01*
X54965000Y25919000D01*
X54963000Y25918000D01*
X54960000Y25917000D01*
X54958000Y25917000D01*
X54955000Y25916000D01*
X54953000Y25916000D01*
X54950000Y25915000D01*
X54948000Y25915000D01*
X54945000Y25915000D01*
X53355000Y25915000D01*
X53352000Y25915000D01*
X53350000Y25915000D01*
X53347000Y25916000D01*
X53345000Y25916000D01*
X53342000Y25917000D01*
X53340000Y25917000D01*
X53337000Y25918000D01*
X53335000Y25919000D01*
X53332000Y25920000D01*
X53330000Y25922000D01*
X53328000Y25923000D01*
X53326000Y25925000D01*
X53324000Y25926000D01*
X53322000Y25928000D01*
X53320000Y25930000D01*
X53318000Y25932000D01*
X53316000Y25934000D01*
X53315000Y25936000D01*
X53313000Y25938000D01*
X53312000Y25940000D01*
X53310000Y25942000D01*
X53309000Y25945000D01*
X53308000Y25947000D01*
X53307000Y25950000D01*
X53307000Y25952000D01*
X53306000Y25955000D01*
X53306000Y25957000D01*
X53305000Y25960000D01*
X53305000Y25962000D01*
X53305000Y25965000D01*
X53305000Y26605000D01*
X53305000Y26608000D01*
X53305000Y26610000D01*
X53306000Y26613000D01*
X53306000Y26615000D01*
X53307000Y26618000D01*
X53307000Y26620000D01*
X53308000Y26623000D01*
X53309000Y26625000D01*
X53310000Y26628000D01*
X53312000Y26630000D01*
X53313000Y26632000D01*
X53315000Y26634000D01*
X53316000Y26636000D01*
X53318000Y26638000D01*
X53320000Y26640000D01*
X53322000Y26642000D01*
X53324000Y26644000D01*
X53326000Y26645000D01*
X53328000Y26647000D01*
X53330000Y26648000D01*
X53332000Y26650000D01*
X53335000Y26651000D01*
X53337000Y26652000D01*
X53340000Y26653000D01*
X53342000Y26653000D01*
X53345000Y26654000D01*
X53347000Y26654000D01*
X53350000Y26655000D01*
X53352000Y26655000D01*
X53355000Y26655000D01*
X54945000Y26655000D01*
X54948000Y26655000D01*
X54950000Y26655000D01*
X54953000Y26654000D01*
G37*
X54953000Y25384000D02*
X54955000Y25384000D01*
X54958000Y25383000D01*
X54960000Y25383000D01*
X54963000Y25382000D01*
X54965000Y25381000D01*
X54968000Y25380000D01*
X54970000Y25378000D01*
X54972000Y25377000D01*
X54974000Y25375000D01*
X54976000Y25374000D01*
X54978000Y25372000D01*
X54980000Y25370000D01*
X54982000Y25368000D01*
X54984000Y25366000D01*
X54985000Y25364000D01*
X54987000Y25362000D01*
X54988000Y25360000D01*
X54990000Y25358000D01*
X54991000Y25355000D01*
X54992000Y25353000D01*
X54993000Y25350000D01*
X54993000Y25348000D01*
X54994000Y25345000D01*
X54994000Y25343000D01*
X54995000Y25340000D01*
X54995000Y25338000D01*
X54995000Y25335000D01*
X54995000Y24695000D01*
X54995000Y24692000D01*
X54995000Y24690000D01*
X54994000Y24687000D01*
X54994000Y24685000D01*
X54993000Y24682000D01*
X54993000Y24680000D01*
X54992000Y24677000D01*
X54991000Y24675000D01*
X54990000Y24672000D01*
X54988000Y24670000D01*
X54987000Y24668000D01*
X54985000Y24666000D01*
X54984000Y24664000D01*
X54982000Y24662000D01*
X54980000Y24660000D01*
X54978000Y24658000D01*
X54976000Y24656000D01*
X54974000Y24655000D01*
X54972000Y24653000D01*
X54970000Y24652000D01*
X54968000Y24650000D01*
X54965000Y24649000D01*
X54963000Y24648000D01*
X54960000Y24647000D01*
X54958000Y24647000D01*
X54955000Y24646000D01*
X54953000Y24646000D01*
X54950000Y24645000D01*
X54948000Y24645000D01*
X54945000Y24645000D01*
X53355000Y24645000D01*
X53352000Y24645000D01*
X53350000Y24645000D01*
X53347000Y24646000D01*
X53345000Y24646000D01*
X53342000Y24647000D01*
X53340000Y24647000D01*
X53337000Y24648000D01*
X53335000Y24649000D01*
X53332000Y24650000D01*
X53330000Y24652000D01*
X53328000Y24653000D01*
X53326000Y24655000D01*
X53324000Y24656000D01*
X53322000Y24658000D01*
X53320000Y24660000D01*
X53318000Y24662000D01*
X53316000Y24664000D01*
X53315000Y24666000D01*
X53313000Y24668000D01*
X53312000Y24670000D01*
X53310000Y24672000D01*
X53309000Y24675000D01*
X53308000Y24677000D01*
X53307000Y24680000D01*
X53307000Y24682000D01*
X53306000Y24685000D01*
X53306000Y24687000D01*
X53305000Y24690000D01*
X53305000Y24692000D01*
X53305000Y24695000D01*
X53305000Y25335000D01*
X53305000Y25338000D01*
X53305000Y25340000D01*
X53306000Y25343000D01*
X53306000Y25345000D01*
X53307000Y25348000D01*
X53307000Y25350000D01*
X53308000Y25353000D01*
X53309000Y25355000D01*
X53310000Y25358000D01*
X53312000Y25360000D01*
X53313000Y25362000D01*
X53315000Y25364000D01*
X53316000Y25366000D01*
X53318000Y25368000D01*
X53320000Y25370000D01*
X53322000Y25372000D01*
X53324000Y25374000D01*
X53326000Y25375000D01*
X53328000Y25377000D01*
X53330000Y25378000D01*
X53332000Y25380000D01*
X53335000Y25381000D01*
X53337000Y25382000D01*
X53340000Y25383000D01*
X53342000Y25383000D01*
X53345000Y25384000D01*
X53347000Y25384000D01*
X53350000Y25385000D01*
X53352000Y25385000D01*
X53355000Y25385000D01*
X54945000Y25385000D01*
X54948000Y25385000D01*
X54950000Y25385000D01*
X54953000Y25384000D01*
G36*
X54953000Y25384000D02*
G01*
X54955000Y25384000D01*
X54958000Y25383000D01*
X54960000Y25383000D01*
X54963000Y25382000D01*
X54965000Y25381000D01*
X54968000Y25380000D01*
X54970000Y25378000D01*
X54972000Y25377000D01*
X54974000Y25375000D01*
X54976000Y25374000D01*
X54978000Y25372000D01*
X54980000Y25370000D01*
X54982000Y25368000D01*
X54984000Y25366000D01*
X54985000Y25364000D01*
X54987000Y25362000D01*
X54988000Y25360000D01*
X54990000Y25358000D01*
X54991000Y25355000D01*
X54992000Y25353000D01*
X54993000Y25350000D01*
X54993000Y25348000D01*
X54994000Y25345000D01*
X54994000Y25343000D01*
X54995000Y25340000D01*
X54995000Y25338000D01*
X54995000Y25335000D01*
X54995000Y24695000D01*
X54995000Y24692000D01*
X54995000Y24690000D01*
X54994000Y24687000D01*
X54994000Y24685000D01*
X54993000Y24682000D01*
X54993000Y24680000D01*
X54992000Y24677000D01*
X54991000Y24675000D01*
X54990000Y24672000D01*
X54988000Y24670000D01*
X54987000Y24668000D01*
X54985000Y24666000D01*
X54984000Y24664000D01*
X54982000Y24662000D01*
X54980000Y24660000D01*
X54978000Y24658000D01*
X54976000Y24656000D01*
X54974000Y24655000D01*
X54972000Y24653000D01*
X54970000Y24652000D01*
X54968000Y24650000D01*
X54965000Y24649000D01*
X54963000Y24648000D01*
X54960000Y24647000D01*
X54958000Y24647000D01*
X54955000Y24646000D01*
X54953000Y24646000D01*
X54950000Y24645000D01*
X54948000Y24645000D01*
X54945000Y24645000D01*
X53355000Y24645000D01*
X53352000Y24645000D01*
X53350000Y24645000D01*
X53347000Y24646000D01*
X53345000Y24646000D01*
X53342000Y24647000D01*
X53340000Y24647000D01*
X53337000Y24648000D01*
X53335000Y24649000D01*
X53332000Y24650000D01*
X53330000Y24652000D01*
X53328000Y24653000D01*
X53326000Y24655000D01*
X53324000Y24656000D01*
X53322000Y24658000D01*
X53320000Y24660000D01*
X53318000Y24662000D01*
X53316000Y24664000D01*
X53315000Y24666000D01*
X53313000Y24668000D01*
X53312000Y24670000D01*
X53310000Y24672000D01*
X53309000Y24675000D01*
X53308000Y24677000D01*
X53307000Y24680000D01*
X53307000Y24682000D01*
X53306000Y24685000D01*
X53306000Y24687000D01*
X53305000Y24690000D01*
X53305000Y24692000D01*
X53305000Y24695000D01*
X53305000Y25335000D01*
X53305000Y25338000D01*
X53305000Y25340000D01*
X53306000Y25343000D01*
X53306000Y25345000D01*
X53307000Y25348000D01*
X53307000Y25350000D01*
X53308000Y25353000D01*
X53309000Y25355000D01*
X53310000Y25358000D01*
X53312000Y25360000D01*
X53313000Y25362000D01*
X53315000Y25364000D01*
X53316000Y25366000D01*
X53318000Y25368000D01*
X53320000Y25370000D01*
X53322000Y25372000D01*
X53324000Y25374000D01*
X53326000Y25375000D01*
X53328000Y25377000D01*
X53330000Y25378000D01*
X53332000Y25380000D01*
X53335000Y25381000D01*
X53337000Y25382000D01*
X53340000Y25383000D01*
X53342000Y25383000D01*
X53345000Y25384000D01*
X53347000Y25384000D01*
X53350000Y25385000D01*
X53352000Y25385000D01*
X53355000Y25385000D01*
X54945000Y25385000D01*
X54948000Y25385000D01*
X54950000Y25385000D01*
X54953000Y25384000D01*
G37*
X54953000Y24114000D02*
X54955000Y24114000D01*
X54958000Y24113000D01*
X54960000Y24113000D01*
X54963000Y24112000D01*
X54965000Y24111000D01*
X54968000Y24110000D01*
X54970000Y24108000D01*
X54972000Y24107000D01*
X54974000Y24105000D01*
X54976000Y24104000D01*
X54978000Y24102000D01*
X54980000Y24100000D01*
X54982000Y24098000D01*
X54984000Y24096000D01*
X54985000Y24094000D01*
X54987000Y24092000D01*
X54988000Y24090000D01*
X54990000Y24088000D01*
X54991000Y24085000D01*
X54992000Y24083000D01*
X54993000Y24080000D01*
X54993000Y24078000D01*
X54994000Y24075000D01*
X54994000Y24073000D01*
X54995000Y24070000D01*
X54995000Y24068000D01*
X54995000Y24065000D01*
X54995000Y23425000D01*
X54995000Y23422000D01*
X54995000Y23420000D01*
X54994000Y23417000D01*
X54994000Y23415000D01*
X54993000Y23412000D01*
X54993000Y23410000D01*
X54992000Y23407000D01*
X54991000Y23405000D01*
X54990000Y23402000D01*
X54988000Y23400000D01*
X54987000Y23398000D01*
X54985000Y23396000D01*
X54984000Y23394000D01*
X54982000Y23392000D01*
X54980000Y23390000D01*
X54978000Y23388000D01*
X54976000Y23386000D01*
X54974000Y23385000D01*
X54972000Y23383000D01*
X54970000Y23382000D01*
X54968000Y23380000D01*
X54965000Y23379000D01*
X54963000Y23378000D01*
X54960000Y23377000D01*
X54958000Y23377000D01*
X54955000Y23376000D01*
X54953000Y23376000D01*
X54950000Y23375000D01*
X54948000Y23375000D01*
X54945000Y23375000D01*
X53355000Y23375000D01*
X53352000Y23375000D01*
X53350000Y23375000D01*
X53347000Y23376000D01*
X53345000Y23376000D01*
X53342000Y23377000D01*
X53340000Y23377000D01*
X53337000Y23378000D01*
X53335000Y23379000D01*
X53332000Y23380000D01*
X53330000Y23382000D01*
X53328000Y23383000D01*
X53326000Y23385000D01*
X53324000Y23386000D01*
X53322000Y23388000D01*
X53320000Y23390000D01*
X53318000Y23392000D01*
X53316000Y23394000D01*
X53315000Y23396000D01*
X53313000Y23398000D01*
X53312000Y23400000D01*
X53310000Y23402000D01*
X53309000Y23405000D01*
X53308000Y23407000D01*
X53307000Y23410000D01*
X53307000Y23412000D01*
X53306000Y23415000D01*
X53306000Y23417000D01*
X53305000Y23420000D01*
X53305000Y23422000D01*
X53305000Y23425000D01*
X53305000Y24065000D01*
X53305000Y24068000D01*
X53305000Y24070000D01*
X53306000Y24073000D01*
X53306000Y24075000D01*
X53307000Y24078000D01*
X53307000Y24080000D01*
X53308000Y24083000D01*
X53309000Y24085000D01*
X53310000Y24088000D01*
X53312000Y24090000D01*
X53313000Y24092000D01*
X53315000Y24094000D01*
X53316000Y24096000D01*
X53318000Y24098000D01*
X53320000Y24100000D01*
X53322000Y24102000D01*
X53324000Y24104000D01*
X53326000Y24105000D01*
X53328000Y24107000D01*
X53330000Y24108000D01*
X53332000Y24110000D01*
X53335000Y24111000D01*
X53337000Y24112000D01*
X53340000Y24113000D01*
X53342000Y24113000D01*
X53345000Y24114000D01*
X53347000Y24114000D01*
X53350000Y24115000D01*
X53352000Y24115000D01*
X53355000Y24115000D01*
X54945000Y24115000D01*
X54948000Y24115000D01*
X54950000Y24115000D01*
X54953000Y24114000D01*
G36*
X54953000Y24114000D02*
G01*
X54955000Y24114000D01*
X54958000Y24113000D01*
X54960000Y24113000D01*
X54963000Y24112000D01*
X54965000Y24111000D01*
X54968000Y24110000D01*
X54970000Y24108000D01*
X54972000Y24107000D01*
X54974000Y24105000D01*
X54976000Y24104000D01*
X54978000Y24102000D01*
X54980000Y24100000D01*
X54982000Y24098000D01*
X54984000Y24096000D01*
X54985000Y24094000D01*
X54987000Y24092000D01*
X54988000Y24090000D01*
X54990000Y24088000D01*
X54991000Y24085000D01*
X54992000Y24083000D01*
X54993000Y24080000D01*
X54993000Y24078000D01*
X54994000Y24075000D01*
X54994000Y24073000D01*
X54995000Y24070000D01*
X54995000Y24068000D01*
X54995000Y24065000D01*
X54995000Y23425000D01*
X54995000Y23422000D01*
X54995000Y23420000D01*
X54994000Y23417000D01*
X54994000Y23415000D01*
X54993000Y23412000D01*
X54993000Y23410000D01*
X54992000Y23407000D01*
X54991000Y23405000D01*
X54990000Y23402000D01*
X54988000Y23400000D01*
X54987000Y23398000D01*
X54985000Y23396000D01*
X54984000Y23394000D01*
X54982000Y23392000D01*
X54980000Y23390000D01*
X54978000Y23388000D01*
X54976000Y23386000D01*
X54974000Y23385000D01*
X54972000Y23383000D01*
X54970000Y23382000D01*
X54968000Y23380000D01*
X54965000Y23379000D01*
X54963000Y23378000D01*
X54960000Y23377000D01*
X54958000Y23377000D01*
X54955000Y23376000D01*
X54953000Y23376000D01*
X54950000Y23375000D01*
X54948000Y23375000D01*
X54945000Y23375000D01*
X53355000Y23375000D01*
X53352000Y23375000D01*
X53350000Y23375000D01*
X53347000Y23376000D01*
X53345000Y23376000D01*
X53342000Y23377000D01*
X53340000Y23377000D01*
X53337000Y23378000D01*
X53335000Y23379000D01*
X53332000Y23380000D01*
X53330000Y23382000D01*
X53328000Y23383000D01*
X53326000Y23385000D01*
X53324000Y23386000D01*
X53322000Y23388000D01*
X53320000Y23390000D01*
X53318000Y23392000D01*
X53316000Y23394000D01*
X53315000Y23396000D01*
X53313000Y23398000D01*
X53312000Y23400000D01*
X53310000Y23402000D01*
X53309000Y23405000D01*
X53308000Y23407000D01*
X53307000Y23410000D01*
X53307000Y23412000D01*
X53306000Y23415000D01*
X53306000Y23417000D01*
X53305000Y23420000D01*
X53305000Y23422000D01*
X53305000Y23425000D01*
X53305000Y24065000D01*
X53305000Y24068000D01*
X53305000Y24070000D01*
X53306000Y24073000D01*
X53306000Y24075000D01*
X53307000Y24078000D01*
X53307000Y24080000D01*
X53308000Y24083000D01*
X53309000Y24085000D01*
X53310000Y24088000D01*
X53312000Y24090000D01*
X53313000Y24092000D01*
X53315000Y24094000D01*
X53316000Y24096000D01*
X53318000Y24098000D01*
X53320000Y24100000D01*
X53322000Y24102000D01*
X53324000Y24104000D01*
X53326000Y24105000D01*
X53328000Y24107000D01*
X53330000Y24108000D01*
X53332000Y24110000D01*
X53335000Y24111000D01*
X53337000Y24112000D01*
X53340000Y24113000D01*
X53342000Y24113000D01*
X53345000Y24114000D01*
X53347000Y24114000D01*
X53350000Y24115000D01*
X53352000Y24115000D01*
X53355000Y24115000D01*
X54945000Y24115000D01*
X54948000Y24115000D01*
X54950000Y24115000D01*
X54953000Y24114000D01*
G37*
X60353000Y27924000D02*
X60355000Y27924000D01*
X60358000Y27923000D01*
X60360000Y27923000D01*
X60363000Y27922000D01*
X60365000Y27921000D01*
X60368000Y27920000D01*
X60370000Y27918000D01*
X60372000Y27917000D01*
X60374000Y27915000D01*
X60376000Y27914000D01*
X60378000Y27912000D01*
X60380000Y27910000D01*
X60382000Y27908000D01*
X60384000Y27906000D01*
X60385000Y27904000D01*
X60387000Y27902000D01*
X60388000Y27900000D01*
X60390000Y27898000D01*
X60391000Y27895000D01*
X60392000Y27893000D01*
X60393000Y27890000D01*
X60393000Y27888000D01*
X60394000Y27885000D01*
X60394000Y27883000D01*
X60395000Y27880000D01*
X60395000Y27878000D01*
X60395000Y27875000D01*
X60395000Y27235000D01*
X60395000Y27232000D01*
X60395000Y27230000D01*
X60394000Y27227000D01*
X60394000Y27225000D01*
X60393000Y27222000D01*
X60393000Y27220000D01*
X60392000Y27217000D01*
X60391000Y27215000D01*
X60390000Y27212000D01*
X60388000Y27210000D01*
X60387000Y27208000D01*
X60385000Y27206000D01*
X60384000Y27204000D01*
X60382000Y27202000D01*
X60380000Y27200000D01*
X60378000Y27198000D01*
X60376000Y27196000D01*
X60374000Y27195000D01*
X60372000Y27193000D01*
X60370000Y27192000D01*
X60368000Y27190000D01*
X60365000Y27189000D01*
X60363000Y27188000D01*
X60360000Y27187000D01*
X60358000Y27187000D01*
X60355000Y27186000D01*
X60353000Y27186000D01*
X60350000Y27185000D01*
X60348000Y27185000D01*
X60345000Y27185000D01*
X58755000Y27185000D01*
X58752000Y27185000D01*
X58750000Y27185000D01*
X58747000Y27186000D01*
X58745000Y27186000D01*
X58742000Y27187000D01*
X58740000Y27187000D01*
X58737000Y27188000D01*
X58735000Y27189000D01*
X58732000Y27190000D01*
X58730000Y27192000D01*
X58728000Y27193000D01*
X58726000Y27195000D01*
X58724000Y27196000D01*
X58722000Y27198000D01*
X58720000Y27200000D01*
X58718000Y27202000D01*
X58716000Y27204000D01*
X58715000Y27206000D01*
X58713000Y27208000D01*
X58712000Y27210000D01*
X58710000Y27212000D01*
X58709000Y27215000D01*
X58708000Y27217000D01*
X58707000Y27220000D01*
X58707000Y27222000D01*
X58706000Y27225000D01*
X58706000Y27227000D01*
X58705000Y27230000D01*
X58705000Y27232000D01*
X58705000Y27235000D01*
X58705000Y27875000D01*
X58705000Y27878000D01*
X58705000Y27880000D01*
X58706000Y27883000D01*
X58706000Y27885000D01*
X58707000Y27888000D01*
X58707000Y27890000D01*
X58708000Y27893000D01*
X58709000Y27895000D01*
X58710000Y27898000D01*
X58712000Y27900000D01*
X58713000Y27902000D01*
X58715000Y27904000D01*
X58716000Y27906000D01*
X58718000Y27908000D01*
X58720000Y27910000D01*
X58722000Y27912000D01*
X58724000Y27914000D01*
X58726000Y27915000D01*
X58728000Y27917000D01*
X58730000Y27918000D01*
X58732000Y27920000D01*
X58735000Y27921000D01*
X58737000Y27922000D01*
X58740000Y27923000D01*
X58742000Y27923000D01*
X58745000Y27924000D01*
X58747000Y27924000D01*
X58750000Y27925000D01*
X58752000Y27925000D01*
X58755000Y27925000D01*
X60345000Y27925000D01*
X60348000Y27925000D01*
X60350000Y27925000D01*
X60353000Y27924000D01*
G36*
X60353000Y27924000D02*
G01*
X60355000Y27924000D01*
X60358000Y27923000D01*
X60360000Y27923000D01*
X60363000Y27922000D01*
X60365000Y27921000D01*
X60368000Y27920000D01*
X60370000Y27918000D01*
X60372000Y27917000D01*
X60374000Y27915000D01*
X60376000Y27914000D01*
X60378000Y27912000D01*
X60380000Y27910000D01*
X60382000Y27908000D01*
X60384000Y27906000D01*
X60385000Y27904000D01*
X60387000Y27902000D01*
X60388000Y27900000D01*
X60390000Y27898000D01*
X60391000Y27895000D01*
X60392000Y27893000D01*
X60393000Y27890000D01*
X60393000Y27888000D01*
X60394000Y27885000D01*
X60394000Y27883000D01*
X60395000Y27880000D01*
X60395000Y27878000D01*
X60395000Y27875000D01*
X60395000Y27235000D01*
X60395000Y27232000D01*
X60395000Y27230000D01*
X60394000Y27227000D01*
X60394000Y27225000D01*
X60393000Y27222000D01*
X60393000Y27220000D01*
X60392000Y27217000D01*
X60391000Y27215000D01*
X60390000Y27212000D01*
X60388000Y27210000D01*
X60387000Y27208000D01*
X60385000Y27206000D01*
X60384000Y27204000D01*
X60382000Y27202000D01*
X60380000Y27200000D01*
X60378000Y27198000D01*
X60376000Y27196000D01*
X60374000Y27195000D01*
X60372000Y27193000D01*
X60370000Y27192000D01*
X60368000Y27190000D01*
X60365000Y27189000D01*
X60363000Y27188000D01*
X60360000Y27187000D01*
X60358000Y27187000D01*
X60355000Y27186000D01*
X60353000Y27186000D01*
X60350000Y27185000D01*
X60348000Y27185000D01*
X60345000Y27185000D01*
X58755000Y27185000D01*
X58752000Y27185000D01*
X58750000Y27185000D01*
X58747000Y27186000D01*
X58745000Y27186000D01*
X58742000Y27187000D01*
X58740000Y27187000D01*
X58737000Y27188000D01*
X58735000Y27189000D01*
X58732000Y27190000D01*
X58730000Y27192000D01*
X58728000Y27193000D01*
X58726000Y27195000D01*
X58724000Y27196000D01*
X58722000Y27198000D01*
X58720000Y27200000D01*
X58718000Y27202000D01*
X58716000Y27204000D01*
X58715000Y27206000D01*
X58713000Y27208000D01*
X58712000Y27210000D01*
X58710000Y27212000D01*
X58709000Y27215000D01*
X58708000Y27217000D01*
X58707000Y27220000D01*
X58707000Y27222000D01*
X58706000Y27225000D01*
X58706000Y27227000D01*
X58705000Y27230000D01*
X58705000Y27232000D01*
X58705000Y27235000D01*
X58705000Y27875000D01*
X58705000Y27878000D01*
X58705000Y27880000D01*
X58706000Y27883000D01*
X58706000Y27885000D01*
X58707000Y27888000D01*
X58707000Y27890000D01*
X58708000Y27893000D01*
X58709000Y27895000D01*
X58710000Y27898000D01*
X58712000Y27900000D01*
X58713000Y27902000D01*
X58715000Y27904000D01*
X58716000Y27906000D01*
X58718000Y27908000D01*
X58720000Y27910000D01*
X58722000Y27912000D01*
X58724000Y27914000D01*
X58726000Y27915000D01*
X58728000Y27917000D01*
X58730000Y27918000D01*
X58732000Y27920000D01*
X58735000Y27921000D01*
X58737000Y27922000D01*
X58740000Y27923000D01*
X58742000Y27923000D01*
X58745000Y27924000D01*
X58747000Y27924000D01*
X58750000Y27925000D01*
X58752000Y27925000D01*
X58755000Y27925000D01*
X60345000Y27925000D01*
X60348000Y27925000D01*
X60350000Y27925000D01*
X60353000Y27924000D01*
G37*
X60353000Y26654000D02*
X60355000Y26654000D01*
X60358000Y26653000D01*
X60360000Y26653000D01*
X60363000Y26652000D01*
X60365000Y26651000D01*
X60368000Y26650000D01*
X60370000Y26648000D01*
X60372000Y26647000D01*
X60374000Y26645000D01*
X60376000Y26644000D01*
X60378000Y26642000D01*
X60380000Y26640000D01*
X60382000Y26638000D01*
X60384000Y26636000D01*
X60385000Y26634000D01*
X60387000Y26632000D01*
X60388000Y26630000D01*
X60390000Y26628000D01*
X60391000Y26625000D01*
X60392000Y26623000D01*
X60393000Y26620000D01*
X60393000Y26618000D01*
X60394000Y26615000D01*
X60394000Y26613000D01*
X60395000Y26610000D01*
X60395000Y26608000D01*
X60395000Y26605000D01*
X60395000Y25965000D01*
X60395000Y25962000D01*
X60395000Y25960000D01*
X60394000Y25957000D01*
X60394000Y25955000D01*
X60393000Y25952000D01*
X60393000Y25950000D01*
X60392000Y25947000D01*
X60391000Y25945000D01*
X60390000Y25942000D01*
X60388000Y25940000D01*
X60387000Y25938000D01*
X60385000Y25936000D01*
X60384000Y25934000D01*
X60382000Y25932000D01*
X60380000Y25930000D01*
X60378000Y25928000D01*
X60376000Y25926000D01*
X60374000Y25925000D01*
X60372000Y25923000D01*
X60370000Y25922000D01*
X60368000Y25920000D01*
X60365000Y25919000D01*
X60363000Y25918000D01*
X60360000Y25917000D01*
X60358000Y25917000D01*
X60355000Y25916000D01*
X60353000Y25916000D01*
X60350000Y25915000D01*
X60348000Y25915000D01*
X60345000Y25915000D01*
X58755000Y25915000D01*
X58752000Y25915000D01*
X58750000Y25915000D01*
X58747000Y25916000D01*
X58745000Y25916000D01*
X58742000Y25917000D01*
X58740000Y25917000D01*
X58737000Y25918000D01*
X58735000Y25919000D01*
X58732000Y25920000D01*
X58730000Y25922000D01*
X58728000Y25923000D01*
X58726000Y25925000D01*
X58724000Y25926000D01*
X58722000Y25928000D01*
X58720000Y25930000D01*
X58718000Y25932000D01*
X58716000Y25934000D01*
X58715000Y25936000D01*
X58713000Y25938000D01*
X58712000Y25940000D01*
X58710000Y25942000D01*
X58709000Y25945000D01*
X58708000Y25947000D01*
X58707000Y25950000D01*
X58707000Y25952000D01*
X58706000Y25955000D01*
X58706000Y25957000D01*
X58705000Y25960000D01*
X58705000Y25962000D01*
X58705000Y25965000D01*
X58705000Y26605000D01*
X58705000Y26608000D01*
X58705000Y26610000D01*
X58706000Y26613000D01*
X58706000Y26615000D01*
X58707000Y26618000D01*
X58707000Y26620000D01*
X58708000Y26623000D01*
X58709000Y26625000D01*
X58710000Y26628000D01*
X58712000Y26630000D01*
X58713000Y26632000D01*
X58715000Y26634000D01*
X58716000Y26636000D01*
X58718000Y26638000D01*
X58720000Y26640000D01*
X58722000Y26642000D01*
X58724000Y26644000D01*
X58726000Y26645000D01*
X58728000Y26647000D01*
X58730000Y26648000D01*
X58732000Y26650000D01*
X58735000Y26651000D01*
X58737000Y26652000D01*
X58740000Y26653000D01*
X58742000Y26653000D01*
X58745000Y26654000D01*
X58747000Y26654000D01*
X58750000Y26655000D01*
X58752000Y26655000D01*
X58755000Y26655000D01*
X60345000Y26655000D01*
X60348000Y26655000D01*
X60350000Y26655000D01*
X60353000Y26654000D01*
G36*
X60353000Y26654000D02*
G01*
X60355000Y26654000D01*
X60358000Y26653000D01*
X60360000Y26653000D01*
X60363000Y26652000D01*
X60365000Y26651000D01*
X60368000Y26650000D01*
X60370000Y26648000D01*
X60372000Y26647000D01*
X60374000Y26645000D01*
X60376000Y26644000D01*
X60378000Y26642000D01*
X60380000Y26640000D01*
X60382000Y26638000D01*
X60384000Y26636000D01*
X60385000Y26634000D01*
X60387000Y26632000D01*
X60388000Y26630000D01*
X60390000Y26628000D01*
X60391000Y26625000D01*
X60392000Y26623000D01*
X60393000Y26620000D01*
X60393000Y26618000D01*
X60394000Y26615000D01*
X60394000Y26613000D01*
X60395000Y26610000D01*
X60395000Y26608000D01*
X60395000Y26605000D01*
X60395000Y25965000D01*
X60395000Y25962000D01*
X60395000Y25960000D01*
X60394000Y25957000D01*
X60394000Y25955000D01*
X60393000Y25952000D01*
X60393000Y25950000D01*
X60392000Y25947000D01*
X60391000Y25945000D01*
X60390000Y25942000D01*
X60388000Y25940000D01*
X60387000Y25938000D01*
X60385000Y25936000D01*
X60384000Y25934000D01*
X60382000Y25932000D01*
X60380000Y25930000D01*
X60378000Y25928000D01*
X60376000Y25926000D01*
X60374000Y25925000D01*
X60372000Y25923000D01*
X60370000Y25922000D01*
X60368000Y25920000D01*
X60365000Y25919000D01*
X60363000Y25918000D01*
X60360000Y25917000D01*
X60358000Y25917000D01*
X60355000Y25916000D01*
X60353000Y25916000D01*
X60350000Y25915000D01*
X60348000Y25915000D01*
X60345000Y25915000D01*
X58755000Y25915000D01*
X58752000Y25915000D01*
X58750000Y25915000D01*
X58747000Y25916000D01*
X58745000Y25916000D01*
X58742000Y25917000D01*
X58740000Y25917000D01*
X58737000Y25918000D01*
X58735000Y25919000D01*
X58732000Y25920000D01*
X58730000Y25922000D01*
X58728000Y25923000D01*
X58726000Y25925000D01*
X58724000Y25926000D01*
X58722000Y25928000D01*
X58720000Y25930000D01*
X58718000Y25932000D01*
X58716000Y25934000D01*
X58715000Y25936000D01*
X58713000Y25938000D01*
X58712000Y25940000D01*
X58710000Y25942000D01*
X58709000Y25945000D01*
X58708000Y25947000D01*
X58707000Y25950000D01*
X58707000Y25952000D01*
X58706000Y25955000D01*
X58706000Y25957000D01*
X58705000Y25960000D01*
X58705000Y25962000D01*
X58705000Y25965000D01*
X58705000Y26605000D01*
X58705000Y26608000D01*
X58705000Y26610000D01*
X58706000Y26613000D01*
X58706000Y26615000D01*
X58707000Y26618000D01*
X58707000Y26620000D01*
X58708000Y26623000D01*
X58709000Y26625000D01*
X58710000Y26628000D01*
X58712000Y26630000D01*
X58713000Y26632000D01*
X58715000Y26634000D01*
X58716000Y26636000D01*
X58718000Y26638000D01*
X58720000Y26640000D01*
X58722000Y26642000D01*
X58724000Y26644000D01*
X58726000Y26645000D01*
X58728000Y26647000D01*
X58730000Y26648000D01*
X58732000Y26650000D01*
X58735000Y26651000D01*
X58737000Y26652000D01*
X58740000Y26653000D01*
X58742000Y26653000D01*
X58745000Y26654000D01*
X58747000Y26654000D01*
X58750000Y26655000D01*
X58752000Y26655000D01*
X58755000Y26655000D01*
X60345000Y26655000D01*
X60348000Y26655000D01*
X60350000Y26655000D01*
X60353000Y26654000D01*
G37*
X60353000Y25384000D02*
X60355000Y25384000D01*
X60358000Y25383000D01*
X60360000Y25383000D01*
X60363000Y25382000D01*
X60365000Y25381000D01*
X60368000Y25380000D01*
X60370000Y25378000D01*
X60372000Y25377000D01*
X60374000Y25375000D01*
X60376000Y25374000D01*
X60378000Y25372000D01*
X60380000Y25370000D01*
X60382000Y25368000D01*
X60384000Y25366000D01*
X60385000Y25364000D01*
X60387000Y25362000D01*
X60388000Y25360000D01*
X60390000Y25358000D01*
X60391000Y25355000D01*
X60392000Y25353000D01*
X60393000Y25350000D01*
X60393000Y25348000D01*
X60394000Y25345000D01*
X60394000Y25343000D01*
X60395000Y25340000D01*
X60395000Y25338000D01*
X60395000Y25335000D01*
X60395000Y24695000D01*
X60395000Y24692000D01*
X60395000Y24690000D01*
X60394000Y24687000D01*
X60394000Y24685000D01*
X60393000Y24682000D01*
X60393000Y24680000D01*
X60392000Y24677000D01*
X60391000Y24675000D01*
X60390000Y24672000D01*
X60388000Y24670000D01*
X60387000Y24668000D01*
X60385000Y24666000D01*
X60384000Y24664000D01*
X60382000Y24662000D01*
X60380000Y24660000D01*
X60378000Y24658000D01*
X60376000Y24656000D01*
X60374000Y24655000D01*
X60372000Y24653000D01*
X60370000Y24652000D01*
X60368000Y24650000D01*
X60365000Y24649000D01*
X60363000Y24648000D01*
X60360000Y24647000D01*
X60358000Y24647000D01*
X60355000Y24646000D01*
X60353000Y24646000D01*
X60350000Y24645000D01*
X60348000Y24645000D01*
X60345000Y24645000D01*
X58755000Y24645000D01*
X58752000Y24645000D01*
X58750000Y24645000D01*
X58747000Y24646000D01*
X58745000Y24646000D01*
X58742000Y24647000D01*
X58740000Y24647000D01*
X58737000Y24648000D01*
X58735000Y24649000D01*
X58732000Y24650000D01*
X58730000Y24652000D01*
X58728000Y24653000D01*
X58726000Y24655000D01*
X58724000Y24656000D01*
X58722000Y24658000D01*
X58720000Y24660000D01*
X58718000Y24662000D01*
X58716000Y24664000D01*
X58715000Y24666000D01*
X58713000Y24668000D01*
X58712000Y24670000D01*
X58710000Y24672000D01*
X58709000Y24675000D01*
X58708000Y24677000D01*
X58707000Y24680000D01*
X58707000Y24682000D01*
X58706000Y24685000D01*
X58706000Y24687000D01*
X58705000Y24690000D01*
X58705000Y24692000D01*
X58705000Y24695000D01*
X58705000Y25335000D01*
X58705000Y25338000D01*
X58705000Y25340000D01*
X58706000Y25343000D01*
X58706000Y25345000D01*
X58707000Y25348000D01*
X58707000Y25350000D01*
X58708000Y25353000D01*
X58709000Y25355000D01*
X58710000Y25358000D01*
X58712000Y25360000D01*
X58713000Y25362000D01*
X58715000Y25364000D01*
X58716000Y25366000D01*
X58718000Y25368000D01*
X58720000Y25370000D01*
X58722000Y25372000D01*
X58724000Y25374000D01*
X58726000Y25375000D01*
X58728000Y25377000D01*
X58730000Y25378000D01*
X58732000Y25380000D01*
X58735000Y25381000D01*
X58737000Y25382000D01*
X58740000Y25383000D01*
X58742000Y25383000D01*
X58745000Y25384000D01*
X58747000Y25384000D01*
X58750000Y25385000D01*
X58752000Y25385000D01*
X58755000Y25385000D01*
X60345000Y25385000D01*
X60348000Y25385000D01*
X60350000Y25385000D01*
X60353000Y25384000D01*
G36*
X60353000Y25384000D02*
G01*
X60355000Y25384000D01*
X60358000Y25383000D01*
X60360000Y25383000D01*
X60363000Y25382000D01*
X60365000Y25381000D01*
X60368000Y25380000D01*
X60370000Y25378000D01*
X60372000Y25377000D01*
X60374000Y25375000D01*
X60376000Y25374000D01*
X60378000Y25372000D01*
X60380000Y25370000D01*
X60382000Y25368000D01*
X60384000Y25366000D01*
X60385000Y25364000D01*
X60387000Y25362000D01*
X60388000Y25360000D01*
X60390000Y25358000D01*
X60391000Y25355000D01*
X60392000Y25353000D01*
X60393000Y25350000D01*
X60393000Y25348000D01*
X60394000Y25345000D01*
X60394000Y25343000D01*
X60395000Y25340000D01*
X60395000Y25338000D01*
X60395000Y25335000D01*
X60395000Y24695000D01*
X60395000Y24692000D01*
X60395000Y24690000D01*
X60394000Y24687000D01*
X60394000Y24685000D01*
X60393000Y24682000D01*
X60393000Y24680000D01*
X60392000Y24677000D01*
X60391000Y24675000D01*
X60390000Y24672000D01*
X60388000Y24670000D01*
X60387000Y24668000D01*
X60385000Y24666000D01*
X60384000Y24664000D01*
X60382000Y24662000D01*
X60380000Y24660000D01*
X60378000Y24658000D01*
X60376000Y24656000D01*
X60374000Y24655000D01*
X60372000Y24653000D01*
X60370000Y24652000D01*
X60368000Y24650000D01*
X60365000Y24649000D01*
X60363000Y24648000D01*
X60360000Y24647000D01*
X60358000Y24647000D01*
X60355000Y24646000D01*
X60353000Y24646000D01*
X60350000Y24645000D01*
X60348000Y24645000D01*
X60345000Y24645000D01*
X58755000Y24645000D01*
X58752000Y24645000D01*
X58750000Y24645000D01*
X58747000Y24646000D01*
X58745000Y24646000D01*
X58742000Y24647000D01*
X58740000Y24647000D01*
X58737000Y24648000D01*
X58735000Y24649000D01*
X58732000Y24650000D01*
X58730000Y24652000D01*
X58728000Y24653000D01*
X58726000Y24655000D01*
X58724000Y24656000D01*
X58722000Y24658000D01*
X58720000Y24660000D01*
X58718000Y24662000D01*
X58716000Y24664000D01*
X58715000Y24666000D01*
X58713000Y24668000D01*
X58712000Y24670000D01*
X58710000Y24672000D01*
X58709000Y24675000D01*
X58708000Y24677000D01*
X58707000Y24680000D01*
X58707000Y24682000D01*
X58706000Y24685000D01*
X58706000Y24687000D01*
X58705000Y24690000D01*
X58705000Y24692000D01*
X58705000Y24695000D01*
X58705000Y25335000D01*
X58705000Y25338000D01*
X58705000Y25340000D01*
X58706000Y25343000D01*
X58706000Y25345000D01*
X58707000Y25348000D01*
X58707000Y25350000D01*
X58708000Y25353000D01*
X58709000Y25355000D01*
X58710000Y25358000D01*
X58712000Y25360000D01*
X58713000Y25362000D01*
X58715000Y25364000D01*
X58716000Y25366000D01*
X58718000Y25368000D01*
X58720000Y25370000D01*
X58722000Y25372000D01*
X58724000Y25374000D01*
X58726000Y25375000D01*
X58728000Y25377000D01*
X58730000Y25378000D01*
X58732000Y25380000D01*
X58735000Y25381000D01*
X58737000Y25382000D01*
X58740000Y25383000D01*
X58742000Y25383000D01*
X58745000Y25384000D01*
X58747000Y25384000D01*
X58750000Y25385000D01*
X58752000Y25385000D01*
X58755000Y25385000D01*
X60345000Y25385000D01*
X60348000Y25385000D01*
X60350000Y25385000D01*
X60353000Y25384000D01*
G37*
X60353000Y24114000D02*
X60355000Y24114000D01*
X60358000Y24113000D01*
X60360000Y24113000D01*
X60363000Y24112000D01*
X60365000Y24111000D01*
X60368000Y24110000D01*
X60370000Y24108000D01*
X60372000Y24107000D01*
X60374000Y24105000D01*
X60376000Y24104000D01*
X60378000Y24102000D01*
X60380000Y24100000D01*
X60382000Y24098000D01*
X60384000Y24096000D01*
X60385000Y24094000D01*
X60387000Y24092000D01*
X60388000Y24090000D01*
X60390000Y24088000D01*
X60391000Y24085000D01*
X60392000Y24083000D01*
X60393000Y24080000D01*
X60393000Y24078000D01*
X60394000Y24075000D01*
X60394000Y24073000D01*
X60395000Y24070000D01*
X60395000Y24068000D01*
X60395000Y24065000D01*
X60395000Y23425000D01*
X60395000Y23422000D01*
X60395000Y23420000D01*
X60394000Y23417000D01*
X60394000Y23415000D01*
X60393000Y23412000D01*
X60393000Y23410000D01*
X60392000Y23407000D01*
X60391000Y23405000D01*
X60390000Y23402000D01*
X60388000Y23400000D01*
X60387000Y23398000D01*
X60385000Y23396000D01*
X60384000Y23394000D01*
X60382000Y23392000D01*
X60380000Y23390000D01*
X60378000Y23388000D01*
X60376000Y23386000D01*
X60374000Y23385000D01*
X60372000Y23383000D01*
X60370000Y23382000D01*
X60368000Y23380000D01*
X60365000Y23379000D01*
X60363000Y23378000D01*
X60360000Y23377000D01*
X60358000Y23377000D01*
X60355000Y23376000D01*
X60353000Y23376000D01*
X60350000Y23375000D01*
X60348000Y23375000D01*
X60345000Y23375000D01*
X58755000Y23375000D01*
X58752000Y23375000D01*
X58750000Y23375000D01*
X58747000Y23376000D01*
X58745000Y23376000D01*
X58742000Y23377000D01*
X58740000Y23377000D01*
X58737000Y23378000D01*
X58735000Y23379000D01*
X58732000Y23380000D01*
X58730000Y23382000D01*
X58728000Y23383000D01*
X58726000Y23385000D01*
X58724000Y23386000D01*
X58722000Y23388000D01*
X58720000Y23390000D01*
X58718000Y23392000D01*
X58716000Y23394000D01*
X58715000Y23396000D01*
X58713000Y23398000D01*
X58712000Y23400000D01*
X58710000Y23402000D01*
X58709000Y23405000D01*
X58708000Y23407000D01*
X58707000Y23410000D01*
X58707000Y23412000D01*
X58706000Y23415000D01*
X58706000Y23417000D01*
X58705000Y23420000D01*
X58705000Y23422000D01*
X58705000Y23425000D01*
X58705000Y24065000D01*
X58705000Y24068000D01*
X58705000Y24070000D01*
X58706000Y24073000D01*
X58706000Y24075000D01*
X58707000Y24078000D01*
X58707000Y24080000D01*
X58708000Y24083000D01*
X58709000Y24085000D01*
X58710000Y24088000D01*
X58712000Y24090000D01*
X58713000Y24092000D01*
X58715000Y24094000D01*
X58716000Y24096000D01*
X58718000Y24098000D01*
X58720000Y24100000D01*
X58722000Y24102000D01*
X58724000Y24104000D01*
X58726000Y24105000D01*
X58728000Y24107000D01*
X58730000Y24108000D01*
X58732000Y24110000D01*
X58735000Y24111000D01*
X58737000Y24112000D01*
X58740000Y24113000D01*
X58742000Y24113000D01*
X58745000Y24114000D01*
X58747000Y24114000D01*
X58750000Y24115000D01*
X58752000Y24115000D01*
X58755000Y24115000D01*
X60345000Y24115000D01*
X60348000Y24115000D01*
X60350000Y24115000D01*
X60353000Y24114000D01*
G36*
X60353000Y24114000D02*
G01*
X60355000Y24114000D01*
X60358000Y24113000D01*
X60360000Y24113000D01*
X60363000Y24112000D01*
X60365000Y24111000D01*
X60368000Y24110000D01*
X60370000Y24108000D01*
X60372000Y24107000D01*
X60374000Y24105000D01*
X60376000Y24104000D01*
X60378000Y24102000D01*
X60380000Y24100000D01*
X60382000Y24098000D01*
X60384000Y24096000D01*
X60385000Y24094000D01*
X60387000Y24092000D01*
X60388000Y24090000D01*
X60390000Y24088000D01*
X60391000Y24085000D01*
X60392000Y24083000D01*
X60393000Y24080000D01*
X60393000Y24078000D01*
X60394000Y24075000D01*
X60394000Y24073000D01*
X60395000Y24070000D01*
X60395000Y24068000D01*
X60395000Y24065000D01*
X60395000Y23425000D01*
X60395000Y23422000D01*
X60395000Y23420000D01*
X60394000Y23417000D01*
X60394000Y23415000D01*
X60393000Y23412000D01*
X60393000Y23410000D01*
X60392000Y23407000D01*
X60391000Y23405000D01*
X60390000Y23402000D01*
X60388000Y23400000D01*
X60387000Y23398000D01*
X60385000Y23396000D01*
X60384000Y23394000D01*
X60382000Y23392000D01*
X60380000Y23390000D01*
X60378000Y23388000D01*
X60376000Y23386000D01*
X60374000Y23385000D01*
X60372000Y23383000D01*
X60370000Y23382000D01*
X60368000Y23380000D01*
X60365000Y23379000D01*
X60363000Y23378000D01*
X60360000Y23377000D01*
X60358000Y23377000D01*
X60355000Y23376000D01*
X60353000Y23376000D01*
X60350000Y23375000D01*
X60348000Y23375000D01*
X60345000Y23375000D01*
X58755000Y23375000D01*
X58752000Y23375000D01*
X58750000Y23375000D01*
X58747000Y23376000D01*
X58745000Y23376000D01*
X58742000Y23377000D01*
X58740000Y23377000D01*
X58737000Y23378000D01*
X58735000Y23379000D01*
X58732000Y23380000D01*
X58730000Y23382000D01*
X58728000Y23383000D01*
X58726000Y23385000D01*
X58724000Y23386000D01*
X58722000Y23388000D01*
X58720000Y23390000D01*
X58718000Y23392000D01*
X58716000Y23394000D01*
X58715000Y23396000D01*
X58713000Y23398000D01*
X58712000Y23400000D01*
X58710000Y23402000D01*
X58709000Y23405000D01*
X58708000Y23407000D01*
X58707000Y23410000D01*
X58707000Y23412000D01*
X58706000Y23415000D01*
X58706000Y23417000D01*
X58705000Y23420000D01*
X58705000Y23422000D01*
X58705000Y23425000D01*
X58705000Y24065000D01*
X58705000Y24068000D01*
X58705000Y24070000D01*
X58706000Y24073000D01*
X58706000Y24075000D01*
X58707000Y24078000D01*
X58707000Y24080000D01*
X58708000Y24083000D01*
X58709000Y24085000D01*
X58710000Y24088000D01*
X58712000Y24090000D01*
X58713000Y24092000D01*
X58715000Y24094000D01*
X58716000Y24096000D01*
X58718000Y24098000D01*
X58720000Y24100000D01*
X58722000Y24102000D01*
X58724000Y24104000D01*
X58726000Y24105000D01*
X58728000Y24107000D01*
X58730000Y24108000D01*
X58732000Y24110000D01*
X58735000Y24111000D01*
X58737000Y24112000D01*
X58740000Y24113000D01*
X58742000Y24113000D01*
X58745000Y24114000D01*
X58747000Y24114000D01*
X58750000Y24115000D01*
X58752000Y24115000D01*
X58755000Y24115000D01*
X60345000Y24115000D01*
X60348000Y24115000D01*
X60350000Y24115000D01*
X60353000Y24114000D01*
G37*
%TD*%
D11*
%TO.C,D3*%
X32000000Y3575000D03*
X32000000Y2000000D03*
%TD*%
D12*
%TO.C,C15*%
X25500000Y12950000D03*
X25500000Y14500000D03*
%TD*%
D13*
%TO.C,C30*%
X38950000Y27550000D03*
X40500000Y27550000D03*
%TD*%
D14*
%TO.C,TP8*%
X21000000Y8000000D03*
%TD*%
D12*
%TO.C,C29*%
X13000000Y3725000D03*
X13000000Y5275000D03*
%TD*%
D15*
%TO.C,J6*%
X71500000Y24000000D03*
D16*
X71500000Y26540000D03*
X71500000Y29080000D03*
%TD*%
D17*
%TO.C,U1*%
X24350000Y21499998D03*
X24350000Y20999999D03*
X24350000Y20500000D03*
X24350000Y19999999D03*
X24350000Y19499999D03*
X24350000Y18999998D03*
X24350000Y18499999D03*
X24350000Y18000000D03*
D18*
X25051101Y17298899D03*
X25551100Y17298899D03*
X26051099Y17298899D03*
X26551100Y17298899D03*
X27051100Y17298899D03*
X27551101Y17298899D03*
X28051100Y17298899D03*
X28551099Y17298899D03*
D17*
X29252200Y18000000D03*
X29252200Y18499999D03*
X29252200Y18999998D03*
X29252200Y19499999D03*
X29252200Y19999999D03*
X29252200Y20500000D03*
X29252200Y20999999D03*
X29252200Y21499998D03*
D18*
X28551099Y22201099D03*
X28051100Y22201099D03*
X27551101Y22201099D03*
X27051100Y22201099D03*
X26551100Y22201099D03*
X26051099Y22201099D03*
X25551100Y22201099D03*
X25051101Y22201099D03*
D19*
X26801100Y19749999D03*
%TD*%
D14*
%TO.C,TP9*%
X34500000Y29000000D03*
%TD*%
%TO.C,TP4*%
X21000000Y11000000D03*
%TD*%
D20*
%TO.C,R12*%
X26000000Y31500000D03*
X26000000Y29850000D03*
%TD*%
D21*
%TO.C,C28*%
X38550000Y36500000D03*
X40450000Y36500000D03*
%TD*%
D13*
%TO.C,C27*%
X38950000Y34050000D03*
X40500000Y34050000D03*
%TD*%
D20*
%TO.C,R15*%
X30500000Y35350000D03*
X30500000Y33700000D03*
%TD*%
D14*
%TO.C,TP7*%
X10500000Y20500000D03*
%TD*%
D15*
%TO.C,J4*%
X41000000Y5540000D03*
D16*
X41000000Y3000000D03*
%TD*%
D22*
%TO.C,RV1*%
X64000000Y25500000D03*
D23*
X65000000Y28750000D03*
D22*
X66000000Y25500000D03*
%TD*%
D24*
%TO.C,J2*%
X48000000Y5540000D03*
D25*
X45460000Y8080000D03*
X45460000Y3000000D03*
X50540000Y8080000D03*
X50540000Y3000000D03*
%TD*%
D26*
%TO.C,R6*%
X34500000Y17500000D03*
X32850000Y17500000D03*
%TD*%
D27*
%TO.C,C1*%
X34550000Y21000000D03*
X33000000Y21000000D03*
%TD*%
%TO.C,C9*%
X34550000Y23000000D03*
X33000000Y23000000D03*
%TD*%
D28*
%TO.C,C26*%
X26000000Y35350000D03*
X26000000Y33800000D03*
%TD*%
D15*
%TO.C,J1*%
X3810000Y25146000D03*
D16*
X6350000Y25146000D03*
X3810000Y22606000D03*
X6350000Y22606000D03*
X3810000Y20066000D03*
X6350000Y20066000D03*
X3810000Y17526000D03*
X6350000Y17526000D03*
X3810000Y14986000D03*
X6350000Y14986000D03*
X3810000Y12446000D03*
X6350000Y12446000D03*
X3810000Y9906000D03*
X6350000Y9906000D03*
X3810000Y7366000D03*
X6350000Y7366000D03*
X3810000Y4826000D03*
X6350000Y4826000D03*
X3810000Y2286000D03*
X6350000Y2286000D03*
%TD*%
D29*
%TO.C,R20*%
X71420000Y13500000D03*
X71420000Y19425000D03*
%TD*%
D13*
%TO.C,C6*%
X18575000Y24500000D03*
X20125000Y24500000D03*
%TD*%
D14*
%TO.C,TP11*%
X43500000Y35250000D03*
%TD*%
D30*
%TO.C,R2*%
X12500000Y15000000D03*
X12500000Y16650000D03*
%TD*%
D26*
%TO.C,R17*%
X44500000Y30397500D03*
X42850000Y30397500D03*
%TD*%
D13*
%TO.C,C13*%
X18450000Y22000000D03*
X20000000Y22000000D03*
%TD*%
D31*
%TO.C,R18*%
X42850000Y32397500D03*
X44500000Y32397500D03*
%TD*%
D14*
%TO.C,TP10*%
X21500000Y32000000D03*
%TD*%
D27*
%TO.C,C2*%
X34550000Y19500000D03*
X33000000Y19500000D03*
%TD*%
D13*
%TO.C,C7*%
X18575000Y26500000D03*
X20125000Y26500000D03*
%TD*%
D32*
%TO.C,X1*%
X41100000Y18750000D03*
D33*
X41100000Y19875000D03*
D32*
X41100000Y21000000D03*
X39500000Y21000000D03*
D33*
X39500000Y19875000D03*
D32*
X39500000Y18750000D03*
%TD*%
D14*
%TO.C,TP3*%
X12000000Y8000000D03*
%TD*%
D24*
%TO.C,J3*%
X62500000Y5540000D03*
D25*
X59960000Y8080000D03*
X59960000Y3000000D03*
X65040000Y8080000D03*
X65040000Y3000000D03*
%TD*%
D34*
%TO.C,U4*%
X56200000Y27600000D03*
X56200000Y26300000D03*
X56200000Y25000000D03*
X56200000Y23700000D03*
X57500000Y27600000D03*
X57500000Y26300000D03*
X57500000Y25000000D03*
X57500000Y23700000D03*
%TD*%
D30*
%TO.C,R5*%
X29000000Y24850000D03*
X29000000Y26500000D03*
%TD*%
D27*
%TO.C,C23*%
X55350000Y21650000D03*
X53800000Y21650000D03*
%TD*%
D14*
%TO.C,TP12*%
X62000000Y35750000D03*
%TD*%
D35*
%TO.C,U3*%
X38197500Y31712500D03*
X38197500Y31212500D03*
X38197500Y30712500D03*
X38197500Y30212500D03*
X40772500Y30212500D03*
X40772500Y30712500D03*
X40772500Y31212500D03*
X40772500Y31712500D03*
D36*
X39485000Y30962500D03*
%TD*%
D30*
%TO.C,R11*%
X28500000Y29850000D03*
X28500000Y31500000D03*
%TD*%
D21*
%TO.C,C31*%
X38600000Y25500000D03*
X40500000Y25500000D03*
%TD*%
D27*
%TO.C,C17*%
X34550000Y27000000D03*
X33000000Y27000000D03*
%TD*%
D37*
%TO.C,C19*%
X20000000Y3500000D03*
X20000000Y5400000D03*
%TD*%
D20*
%TO.C,R14*%
X24000000Y31500000D03*
X24000000Y29850000D03*
%TD*%
D38*
%TO.C,H1*%
X71000000Y36000000D03*
%TD*%
D11*
%TO.C,D2*%
X29500000Y3575000D03*
X29500000Y2000000D03*
%TD*%
D20*
%TO.C,R13*%
X30500000Y31500000D03*
X30500000Y29850000D03*
%TD*%
D14*
%TO.C,TP6*%
X12500000Y22500000D03*
%TD*%
D27*
%TO.C,C24*%
X55350000Y19650000D03*
X53800000Y19650000D03*
%TD*%
D14*
%TO.C,TP2*%
X11938000Y26670000D03*
%TD*%
D20*
%TO.C,R21*%
X37500000Y7190000D03*
X37500000Y5540000D03*
%TD*%
%TO.C,R8*%
X27000000Y7150000D03*
X27000000Y5500000D03*
%TD*%
D14*
%TO.C,TP1*%
X37500000Y15500000D03*
%TD*%
D13*
%TO.C,C12*%
X18450000Y20000000D03*
X20000000Y20000000D03*
%TD*%
D39*
%TO.C,JP3*%
X37500000Y2040000D03*
D40*
X37500000Y3490000D03*
%TD*%
D26*
%TO.C,R19*%
X66000000Y32000000D03*
X64350000Y32000000D03*
%TD*%
D13*
%TO.C,C22*%
X58300000Y31650000D03*
X59850000Y31650000D03*
%TD*%
D30*
%TO.C,R10*%
X32000000Y5500000D03*
X32000000Y7150000D03*
%TD*%
%TO.C,R1*%
X10500000Y15000000D03*
X10500000Y16650000D03*
%TD*%
%TO.C,R7*%
X31000000Y24850000D03*
X31000000Y26500000D03*
%TD*%
D27*
%TO.C,C8*%
X34500000Y15500000D03*
X32950000Y15500000D03*
%TD*%
D30*
%TO.C,R3*%
X14500000Y15000000D03*
X14500000Y16650000D03*
%TD*%
D28*
%TO.C,C18*%
X25500000Y26550000D03*
X25500000Y25000000D03*
%TD*%
D13*
%TO.C,C16*%
X18500000Y28500000D03*
X20050000Y28500000D03*
%TD*%
D24*
%TO.C,J7*%
X6096000Y31496000D03*
D25*
X3556000Y34036000D03*
X3556000Y28956000D03*
X8636000Y34036000D03*
X8636000Y28956000D03*
%TD*%
D12*
%TO.C,C14*%
X27500000Y12950000D03*
X27500000Y14500000D03*
%TD*%
D15*
%TO.C,J5*%
X55500000Y5540000D03*
D16*
X55500000Y3000000D03*
%TD*%
D13*
%TO.C,C21*%
X58300000Y29650000D03*
X59850000Y29650000D03*
%TD*%
D27*
%TO.C,C10*%
X34550000Y25000000D03*
X33000000Y25000000D03*
%TD*%
D28*
%TO.C,C25*%
X28500000Y35350000D03*
X28500000Y33800000D03*
%TD*%
D21*
%TO.C,C20*%
X15500000Y8000000D03*
X17400000Y8000000D03*
%TD*%
D20*
%TO.C,R4*%
X37000000Y21150000D03*
X37000000Y19500000D03*
%TD*%
D38*
%TO.C,H2*%
X71000000Y4000000D03*
%TD*%
D13*
%TO.C,C4*%
X18500000Y16000000D03*
X20050000Y16000000D03*
%TD*%
D29*
%TO.C,R23*%
X65957500Y13500000D03*
X65957500Y19425000D03*
%TD*%
D28*
%TO.C,C3*%
X43050000Y21000000D03*
X43050000Y19450000D03*
%TD*%
D30*
%TO.C,R9*%
X29500000Y5500000D03*
X29500000Y7150000D03*
%TD*%
D13*
%TO.C,C5*%
X18500000Y18000000D03*
X20050000Y18000000D03*
%TD*%
D26*
%TO.C,R22*%
X66000000Y23500000D03*
X64350000Y23500000D03*
%TD*%
D28*
%TO.C,C11*%
X23500000Y26550000D03*
X23500000Y25000000D03*
%TD*%
D14*
%TO.C,TP5*%
X10000000Y10000000D03*
%TD*%
D20*
%TO.C,R16*%
X24000000Y35350000D03*
X24000000Y33700000D03*
%TD*%
D41*
%TO.C,D1*%
X27000000Y2000000D03*
X27000000Y3575000D03*
%TD*%
D42*
%TO.C,U5*%
X17094000Y5126000D03*
X16444000Y5126000D03*
X15794000Y5126000D03*
X15794000Y3226000D03*
X16444000Y3226000D03*
X17094000Y3226000D03*
%TD*%
M02*
