%TF.GenerationSoftware,KiCad,Pcbnew,8.0.6*%
%TF.CreationDate,2025-05-09T15:02:35+02:00*%
%TF.ProjectId,pulse-shaping-extension-v1.1,70756c73-652d-4736-9861-70696e672d65,rev?*%
%TF.SameCoordinates,PX3d09000PY6590fa0*%
%TF.FileFunction,Soldermask,Bot*%
%TF.FilePolarity,Negative*%
%FSLAX46Y46*%
G04 Gerber Fmt 4.6, Leading zero omitted, Abs format (unit mm)*
G04 Created by KiCad (PCBNEW 8.0.6) date 2025-05-09 15:02:35*
%MOMM*%
%LPD*%
G01*
G04 APERTURE LIST*
G04 Aperture macros list*
%AMFreePoly0*
4,1,6,1.000000,0.000000,0.500000,-0.750000,-0.500000,-0.750000,-0.500000,0.750000,0.500000,0.750000,1.000000,0.000000,1.000000,0.000000,$1*%
%AMFreePoly1*
4,1,6,0.500000,-0.750000,-0.650000,-0.750000,-0.150000,0.000000,-0.650000,0.750000,0.500000,0.750000,0.500000,-0.750000,0.500000,-0.750000,$1*%
G04 Aperture macros list end*
%ADD10R,1.700000X1.700000*%
%ADD11O,1.700000X1.700000*%
%ADD12C,2.050000*%
%ADD13C,2.250000*%
%ADD14C,0.504000*%
%ADD15C,3.000000*%
%ADD16FreePoly0,180.000000*%
%ADD17FreePoly1,180.000000*%
G04 APERTURE END LIST*
D10*
%TO.C,J6*%
X71500000Y24000000D03*
D11*
X71500000Y26540000D03*
X71500000Y29080000D03*
%TD*%
D10*
%TO.C,J4*%
X41000000Y5540000D03*
D11*
X41000000Y3000000D03*
%TD*%
D12*
%TO.C,J2*%
X48000000Y5540000D03*
D13*
X45460000Y8080000D03*
X45460000Y3000000D03*
X50540000Y8080000D03*
X50540000Y3000000D03*
%TD*%
D10*
%TO.C,J1*%
X3810000Y25146000D03*
D11*
X6350000Y25146000D03*
X3810000Y22606000D03*
X6350000Y22606000D03*
X3810000Y20066000D03*
X6350000Y20066000D03*
X3810000Y17526000D03*
X6350000Y17526000D03*
X3810000Y14986000D03*
X6350000Y14986000D03*
X3810000Y12446000D03*
X6350000Y12446000D03*
X3810000Y9906000D03*
X6350000Y9906000D03*
X3810000Y7366000D03*
X6350000Y7366000D03*
X3810000Y4826000D03*
X6350000Y4826000D03*
X3810000Y2286000D03*
X6350000Y2286000D03*
%TD*%
D12*
%TO.C,J3*%
X62500000Y5540000D03*
D13*
X59960000Y8080000D03*
X59960000Y3000000D03*
X65040000Y8080000D03*
X65040000Y3000000D03*
%TD*%
D14*
%TO.C,U4*%
X56200000Y27600000D03*
X56200000Y26300000D03*
X56200000Y25000000D03*
X56200000Y23700000D03*
X57500000Y27600000D03*
X57500000Y26300000D03*
X57500000Y25000000D03*
X57500000Y23700000D03*
%TD*%
D15*
%TO.C,H1*%
X71000000Y36000000D03*
%TD*%
D12*
%TO.C,J7*%
X6096000Y31496000D03*
D13*
X3556000Y34036000D03*
X3556000Y28956000D03*
X8636000Y34036000D03*
X8636000Y28956000D03*
%TD*%
D10*
%TO.C,J5*%
X55500000Y5540000D03*
D11*
X55500000Y3000000D03*
%TD*%
D15*
%TO.C,H2*%
X71000000Y4000000D03*
%TD*%
D16*
%TO.C,JP1*%
X30850000Y25650000D03*
D17*
X29400000Y25650000D03*
%TD*%
M02*
