%TF.GenerationSoftware,KiCad,Pcbnew,8.0.6*%
%TF.CreationDate,2025-05-09T15:02:35+02:00*%
%TF.ProjectId,pulse-shaping-extension-v1.1,70756c73-652d-4736-9861-70696e672d65,rev?*%
%TF.SameCoordinates,PX3d09000PY6590fa0*%
%TF.FileFunction,Copper,L2,Bot*%
%TF.FilePolarity,Positive*%
%FSLAX46Y46*%
G04 Gerber Fmt 4.6, Leading zero omitted, Abs format (unit mm)*
G04 Created by KiCad (PCBNEW 8.0.6) date 2025-05-09 15:02:35*
%MOMM*%
%LPD*%
G01*
G04 APERTURE LIST*
G04 Aperture macros list*
%AMFreePoly0*
4,1,6,1.000000,0.000000,0.500000,-0.750000,-0.500000,-0.750000,-0.500000,0.750000,0.500000,0.750000,1.000000,0.000000,1.000000,0.000000,$1*%
%AMFreePoly1*
4,1,6,0.500000,-0.750000,-0.650000,-0.750000,-0.150000,0.000000,-0.650000,0.750000,0.500000,0.750000,0.500000,-0.750000,0.500000,-0.750000,$1*%
G04 Aperture macros list end*
%TA.AperFunction,ComponentPad*%
%ADD10R,1.700000X1.700000*%
%TD*%
%TA.AperFunction,ComponentPad*%
%ADD11O,1.700000X1.700000*%
%TD*%
%TA.AperFunction,ComponentPad*%
%ADD12C,2.050000*%
%TD*%
%TA.AperFunction,ComponentPad*%
%ADD13C,2.250000*%
%TD*%
%TA.AperFunction,ComponentPad*%
%ADD14C,0.300000*%
%TD*%
%TA.AperFunction,SMDPad,CuDef*%
%ADD15FreePoly0,180.000000*%
%TD*%
%TA.AperFunction,SMDPad,CuDef*%
%ADD16FreePoly1,180.000000*%
%TD*%
%TA.AperFunction,ViaPad*%
%ADD17C,0.500000*%
%TD*%
%TA.AperFunction,ViaPad*%
%ADD18C,0.600000*%
%TD*%
%TA.AperFunction,ViaPad*%
%ADD19C,0.700000*%
%TD*%
%TA.AperFunction,Conductor*%
%ADD20C,0.254000*%
%TD*%
%TA.AperFunction,Conductor*%
%ADD21C,0.818000*%
%TD*%
%TA.AperFunction,Conductor*%
%ADD22C,0.508000*%
%TD*%
G04 APERTURE END LIST*
D10*
%TO.P,J6,1,Pin_1*%
%TO.N,Net-(J6-Pin_1)*%
X71500000Y24000000D03*
D11*
%TO.P,J6,2,Pin_2*%
%TO.N,/AMPL_VOUT*%
X71500000Y26540000D03*
%TO.P,J6,3,Pin_3*%
%TO.N,Net-(J6-Pin_3)*%
X71500000Y29080000D03*
%TD*%
D10*
%TO.P,J4,1,Pin_1*%
%TO.N,GND*%
X41000000Y5540000D03*
D11*
%TO.P,J4,2,Pin_2*%
%TO.N,/AMPL_VIN+*%
X41000000Y3000000D03*
%TD*%
D12*
%TO.P,J2,1,In*%
%TO.N,/AMPL_VIN+*%
X48000000Y5540000D03*
D13*
%TO.P,J2,2,Ext*%
%TO.N,GND*%
X45460000Y8080000D03*
X45460000Y3000000D03*
X50540000Y8080000D03*
X50540000Y3000000D03*
%TD*%
D10*
%TO.P,J1,1,Pin_1*%
%TO.N,unconnected-(J1-Pin_1-Pad1)*%
X3810000Y25146000D03*
D11*
%TO.P,J1,2,Pin_2*%
%TO.N,unconnected-(J1-Pin_2-Pad2)*%
X6350000Y25146000D03*
%TO.P,J1,3,Pin_3*%
%TO.N,unconnected-(J1-Pin_3-Pad3)*%
X3810000Y22606000D03*
%TO.P,J1,4,Pin_4*%
%TO.N,unconnected-(J1-Pin_4-Pad4)*%
X6350000Y22606000D03*
%TO.P,J1,5,Pin_5*%
%TO.N,unconnected-(J1-Pin_5-Pad5)*%
X3810000Y20066000D03*
%TO.P,J1,6,Pin_6*%
%TO.N,/MISO*%
X6350000Y20066000D03*
%TO.P,J1,7,Pin_7*%
%TO.N,/RSTn*%
X3810000Y17526000D03*
%TO.P,J1,8,Pin_8*%
%TO.N,/CSn*%
X6350000Y17526000D03*
%TO.P,J1,9,Pin_9*%
%TO.N,/TRIG*%
X3810000Y14986000D03*
%TO.P,J1,10,Pin_10*%
%TO.N,/SCK*%
X6350000Y14986000D03*
%TO.P,J1,11,Pin_11*%
%TO.N,unconnected-(J1-Pin_11-Pad11)*%
X3810000Y12446000D03*
%TO.P,J1,12,Pin_12*%
%TO.N,/MOSI*%
X6350000Y12446000D03*
%TO.P,J1,13,Pin_13*%
%TO.N,unconnected-(J1-Pin_13-Pad13)*%
X3810000Y9906000D03*
%TO.P,J1,14,Pin_14*%
%TO.N,unconnected-(J1-Pin_14-Pad14)*%
X6350000Y9906000D03*
%TO.P,J1,15,Pin_15*%
%TO.N,unconnected-(J1-Pin_15-Pad15)*%
X3810000Y7366000D03*
%TO.P,J1,16,Pin_16*%
%TO.N,unconnected-(J1-Pin_16-Pad16)*%
X6350000Y7366000D03*
%TO.P,J1,17,Pin_17*%
%TO.N,+5V*%
X3810000Y4826000D03*
%TO.P,J1,18,Pin_18*%
%TO.N,VCC*%
X6350000Y4826000D03*
%TO.P,J1,19,Pin_19*%
%TO.N,GND*%
X3810000Y2286000D03*
%TO.P,J1,20,Pin_20*%
%TO.N,+3V3*%
X6350000Y2286000D03*
%TD*%
D12*
%TO.P,J3,1,In*%
%TO.N,/OUT*%
X62500000Y5540000D03*
D13*
%TO.P,J3,2,Ext*%
%TO.N,GND*%
X59960000Y8080000D03*
X59960000Y3000000D03*
X65040000Y8080000D03*
X65040000Y3000000D03*
%TD*%
D14*
%TO.P,U4,9,POWER_PAD*%
%TO.N,GND*%
X56200000Y27600000D03*
X56200000Y26300000D03*
X56200000Y25000000D03*
X56200000Y23700000D03*
X57500000Y27600000D03*
X57500000Y26300000D03*
X57500000Y25000000D03*
X57500000Y23700000D03*
%TD*%
D12*
%TO.P,J7,1,In*%
%TO.N,GND*%
X6096000Y31496000D03*
D13*
%TO.P,J7,2,Ext*%
X3556000Y34036000D03*
X3556000Y28956000D03*
X8636000Y34036000D03*
X8636000Y28956000D03*
%TD*%
D10*
%TO.P,J5,1,Pin_1*%
%TO.N,GND*%
X55500000Y5540000D03*
D11*
%TO.P,J5,2,Pin_2*%
%TO.N,/OUT*%
X55500000Y3000000D03*
%TD*%
D15*
%TO.P,JP1,1,A*%
%TO.N,Net-(JP1-A)*%
X30850000Y25650000D03*
D16*
%TO.P,JP1,2,B*%
%TO.N,Net-(JP1-B)*%
X29400000Y25650000D03*
%TD*%
D17*
%TO.N,GND*%
X60960000Y22860000D03*
X68580000Y7620000D03*
X55880000Y12700000D03*
X66040000Y17780000D03*
D18*
X38000000Y18000000D03*
D17*
X53340000Y10160000D03*
X18000000Y14500000D03*
X60960000Y20320000D03*
X40640000Y12700000D03*
D18*
X17500000Y29500000D03*
D17*
X48260000Y38500000D03*
X55880000Y17780000D03*
X17780000Y33020000D03*
X48260000Y25400000D03*
X50800000Y38500000D03*
X53340000Y12700000D03*
X63500000Y20320000D03*
X48260000Y27940000D03*
X60960000Y15240000D03*
X53340000Y33020000D03*
X53340000Y35560000D03*
X66040000Y15240000D03*
X71120000Y7620000D03*
X50800000Y10160000D03*
D18*
X36000000Y28000000D03*
X45750000Y35000000D03*
D17*
X73660000Y10160000D03*
X45720000Y20320000D03*
X20320000Y30480000D03*
X66040000Y10160000D03*
X73660000Y7620000D03*
X22860000Y2540000D03*
X45720000Y25400000D03*
X17780000Y35560000D03*
X25400000Y2540000D03*
D18*
X46000000Y29500000D03*
X37000000Y36500000D03*
D17*
X58420000Y15240000D03*
X33020000Y38500000D03*
X60960000Y38500000D03*
X43180000Y17780000D03*
X55880000Y38500000D03*
X12700000Y30480000D03*
X25400000Y5080000D03*
X15240000Y33020000D03*
D18*
X22250000Y14250000D03*
D17*
X53340000Y38500000D03*
X73660000Y15240000D03*
X53340000Y15240000D03*
X50800000Y12700000D03*
X63740000Y30240000D03*
X35560000Y33020000D03*
D18*
X11500000Y2000000D03*
D17*
X68580000Y17780000D03*
X43180000Y15240000D03*
X58420000Y38500000D03*
D18*
X39485000Y29000000D03*
D17*
X68580000Y15240000D03*
X60960000Y10160000D03*
X35560000Y35560000D03*
X12700000Y27940000D03*
X60960000Y17780000D03*
X60960000Y12700000D03*
D18*
X26000000Y32500000D03*
D17*
X55880000Y10160000D03*
X63500000Y12700000D03*
D18*
X50000000Y30250000D03*
D17*
X55880000Y35560000D03*
X38100000Y38500000D03*
X12700000Y33020000D03*
X58420000Y12700000D03*
X58420000Y20320000D03*
X15240000Y30480000D03*
X63500000Y15240000D03*
X43180000Y27940000D03*
X12700000Y35560000D03*
X40640000Y15240000D03*
D18*
X32000000Y34000000D03*
D17*
X20320000Y35560000D03*
D19*
X16500000Y9500000D03*
D18*
X14000000Y12500000D03*
D17*
X10160000Y25400000D03*
X15240000Y27940000D03*
X33020000Y35560000D03*
X60960000Y30480000D03*
D18*
X25500000Y28000000D03*
D17*
X58420000Y35560000D03*
X68580000Y10160000D03*
X73660000Y17780000D03*
D18*
X14500000Y23000000D03*
X29000000Y28000000D03*
D17*
X71120000Y10160000D03*
X35560000Y38500000D03*
X22860000Y5080000D03*
X71120000Y17780000D03*
D18*
X35500000Y14500000D03*
D17*
X71120000Y15240000D03*
D18*
X31500000Y18500000D03*
D17*
X45720000Y27940000D03*
X58420000Y17780000D03*
X55880000Y15240000D03*
X58420000Y10160000D03*
X63500000Y27940000D03*
X63500000Y17780000D03*
X17780000Y30480000D03*
X50800000Y35560000D03*
X45720000Y17780000D03*
X15240000Y35560000D03*
D19*
%TO.N,+5V*%
X61500000Y31500000D03*
X51500000Y21500000D03*
D18*
X52000000Y31500000D03*
%TO.N,/TRIG*%
X11773000Y15923000D03*
X24250000Y23750000D03*
X17000000Y25127000D03*
X30000000Y8500000D03*
%TO.N,+3V3*%
X21000000Y27500000D03*
X36500000Y26000000D03*
X16500000Y26000000D03*
X24000000Y14000000D03*
X24000000Y7500000D03*
X21500000Y20000000D03*
X44500000Y19500000D03*
D17*
%TO.N,/CSn*%
X14478000Y19304000D03*
D18*
%TO.N,/MOSI*%
X16000000Y17500000D03*
%TO.N,/MISO*%
X22000000Y17500000D03*
%TO.N,/SCK*%
X15500000Y18500000D03*
%TO.N,/RSTn*%
X24000000Y15500000D03*
X25500000Y8500000D03*
X11500000Y21000000D03*
%TO.N,/LDO2*%
X22000000Y24500000D03*
X22000000Y21000000D03*
%TO.N,Net-(JP1-B)*%
X29500000Y23500000D03*
%TO.N,Net-(JP1-A)*%
X31000000Y23500000D03*
%TO.N,/-IN*%
X31500000Y32500000D03*
X27500000Y33000000D03*
%TO.N,/AMPL_VIN+*%
X50500000Y25000000D03*
%TD*%
D20*
%TO.N,GND*%
X57000000Y29000000D02*
X62500000Y29000000D01*
D21*
X59400000Y27600000D02*
X57500000Y27600000D01*
X56200000Y27600000D02*
X56200000Y28200000D01*
D20*
X25500000Y28000000D02*
X27350000Y29850000D01*
D21*
X59500000Y26500000D02*
X59500000Y27000000D01*
D20*
X27350000Y29850000D02*
X27350000Y30000000D01*
X56943000Y22057000D02*
X57000000Y22000000D01*
X54600000Y27600000D02*
X54500000Y27500000D01*
X41000000Y9000000D02*
X41000000Y5540000D01*
D21*
X54500000Y25000000D02*
X54500000Y24500000D01*
X54500000Y27000000D02*
X54500000Y26500000D01*
X58420000Y38500000D02*
X60960000Y38500000D01*
X59500000Y24500000D02*
X59500000Y25000000D01*
X57500000Y28250000D02*
X59500000Y28250000D01*
X56943000Y25750000D02*
X56943000Y24250000D01*
X57500000Y25000000D02*
X59500000Y25000000D01*
D20*
X62500000Y29000000D02*
X63740000Y30240000D01*
D21*
X54500000Y27500000D02*
X54500000Y28250000D01*
X56250000Y23000000D02*
X57500000Y23000000D01*
D20*
X26150000Y32500000D02*
X27350000Y31300000D01*
D21*
X56200000Y23700000D02*
X56200000Y23050000D01*
X56943000Y28943000D02*
X56943000Y27000000D01*
D20*
X37000000Y29000000D02*
X36000000Y28000000D01*
D21*
X54500000Y27500000D02*
X54500000Y27000000D01*
X55880000Y38500000D02*
X58420000Y38500000D01*
X54750000Y24250000D02*
X54500000Y24500000D01*
X54500000Y25750000D02*
X54500000Y25000000D01*
X56943000Y27000000D02*
X59500000Y27000000D01*
X57500000Y26300000D02*
X59300000Y26300000D01*
X56200000Y25000000D02*
X54500000Y25000000D01*
X56943000Y24250000D02*
X54750000Y24250000D01*
X59500000Y24000000D02*
X59500000Y24500000D01*
X59300000Y26300000D02*
X59500000Y26500000D01*
X56943000Y24250000D02*
X59250000Y24250000D01*
X56943000Y25750000D02*
X59500000Y25750000D01*
X35560000Y38500000D02*
X37000000Y38500000D01*
X59250000Y24250000D02*
X59500000Y24500000D01*
D20*
X59500000Y27500000D02*
X59400000Y27600000D01*
X56200000Y28200000D02*
X56250000Y28250000D01*
X63740000Y30240000D02*
X64500000Y31000000D01*
D21*
X57500000Y23000000D02*
X59500000Y23000000D01*
X56200000Y26300000D02*
X54700000Y26300000D01*
X56943000Y25750000D02*
X54500000Y25750000D01*
X56943000Y24250000D02*
X56943000Y22057000D01*
D20*
X59960000Y3000000D02*
X59960000Y8080000D01*
X32000000Y34000000D02*
X32000000Y38500000D01*
D21*
X56250000Y28250000D02*
X57500000Y28250000D01*
X54500000Y24500000D02*
X54500000Y24000000D01*
X56943000Y27000000D02*
X56943000Y25750000D01*
X56200000Y27600000D02*
X54600000Y27600000D01*
X54500000Y26500000D02*
X54500000Y25750000D01*
X1500000Y4596000D02*
X3810000Y2286000D01*
X60960000Y38500000D02*
X63500000Y38500000D01*
D20*
X17500000Y29500000D02*
X1500000Y29500000D01*
X46000000Y29500000D02*
X45500000Y29000000D01*
D21*
X53340000Y38500000D02*
X55880000Y38500000D01*
X54500000Y24000000D02*
X54800000Y23700000D01*
D20*
X14750000Y11250000D02*
X11500000Y8000000D01*
D21*
X57500000Y27600000D02*
X57500000Y28250000D01*
X54800000Y23700000D02*
X56200000Y23700000D01*
D20*
X27350000Y30000000D02*
X29000000Y28350000D01*
X4987000Y1109000D02*
X3810000Y2286000D01*
D21*
X57500000Y23700000D02*
X59200000Y23700000D01*
X50800000Y38500000D02*
X53340000Y38500000D01*
D20*
X64500000Y34000000D02*
X63500000Y35000000D01*
D21*
X54500000Y24000000D02*
X54500000Y23000000D01*
X48260000Y38500000D02*
X50800000Y38500000D01*
X3000000Y38500000D02*
X32000000Y38500000D01*
D20*
X63500000Y35000000D02*
X63500000Y38500000D01*
D21*
X59500000Y27000000D02*
X59500000Y27500000D01*
X59500000Y23000000D02*
X59500000Y24000000D01*
D20*
X31500000Y18500000D02*
X35500000Y14500000D01*
X35500000Y14500000D02*
X41000000Y9000000D01*
D21*
X1500000Y29500000D02*
X1500000Y4596000D01*
X38100000Y38500000D02*
X48260000Y38500000D01*
D20*
X56200000Y23050000D02*
X56250000Y23000000D01*
D21*
X1500000Y37000000D02*
X3000000Y38500000D01*
D20*
X51500000Y35000000D02*
X46000000Y29500000D01*
X57000000Y29000000D02*
X56943000Y28943000D01*
X64500000Y31000000D02*
X64500000Y34000000D01*
D21*
X56200000Y26300000D02*
X56200000Y25000000D01*
X59500000Y25000000D02*
X59500000Y25750000D01*
D20*
X10609000Y1109000D02*
X4987000Y1109000D01*
D21*
X32000000Y38500000D02*
X33020000Y38500000D01*
D20*
X37000000Y36500000D02*
X37000000Y38500000D01*
X29000000Y28350000D02*
X29000000Y28000000D01*
D21*
X37000000Y38500000D02*
X38100000Y38500000D01*
X33020000Y38500000D02*
X35560000Y38500000D01*
X56200000Y25000000D02*
X56200000Y23700000D01*
X54700000Y26300000D02*
X54500000Y26500000D01*
X56943000Y27000000D02*
X54500000Y27000000D01*
X54500000Y23000000D02*
X56250000Y23000000D01*
D20*
X39485000Y29000000D02*
X37000000Y29000000D01*
X18000000Y14500000D02*
X14750000Y11250000D01*
D21*
X57500000Y23700000D02*
X57500000Y23000000D01*
D20*
X45500000Y29000000D02*
X39485000Y29000000D01*
D21*
X59200000Y23700000D02*
X59500000Y24000000D01*
D20*
X16500000Y9500000D02*
X14750000Y11250000D01*
D21*
X54500000Y28250000D02*
X56250000Y28250000D01*
X1500000Y29500000D02*
X1500000Y37000000D01*
D20*
X11500000Y2000000D02*
X10609000Y1109000D01*
D21*
X59500000Y25750000D02*
X59500000Y26500000D01*
X59500000Y28250000D02*
X59500000Y27500000D01*
D20*
X26000000Y32500000D02*
X26150000Y32500000D01*
X11500000Y8000000D02*
X11500000Y2000000D01*
X63500000Y35000000D02*
X51500000Y35000000D01*
D21*
%TO.N,+5V*%
X52000000Y31500000D02*
X61500000Y31500000D01*
X51500000Y21500000D02*
X51500000Y31000000D01*
X51500000Y31000000D02*
X52000000Y31500000D01*
D20*
%TO.N,/TRIG*%
X5080000Y12051470D02*
X5080000Y13716000D01*
X7119000Y11269000D02*
X5862470Y11269000D01*
X30000000Y18000000D02*
X30000000Y8500000D01*
X24250000Y23750000D02*
X22873000Y25127000D01*
X22873000Y25127000D02*
X17000000Y25127000D01*
X24250000Y23750000D02*
X30000000Y18000000D01*
X5080000Y13716000D02*
X3810000Y14986000D01*
X5862470Y11269000D02*
X5080000Y12051470D01*
X11773000Y15923000D02*
X7119000Y11269000D01*
D22*
%TO.N,+3V3*%
X44500000Y19500000D02*
X44500000Y22000000D01*
X40500000Y26000000D02*
X36500000Y26000000D01*
X44500000Y22000000D02*
X40500000Y26000000D01*
D20*
X24000000Y7500000D02*
X24000000Y14000000D01*
D22*
X15500000Y25000000D02*
X16500000Y26000000D01*
X18500000Y20000000D02*
X15500000Y23000000D01*
X21500000Y20000000D02*
X18500000Y20000000D01*
X15500000Y23000000D02*
X15500000Y25000000D01*
X18000000Y27500000D02*
X16500000Y26000000D01*
X21000000Y27500000D02*
X18000000Y27500000D01*
D20*
%TO.N,/CSn*%
X14478000Y19304000D02*
X8128000Y19304000D01*
X8128000Y19304000D02*
X6350000Y17526000D01*
%TO.N,/MOSI*%
X11404000Y17500000D02*
X6350000Y12446000D01*
X16000000Y17500000D02*
X11404000Y17500000D01*
%TO.N,/MISO*%
X18500000Y17500000D02*
X22000000Y17500000D01*
X7911000Y21627000D02*
X6350000Y20066000D01*
X14373000Y21627000D02*
X7911000Y21627000D01*
X18500000Y17500000D02*
X14373000Y21627000D01*
%TO.N,/SCK*%
X15500000Y18500000D02*
X9864000Y18500000D01*
X6290000Y14660000D02*
X6290000Y14975000D01*
X9864000Y18500000D02*
X6350000Y14986000D01*
%TO.N,/RSTn*%
X11500000Y21000000D02*
X9062000Y21000000D01*
X19386712Y15500000D02*
X24000000Y15500000D01*
X11500000Y21000000D02*
X13886712Y21000000D01*
X4987000Y18703000D02*
X3810000Y17526000D01*
X9062000Y21000000D02*
X6765000Y18703000D01*
X25500000Y14000000D02*
X25500000Y9000000D01*
X6765000Y18703000D02*
X4987000Y18703000D01*
X25500000Y9000000D02*
X25500000Y8500000D01*
X24000000Y15500000D02*
X25500000Y14000000D01*
X13886712Y21000000D02*
X19386712Y15500000D01*
%TO.N,/LDO2*%
X22000000Y24500000D02*
X22000000Y21000000D01*
%TO.N,Net-(JP1-B)*%
X29400000Y23600000D02*
X29500000Y23500000D01*
X29400000Y25650000D02*
X29400000Y23600000D01*
%TO.N,Net-(JP1-A)*%
X30850000Y23650000D02*
X31000000Y23500000D01*
X30850000Y25650000D02*
X30850000Y23650000D01*
%TO.N,/-IN*%
X27500000Y33000000D02*
X28000000Y32500000D01*
X28000000Y32500000D02*
X31500000Y32500000D01*
D22*
%TO.N,/AMPL_VIN+*%
X50500000Y25000000D02*
X49500000Y25000000D01*
X43540000Y5540000D02*
X41000000Y3000000D01*
X49500000Y25000000D02*
X48000000Y23500000D01*
X48000000Y5540000D02*
X43540000Y5540000D01*
X48000000Y23500000D02*
X48000000Y5540000D01*
%TD*%
%TA.AperFunction,Conductor*%
%TO.N,GND*%
G36*
X46775464Y7118089D02*
G01*
X46775466Y7118089D01*
X46778713Y7121890D01*
X46778724Y7121905D01*
X46912363Y7339985D01*
X46912365Y7339988D01*
X47006939Y7568311D01*
X47050780Y7622715D01*
X47117074Y7644780D01*
X47184773Y7627501D01*
X47232384Y7576364D01*
X47245500Y7520859D01*
X47245500Y6936235D01*
X47225815Y6869196D01*
X47186290Y6830508D01*
X47100566Y6777976D01*
X47100563Y6777975D01*
X46917973Y6622027D01*
X46762028Y6439440D01*
X46729102Y6385710D01*
X46710424Y6355227D01*
X46709494Y6353710D01*
X46657682Y6306835D01*
X46603766Y6294500D01*
X46019141Y6294500D01*
X45952102Y6314185D01*
X45906347Y6366989D01*
X45896403Y6436147D01*
X45925428Y6499703D01*
X45971689Y6533061D01*
X46200012Y6627635D01*
X46200015Y6627637D01*
X46418095Y6761276D01*
X46418110Y6761287D01*
X46421911Y6764534D01*
X46421911Y6764536D01*
X45860562Y7325886D01*
X45862626Y7326740D01*
X46001844Y7419762D01*
X46120238Y7538156D01*
X46213260Y7677374D01*
X46214114Y7679438D01*
X46775464Y7118089D01*
G37*
%TD.AperFunction*%
%TA.AperFunction,Conductor*%
G36*
X73505394Y39499028D02*
G01*
X73535721Y39496375D01*
X73662755Y39485261D01*
X73684035Y39481509D01*
X73801188Y39450118D01*
X73831369Y39442031D01*
X73851681Y39434638D01*
X73989915Y39370178D01*
X74008633Y39359371D01*
X74133582Y39271881D01*
X74150140Y39257987D01*
X74257986Y39150141D01*
X74271880Y39133583D01*
X74359370Y39008634D01*
X74370177Y38989916D01*
X74434637Y38851682D01*
X74442030Y38831370D01*
X74481507Y38684039D01*
X74485260Y38662754D01*
X74499028Y38505395D01*
X74499500Y38494587D01*
X74499500Y1505414D01*
X74499028Y1494606D01*
X74485260Y1337247D01*
X74481507Y1315962D01*
X74442030Y1168631D01*
X74434637Y1148319D01*
X74370177Y1010085D01*
X74359370Y991367D01*
X74271880Y866418D01*
X74257986Y849860D01*
X74150140Y742014D01*
X74133582Y728120D01*
X74008633Y640630D01*
X73989915Y629823D01*
X73851681Y565363D01*
X73831369Y557970D01*
X73684038Y518493D01*
X73662753Y514740D01*
X73505395Y500972D01*
X73494587Y500500D01*
X1505413Y500500D01*
X1494605Y500972D01*
X1337246Y514740D01*
X1315961Y518493D01*
X1168630Y557970D01*
X1148318Y565363D01*
X1010084Y629823D01*
X991366Y640630D01*
X866417Y728120D01*
X849859Y742014D01*
X742013Y849860D01*
X728119Y866418D01*
X640629Y991367D01*
X629822Y1010085D01*
X565362Y1148319D01*
X557969Y1168631D01*
X536834Y1247507D01*
X518491Y1315965D01*
X514739Y1337248D01*
X500972Y1494607D01*
X500500Y1505414D01*
X500500Y22606001D01*
X2454341Y22606001D01*
X2454341Y22606000D01*
X2474936Y22370597D01*
X2474938Y22370587D01*
X2536094Y22142345D01*
X2536096Y22142341D01*
X2536097Y22142337D01*
X2567818Y22074312D01*
X2635965Y21928170D01*
X2635967Y21928166D01*
X2744281Y21773479D01*
X2771501Y21734604D01*
X2771506Y21734598D01*
X2938597Y21567507D01*
X2938603Y21567502D01*
X3124158Y21437575D01*
X3167783Y21382998D01*
X3174977Y21313500D01*
X3143454Y21251145D01*
X3124158Y21234425D01*
X2938597Y21104495D01*
X2771505Y20937403D01*
X2635965Y20743831D01*
X2635964Y20743829D01*
X2536098Y20529665D01*
X2536094Y20529656D01*
X2474938Y20301414D01*
X2474936Y20301404D01*
X2454341Y20066001D01*
X2454341Y20066000D01*
X2474936Y19830597D01*
X2474938Y19830587D01*
X2536094Y19602345D01*
X2536096Y19602341D01*
X2536097Y19602337D01*
X2623947Y19413943D01*
X2635965Y19388170D01*
X2635967Y19388166D01*
X2715560Y19274497D01*
X2757478Y19214631D01*
X2771501Y19194605D01*
X2771506Y19194598D01*
X2938597Y19027507D01*
X2938603Y19027502D01*
X3124158Y18897575D01*
X3167783Y18842998D01*
X3174977Y18773500D01*
X3143454Y18711145D01*
X3124158Y18694425D01*
X2938597Y18564495D01*
X2771505Y18397403D01*
X2635965Y18203831D01*
X2635964Y18203829D01*
X2536098Y17989665D01*
X2536094Y17989656D01*
X2474938Y17761414D01*
X2474936Y17761404D01*
X2454341Y17526001D01*
X2454341Y17526000D01*
X2474936Y17290597D01*
X2474938Y17290587D01*
X2536094Y17062345D01*
X2536096Y17062341D01*
X2536097Y17062337D01*
X2540000Y17053968D01*
X2635965Y16848170D01*
X2635967Y16848166D01*
X2742627Y16695841D01*
X2771501Y16654604D01*
X2771506Y16654598D01*
X2938597Y16487507D01*
X2938603Y16487502D01*
X3124158Y16357575D01*
X3167783Y16302998D01*
X3174977Y16233500D01*
X3143454Y16171145D01*
X3124158Y16154425D01*
X2938597Y16024495D01*
X2771505Y15857403D01*
X2635965Y15663831D01*
X2635964Y15663829D01*
X2536098Y15449665D01*
X2536094Y15449656D01*
X2474938Y15221414D01*
X2474936Y15221404D01*
X2454341Y14986001D01*
X2454341Y14986000D01*
X2474936Y14750597D01*
X2474938Y14750587D01*
X2536094Y14522345D01*
X2536096Y14522341D01*
X2536097Y14522337D01*
X2552384Y14487410D01*
X2635965Y14308170D01*
X2635967Y14308166D01*
X2771501Y14114605D01*
X2771506Y14114598D01*
X2938597Y13947507D01*
X2938603Y13947502D01*
X3124158Y13817575D01*
X3167783Y13762998D01*
X3174977Y13693500D01*
X3143454Y13631145D01*
X3124158Y13614425D01*
X2938597Y13484495D01*
X2771505Y13317403D01*
X2635965Y13123831D01*
X2635964Y13123829D01*
X2536098Y12909665D01*
X2536094Y12909656D01*
X2474938Y12681414D01*
X2474936Y12681404D01*
X2454341Y12446001D01*
X2454341Y12446000D01*
X2474936Y12210597D01*
X2474938Y12210587D01*
X2536094Y11982345D01*
X2536096Y11982341D01*
X2536097Y11982337D01*
X2635965Y11768170D01*
X2635967Y11768166D01*
X2771501Y11574605D01*
X2771506Y11574598D01*
X2938597Y11407507D01*
X2938603Y11407502D01*
X3124158Y11277575D01*
X3167783Y11222998D01*
X3174977Y11153500D01*
X3143454Y11091145D01*
X3124158Y11074425D01*
X2938597Y10944495D01*
X2771505Y10777403D01*
X2635965Y10583831D01*
X2635964Y10583829D01*
X2536098Y10369665D01*
X2536094Y10369656D01*
X2474938Y10141414D01*
X2474936Y10141404D01*
X2454341Y9906001D01*
X2454341Y9906000D01*
X2474936Y9670597D01*
X2474938Y9670587D01*
X2536094Y9442345D01*
X2536096Y9442341D01*
X2536097Y9442337D01*
X2557953Y9395467D01*
X2635965Y9228170D01*
X2635967Y9228166D01*
X2744281Y9073479D01*
X2771501Y9034604D01*
X2771506Y9034598D01*
X2938597Y8867507D01*
X2938603Y8867502D01*
X3124158Y8737575D01*
X3167783Y8682998D01*
X3174977Y8613500D01*
X3143454Y8551145D01*
X3124158Y8534425D01*
X2938597Y8404495D01*
X2771505Y8237403D01*
X2635965Y8043831D01*
X2635964Y8043829D01*
X2536098Y7829665D01*
X2536094Y7829656D01*
X2474938Y7601414D01*
X2474936Y7601404D01*
X2454341Y7366001D01*
X2454341Y7366000D01*
X2474936Y7130597D01*
X2474938Y7130587D01*
X2536094Y6902345D01*
X2536096Y6902341D01*
X2536097Y6902337D01*
X2616004Y6730977D01*
X2635965Y6688170D01*
X2635967Y6688166D01*
X2744281Y6533479D01*
X2771501Y6494604D01*
X2771506Y6494598D01*
X2938597Y6327507D01*
X2938603Y6327502D01*
X3124158Y6197575D01*
X3167783Y6142998D01*
X3174977Y6073500D01*
X3143454Y6011145D01*
X3124158Y5994425D01*
X2938597Y5864495D01*
X2771505Y5697403D01*
X2635965Y5503831D01*
X2635964Y5503829D01*
X2536098Y5289665D01*
X2536094Y5289656D01*
X2474938Y5061414D01*
X2474936Y5061404D01*
X2454341Y4826001D01*
X2454341Y4826000D01*
X2474936Y4590597D01*
X2474938Y4590587D01*
X2536094Y4362345D01*
X2536096Y4362341D01*
X2536097Y4362337D01*
X2557953Y4315467D01*
X2635965Y4148170D01*
X2635967Y4148166D01*
X2732864Y4009784D01*
X2771501Y3954604D01*
X2771506Y3954598D01*
X2938597Y3787507D01*
X2938603Y3787502D01*
X3026403Y3726024D01*
X3095232Y3677829D01*
X3124594Y3657270D01*
X3168219Y3602693D01*
X3175413Y3533195D01*
X3143890Y3470840D01*
X3124595Y3454120D01*
X2938922Y3324110D01*
X2938920Y3324109D01*
X2771891Y3157080D01*
X2771886Y3157074D01*
X2636400Y2963580D01*
X2636399Y2963578D01*
X2536570Y2749493D01*
X2536567Y2749487D01*
X2479364Y2536001D01*
X2479364Y2536000D01*
X3376988Y2536000D01*
X3344075Y2478993D01*
X3310000Y2351826D01*
X3310000Y2220174D01*
X3344075Y2093007D01*
X3376988Y2036000D01*
X2479364Y2036000D01*
X2536567Y1822514D01*
X2536570Y1822508D01*
X2636399Y1608422D01*
X2771894Y1414918D01*
X2938917Y1247895D01*
X3132421Y1112400D01*
X3346507Y1012571D01*
X3346516Y1012567D01*
X3560000Y955366D01*
X3560000Y1852988D01*
X3617007Y1820075D01*
X3744174Y1786000D01*
X3875826Y1786000D01*
X4002993Y1820075D01*
X4060000Y1852988D01*
X4060000Y955367D01*
X4273483Y1012567D01*
X4273492Y1012571D01*
X4487578Y1112400D01*
X4681082Y1247895D01*
X4848105Y1414918D01*
X4978119Y1600595D01*
X5032696Y1644219D01*
X5102195Y1651412D01*
X5164549Y1619890D01*
X5181269Y1600595D01*
X5311505Y1414599D01*
X5478599Y1247505D01*
X5575384Y1179735D01*
X5672165Y1111968D01*
X5672167Y1111967D01*
X5672170Y1111965D01*
X5886337Y1012097D01*
X6114592Y950937D01*
X6302918Y934461D01*
X6349999Y930341D01*
X6350000Y930341D01*
X6350001Y930341D01*
X6389234Y933774D01*
X6585408Y950937D01*
X6813663Y1012097D01*
X7027830Y1111965D01*
X7221401Y1247505D01*
X7388495Y1414599D01*
X7524035Y1608170D01*
X7623903Y1822337D01*
X7685063Y2050592D01*
X7705659Y2286000D01*
X7685063Y2521408D01*
X7638626Y2694715D01*
X7623905Y2749656D01*
X7623904Y2749657D01*
X7623903Y2749663D01*
X7524035Y2963829D01*
X7518731Y2971405D01*
X7498708Y3000001D01*
X39644341Y3000001D01*
X39644341Y3000000D01*
X39664936Y2764597D01*
X39664938Y2764587D01*
X39726094Y2536345D01*
X39726096Y2536341D01*
X39726097Y2536337D01*
X39812136Y2351826D01*
X39825965Y2322170D01*
X39825967Y2322166D01*
X39934281Y2167479D01*
X39961505Y2128599D01*
X40128599Y1961505D01*
X40225384Y1893735D01*
X40322165Y1825968D01*
X40322167Y1825967D01*
X40322170Y1825965D01*
X40536337Y1726097D01*
X40764592Y1664937D01*
X40952918Y1648461D01*
X40999999Y1644341D01*
X41000000Y1644341D01*
X41000001Y1644341D01*
X41039234Y1647774D01*
X41235408Y1664937D01*
X41463663Y1726097D01*
X41677830Y1825965D01*
X41871401Y1961505D01*
X42038495Y2128599D01*
X42174035Y2322170D01*
X42273903Y2536337D01*
X42335063Y2764592D01*
X42355659Y3000000D01*
X42337477Y3207814D01*
X42351243Y3276312D01*
X42373321Y3306298D01*
X43816205Y4749181D01*
X43877528Y4782666D01*
X43903886Y4785500D01*
X44900859Y4785500D01*
X44967898Y4765815D01*
X45013653Y4713011D01*
X45023597Y4643853D01*
X44994572Y4580297D01*
X44948311Y4546939D01*
X44719987Y4452366D01*
X44719984Y4452364D01*
X44501893Y4318718D01*
X44498086Y4315468D01*
X45059438Y3754116D01*
X45057374Y3753260D01*
X44918156Y3660238D01*
X44799762Y3541844D01*
X44706740Y3402626D01*
X44705884Y3400562D01*
X44144532Y3961914D01*
X44141282Y3958107D01*
X44007636Y3740016D01*
X44007634Y3740013D01*
X43909752Y3503703D01*
X43850042Y3254990D01*
X43829975Y3000000D01*
X43850042Y2745011D01*
X43909752Y2496298D01*
X44007634Y2259988D01*
X44007636Y2259985D01*
X44141277Y2041902D01*
X44141284Y2041893D01*
X44144533Y2038088D01*
X44705884Y2599440D01*
X44706740Y2597374D01*
X44799762Y2458156D01*
X44918156Y2339762D01*
X45057374Y2246740D01*
X45059437Y2245886D01*
X44498087Y1684535D01*
X44501897Y1681281D01*
X44719984Y1547637D01*
X44719987Y1547635D01*
X44956297Y1449753D01*
X45205011Y1390043D01*
X45205010Y1390043D01*
X45460000Y1369976D01*
X45714989Y1390043D01*
X45963702Y1449753D01*
X46200012Y1547635D01*
X46200015Y1547637D01*
X46418095Y1681276D01*
X46418110Y1681287D01*
X46421911Y1684534D01*
X46421911Y1684536D01*
X45860562Y2245886D01*
X45862626Y2246740D01*
X46001844Y2339762D01*
X46120238Y2458156D01*
X46213260Y2597374D01*
X46214114Y2599438D01*
X46775464Y2038089D01*
X46775466Y2038089D01*
X46778713Y2041890D01*
X46778724Y2041905D01*
X46912363Y2259985D01*
X46912365Y2259988D01*
X47010247Y2496298D01*
X47069957Y2745011D01*
X47090024Y3000000D01*
X48909975Y3000000D01*
X48930042Y2745011D01*
X48989752Y2496298D01*
X49087634Y2259988D01*
X49087636Y2259985D01*
X49221277Y2041902D01*
X49221284Y2041893D01*
X49224533Y2038088D01*
X49785884Y2599440D01*
X49786740Y2597374D01*
X49879762Y2458156D01*
X49998156Y2339762D01*
X50137374Y2246740D01*
X50139437Y2245886D01*
X49578087Y1684535D01*
X49581897Y1681281D01*
X49799984Y1547637D01*
X49799987Y1547635D01*
X50036297Y1449753D01*
X50285011Y1390043D01*
X50285010Y1390043D01*
X50540000Y1369976D01*
X50794989Y1390043D01*
X51043702Y1449753D01*
X51280012Y1547635D01*
X51280015Y1547637D01*
X51498095Y1681276D01*
X51498110Y1681287D01*
X51501911Y1684534D01*
X51501911Y1684536D01*
X50940562Y2245886D01*
X50942626Y2246740D01*
X51081844Y2339762D01*
X51200238Y2458156D01*
X51293260Y2597374D01*
X51294114Y2599439D01*
X51855464Y2038089D01*
X51855466Y2038089D01*
X51858713Y2041890D01*
X51858724Y2041905D01*
X51992363Y2259985D01*
X51992365Y2259988D01*
X52090247Y2496298D01*
X52149957Y2745011D01*
X52170024Y3000000D01*
X52170024Y3000001D01*
X54144341Y3000001D01*
X54144341Y3000000D01*
X54164936Y2764597D01*
X54164938Y2764587D01*
X54226094Y2536345D01*
X54226096Y2536341D01*
X54226097Y2536337D01*
X54312136Y2351826D01*
X54325965Y2322170D01*
X54325967Y2322166D01*
X54434281Y2167479D01*
X54461505Y2128599D01*
X54628599Y1961505D01*
X54725384Y1893735D01*
X54822165Y1825968D01*
X54822167Y1825967D01*
X54822170Y1825965D01*
X55036337Y1726097D01*
X55264592Y1664937D01*
X55452918Y1648461D01*
X55499999Y1644341D01*
X55500000Y1644341D01*
X55500001Y1644341D01*
X55539234Y1647774D01*
X55735408Y1664937D01*
X55963663Y1726097D01*
X56177830Y1825965D01*
X56371401Y1961505D01*
X56538495Y2128599D01*
X56674035Y2322170D01*
X56773903Y2536337D01*
X56835063Y2764592D01*
X56855659Y3000000D01*
X58329975Y3000000D01*
X58350042Y2745011D01*
X58409752Y2496298D01*
X58507634Y2259988D01*
X58507636Y2259985D01*
X58641277Y2041902D01*
X58641284Y2041893D01*
X58644533Y2038088D01*
X59205884Y2599440D01*
X59206740Y2597374D01*
X59299762Y2458156D01*
X59418156Y2339762D01*
X59557374Y2246740D01*
X59559437Y2245886D01*
X58998087Y1684535D01*
X59001897Y1681281D01*
X59219984Y1547637D01*
X59219987Y1547635D01*
X59456297Y1449753D01*
X59705011Y1390043D01*
X59705010Y1390043D01*
X59960000Y1369976D01*
X60214989Y1390043D01*
X60463702Y1449753D01*
X60700012Y1547635D01*
X60700015Y1547637D01*
X60918095Y1681276D01*
X60918110Y1681287D01*
X60921911Y1684534D01*
X60921911Y1684536D01*
X60360562Y2245886D01*
X60362626Y2246740D01*
X60501844Y2339762D01*
X60620238Y2458156D01*
X60713260Y2597374D01*
X60714114Y2599439D01*
X61275464Y2038089D01*
X61275466Y2038089D01*
X61278713Y2041890D01*
X61278724Y2041905D01*
X61412363Y2259985D01*
X61412365Y2259988D01*
X61510247Y2496298D01*
X61569957Y2745011D01*
X61590024Y3000000D01*
X63409975Y3000000D01*
X63430042Y2745011D01*
X63489752Y2496298D01*
X63587634Y2259988D01*
X63587636Y2259985D01*
X63721277Y2041902D01*
X63721284Y2041893D01*
X63724533Y2038088D01*
X64285884Y2599440D01*
X64286740Y2597374D01*
X64379762Y2458156D01*
X64498156Y2339762D01*
X64637374Y2246740D01*
X64639437Y2245886D01*
X64078087Y1684535D01*
X64081897Y1681281D01*
X64299984Y1547637D01*
X64299987Y1547635D01*
X64536297Y1449753D01*
X64785011Y1390043D01*
X64785010Y1390043D01*
X65040000Y1369976D01*
X65294989Y1390043D01*
X65543702Y1449753D01*
X65780012Y1547635D01*
X65780015Y1547637D01*
X65998095Y1681276D01*
X65998110Y1681287D01*
X66001911Y1684534D01*
X66001911Y1684536D01*
X65440562Y2245886D01*
X65442626Y2246740D01*
X65581844Y2339762D01*
X65700238Y2458156D01*
X65793260Y2597374D01*
X65794114Y2599439D01*
X66355464Y2038089D01*
X66355466Y2038089D01*
X66358713Y2041890D01*
X66358724Y2041905D01*
X66492363Y2259985D01*
X66492365Y2259988D01*
X66590247Y2496298D01*
X66649957Y2745011D01*
X66670024Y3000000D01*
X66649957Y3254990D01*
X66590247Y3503703D01*
X66492365Y3740013D01*
X66492363Y3740016D01*
X66358719Y3958103D01*
X66355465Y3961913D01*
X65794114Y3400563D01*
X65793260Y3402626D01*
X65700238Y3541844D01*
X65581844Y3660238D01*
X65442626Y3753260D01*
X65440561Y3754116D01*
X65801187Y4114742D01*
X69249500Y4114742D01*
X69249500Y3885259D01*
X69262371Y3787502D01*
X69279452Y3657762D01*
X69306719Y3556000D01*
X69338842Y3436113D01*
X69426650Y3224124D01*
X69426657Y3224110D01*
X69541392Y3025383D01*
X69681081Y2843339D01*
X69681089Y2843330D01*
X69843330Y2681089D01*
X69843338Y2681082D01*
X70025382Y2541393D01*
X70025385Y2541392D01*
X70025388Y2541389D01*
X70224112Y2426656D01*
X70224117Y2426654D01*
X70224123Y2426651D01*
X70315480Y2388810D01*
X70436113Y2338842D01*
X70657762Y2279452D01*
X70885266Y2249500D01*
X70885273Y2249500D01*
X71114727Y2249500D01*
X71114734Y2249500D01*
X71342238Y2279452D01*
X71563887Y2338842D01*
X71775888Y2426656D01*
X71974612Y2541389D01*
X72156661Y2681081D01*
X72156665Y2681086D01*
X72156670Y2681089D01*
X72318911Y2843330D01*
X72318914Y2843335D01*
X72318919Y2843339D01*
X72458611Y3025388D01*
X72573344Y3224112D01*
X72661158Y3436113D01*
X72720548Y3657762D01*
X72750500Y3885266D01*
X72750500Y4114734D01*
X72720548Y4342238D01*
X72661158Y4563887D01*
X72593888Y4726290D01*
X72573349Y4775877D01*
X72573346Y4775883D01*
X72573344Y4775888D01*
X72458611Y4974612D01*
X72458608Y4974615D01*
X72458607Y4974618D01*
X72318918Y5156662D01*
X72318911Y5156670D01*
X72156670Y5318911D01*
X72156661Y5318919D01*
X71974617Y5458608D01*
X71775890Y5573343D01*
X71775876Y5573350D01*
X71563887Y5661158D01*
X71342238Y5720548D01*
X71304215Y5725554D01*
X71114741Y5750500D01*
X71114734Y5750500D01*
X70885266Y5750500D01*
X70885258Y5750500D01*
X70668715Y5721991D01*
X70657762Y5720548D01*
X70571383Y5697403D01*
X70436112Y5661158D01*
X70224123Y5573350D01*
X70224109Y5573343D01*
X70025382Y5458608D01*
X69843338Y5318919D01*
X69681081Y5156662D01*
X69541392Y4974618D01*
X69426657Y4775891D01*
X69426650Y4775877D01*
X69345639Y4580297D01*
X69338842Y4563887D01*
X69284838Y4362337D01*
X69279453Y4342241D01*
X69279451Y4342230D01*
X69249500Y4114742D01*
X65801187Y4114742D01*
X66001912Y4315467D01*
X65998107Y4318716D01*
X65998098Y4318723D01*
X65780015Y4452364D01*
X65780012Y4452366D01*
X65543702Y4550248D01*
X65294988Y4609958D01*
X65294989Y4609958D01*
X65040000Y4630025D01*
X64785010Y4609958D01*
X64536297Y4550248D01*
X64299987Y4452366D01*
X64299984Y4452364D01*
X64081893Y4318718D01*
X64078086Y4315468D01*
X64639438Y3754116D01*
X64637374Y3753260D01*
X64498156Y3660238D01*
X64379762Y3541844D01*
X64286740Y3402626D01*
X64285884Y3400562D01*
X63724532Y3961914D01*
X63721282Y3958107D01*
X63587636Y3740016D01*
X63587634Y3740013D01*
X63489752Y3503703D01*
X63430042Y3254990D01*
X63409975Y3000000D01*
X61590024Y3000000D01*
X61569957Y3254990D01*
X61510247Y3503703D01*
X61412365Y3740013D01*
X61412363Y3740016D01*
X61278719Y3958103D01*
X61275465Y3961913D01*
X60714114Y3400563D01*
X60713260Y3402626D01*
X60620238Y3541844D01*
X60501844Y3660238D01*
X60362626Y3753260D01*
X60360561Y3754116D01*
X60921912Y4315467D01*
X60918107Y4318716D01*
X60918098Y4318723D01*
X60700015Y4452364D01*
X60700012Y4452366D01*
X60463702Y4550248D01*
X60214988Y4609958D01*
X60214989Y4609958D01*
X59960000Y4630025D01*
X59705010Y4609958D01*
X59456297Y4550248D01*
X59219987Y4452366D01*
X59219984Y4452364D01*
X59001893Y4318718D01*
X58998086Y4315468D01*
X59559438Y3754116D01*
X59557374Y3753260D01*
X59418156Y3660238D01*
X59299762Y3541844D01*
X59206740Y3402626D01*
X59205884Y3400562D01*
X58644532Y3961914D01*
X58641282Y3958107D01*
X58507636Y3740016D01*
X58507634Y3740013D01*
X58409752Y3503703D01*
X58350042Y3254990D01*
X58329975Y3000000D01*
X56855659Y3000000D01*
X56835063Y3235408D01*
X56773903Y3463663D01*
X56674035Y3677829D01*
X56630493Y3740013D01*
X56538496Y3871400D01*
X56524623Y3885273D01*
X56416179Y3993717D01*
X56382696Y4055037D01*
X56387680Y4124729D01*
X56429551Y4180663D01*
X56460529Y4197578D01*
X56592086Y4246646D01*
X56592093Y4246650D01*
X56707187Y4332810D01*
X56707190Y4332813D01*
X56793350Y4447907D01*
X56793354Y4447914D01*
X56843596Y4582621D01*
X56843598Y4582628D01*
X56849999Y4642156D01*
X56850000Y4642173D01*
X56850000Y5290000D01*
X55933012Y5290000D01*
X55965925Y5347007D01*
X56000000Y5474174D01*
X56000000Y5540000D01*
X60969783Y5540000D01*
X60988623Y5300618D01*
X61044674Y5067147D01*
X61044678Y5067135D01*
X61136565Y4845298D01*
X61262026Y4640564D01*
X61262028Y4640561D01*
X61417973Y4457973D01*
X61600561Y4302028D01*
X61600563Y4302027D01*
X61805297Y4176566D01*
X61893195Y4140158D01*
X62027137Y4084677D01*
X62260621Y4028623D01*
X62500000Y4009783D01*
X62739379Y4028623D01*
X62972863Y4084677D01*
X63166365Y4164829D01*
X63194702Y4176566D01*
X63201388Y4180663D01*
X63399439Y4302028D01*
X63582027Y4457973D01*
X63737972Y4640561D01*
X63863433Y4845296D01*
X63955323Y5067137D01*
X64011377Y5300621D01*
X64030217Y5540000D01*
X64011377Y5779379D01*
X63955323Y6012863D01*
X63881136Y6191965D01*
X63863434Y6234703D01*
X63737973Y6439437D01*
X63737972Y6439439D01*
X63582027Y6622027D01*
X63399439Y6777972D01*
X63399434Y6777975D01*
X63194702Y6903435D01*
X62972865Y6995322D01*
X62972867Y6995322D01*
X62972863Y6995323D01*
X62972859Y6995324D01*
X62972853Y6995326D01*
X62739382Y7051377D01*
X62500000Y7070217D01*
X62260617Y7051377D01*
X62027146Y6995326D01*
X62027134Y6995322D01*
X61805297Y6903435D01*
X61600563Y6777974D01*
X61417973Y6622027D01*
X61262026Y6439437D01*
X61136565Y6234703D01*
X61044678Y6012866D01*
X61044674Y6012854D01*
X60988623Y5779383D01*
X60969783Y5540000D01*
X56000000Y5540000D01*
X56000000Y5605826D01*
X55965925Y5732993D01*
X55933012Y5790000D01*
X56850000Y5790000D01*
X56850000Y6437828D01*
X56849999Y6437845D01*
X56843598Y6497373D01*
X56843596Y6497380D01*
X56793354Y6632087D01*
X56793350Y6632094D01*
X56707190Y6747188D01*
X56707187Y6747191D01*
X56592093Y6833351D01*
X56592086Y6833355D01*
X56457379Y6883597D01*
X56457372Y6883599D01*
X56397844Y6890000D01*
X55750000Y6890000D01*
X55750000Y5973012D01*
X55692993Y6005925D01*
X55565826Y6040000D01*
X55434174Y6040000D01*
X55307007Y6005925D01*
X55250000Y5973012D01*
X55250000Y6890000D01*
X54602155Y6890000D01*
X54542627Y6883599D01*
X54542620Y6883597D01*
X54407913Y6833355D01*
X54407906Y6833351D01*
X54292812Y6747191D01*
X54292809Y6747188D01*
X54206649Y6632094D01*
X54206645Y6632087D01*
X54156403Y6497380D01*
X54156401Y6497373D01*
X54150000Y6437845D01*
X54150000Y5790000D01*
X55066988Y5790000D01*
X55034075Y5732993D01*
X55000000Y5605826D01*
X55000000Y5474174D01*
X55034075Y5347007D01*
X55066988Y5290000D01*
X54150000Y5290000D01*
X54150000Y4642156D01*
X54156401Y4582628D01*
X54156403Y4582621D01*
X54206645Y4447914D01*
X54206649Y4447907D01*
X54292809Y4332813D01*
X54292812Y4332810D01*
X54407906Y4246650D01*
X54407913Y4246646D01*
X54539470Y4197579D01*
X54595403Y4155708D01*
X54619821Y4090244D01*
X54604970Y4021971D01*
X54583819Y3993716D01*
X54461503Y3871400D01*
X54325965Y3677831D01*
X54325964Y3677829D01*
X54226098Y3463665D01*
X54226094Y3463656D01*
X54164938Y3235414D01*
X54164936Y3235404D01*
X54144341Y3000001D01*
X52170024Y3000001D01*
X52149957Y3254990D01*
X52090247Y3503703D01*
X51992365Y3740013D01*
X51992363Y3740016D01*
X51858719Y3958103D01*
X51855465Y3961913D01*
X51294114Y3400563D01*
X51293260Y3402626D01*
X51200238Y3541844D01*
X51081844Y3660238D01*
X50942626Y3753260D01*
X50940561Y3754116D01*
X51501912Y4315467D01*
X51498107Y4318716D01*
X51498098Y4318723D01*
X51280015Y4452364D01*
X51280012Y4452366D01*
X51043702Y4550248D01*
X50794988Y4609958D01*
X50794989Y4609958D01*
X50540000Y4630025D01*
X50285010Y4609958D01*
X50036297Y4550248D01*
X49799987Y4452366D01*
X49799984Y4452364D01*
X49581893Y4318718D01*
X49578086Y4315468D01*
X50139438Y3754116D01*
X50137374Y3753260D01*
X49998156Y3660238D01*
X49879762Y3541844D01*
X49786740Y3402626D01*
X49785884Y3400562D01*
X49224532Y3961914D01*
X49221282Y3958107D01*
X49087636Y3740016D01*
X49087634Y3740013D01*
X48989752Y3503703D01*
X48930042Y3254990D01*
X48909975Y3000000D01*
X47090024Y3000000D01*
X47069957Y3254990D01*
X47010247Y3503703D01*
X46912365Y3740013D01*
X46912363Y3740016D01*
X46778719Y3958103D01*
X46775465Y3961913D01*
X46214114Y3400563D01*
X46213260Y3402626D01*
X46120238Y3541844D01*
X46001844Y3660238D01*
X45862626Y3753260D01*
X45860561Y3754116D01*
X46421912Y4315467D01*
X46418107Y4318716D01*
X46418098Y4318723D01*
X46200015Y4452364D01*
X46200012Y4452366D01*
X45971689Y4546939D01*
X45917285Y4590780D01*
X45895220Y4657074D01*
X45912499Y4724773D01*
X45963636Y4772384D01*
X46019141Y4785500D01*
X46603766Y4785500D01*
X46670805Y4765815D01*
X46709493Y4726291D01*
X46762028Y4640561D01*
X46917973Y4457973D01*
X47100561Y4302028D01*
X47100563Y4302027D01*
X47305297Y4176566D01*
X47393195Y4140158D01*
X47527137Y4084677D01*
X47760621Y4028623D01*
X48000000Y4009783D01*
X48239379Y4028623D01*
X48472863Y4084677D01*
X48666365Y4164829D01*
X48694702Y4176566D01*
X48701388Y4180663D01*
X48899439Y4302028D01*
X49082027Y4457973D01*
X49237972Y4640561D01*
X49363433Y4845296D01*
X49455323Y5067137D01*
X49511377Y5300621D01*
X49530217Y5540000D01*
X49511377Y5779379D01*
X49455323Y6012863D01*
X49381136Y6191965D01*
X49363434Y6234703D01*
X49237973Y6439437D01*
X49237972Y6439439D01*
X49082027Y6622027D01*
X48954463Y6730977D01*
X48899436Y6777975D01*
X48899433Y6777976D01*
X48813710Y6830508D01*
X48766835Y6882320D01*
X48754500Y6936235D01*
X48754500Y7520859D01*
X48774185Y7587898D01*
X48826989Y7633653D01*
X48896147Y7643597D01*
X48959703Y7614572D01*
X48993061Y7568311D01*
X49087634Y7339988D01*
X49087636Y7339985D01*
X49221277Y7121902D01*
X49221284Y7121893D01*
X49224533Y7118088D01*
X49785884Y7679440D01*
X49786740Y7677374D01*
X49879762Y7538156D01*
X49998156Y7419762D01*
X50137374Y7326740D01*
X50139437Y7325886D01*
X49578087Y6764535D01*
X49581897Y6761281D01*
X49799984Y6627637D01*
X49799987Y6627635D01*
X50036297Y6529753D01*
X50285011Y6470043D01*
X50285010Y6470043D01*
X50540000Y6449976D01*
X50794989Y6470043D01*
X51043702Y6529753D01*
X51280012Y6627635D01*
X51280015Y6627637D01*
X51498095Y6761276D01*
X51498110Y6761287D01*
X51501911Y6764534D01*
X51501911Y6764536D01*
X50940562Y7325886D01*
X50942626Y7326740D01*
X51081844Y7419762D01*
X51200238Y7538156D01*
X51293260Y7677374D01*
X51294114Y7679439D01*
X51855464Y7118089D01*
X51855466Y7118089D01*
X51858713Y7121890D01*
X51858724Y7121905D01*
X51992363Y7339985D01*
X51992365Y7339988D01*
X52090247Y7576298D01*
X52149957Y7825011D01*
X52170024Y8080000D01*
X58329975Y8080000D01*
X58350042Y7825011D01*
X58409752Y7576298D01*
X58507634Y7339988D01*
X58507636Y7339985D01*
X58641277Y7121902D01*
X58641284Y7121893D01*
X58644533Y7118088D01*
X59205884Y7679440D01*
X59206740Y7677374D01*
X59299762Y7538156D01*
X59418156Y7419762D01*
X59557374Y7326740D01*
X59559437Y7325886D01*
X58998087Y6764535D01*
X59001897Y6761281D01*
X59219984Y6627637D01*
X59219987Y6627635D01*
X59456297Y6529753D01*
X59705011Y6470043D01*
X59705010Y6470043D01*
X59960000Y6449976D01*
X60214989Y6470043D01*
X60463702Y6529753D01*
X60700012Y6627635D01*
X60700015Y6627637D01*
X60918095Y6761276D01*
X60918110Y6761287D01*
X60921911Y6764534D01*
X60921911Y6764536D01*
X60360562Y7325886D01*
X60362626Y7326740D01*
X60501844Y7419762D01*
X60620238Y7538156D01*
X60713260Y7677374D01*
X60714114Y7679439D01*
X61275464Y7118089D01*
X61275466Y7118089D01*
X61278713Y7121890D01*
X61278724Y7121905D01*
X61412363Y7339985D01*
X61412365Y7339988D01*
X61510247Y7576298D01*
X61569957Y7825011D01*
X61590024Y8080000D01*
X63409975Y8080000D01*
X63430042Y7825011D01*
X63489752Y7576298D01*
X63587634Y7339988D01*
X63587636Y7339985D01*
X63721277Y7121902D01*
X63721284Y7121893D01*
X63724533Y7118088D01*
X64285884Y7679440D01*
X64286740Y7677374D01*
X64379762Y7538156D01*
X64498156Y7419762D01*
X64637374Y7326740D01*
X64639437Y7325886D01*
X64078087Y6764535D01*
X64081897Y6761281D01*
X64299984Y6627637D01*
X64299987Y6627635D01*
X64536297Y6529753D01*
X64785011Y6470043D01*
X64785010Y6470043D01*
X65040000Y6449976D01*
X65294989Y6470043D01*
X65543702Y6529753D01*
X65780012Y6627635D01*
X65780015Y6627637D01*
X65998095Y6761276D01*
X65998110Y6761287D01*
X66001911Y6764534D01*
X66001911Y6764536D01*
X65440562Y7325886D01*
X65442626Y7326740D01*
X65581844Y7419762D01*
X65700238Y7538156D01*
X65793260Y7677374D01*
X65794114Y7679439D01*
X66355464Y7118089D01*
X66355466Y7118089D01*
X66358713Y7121890D01*
X66358724Y7121905D01*
X66492363Y7339985D01*
X66492365Y7339988D01*
X66590247Y7576298D01*
X66649957Y7825011D01*
X66670024Y8080000D01*
X66649957Y8334990D01*
X66590247Y8583703D01*
X66492365Y8820013D01*
X66492363Y8820016D01*
X66358719Y9038103D01*
X66355465Y9041913D01*
X65794114Y8480563D01*
X65793260Y8482626D01*
X65700238Y8621844D01*
X65581844Y8740238D01*
X65442626Y8833260D01*
X65440561Y8834116D01*
X66001912Y9395467D01*
X65998107Y9398716D01*
X65998098Y9398723D01*
X65780015Y9532364D01*
X65780012Y9532366D01*
X65543702Y9630248D01*
X65294988Y9689958D01*
X65294989Y9689958D01*
X65040000Y9710025D01*
X64785010Y9689958D01*
X64536297Y9630248D01*
X64299987Y9532366D01*
X64299984Y9532364D01*
X64081893Y9398718D01*
X64078086Y9395468D01*
X64639438Y8834116D01*
X64637374Y8833260D01*
X64498156Y8740238D01*
X64379762Y8621844D01*
X64286740Y8482626D01*
X64285884Y8480562D01*
X63724532Y9041914D01*
X63721282Y9038107D01*
X63587636Y8820016D01*
X63587634Y8820013D01*
X63489752Y8583703D01*
X63430042Y8334990D01*
X63409975Y8080000D01*
X61590024Y8080000D01*
X61569957Y8334990D01*
X61510247Y8583703D01*
X61412365Y8820013D01*
X61412363Y8820016D01*
X61278719Y9038103D01*
X61275465Y9041913D01*
X60714114Y8480563D01*
X60713260Y8482626D01*
X60620238Y8621844D01*
X60501844Y8740238D01*
X60362626Y8833260D01*
X60360561Y8834116D01*
X60921912Y9395467D01*
X60918107Y9398716D01*
X60918098Y9398723D01*
X60700015Y9532364D01*
X60700012Y9532366D01*
X60463702Y9630248D01*
X60214988Y9689958D01*
X60214989Y9689958D01*
X59960000Y9710025D01*
X59705010Y9689958D01*
X59456297Y9630248D01*
X59219987Y9532366D01*
X59219984Y9532364D01*
X59001893Y9398718D01*
X58998086Y9395468D01*
X59559438Y8834116D01*
X59557374Y8833260D01*
X59418156Y8740238D01*
X59299762Y8621844D01*
X59206740Y8482626D01*
X59205884Y8480562D01*
X58644532Y9041914D01*
X58641282Y9038107D01*
X58507636Y8820016D01*
X58507634Y8820013D01*
X58409752Y8583703D01*
X58350042Y8334990D01*
X58329975Y8080000D01*
X52170024Y8080000D01*
X52149957Y8334990D01*
X52090247Y8583703D01*
X51992365Y8820013D01*
X51992363Y8820016D01*
X51858719Y9038103D01*
X51855465Y9041913D01*
X51294114Y8480563D01*
X51293260Y8482626D01*
X51200238Y8621844D01*
X51081844Y8740238D01*
X50942626Y8833260D01*
X50940561Y8834116D01*
X51501912Y9395467D01*
X51498107Y9398716D01*
X51498098Y9398723D01*
X51280015Y9532364D01*
X51280012Y9532366D01*
X51043702Y9630248D01*
X50794988Y9689958D01*
X50794989Y9689958D01*
X50540000Y9710025D01*
X50285010Y9689958D01*
X50036297Y9630248D01*
X49799987Y9532366D01*
X49799984Y9532364D01*
X49581893Y9398718D01*
X49578086Y9395468D01*
X50139438Y8834116D01*
X50137374Y8833260D01*
X49998156Y8740238D01*
X49879762Y8621844D01*
X49786740Y8482626D01*
X49785884Y8480562D01*
X49224532Y9041914D01*
X49221282Y9038107D01*
X49087636Y8820017D01*
X48993061Y8591689D01*
X48949220Y8537286D01*
X48882926Y8515221D01*
X48815227Y8532500D01*
X48767616Y8583637D01*
X48754500Y8639142D01*
X48754500Y23136114D01*
X48774185Y23203153D01*
X48790819Y23223795D01*
X49776205Y24209181D01*
X49837528Y24242666D01*
X49863886Y24245500D01*
X50211460Y24245500D01*
X50252415Y24238541D01*
X50320737Y24214634D01*
X50320743Y24214633D01*
X50320745Y24214632D01*
X50320746Y24214632D01*
X50320750Y24214631D01*
X50480383Y24196645D01*
X50544797Y24169579D01*
X50584352Y24111984D01*
X50590500Y24073425D01*
X50590500Y21410418D01*
X50625449Y21234717D01*
X50625452Y21234705D01*
X50694007Y21069197D01*
X50694014Y21069184D01*
X50793544Y20920228D01*
X50793547Y20920224D01*
X50920223Y20793548D01*
X50920227Y20793545D01*
X51069183Y20694015D01*
X51069196Y20694008D01*
X51234704Y20625453D01*
X51234709Y20625451D01*
X51410417Y20590501D01*
X51410421Y20590500D01*
X51410422Y20590500D01*
X51589579Y20590500D01*
X51589580Y20590501D01*
X51765291Y20625451D01*
X51930810Y20694011D01*
X52079773Y20793545D01*
X52206455Y20920227D01*
X52305989Y21069190D01*
X52374549Y21234709D01*
X52409500Y21410422D01*
X52409500Y23145570D01*
X55857699Y23145570D01*
X55857699Y23145569D01*
X55967812Y23087777D01*
X56121075Y23050000D01*
X56278925Y23050000D01*
X56432185Y23087776D01*
X56542299Y23145570D01*
X57157699Y23145570D01*
X57157699Y23145569D01*
X57267812Y23087777D01*
X57421075Y23050000D01*
X57578925Y23050000D01*
X57732185Y23087776D01*
X57842299Y23145570D01*
X57500001Y23487868D01*
X57500000Y23487868D01*
X57157699Y23145570D01*
X56542299Y23145570D01*
X56200001Y23487868D01*
X56200000Y23487868D01*
X55857699Y23145570D01*
X52409500Y23145570D01*
X52409500Y23700000D01*
X55545226Y23700000D01*
X55564253Y23543301D01*
X55620222Y23395717D01*
X55620225Y23395712D01*
X55646096Y23358230D01*
X55646097Y23358230D01*
X55987868Y23700000D01*
X55967977Y23719891D01*
X56100000Y23719891D01*
X56100000Y23680109D01*
X56115224Y23643355D01*
X56143355Y23615224D01*
X56180109Y23600000D01*
X56219891Y23600000D01*
X56256645Y23615224D01*
X56284776Y23643355D01*
X56300000Y23680109D01*
X56300000Y23700001D01*
X56412132Y23700001D01*
X56412132Y23699999D01*
X56753901Y23358230D01*
X56759180Y23358710D01*
X56802231Y23393597D01*
X56871680Y23401257D01*
X56934245Y23370154D01*
X56944447Y23358380D01*
X56946097Y23358230D01*
X57287868Y23700000D01*
X57267977Y23719891D01*
X57400000Y23719891D01*
X57400000Y23680109D01*
X57415224Y23643355D01*
X57443355Y23615224D01*
X57480109Y23600000D01*
X57519891Y23600000D01*
X57556645Y23615224D01*
X57584776Y23643355D01*
X57600000Y23680109D01*
X57600000Y23700001D01*
X57712132Y23700001D01*
X57712132Y23699999D01*
X58053901Y23358230D01*
X58079773Y23395710D01*
X58135747Y23543303D01*
X58154773Y23700000D01*
X58135747Y23856698D01*
X58079773Y24004291D01*
X58053901Y24041771D01*
X58053901Y24041772D01*
X57712132Y23700001D01*
X57600000Y23700001D01*
X57600000Y23719891D01*
X57584776Y23756645D01*
X57556645Y23784776D01*
X57519891Y23800000D01*
X57480109Y23800000D01*
X57443355Y23784776D01*
X57415224Y23756645D01*
X57400000Y23719891D01*
X57267977Y23719891D01*
X56946096Y24041772D01*
X56940815Y24041292D01*
X56897768Y24006405D01*
X56828319Y23998745D01*
X56765754Y24029847D01*
X56755551Y24041622D01*
X56753901Y24041772D01*
X56412132Y23700001D01*
X56300000Y23700001D01*
X56300000Y23719891D01*
X56284776Y23756645D01*
X56256645Y23784776D01*
X56219891Y23800000D01*
X56180109Y23800000D01*
X56143355Y23784776D01*
X56115224Y23756645D01*
X56100000Y23719891D01*
X55967977Y23719891D01*
X55646096Y24041772D01*
X55620227Y24004293D01*
X55620224Y24004287D01*
X55564253Y23856699D01*
X55545226Y23700000D01*
X52409500Y23700000D01*
X52409500Y24445570D01*
X55857699Y24445570D01*
X55859841Y24431495D01*
X55880803Y24411213D01*
X55896778Y24343194D01*
X55873443Y24277336D01*
X55859323Y24265102D01*
X55857699Y24254433D01*
X56200000Y23912132D01*
X56200001Y23912132D01*
X56542299Y24254433D01*
X56540157Y24268508D01*
X56519196Y24288789D01*
X56503221Y24356808D01*
X56526556Y24422666D01*
X56540675Y24434901D01*
X56542299Y24445570D01*
X57157699Y24445570D01*
X57159841Y24431495D01*
X57180803Y24411213D01*
X57196778Y24343194D01*
X57173443Y24277336D01*
X57159323Y24265102D01*
X57157699Y24254433D01*
X57500000Y23912132D01*
X57500001Y23912132D01*
X57842299Y24254433D01*
X57840157Y24268508D01*
X57819196Y24288789D01*
X57803221Y24356808D01*
X57826556Y24422666D01*
X57840675Y24434901D01*
X57842299Y24445570D01*
X57500001Y24787868D01*
X57500000Y24787868D01*
X57157699Y24445570D01*
X56542299Y24445570D01*
X56200001Y24787868D01*
X56200000Y24787868D01*
X55857699Y24445570D01*
X52409500Y24445570D01*
X52409500Y25000000D01*
X55545226Y25000000D01*
X55564253Y24843301D01*
X55620222Y24695717D01*
X55620225Y24695712D01*
X55646096Y24658230D01*
X55646097Y24658230D01*
X55987868Y25000000D01*
X55967977Y25019891D01*
X56100000Y25019891D01*
X56100000Y24980109D01*
X56115224Y24943355D01*
X56143355Y24915224D01*
X56180109Y24900000D01*
X56219891Y24900000D01*
X56256645Y24915224D01*
X56284776Y24943355D01*
X56300000Y24980109D01*
X56300000Y25000001D01*
X56412132Y25000001D01*
X56412132Y24999999D01*
X56753901Y24658230D01*
X56759180Y24658710D01*
X56802231Y24693597D01*
X56871680Y24701257D01*
X56934245Y24670154D01*
X56944447Y24658380D01*
X56946097Y24658230D01*
X57287868Y25000000D01*
X57267977Y25019891D01*
X57400000Y25019891D01*
X57400000Y24980109D01*
X57415224Y24943355D01*
X57443355Y24915224D01*
X57480109Y24900000D01*
X57519891Y24900000D01*
X57556645Y24915224D01*
X57584776Y24943355D01*
X57600000Y24980109D01*
X57600000Y25000001D01*
X57712132Y25000001D01*
X57712132Y24999999D01*
X58053901Y24658230D01*
X58079773Y24695710D01*
X58135747Y24843303D01*
X58154773Y25000000D01*
X58135747Y25156698D01*
X58079773Y25304291D01*
X58053901Y25341771D01*
X58053901Y25341772D01*
X57712132Y25000001D01*
X57600000Y25000001D01*
X57600000Y25019891D01*
X57584776Y25056645D01*
X57556645Y25084776D01*
X57519891Y25100000D01*
X57480109Y25100000D01*
X57443355Y25084776D01*
X57415224Y25056645D01*
X57400000Y25019891D01*
X57267977Y25019891D01*
X56946096Y25341772D01*
X56940815Y25341292D01*
X56897768Y25306405D01*
X56828319Y25298745D01*
X56765754Y25329847D01*
X56755551Y25341622D01*
X56753901Y25341772D01*
X56412132Y25000001D01*
X56300000Y25000001D01*
X56300000Y25019891D01*
X56284776Y25056645D01*
X56256645Y25084776D01*
X56219891Y25100000D01*
X56180109Y25100000D01*
X56143355Y25084776D01*
X56115224Y25056645D01*
X56100000Y25019891D01*
X55967977Y25019891D01*
X55646096Y25341772D01*
X55620227Y25304293D01*
X55620224Y25304287D01*
X55564253Y25156699D01*
X55545226Y25000000D01*
X52409500Y25000000D01*
X52409500Y25745570D01*
X55857699Y25745570D01*
X55859841Y25731495D01*
X55880803Y25711213D01*
X55896778Y25643194D01*
X55873443Y25577336D01*
X55859323Y25565102D01*
X55857699Y25554433D01*
X56200000Y25212132D01*
X56200001Y25212132D01*
X56542299Y25554433D01*
X56540157Y25568508D01*
X56519196Y25588789D01*
X56503221Y25656808D01*
X56526556Y25722666D01*
X56540675Y25734901D01*
X56542299Y25745570D01*
X57157699Y25745570D01*
X57159841Y25731495D01*
X57180803Y25711213D01*
X57196778Y25643194D01*
X57173443Y25577336D01*
X57159323Y25565102D01*
X57157699Y25554433D01*
X57500000Y25212132D01*
X57500001Y25212132D01*
X57842299Y25554433D01*
X57840157Y25568508D01*
X57819196Y25588789D01*
X57803221Y25656808D01*
X57826556Y25722666D01*
X57840675Y25734901D01*
X57842299Y25745570D01*
X57500001Y26087868D01*
X57500000Y26087868D01*
X57157699Y25745570D01*
X56542299Y25745570D01*
X56200001Y26087868D01*
X56200000Y26087868D01*
X55857699Y25745570D01*
X52409500Y25745570D01*
X52409500Y26300000D01*
X55545226Y26300000D01*
X55564253Y26143301D01*
X55620222Y25995717D01*
X55620225Y25995712D01*
X55646096Y25958230D01*
X55646097Y25958230D01*
X55987868Y26300000D01*
X55967977Y26319891D01*
X56100000Y26319891D01*
X56100000Y26280109D01*
X56115224Y26243355D01*
X56143355Y26215224D01*
X56180109Y26200000D01*
X56219891Y26200000D01*
X56256645Y26215224D01*
X56284776Y26243355D01*
X56300000Y26280109D01*
X56300000Y26300001D01*
X56412132Y26300001D01*
X56412132Y26299999D01*
X56753901Y25958230D01*
X56759180Y25958710D01*
X56802231Y25993597D01*
X56871680Y26001257D01*
X56934245Y25970154D01*
X56944447Y25958380D01*
X56946097Y25958230D01*
X57287868Y26300000D01*
X57267977Y26319891D01*
X57400000Y26319891D01*
X57400000Y26280109D01*
X57415224Y26243355D01*
X57443355Y26215224D01*
X57480109Y26200000D01*
X57519891Y26200000D01*
X57556645Y26215224D01*
X57584776Y26243355D01*
X57600000Y26280109D01*
X57600000Y26300001D01*
X57712132Y26300001D01*
X57712132Y26299999D01*
X58053901Y25958230D01*
X58079773Y25995710D01*
X58135747Y26143303D01*
X58154773Y26300000D01*
X58135747Y26456698D01*
X58079773Y26604291D01*
X58053901Y26641771D01*
X58053901Y26641772D01*
X57712132Y26300001D01*
X57600000Y26300001D01*
X57600000Y26319891D01*
X57584776Y26356645D01*
X57556645Y26384776D01*
X57519891Y26400000D01*
X57480109Y26400000D01*
X57443355Y26384776D01*
X57415224Y26356645D01*
X57400000Y26319891D01*
X57267977Y26319891D01*
X56946096Y26641772D01*
X56940815Y26641292D01*
X56897768Y26606405D01*
X56828319Y26598745D01*
X56765754Y26629847D01*
X56755551Y26641622D01*
X56753901Y26641772D01*
X56412132Y26300001D01*
X56300000Y26300001D01*
X56300000Y26319891D01*
X56284776Y26356645D01*
X56256645Y26384776D01*
X56219891Y26400000D01*
X56180109Y26400000D01*
X56143355Y26384776D01*
X56115224Y26356645D01*
X56100000Y26319891D01*
X55967977Y26319891D01*
X55646096Y26641772D01*
X55620227Y26604293D01*
X55620224Y26604287D01*
X55564253Y26456699D01*
X55545226Y26300000D01*
X52409500Y26300000D01*
X52409500Y27045570D01*
X55857699Y27045570D01*
X55859841Y27031495D01*
X55880803Y27011213D01*
X55896778Y26943194D01*
X55873443Y26877336D01*
X55859323Y26865102D01*
X55857699Y26854433D01*
X56200000Y26512132D01*
X56200001Y26512132D01*
X56542299Y26854433D01*
X56540157Y26868508D01*
X56519196Y26888789D01*
X56503221Y26956808D01*
X56526556Y27022666D01*
X56540675Y27034901D01*
X56542299Y27045570D01*
X57157699Y27045570D01*
X57159841Y27031495D01*
X57180803Y27011213D01*
X57196778Y26943194D01*
X57173443Y26877336D01*
X57159323Y26865102D01*
X57157699Y26854433D01*
X57500000Y26512132D01*
X57500001Y26512132D01*
X57842299Y26854433D01*
X57840157Y26868508D01*
X57819196Y26888789D01*
X57803221Y26956808D01*
X57826556Y27022666D01*
X57840675Y27034901D01*
X57842299Y27045570D01*
X57500001Y27387868D01*
X57500000Y27387868D01*
X57157699Y27045570D01*
X56542299Y27045570D01*
X56200001Y27387868D01*
X56200000Y27387868D01*
X55857699Y27045570D01*
X52409500Y27045570D01*
X52409500Y27600000D01*
X55545226Y27600000D01*
X55564253Y27443301D01*
X55620222Y27295717D01*
X55620225Y27295712D01*
X55646096Y27258230D01*
X55646097Y27258230D01*
X55987868Y27600000D01*
X55967977Y27619891D01*
X56100000Y27619891D01*
X56100000Y27580109D01*
X56115224Y27543355D01*
X56143355Y27515224D01*
X56180109Y27500000D01*
X56219891Y27500000D01*
X56256645Y27515224D01*
X56284776Y27543355D01*
X56300000Y27580109D01*
X56300000Y27600001D01*
X56412132Y27600001D01*
X56412132Y27599999D01*
X56753901Y27258230D01*
X56759180Y27258710D01*
X56802231Y27293597D01*
X56871680Y27301257D01*
X56934245Y27270154D01*
X56944447Y27258380D01*
X56946097Y27258230D01*
X57287868Y27600000D01*
X57267977Y27619891D01*
X57400000Y27619891D01*
X57400000Y27580109D01*
X57415224Y27543355D01*
X57443355Y27515224D01*
X57480109Y27500000D01*
X57519891Y27500000D01*
X57556645Y27515224D01*
X57584776Y27543355D01*
X57600000Y27580109D01*
X57600000Y27600001D01*
X57712132Y27600001D01*
X57712132Y27599999D01*
X58053901Y27258230D01*
X58079773Y27295710D01*
X58135747Y27443303D01*
X58154773Y27600000D01*
X58135747Y27756698D01*
X58079773Y27904291D01*
X58053901Y27941771D01*
X58053901Y27941772D01*
X57712132Y27600001D01*
X57600000Y27600001D01*
X57600000Y27619891D01*
X57584776Y27656645D01*
X57556645Y27684776D01*
X57519891Y27700000D01*
X57480109Y27700000D01*
X57443355Y27684776D01*
X57415224Y27656645D01*
X57400000Y27619891D01*
X57267977Y27619891D01*
X56946096Y27941772D01*
X56940815Y27941292D01*
X56897768Y27906405D01*
X56828319Y27898745D01*
X56765754Y27929847D01*
X56755551Y27941622D01*
X56753901Y27941772D01*
X56412132Y27600001D01*
X56300000Y27600001D01*
X56300000Y27619891D01*
X56284776Y27656645D01*
X56256645Y27684776D01*
X56219891Y27700000D01*
X56180109Y27700000D01*
X56143355Y27684776D01*
X56115224Y27656645D01*
X56100000Y27619891D01*
X55967977Y27619891D01*
X55646096Y27941772D01*
X55620227Y27904293D01*
X55620224Y27904287D01*
X55564253Y27756699D01*
X55545226Y27600000D01*
X52409500Y27600000D01*
X52409500Y28154432D01*
X55857700Y28154432D01*
X56200000Y27812132D01*
X56200001Y27812132D01*
X56542298Y28154432D01*
X57157700Y28154432D01*
X57500000Y27812132D01*
X57500001Y27812132D01*
X57842299Y28154433D01*
X57732183Y28212225D01*
X57578925Y28250000D01*
X57421075Y28250000D01*
X57267815Y28212225D01*
X57157700Y28154432D01*
X56542298Y28154432D01*
X56542299Y28154433D01*
X56432183Y28212225D01*
X56278925Y28250000D01*
X56121075Y28250000D01*
X55967815Y28212225D01*
X55857700Y28154432D01*
X52409500Y28154432D01*
X52409500Y29080001D01*
X70144341Y29080001D01*
X70144341Y29080000D01*
X70164936Y28844597D01*
X70164938Y28844587D01*
X70226094Y28616345D01*
X70226096Y28616341D01*
X70226097Y28616337D01*
X70302590Y28452298D01*
X70325965Y28402170D01*
X70325967Y28402166D01*
X70400473Y28295762D01*
X70449468Y28225789D01*
X70461501Y28208605D01*
X70461506Y28208598D01*
X70628597Y28041507D01*
X70628603Y28041502D01*
X70814158Y27911575D01*
X70857783Y27856998D01*
X70864977Y27787500D01*
X70833454Y27725145D01*
X70814158Y27708425D01*
X70628597Y27578495D01*
X70461505Y27411403D01*
X70325965Y27217831D01*
X70325964Y27217829D01*
X70226098Y27003665D01*
X70226094Y27003656D01*
X70164938Y26775414D01*
X70164936Y26775404D01*
X70144341Y26540001D01*
X70144341Y26540000D01*
X70164936Y26304597D01*
X70164938Y26304587D01*
X70226094Y26076345D01*
X70226096Y26076341D01*
X70226097Y26076337D01*
X70295932Y25926576D01*
X70325965Y25862170D01*
X70325967Y25862166D01*
X70421659Y25725505D01*
X70461501Y25668604D01*
X70461506Y25668598D01*
X70583430Y25546674D01*
X70616915Y25485351D01*
X70611931Y25415659D01*
X70570059Y25359726D01*
X70539083Y25342811D01*
X70407669Y25293797D01*
X70407664Y25293794D01*
X70292455Y25207548D01*
X70292452Y25207545D01*
X70206206Y25092336D01*
X70206202Y25092329D01*
X70155908Y24957483D01*
X70149728Y24899998D01*
X70149501Y24897877D01*
X70149500Y24897865D01*
X70149500Y23102130D01*
X70149501Y23102124D01*
X70155908Y23042517D01*
X70206202Y22907672D01*
X70206206Y22907665D01*
X70292452Y22792456D01*
X70292455Y22792453D01*
X70407664Y22706207D01*
X70407671Y22706203D01*
X70542517Y22655909D01*
X70542516Y22655909D01*
X70549444Y22655165D01*
X70602127Y22649500D01*
X72397872Y22649501D01*
X72457483Y22655909D01*
X72592331Y22706204D01*
X72707546Y22792454D01*
X72793796Y22907669D01*
X72844091Y23042517D01*
X72850500Y23102127D01*
X72850499Y24897872D01*
X72844091Y24957483D01*
X72828233Y25000000D01*
X72793797Y25092329D01*
X72793793Y25092336D01*
X72707547Y25207545D01*
X72707544Y25207548D01*
X72592335Y25293794D01*
X72592328Y25293798D01*
X72460917Y25342811D01*
X72404983Y25384682D01*
X72380566Y25450147D01*
X72395418Y25518420D01*
X72416563Y25546668D01*
X72538495Y25668599D01*
X72674035Y25862170D01*
X72773903Y26076337D01*
X72835063Y26304592D01*
X72855659Y26540000D01*
X72835063Y26775408D01*
X72773903Y27003663D01*
X72674035Y27217829D01*
X72619503Y27295710D01*
X72538494Y27411403D01*
X72371402Y27578494D01*
X72371396Y27578499D01*
X72185842Y27708425D01*
X72142217Y27763002D01*
X72135023Y27832500D01*
X72166546Y27894855D01*
X72185842Y27911575D01*
X72228968Y27941772D01*
X72371401Y28041505D01*
X72538495Y28208599D01*
X72674035Y28402170D01*
X72773903Y28616337D01*
X72835063Y28844592D01*
X72855659Y29080000D01*
X72835063Y29315408D01*
X72773903Y29543663D01*
X72674035Y29757829D01*
X72640306Y29806000D01*
X72538494Y29951403D01*
X72371402Y30118494D01*
X72371395Y30118499D01*
X72177834Y30254033D01*
X72177830Y30254035D01*
X72140445Y30271468D01*
X71963663Y30353903D01*
X71963659Y30353904D01*
X71963655Y30353906D01*
X71735413Y30415062D01*
X71735403Y30415064D01*
X71500001Y30435659D01*
X71499999Y30435659D01*
X71264596Y30415064D01*
X71264586Y30415062D01*
X71036344Y30353906D01*
X71036335Y30353902D01*
X70822171Y30254036D01*
X70822169Y30254035D01*
X70628597Y30118495D01*
X70461505Y29951403D01*
X70325965Y29757831D01*
X70325964Y29757829D01*
X70226098Y29543665D01*
X70226094Y29543656D01*
X70164938Y29315414D01*
X70164936Y29315404D01*
X70144341Y29080001D01*
X52409500Y29080001D01*
X52409500Y30466500D01*
X52429185Y30533539D01*
X52481989Y30579294D01*
X52533500Y30590500D01*
X61589579Y30590500D01*
X61589580Y30590501D01*
X61765291Y30625451D01*
X61930810Y30694011D01*
X62079773Y30793545D01*
X62206455Y30920227D01*
X62305989Y31069190D01*
X62374549Y31234709D01*
X62409500Y31410422D01*
X62409500Y31589578D01*
X62374549Y31765291D01*
X62339647Y31849553D01*
X62305992Y31930804D01*
X62305985Y31930817D01*
X62206455Y32079773D01*
X62206452Y32079777D01*
X62079776Y32206453D01*
X62079772Y32206456D01*
X61930816Y32305986D01*
X61930803Y32305993D01*
X61765295Y32374548D01*
X61765283Y32374551D01*
X61589582Y32409500D01*
X61589578Y32409500D01*
X52095712Y32409500D01*
X52095692Y32409501D01*
X52089578Y32409501D01*
X51910422Y32409501D01*
X51910420Y32409501D01*
X51734714Y32374551D01*
X51734704Y32374548D01*
X51569196Y32305993D01*
X51569183Y32305986D01*
X51420228Y32206457D01*
X51387920Y32174148D01*
X51293545Y32079773D01*
X51293542Y32079770D01*
X50920230Y31706458D01*
X50920227Y31706455D01*
X50856885Y31643113D01*
X50793543Y31579772D01*
X50694014Y31430817D01*
X50694009Y31430808D01*
X50625451Y31265293D01*
X50625449Y31265287D01*
X50590499Y31089581D01*
X50590499Y30904309D01*
X50590500Y30904288D01*
X50590500Y25926576D01*
X50570815Y25859537D01*
X50518011Y25813782D01*
X50480384Y25803356D01*
X50320749Y25785370D01*
X50320737Y25785367D01*
X50252415Y25761459D01*
X50211460Y25754500D01*
X49425683Y25754500D01*
X49279927Y25725507D01*
X49279919Y25725505D01*
X49142608Y25668629D01*
X49019035Y25586061D01*
X49019034Y25586060D01*
X48987408Y25554433D01*
X48913941Y25480966D01*
X48913939Y25480964D01*
X47413943Y23980970D01*
X47413942Y23980969D01*
X47331372Y23857393D01*
X47331366Y23857382D01*
X47317850Y23824749D01*
X47305735Y23795500D01*
X47297006Y23774425D01*
X47286889Y23750001D01*
X47274495Y23720081D01*
X47274493Y23720075D01*
X47245499Y23574315D01*
X47245499Y23419575D01*
X47245500Y23419554D01*
X47245500Y8639142D01*
X47225815Y8572103D01*
X47173011Y8526348D01*
X47103853Y8516404D01*
X47040297Y8545429D01*
X47006939Y8591689D01*
X46912363Y8820017D01*
X46778719Y9038103D01*
X46775465Y9041913D01*
X46214114Y8480563D01*
X46213260Y8482626D01*
X46120238Y8621844D01*
X46001844Y8740238D01*
X45862626Y8833260D01*
X45860561Y8834116D01*
X46421912Y9395467D01*
X46418107Y9398716D01*
X46418098Y9398723D01*
X46200015Y9532364D01*
X46200012Y9532366D01*
X45963702Y9630248D01*
X45714988Y9689958D01*
X45714989Y9689958D01*
X45460000Y9710025D01*
X45205010Y9689958D01*
X44956297Y9630248D01*
X44719987Y9532366D01*
X44719984Y9532364D01*
X44501893Y9398718D01*
X44498086Y9395468D01*
X45059438Y8834116D01*
X45057374Y8833260D01*
X44918156Y8740238D01*
X44799762Y8621844D01*
X44706740Y8482626D01*
X44705884Y8480562D01*
X44144532Y9041914D01*
X44141282Y9038107D01*
X44007636Y8820016D01*
X44007634Y8820013D01*
X43909752Y8583703D01*
X43850042Y8334990D01*
X43829975Y8080000D01*
X43850042Y7825011D01*
X43909752Y7576298D01*
X44007634Y7339988D01*
X44007636Y7339985D01*
X44141277Y7121902D01*
X44141284Y7121893D01*
X44144533Y7118088D01*
X44705884Y7679440D01*
X44706740Y7677374D01*
X44799762Y7538156D01*
X44918156Y7419762D01*
X45057374Y7326740D01*
X45059437Y7325886D01*
X44498087Y6764535D01*
X44501897Y6761281D01*
X44719984Y6627637D01*
X44719987Y6627635D01*
X44948311Y6533061D01*
X45002715Y6489220D01*
X45024780Y6422926D01*
X45007501Y6355227D01*
X44956364Y6307616D01*
X44900859Y6294500D01*
X43465683Y6294500D01*
X43319927Y6265507D01*
X43319919Y6265505D01*
X43182608Y6208629D01*
X43059035Y6126061D01*
X43059034Y6126060D01*
X43028975Y6096000D01*
X42953941Y6020966D01*
X42953939Y6020964D01*
X42561681Y5628707D01*
X42500358Y5595222D01*
X42430666Y5600206D01*
X42374733Y5642078D01*
X42350316Y5707542D01*
X42350000Y5716388D01*
X42350000Y6437828D01*
X42349999Y6437845D01*
X42343598Y6497373D01*
X42343596Y6497380D01*
X42293354Y6632087D01*
X42293350Y6632094D01*
X42207190Y6747188D01*
X42207187Y6747191D01*
X42092093Y6833351D01*
X42092086Y6833355D01*
X41957379Y6883597D01*
X41957372Y6883599D01*
X41897844Y6890000D01*
X41250000Y6890000D01*
X41250000Y5973012D01*
X41192993Y6005925D01*
X41065826Y6040000D01*
X40934174Y6040000D01*
X40807007Y6005925D01*
X40750000Y5973012D01*
X40750000Y6890000D01*
X40102155Y6890000D01*
X40042627Y6883599D01*
X40042620Y6883597D01*
X39907913Y6833355D01*
X39907906Y6833351D01*
X39792812Y6747191D01*
X39792809Y6747188D01*
X39706649Y6632094D01*
X39706645Y6632087D01*
X39656403Y6497380D01*
X39656401Y6497373D01*
X39650000Y6437845D01*
X39650000Y5790000D01*
X40566988Y5790000D01*
X40534075Y5732993D01*
X40500000Y5605826D01*
X40500000Y5474174D01*
X40534075Y5347007D01*
X40566988Y5290000D01*
X39650000Y5290000D01*
X39650000Y4642156D01*
X39656401Y4582628D01*
X39656403Y4582621D01*
X39706645Y4447914D01*
X39706649Y4447907D01*
X39792809Y4332813D01*
X39792812Y4332810D01*
X39907906Y4246650D01*
X39907913Y4246646D01*
X40039470Y4197579D01*
X40095403Y4155708D01*
X40119821Y4090244D01*
X40104970Y4021971D01*
X40083819Y3993716D01*
X39961503Y3871400D01*
X39825965Y3677831D01*
X39825964Y3677829D01*
X39726098Y3463665D01*
X39726094Y3463656D01*
X39664938Y3235414D01*
X39664936Y3235404D01*
X39644341Y3000001D01*
X7498708Y3000001D01*
X7388494Y3157403D01*
X7221402Y3324494D01*
X7221396Y3324499D01*
X7035842Y3454425D01*
X6992217Y3509002D01*
X6985023Y3578500D01*
X7016546Y3640855D01*
X7035842Y3657575D01*
X7153575Y3740013D01*
X7221401Y3787505D01*
X7388495Y3954599D01*
X7524035Y4148170D01*
X7623903Y4362337D01*
X7685063Y4590592D01*
X7705659Y4826000D01*
X7685063Y5061408D01*
X7623903Y5289663D01*
X7524035Y5503829D01*
X7518425Y5511842D01*
X7388494Y5697403D01*
X7221402Y5864494D01*
X7221396Y5864499D01*
X7035842Y5994425D01*
X6992217Y6049002D01*
X6985023Y6118500D01*
X7016546Y6180855D01*
X7035842Y6197575D01*
X7088866Y6234703D01*
X7221401Y6327505D01*
X7388495Y6494599D01*
X7524035Y6688170D01*
X7623903Y6902337D01*
X7685063Y7130592D01*
X7705659Y7366000D01*
X7685063Y7601408D01*
X7635377Y7786841D01*
X7623905Y7829656D01*
X7623904Y7829657D01*
X7623903Y7829663D01*
X7524035Y8043829D01*
X7518425Y8051842D01*
X7388494Y8237403D01*
X7221402Y8404494D01*
X7221396Y8404499D01*
X7035842Y8534425D01*
X6992217Y8589002D01*
X6985023Y8658500D01*
X7016546Y8720855D01*
X7035842Y8737575D01*
X7153575Y8820013D01*
X7221401Y8867505D01*
X7388495Y9034599D01*
X7524035Y9228170D01*
X7623903Y9442337D01*
X7685063Y9670592D01*
X7705659Y9906000D01*
X7685063Y10141408D01*
X7623903Y10369663D01*
X7524035Y10583829D01*
X7500150Y10617940D01*
X7477824Y10684144D01*
X7494834Y10751912D01*
X7515691Y10776290D01*
X7514700Y10777281D01*
X7548510Y10811091D01*
X7606411Y10868992D01*
X11834567Y15097150D01*
X11895888Y15130633D01*
X11908345Y15132685D01*
X11952255Y15137632D01*
X12122522Y15197211D01*
X12275262Y15293184D01*
X12402816Y15420738D01*
X12498789Y15573478D01*
X12558368Y15743745D01*
X12570286Y15849522D01*
X12578565Y15922997D01*
X12578565Y15923004D01*
X12558369Y16102250D01*
X12558368Y16102255D01*
X12534262Y16171145D01*
X12498789Y16272522D01*
X12490717Y16285368D01*
X12402815Y16425263D01*
X12275262Y16552816D01*
X12130930Y16643506D01*
X12084639Y16695841D01*
X12073991Y16764895D01*
X12102366Y16828743D01*
X12160756Y16867115D01*
X12196902Y16872500D01*
X15458328Y16872500D01*
X15524299Y16853495D01*
X15650478Y16774211D01*
X15677102Y16764895D01*
X15820745Y16714632D01*
X15820750Y16714631D01*
X15999996Y16694435D01*
X16000000Y16694435D01*
X16000004Y16694435D01*
X16179249Y16714631D01*
X16179252Y16714632D01*
X16179255Y16714632D01*
X16349522Y16774211D01*
X16502262Y16870184D01*
X16629816Y16997738D01*
X16690536Y17094375D01*
X16742869Y17140665D01*
X16811922Y17151314D01*
X16875771Y17122939D01*
X16883210Y17116083D01*
X18899301Y15099992D01*
X18986704Y15012589D01*
X18986706Y15012587D01*
X18986708Y15012586D01*
X19089468Y14943924D01*
X19089470Y14943923D01*
X19089479Y14943917D01*
X19114484Y14933560D01*
X19136783Y14924323D01*
X19161389Y14914131D01*
X19203678Y14896614D01*
X19324904Y14872501D01*
X19324908Y14872500D01*
X19324909Y14872500D01*
X19448516Y14872500D01*
X23453554Y14872500D01*
X23520593Y14852815D01*
X23566348Y14800011D01*
X23576292Y14730853D01*
X23547267Y14667297D01*
X23519527Y14643508D01*
X23512149Y14638872D01*
X23497737Y14629816D01*
X23370184Y14502263D01*
X23274211Y14349524D01*
X23214631Y14179255D01*
X23214630Y14179250D01*
X23194435Y14000004D01*
X23194435Y13999997D01*
X23214630Y13820751D01*
X23214631Y13820746D01*
X23274211Y13650476D01*
X23353493Y13524302D01*
X23372500Y13458329D01*
X23372500Y8041672D01*
X23353494Y7975700D01*
X23274211Y7849524D01*
X23214631Y7679255D01*
X23214630Y7679250D01*
X23194435Y7500004D01*
X23194435Y7499997D01*
X23214630Y7320751D01*
X23214631Y7320746D01*
X23274211Y7150477D01*
X23292172Y7121893D01*
X23370184Y6997738D01*
X23497738Y6870184D01*
X23560882Y6830508D01*
X23644487Y6777975D01*
X23650478Y6774211D01*
X23774034Y6730977D01*
X23820745Y6714632D01*
X23820750Y6714631D01*
X23999996Y6694435D01*
X24000000Y6694435D01*
X24000004Y6694435D01*
X24179249Y6714631D01*
X24179252Y6714632D01*
X24179255Y6714632D01*
X24349522Y6774211D01*
X24502262Y6870184D01*
X24629816Y6997738D01*
X24725789Y7150478D01*
X24785368Y7320745D01*
X24785369Y7320751D01*
X24805565Y7499997D01*
X24805565Y7500004D01*
X24785369Y7679250D01*
X24785368Y7679255D01*
X24747722Y7786841D01*
X24744161Y7856620D01*
X24778890Y7917248D01*
X24840883Y7949475D01*
X24910458Y7943070D01*
X24952445Y7915477D01*
X24997738Y7870184D01*
X25150478Y7774211D01*
X25286980Y7726447D01*
X25320745Y7714632D01*
X25320750Y7714631D01*
X25499996Y7694435D01*
X25500000Y7694435D01*
X25500004Y7694435D01*
X25679249Y7714631D01*
X25679252Y7714632D01*
X25679255Y7714632D01*
X25849522Y7774211D01*
X26002262Y7870184D01*
X26129816Y7997738D01*
X26225789Y8150478D01*
X26285368Y8320745D01*
X26285369Y8320751D01*
X26305565Y8499997D01*
X26305565Y8500004D01*
X26285369Y8679250D01*
X26285368Y8679255D01*
X26284058Y8682998D01*
X26225789Y8849522D01*
X26214491Y8867502D01*
X26146506Y8975700D01*
X26127500Y9041672D01*
X26127500Y14061806D01*
X26103386Y14183030D01*
X26103385Y14183031D01*
X26103385Y14183035D01*
X26103383Y14183040D01*
X26056086Y14297227D01*
X26056079Y14297240D01*
X25987412Y14400007D01*
X25987411Y14400008D01*
X25900008Y14487411D01*
X24825852Y15561567D01*
X24792367Y15622890D01*
X24790314Y15635352D01*
X24785368Y15679255D01*
X24725789Y15849522D01*
X24720838Y15857401D01*
X24629815Y16002263D01*
X24502262Y16129816D01*
X24349523Y16225789D01*
X24179254Y16285369D01*
X24179249Y16285370D01*
X24000004Y16305565D01*
X23999996Y16305565D01*
X23820750Y16285370D01*
X23820745Y16285369D01*
X23650476Y16225789D01*
X23524300Y16146506D01*
X23458328Y16127500D01*
X19697993Y16127500D01*
X19630954Y16147185D01*
X19610312Y16163819D01*
X19113312Y16660819D01*
X19079827Y16722142D01*
X19084811Y16791834D01*
X19126683Y16847767D01*
X19192147Y16872184D01*
X19200993Y16872500D01*
X21458328Y16872500D01*
X21524299Y16853495D01*
X21650478Y16774211D01*
X21677102Y16764895D01*
X21820745Y16714632D01*
X21820750Y16714631D01*
X21999996Y16694435D01*
X22000000Y16694435D01*
X22000004Y16694435D01*
X22179249Y16714631D01*
X22179252Y16714632D01*
X22179255Y16714632D01*
X22349522Y16774211D01*
X22502262Y16870184D01*
X22629816Y16997738D01*
X22725789Y17150478D01*
X22785368Y17320745D01*
X22785369Y17320751D01*
X22805565Y17499997D01*
X22805565Y17500004D01*
X22785369Y17679250D01*
X22785368Y17679255D01*
X22751375Y17776400D01*
X22725789Y17849522D01*
X22629816Y18002262D01*
X22502262Y18129816D01*
X22475700Y18146506D01*
X22349523Y18225789D01*
X22179254Y18285369D01*
X22179249Y18285370D01*
X22000004Y18305565D01*
X21999996Y18305565D01*
X21820750Y18285370D01*
X21820745Y18285369D01*
X21650476Y18225789D01*
X21524300Y18146506D01*
X21458328Y18127500D01*
X18811281Y18127500D01*
X18744242Y18147185D01*
X18723600Y18163819D01*
X14773012Y22114408D01*
X14773008Y22114411D01*
X14741407Y22135526D01*
X14741405Y22135527D01*
X14741405Y22135528D01*
X14670238Y22183080D01*
X14670226Y22183087D01*
X14636785Y22196938D01*
X14556035Y22230386D01*
X14556027Y22230388D01*
X14434807Y22254500D01*
X14434803Y22254500D01*
X7972803Y22254500D01*
X7849196Y22254500D01*
X7849188Y22254500D01*
X7833940Y22251467D01*
X7764349Y22257697D01*
X7709173Y22300562D01*
X7685931Y22366453D01*
X7686225Y22383883D01*
X7705659Y22606000D01*
X7685063Y22841408D01*
X7623903Y23069663D01*
X7524035Y23283829D01*
X7518425Y23291842D01*
X7388494Y23477403D01*
X7221402Y23644494D01*
X7221396Y23644499D01*
X7035842Y23774425D01*
X6992217Y23829002D01*
X6985023Y23898500D01*
X7016546Y23960855D01*
X7035842Y23977575D01*
X7071099Y24002262D01*
X7221401Y24107505D01*
X7388495Y24274599D01*
X7524035Y24468170D01*
X7623903Y24682337D01*
X7685063Y24910592D01*
X7699387Y25074315D01*
X14745499Y25074315D01*
X14745499Y24919575D01*
X14745500Y24919554D01*
X14745500Y23079448D01*
X14745499Y23079422D01*
X14745499Y22925687D01*
X14762264Y22841409D01*
X14762264Y22841407D01*
X14774493Y22779927D01*
X14774495Y22779919D01*
X14788753Y22745498D01*
X14831366Y22642619D01*
X14831372Y22642608D01*
X14913942Y22519032D01*
X14913943Y22519031D01*
X17909600Y19523376D01*
X17909621Y19523353D01*
X18019031Y19413943D01*
X18084523Y19370183D01*
X18142606Y19331373D01*
X18142607Y19331373D01*
X18142611Y19331370D01*
X18202931Y19306385D01*
X18279920Y19274495D01*
X18279922Y19274495D01*
X18279924Y19274494D01*
X18304104Y19269685D01*
X18304110Y19269684D01*
X18425686Y19245499D01*
X18425688Y19245499D01*
X18580426Y19245499D01*
X18580446Y19245500D01*
X21211460Y19245500D01*
X21252415Y19238541D01*
X21320737Y19214634D01*
X21320743Y19214633D01*
X21320745Y19214632D01*
X21320746Y19214632D01*
X21320750Y19214631D01*
X21499996Y19194435D01*
X21500000Y19194435D01*
X21500004Y19194435D01*
X21679249Y19214631D01*
X21679252Y19214632D01*
X21679255Y19214632D01*
X21849522Y19274211D01*
X22002262Y19370184D01*
X22129816Y19497738D01*
X22225789Y19650478D01*
X22285368Y19820745D01*
X22286477Y19830587D01*
X22305565Y19999997D01*
X22305565Y20000004D01*
X22288342Y20152864D01*
X22300397Y20221685D01*
X22345590Y20271741D01*
X22349519Y20274211D01*
X22349522Y20274211D01*
X22502262Y20370184D01*
X22629816Y20497738D01*
X22725789Y20650478D01*
X22785368Y20820745D01*
X22785369Y20820751D01*
X22805565Y20999997D01*
X22805565Y21000004D01*
X22785369Y21179250D01*
X22785368Y21179255D01*
X22764100Y21240035D01*
X22725789Y21349522D01*
X22687525Y21410418D01*
X22646506Y21475700D01*
X22627500Y21541672D01*
X22627500Y23958329D01*
X22646507Y24024302D01*
X22649991Y24029847D01*
X22725789Y24150478D01*
X22725793Y24150491D01*
X22726771Y24152518D01*
X22727759Y24153613D01*
X22729495Y24156375D01*
X22729978Y24156072D01*
X22773591Y24204381D01*
X22841016Y24222698D01*
X22907642Y24201655D01*
X22926176Y24186405D01*
X23424146Y23688435D01*
X23457631Y23627112D01*
X23459685Y23614639D01*
X23464630Y23570751D01*
X23524210Y23400479D01*
X23597505Y23283831D01*
X23620184Y23247738D01*
X23747738Y23120184D01*
X23828142Y23069663D01*
X23871342Y23042518D01*
X23900478Y23024211D01*
X24070745Y22964632D01*
X24114635Y22959687D01*
X24179048Y22932622D01*
X24188433Y22924148D01*
X29336181Y17776400D01*
X29369666Y17715077D01*
X29372500Y17688719D01*
X29372500Y9041672D01*
X29353494Y8975700D01*
X29274211Y8849524D01*
X29214631Y8679255D01*
X29214630Y8679250D01*
X29194435Y8500004D01*
X29194435Y8499997D01*
X29214630Y8320751D01*
X29214631Y8320746D01*
X29274211Y8150477D01*
X29318495Y8080000D01*
X29370184Y7997738D01*
X29497738Y7870184D01*
X29650478Y7774211D01*
X29786980Y7726447D01*
X29820745Y7714632D01*
X29820750Y7714631D01*
X29999996Y7694435D01*
X30000000Y7694435D01*
X30000004Y7694435D01*
X30179249Y7714631D01*
X30179252Y7714632D01*
X30179255Y7714632D01*
X30349522Y7774211D01*
X30502262Y7870184D01*
X30629816Y7997738D01*
X30725789Y8150478D01*
X30785368Y8320745D01*
X30785369Y8320751D01*
X30805565Y8499997D01*
X30805565Y8500004D01*
X30785369Y8679250D01*
X30785368Y8679255D01*
X30784058Y8682998D01*
X30725789Y8849522D01*
X30714491Y8867502D01*
X30646506Y8975700D01*
X30627500Y9041672D01*
X30627500Y18061798D01*
X30627500Y18061803D01*
X30626771Y18065470D01*
X30626769Y18065482D01*
X30626769Y18065483D01*
X30603387Y18183029D01*
X30603386Y18183035D01*
X30569937Y18263785D01*
X30556083Y18297233D01*
X30487414Y18400004D01*
X30487413Y18400006D01*
X30487411Y18400008D01*
X30400008Y18487411D01*
X25075852Y23811567D01*
X25042367Y23872890D01*
X25040314Y23885352D01*
X25035368Y23929255D01*
X24975789Y24099522D01*
X24879816Y24252262D01*
X24752262Y24379816D01*
X24718212Y24401211D01*
X24599521Y24475790D01*
X24429249Y24535370D01*
X24385361Y24540315D01*
X24320947Y24567383D01*
X24311565Y24575854D01*
X23273011Y25614409D01*
X23273006Y25614413D01*
X23230806Y25642609D01*
X23230804Y25642611D01*
X23170233Y25683083D01*
X23170226Y25683087D01*
X23136785Y25696938D01*
X23056035Y25730386D01*
X23056027Y25730388D01*
X22934807Y25754500D01*
X22934803Y25754500D01*
X17620886Y25754500D01*
X17553847Y25774185D01*
X17508092Y25826989D01*
X17498148Y25896147D01*
X17527173Y25959703D01*
X17533205Y25966181D01*
X17967025Y26400001D01*
X28394500Y26400001D01*
X28394500Y24899998D01*
X28399644Y24828060D01*
X28427172Y24734311D01*
X28439127Y24693597D01*
X28440182Y24690006D01*
X28517967Y24568970D01*
X28517971Y24568966D01*
X28620856Y24479815D01*
X28626706Y24474746D01*
X28700014Y24441268D01*
X28752815Y24395515D01*
X28772500Y24328476D01*
X28772500Y23865703D01*
X28765542Y23824749D01*
X28714632Y23679258D01*
X28714630Y23679250D01*
X28694435Y23500004D01*
X28694435Y23499997D01*
X28714630Y23320751D01*
X28714631Y23320746D01*
X28774211Y23150477D01*
X28842047Y23042518D01*
X28870184Y22997738D01*
X28997738Y22870184D01*
X29088080Y22813418D01*
X29141393Y22779919D01*
X29150478Y22774211D01*
X29232535Y22745498D01*
X29320745Y22714632D01*
X29320750Y22714631D01*
X29499996Y22694435D01*
X29500000Y22694435D01*
X29500004Y22694435D01*
X29679249Y22714631D01*
X29679252Y22714632D01*
X29679255Y22714632D01*
X29849522Y22774211D01*
X30002262Y22870184D01*
X30129816Y22997738D01*
X30145007Y23021916D01*
X30197339Y23068204D01*
X30266393Y23078854D01*
X30330242Y23050479D01*
X30354990Y23021918D01*
X30370184Y22997738D01*
X30497738Y22870184D01*
X30588080Y22813418D01*
X30641393Y22779919D01*
X30650478Y22774211D01*
X30732535Y22745498D01*
X30820745Y22714632D01*
X30820750Y22714631D01*
X30999996Y22694435D01*
X31000000Y22694435D01*
X31000004Y22694435D01*
X31179249Y22714631D01*
X31179252Y22714632D01*
X31179255Y22714632D01*
X31349522Y22774211D01*
X31502262Y22870184D01*
X31629816Y22997738D01*
X31725789Y23150478D01*
X31785368Y23320745D01*
X31789592Y23358230D01*
X31805565Y23499997D01*
X31805565Y23500004D01*
X31785369Y23679250D01*
X31785368Y23679255D01*
X31758288Y23756645D01*
X31725789Y23849522D01*
X31724104Y23852203D01*
X31657421Y23958329D01*
X31629816Y24002262D01*
X31513818Y24118260D01*
X31480334Y24179583D01*
X31477500Y24205941D01*
X31477500Y24323135D01*
X31497185Y24390174D01*
X31549989Y24435929D01*
X31553755Y24437334D01*
X31559985Y24440180D01*
X31559992Y24440181D01*
X31681032Y24517969D01*
X31775254Y24626706D01*
X31835024Y24757584D01*
X31855500Y24900000D01*
X31855500Y26000004D01*
X35694435Y26000004D01*
X35694435Y25999997D01*
X35714630Y25820751D01*
X35714631Y25820746D01*
X35774211Y25650477D01*
X35814688Y25586059D01*
X35870184Y25497738D01*
X35997738Y25370184D01*
X36061934Y25329847D01*
X36119308Y25293796D01*
X36150478Y25274211D01*
X36252417Y25238541D01*
X36320745Y25214632D01*
X36320750Y25214631D01*
X36499996Y25194435D01*
X36500000Y25194435D01*
X36500004Y25194435D01*
X36679249Y25214631D01*
X36679251Y25214632D01*
X36679255Y25214632D01*
X36679258Y25214634D01*
X36679262Y25214634D01*
X36747585Y25238541D01*
X36788540Y25245500D01*
X40136113Y25245500D01*
X40203152Y25225815D01*
X40223794Y25209181D01*
X43709181Y21723795D01*
X43742666Y21662472D01*
X43745500Y21636114D01*
X43745500Y19788541D01*
X43738542Y19747586D01*
X43714631Y19679255D01*
X43714630Y19679250D01*
X43694435Y19500004D01*
X43694435Y19499997D01*
X43714630Y19320751D01*
X43714631Y19320746D01*
X43774211Y19150477D01*
X43851479Y19027507D01*
X43870184Y18997738D01*
X43997738Y18870184D01*
X44150478Y18774211D01*
X44320745Y18714632D01*
X44320750Y18714631D01*
X44499996Y18694435D01*
X44500000Y18694435D01*
X44500004Y18694435D01*
X44679249Y18714631D01*
X44679252Y18714632D01*
X44679255Y18714632D01*
X44849522Y18774211D01*
X45002262Y18870184D01*
X45129816Y18997738D01*
X45225789Y19150478D01*
X45285368Y19320745D01*
X45286565Y19331370D01*
X45305565Y19499997D01*
X45305565Y19500004D01*
X45285369Y19679250D01*
X45285368Y19679255D01*
X45261458Y19747586D01*
X45254500Y19788541D01*
X45254500Y22074313D01*
X45254499Y22074317D01*
X45240967Y22142345D01*
X45225505Y22220080D01*
X45168629Y22357390D01*
X45162573Y22366453D01*
X45086060Y22480965D01*
X45086054Y22480972D01*
X44976647Y22590379D01*
X44976624Y22590400D01*
X40980969Y26586057D01*
X40980968Y26586058D01*
X40939773Y26613583D01*
X40857389Y26668630D01*
X40857386Y26668632D01*
X40857385Y26668632D01*
X40776955Y26701947D01*
X40720081Y26725505D01*
X40714554Y26726605D01*
X40692294Y26731032D01*
X40633303Y26742767D01*
X40574313Y26754501D01*
X40574312Y26754501D01*
X40425688Y26754501D01*
X40419574Y26754501D01*
X40419554Y26754500D01*
X36788540Y26754500D01*
X36747585Y26761459D01*
X36679262Y26785367D01*
X36679249Y26785370D01*
X36500004Y26805565D01*
X36499996Y26805565D01*
X36320750Y26785370D01*
X36320745Y26785369D01*
X36150476Y26725789D01*
X35997737Y26629816D01*
X35870184Y26502263D01*
X35774211Y26349524D01*
X35714631Y26179255D01*
X35714630Y26179250D01*
X35694435Y26000004D01*
X31855500Y26000004D01*
X31855500Y26400000D01*
X31850355Y26471940D01*
X31843143Y26496500D01*
X31838553Y26512132D01*
X31809819Y26609992D01*
X31732031Y26731032D01*
X31723365Y26738541D01*
X31623299Y26825250D01*
X31623297Y26825252D01*
X31623294Y26825254D01*
X31623290Y26825256D01*
X31492419Y26885024D01*
X31492414Y26885025D01*
X31350000Y26905500D01*
X30350000Y26905500D01*
X30349984Y26905500D01*
X30286481Y26901494D01*
X30275613Y26898501D01*
X30239889Y26888660D01*
X30189316Y26885470D01*
X30050000Y26905500D01*
X28900000Y26905500D01*
X28899997Y26905500D01*
X28828059Y26900356D01*
X28690005Y26859818D01*
X28568969Y26782033D01*
X28568965Y26782029D01*
X28474750Y26673300D01*
X28474744Y26673291D01*
X28414976Y26542420D01*
X28414975Y26542415D01*
X28394500Y26400001D01*
X17967025Y26400001D01*
X18276205Y26709181D01*
X18337528Y26742666D01*
X18363886Y26745500D01*
X20711460Y26745500D01*
X20752415Y26738541D01*
X20820737Y26714634D01*
X20820743Y26714633D01*
X20820745Y26714632D01*
X20820746Y26714632D01*
X20820750Y26714631D01*
X20999996Y26694435D01*
X21000000Y26694435D01*
X21000004Y26694435D01*
X21179249Y26714631D01*
X21179252Y26714632D01*
X21179255Y26714632D01*
X21349522Y26774211D01*
X21502262Y26870184D01*
X21629816Y26997738D01*
X21725789Y27150478D01*
X21785368Y27320745D01*
X21785369Y27320751D01*
X21805565Y27499997D01*
X21805565Y27500004D01*
X21785369Y27679250D01*
X21785368Y27679255D01*
X21769310Y27725145D01*
X21725789Y27849522D01*
X21690323Y27905965D01*
X21632561Y27997893D01*
X21629816Y28002262D01*
X21502262Y28129816D01*
X21463086Y28154432D01*
X21349523Y28225789D01*
X21179254Y28285369D01*
X21179249Y28285370D01*
X21000004Y28305565D01*
X20999996Y28305565D01*
X20820750Y28285370D01*
X20820737Y28285367D01*
X20752415Y28261459D01*
X20711460Y28254500D01*
X17925683Y28254500D01*
X17779927Y28225507D01*
X17779919Y28225505D01*
X17642608Y28168629D01*
X17519035Y28086061D01*
X17519034Y28086060D01*
X17474482Y28041507D01*
X17413941Y27980966D01*
X17413939Y27980964D01*
X16181357Y26748384D01*
X16155869Y26730295D01*
X16156373Y26729493D01*
X15997737Y26629816D01*
X15870184Y26502263D01*
X15770507Y26343627D01*
X15769705Y26344131D01*
X15751615Y26318641D01*
X14913943Y25480970D01*
X14913942Y25480969D01*
X14831368Y25357386D01*
X14807079Y25298745D01*
X14805029Y25293796D01*
X14796917Y25274212D01*
X14785025Y25245501D01*
X14774495Y25220081D01*
X14774493Y25220075D01*
X14745499Y25074315D01*
X7699387Y25074315D01*
X7705659Y25146000D01*
X7685063Y25381408D01*
X7623903Y25609663D01*
X7524035Y25823829D01*
X7522750Y25825665D01*
X7388494Y26017403D01*
X7221402Y26184494D01*
X7221395Y26184499D01*
X7199257Y26200000D01*
X7182521Y26211719D01*
X7027834Y26320033D01*
X7027830Y26320035D01*
X6964595Y26349522D01*
X6813663Y26419903D01*
X6813659Y26419904D01*
X6813655Y26419906D01*
X6585413Y26481062D01*
X6585403Y26481064D01*
X6350001Y26501659D01*
X6349999Y26501659D01*
X6114596Y26481064D01*
X6114586Y26481062D01*
X5886344Y26419906D01*
X5886335Y26419902D01*
X5672171Y26320036D01*
X5672169Y26320035D01*
X5478600Y26184497D01*
X5356673Y26062570D01*
X5295350Y26029086D01*
X5225658Y26034070D01*
X5169725Y26075942D01*
X5152810Y26106919D01*
X5103797Y26238329D01*
X5103793Y26238336D01*
X5017547Y26353545D01*
X5017544Y26353548D01*
X4902335Y26439794D01*
X4902328Y26439798D01*
X4767482Y26490092D01*
X4767483Y26490092D01*
X4707883Y26496499D01*
X4707881Y26496500D01*
X4707873Y26496500D01*
X4707864Y26496500D01*
X2912129Y26496500D01*
X2912123Y26496499D01*
X2852516Y26490092D01*
X2717671Y26439798D01*
X2717664Y26439794D01*
X2602455Y26353548D01*
X2602452Y26353545D01*
X2516206Y26238336D01*
X2516202Y26238329D01*
X2465908Y26103483D01*
X2459501Y26043884D01*
X2459500Y26043865D01*
X2459500Y24248130D01*
X2459501Y24248124D01*
X2465908Y24188517D01*
X2516202Y24053672D01*
X2516206Y24053665D01*
X2602452Y23938456D01*
X2602455Y23938453D01*
X2717664Y23852207D01*
X2717671Y23852203D01*
X2849081Y23803190D01*
X2905015Y23761319D01*
X2929432Y23695855D01*
X2914580Y23627582D01*
X2893430Y23599327D01*
X2771503Y23477400D01*
X2635965Y23283831D01*
X2635964Y23283829D01*
X2536098Y23069665D01*
X2536094Y23069656D01*
X2474938Y22841414D01*
X2474937Y22841407D01*
X2454341Y22606001D01*
X500500Y22606001D01*
X500500Y28956000D01*
X1925975Y28956000D01*
X1946042Y28701011D01*
X2005752Y28452298D01*
X2103634Y28215988D01*
X2103636Y28215985D01*
X2237277Y27997902D01*
X2237284Y27997893D01*
X2240533Y27994088D01*
X2801884Y28555440D01*
X2802740Y28553374D01*
X2895762Y28414156D01*
X3014156Y28295762D01*
X3153374Y28202740D01*
X3155437Y28201886D01*
X2594087Y27640535D01*
X2597897Y27637281D01*
X2815984Y27503637D01*
X2815987Y27503635D01*
X3052297Y27405753D01*
X3301011Y27346043D01*
X3301010Y27346043D01*
X3556000Y27325976D01*
X3810989Y27346043D01*
X4059702Y27405753D01*
X4296012Y27503635D01*
X4296015Y27503637D01*
X4514095Y27637276D01*
X4514110Y27637287D01*
X4517911Y27640534D01*
X4517911Y27640536D01*
X3956562Y28201886D01*
X3958626Y28202740D01*
X4097844Y28295762D01*
X4216238Y28414156D01*
X4309260Y28553374D01*
X4310114Y28555439D01*
X4871464Y27994089D01*
X4871466Y27994089D01*
X4874713Y27997890D01*
X4874724Y27997905D01*
X5008363Y28215985D01*
X5008365Y28215988D01*
X5106247Y28452298D01*
X5165957Y28701011D01*
X5186024Y28956000D01*
X7005975Y28956000D01*
X7026042Y28701011D01*
X7085752Y28452298D01*
X7183634Y28215988D01*
X7183636Y28215985D01*
X7317277Y27997902D01*
X7317284Y27997893D01*
X7320533Y27994088D01*
X7881884Y28555440D01*
X7882740Y28553374D01*
X7975762Y28414156D01*
X8094156Y28295762D01*
X8233374Y28202740D01*
X8235437Y28201886D01*
X7674087Y27640535D01*
X7677897Y27637281D01*
X7895984Y27503637D01*
X7895987Y27503635D01*
X8132297Y27405753D01*
X8381011Y27346043D01*
X8381010Y27346043D01*
X8636000Y27325976D01*
X8890989Y27346043D01*
X9139702Y27405753D01*
X9376012Y27503635D01*
X9376015Y27503637D01*
X9594095Y27637276D01*
X9594110Y27637287D01*
X9597911Y27640534D01*
X9597911Y27640536D01*
X9036562Y28201886D01*
X9038626Y28202740D01*
X9177844Y28295762D01*
X9296238Y28414156D01*
X9389260Y28553374D01*
X9390114Y28555438D01*
X9951464Y27994089D01*
X9951466Y27994089D01*
X9954713Y27997890D01*
X9954724Y27997905D01*
X10088363Y28215985D01*
X10088365Y28215988D01*
X10186247Y28452298D01*
X10245957Y28701011D01*
X10266024Y28956000D01*
X10245957Y29210990D01*
X10186247Y29459703D01*
X10088365Y29696013D01*
X10088363Y29696016D01*
X9954719Y29914103D01*
X9951465Y29917913D01*
X9390114Y29356563D01*
X9389260Y29358626D01*
X9296238Y29497844D01*
X9177844Y29616238D01*
X9038626Y29709260D01*
X9036561Y29710116D01*
X9597912Y30271467D01*
X9594107Y30274716D01*
X9594098Y30274723D01*
X9376015Y30408364D01*
X9376012Y30408366D01*
X9139702Y30506248D01*
X8890988Y30565958D01*
X8890989Y30565958D01*
X8636000Y30586025D01*
X8381010Y30565958D01*
X8132297Y30506248D01*
X7895987Y30408366D01*
X7895984Y30408364D01*
X7677893Y30274718D01*
X7674086Y30271468D01*
X8235438Y29710116D01*
X8233374Y29709260D01*
X8094156Y29616238D01*
X7975762Y29497844D01*
X7882740Y29358626D01*
X7881884Y29356562D01*
X7320532Y29917914D01*
X7317282Y29914107D01*
X7183636Y29696016D01*
X7183634Y29696013D01*
X7085752Y29459703D01*
X7026042Y29210990D01*
X7005975Y28956000D01*
X5186024Y28956000D01*
X5165957Y29210990D01*
X5106247Y29459703D01*
X5008365Y29696013D01*
X5008363Y29696016D01*
X4874719Y29914103D01*
X4871465Y29917913D01*
X4310114Y29356563D01*
X4309260Y29358626D01*
X4216238Y29497844D01*
X4097844Y29616238D01*
X3958626Y29709260D01*
X3956561Y29710116D01*
X4517912Y30271467D01*
X4514107Y30274716D01*
X4514098Y30274723D01*
X4296015Y30408364D01*
X4296012Y30408366D01*
X4059702Y30506248D01*
X3810988Y30565958D01*
X3810989Y30565958D01*
X3556000Y30586025D01*
X3301010Y30565958D01*
X3052297Y30506248D01*
X2815987Y30408366D01*
X2815984Y30408364D01*
X2597893Y30274718D01*
X2594086Y30271468D01*
X3155438Y29710116D01*
X3153374Y29709260D01*
X3014156Y29616238D01*
X2895762Y29497844D01*
X2802740Y29358626D01*
X2801884Y29356562D01*
X2240532Y29917914D01*
X2237282Y29914107D01*
X2103636Y29696016D01*
X2103634Y29696013D01*
X2005752Y29459703D01*
X1946042Y29210990D01*
X1925975Y28956000D01*
X500500Y28956000D01*
X500500Y31496000D01*
X4566284Y31496000D01*
X4585116Y31256705D01*
X4641155Y31023289D01*
X4641158Y31023281D01*
X4733010Y30801527D01*
X4733012Y30801524D01*
X4852684Y30606238D01*
X5418421Y31171976D01*
X5431359Y31140742D01*
X5513437Y31017903D01*
X5617903Y30913437D01*
X5740742Y30831359D01*
X5771974Y30818423D01*
X5206236Y30252686D01*
X5401523Y30133013D01*
X5401526Y30133011D01*
X5623280Y30041159D01*
X5623288Y30041156D01*
X5856704Y29985117D01*
X6096000Y29966285D01*
X6335295Y29985117D01*
X6568711Y30041156D01*
X6568719Y30041159D01*
X6790473Y30133011D01*
X6790476Y30133013D01*
X6985762Y30252685D01*
X6985762Y30252686D01*
X6420025Y30818422D01*
X6451258Y30831359D01*
X6574097Y30913437D01*
X6678563Y31017903D01*
X6760641Y31140742D01*
X6773577Y31171975D01*
X7339314Y30606238D01*
X7339315Y30606238D01*
X7458987Y30801524D01*
X7458989Y30801527D01*
X7550841Y31023281D01*
X7550844Y31023289D01*
X7606883Y31256705D01*
X7625715Y31496000D01*
X7606883Y31735296D01*
X7550844Y31968712D01*
X7550841Y31968720D01*
X7458989Y32190474D01*
X7458987Y32190477D01*
X7339314Y32385764D01*
X6773577Y31820027D01*
X6760641Y31851258D01*
X6678563Y31974097D01*
X6574097Y32078563D01*
X6451258Y32160641D01*
X6420025Y32173579D01*
X6985762Y32739316D01*
X6790476Y32858988D01*
X6790473Y32858990D01*
X6568719Y32950842D01*
X6568711Y32950845D01*
X6335295Y33006884D01*
X6096000Y33025716D01*
X5856704Y33006884D01*
X5623288Y32950845D01*
X5623280Y32950842D01*
X5401526Y32858990D01*
X5401523Y32858988D01*
X5206236Y32739316D01*
X5771974Y32173579D01*
X5740742Y32160641D01*
X5617903Y32078563D01*
X5513437Y31974097D01*
X5431359Y31851258D01*
X5418422Y31820026D01*
X4852684Y32385764D01*
X4733012Y32190477D01*
X4733010Y32190474D01*
X4641158Y31968720D01*
X4641155Y31968712D01*
X4585116Y31735296D01*
X4566284Y31496000D01*
X500500Y31496000D01*
X500500Y34036000D01*
X1925975Y34036000D01*
X1946042Y33781011D01*
X2005752Y33532298D01*
X2103634Y33295988D01*
X2103636Y33295985D01*
X2237277Y33077902D01*
X2237284Y33077893D01*
X2240533Y33074088D01*
X2801884Y33635440D01*
X2802740Y33633374D01*
X2895762Y33494156D01*
X3014156Y33375762D01*
X3153374Y33282740D01*
X3155437Y33281886D01*
X2594087Y32720535D01*
X2597897Y32717281D01*
X2815984Y32583637D01*
X2815987Y32583635D01*
X3052297Y32485753D01*
X3301011Y32426043D01*
X3301010Y32426043D01*
X3556000Y32405976D01*
X3810989Y32426043D01*
X4059702Y32485753D01*
X4296012Y32583635D01*
X4296015Y32583637D01*
X4514095Y32717276D01*
X4514110Y32717287D01*
X4517911Y32720534D01*
X4517911Y32720536D01*
X3956562Y33281886D01*
X3958626Y33282740D01*
X4097844Y33375762D01*
X4216238Y33494156D01*
X4309260Y33633374D01*
X4310114Y33635439D01*
X4871464Y33074089D01*
X4871466Y33074089D01*
X4874713Y33077890D01*
X4874724Y33077905D01*
X5008363Y33295985D01*
X5008365Y33295988D01*
X5106247Y33532298D01*
X5165957Y33781011D01*
X5186024Y34036000D01*
X7005975Y34036000D01*
X7026042Y33781011D01*
X7085752Y33532298D01*
X7183634Y33295988D01*
X7183636Y33295985D01*
X7317277Y33077902D01*
X7317284Y33077893D01*
X7320533Y33074088D01*
X7881884Y33635440D01*
X7882740Y33633374D01*
X7975762Y33494156D01*
X8094156Y33375762D01*
X8233374Y33282740D01*
X8235437Y33281886D01*
X7674087Y32720535D01*
X7677897Y32717281D01*
X7895984Y32583637D01*
X7895987Y32583635D01*
X8132297Y32485753D01*
X8381011Y32426043D01*
X8381010Y32426043D01*
X8636000Y32405976D01*
X8890989Y32426043D01*
X9139702Y32485753D01*
X9376012Y32583635D01*
X9376015Y32583637D01*
X9594095Y32717276D01*
X9594110Y32717287D01*
X9597911Y32720534D01*
X9597911Y32720536D01*
X9318443Y33000004D01*
X26694435Y33000004D01*
X26694435Y32999997D01*
X26714630Y32820751D01*
X26714631Y32820746D01*
X26774211Y32650477D01*
X26816210Y32583637D01*
X26870184Y32497738D01*
X26997738Y32370184D01*
X27150478Y32274211D01*
X27320745Y32214632D01*
X27364635Y32209687D01*
X27429048Y32182622D01*
X27438433Y32174148D01*
X27512589Y32099992D01*
X27599992Y32012589D01*
X27599994Y32012587D01*
X27599996Y32012586D01*
X27702756Y31943924D01*
X27702758Y31943923D01*
X27702767Y31943917D01*
X27727772Y31933560D01*
X27750071Y31924323D01*
X27792254Y31906851D01*
X27816966Y31896614D01*
X27938192Y31872501D01*
X27938196Y31872500D01*
X27938197Y31872500D01*
X30958328Y31872500D01*
X31024299Y31853495D01*
X31150478Y31774211D01*
X31261691Y31735296D01*
X31320745Y31714632D01*
X31320750Y31714631D01*
X31499996Y31694435D01*
X31500000Y31694435D01*
X31500004Y31694435D01*
X31679249Y31714631D01*
X31679252Y31714632D01*
X31679255Y31714632D01*
X31849522Y31774211D01*
X32002262Y31870184D01*
X32129816Y31997738D01*
X32225789Y32150478D01*
X32285368Y32320745D01*
X32285369Y32320751D01*
X32305565Y32499997D01*
X32305565Y32500004D01*
X32285369Y32679250D01*
X32285368Y32679255D01*
X32270924Y32720534D01*
X32225789Y32849522D01*
X32129816Y33002262D01*
X32002262Y33129816D01*
X31975700Y33146506D01*
X31849523Y33225789D01*
X31679254Y33285369D01*
X31679249Y33285370D01*
X31500004Y33305565D01*
X31499996Y33305565D01*
X31320750Y33285370D01*
X31320745Y33285369D01*
X31150476Y33225789D01*
X31024300Y33146506D01*
X30958328Y33127500D01*
X28391461Y33127500D01*
X28324422Y33147185D01*
X28278667Y33199989D01*
X28274419Y33210546D01*
X28225789Y33349522D01*
X28129815Y33502263D01*
X28002262Y33629816D01*
X27849523Y33725789D01*
X27679254Y33785369D01*
X27679249Y33785370D01*
X27500004Y33805565D01*
X27499996Y33805565D01*
X27320750Y33785370D01*
X27320745Y33785369D01*
X27150476Y33725789D01*
X26997737Y33629816D01*
X26870184Y33502263D01*
X26774211Y33349524D01*
X26714631Y33179255D01*
X26714630Y33179250D01*
X26694435Y33000004D01*
X9318443Y33000004D01*
X9036562Y33281886D01*
X9038626Y33282740D01*
X9177844Y33375762D01*
X9296238Y33494156D01*
X9389260Y33633374D01*
X9390114Y33635438D01*
X9951464Y33074089D01*
X9951466Y33074089D01*
X9954713Y33077890D01*
X9954724Y33077905D01*
X10088363Y33295985D01*
X10088365Y33295988D01*
X10186247Y33532298D01*
X10245957Y33781011D01*
X10266024Y34036000D01*
X10245957Y34290990D01*
X10186247Y34539703D01*
X10088365Y34776013D01*
X10088363Y34776016D01*
X9954719Y34994103D01*
X9951465Y34997913D01*
X9390114Y34436563D01*
X9389260Y34438626D01*
X9296238Y34577844D01*
X9177844Y34696238D01*
X9038626Y34789260D01*
X9036561Y34790116D01*
X9597912Y35351467D01*
X9594107Y35354716D01*
X9594098Y35354723D01*
X9376015Y35488364D01*
X9376012Y35488366D01*
X9139702Y35586248D01*
X8890988Y35645958D01*
X8890989Y35645958D01*
X8636000Y35666025D01*
X8381010Y35645958D01*
X8132297Y35586248D01*
X7895987Y35488366D01*
X7895984Y35488364D01*
X7677893Y35354718D01*
X7674086Y35351468D01*
X8235438Y34790116D01*
X8233374Y34789260D01*
X8094156Y34696238D01*
X7975762Y34577844D01*
X7882740Y34438626D01*
X7881884Y34436562D01*
X7320532Y34997914D01*
X7317282Y34994107D01*
X7183636Y34776016D01*
X7183634Y34776013D01*
X7085752Y34539703D01*
X7026042Y34290990D01*
X7005975Y34036000D01*
X5186024Y34036000D01*
X5165957Y34290990D01*
X5106247Y34539703D01*
X5008365Y34776013D01*
X5008363Y34776016D01*
X4874719Y34994103D01*
X4871465Y34997913D01*
X4310114Y34436563D01*
X4309260Y34438626D01*
X4216238Y34577844D01*
X4097844Y34696238D01*
X3958626Y34789260D01*
X3956561Y34790116D01*
X4517912Y35351467D01*
X4514107Y35354716D01*
X4514098Y35354723D01*
X4296015Y35488364D01*
X4296012Y35488366D01*
X4059702Y35586248D01*
X3810988Y35645958D01*
X3810989Y35645958D01*
X3556000Y35666025D01*
X3301010Y35645958D01*
X3052297Y35586248D01*
X2815987Y35488366D01*
X2815984Y35488364D01*
X2597893Y35354718D01*
X2594086Y35351468D01*
X3155438Y34790116D01*
X3153374Y34789260D01*
X3014156Y34696238D01*
X2895762Y34577844D01*
X2802740Y34438626D01*
X2801884Y34436562D01*
X2240532Y34997914D01*
X2237282Y34994107D01*
X2103636Y34776016D01*
X2103634Y34776013D01*
X2005752Y34539703D01*
X1946042Y34290990D01*
X1925975Y34036000D01*
X500500Y34036000D01*
X500500Y36114742D01*
X69249500Y36114742D01*
X69249500Y35885259D01*
X69274446Y35695785D01*
X69279452Y35657762D01*
X69279453Y35657760D01*
X69338842Y35436113D01*
X69426650Y35224124D01*
X69426657Y35224110D01*
X69541392Y35025383D01*
X69681081Y34843339D01*
X69681089Y34843330D01*
X69843330Y34681089D01*
X69843338Y34681082D01*
X70025382Y34541393D01*
X70025385Y34541392D01*
X70025388Y34541389D01*
X70224112Y34426656D01*
X70224117Y34426654D01*
X70224123Y34426651D01*
X70313684Y34389554D01*
X70436113Y34338842D01*
X70657762Y34279452D01*
X70885266Y34249500D01*
X70885273Y34249500D01*
X71114727Y34249500D01*
X71114734Y34249500D01*
X71342238Y34279452D01*
X71563887Y34338842D01*
X71775888Y34426656D01*
X71974612Y34541389D01*
X72156661Y34681081D01*
X72156665Y34681086D01*
X72156670Y34681089D01*
X72318911Y34843330D01*
X72318914Y34843335D01*
X72318919Y34843339D01*
X72458611Y35025388D01*
X72573344Y35224112D01*
X72661158Y35436113D01*
X72720548Y35657762D01*
X72750500Y35885266D01*
X72750500Y36114734D01*
X72720548Y36342238D01*
X72661158Y36563887D01*
X72573344Y36775888D01*
X72458611Y36974612D01*
X72458608Y36974615D01*
X72458607Y36974618D01*
X72318918Y37156662D01*
X72318911Y37156670D01*
X72156670Y37318911D01*
X72156661Y37318919D01*
X71974617Y37458608D01*
X71775890Y37573343D01*
X71775876Y37573350D01*
X71563887Y37661158D01*
X71342238Y37720548D01*
X71304215Y37725554D01*
X71114741Y37750500D01*
X71114734Y37750500D01*
X70885266Y37750500D01*
X70885258Y37750500D01*
X70668715Y37721991D01*
X70657762Y37720548D01*
X70564076Y37695446D01*
X70436112Y37661158D01*
X70224123Y37573350D01*
X70224109Y37573343D01*
X70025382Y37458608D01*
X69843338Y37318919D01*
X69681081Y37156662D01*
X69541392Y36974618D01*
X69426657Y36775891D01*
X69426650Y36775877D01*
X69338842Y36563888D01*
X69279453Y36342241D01*
X69279451Y36342230D01*
X69249500Y36114742D01*
X500500Y36114742D01*
X500500Y38494587D01*
X500972Y38505394D01*
X506265Y38565892D01*
X514739Y38662758D01*
X518490Y38684034D01*
X557969Y38831373D01*
X565362Y38851682D01*
X629823Y38989919D01*
X640629Y39008634D01*
X728119Y39133583D01*
X742007Y39150135D01*
X849865Y39257993D01*
X866417Y39271881D01*
X991366Y39359371D01*
X1010081Y39370177D01*
X1148320Y39434639D01*
X1168627Y39442031D01*
X1315966Y39481510D01*
X1337242Y39485261D01*
X1469885Y39496866D01*
X1494606Y39499028D01*
X1505413Y39499500D01*
X1565892Y39499500D01*
X73434108Y39499500D01*
X73494587Y39499500D01*
X73505394Y39499028D01*
G37*
%TD.AperFunction*%
%TD*%
M02*
