%TF.GenerationSoftware,KiCad,Pcbnew,8.0.6*%
%TF.CreationDate,2025-04-09T16:55:17+02:00*%
%TF.ProjectId,stm32f205-breakout-board,73746d33-3266-4323-9035-2d627265616b,rev?*%
%TF.SameCoordinates,Original*%
%TF.FileFunction,Legend,Top*%
%TF.FilePolarity,Positive*%
%FSLAX46Y46*%
G04 Gerber Fmt 4.6, Leading zero omitted, Abs format (unit mm)*
G04 Created by KiCad (PCBNEW 8.0.6) date 2025-04-09 16:55:17*
%MOMM*%
%LPD*%
G01*
G04 APERTURE LIST*
%ADD10C,0.150000*%
%ADD11C,0.120000*%
G04 APERTURE END LIST*
D10*
X47926666Y-162224819D02*
X47926666Y-162939104D01*
X47926666Y-162939104D02*
X47879047Y-163081961D01*
X47879047Y-163081961D02*
X47783809Y-163177200D01*
X47783809Y-163177200D02*
X47640952Y-163224819D01*
X47640952Y-163224819D02*
X47545714Y-163224819D01*
X48355238Y-162320057D02*
X48402857Y-162272438D01*
X48402857Y-162272438D02*
X48498095Y-162224819D01*
X48498095Y-162224819D02*
X48736190Y-162224819D01*
X48736190Y-162224819D02*
X48831428Y-162272438D01*
X48831428Y-162272438D02*
X48879047Y-162320057D01*
X48879047Y-162320057D02*
X48926666Y-162415295D01*
X48926666Y-162415295D02*
X48926666Y-162510533D01*
X48926666Y-162510533D02*
X48879047Y-162653390D01*
X48879047Y-162653390D02*
X48307619Y-163224819D01*
X48307619Y-163224819D02*
X48926666Y-163224819D01*
X17446666Y-162224819D02*
X17446666Y-162939104D01*
X17446666Y-162939104D02*
X17399047Y-163081961D01*
X17399047Y-163081961D02*
X17303809Y-163177200D01*
X17303809Y-163177200D02*
X17160952Y-163224819D01*
X17160952Y-163224819D02*
X17065714Y-163224819D01*
X18446666Y-163224819D02*
X17875238Y-163224819D01*
X18160952Y-163224819D02*
X18160952Y-162224819D01*
X18160952Y-162224819D02*
X18065714Y-162367676D01*
X18065714Y-162367676D02*
X17970476Y-162462914D01*
X17970476Y-162462914D02*
X17875238Y-162510533D01*
X37328340Y-182230317D02*
X37900760Y-182802737D01*
X37900760Y-182802737D02*
X38001775Y-182836409D01*
X38001775Y-182836409D02*
X38069119Y-182836409D01*
X38069119Y-182836409D02*
X38170134Y-182802737D01*
X38170134Y-182802737D02*
X38304821Y-182668050D01*
X38304821Y-182668050D02*
X38338493Y-182567035D01*
X38338493Y-182567035D02*
X38338493Y-182499691D01*
X38338493Y-182499691D02*
X38304821Y-182398676D01*
X38304821Y-182398676D02*
X37732401Y-181826256D01*
X39146615Y-181826256D02*
X38742554Y-182230317D01*
X38944584Y-182028287D02*
X38237478Y-181321180D01*
X38237478Y-181321180D02*
X38271149Y-181489539D01*
X38271149Y-181489539D02*
X38271149Y-181624226D01*
X38271149Y-181624226D02*
X38237478Y-181725241D01*
D11*
%TO.C,J2*%
X46930000Y-163770000D02*
X48260000Y-163770000D01*
X46930000Y-165100000D02*
X46930000Y-163770000D01*
X46930000Y-166370000D02*
X46930000Y-189290000D01*
X46930000Y-166370000D02*
X49590000Y-166370000D01*
X46930000Y-189290000D02*
X49590000Y-189290000D01*
X49590000Y-166370000D02*
X49590000Y-189290000D01*
%TO.C,J1*%
X16450000Y-163770000D02*
X17780000Y-163770000D01*
X16450000Y-165100000D02*
X16450000Y-163770000D01*
X16450000Y-166370000D02*
X16450000Y-189290000D01*
X16450000Y-166370000D02*
X19110000Y-166370000D01*
X16450000Y-189290000D02*
X19110000Y-189290000D01*
X19110000Y-166370000D02*
X19110000Y-189290000D01*
%TO.C,U1*%
X40582507Y-175829783D02*
X40101674Y-176310615D01*
X40009751Y-175737859D01*
X40582507Y-175829783D01*
G36*
X40582507Y-175829783D02*
G01*
X40101674Y-176310615D01*
X40009751Y-175737859D01*
X40582507Y-175829783D01*
G37*
X25793369Y-176844481D02*
X26465120Y-177516232D01*
X33020000Y-184071112D02*
X32348249Y-183399361D01*
X26465120Y-176172730D02*
X25793369Y-176844481D01*
X33691751Y-183399361D02*
X33020000Y-184071112D01*
X32348249Y-170289601D02*
X33020000Y-169617850D01*
X39574880Y-177516232D02*
X40246631Y-176844481D01*
X33020000Y-169617850D02*
X33691751Y-170289601D01*
X40246631Y-176844481D02*
X39574880Y-176172730D01*
%TD*%
M02*
